<?xml version="1.0" encoding="UTF-8"?>
<svg xmlns="http://www.w3.org/2000/svg" xmlns:xlink="http://www.w3.org/1999/xlink" width="448pt" height="293pt" viewBox="0 0 448 293" version="1.1">
<g id="surface1">
<path style=" stroke:none;fill-rule:nonzero;fill:rgb(0%,0%,0%);fill-opacity:1;" d="M 120.09375 10.667969 L 116.851562 10.667969 L 116.851562 19.222656 L 117.652344 19.222656 L 117.652344 18.207031 L 119.3125 18.207031 L 119.3125 18.949219 L 120.09375 18.949219 Z M 117.652344 17.445312 L 117.652344 14.730469 L 119.3125 14.730469 L 119.3125 17.445312 Z M 117.652344 13.988281 L 117.652344 11.410156 L 119.3125 11.410156 L 119.3125 13.988281 Z M 121.714844 14.007812 L 121.050781 14.4375 C 121.734375 15.472656 122.261719 16.410156 122.652344 17.25 L 123.316406 16.78125 C 122.945312 16 122.417969 15.0625 121.714844 14.007812 Z M 124.273438 20.023438 C 124.976562 20.023438 125.328125 19.652344 125.328125 18.949219 L 125.328125 12.660156 L 126.714844 12.660156 L 126.714844 11.878906 L 125.328125 11.878906 L 125.328125 9.90625 L 124.507812 9.90625 L 124.507812 11.878906 L 120.621094 11.878906 L 120.621094 12.660156 L 124.507812 12.660156 L 124.507812 18.753906 C 124.507812 19.105469 124.332031 19.28125 124.019531 19.28125 C 123.414062 19.28125 122.789062 19.261719 122.144531 19.242188 L 122.320312 20.023438 Z M 124.273438 20.023438 "/>
<path style=" stroke:none;fill-rule:nonzero;fill:rgb(0%,0%,0%);fill-opacity:1;" d="M 130.621094 12.875 L 130.621094 18.109375 L 134.898438 18.109375 L 134.898438 12.875 Z M 134.15625 17.386719 L 131.382812 17.386719 L 131.382812 15.84375 L 134.15625 15.84375 Z M 131.382812 15.121094 L 131.382812 13.578125 L 134.15625 13.578125 L 134.15625 15.121094 Z M 136.167969 20.042969 C 136.910156 20.042969 137.300781 19.632812 137.300781 18.851562 L 137.300781 10.375 L 132.144531 10.375 L 132.144531 11.136719 L 136.519531 11.136719 L 136.519531 18.617188 C 136.519531 19.066406 136.324219 19.320312 135.992188 19.320312 L 135.015625 19.28125 L 135.210938 20.042969 Z M 128.296875 11.683594 L 128.296875 20.140625 L 129.078125 20.140625 L 129.078125 11.683594 Z M 129.9375 9.710938 L 129.195312 10.042969 C 129.683594 10.648438 130.152344 11.351562 130.582031 12.132812 L 131.304688 11.742188 C 130.914062 11 130.445312 10.335938 129.9375 9.710938 Z M 129.9375 9.710938 "/>
<path style=" stroke:none;fill-rule:nonzero;fill:rgb(0%,0%,0%);fill-opacity:1;" d="M 143.707031 9.789062 L 143.707031 13.480469 L 141.597656 13.480469 L 141.597656 10.667969 L 140.777344 10.667969 L 140.777344 13.480469 L 139.058594 13.480469 L 139.058594 14.28125 L 143.785156 14.28125 L 143.785156 17.660156 L 144.585938 17.660156 L 144.585938 14.28125 L 149.058594 14.28125 L 149.058594 13.480469 L 144.527344 13.480469 L 144.527344 11.9375 L 147.945312 11.9375 L 147.945312 11.15625 L 144.527344 11.15625 L 144.527344 9.789062 Z M 147.378906 15.101562 C 146.148438 17.953125 143.570312 19.398438 139.683594 19.398438 L 139.976562 20.179688 C 143.980469 20.160156 146.695312 18.597656 148.121094 15.492188 Z M 141.753906 14.769531 C 141.109375 15.765625 140.308594 16.625 139.351562 17.367188 L 139.859375 18.03125 C 140.835938 17.25 141.65625 16.332031 142.339844 15.296875 Z M 141.753906 14.769531 "/>
<path style=" stroke:none;fill-rule:nonzero;fill:rgb(0%,0%,0%);fill-opacity:1;" d="M 157.007812 19.007812 L 156.011719 19.007812 L 156.011719 12.699219 C 155.777344 12.933594 155.464844 13.167969 155.074219 13.402344 C 154.683594 13.625 154.335938 13.789062 154.039062 13.890625 L 154.039062 12.933594 C 154.585938 12.6875 155.066406 12.382812 155.484375 12.015625 C 155.898438 11.640625 156.191406 11.273438 156.363281 10.921875 L 157.007812 10.921875 Z M 157.007812 19.007812 "/>
<path style=" stroke:none;fill-rule:nonzero;fill:rgb(0%,0%,0%);fill-opacity:1;" d="M 128.964844 26.058594 C 128.476562 27.796875 127.695312 29.339844 126.640625 30.6875 L 126.894531 31.546875 C 127.304688 31.078125 127.65625 30.609375 127.988281 30.082031 L 127.988281 36.410156 L 128.75 36.410156 L 128.75 28.773438 C 129.121094 28.03125 129.433594 27.230469 129.6875 26.390625 Z M 129.707031 28.109375 L 129.707031 34.75 L 130.449219 34.75 L 130.449219 28.109375 Z M 130.957031 28.597656 L 130.957031 29.320312 L 136.699219 29.320312 L 136.699219 28.597656 L 135.546875 28.597656 L 135.546875 26.546875 L 131.484375 26.546875 L 131.484375 27.269531 L 134.746094 27.269531 L 134.746094 28.597656 Z M 132.207031 31.175781 L 133.457031 31.175781 L 133.457031 31.292969 C 133.457031 31.722656 133.398438 32.132812 133.320312 32.542969 L 130.917969 32.542969 L 130.917969 33.246094 L 133.105469 33.246094 C 132.65625 34.398438 131.738281 35.238281 130.351562 35.765625 L 130.859375 36.429688 C 132.265625 35.824219 133.242188 34.886719 133.769531 33.617188 C 134.335938 34.632812 135.253906 35.550781 136.503906 36.390625 L 137.03125 35.726562 C 135.742188 34.984375 134.84375 34.164062 134.316406 33.246094 L 136.894531 33.246094 L 136.894531 32.542969 L 134.101562 32.542969 C 134.179688 32.113281 134.21875 31.664062 134.238281 31.175781 L 136.425781 31.175781 L 136.425781 30.453125 L 132.578125 30.453125 C 132.675781 30.21875 132.792969 29.964844 132.890625 29.730469 L 132.207031 29.574219 C 131.855469 30.433594 131.445312 31.15625 130.898438 31.683594 L 131.386719 32.269531 C 131.679688 31.957031 131.972656 31.585938 132.207031 31.175781 Z M 132.207031 31.175781 "/>
<path style=" stroke:none;fill-rule:nonzero;fill:rgb(0%,0%,0%);fill-opacity:1;" d="M 138.925781 26.253906 L 138.359375 26.78125 C 139.160156 27.40625 139.804688 27.992188 140.253906 28.558594 L 140.820312 27.992188 C 140.292969 27.425781 139.667969 26.839844 138.925781 26.253906 Z M 145.449219 36.175781 L 148.066406 36.175781 L 148.261719 35.375 C 147.96875 35.394531 147.539062 35.394531 146.992188 35.414062 C 146.425781 35.433594 145.878906 35.433594 145.332031 35.433594 C 144.472656 35.433594 143.730469 35.433594 143.144531 35.414062 C 142.460938 35.394531 141.953125 35.296875 141.601562 35.140625 C 141.289062 35.003906 140.996094 34.769531 140.722656 34.4375 C 140.644531 34.339844 140.546875 34.242188 140.449219 34.183594 L 140.449219 29.964844 L 138.105469 29.964844 L 138.105469 30.707031 L 139.707031 30.707031 L 139.707031 34.125 C 139.238281 34.339844 138.710938 34.925781 138.105469 35.882812 L 138.710938 36.429688 C 139.335938 35.375 139.785156 34.847656 140.058594 34.847656 C 140.195312 34.847656 140.351562 34.945312 140.507812 35.140625 C 140.859375 35.53125 141.25 35.824219 141.679688 35.960938 C 142.128906 36.078125 142.734375 36.15625 143.457031 36.15625 C 144.179688 36.175781 144.84375 36.175781 145.449219 36.175781 Z M 144.492188 26.039062 L 144.492188 27.464844 L 143.007812 27.464844 C 143.144531 27.113281 143.261719 26.742188 143.378906 26.351562 L 142.597656 26.195312 C 142.324219 27.210938 141.894531 28.128906 141.289062 28.988281 L 141.992188 29.417969 C 142.226562 29.066406 142.460938 28.675781 142.65625 28.246094 L 144.492188 28.246094 L 144.492188 29.867188 L 141.5625 29.867188 L 141.5625 30.648438 L 143.378906 30.648438 C 143.339844 31.351562 143.222656 31.957031 143.027344 32.445312 C 142.734375 33.128906 142.148438 33.675781 141.230469 34.125 L 141.757812 34.769531 C 142.8125 34.222656 143.515625 33.519531 143.808594 32.660156 C 143.984375 32.09375 144.101562 31.429688 144.140625 30.648438 L 145.273438 30.648438 L 145.273438 33.832031 C 145.273438 34.085938 145.332031 34.28125 145.507812 34.457031 C 145.644531 34.613281 145.859375 34.691406 146.152344 34.691406 L 146.953125 34.691406 C 147.34375 34.671875 147.617188 34.574219 147.773438 34.417969 C 147.949219 34.242188 148.066406 33.695312 148.125 32.757812 L 147.421875 32.523438 C 147.382812 33.324219 147.285156 33.773438 147.148438 33.871094 C 147.070312 33.949219 146.953125 33.96875 146.796875 33.96875 L 146.386719 33.96875 C 146.132812 33.96875 146.035156 33.871094 146.035156 33.65625 L 146.035156 30.648438 L 147.910156 30.648438 L 147.910156 29.867188 L 145.273438 29.867188 L 145.273438 28.246094 L 147.519531 28.246094 L 147.519531 27.464844 L 145.273438 27.464844 L 145.273438 26.039062 Z M 144.492188 26.039062 "/>
<path style=" stroke:none;fill-rule:nonzero;fill:rgb(0%,0%,0%);fill-opacity:1;" d="M 8.261719 177.226562 L 8.261719 166.953125 L 10.449219 166.953125 L 10.449219 167.773438 L 9.257812 167.773438 L 9.257812 176.425781 L 10.449219 176.425781 L 10.449219 177.226562 Z M 8.261719 177.226562 "/>
<path style=" stroke:none;fill-rule:nonzero;fill:rgb(0%,0%,0%);fill-opacity:1;" d="M 13.027344 177.226562 L 10.839844 177.226562 L 10.839844 176.425781 L 12.03125 176.425781 L 12.03125 167.773438 L 10.839844 167.773438 L 10.839844 166.953125 L 13.027344 166.953125 Z M 13.027344 177.226562 "/>
<path style="fill-rule:nonzero;fill:rgb(69.803922%,85.098039%,100%);fill-opacity:1;stroke-width:1;stroke-linecap:round;stroke-linejoin:round;stroke:rgb(0%,0%,0%);stroke-opacity:1;stroke-miterlimit:10;" d="M 215.0875 237.55 C 217.81875 240.284375 217.81875 244.715625 215.0875 247.45 C 212.35625 250.184375 207.921875 250.184375 205.1875 247.45 C 202.453125 244.715625 202.453125 240.284375 205.1875 237.55 C 207.921875 234.815625 212.35625 234.815625 215.0875 237.55 " transform="matrix(1.25,0,0,1.25,-180,-175)"/>
<path style=" stroke:none;fill-rule:nonzero;fill:rgb(0%,0%,0%);fill-opacity:1;" d="M 78.6875 131.691406 L 83.257812 123.644531 L 84.527344 123.644531 L 85.855469 131.691406 L 84.820312 131.691406 L 84.429688 129.367188 L 81.167969 129.367188 L 79.878906 131.691406 Z M 81.636719 128.546875 L 84.292969 128.546875 L 83.980469 126.515625 C 83.863281 125.722656 83.789062 125.058594 83.765625 124.523438 C 83.570312 124.980469 83.296875 125.527344 82.945312 126.164062 Z M 81.636719 128.546875 "/>
<path style=" stroke:none;fill-rule:nonzero;fill:rgb(0%,0%,0%);fill-opacity:1;" d="M 79.410156 153.125 L 81.089844 145.078125 L 83.589844 145.078125 C 84.042969 145.078125 84.378906 145.09375 84.605469 145.117188 C 84.957031 145.1875 85.253906 145.292969 85.503906 145.449219 C 85.746094 145.605469 85.9375 145.820312 86.070312 146.09375 C 86.210938 146.367188 86.285156 146.671875 86.285156 146.992188 C 86.285156 147.4375 86.15625 147.828125 85.914062 148.164062 C 85.679688 148.492188 85.308594 148.746094 84.800781 148.925781 C 85.238281 149.070312 85.566406 149.289062 85.777344 149.570312 C 85.996094 149.859375 86.109375 150.191406 86.109375 150.566406 C 86.109375 151.023438 85.976562 151.453125 85.71875 151.855469 C 85.46875 152.261719 85.132812 152.574219 84.703125 152.792969 C 84.28125 153.015625 83.824219 153.125 83.316406 153.125 Z M 81.460938 148.515625 L 83.082031 148.515625 C 83.863281 148.515625 84.417969 148.394531 84.761719 148.144531 C 85.113281 147.886719 85.289062 147.519531 85.289062 147.050781 C 85.289062 146.816406 85.230469 146.621094 85.113281 146.464844 C 85.003906 146.296875 84.863281 146.179688 84.683594 146.113281 C 84.511719 146.035156 84.179688 145.996094 83.6875 145.996094 L 81.988281 145.996094 Z M 80.679688 152.207031 L 82.515625 152.207031 C 82.992188 152.207031 83.320312 152.195312 83.492188 152.167969 C 83.828125 152.105469 84.101562 152.007812 84.3125 151.875 C 84.53125 151.734375 84.703125 151.542969 84.820312 151.308594 C 84.945312 151.074219 85.015625 150.835938 85.015625 150.585938 C 85.015625 150.210938 84.886719 149.921875 84.644531 149.726562 C 84.410156 149.53125 83.960938 149.433594 83.296875 149.433594 L 81.265625 149.433594 Z M 80.679688 152.207031 "/>
<path style=" stroke:none;fill-rule:nonzero;fill:rgb(0%,0%,0%);fill-opacity:1;" d="M 79.117188 196.875 L 80.796875 188.828125 L 83.21875 188.828125 C 83.804688 188.828125 84.246094 188.867188 84.546875 188.945312 C 84.988281 189.0625 85.367188 189.273438 85.679688 189.570312 C 85.992188 189.859375 86.226562 190.226562 86.382812 190.664062 C 86.539062 191.09375 86.617188 191.578125 86.617188 192.109375 C 86.617188 192.765625 86.519531 193.355469 86.324219 193.886719 C 86.128906 194.425781 85.867188 194.894531 85.542969 195.292969 C 85.230469 195.699219 84.898438 196.015625 84.546875 196.25 C 84.207031 196.476562 83.804688 196.640625 83.335938 196.757812 C 82.96875 196.835938 82.527344 196.875 82.007812 196.875 Z M 80.386719 195.957031 L 81.65625 195.957031 C 82.226562 195.957031 82.734375 195.910156 83.179688 195.800781 C 83.464844 195.738281 83.707031 195.640625 83.902344 195.507812 C 84.160156 195.351562 84.394531 195.136719 84.605469 194.863281 C 84.890625 194.503906 85.113281 194.09375 85.269531 193.632812 C 85.4375 193.179688 85.523438 192.65625 85.523438 192.070312 C 85.523438 191.421875 85.40625 190.917969 85.171875 190.566406 C 84.949219 190.214844 84.664062 189.980469 84.3125 189.863281 C 84.050781 189.785156 83.648438 189.746094 83.101562 189.746094 L 81.675781 189.746094 Z M 80.386719 195.957031 "/>
<path style="fill:none;stroke-width:1;stroke-linecap:round;stroke-linejoin:round;stroke:rgb(0%,0%,0%);stroke-opacity:1;stroke-miterlimit:10;" d="M 160.5 272.640625 L 199.109375 249.19375 " transform="matrix(1.25,0,0,1.25,-180,-175)"/>
<path style="fill:none;stroke-width:1;stroke-linecap:butt;stroke-linejoin:miter;stroke:rgb(0%,0%,0%);stroke-opacity:1;stroke-miterlimit:10;" d="M 202.528125 247.121875 L 199.109375 249.19375 M 198.33125 247.9125 L 202.528125 247.121875 L 199.8875 250.48125 " transform="matrix(1.25,0,0,1.25,-180,-175)"/>
<path style="fill:none;stroke-width:1;stroke-linecap:round;stroke-linejoin:round;stroke:rgb(0%,0%,0%);stroke-opacity:1;stroke-miterlimit:10;" d="M 160.5 275.06875 L 195.99375 264.29375 " transform="matrix(1.25,0,0,1.25,-180,-175)"/>
<path style="fill:none;stroke-width:1;stroke-linecap:butt;stroke-linejoin:miter;stroke:rgb(0%,0%,0%);stroke-opacity:1;stroke-miterlimit:10;" d="M 199.81875 263.13125 L 195.99375 264.29375 M 195.55625 262.859375 L 199.81875 263.13125 L 196.43125 265.73125 " transform="matrix(1.25,0,0,1.25,-180,-175)"/>
<path style="fill:none;stroke-width:1;stroke-linecap:round;stroke-linejoin:round;stroke:rgb(0%,0%,0%);stroke-opacity:1;stroke-miterlimit:10;" d="M 160.5 279.93125 L 195.99375 290.70625 " transform="matrix(1.25,0,0,1.25,-180,-175)"/>
<path style="fill:none;stroke-width:1;stroke-linecap:butt;stroke-linejoin:miter;stroke:rgb(0%,0%,0%);stroke-opacity:1;stroke-miterlimit:10;" d="M 199.81875 291.86875 L 195.99375 290.70625 M 196.43125 289.26875 L 199.81875 291.86875 L 195.55625 292.140625 " transform="matrix(1.25,0,0,1.25,-180,-175)"/>
<path style=" stroke:none;fill-rule:nonzero;fill:rgb(0%,0%,0%);fill-opacity:1;" d="M 79.429688 216.933594 L 81.109375 208.886719 L 86.929688 208.886719 L 86.734375 209.804688 L 82.007812 209.804688 L 81.480469 212.304688 L 86.089844 212.304688 L 85.894531 213.222656 L 81.285156 213.222656 L 80.699219 216.015625 L 85.757812 216.015625 L 85.582031 216.933594 Z M 79.429688 216.933594 "/>
<path style="fill-rule:nonzero;fill:rgb(69.803922%,85.098039%,100%);fill-opacity:1;stroke-width:1;stroke-linecap:round;stroke-linejoin:round;stroke:rgb(0%,0%,0%);stroke-opacity:1;stroke-miterlimit:10;" d="M 215.0875 272.55 C 217.81875 275.284375 217.81875 279.715625 215.0875 282.45 C 212.35625 285.184375 207.921875 285.184375 205.1875 282.45 C 202.453125 279.715625 202.453125 275.284375 205.1875 272.55 C 207.921875 269.815625 212.35625 269.815625 215.0875 272.55 " transform="matrix(1.25,0,0,1.25,-180,-175)"/>
<path style=" stroke:none;fill-rule:nonzero;fill:rgb(0%,0%,0%);fill-opacity:1;" d="M 85.386719 172.609375 L 86.460938 172.746094 C 86.121094 173.683594 85.625 174.394531 84.976562 174.875 C 84.335938 175.34375 83.613281 175.578125 82.808594 175.578125 C 81.832031 175.578125 81.054688 175.28125 80.484375 174.679688 C 79.910156 174.082031 79.625 173.230469 79.625 172.121094 C 79.625 170.664062 80.058594 169.464844 80.933594 168.527344 C 81.714844 167.683594 82.675781 167.257812 83.824219 167.257812 C 84.683594 167.257812 85.371094 167.488281 85.894531 167.941406 C 86.425781 168.398438 86.738281 169.011719 86.832031 169.777344 L 85.816406 169.875 C 85.710938 169.289062 85.488281 168.855469 85.152344 168.566406 C 84.824219 168.28125 84.402344 168.136719 83.882812 168.136719 C 82.890625 168.136719 82.097656 168.574219 81.5 169.445312 C 80.964844 170.203125 80.699219 171.101562 80.699219 172.140625 C 80.699219 172.976562 80.898438 173.605469 81.304688 174.035156 C 81.71875 174.464844 82.253906 174.679688 82.90625 174.679688 C 83.453125 174.679688 83.953125 174.503906 84.410156 174.152344 C 84.863281 173.789062 85.191406 173.273438 85.386719 172.609375 Z M 85.386719 172.609375 "/>
<path style="fill:none;stroke-width:1;stroke-linecap:round;stroke-linejoin:round;stroke:rgb(0%,0%,0%);stroke-opacity:1;stroke-miterlimit:10;" d="M 160.5 277.5 L 197.2375 277.5 " transform="matrix(1.25,0,0,1.25,-180,-175)"/>
<path style="fill:none;stroke-width:1;stroke-linecap:butt;stroke-linejoin:miter;stroke:rgb(0%,0%,0%);stroke-opacity:1;stroke-miterlimit:10;" d="M 201.2375 277.5 L 197.2375 277.5 M 197.2375 276 L 201.2375 277.5 L 197.2375 279 " transform="matrix(1.25,0,0,1.25,-180,-175)"/>
<path style="fill:none;stroke-width:1;stroke-linecap:round;stroke-linejoin:round;stroke:rgb(0%,0%,0%);stroke-opacity:1;stroke-miterlimit:10;" d="M 160.5 282.15625 L 196.5375 303.13125 " transform="matrix(1.25,0,0,1.25,-180,-175)"/>
<path style="fill:none;stroke-width:1;stroke-linecap:butt;stroke-linejoin:miter;stroke:rgb(0%,0%,0%);stroke-opacity:1;stroke-miterlimit:10;" d="M 199.996875 305.14375 L 196.5375 303.13125 M 197.29375 301.8375 L 199.996875 305.14375 L 195.784375 304.425 " transform="matrix(1.25,0,0,1.25,-180,-175)"/>
<path style=" stroke:none;fill-rule:nonzero;fill:rgb(0%,0%,0%);fill-opacity:1;" d="M 133.515625 115.625 L 138.085938 107.578125 L 139.355469 107.578125 L 140.683594 115.625 L 139.648438 115.625 L 139.257812 113.300781 L 135.996094 113.300781 L 134.707031 115.625 Z M 136.464844 112.480469 L 139.121094 112.480469 L 138.808594 110.449219 C 138.691406 109.65625 138.617188 108.992188 138.59375 108.457031 C 138.398438 108.914062 138.125 109.460938 137.773438 110.097656 Z M 136.464844 112.480469 "/>
<path style="fill-rule:nonzero;fill:rgb(69.803922%,85.098039%,100%);fill-opacity:1;stroke-width:1;stroke-linecap:round;stroke-linejoin:round;stroke:rgb(0%,0%,0%);stroke-opacity:1;stroke-miterlimit:10;" d="M 316.5875 206.55 C 319.31875 209.284375 319.31875 213.715625 316.5875 216.45 C 313.85625 219.184375 309.421875 219.184375 306.6875 216.45 C 303.953125 213.715625 303.953125 209.284375 306.6875 206.55 C 309.421875 203.815625 313.85625 203.815625 316.5875 206.55 " transform="matrix(1.25,0,0,1.25,-180,-175)"/>
<path style=" stroke:none;fill-rule:nonzero;fill:rgb(0%,0%,0%);fill-opacity:1;" d="M 206.285156 92.941406 L 207.964844 84.894531 L 210.464844 84.894531 C 210.917969 84.894531 211.253906 84.910156 211.480469 84.933594 C 211.832031 85 212.128906 85.109375 212.378906 85.265625 C 212.621094 85.421875 212.8125 85.636719 212.945312 85.910156 C 213.085938 86.183594 213.160156 86.484375 213.160156 86.808594 C 213.160156 87.253906 213.03125 87.644531 212.789062 87.980469 C 212.554688 88.308594 212.183594 88.5625 211.675781 88.742188 C 212.113281 88.886719 212.441406 89.101562 212.652344 89.386719 C 212.871094 89.675781 212.984375 90.007812 212.984375 90.382812 C 212.984375 90.839844 212.851562 91.269531 212.59375 91.671875 C 212.34375 92.078125 212.007812 92.390625 211.578125 92.609375 C 211.15625 92.832031 210.699219 92.941406 210.191406 92.941406 Z M 208.335938 88.332031 L 209.957031 88.332031 C 210.738281 88.332031 211.292969 88.210938 211.636719 87.960938 C 211.988281 87.703125 212.164062 87.335938 212.164062 86.867188 C 212.164062 86.632812 212.105469 86.4375 211.988281 86.28125 C 211.878906 86.113281 211.738281 85.996094 211.558594 85.929688 C 211.386719 85.851562 211.054688 85.8125 210.5625 85.8125 L 208.863281 85.8125 Z M 207.554688 92.023438 L 209.390625 92.023438 C 209.867188 92.023438 210.195312 92.011719 210.367188 91.984375 C 210.703125 91.921875 210.976562 91.824219 211.1875 91.691406 C 211.40625 91.550781 211.578125 91.359375 211.695312 91.125 C 211.820312 90.890625 211.890625 90.652344 211.890625 90.402344 C 211.890625 90.027344 211.761719 89.738281 211.519531 89.542969 C 211.285156 89.347656 210.835938 89.25 210.171875 89.25 L 208.140625 89.25 Z M 207.554688 92.023438 "/>
<path style=" stroke:none;fill-rule:nonzero;fill:rgb(0%,0%,0%);fill-opacity:1;" d="M 205.5625 70.625 L 210.132812 62.578125 L 211.402344 62.578125 L 212.730469 70.625 L 211.695312 70.625 L 211.304688 68.300781 L 208.042969 68.300781 L 206.753906 70.625 Z M 208.511719 67.480469 L 211.167969 67.480469 L 210.855469 65.449219 C 210.738281 64.65625 210.664062 63.992188 210.640625 63.457031 C 210.445312 63.914062 210.171875 64.460938 209.820312 65.097656 Z M 208.511719 67.480469 "/>
<path style=" stroke:none;fill-rule:nonzero;fill:rgb(0%,0%,0%);fill-opacity:1;" d="M 205.992188 137.5 L 207.671875 129.453125 L 210.09375 129.453125 C 210.679688 129.453125 211.121094 129.492188 211.421875 129.570312 C 211.863281 129.6875 212.242188 129.898438 212.554688 130.195312 C 212.867188 130.484375 213.101562 130.851562 213.257812 131.289062 C 213.414062 131.71875 213.492188 132.203125 213.492188 132.734375 C 213.492188 133.390625 213.394531 133.980469 213.199219 134.511719 C 213.003906 135.050781 212.742188 135.519531 212.417969 135.917969 C 212.105469 136.324219 211.773438 136.640625 211.421875 136.875 C 211.082031 137.101562 210.679688 137.265625 210.210938 137.382812 C 209.84375 137.460938 209.402344 137.5 208.882812 137.5 Z M 207.261719 136.582031 L 208.53125 136.582031 C 209.101562 136.582031 209.609375 136.535156 210.054688 136.425781 C 210.339844 136.363281 210.582031 136.265625 210.777344 136.132812 C 211.035156 135.976562 211.269531 135.761719 211.480469 135.488281 C 211.765625 135.128906 211.988281 134.71875 212.144531 134.257812 C 212.3125 133.804688 212.398438 133.28125 212.398438 132.695312 C 212.398438 132.046875 212.28125 131.542969 212.046875 131.191406 C 211.824219 130.839844 211.539062 130.605469 211.1875 130.488281 C 210.925781 130.410156 210.523438 130.371094 209.976562 130.371094 L 208.550781 130.371094 Z M 207.261719 136.582031 "/>
<path style="fill:none;stroke-width:1;stroke-linecap:round;stroke-linejoin:round;stroke:rgb(0%,0%,0%);stroke-opacity:1;stroke-miterlimit:10;" d="M 262.5 227.275 L 299.35 215.440625 " transform="matrix(1.25,0,0,1.25,-180,-175)"/>
<path style="fill:none;stroke-width:1;stroke-linecap:butt;stroke-linejoin:miter;stroke:rgb(0%,0%,0%);stroke-opacity:1;stroke-miterlimit:10;" d="M 303.159375 214.21875 L 299.35 215.440625 M 298.89375 214.015625 L 303.159375 214.21875 L 299.8125 216.871875 " transform="matrix(1.25,0,0,1.25,-180,-175)"/>
<path style="fill:none;stroke-width:1;stroke-linecap:round;stroke-linejoin:round;stroke:rgb(0%,0%,0%);stroke-opacity:1;stroke-miterlimit:10;" d="M 262.5 224.690625 L 298.13125 202.434375 " transform="matrix(1.25,0,0,1.25,-180,-175)"/>
<path style="fill:none;stroke-width:1;stroke-linecap:butt;stroke-linejoin:miter;stroke:rgb(0%,0%,0%);stroke-opacity:1;stroke-miterlimit:10;" d="M 301.528125 200.315625 L 298.13125 202.434375 M 297.340625 201.1625 L 301.528125 200.315625 L 298.93125 203.70625 " transform="matrix(1.25,0,0,1.25,-180,-175)"/>
<path style="fill:none;stroke-width:1;stroke-linecap:round;stroke-linejoin:round;stroke:rgb(0%,0%,0%);stroke-opacity:1;stroke-miterlimit:10;" d="M 262.5 232.58125 L 297.49375 243.20625 " transform="matrix(1.25,0,0,1.25,-180,-175)"/>
<path style="fill:none;stroke-width:1;stroke-linecap:butt;stroke-linejoin:miter;stroke:rgb(0%,0%,0%);stroke-opacity:1;stroke-miterlimit:10;" d="M 301.31875 244.36875 L 297.49375 243.20625 M 297.93125 241.76875 L 301.31875 244.36875 L 297.05625 244.640625 " transform="matrix(1.25,0,0,1.25,-180,-175)"/>
<path style=" stroke:none;fill-rule:nonzero;fill:rgb(0%,0%,0%);fill-opacity:1;" d="M 206.304688 157.558594 L 207.984375 149.511719 L 213.804688 149.511719 L 213.609375 150.429688 L 208.882812 150.429688 L 208.355469 152.929688 L 212.964844 152.929688 L 212.769531 153.847656 L 208.160156 153.847656 L 207.574219 156.640625 L 212.632812 156.640625 L 212.457031 157.558594 Z M 206.304688 157.558594 "/>
<path style="fill:none;stroke-width:1;stroke-linecap:round;stroke-linejoin:round;stroke:rgb(0%,0%,0%);stroke-opacity:1;stroke-miterlimit:10;" d="M 262.5 234.94375 L 298.0375 255.63125 " transform="matrix(1.25,0,0,1.25,-180,-175)"/>
<path style="fill:none;stroke-width:1;stroke-linecap:butt;stroke-linejoin:miter;stroke:rgb(0%,0%,0%);stroke-opacity:1;stroke-miterlimit:10;" d="M 301.496875 257.64375 L 298.0375 255.63125 M 298.79375 254.3375 L 301.496875 257.64375 L 297.284375 256.925 " transform="matrix(1.25,0,0,1.25,-180,-175)"/>
<path style=" stroke:none;fill-rule:nonzero;fill:rgb(0%,0%,0%);fill-opacity:1;" d="M 140.214844 233.417969 L 141.289062 233.554688 C 140.949219 234.492188 140.453125 235.203125 139.804688 235.683594 C 139.164062 236.152344 138.441406 236.386719 137.636719 236.386719 C 136.660156 236.386719 135.882812 236.089844 135.3125 235.488281 C 134.738281 234.890625 134.453125 234.039062 134.453125 232.929688 C 134.453125 231.476562 134.886719 230.273438 135.761719 229.335938 C 136.542969 228.492188 137.503906 228.066406 138.652344 228.066406 C 139.511719 228.066406 140.199219 228.296875 140.722656 228.75 C 141.253906 229.210938 141.566406 229.820312 141.660156 230.585938 L 140.644531 230.683594 C 140.539062 230.097656 140.316406 229.664062 139.980469 229.375 C 139.652344 229.09375 139.230469 228.945312 138.710938 228.945312 C 137.71875 228.945312 136.925781 229.382812 136.328125 230.253906 C 135.792969 231.011719 135.527344 231.910156 135.527344 232.949219 C 135.527344 233.785156 135.726562 234.414062 136.132812 234.84375 C 136.546875 235.273438 137.082031 235.488281 137.734375 235.488281 C 138.28125 235.488281 138.78125 235.3125 139.238281 234.960938 C 139.691406 234.601562 140.019531 234.082031 140.214844 233.417969 Z M 140.214844 233.417969 "/>
<path style=" stroke:none;fill-rule:nonzero;fill:rgb(0%,0%,0%);fill-opacity:1;" d="M 206.285156 214.375 L 207.964844 206.328125 L 210.464844 206.328125 C 210.917969 206.328125 211.253906 206.34375 211.480469 206.367188 C 211.832031 206.4375 212.128906 206.542969 212.378906 206.699219 C 212.621094 206.855469 212.8125 207.070312 212.945312 207.34375 C 213.085938 207.617188 213.160156 207.921875 213.160156 208.242188 C 213.160156 208.6875 213.03125 209.078125 212.789062 209.414062 C 212.554688 209.742188 212.183594 209.996094 211.675781 210.175781 C 212.113281 210.320312 212.441406 210.539062 212.652344 210.820312 C 212.871094 211.109375 212.984375 211.441406 212.984375 211.816406 C 212.984375 212.273438 212.851562 212.703125 212.59375 213.105469 C 212.34375 213.511719 212.007812 213.824219 211.578125 214.042969 C 211.15625 214.265625 210.699219 214.375 210.191406 214.375 Z M 208.335938 209.765625 L 209.957031 209.765625 C 210.738281 209.765625 211.292969 209.644531 211.636719 209.394531 C 211.988281 209.136719 212.164062 208.769531 212.164062 208.300781 C 212.164062 208.066406 212.105469 207.871094 211.988281 207.714844 C 211.878906 207.546875 211.738281 207.429688 211.558594 207.363281 C 211.386719 207.285156 211.054688 207.246094 210.5625 207.246094 L 208.863281 207.246094 Z M 207.554688 213.457031 L 209.390625 213.457031 C 209.867188 213.457031 210.195312 213.445312 210.367188 213.417969 C 210.703125 213.355469 210.976562 213.257812 211.1875 213.125 C 211.40625 212.984375 211.578125 212.792969 211.695312 212.558594 C 211.820312 212.324219 211.890625 212.085938 211.890625 211.835938 C 211.890625 211.460938 211.761719 211.171875 211.519531 210.976562 C 211.285156 210.78125 210.835938 210.683594 210.171875 210.683594 L 208.140625 210.683594 Z M 207.554688 213.457031 "/>
<path style=" stroke:none;fill-rule:nonzero;fill:rgb(0%,0%,0%);fill-opacity:1;" d="M 205.992188 255.625 L 207.671875 247.578125 L 210.09375 247.578125 C 210.679688 247.578125 211.121094 247.617188 211.421875 247.695312 C 211.863281 247.8125 212.242188 248.023438 212.554688 248.320312 C 212.867188 248.609375 213.101562 248.976562 213.257812 249.414062 C 213.414062 249.84375 213.492188 250.328125 213.492188 250.859375 C 213.492188 251.515625 213.394531 252.105469 213.199219 252.636719 C 213.003906 253.171875 212.742188 253.640625 212.417969 254.042969 C 212.105469 254.449219 211.773438 254.765625 211.421875 255 C 211.082031 255.226562 210.679688 255.390625 210.210938 255.507812 C 209.84375 255.585938 209.402344 255.625 208.882812 255.625 Z M 207.261719 254.707031 L 208.53125 254.707031 C 209.101562 254.707031 209.609375 254.65625 210.054688 254.550781 C 210.339844 254.488281 210.582031 254.390625 210.777344 254.257812 C 211.035156 254.101562 211.269531 253.886719 211.480469 253.613281 C 211.765625 253.25 211.988281 252.84375 212.144531 252.382812 C 212.3125 251.929688 212.398438 251.40625 212.398438 250.820312 C 212.398438 250.171875 212.28125 249.667969 212.046875 249.316406 C 211.824219 248.964844 211.539062 248.730469 211.1875 248.613281 C 210.925781 248.535156 210.523438 248.496094 209.976562 248.496094 L 208.550781 248.496094 Z M 207.261719 254.707031 "/>
<path style="fill:none;stroke-width:1;stroke-linecap:round;stroke-linejoin:round;stroke:rgb(0%,0%,0%);stroke-opacity:1;stroke-miterlimit:10;" d="M 262.5 323.91875 L 297.49375 313.29375 " transform="matrix(1.25,0,0,1.25,-180,-175)"/>
<path style="fill:none;stroke-width:1;stroke-linecap:butt;stroke-linejoin:miter;stroke:rgb(0%,0%,0%);stroke-opacity:1;stroke-miterlimit:10;" d="M 301.31875 312.13125 L 297.49375 313.29375 M 297.05625 311.859375 L 301.31875 312.13125 L 297.93125 314.73125 " transform="matrix(1.25,0,0,1.25,-180,-175)"/>
<path style="fill:none;stroke-width:1;stroke-linecap:round;stroke-linejoin:round;stroke:rgb(0%,0%,0%);stroke-opacity:1;stroke-miterlimit:10;" d="M 262.5 328.784375 L 297.440625 338.184375 " transform="matrix(1.25,0,0,1.25,-180,-175)"/>
<path style="fill:none;stroke-width:1;stroke-linecap:butt;stroke-linejoin:miter;stroke:rgb(0%,0%,0%);stroke-opacity:1;stroke-miterlimit:10;" d="M 301.30625 339.221875 L 297.440625 338.184375 M 297.828125 336.734375 L 301.30625 339.221875 L 297.05 339.628125 " transform="matrix(1.25,0,0,1.25,-180,-175)"/>
<path style=" stroke:none;fill-rule:nonzero;fill:rgb(0%,0%,0%);fill-opacity:1;" d="M 212.261719 232.167969 L 213.335938 232.304688 C 212.996094 233.242188 212.5 233.953125 211.851562 234.433594 C 211.210938 234.902344 210.488281 235.136719 209.683594 235.136719 C 208.707031 235.136719 207.929688 234.839844 207.359375 234.238281 C 206.785156 233.640625 206.5 232.789062 206.5 231.679688 C 206.5 230.226562 206.933594 229.023438 207.808594 228.085938 C 208.589844 227.242188 209.550781 226.816406 210.699219 226.816406 C 211.558594 226.816406 212.246094 227.046875 212.769531 227.5 C 213.300781 227.960938 213.613281 228.570312 213.707031 229.335938 L 212.691406 229.433594 C 212.585938 228.847656 212.363281 228.414062 212.027344 228.125 C 211.699219 227.84375 211.277344 227.695312 210.757812 227.695312 C 209.765625 227.695312 208.972656 228.132812 208.375 229.003906 C 207.839844 229.761719 207.574219 230.660156 207.574219 231.699219 C 207.574219 232.535156 207.773438 233.164062 208.179688 233.59375 C 208.59375 234.023438 209.128906 234.238281 209.78125 234.238281 C 210.328125 234.238281 210.828125 234.0625 211.285156 233.710938 C 211.738281 233.351562 212.066406 232.832031 212.261719 232.167969 Z M 212.261719 232.167969 "/>
<path style="fill-rule:nonzero;fill:rgb(69.803922%,85.098039%,100%);fill-opacity:1;stroke-width:1;stroke-linecap:round;stroke-linejoin:round;stroke:rgb(0%,0%,0%);stroke-opacity:1;stroke-miterlimit:10;" d="M 316.5875 354.55 C 319.31875 357.284375 319.31875 361.715625 316.5875 364.45 C 313.85625 367.184375 309.421875 367.184375 306.6875 364.45 C 303.953125 361.715625 303.953125 357.284375 306.6875 354.55 C 309.421875 351.815625 313.85625 351.815625 316.5875 354.55 " transform="matrix(1.25,0,0,1.25,-180,-175)"/>
<path style=" stroke:none;fill-rule:nonzero;fill:rgb(0%,0%,0%);fill-opacity:1;" d="M 206.304688 277.941406 L 207.984375 269.894531 L 213.804688 269.894531 L 213.609375 270.8125 L 208.882812 270.8125 L 208.355469 273.3125 L 212.964844 273.3125 L 212.769531 274.230469 L 208.160156 274.230469 L 207.574219 277.023438 L 212.632812 277.023438 L 212.457031 277.941406 Z M 206.304688 277.941406 "/>
<path style="fill:none;stroke-width:1;stroke-linecap:round;stroke-linejoin:round;stroke:rgb(0%,0%,0%);stroke-opacity:1;stroke-miterlimit:10;" d="M 262.5 331.36875 L 300.440625 353.090625 " transform="matrix(1.25,0,0,1.25,-180,-175)"/>
<path style="fill:none;stroke-width:1;stroke-linecap:butt;stroke-linejoin:miter;stroke:rgb(0%,0%,0%);stroke-opacity:1;stroke-miterlimit:10;" d="M 303.9125 355.078125 L 300.440625 353.090625 M 301.1875 351.7875 L 303.9125 355.078125 L 299.69375 354.390625 " transform="matrix(1.25,0,0,1.25,-180,-175)"/>
<path style="fill:none;stroke-width:1;stroke-linecap:round;stroke-linejoin:round;stroke:rgb(0%,0%,0%);stroke-opacity:1;stroke-miterlimit:10;" d="M 262.5 326.35 L 297.2375 325.75 " transform="matrix(1.25,0,0,1.25,-180,-175)"/>
<path style="fill:none;stroke-width:1;stroke-linecap:butt;stroke-linejoin:miter;stroke:rgb(0%,0%,0%);stroke-opacity:1;stroke-miterlimit:10;" d="M 301.2375 325.68125 L 297.2375 325.75 M 297.2125 324.25 L 301.2375 325.68125 L 297.265625 327.25 " transform="matrix(1.25,0,0,1.25,-180,-175)"/>
<path style=" stroke:none;fill-rule:nonzero;fill:rgb(0%,0%,0%);fill-opacity:1;" d="M 212.261719 112.792969 L 213.335938 112.929688 C 212.996094 113.867188 212.5 114.578125 211.851562 115.058594 C 211.210938 115.527344 210.488281 115.761719 209.683594 115.761719 C 208.707031 115.761719 207.929688 115.464844 207.359375 114.863281 C 206.785156 114.265625 206.5 113.414062 206.5 112.304688 C 206.5 110.851562 206.933594 109.648438 207.808594 108.710938 C 208.589844 107.867188 209.550781 107.441406 210.699219 107.441406 C 211.558594 107.441406 212.246094 107.671875 212.769531 108.125 C 213.300781 108.585938 213.613281 109.195312 213.707031 109.960938 L 212.691406 110.058594 C 212.585938 109.472656 212.363281 109.039062 212.027344 108.75 C 211.699219 108.46875 211.277344 108.320312 210.757812 108.320312 C 209.765625 108.320312 208.972656 108.757812 208.375 109.628906 C 207.839844 110.386719 207.574219 111.285156 207.574219 112.324219 C 207.574219 113.160156 207.773438 113.789062 208.179688 114.21875 C 208.59375 114.648438 209.128906 114.863281 209.78125 114.863281 C 210.328125 114.863281 210.828125 114.6875 211.285156 114.335938 C 211.738281 113.976562 212.066406 113.457031 212.261719 112.792969 Z M 212.261719 112.792969 "/>
<path style="fill:none;stroke-width:1;stroke-linecap:round;stroke-linejoin:round;stroke:rgb(0%,0%,0%);stroke-opacity:1;stroke-miterlimit:10;" d="M 262.5 230 L 297.2375 230 " transform="matrix(1.25,0,0,1.25,-180,-175)"/>
<path style="fill:none;stroke-width:1;stroke-linecap:butt;stroke-linejoin:miter;stroke:rgb(0%,0%,0%);stroke-opacity:1;stroke-miterlimit:10;" d="M 301.2375 230 L 297.2375 230 M 297.2375 228.5 L 301.2375 230 L 297.2375 231.5 " transform="matrix(1.25,0,0,1.25,-180,-175)"/>
<path style=" stroke:none;fill-rule:nonzero;fill:rgb(0%,0%,0%);fill-opacity:1;" d="M 205.5625 196.277344 L 210.132812 188.230469 L 211.402344 188.230469 L 212.730469 196.277344 L 211.695312 196.277344 L 211.304688 193.953125 L 208.042969 193.953125 L 206.753906 196.277344 Z M 208.511719 193.132812 L 211.167969 193.132812 L 210.855469 191.101562 C 210.738281 190.3125 210.664062 189.648438 210.640625 189.109375 C 210.445312 189.570312 210.171875 190.117188 209.820312 190.75 Z M 208.511719 193.132812 "/>
<path style="fill:none;stroke-width:1;stroke-linecap:round;stroke-linejoin:round;stroke:rgb(0%,0%,0%);stroke-opacity:1;stroke-miterlimit:10;" d="M 262.5 321.784375 L 297.975 302.1 " transform="matrix(1.25,0,0,1.25,-180,-175)"/>
<path style="fill:none;stroke-width:1;stroke-linecap:butt;stroke-linejoin:miter;stroke:rgb(0%,0%,0%);stroke-opacity:1;stroke-miterlimit:10;" d="M 301.475 300.159375 L 297.975 302.1 M 297.25 300.7875 L 301.475 300.159375 L 298.70625 303.4125 " transform="matrix(1.25,0,0,1.25,-180,-175)"/>
<path style=" stroke:none;fill-rule:nonzero;fill:rgb(0%,0%,0%);fill-opacity:1;" d="M 263.511719 115.625 L 268.082031 107.578125 L 269.351562 107.578125 L 270.679688 115.625 L 269.644531 115.625 L 269.253906 113.300781 L 265.992188 113.300781 L 264.703125 115.625 Z M 266.460938 112.480469 L 269.117188 112.480469 L 268.804688 110.449219 C 268.6875 109.65625 268.613281 108.992188 268.589844 108.457031 C 268.394531 108.914062 268.121094 109.460938 267.769531 110.097656 Z M 266.460938 112.480469 "/>
<path style=" stroke:none;fill-rule:nonzero;fill:rgb(0%,0%,0%);fill-opacity:1;" d="M 271.738281 115.625 L 273.417969 107.578125 L 275.917969 107.578125 C 276.371094 107.578125 276.710938 107.59375 276.933594 107.617188 C 277.285156 107.6875 277.582031 107.792969 277.832031 107.949219 C 278.078125 108.105469 278.265625 108.320312 278.398438 108.59375 C 278.539062 108.867188 278.613281 109.171875 278.613281 109.492188 C 278.613281 109.9375 278.488281 110.328125 278.242188 110.664062 C 278.007812 110.992188 277.636719 111.246094 277.128906 111.425781 C 277.570312 111.570312 277.894531 111.789062 278.105469 112.070312 C 278.324219 112.359375 278.4375 112.691406 278.4375 113.066406 C 278.4375 113.523438 278.304688 113.953125 278.046875 114.355469 C 277.796875 114.761719 277.460938 115.074219 277.03125 115.292969 C 276.613281 115.515625 276.152344 115.625 275.644531 115.625 Z M 273.789062 111.015625 L 275.410156 111.015625 C 276.191406 111.015625 276.75 110.894531 277.089844 110.644531 C 277.441406 110.386719 277.617188 110.019531 277.617188 109.550781 C 277.617188 109.316406 277.558594 109.121094 277.441406 108.964844 C 277.335938 108.796875 277.191406 108.679688 277.011719 108.613281 C 276.839844 108.535156 276.507812 108.496094 276.015625 108.496094 L 274.316406 108.496094 Z M 273.007812 114.707031 L 274.84375 114.707031 C 275.324219 114.707031 275.648438 114.695312 275.820312 114.667969 C 276.15625 114.605469 276.429688 114.507812 276.640625 114.375 C 276.859375 114.234375 277.03125 114.042969 277.148438 113.808594 C 277.277344 113.574219 277.34375 113.335938 277.34375 113.085938 C 277.34375 112.710938 277.21875 112.421875 276.972656 112.226562 C 276.738281 112.03125 276.289062 111.933594 275.625 111.933594 L 273.59375 111.933594 Z M 273.007812 114.707031 "/>
<path style="fill-rule:nonzero;fill:rgb(69.803922%,85.098039%,100%);fill-opacity:1;stroke-width:1;stroke-linecap:round;stroke-linejoin:round;stroke:rgb(0%,0%,0%);stroke-opacity:1;stroke-miterlimit:10;" d="M 423.5875 242.55 C 426.31875 245.284375 426.31875 249.715625 423.5875 252.45 C 420.85625 255.184375 416.421875 255.184375 413.6875 252.45 C 410.953125 249.715625 410.953125 245.284375 413.6875 242.55 C 416.421875 239.815625 420.85625 239.815625 423.5875 242.55 " transform="matrix(1.25,0,0,1.25,-180,-175)"/>
<path style=" stroke:none;fill-rule:nonzero;fill:rgb(0%,0%,0%);fill-opacity:1;" d="M 339.742188 137.941406 L 341.421875 129.894531 L 343.84375 129.894531 C 344.429688 129.894531 344.871094 129.933594 345.171875 130.011719 C 345.613281 130.128906 345.992188 130.339844 346.304688 130.636719 C 346.617188 130.925781 346.851562 131.289062 347.007812 131.730469 C 347.164062 132.160156 347.242188 132.644531 347.242188 133.175781 C 347.242188 133.828125 347.144531 134.421875 346.949219 134.953125 C 346.753906 135.488281 346.492188 135.957031 346.167969 136.359375 C 345.855469 136.765625 345.523438 137.082031 345.171875 137.316406 C 344.832031 137.539062 344.429688 137.707031 343.960938 137.824219 C 343.59375 137.902344 343.152344 137.941406 342.632812 137.941406 Z M 341.011719 137.023438 L 342.28125 137.023438 C 342.851562 137.023438 343.359375 136.972656 343.804688 136.867188 C 344.089844 136.804688 344.332031 136.707031 344.527344 136.574219 C 344.785156 136.417969 345.019531 136.203125 345.230469 135.929688 C 345.515625 135.566406 345.738281 135.15625 345.894531 134.699219 C 346.0625 134.246094 346.148438 133.722656 346.148438 133.136719 C 346.148438 132.488281 346.03125 131.984375 345.796875 131.632812 C 345.574219 131.28125 345.289062 131.046875 344.9375 130.929688 C 344.675781 130.851562 344.273438 130.8125 343.726562 130.8125 L 342.300781 130.8125 Z M 341.011719 137.023438 "/>
<path style=" stroke:none;fill-rule:nonzero;fill:rgb(0%,0%,0%);fill-opacity:1;" d="M 339.3125 70.625 L 343.882812 62.578125 L 345.152344 62.578125 L 346.480469 70.625 L 345.445312 70.625 L 345.054688 68.300781 L 341.792969 68.300781 L 340.503906 70.625 Z M 342.261719 67.480469 L 344.917969 67.480469 L 344.605469 65.449219 C 344.488281 64.65625 344.414062 63.992188 344.390625 63.457031 C 344.195312 63.914062 343.921875 64.460938 343.570312 65.097656 Z M 342.261719 67.480469 "/>
<path style=" stroke:none;fill-rule:nonzero;fill:rgb(0%,0%,0%);fill-opacity:1;" d="M 340.035156 92.5 L 341.714844 84.453125 L 344.214844 84.453125 C 344.667969 84.453125 345.003906 84.46875 345.230469 84.492188 C 345.582031 84.5625 345.878906 84.667969 346.128906 84.824219 C 346.371094 84.980469 346.5625 85.195312 346.695312 85.46875 C 346.835938 85.742188 346.910156 86.046875 346.910156 86.367188 C 346.910156 86.8125 346.78125 87.203125 346.539062 87.539062 C 346.304688 87.867188 345.933594 88.121094 345.425781 88.300781 C 345.863281 88.449219 346.191406 88.664062 346.402344 88.945312 C 346.621094 89.234375 346.734375 89.566406 346.734375 89.941406 C 346.734375 90.402344 346.601562 90.832031 346.34375 91.230469 C 346.09375 91.636719 345.757812 91.949219 345.328125 92.167969 C 344.90625 92.394531 344.449219 92.5 343.941406 92.5 Z M 342.085938 87.890625 L 343.707031 87.890625 C 344.488281 87.890625 345.042969 87.769531 345.386719 87.519531 C 345.738281 87.261719 345.914062 86.894531 345.914062 86.425781 C 345.914062 86.191406 345.855469 85.996094 345.738281 85.839844 C 345.628906 85.675781 345.488281 85.558594 345.308594 85.488281 C 345.136719 85.410156 344.804688 85.371094 344.3125 85.371094 L 342.613281 85.371094 Z M 341.304688 91.582031 L 343.140625 91.582031 C 343.617188 91.582031 343.945312 91.574219 344.117188 91.542969 C 344.453125 91.480469 344.726562 91.382812 344.9375 91.25 C 345.15625 91.109375 345.328125 90.917969 345.445312 90.683594 C 345.570312 90.449219 345.640625 90.210938 345.640625 89.960938 C 345.640625 89.585938 345.511719 89.296875 345.269531 89.101562 C 345.035156 88.90625 344.585938 88.808594 343.921875 88.808594 L 341.890625 88.808594 Z M 341.304688 91.582031 "/>
<path style="fill:none;stroke-width:1;stroke-linecap:round;stroke-linejoin:round;stroke:rgb(0%,0%,0%);stroke-opacity:1;stroke-miterlimit:10;" d="M 372.5 233.49375 L 406.29375 243.75 " transform="matrix(1.25,0,0,1.25,-180,-175)"/>
<path style="fill:none;stroke-width:1;stroke-linecap:butt;stroke-linejoin:miter;stroke:rgb(0%,0%,0%);stroke-opacity:1;stroke-miterlimit:10;" d="M 410.121875 244.9125 L 406.29375 243.75 M 406.725 242.315625 L 410.121875 244.9125 L 405.85625 245.1875 " transform="matrix(1.25,0,0,1.25,-180,-175)"/>
<path style="fill:none;stroke-width:1;stroke-linecap:round;stroke-linejoin:round;stroke:rgb(0%,0%,0%);stroke-opacity:1;stroke-miterlimit:10;" d="M 372.5 222.815625 L 405.13125 202.434375 " transform="matrix(1.25,0,0,1.25,-180,-175)"/>
<path style="fill:none;stroke-width:1;stroke-linecap:butt;stroke-linejoin:miter;stroke:rgb(0%,0%,0%);stroke-opacity:1;stroke-miterlimit:10;" d="M 408.528125 200.315625 L 405.13125 202.434375 M 404.340625 201.1625 L 408.528125 200.315625 L 405.93125 203.70625 " transform="matrix(1.25,0,0,1.25,-180,-175)"/>
<path style="fill:none;stroke-width:1;stroke-linecap:round;stroke-linejoin:round;stroke:rgb(0%,0%,0%);stroke-opacity:1;stroke-miterlimit:10;" d="M 372.5 226.309375 L 404.51875 216.03125 " transform="matrix(1.25,0,0,1.25,-180,-175)"/>
<path style="fill:none;stroke-width:1;stroke-linecap:butt;stroke-linejoin:miter;stroke:rgb(0%,0%,0%);stroke-opacity:1;stroke-miterlimit:10;" d="M 408.328125 214.809375 L 404.51875 216.03125 M 404.0625 214.6 L 408.328125 214.809375 L 404.975 217.4625 " transform="matrix(1.25,0,0,1.25,-180,-175)"/>
<path style=" stroke:none;fill-rule:nonzero;fill:rgb(0%,0%,0%);fill-opacity:1;" d="M 340.054688 159.375 L 341.734375 151.328125 L 347.554688 151.328125 L 347.359375 152.246094 L 342.632812 152.246094 L 342.105469 154.746094 L 346.714844 154.746094 L 346.519531 155.664062 L 341.910156 155.664062 L 341.324219 158.457031 L 346.382812 158.457031 L 346.207031 159.375 Z M 340.054688 159.375 "/>
<path style="fill:none;stroke-width:1;stroke-linecap:round;stroke-linejoin:round;stroke:rgb(0%,0%,0%);stroke-opacity:1;stroke-miterlimit:10;" d="M 372.5 236.984375 L 405.09375 256.778125 " transform="matrix(1.25,0,0,1.25,-180,-175)"/>
<path style="fill:none;stroke-width:1;stroke-linecap:butt;stroke-linejoin:miter;stroke:rgb(0%,0%,0%);stroke-opacity:1;stroke-miterlimit:10;" d="M 408.5125 258.85 L 405.09375 256.778125 M 405.875 255.49375 L 408.5125 258.85 L 404.315625 258.059375 " transform="matrix(1.25,0,0,1.25,-180,-175)"/>
<path style=" stroke:none;fill-rule:nonzero;fill:rgb(0%,0%,0%);fill-opacity:1;" d="M 270.214844 233.417969 L 271.289062 233.554688 C 270.945312 234.492188 270.453125 235.203125 269.804688 235.683594 C 269.164062 236.152344 268.441406 236.386719 267.636719 236.386719 C 266.660156 236.386719 265.882812 236.089844 265.3125 235.488281 C 264.734375 234.890625 264.453125 234.039062 264.453125 232.929688 C 264.453125 231.476562 264.886719 230.273438 265.761719 229.335938 C 266.542969 228.492188 267.503906 228.066406 268.652344 228.066406 C 269.511719 228.066406 270.199219 228.296875 270.722656 228.75 C 271.253906 229.210938 271.566406 229.820312 271.660156 230.585938 L 270.644531 230.683594 C 270.535156 230.097656 270.316406 229.664062 269.980469 229.375 C 269.652344 229.09375 269.226562 228.945312 268.710938 228.945312 C 267.71875 228.945312 266.921875 229.382812 266.328125 230.253906 C 265.789062 231.011719 265.527344 231.910156 265.527344 232.949219 C 265.527344 233.785156 265.726562 234.414062 266.132812 234.84375 C 266.546875 235.273438 267.078125 235.488281 267.734375 235.488281 C 268.28125 235.488281 268.777344 235.3125 269.238281 234.960938 C 269.691406 234.601562 270.019531 234.082031 270.214844 233.417969 Z M 270.214844 233.417969 "/>
<path style=" stroke:none;fill-rule:nonzero;fill:rgb(0%,0%,0%);fill-opacity:1;" d="M 272.070312 236.25 L 273.75 228.203125 L 279.570312 228.203125 L 279.375 229.121094 L 274.648438 229.121094 L 274.121094 231.621094 L 278.730469 231.621094 L 278.535156 232.539062 L 273.925781 232.539062 L 273.339844 235.332031 L 278.398438 235.332031 L 278.222656 236.25 Z M 272.070312 236.25 "/>
<path style=" stroke:none;fill-rule:nonzero;fill:rgb(0%,0%,0%);fill-opacity:1;" d="M 340.035156 214.375 L 341.714844 206.328125 L 344.214844 206.328125 C 344.667969 206.328125 345.003906 206.34375 345.230469 206.367188 C 345.582031 206.4375 345.878906 206.542969 346.128906 206.699219 C 346.371094 206.855469 346.5625 207.070312 346.695312 207.34375 C 346.835938 207.617188 346.910156 207.921875 346.910156 208.242188 C 346.910156 208.6875 346.78125 209.078125 346.539062 209.414062 C 346.304688 209.742188 345.933594 209.996094 345.425781 210.175781 C 345.863281 210.320312 346.191406 210.539062 346.402344 210.820312 C 346.621094 211.109375 346.734375 211.441406 346.734375 211.816406 C 346.734375 212.273438 346.601562 212.703125 346.34375 213.105469 C 346.09375 213.511719 345.757812 213.824219 345.328125 214.042969 C 344.90625 214.265625 344.449219 214.375 343.941406 214.375 Z M 342.085938 209.765625 L 343.707031 209.765625 C 344.488281 209.765625 345.042969 209.644531 345.386719 209.394531 C 345.738281 209.136719 345.914062 208.769531 345.914062 208.300781 C 345.914062 208.066406 345.855469 207.871094 345.738281 207.714844 C 345.628906 207.546875 345.488281 207.429688 345.308594 207.363281 C 345.136719 207.285156 344.804688 207.246094 344.3125 207.246094 L 342.613281 207.246094 Z M 341.304688 213.457031 L 343.140625 213.457031 C 343.617188 213.457031 343.945312 213.445312 344.117188 213.417969 C 344.453125 213.355469 344.726562 213.257812 344.9375 213.125 C 345.15625 212.984375 345.328125 212.792969 345.445312 212.558594 C 345.570312 212.324219 345.640625 212.085938 345.640625 211.835938 C 345.640625 211.460938 345.511719 211.171875 345.269531 210.976562 C 345.035156 210.78125 344.585938 210.683594 343.921875 210.683594 L 341.890625 210.683594 Z M 341.304688 213.457031 "/>
<path style=" stroke:none;fill-rule:nonzero;fill:rgb(0%,0%,0%);fill-opacity:1;" d="M 340.054688 281.875 L 341.734375 273.828125 L 347.554688 273.828125 L 347.359375 274.746094 L 342.632812 274.746094 L 342.105469 277.246094 L 346.714844 277.246094 L 346.519531 278.164062 L 341.910156 278.164062 L 341.324219 280.957031 L 346.382812 280.957031 L 346.207031 281.875 Z M 340.054688 281.875 "/>
<path style="fill:none;stroke-width:1;stroke-linecap:round;stroke-linejoin:round;stroke:rgb(0%,0%,0%);stroke-opacity:1;stroke-miterlimit:10;" d="M 372.5 323.00625 L 404.49375 313.29375 " transform="matrix(1.25,0,0,1.25,-180,-175)"/>
<path style="fill:none;stroke-width:1;stroke-linecap:butt;stroke-linejoin:miter;stroke:rgb(0%,0%,0%);stroke-opacity:1;stroke-miterlimit:10;" d="M 408.31875 312.13125 L 404.49375 313.29375 M 404.05625 311.859375 L 408.31875 312.13125 L 404.93125 314.73125 " transform="matrix(1.25,0,0,1.25,-180,-175)"/>
<path style="fill:none;stroke-width:1;stroke-linecap:round;stroke-linejoin:round;stroke:rgb(0%,0%,0%);stroke-opacity:1;stroke-miterlimit:10;" d="M 372.5 333.78125 L 405.153125 354.4625 " transform="matrix(1.25,0,0,1.25,-180,-175)"/>
<path style="fill:none;stroke-width:1;stroke-linecap:butt;stroke-linejoin:miter;stroke:rgb(0%,0%,0%);stroke-opacity:1;stroke-miterlimit:10;" d="M 408.53125 356.6 L 405.153125 354.4625 M 405.95625 353.19375 L 408.53125 356.6 L 404.35 355.725 " transform="matrix(1.25,0,0,1.25,-180,-175)"/>
<path style=" stroke:none;fill-rule:nonzero;fill:rgb(0%,0%,0%);fill-opacity:1;" d="M 346.011719 232.167969 L 347.085938 232.304688 C 346.746094 233.242188 346.25 233.953125 345.601562 234.433594 C 344.960938 234.902344 344.238281 235.136719 343.433594 235.136719 C 342.457031 235.136719 341.679688 234.839844 341.109375 234.238281 C 340.535156 233.640625 340.25 232.789062 340.25 231.679688 C 340.25 230.226562 340.683594 229.023438 341.558594 228.085938 C 342.339844 227.242188 343.300781 226.816406 344.449219 226.816406 C 345.308594 226.816406 345.996094 227.046875 346.519531 227.5 C 347.050781 227.960938 347.363281 228.570312 347.457031 229.335938 L 346.441406 229.433594 C 346.335938 228.847656 346.113281 228.414062 345.777344 228.125 C 345.449219 227.84375 345.027344 227.695312 344.507812 227.695312 C 343.515625 227.695312 342.722656 228.132812 342.125 229.003906 C 341.589844 229.761719 341.324219 230.660156 341.324219 231.699219 C 341.324219 232.535156 341.523438 233.164062 341.929688 233.59375 C 342.34375 234.023438 342.878906 234.238281 343.53125 234.238281 C 344.078125 234.238281 344.578125 234.0625 345.035156 233.710938 C 345.488281 233.351562 345.816406 232.832031 346.011719 232.167969 Z M 346.011719 232.167969 "/>
<path style="fill-rule:nonzero;fill:rgb(69.803922%,85.098039%,100%);fill-opacity:1;stroke-width:1;stroke-linecap:round;stroke-linejoin:round;stroke:rgb(0%,0%,0%);stroke-opacity:1;stroke-miterlimit:10;" d="M 423.5875 337.05 C 426.31875 339.784375 426.31875 344.215625 423.5875 346.95 C 420.85625 349.684375 416.421875 349.684375 413.6875 346.95 C 410.953125 344.215625 410.953125 339.784375 413.6875 337.05 C 416.421875 334.315625 420.85625 334.315625 423.5875 337.05 " transform="matrix(1.25,0,0,1.25,-180,-175)"/>
<path style=" stroke:none;fill-rule:nonzero;fill:rgb(0%,0%,0%);fill-opacity:1;" d="M 339.742188 256.066406 L 341.421875 248.019531 L 343.84375 248.019531 C 344.429688 248.019531 344.871094 248.058594 345.171875 248.136719 C 345.613281 248.253906 345.992188 248.464844 346.304688 248.761719 C 346.617188 249.050781 346.851562 249.414062 347.007812 249.855469 C 347.164062 250.285156 347.242188 250.769531 347.242188 251.300781 C 347.242188 251.953125 347.144531 252.546875 346.949219 253.078125 C 346.753906 253.613281 346.492188 254.082031 346.167969 254.484375 C 345.855469 254.890625 345.523438 255.207031 345.171875 255.441406 C 344.832031 255.664062 344.429688 255.832031 343.960938 255.949219 C 343.59375 256.027344 343.152344 256.066406 342.632812 256.066406 Z M 341.011719 255.148438 L 342.28125 255.148438 C 342.851562 255.148438 343.359375 255.097656 343.804688 254.992188 C 344.089844 254.929688 344.332031 254.832031 344.527344 254.699219 C 344.785156 254.542969 345.019531 254.328125 345.230469 254.054688 C 345.515625 253.691406 345.738281 253.28125 345.894531 252.824219 C 346.0625 252.371094 346.148438 251.847656 346.148438 251.261719 C 346.148438 250.613281 346.03125 250.109375 345.796875 249.757812 C 345.574219 249.40625 345.289062 249.171875 344.9375 249.054688 C 344.675781 248.976562 344.273438 248.9375 343.726562 248.9375 L 342.300781 248.9375 Z M 341.011719 255.148438 "/>
<path style="fill:none;stroke-width:1;stroke-linecap:round;stroke-linejoin:round;stroke:rgb(0%,0%,0%);stroke-opacity:1;stroke-miterlimit:10;" d="M 372.5 329.59375 L 406.18125 338.65 " transform="matrix(1.25,0,0,1.25,-180,-175)"/>
<path style="fill:none;stroke-width:1;stroke-linecap:butt;stroke-linejoin:miter;stroke:rgb(0%,0%,0%);stroke-opacity:1;stroke-miterlimit:10;" d="M 410.04375 339.6875 L 406.18125 338.65 M 406.56875 337.2 L 410.04375 339.6875 L 405.7875 340.096875 " transform="matrix(1.25,0,0,1.25,-180,-175)"/>
<path style="fill:none;stroke-width:1;stroke-linecap:round;stroke-linejoin:round;stroke:rgb(0%,0%,0%);stroke-opacity:1;stroke-miterlimit:10;" d="M 372.5 326.3 L 404.2375 325.75 " transform="matrix(1.25,0,0,1.25,-180,-175)"/>
<path style="fill:none;stroke-width:1;stroke-linecap:butt;stroke-linejoin:miter;stroke:rgb(0%,0%,0%);stroke-opacity:1;stroke-miterlimit:10;" d="M 408.2375 325.68125 L 404.2375 325.75 M 404.2125 324.25 L 408.2375 325.68125 L 404.265625 327.25 " transform="matrix(1.25,0,0,1.25,-180,-175)"/>
<path style=" stroke:none;fill-rule:nonzero;fill:rgb(0%,0%,0%);fill-opacity:1;" d="M 346.011719 112.792969 L 347.085938 112.929688 C 346.746094 113.867188 346.25 114.578125 345.601562 115.058594 C 344.960938 115.527344 344.238281 115.761719 343.433594 115.761719 C 342.457031 115.761719 341.679688 115.464844 341.109375 114.863281 C 340.535156 114.265625 340.25 113.414062 340.25 112.304688 C 340.25 110.851562 340.683594 109.648438 341.558594 108.710938 C 342.339844 107.867188 343.300781 107.441406 344.449219 107.441406 C 345.308594 107.441406 345.996094 107.671875 346.519531 108.125 C 347.050781 108.585938 347.363281 109.195312 347.457031 109.960938 L 346.441406 110.058594 C 346.335938 109.472656 346.113281 109.039062 345.777344 108.75 C 345.449219 108.46875 345.027344 108.320312 344.507812 108.320312 C 343.515625 108.320312 342.722656 108.757812 342.125 109.628906 C 341.589844 110.386719 341.324219 111.285156 341.324219 112.324219 C 341.324219 113.160156 341.523438 113.789062 341.929688 114.21875 C 342.34375 114.648438 342.878906 114.863281 343.53125 114.863281 C 344.078125 114.863281 344.578125 114.6875 345.035156 114.335938 C 345.488281 113.976562 345.816406 113.457031 346.011719 112.792969 Z M 346.011719 112.792969 "/>
<path style="fill:none;stroke-width:1;stroke-linecap:round;stroke-linejoin:round;stroke:rgb(0%,0%,0%);stroke-opacity:1;stroke-miterlimit:10;" d="M 372.5 230 L 404.2375 230 " transform="matrix(1.25,0,0,1.25,-180,-175)"/>
<path style="fill:none;stroke-width:1;stroke-linecap:butt;stroke-linejoin:miter;stroke:rgb(0%,0%,0%);stroke-opacity:1;stroke-miterlimit:10;" d="M 408.2375 230 L 404.2375 230 M 404.2375 228.5 L 408.2375 230 L 404.2375 231.5 " transform="matrix(1.25,0,0,1.25,-180,-175)"/>
<path style=" stroke:none;fill-rule:nonzero;fill:rgb(0%,0%,0%);fill-opacity:1;" d="M 339.3125 196.277344 L 343.882812 188.230469 L 345.152344 188.230469 L 346.480469 196.277344 L 345.445312 196.277344 L 345.054688 193.953125 L 341.792969 193.953125 L 340.503906 196.277344 Z M 342.261719 193.132812 L 344.917969 193.132812 L 344.605469 191.101562 C 344.488281 190.3125 344.414062 189.648438 344.390625 189.109375 C 344.195312 189.570312 343.921875 190.117188 343.570312 190.75 Z M 342.261719 193.132812 "/>
<path style="fill:none;stroke-width:1;stroke-linecap:round;stroke-linejoin:round;stroke:rgb(0%,0%,0%);stroke-opacity:1;stroke-miterlimit:10;" d="M 372.5 320.121875 L 404.975 302.1 " transform="matrix(1.25,0,0,1.25,-180,-175)"/>
<path style="fill:none;stroke-width:1;stroke-linecap:butt;stroke-linejoin:miter;stroke:rgb(0%,0%,0%);stroke-opacity:1;stroke-miterlimit:10;" d="M 408.475 300.159375 L 404.975 302.1 M 404.25 300.7875 L 408.475 300.159375 L 405.70625 303.4125 " transform="matrix(1.25,0,0,1.25,-180,-175)"/>
<path style=" stroke:none;fill-rule:nonzero;fill:rgb(0%,0%,0%);fill-opacity:1;" d="M 406.949219 115.625 L 411.519531 107.578125 L 412.789062 107.578125 L 414.117188 115.625 L 413.082031 115.625 L 412.691406 113.300781 L 409.429688 113.300781 L 408.140625 115.625 Z M 409.898438 112.480469 L 412.554688 112.480469 L 412.242188 110.449219 C 412.125 109.65625 412.050781 108.992188 412.027344 108.457031 C 411.832031 108.914062 411.558594 109.460938 411.207031 110.097656 Z M 409.898438 112.480469 "/>
<path style=" stroke:none;fill-rule:nonzero;fill:rgb(0%,0%,0%);fill-opacity:1;" d="M 415.175781 115.625 L 416.855469 107.578125 L 419.355469 107.578125 C 419.808594 107.578125 420.148438 107.59375 420.371094 107.617188 C 420.722656 107.6875 421.019531 107.792969 421.269531 107.949219 C 421.515625 108.105469 421.703125 108.320312 421.835938 108.59375 C 421.976562 108.867188 422.050781 109.171875 422.050781 109.492188 C 422.050781 109.9375 421.925781 110.328125 421.679688 110.664062 C 421.445312 110.992188 421.074219 111.246094 420.566406 111.425781 C 421.007812 111.570312 421.332031 111.789062 421.542969 112.070312 C 421.761719 112.359375 421.875 112.691406 421.875 113.066406 C 421.875 113.523438 421.742188 113.953125 421.484375 114.355469 C 421.234375 114.761719 420.898438 115.074219 420.46875 115.292969 C 420.050781 115.515625 419.589844 115.625 419.082031 115.625 Z M 417.226562 111.015625 L 418.847656 111.015625 C 419.628906 111.015625 420.1875 110.894531 420.527344 110.644531 C 420.878906 110.386719 421.054688 110.019531 421.054688 109.550781 C 421.054688 109.316406 420.996094 109.121094 420.878906 108.964844 C 420.773438 108.796875 420.628906 108.679688 420.449219 108.613281 C 420.277344 108.535156 419.945312 108.496094 419.453125 108.496094 L 417.753906 108.496094 Z M 416.445312 114.707031 L 418.28125 114.707031 C 418.761719 114.707031 419.085938 114.695312 419.257812 114.667969 C 419.59375 114.605469 419.867188 114.507812 420.078125 114.375 C 420.296875 114.234375 420.46875 114.042969 420.585938 113.808594 C 420.714844 113.574219 420.78125 113.335938 420.78125 113.085938 C 420.78125 112.710938 420.65625 112.421875 420.410156 112.226562 C 420.175781 112.03125 419.726562 111.933594 419.0625 111.933594 L 417.03125 111.933594 Z M 416.445312 114.707031 "/>
<path style=" stroke:none;fill-rule:nonzero;fill:rgb(0%,0%,0%);fill-opacity:1;" d="M 422.699219 115.625 L 424.378906 107.578125 L 426.800781 107.578125 C 427.386719 107.578125 427.828125 107.617188 428.128906 107.695312 C 428.570312 107.8125 428.949219 108.023438 429.261719 108.320312 C 429.574219 108.609375 429.808594 108.976562 429.964844 109.414062 C 430.121094 109.84375 430.199219 110.328125 430.199219 110.859375 C 430.199219 111.515625 430.101562 112.105469 429.90625 112.636719 C 429.710938 113.171875 429.449219 113.640625 429.125 114.042969 C 428.8125 114.449219 428.480469 114.765625 428.128906 115 C 427.789062 115.226562 427.386719 115.390625 426.917969 115.507812 C 426.550781 115.585938 426.109375 115.625 425.589844 115.625 Z M 423.96875 114.707031 L 425.238281 114.707031 C 425.808594 114.707031 426.316406 114.65625 426.761719 114.550781 C 427.046875 114.488281 427.289062 114.390625 427.484375 114.257812 C 427.742188 114.101562 427.976562 113.886719 428.1875 113.613281 C 428.472656 113.25 428.695312 112.84375 428.851562 112.382812 C 429.019531 111.929688 429.105469 111.40625 429.105469 110.820312 C 429.105469 110.171875 428.988281 109.667969 428.753906 109.316406 C 428.53125 108.964844 428.246094 108.730469 427.894531 108.613281 C 427.632812 108.535156 427.230469 108.496094 426.683594 108.496094 L 425.257812 108.496094 Z M 423.96875 114.707031 "/>
<path style=" stroke:none;fill-rule:nonzero;fill:rgb(0%,0%,0%);fill-opacity:1;" d="M 413.652344 233.417969 L 414.726562 233.554688 C 414.382812 234.492188 413.890625 235.203125 413.242188 235.683594 C 412.601562 236.152344 411.878906 236.386719 411.074219 236.386719 C 410.097656 236.386719 409.320312 236.089844 408.75 235.488281 C 408.171875 234.890625 407.890625 234.039062 407.890625 232.929688 C 407.890625 231.476562 408.324219 230.273438 409.199219 229.335938 C 409.980469 228.492188 410.941406 228.066406 412.089844 228.066406 C 412.949219 228.066406 413.636719 228.296875 414.160156 228.75 C 414.691406 229.210938 415.003906 229.820312 415.097656 230.585938 L 414.082031 230.683594 C 413.972656 230.097656 413.753906 229.664062 413.417969 229.375 C 413.089844 229.09375 412.664062 228.945312 412.148438 228.945312 C 411.15625 228.945312 410.359375 229.382812 409.765625 230.253906 C 409.226562 231.011719 408.964844 231.910156 408.964844 232.949219 C 408.964844 233.785156 409.164062 234.414062 409.570312 234.84375 C 409.984375 235.273438 410.515625 235.488281 411.171875 235.488281 C 411.71875 235.488281 412.214844 235.3125 412.675781 234.960938 C 413.128906 234.601562 413.457031 234.082031 413.652344 233.417969 Z M 413.652344 233.417969 "/>
<path style=" stroke:none;fill-rule:nonzero;fill:rgb(0%,0%,0%);fill-opacity:1;" d="M 415.507812 236.25 L 417.1875 228.203125 L 423.007812 228.203125 L 422.8125 229.121094 L 418.085938 229.121094 L 417.558594 231.621094 L 422.167969 231.621094 L 421.972656 232.539062 L 417.363281 232.539062 L 416.777344 235.332031 L 421.835938 235.332031 L 421.660156 236.25 Z M 415.507812 236.25 "/>
<path style=" stroke:none;fill-rule:nonzero;fill:rgb(0%,0%,0%);fill-opacity:1;" d="M 423.011719 236.25 L 424.691406 228.203125 L 427.113281 228.203125 C 427.699219 228.203125 428.136719 228.242188 428.441406 228.320312 C 428.878906 228.4375 429.261719 228.648438 429.574219 228.945312 C 429.886719 229.234375 430.121094 229.601562 430.277344 230.039062 C 430.433594 230.46875 430.511719 230.953125 430.511719 231.484375 C 430.511719 232.140625 430.414062 232.730469 430.21875 233.261719 C 430.023438 233.796875 429.757812 234.265625 429.4375 234.667969 C 429.125 235.074219 428.792969 235.390625 428.441406 235.625 C 428.097656 235.851562 427.699219 236.015625 427.230469 236.132812 C 426.863281 236.210938 426.417969 236.25 425.902344 236.25 Z M 424.28125 235.332031 L 425.550781 235.332031 C 426.121094 235.332031 426.628906 235.28125 427.074219 235.175781 C 427.355469 235.113281 427.601562 235.015625 427.796875 234.882812 C 428.054688 234.726562 428.289062 234.511719 428.5 234.238281 C 428.78125 233.875 429.007812 233.46875 429.164062 233.007812 C 429.328125 232.554688 429.417969 232.03125 429.417969 231.445312 C 429.417969 230.796875 429.300781 230.292969 429.066406 229.941406 C 428.839844 229.589844 428.558594 229.355469 428.207031 229.238281 C 427.941406 229.160156 427.542969 229.121094 426.996094 229.121094 L 425.570312 229.121094 Z M 424.28125 235.332031 "/>
<path style="fill:none;stroke-width:1;stroke-linecap:round;stroke-linejoin:round;stroke:rgb(0%,0%,0%);stroke-opacity:1;stroke-dasharray:4,4;stroke-miterlimit:10;" d="M 216.871875 240.58125 L 245.5 232.421875 " transform="matrix(1.25,0,0,1.25,-180,-175)"/>
<path style="fill:none;stroke-width:1;stroke-linecap:round;stroke-linejoin:round;stroke:rgb(0%,0%,0%);stroke-opacity:1;stroke-dasharray:4,4;stroke-miterlimit:10;" d="M 214.80625 282.715625 L 245.5 317.003125 " transform="matrix(1.25,0,0,1.25,-180,-175)"/>
<path style="fill:none;stroke-width:1;stroke-linecap:round;stroke-linejoin:round;stroke:rgb(0%,0%,0%);stroke-opacity:1;stroke-dasharray:4,4;stroke-miterlimit:10;" d="M 318.19375 213.95625 L 349.5 225.690625 " transform="matrix(1.25,0,0,1.25,-180,-175)"/>
<path style="fill:none;stroke-width:1;stroke-linecap:round;stroke-linejoin:round;stroke:rgb(0%,0%,0%);stroke-opacity:1;stroke-dasharray:4,4;stroke-miterlimit:10;" d="M 317.45625 355.609375 L 349.5 334.1875 " transform="matrix(1.25,0,0,1.25,-180,-175)"/>
<path style="fill:none;stroke-width:1;stroke-linecap:round;stroke-linejoin:round;stroke:rgb(0%,0%,0%);stroke-opacity:1;stroke-dasharray:4,4;stroke-miterlimit:10;" d="M 425.3625 245.55 L 464.5 234.203125 " transform="matrix(1.25,0,0,1.25,-180,-175)"/>
<path style="fill:none;stroke-width:1;stroke-linecap:round;stroke-linejoin:round;stroke:rgb(0%,0%,0%);stroke-opacity:1;stroke-dasharray:4,4;stroke-miterlimit:10;" d="M 425.41875 340.25625 L 464 330.35 " transform="matrix(1.25,0,0,1.25,-180,-175)"/>
<path style=" stroke:none;fill-rule:nonzero;fill:rgb(0%,0%,0%);fill-opacity:1;" d="M 253.84375 10.667969 L 250.601562 10.667969 L 250.601562 19.222656 L 251.402344 19.222656 L 251.402344 18.207031 L 253.0625 18.207031 L 253.0625 18.949219 L 253.84375 18.949219 Z M 251.402344 17.445312 L 251.402344 14.730469 L 253.0625 14.730469 L 253.0625 17.445312 Z M 251.402344 13.988281 L 251.402344 11.410156 L 253.0625 11.410156 L 253.0625 13.988281 Z M 255.464844 14.007812 L 254.800781 14.4375 C 255.484375 15.472656 256.011719 16.410156 256.402344 17.25 L 257.066406 16.78125 C 256.695312 16 256.167969 15.0625 255.464844 14.007812 Z M 258.023438 20.023438 C 258.726562 20.023438 259.078125 19.652344 259.078125 18.949219 L 259.078125 12.660156 L 260.464844 12.660156 L 260.464844 11.878906 L 259.078125 11.878906 L 259.078125 9.90625 L 258.257812 9.90625 L 258.257812 11.878906 L 254.371094 11.878906 L 254.371094 12.660156 L 258.257812 12.660156 L 258.257812 18.753906 C 258.257812 19.105469 258.082031 19.28125 257.769531 19.28125 C 257.164062 19.28125 256.539062 19.261719 255.894531 19.242188 L 256.070312 20.023438 Z M 258.023438 20.023438 "/>
<path style=" stroke:none;fill-rule:nonzero;fill:rgb(0%,0%,0%);fill-opacity:1;" d="M 264.371094 12.875 L 264.371094 18.109375 L 268.648438 18.109375 L 268.648438 12.875 Z M 267.90625 17.386719 L 265.132812 17.386719 L 265.132812 15.84375 L 267.90625 15.84375 Z M 265.132812 15.121094 L 265.132812 13.578125 L 267.90625 13.578125 L 267.90625 15.121094 Z M 269.917969 20.042969 C 270.660156 20.042969 271.050781 19.632812 271.050781 18.851562 L 271.050781 10.375 L 265.894531 10.375 L 265.894531 11.136719 L 270.269531 11.136719 L 270.269531 18.617188 C 270.269531 19.066406 270.074219 19.320312 269.742188 19.320312 L 268.765625 19.28125 L 268.960938 20.042969 Z M 262.046875 11.683594 L 262.046875 20.140625 L 262.828125 20.140625 L 262.828125 11.683594 Z M 263.6875 9.710938 L 262.945312 10.042969 C 263.433594 10.648438 263.902344 11.351562 264.332031 12.132812 L 265.054688 11.742188 C 264.664062 11 264.195312 10.335938 263.6875 9.710938 Z M 263.6875 9.710938 "/>
<path style=" stroke:none;fill-rule:nonzero;fill:rgb(0%,0%,0%);fill-opacity:1;" d="M 277.457031 9.789062 L 277.457031 13.480469 L 275.347656 13.480469 L 275.347656 10.667969 L 274.527344 10.667969 L 274.527344 13.480469 L 272.808594 13.480469 L 272.808594 14.28125 L 277.535156 14.28125 L 277.535156 17.660156 L 278.335938 17.660156 L 278.335938 14.28125 L 282.808594 14.28125 L 282.808594 13.480469 L 278.277344 13.480469 L 278.277344 11.9375 L 281.695312 11.9375 L 281.695312 11.15625 L 278.277344 11.15625 L 278.277344 9.789062 Z M 281.128906 15.101562 C 279.898438 17.953125 277.320312 19.398438 273.433594 19.398438 L 273.726562 20.179688 C 277.730469 20.160156 280.445312 18.597656 281.871094 15.492188 Z M 275.503906 14.769531 C 274.859375 15.765625 274.058594 16.625 273.101562 17.367188 L 273.609375 18.03125 C 274.585938 17.25 275.40625 16.332031 276.089844 15.296875 Z M 275.503906 14.769531 "/>
<path style=" stroke:none;fill-rule:nonzero;fill:rgb(0%,0%,0%);fill-opacity:1;" d="M 292.222656 18.050781 L 292.222656 19.007812 L 286.890625 19.007812 C 286.890625 18.773438 286.929688 18.546875 287.007812 18.324219 C 287.148438 17.960938 287.371094 17.601562 287.671875 17.25 C 287.96875 16.898438 288.398438 16.496094 288.960938 16.039062 C 289.832031 15.3125 290.417969 14.738281 290.71875 14.320312 C 291.03125 13.90625 291.1875 13.507812 291.1875 13.128906 C 291.1875 12.738281 291.042969 12.414062 290.757812 12.152344 C 290.484375 11.878906 290.125 11.742188 289.683594 11.742188 C 289.199219 11.742188 288.816406 11.886719 288.53125 12.171875 C 288.242188 12.460938 288.101562 12.855469 288.101562 13.363281 L 287.085938 13.246094 C 287.148438 12.492188 287.410156 11.917969 287.867188 11.527344 C 288.320312 11.125 288.933594 10.921875 289.703125 10.921875 C 290.46875 10.921875 291.074219 11.136719 291.519531 11.566406 C 291.972656 11.996094 292.203125 12.523438 292.203125 13.148438 C 292.203125 13.476562 292.136719 13.792969 292.007812 14.105469 C 291.875 14.417969 291.65625 14.75 291.34375 15.101562 C 291.042969 15.441406 290.542969 15.910156 289.839844 16.507812 C 289.238281 17.003906 288.855469 17.34375 288.6875 17.523438 C 288.515625 17.707031 288.378906 17.882812 288.277344 18.050781 Z M 292.222656 18.050781 "/>
<path style=" stroke:none;fill-rule:nonzero;fill:rgb(0%,0%,0%);fill-opacity:1;" d="M 262.714844 26.058594 C 262.226562 27.796875 261.445312 29.339844 260.390625 30.6875 L 260.644531 31.546875 C 261.054688 31.078125 261.40625 30.609375 261.738281 30.082031 L 261.738281 36.410156 L 262.5 36.410156 L 262.5 28.773438 C 262.871094 28.03125 263.183594 27.230469 263.4375 26.390625 Z M 263.457031 28.109375 L 263.457031 34.75 L 264.199219 34.75 L 264.199219 28.109375 Z M 264.707031 28.597656 L 264.707031 29.320312 L 270.449219 29.320312 L 270.449219 28.597656 L 269.296875 28.597656 L 269.296875 26.546875 L 265.234375 26.546875 L 265.234375 27.269531 L 268.496094 27.269531 L 268.496094 28.597656 Z M 265.957031 31.175781 L 267.207031 31.175781 L 267.207031 31.292969 C 267.207031 31.722656 267.148438 32.132812 267.070312 32.542969 L 264.667969 32.542969 L 264.667969 33.246094 L 266.855469 33.246094 C 266.40625 34.398438 265.488281 35.238281 264.101562 35.765625 L 264.609375 36.429688 C 266.015625 35.824219 266.992188 34.886719 267.519531 33.617188 C 268.085938 34.632812 269.003906 35.550781 270.253906 36.390625 L 270.78125 35.726562 C 269.492188 34.984375 268.59375 34.164062 268.066406 33.246094 L 270.644531 33.246094 L 270.644531 32.542969 L 267.851562 32.542969 C 267.929688 32.113281 267.96875 31.664062 267.988281 31.175781 L 270.175781 31.175781 L 270.175781 30.453125 L 266.328125 30.453125 C 266.425781 30.21875 266.542969 29.964844 266.640625 29.730469 L 265.957031 29.574219 C 265.605469 30.433594 265.195312 31.15625 264.648438 31.683594 L 265.136719 32.269531 C 265.429688 31.957031 265.722656 31.585938 265.957031 31.175781 Z M 265.957031 31.175781 "/>
<path style=" stroke:none;fill-rule:nonzero;fill:rgb(0%,0%,0%);fill-opacity:1;" d="M 272.675781 26.253906 L 272.109375 26.78125 C 272.910156 27.40625 273.554688 27.992188 274.003906 28.558594 L 274.570312 27.992188 C 274.042969 27.425781 273.417969 26.839844 272.675781 26.253906 Z M 279.199219 36.175781 L 281.816406 36.175781 L 282.011719 35.375 C 281.71875 35.394531 281.289062 35.394531 280.742188 35.414062 C 280.175781 35.433594 279.628906 35.433594 279.082031 35.433594 C 278.222656 35.433594 277.480469 35.433594 276.894531 35.414062 C 276.210938 35.394531 275.703125 35.296875 275.351562 35.140625 C 275.039062 35.003906 274.746094 34.769531 274.472656 34.4375 C 274.394531 34.339844 274.296875 34.242188 274.199219 34.183594 L 274.199219 29.964844 L 271.855469 29.964844 L 271.855469 30.707031 L 273.457031 30.707031 L 273.457031 34.125 C 272.988281 34.339844 272.460938 34.925781 271.855469 35.882812 L 272.460938 36.429688 C 273.085938 35.375 273.535156 34.847656 273.808594 34.847656 C 273.945312 34.847656 274.101562 34.945312 274.257812 35.140625 C 274.609375 35.53125 275 35.824219 275.429688 35.960938 C 275.878906 36.078125 276.484375 36.15625 277.207031 36.15625 C 277.929688 36.175781 278.59375 36.175781 279.199219 36.175781 Z M 278.242188 26.039062 L 278.242188 27.464844 L 276.757812 27.464844 C 276.894531 27.113281 277.011719 26.742188 277.128906 26.351562 L 276.347656 26.195312 C 276.074219 27.210938 275.644531 28.128906 275.039062 28.988281 L 275.742188 29.417969 C 275.976562 29.066406 276.210938 28.675781 276.40625 28.246094 L 278.242188 28.246094 L 278.242188 29.867188 L 275.3125 29.867188 L 275.3125 30.648438 L 277.128906 30.648438 C 277.089844 31.351562 276.972656 31.957031 276.777344 32.445312 C 276.484375 33.128906 275.898438 33.675781 274.980469 34.125 L 275.507812 34.769531 C 276.5625 34.222656 277.265625 33.519531 277.558594 32.660156 C 277.734375 32.09375 277.851562 31.429688 277.890625 30.648438 L 279.023438 30.648438 L 279.023438 33.832031 C 279.023438 34.085938 279.082031 34.28125 279.257812 34.457031 C 279.394531 34.613281 279.609375 34.691406 279.902344 34.691406 L 280.703125 34.691406 C 281.09375 34.671875 281.367188 34.574219 281.523438 34.417969 C 281.699219 34.242188 281.816406 33.695312 281.875 32.757812 L 281.171875 32.523438 C 281.132812 33.324219 281.035156 33.773438 280.898438 33.871094 C 280.820312 33.949219 280.703125 33.96875 280.546875 33.96875 L 280.136719 33.96875 C 279.882812 33.96875 279.785156 33.871094 279.785156 33.65625 L 279.785156 30.648438 L 281.660156 30.648438 L 281.660156 29.867188 L 279.023438 29.867188 L 279.023438 28.246094 L 281.269531 28.246094 L 281.269531 27.464844 L 279.023438 27.464844 L 279.023438 26.039062 Z M 278.242188 26.039062 "/>
<path style=" stroke:none;fill-rule:nonzero;fill:rgb(0%,0%,0%);fill-opacity:1;" d="M 401.34375 10.667969 L 398.101562 10.667969 L 398.101562 19.222656 L 398.902344 19.222656 L 398.902344 18.207031 L 400.5625 18.207031 L 400.5625 18.949219 L 401.34375 18.949219 Z M 398.902344 17.445312 L 398.902344 14.730469 L 400.5625 14.730469 L 400.5625 17.445312 Z M 398.902344 13.988281 L 398.902344 11.410156 L 400.5625 11.410156 L 400.5625 13.988281 Z M 402.964844 14.007812 L 402.300781 14.4375 C 402.984375 15.472656 403.511719 16.410156 403.902344 17.25 L 404.566406 16.78125 C 404.195312 16 403.667969 15.0625 402.964844 14.007812 Z M 405.523438 20.023438 C 406.226562 20.023438 406.578125 19.652344 406.578125 18.949219 L 406.578125 12.660156 L 407.964844 12.660156 L 407.964844 11.878906 L 406.578125 11.878906 L 406.578125 9.90625 L 405.757812 9.90625 L 405.757812 11.878906 L 401.871094 11.878906 L 401.871094 12.660156 L 405.757812 12.660156 L 405.757812 18.753906 C 405.757812 19.105469 405.582031 19.28125 405.269531 19.28125 C 404.664062 19.28125 404.039062 19.261719 403.394531 19.242188 L 403.570312 20.023438 Z M 405.523438 20.023438 "/>
<path style=" stroke:none;fill-rule:nonzero;fill:rgb(0%,0%,0%);fill-opacity:1;" d="M 411.871094 12.875 L 411.871094 18.109375 L 416.148438 18.109375 L 416.148438 12.875 Z M 415.40625 17.386719 L 412.632812 17.386719 L 412.632812 15.84375 L 415.40625 15.84375 Z M 412.632812 15.121094 L 412.632812 13.578125 L 415.40625 13.578125 L 415.40625 15.121094 Z M 417.417969 20.042969 C 418.160156 20.042969 418.550781 19.632812 418.550781 18.851562 L 418.550781 10.375 L 413.394531 10.375 L 413.394531 11.136719 L 417.769531 11.136719 L 417.769531 18.617188 C 417.769531 19.066406 417.574219 19.320312 417.242188 19.320312 L 416.265625 19.28125 L 416.460938 20.042969 Z M 409.546875 11.683594 L 409.546875 20.140625 L 410.328125 20.140625 L 410.328125 11.683594 Z M 411.1875 9.710938 L 410.445312 10.042969 C 410.933594 10.648438 411.402344 11.351562 411.832031 12.132812 L 412.554688 11.742188 C 412.164062 11 411.695312 10.335938 411.1875 9.710938 Z M 411.1875 9.710938 "/>
<path style=" stroke:none;fill-rule:nonzero;fill:rgb(0%,0%,0%);fill-opacity:1;" d="M 424.957031 9.789062 L 424.957031 13.480469 L 422.847656 13.480469 L 422.847656 10.667969 L 422.027344 10.667969 L 422.027344 13.480469 L 420.308594 13.480469 L 420.308594 14.28125 L 425.035156 14.28125 L 425.035156 17.660156 L 425.835938 17.660156 L 425.835938 14.28125 L 430.308594 14.28125 L 430.308594 13.480469 L 425.777344 13.480469 L 425.777344 11.9375 L 429.195312 11.9375 L 429.195312 11.15625 L 425.777344 11.15625 L 425.777344 9.789062 Z M 428.628906 15.101562 C 427.398438 17.953125 424.820312 19.398438 420.933594 19.398438 L 421.226562 20.179688 C 425.230469 20.160156 427.945312 18.597656 429.371094 15.492188 Z M 423.003906 14.769531 C 422.359375 15.765625 421.558594 16.625 420.601562 17.367188 L 421.109375 18.03125 C 422.085938 17.25 422.90625 16.332031 423.589844 15.296875 Z M 423.003906 14.769531 "/>
<path style=" stroke:none;fill-rule:nonzero;fill:rgb(0%,0%,0%);fill-opacity:1;" d="M 434.527344 16.878906 L 435.523438 16.742188 C 435.640625 17.304688 435.828125 17.707031 436.089844 17.953125 C 436.363281 18.203125 436.699219 18.324219 437.105469 18.324219 C 437.558594 18.324219 437.945312 18.167969 438.257812 17.855469 C 438.582031 17.53125 438.746094 17.128906 438.746094 16.644531 C 438.746094 16.191406 438.59375 15.820312 438.296875 15.53125 C 438.007812 15.234375 437.636719 15.082031 437.183594 15.082031 C 436.988281 15.082031 436.753906 15.121094 436.480469 15.199219 L 436.597656 14.320312 C 436.660156 14.335938 436.714844 14.339844 436.753906 14.339844 C 437.167969 14.339844 437.546875 14.230469 437.886719 14.007812 C 438.222656 13.789062 438.394531 13.449219 438.394531 12.992188 C 438.394531 12.628906 438.269531 12.328125 438.023438 12.09375 C 437.773438 11.859375 437.457031 11.742188 437.066406 11.742188 C 436.6875 11.742188 436.367188 11.867188 436.109375 12.113281 C 435.859375 12.347656 435.699219 12.707031 435.621094 13.1875 L 434.625 13.011719 C 434.753906 12.347656 435.027344 11.835938 435.445312 11.46875 C 435.875 11.105469 436.40625 10.921875 437.046875 10.921875 C 437.488281 10.921875 437.890625 11.019531 438.257812 11.214844 C 438.632812 11.398438 438.921875 11.652344 439.117188 11.976562 C 439.3125 12.304688 439.410156 12.648438 439.410156 13.011719 C 439.410156 13.363281 439.3125 13.683594 439.117188 13.96875 C 438.933594 14.257812 438.660156 14.484375 438.296875 14.652344 C 438.777344 14.757812 439.148438 14.984375 439.410156 15.335938 C 439.667969 15.675781 439.800781 16.105469 439.800781 16.625 C 439.800781 17.328125 439.539062 17.929688 439.019531 18.421875 C 438.511719 18.90625 437.867188 19.144531 437.085938 19.144531 C 436.382812 19.144531 435.796875 18.9375 435.328125 18.519531 C 434.859375 18.105469 434.589844 17.558594 434.527344 16.878906 Z M 434.527344 16.878906 "/>
<path style=" stroke:none;fill-rule:nonzero;fill:rgb(0%,0%,0%);fill-opacity:1;" d="M 410.214844 26.058594 C 409.726562 27.796875 408.945312 29.339844 407.890625 30.6875 L 408.144531 31.546875 C 408.554688 31.078125 408.90625 30.609375 409.238281 30.082031 L 409.238281 36.410156 L 410 36.410156 L 410 28.773438 C 410.371094 28.03125 410.683594 27.230469 410.9375 26.390625 Z M 410.957031 28.109375 L 410.957031 34.75 L 411.699219 34.75 L 411.699219 28.109375 Z M 412.207031 28.597656 L 412.207031 29.320312 L 417.949219 29.320312 L 417.949219 28.597656 L 416.796875 28.597656 L 416.796875 26.546875 L 412.734375 26.546875 L 412.734375 27.269531 L 415.996094 27.269531 L 415.996094 28.597656 Z M 413.457031 31.175781 L 414.707031 31.175781 L 414.707031 31.292969 C 414.707031 31.722656 414.648438 32.132812 414.570312 32.542969 L 412.167969 32.542969 L 412.167969 33.246094 L 414.355469 33.246094 C 413.90625 34.398438 412.988281 35.238281 411.601562 35.765625 L 412.109375 36.429688 C 413.515625 35.824219 414.492188 34.886719 415.019531 33.617188 C 415.585938 34.632812 416.503906 35.550781 417.753906 36.390625 L 418.28125 35.726562 C 416.992188 34.984375 416.09375 34.164062 415.566406 33.246094 L 418.144531 33.246094 L 418.144531 32.542969 L 415.351562 32.542969 C 415.429688 32.113281 415.46875 31.664062 415.488281 31.175781 L 417.675781 31.175781 L 417.675781 30.453125 L 413.828125 30.453125 C 413.925781 30.21875 414.042969 29.964844 414.140625 29.730469 L 413.457031 29.574219 C 413.105469 30.433594 412.695312 31.15625 412.148438 31.683594 L 412.636719 32.269531 C 412.929688 31.957031 413.222656 31.585938 413.457031 31.175781 Z M 413.457031 31.175781 "/>
<path style=" stroke:none;fill-rule:nonzero;fill:rgb(0%,0%,0%);fill-opacity:1;" d="M 420.175781 26.253906 L 419.609375 26.78125 C 420.410156 27.40625 421.054688 27.992188 421.503906 28.558594 L 422.070312 27.992188 C 421.542969 27.425781 420.917969 26.839844 420.175781 26.253906 Z M 426.699219 36.175781 L 429.316406 36.175781 L 429.511719 35.375 C 429.21875 35.394531 428.789062 35.394531 428.242188 35.414062 C 427.675781 35.433594 427.128906 35.433594 426.582031 35.433594 C 425.722656 35.433594 424.980469 35.433594 424.394531 35.414062 C 423.710938 35.394531 423.203125 35.296875 422.851562 35.140625 C 422.539062 35.003906 422.246094 34.769531 421.972656 34.4375 C 421.894531 34.339844 421.796875 34.242188 421.699219 34.183594 L 421.699219 29.964844 L 419.355469 29.964844 L 419.355469 30.707031 L 420.957031 30.707031 L 420.957031 34.125 C 420.488281 34.339844 419.960938 34.925781 419.355469 35.882812 L 419.960938 36.429688 C 420.585938 35.375 421.035156 34.847656 421.308594 34.847656 C 421.445312 34.847656 421.601562 34.945312 421.757812 35.140625 C 422.109375 35.53125 422.5 35.824219 422.929688 35.960938 C 423.378906 36.078125 423.984375 36.15625 424.707031 36.15625 C 425.429688 36.175781 426.09375 36.175781 426.699219 36.175781 Z M 425.742188 26.039062 L 425.742188 27.464844 L 424.257812 27.464844 C 424.394531 27.113281 424.511719 26.742188 424.628906 26.351562 L 423.847656 26.195312 C 423.574219 27.210938 423.144531 28.128906 422.539062 28.988281 L 423.242188 29.417969 C 423.476562 29.066406 423.710938 28.675781 423.90625 28.246094 L 425.742188 28.246094 L 425.742188 29.867188 L 422.8125 29.867188 L 422.8125 30.648438 L 424.628906 30.648438 C 424.589844 31.351562 424.472656 31.957031 424.277344 32.445312 C 423.984375 33.128906 423.398438 33.675781 422.480469 34.125 L 423.007812 34.769531 C 424.0625 34.222656 424.765625 33.519531 425.058594 32.660156 C 425.234375 32.09375 425.351562 31.429688 425.390625 30.648438 L 426.523438 30.648438 L 426.523438 33.832031 C 426.523438 34.085938 426.582031 34.28125 426.757812 34.457031 C 426.894531 34.613281 427.109375 34.691406 427.402344 34.691406 L 428.203125 34.691406 C 428.59375 34.671875 428.867188 34.574219 429.023438 34.417969 C 429.199219 34.242188 429.316406 33.695312 429.375 32.757812 L 428.671875 32.523438 C 428.632812 33.324219 428.535156 33.773438 428.398438 33.871094 C 428.320312 33.949219 428.203125 33.96875 428.046875 33.96875 L 427.636719 33.96875 C 427.382812 33.96875 427.285156 33.871094 427.285156 33.65625 L 427.285156 30.648438 L 429.160156 30.648438 L 429.160156 29.867188 L 426.523438 29.867188 L 426.523438 28.246094 L 428.769531 28.246094 L 428.769531 27.464844 L 426.523438 27.464844 L 426.523438 26.039062 Z M 425.742188 26.039062 "/>
</g>
</svg>
