<?xml version="1.0" encoding="UTF-8"?>
<svg xmlns="http://www.w3.org/2000/svg" xmlns:xlink="http://www.w3.org/1999/xlink" width="351pt" height="271pt" viewBox="0 0 351 271" version="1.1">
<g id="surface1">
<path style="fill:none;stroke-width:1;stroke-linecap:round;stroke-linejoin:round;stroke:rgb(0%,0%,0%);stroke-opacity:1;stroke-miterlimit:10;" d="M 292 232 L 464 232 C 470.628125 232 476 237.371875 476 244 L 476 364 C 476 370.628125 470.628125 376 464 376 L 292 376 C 285.371875 376 280 370.628125 280 364 L 280 244 C 280 237.371875 285.371875 232 292 232 Z M 292 232 " transform="matrix(1.25,0,0,1.25,-263.75,-288.75)"/>
<path style=" stroke:none;fill-rule:nonzero;fill:rgb(40%,74.901961%,100%);fill-opacity:1;" d="M 144.003906 131.25 L 179.003906 131.25 L 179.003906 111.25 L 144.003906 111.25 Z M 144.003906 131.25 "/>
<path style="fill:none;stroke-width:1;stroke-linecap:round;stroke-linejoin:round;stroke:rgb(0%,0%,0%);stroke-opacity:1;stroke-miterlimit:10;" d="M 326.203125 320 L 354.203125 320 L 354.203125 336 L 326.203125 336 Z M 326.203125 320 " transform="matrix(1.25,0,0,1.25,-263.75,-288.75)"/>
<path style=" stroke:none;fill-rule:nonzero;fill:rgb(0%,0%,0%);fill-opacity:1;" d="M 165.355469 118.976562 L 165.199219 119.816406 L 163.734375 119.816406 C 164.019531 120.222656 164.164062 120.730469 164.164062 121.339844 C 164.164062 122.292969 163.882812 123.132812 163.324219 123.859375 C 162.761719 124.589844 162 124.953125 161.039062 124.953125 C 160.296875 124.953125 159.710938 124.738281 159.28125 124.308594 C 158.863281 123.867188 158.65625 123.292969 158.65625 122.589844 C 158.65625 121.550781 158.941406 120.671875 159.515625 119.953125 C 160.101562 119.226562 160.855469 118.859375 161.78125 118.859375 C 162.078125 118.859375 162.351562 118.898438 162.601562 118.976562 Z M 159.652344 122.570312 C 159.652344 123.039062 159.773438 123.425781 160.023438 123.722656 C 160.269531 124.023438 160.609375 124.171875 161.039062 124.171875 C 161.703125 124.171875 162.222656 123.859375 162.601562 123.234375 C 162.976562 122.597656 163.167969 121.953125 163.167969 121.300781 C 163.167969 120.753906 163.042969 120.339844 162.796875 120.050781 C 162.5625 119.765625 162.234375 119.621094 161.820312 119.621094 C 161.15625 119.621094 160.628906 119.921875 160.238281 120.519531 C 159.847656 121.121094 159.652344 121.804688 159.652344 122.570312 Z M 159.652344 122.570312 "/>
<path style="fill:none;stroke-width:1;stroke-linecap:round;stroke-linejoin:round;stroke:rgb(0%,0%,0%);stroke-opacity:1;stroke-miterlimit:10;" d="M 253.5 251.78125 L 292 251.325 " transform="matrix(1.25,0,0,1.25,-263.75,-288.75)"/>
<path style="fill:none;stroke-width:1;stroke-linecap:round;stroke-linejoin:round;stroke:rgb(0%,0%,0%);stroke-opacity:1;stroke-miterlimit:10;" d="M 269.375 251.55625 L 293.95625 251.371875 C 297.26875 251.346875 299.975 254.0125 300 257.328125 C 300 257.340625 300 257.35625 300 257.371875 L 300 346 C 300 349.3125 302.6875 352 306 352 L 334.05 352 C 337.34375 352 340.025 349.34375 340.05 346.05 L 340.0875 341.9 " transform="matrix(1.25,0,0,1.25,-263.75,-288.75)"/>
<path style="fill:none;stroke-width:1;stroke-linecap:butt;stroke-linejoin:miter;stroke:rgb(0%,0%,0%);stroke-opacity:1;stroke-miterlimit:10;" d="M 340.11875 337.9 L 340.0875 341.9 M 338.5875 341.8875 L 340.11875 337.9 L 341.5875 341.9125 " transform="matrix(1.25,0,0,1.25,-263.75,-288.75)"/>
<path style=" stroke:none;fill-rule:nonzero;fill:rgb(40%,74.901961%,100%);fill-opacity:1;" d="M 208.679688 131.25 L 243.679688 131.25 L 243.679688 111.25 L 208.679688 111.25 Z M 208.679688 131.25 "/>
<path style="fill:none;stroke-width:1;stroke-linecap:round;stroke-linejoin:round;stroke:rgb(0%,0%,0%);stroke-opacity:1;stroke-miterlimit:10;" d="M 377.94375 320 L 405.94375 320 L 405.94375 336 L 377.94375 336 Z M 377.94375 320 " transform="matrix(1.25,0,0,1.25,-263.75,-288.75)"/>
<path style=" stroke:none;fill-rule:nonzero;fill:rgb(0%,0%,0%);fill-opacity:1;" d="M 230.035156 118.976562 L 229.878906 119.816406 L 228.414062 119.816406 C 228.695312 120.222656 228.84375 120.730469 228.84375 121.339844 C 228.84375 122.292969 228.558594 123.132812 228.003906 123.859375 C 227.441406 124.589844 226.679688 124.953125 225.71875 124.953125 C 224.976562 124.953125 224.390625 124.738281 223.960938 124.308594 C 223.539062 123.867188 223.335938 123.292969 223.335938 122.589844 C 223.335938 121.550781 223.617188 120.671875 224.195312 119.953125 C 224.78125 119.226562 225.53125 118.859375 226.460938 118.859375 C 226.757812 118.859375 227.03125 118.898438 227.28125 118.976562 Z M 224.332031 122.570312 C 224.332031 123.039062 224.453125 123.425781 224.703125 123.722656 C 224.945312 124.023438 225.289062 124.171875 225.71875 124.171875 C 226.382812 124.171875 226.898438 123.859375 227.28125 123.234375 C 227.65625 122.597656 227.847656 121.953125 227.847656 121.300781 C 227.847656 120.753906 227.71875 120.339844 227.476562 120.050781 C 227.242188 119.765625 226.914062 119.621094 226.5 119.621094 C 225.835938 119.621094 225.308594 119.921875 224.917969 120.519531 C 224.527344 121.121094 224.332031 121.804688 224.332031 122.570312 Z M 224.332031 122.570312 "/>
<path style=" stroke:none;fill-rule:nonzero;fill:rgb(0%,0%,0%);fill-opacity:1;" d="M 146.417969 52.367188 L 146.417969 56.097656 L 149.894531 56.097656 L 149.894531 56.878906 L 145.890625 56.878906 L 145.890625 57.523438 L 149.894531 57.523438 L 149.894531 58.363281 L 145.324219 58.363281 L 145.324219 59.085938 L 155.285156 59.085938 L 155.285156 58.363281 L 150.695312 58.363281 L 150.695312 57.523438 L 154.71875 57.523438 L 154.71875 56.878906 L 150.695312 56.878906 L 150.695312 56.097656 L 154.191406 56.097656 L 154.191406 52.367188 L 150.695312 52.367188 L 150.695312 51.644531 L 155.128906 51.644531 L 155.128906 50.941406 L 150.695312 50.941406 L 150.695312 50.082031 C 151.945312 50.003906 153.117188 49.925781 154.191406 49.808594 L 153.957031 49.125 C 151.710938 49.378906 149.132812 49.554688 146.203125 49.632812 L 146.339844 50.296875 C 147.570312 50.257812 148.761719 50.199219 149.894531 50.140625 L 149.894531 50.941406 L 145.480469 50.941406 L 145.480469 51.644531 L 149.894531 51.644531 L 149.894531 52.367188 Z M 153.390625 55.453125 L 150.695312 55.453125 L 150.695312 54.535156 L 153.390625 54.535156 Z M 149.894531 55.453125 L 147.179688 55.453125 L 147.179688 54.535156 L 149.894531 54.535156 Z M 147.179688 53.910156 L 147.179688 53.011719 L 149.894531 53.011719 L 149.894531 53.910156 Z M 150.695312 53.011719 L 153.390625 53.011719 L 153.390625 53.910156 L 150.695312 53.910156 Z M 150.695312 53.011719 "/>
<path style=" stroke:none;fill-rule:nonzero;fill:rgb(0%,0%,0%);fill-opacity:1;" d="M 156.730469 52.230469 L 156.730469 52.855469 L 161.007812 52.855469 C 160.96875 53.070312 160.929688 53.285156 160.890625 53.5 L 158.15625 53.5 L 158.15625 58.460938 L 156.535156 58.460938 L 156.535156 59.105469 L 166.59375 59.105469 L 166.59375 58.460938 L 164.972656 58.460938 L 164.972656 53.5 L 161.691406 53.5 C 161.75 53.304688 161.789062 53.089844 161.828125 52.855469 L 166.398438 52.855469 L 166.398438 52.230469 L 161.90625 52.230469 L 161.984375 51.585938 L 165.636719 51.585938 L 165.636719 49.476562 L 157.472656 49.476562 L 157.472656 51.585938 L 161.164062 51.585938 L 161.105469 52.230469 Z M 158.9375 58.460938 L 158.9375 57.71875 L 164.171875 57.71875 L 164.171875 58.460938 Z M 158.9375 57.210938 L 158.9375 56.507812 L 164.171875 56.507812 L 164.171875 57.210938 Z M 158.9375 55.980469 L 158.9375 55.277344 L 164.171875 55.277344 L 164.171875 55.980469 Z M 158.9375 54.769531 L 158.9375 54.066406 L 164.171875 54.066406 L 164.171875 54.769531 Z M 164.855469 51.019531 L 163.195312 51.019531 L 163.195312 50.082031 L 164.855469 50.082031 Z M 162.453125 51.019531 L 160.65625 51.019531 L 160.65625 50.082031 L 162.453125 50.082031 Z M 159.933594 51.019531 L 158.253906 51.019531 L 158.253906 50.082031 L 159.933594 50.082031 Z M 159.933594 51.019531 "/>
<path style=" stroke:none;fill-rule:nonzero;fill:rgb(0%,0%,0%);fill-opacity:1;" d="M 176.183594 59.28125 C 176.925781 59.28125 177.296875 58.890625 177.296875 58.128906 L 177.296875 49.632812 L 172.179688 49.632812 L 172.179688 50.375 L 176.515625 50.375 L 176.515625 57.914062 C 176.515625 58.34375 176.339844 58.558594 176.007812 58.558594 L 175.011719 58.519531 L 175.207031 59.28125 Z M 168.292969 50.921875 L 168.292969 59.378906 L 169.074219 59.378906 L 169.074219 50.921875 Z M 169.933594 48.949219 L 169.191406 49.28125 C 169.699219 49.886719 170.167969 50.589844 170.597656 51.371094 L 171.320312 50.980469 C 170.910156 50.238281 170.441406 49.574219 169.933594 48.949219 Z M 169.933594 48.949219 "/>
<path style=" stroke:none;fill-rule:nonzero;fill:rgb(0%,0%,0%);fill-opacity:1;" d="M 164.496094 73.246094 L 164.496094 72.972656 C 164.300781 72.972656 164.105469 72.855469 164.007812 72.71875 L 161.761719 69.535156 C 162.425781 69.359375 162.71875 69.183594 163.03125 68.910156 C 163.363281 68.597656 163.539062 68.089844 163.539062 67.582031 C 163.539062 66.273438 162.40625 65.648438 160.199219 65.648438 L 156.742188 65.648438 L 156.742188 65.921875 C 157.582031 65.980469 157.738281 66.175781 157.738281 67.054688 L 157.738281 71.898438 C 157.738281 72.777344 157.621094 72.855469 156.742188 72.972656 L 156.742188 73.246094 L 160.550781 73.246094 L 160.550781 72.972656 C 159.671875 72.855469 159.554688 72.757812 159.554688 71.9375 L 159.554688 69.730469 L 159.867188 69.730469 L 162.191406 73.246094 Z M 159.554688 66.527344 C 159.554688 66.15625 159.710938 66.019531 160.160156 66.019531 C 161.195312 66.019531 161.605469 66.488281 161.605469 67.679688 C 161.605469 69.066406 161.019531 69.359375 159.554688 69.359375 Z M 159.554688 66.527344 "/>
<path style=" stroke:none;fill-rule:nonzero;fill:rgb(0%,0%,0%);fill-opacity:1;" d="M 166.800781 73.792969 L 166.195312 73.792969 L 166.410156 73.011719 C 166.410156 72.992188 166.410156 72.953125 166.410156 72.953125 C 166.410156 72.914062 166.390625 72.894531 166.351562 72.894531 C 166.3125 72.894531 166.273438 72.914062 166.234375 72.972656 C 165.960938 73.382812 165.472656 73.734375 165.238281 73.792969 C 165.0625 73.832031 165.003906 73.890625 165.003906 73.988281 C 165.003906 73.988281 165.003906 74.007812 165.003906 74.027344 L 165.570312 74.027344 L 164.984375 76.253906 C 164.925781 76.488281 164.867188 76.722656 164.867188 76.800781 C 164.867188 76.996094 165.003906 77.074219 165.199219 77.074219 C 165.589844 77.074219 165.824219 76.859375 166.273438 76.175781 L 166.175781 76.117188 C 165.804688 76.585938 165.6875 76.703125 165.570312 76.703125 C 165.511719 76.703125 165.453125 76.683594 165.453125 76.585938 C 165.453125 76.566406 165.472656 76.507812 165.472656 76.488281 L 166.117188 74.027344 L 166.761719 74.027344 Z M 166.800781 73.792969 "/>
<path style=" stroke:none;fill-rule:nonzero;fill:rgb(0%,0%,0%);fill-opacity:1;" d="M 210.1875 50 L 210.1875 50.761719 L 214.601562 50.761719 L 214.601562 51.738281 L 211.164062 51.738281 L 211.164062 56.191406 L 214.464844 56.191406 C 214.347656 56.777344 214.152344 57.265625 213.878906 57.65625 C 213.253906 57.324219 212.667969 56.933594 212.140625 56.503906 L 211.515625 56.933594 C 212.0625 57.402344 212.667969 57.8125 213.332031 58.183594 C 212.609375 58.691406 211.457031 59.003906 209.894531 59.140625 L 210.246094 59.882812 C 212.023438 59.667969 213.332031 59.238281 214.113281 58.574219 C 215.792969 59.335938 217.765625 59.765625 220.011719 59.863281 L 220.226562 59.082031 C 218.058594 59.023438 216.183594 58.652344 214.621094 57.988281 C 214.933594 57.539062 215.148438 56.933594 215.285156 56.191406 L 218.898438 56.191406 L 218.898438 51.738281 L 215.421875 51.738281 L 215.421875 50.761719 L 219.835938 50.761719 L 219.835938 50 Z M 218.097656 55.488281 L 215.382812 55.488281 L 215.421875 54.6875 L 215.421875 54.296875 L 218.097656 54.296875 Z M 214.582031 55.488281 L 211.964844 55.488281 L 211.964844 54.296875 L 214.601562 54.296875 L 214.601562 54.6875 C 214.601562 54.960938 214.601562 55.234375 214.582031 55.488281 Z M 211.964844 53.613281 L 211.964844 52.441406 L 214.601562 52.441406 L 214.601562 53.613281 Z M 215.421875 52.441406 L 218.097656 52.441406 L 218.097656 53.613281 L 215.421875 53.613281 Z M 215.421875 52.441406 "/>
<path style=" stroke:none;fill-rule:nonzero;fill:rgb(0%,0%,0%);fill-opacity:1;" d="M 230.695312 49.667969 C 229.601562 50.136719 228.371094 50.410156 227.023438 50.429688 L 227.023438 55.234375 C 226.964844 56.953125 226.59375 58.28125 225.929688 59.257812 L 226.515625 59.863281 C 227.316406 58.710938 227.746094 57.167969 227.804688 55.234375 L 227.804688 53.90625 L 229.464844 53.90625 L 229.464844 59.902344 L 230.265625 59.902344 L 230.265625 53.90625 L 231.4375 53.90625 L 231.4375 53.125 L 227.804688 53.125 L 227.804688 51.074219 C 229.015625 51.015625 230.109375 50.78125 231.105469 50.390625 Z M 221.320312 50.546875 L 221.320312 51.289062 L 226.398438 51.289062 L 226.398438 50.546875 L 224.269531 50.546875 C 224.113281 50.136719 223.957031 49.765625 223.78125 49.414062 L 222.960938 49.550781 C 223.136719 49.84375 223.3125 50.175781 223.46875 50.546875 Z M 221.203125 53.085938 L 221.203125 53.828125 L 223.488281 53.828125 L 223.488281 55.078125 L 221.398438 55.078125 L 221.398438 55.820312 L 223.488281 55.820312 L 223.488281 58.808594 C 223.488281 59.082031 223.332031 59.21875 223.039062 59.21875 C 222.882812 59.21875 222.726562 59.199219 222.53125 59.160156 L 222.707031 59.921875 L 223.3125 59.921875 C 223.957031 59.921875 224.289062 59.609375 224.289062 59.003906 L 224.289062 55.820312 L 226.28125 55.820312 L 226.28125 55.078125 L 224.289062 55.078125 L 224.289062 53.828125 L 226.457031 53.828125 L 226.457031 53.085938 L 225.1875 53.085938 C 225.402344 52.714844 225.597656 52.265625 225.773438 51.777344 L 225.050781 51.542969 C 224.875 52.070312 224.679688 52.597656 224.464844 53.085938 L 223.214844 53.085938 C 223.039062 52.480469 222.84375 51.972656 222.628906 51.5625 L 221.90625 51.816406 C 222.140625 52.207031 222.335938 52.636719 222.511719 53.085938 Z M 222.179688 56.425781 C 221.925781 57.421875 221.554688 58.320312 221.027344 59.140625 L 221.691406 59.550781 C 222.21875 58.710938 222.628906 57.734375 222.921875 56.582031 Z M 225.402344 56.347656 L 224.738281 56.542969 C 225.050781 57.207031 225.304688 57.910156 225.519531 58.613281 L 226.203125 58.359375 C 226.007812 57.753906 225.753906 57.089844 225.402344 56.347656 Z M 225.402344 56.347656 "/>
<path style=" stroke:none;fill-rule:nonzero;fill:rgb(0%,0%,0%);fill-opacity:1;" d="M 240.890625 59.785156 C 241.632812 59.785156 242.003906 59.394531 242.003906 58.632812 L 242.003906 50.136719 L 236.886719 50.136719 L 236.886719 50.878906 L 241.222656 50.878906 L 241.222656 58.417969 C 241.222656 58.847656 241.046875 59.0625 240.714844 59.0625 L 239.71875 59.023438 L 239.914062 59.785156 Z M 233 51.425781 L 233 59.882812 L 233.78125 59.882812 L 233.78125 51.425781 Z M 234.640625 49.453125 L 233.898438 49.785156 C 234.40625 50.390625 234.875 51.09375 235.304688 51.875 L 236.027344 51.484375 C 235.617188 50.742188 235.148438 50.078125 234.640625 49.453125 Z M 234.640625 49.453125 "/>
<path style=" stroke:none;fill-rule:nonzero;fill:rgb(0%,0%,0%);fill-opacity:1;" d="M 228.597656 71.035156 L 228.304688 71.035156 C 227.992188 71.992188 227.835938 72.460938 227.210938 72.910156 C 226.742188 73.242188 226 73.359375 224.925781 73.359375 L 224.007812 73.359375 L 228.265625 66.328125 L 228.265625 66.152344 L 222.386719 66.152344 L 222.132812 68.476562 L 222.445312 68.476562 C 222.953125 66.855469 223.421875 66.640625 225.140625 66.582031 L 226.078125 66.542969 L 221.78125 73.574219 L 221.78125 73.75 L 228.304688 73.75 Z M 228.597656 71.035156 "/>
<path style=" stroke:none;fill-rule:nonzero;fill:rgb(0%,0%,0%);fill-opacity:1;" d="M 231.199219 74.296875 L 230.59375 74.296875 L 230.808594 73.515625 C 230.808594 73.496094 230.808594 73.457031 230.808594 73.457031 C 230.808594 73.417969 230.789062 73.398438 230.75 73.398438 C 230.710938 73.398438 230.671875 73.417969 230.632812 73.476562 C 230.359375 73.886719 229.871094 74.238281 229.636719 74.296875 C 229.460938 74.335938 229.402344 74.394531 229.402344 74.492188 C 229.402344 74.492188 229.402344 74.511719 229.402344 74.53125 L 229.96875 74.53125 L 229.382812 76.757812 C 229.324219 76.992188 229.265625 77.226562 229.265625 77.304688 C 229.265625 77.5 229.402344 77.578125 229.597656 77.578125 C 229.988281 77.578125 230.222656 77.363281 230.671875 76.679688 L 230.574219 76.621094 C 230.203125 77.089844 230.085938 77.207031 229.96875 77.207031 C 229.910156 77.207031 229.851562 77.1875 229.851562 77.089844 C 229.851562 77.070312 229.871094 77.011719 229.871094 76.992188 L 230.515625 74.53125 L 231.160156 74.53125 Z M 231.199219 74.296875 "/>
<path style="fill:none;stroke-width:1;stroke-linecap:round;stroke-linejoin:round;stroke:rgb(0%,0%,0%);stroke-opacity:1;stroke-miterlimit:10;" d="M 319.9625 352 L 386 352 C 389.3125 352 392 349.3125 392 346 L 392 341.9 " transform="matrix(1.25,0,0,1.25,-263.75,-288.75)"/>
<path style="fill:none;stroke-width:1;stroke-linecap:butt;stroke-linejoin:miter;stroke:rgb(0%,0%,0%);stroke-opacity:1;stroke-miterlimit:10;" d="M 392 337.9 L 392 341.9 M 390.5 341.9 L 392 337.9 L 393.5 341.9 " transform="matrix(1.25,0,0,1.25,-263.75,-288.75)"/>
<path style="fill:none;stroke-width:1;stroke-linecap:round;stroke-linejoin:round;stroke:rgb(0%,0%,0%);stroke-opacity:1;stroke-miterlimit:10;" d="M 300.0375 384.5 L 300.00625 358.00625 C 300.003125 354.690625 302.6875 352.003125 306 352 C 306.003125 352 306.003125 352 306.00625 352 L 325.6375 352 " transform="matrix(1.25,0,0,1.25,-263.75,-288.75)"/>
<path style=" stroke:none;fill-rule:nonzero;fill:rgb(0%,0%,0%);fill-opacity:1;" d="M 95.667969 204.570312 L 95.667969 206.230469 L 94.554688 206.230469 C 94.828125 205.507812 95.101562 204.6875 95.335938 203.769531 L 97.503906 203.769531 L 97.503906 203.007812 L 95.53125 203.007812 C 95.628906 202.558594 95.726562 202.070312 95.84375 201.5625 L 95.101562 201.40625 C 94.984375 201.953125 94.886719 202.5 94.769531 203.007812 L 93.65625 203.007812 L 93.65625 203.769531 L 94.59375 203.769531 C 94.339844 204.765625 94.066406 205.625 93.734375 206.289062 L 93.910156 206.972656 L 95.667969 206.972656 L 95.667969 208.652344 C 95.003906 208.769531 94.320312 208.886719 93.578125 208.964844 L 93.675781 209.765625 C 94.359375 209.648438 95.023438 209.550781 95.667969 209.414062 L 95.667969 211.757812 L 96.410156 211.757812 L 96.410156 209.257812 L 97.484375 208.984375 L 97.484375 208.222656 C 97.152344 208.300781 96.800781 208.398438 96.410156 208.496094 L 96.410156 206.972656 L 97.445312 206.972656 L 97.445312 206.230469 L 96.410156 206.230469 L 96.410156 204.570312 Z M 98.988281 203.984375 L 98.988281 204.648438 L 102.210938 204.648438 L 102.210938 203.984375 L 98.988281 203.984375 C 99.554688 203.4375 100.101562 202.832031 100.628906 202.1875 C 101.488281 203.28125 102.445312 204.21875 103.5 204.980469 L 103.929688 204.355469 C 102.914062 203.632812 101.917969 202.675781 100.921875 201.464844 L 100.355469 201.464844 C 99.4375 202.578125 98.402344 203.574219 97.25 204.414062 L 97.699219 205.097656 C 98.128906 204.746094 98.558594 204.375 98.988281 203.984375 Z M 99.769531 211.679688 C 100.316406 211.679688 100.609375 211.386719 100.609375 210.800781 L 100.609375 205.546875 L 97.953125 205.546875 L 97.953125 211.757812 L 98.65625 211.757812 L 98.65625 209.648438 L 99.925781 209.648438 L 99.925781 210.664062 C 99.925781 210.898438 99.789062 211.035156 99.554688 211.035156 L 99.046875 211.015625 L 99.222656 211.679688 Z M 98.65625 209.023438 L 98.65625 207.949219 L 99.925781 207.949219 L 99.925781 209.023438 Z M 98.65625 207.324219 L 98.65625 206.210938 L 99.925781 206.210938 L 99.925781 207.324219 Z M 101.273438 205.859375 L 101.273438 209.902344 L 101.917969 209.902344 L 101.917969 205.859375 Z M 102.503906 211.699219 C 103.050781 211.699219 103.324219 211.367188 103.324219 210.722656 L 103.324219 205.351562 L 102.621094 205.351562 L 102.621094 210.546875 C 102.621094 210.859375 102.503906 211.035156 102.25 211.035156 C 101.976562 211.035156 101.683594 211.015625 101.390625 210.976562 L 101.546875 211.699219 Z M 102.503906 211.699219 "/>
<path style=" stroke:none;fill-rule:nonzero;fill:rgb(0%,0%,0%);fill-opacity:1;" d="M 109.476562 204.042969 C 108.753906 207.03125 107.191406 209.335938 104.769531 210.898438 L 105.257812 211.601562 C 107.621094 210.058594 109.183594 207.851562 109.925781 204.980469 C 109.984375 205.117188 110.023438 205.273438 110.101562 205.46875 C 111.253906 208.4375 112.738281 210.488281 114.574219 211.582031 L 115.082031 210.9375 C 113.285156 209.824219 111.878906 207.910156 110.824219 205.234375 C 110.140625 203.398438 109.28125 202.128906 108.285156 201.425781 L 107.621094 201.855469 C 108.324219 202.382812 108.949219 203.105469 109.476562 204.042969 Z M 109.476562 204.042969 "/>
<path style=" stroke:none;fill-rule:nonzero;fill:rgb(0%,0%,0%);fill-opacity:1;" d="M 127.207031 210.625 L 127.207031 210.351562 C 126.816406 210.332031 126.640625 210.195312 126.113281 209.375 L 124.0625 206.191406 L 124.960938 204.941406 C 125.9375 203.574219 126.230469 203.378906 127.070312 203.300781 L 127.070312 203.027344 L 124.257812 203.027344 L 124.257812 203.300781 L 124.492188 203.320312 C 124.921875 203.359375 125.078125 203.457031 125.078125 203.710938 C 125.078125 203.964844 124.941406 204.179688 124.414062 204.902344 L 123.789062 205.78125 L 122.695312 204.082031 C 122.558594 203.867188 122.539062 203.808594 122.539062 203.671875 C 122.539062 203.4375 122.65625 203.339844 123.066406 203.320312 L 123.417969 203.300781 L 123.417969 203.027344 L 119.53125 203.027344 L 119.53125 203.300781 C 119.941406 203.339844 120.078125 203.457031 120.429688 203.945312 L 122.65625 207.226562 L 120.683594 209.707031 C 120.351562 210.136719 120.078125 210.273438 119.511719 210.351562 L 119.511719 210.625 L 122.324219 210.625 L 122.324219 210.351562 C 121.640625 210.273438 121.425781 210.15625 121.425781 209.863281 C 121.425781 209.628906 121.640625 209.277344 122.480469 208.144531 L 122.910156 207.578125 L 124.042969 209.394531 C 124.179688 209.609375 124.277344 209.863281 124.277344 210 C 124.277344 210.195312 124.082031 210.292969 123.691406 210.3125 L 123.378906 210.351562 L 123.378906 210.625 Z M 127.207031 210.625 "/>
<path style=" stroke:none;fill-rule:nonzero;fill:rgb(0%,0%,0%);fill-opacity:1;" d="M 129.683594 211.171875 L 129.078125 211.171875 L 129.292969 210.390625 C 129.292969 210.371094 129.292969 210.332031 129.292969 210.332031 C 129.292969 210.292969 129.273438 210.273438 129.234375 210.273438 C 129.195312 210.273438 129.15625 210.292969 129.117188 210.351562 C 128.84375 210.761719 128.355469 211.113281 128.121094 211.171875 C 127.945312 211.210938 127.886719 211.269531 127.886719 211.367188 C 127.886719 211.367188 127.886719 211.386719 127.886719 211.40625 L 128.453125 211.40625 L 127.867188 213.632812 C 127.808594 213.867188 127.75 214.101562 127.75 214.179688 C 127.75 214.375 127.886719 214.453125 128.082031 214.453125 C 128.472656 214.453125 128.707031 214.238281 129.15625 213.554688 L 129.058594 213.496094 C 128.6875 213.964844 128.570312 214.082031 128.453125 214.082031 C 128.394531 214.082031 128.335938 214.0625 128.335938 213.964844 C 128.335938 213.945312 128.355469 213.886719 128.355469 213.867188 L 129 211.40625 L 129.644531 211.40625 Z M 129.683594 211.171875 "/>
<path style=" stroke:none;fill-rule:nonzero;fill:rgb(0%,0%,0%);fill-opacity:1;" d="M 23.085938 18.691406 L 23.085938 14.863281 L 21.308594 14.863281 C 21.660156 14.472656 21.992188 13.984375 22.34375 13.4375 L 22.34375 12.832031 L 19.726562 12.832031 C 19.84375 12.617188 19.960938 12.363281 20.039062 12.109375 L 19.238281 12.011719 C 18.847656 13.046875 18.105469 13.90625 17.011719 14.628906 L 17.480469 15.253906 C 17.617188 15.15625 17.753906 15.058594 17.910156 14.941406 L 17.910156 15.585938 L 22.304688 15.585938 L 22.304688 16.445312 L 17.753906 16.445312 L 17.753906 17.148438 L 22.304688 17.148438 L 22.304688 17.988281 L 17.5 17.988281 L 17.5 18.691406 Z M 19.296875 13.535156 L 21.445312 13.535156 C 21.113281 14.042969 20.78125 14.492188 20.449219 14.863281 L 18.007812 14.863281 C 18.496094 14.472656 18.925781 14.042969 19.296875 13.535156 Z M 14.0625 12.519531 L 14.0625 22.382812 L 14.863281 22.382812 L 14.863281 13.28125 L 16.484375 13.28125 C 16.210938 14.238281 15.839844 15.292969 15.371094 16.464844 C 15.976562 17.421875 16.269531 18.300781 16.269531 19.0625 C 16.269531 19.296875 16.210938 19.472656 16.132812 19.570312 C 16.035156 19.667969 15.839844 19.726562 15.566406 19.746094 C 15.449219 19.746094 15.292969 19.726562 15.136719 19.707031 L 15.390625 20.527344 C 16.035156 20.527344 16.503906 20.390625 16.777344 20.117188 C 16.953125 19.902344 17.050781 19.550781 17.050781 19.0625 C 17.011719 18.261719 16.71875 17.34375 16.171875 16.347656 C 16.601562 15.234375 16.972656 14.179688 17.285156 13.164062 L 17.285156 12.519531 Z M 22.929688 19.160156 L 22.226562 19.394531 C 22.617188 20.078125 22.988281 20.859375 23.320312 21.738281 L 23.984375 21.425781 C 23.671875 20.625 23.320312 19.882812 22.929688 19.160156 Z M 17.597656 19.375 C 17.421875 20.175781 17.148438 20.917969 16.777344 21.582031 L 17.441406 22.011719 C 17.8125 21.308594 18.105469 20.488281 18.320312 19.53125 Z M 21.328125 22.285156 C 21.660156 22.285156 21.914062 22.207031 22.070312 22.070312 C 22.265625 21.894531 22.402344 21.425781 22.460938 20.664062 L 21.757812 20.429688 C 21.71875 20.976562 21.660156 21.308594 21.582031 21.425781 C 21.503906 21.503906 21.367188 21.5625 21.191406 21.5625 L 19.980469 21.5625 C 19.707031 21.5625 19.570312 21.386719 19.570312 21.074219 L 19.570312 19.238281 L 18.808594 19.238281 L 18.808594 21.25 C 18.808594 21.933594 19.121094 22.285156 19.746094 22.285156 Z M 20.585938 18.984375 L 20.019531 19.355469 C 20.429688 19.84375 20.761719 20.273438 20.996094 20.683594 L 21.601562 20.253906 C 21.367188 19.902344 21.015625 19.472656 20.585938 18.984375 Z M 20.585938 18.984375 "/>
<path style=" stroke:none;fill-rule:nonzero;fill:rgb(0%,0%,0%);fill-opacity:1;" d="M 27.402344 17.460938 C 26.640625 18.28125 25.78125 19.003906 24.84375 19.609375 L 25.097656 20.46875 C 25.957031 19.824219 26.71875 19.140625 27.402344 18.417969 L 27.402344 22.34375 L 28.203125 22.34375 L 28.203125 12.128906 L 27.402344 12.128906 Z M 25.761719 13.242188 L 25 13.496094 C 25.429688 14.335938 25.820312 15.332031 26.171875 16.464844 L 26.875 16.132812 C 26.5625 15.117188 26.191406 14.140625 25.761719 13.242188 Z M 33.359375 12.285156 L 32.714844 12.675781 C 33.300781 13.339844 33.789062 13.945312 34.121094 14.511719 L 34.746094 14.0625 C 34.414062 13.554688 33.964844 12.949219 33.359375 12.285156 Z M 32.109375 12.089844 L 31.308594 12.089844 C 31.308594 12.773438 31.289062 13.789062 31.25 15.078125 L 28.945312 15.078125 L 28.945312 15.859375 L 31.210938 15.859375 C 30.976562 18.085938 30.117188 20.058594 28.613281 21.738281 L 29.140625 22.34375 C 30.429688 20.976562 31.308594 19.277344 31.796875 17.226562 C 32.285156 19.277344 33.242188 20.976562 34.648438 22.324219 L 35.214844 21.71875 C 33.652344 20.332031 32.636719 18.378906 32.167969 15.859375 L 34.824219 15.859375 L 34.824219 15.078125 L 32.070312 15.078125 C 32.089844 13.90625 32.109375 12.929688 32.109375 12.089844 Z M 32.109375 12.089844 "/>
<path style=" stroke:none;fill-rule:nonzero;fill:rgb(0%,0%,0%);fill-opacity:1;" d="M 40.839844 11.953125 C 40.800781 12.402344 40.703125 12.832031 40.585938 13.242188 L 36.621094 13.242188 L 36.621094 14.023438 L 40.3125 14.023438 C 40.097656 14.453125 39.863281 14.84375 39.53125 15.195312 C 38.828125 15.9375 37.675781 16.523438 36.074219 16.914062 L 36.386719 17.65625 C 37.734375 17.304688 38.789062 16.855469 39.53125 16.308594 C 40.078125 16.71875 40.625 17.207031 41.152344 17.753906 L 41.71875 17.1875 C 41.113281 16.640625 40.566406 16.191406 40.078125 15.839844 C 40.117188 15.800781 40.15625 15.761719 40.195312 15.722656 C 40.605469 15.234375 40.9375 14.667969 41.191406 14.023438 L 41.367188 14.023438 C 41.933594 15.546875 43.4375 16.757812 45.9375 17.636719 L 46.367188 16.933594 C 44.121094 16.230469 42.734375 15.273438 42.1875 14.023438 L 45.78125 14.023438 L 45.78125 13.242188 L 41.445312 13.242188 C 41.523438 12.851562 41.601562 12.460938 41.660156 12.03125 Z M 37.226562 18.613281 C 37.011719 19.609375 36.679688 20.546875 36.191406 21.367188 L 36.894531 21.816406 C 37.382812 20.957031 37.753906 19.941406 38.027344 18.769531 Z M 41.503906 18.203125 L 40.78125 18.417969 C 41.152344 19.003906 41.484375 19.667969 41.796875 20.410156 L 42.539062 20.097656 C 42.246094 19.414062 41.894531 18.789062 41.503906 18.203125 Z M 44.863281 18.4375 L 44.082031 18.691406 C 44.609375 19.492188 45.097656 20.410156 45.527344 21.464844 L 46.269531 21.132812 C 45.878906 20.175781 45.410156 19.277344 44.863281 18.4375 Z M 42.792969 22.148438 C 43.222656 22.148438 43.535156 22.03125 43.730469 21.855469 C 43.964844 21.621094 44.121094 21.015625 44.199219 20 L 43.4375 19.746094 C 43.378906 20.527344 43.300781 20.996094 43.164062 21.152344 C 43.066406 21.289062 42.890625 21.347656 42.65625 21.347656 L 40.195312 21.347656 C 39.863281 21.347656 39.707031 21.191406 39.707031 20.839844 L 39.707031 18.574219 L 38.867188 18.574219 L 38.867188 21.015625 C 38.867188 21.757812 39.21875 22.148438 39.941406 22.148438 Z M 42.792969 22.148438 "/>
<path style=" stroke:none;fill-rule:nonzero;fill:rgb(0%,0%,0%);fill-opacity:1;" d="M 28.671875 36.25 L 28.671875 35.976562 C 27.871094 35.859375 27.675781 35.742188 27.675781 35.15625 L 27.675781 29.765625 C 27.675781 29.160156 27.910156 28.984375 28.671875 28.925781 L 28.671875 28.652344 L 24.863281 28.652344 L 24.863281 28.925781 C 25.644531 28.984375 25.859375 29.121094 25.859375 29.765625 L 25.859375 32.050781 L 23.144531 32.050781 L 23.144531 29.765625 C 23.144531 29.121094 23.359375 28.984375 24.160156 28.925781 L 24.160156 28.652344 L 20.371094 28.652344 L 20.371094 28.925781 C 21.132812 28.984375 21.328125 29.140625 21.328125 29.765625 L 21.328125 35.15625 C 21.328125 35.742188 21.152344 35.859375 20.371094 35.976562 L 20.371094 36.25 L 24.160156 36.25 L 24.160156 35.976562 C 23.339844 35.878906 23.144531 35.742188 23.144531 35.15625 L 23.144531 32.578125 L 25.859375 32.578125 L 25.859375 35.15625 C 25.859375 35.722656 25.683594 35.878906 24.863281 35.976562 L 24.863281 36.25 Z M 28.671875 36.25 "/>
<path style=" stroke:none;fill-rule:nonzero;fill:rgb(0%,0%,0%);fill-opacity:1;" d="M 31.117188 36.796875 L 30.511719 36.796875 L 30.726562 36.015625 C 30.726562 35.996094 30.726562 35.957031 30.726562 35.957031 C 30.726562 35.917969 30.707031 35.898438 30.667969 35.898438 C 30.628906 35.898438 30.589844 35.917969 30.550781 35.976562 C 30.277344 36.386719 29.789062 36.738281 29.554688 36.796875 C 29.378906 36.835938 29.320312 36.894531 29.320312 36.992188 C 29.320312 36.992188 29.320312 37.011719 29.320312 37.03125 L 29.886719 37.03125 L 29.300781 39.257812 C 29.242188 39.492188 29.183594 39.726562 29.183594 39.804688 C 29.183594 40 29.320312 40.078125 29.515625 40.078125 C 29.90625 40.078125 30.140625 39.863281 30.589844 39.179688 L 30.492188 39.121094 C 30.121094 39.589844 30.003906 39.707031 29.886719 39.707031 C 29.828125 39.707031 29.769531 39.6875 29.769531 39.589844 C 29.769531 39.570312 29.789062 39.511719 29.789062 39.492188 L 30.433594 37.03125 L 31.078125 37.03125 Z M 31.117188 36.796875 "/>
<path style=" stroke:none;fill-rule:nonzero;fill:rgb(0%,0%,0%);fill-opacity:1;" d="M 35.625 38.359375 L 35.625 37.851562 L 31.464844 37.851562 L 31.464844 38.359375 Z M 35.625 38.359375 "/>
<path style=" stroke:none;fill-rule:nonzero;fill:rgb(0%,0%,0%);fill-opacity:1;" d="M 39.0625 40 L 39.0625 39.882812 C 38.496094 39.882812 38.359375 39.746094 38.359375 39.433594 L 38.359375 34.960938 L 38.28125 34.921875 L 36.953125 35.605469 L 36.953125 35.722656 L 37.148438 35.644531 C 37.285156 35.585938 37.402344 35.546875 37.480469 35.546875 C 37.636719 35.546875 37.714844 35.664062 37.714844 35.917969 L 37.714844 39.296875 C 37.714844 39.707031 37.558594 39.863281 36.992188 39.882812 L 36.992188 40 Z M 39.0625 40 "/>
<path style="fill:none;stroke-width:1;stroke-linecap:round;stroke-linejoin:round;stroke:rgb(0%,0%,0%);stroke-opacity:1;stroke-miterlimit:10;" d="M 340.20625 320 L 340.225 301.496875 " transform="matrix(1.25,0,0,1.25,-263.75,-288.75)"/>
<path style="fill:none;stroke-width:1;stroke-linecap:butt;stroke-linejoin:miter;stroke:rgb(0%,0%,0%);stroke-opacity:1;stroke-miterlimit:10;" d="M 340.23125 297.496875 L 340.225 301.496875 M 338.725 301.496875 L 340.23125 297.496875 L 341.725 301.496875 " transform="matrix(1.25,0,0,1.25,-263.75,-288.75)"/>
<path style="fill:none;stroke-width:1;stroke-linecap:round;stroke-linejoin:round;stroke:rgb(0%,0%,0%);stroke-opacity:1;stroke-miterlimit:10;" d="M 391.95625 320 L 391.975 306.9 " transform="matrix(1.25,0,0,1.25,-263.75,-288.75)"/>
<path style="fill:none;stroke-width:1;stroke-linecap:butt;stroke-linejoin:miter;stroke:rgb(0%,0%,0%);stroke-opacity:1;stroke-miterlimit:10;" d="M 391.984375 302.9 L 391.975 306.9 M 390.475 306.9 L 391.984375 302.9 L 393.475 306.903125 " transform="matrix(1.25,0,0,1.25,-263.75,-288.75)"/>
<path style=" stroke:none;fill-rule:nonzero;fill:rgb(40%,74.901961%,100%);fill-opacity:1;" d="M 1.25 256.25 L 36.25 256.25 L 36.25 236.25 L 1.25 236.25 Z M 1.25 256.25 "/>
<path style="fill:none;stroke-width:1;stroke-linecap:round;stroke-linejoin:round;stroke:rgb(0%,0%,0%);stroke-opacity:1;stroke-miterlimit:10;" d="M 212 420 L 240 420 L 240 436 L 212 436 Z M 212 420 " transform="matrix(1.25,0,0,1.25,-263.75,-288.75)"/>
<path style=" stroke:none;fill-rule:nonzero;fill:rgb(0%,0%,0%);fill-opacity:1;" d="M 22.605469 243.976562 L 22.449219 244.816406 L 20.984375 244.816406 C 21.265625 245.222656 21.414062 245.730469 21.414062 246.339844 C 21.414062 247.292969 21.128906 248.132812 20.574219 248.859375 C 20.011719 249.589844 19.25 249.953125 18.289062 249.953125 C 17.546875 249.953125 16.960938 249.738281 16.53125 249.308594 C 16.109375 248.867188 15.90625 248.292969 15.90625 247.589844 C 15.90625 246.550781 16.1875 245.671875 16.765625 244.953125 C 17.351562 244.226562 18.101562 243.859375 19.03125 243.859375 C 19.328125 243.859375 19.601562 243.898438 19.851562 243.976562 Z M 16.902344 247.570312 C 16.902344 248.039062 17.023438 248.425781 17.273438 248.722656 C 17.515625 249.023438 17.859375 249.171875 18.289062 249.171875 C 18.953125 249.171875 19.46875 248.859375 19.851562 248.234375 C 20.226562 247.597656 20.417969 246.953125 20.417969 246.300781 C 20.417969 245.753906 20.289062 245.339844 20.046875 245.050781 C 19.8125 244.765625 19.484375 244.621094 19.070312 244.621094 C 18.40625 244.621094 17.878906 244.921875 17.488281 245.519531 C 17.097656 246.121094 16.902344 246.804688 16.902344 247.570312 Z M 16.902344 247.570312 "/>
<path style="fill:none;stroke-width:1;stroke-linecap:round;stroke-linejoin:round;stroke:rgb(0%,0%,0%);stroke-opacity:1;stroke-miterlimit:10;" d="M 420 424 L 442.1 424 " transform="matrix(1.25,0,0,1.25,-263.75,-288.75)"/>
<path style="fill:none;stroke-width:1;stroke-linecap:butt;stroke-linejoin:miter;stroke:rgb(0%,0%,0%);stroke-opacity:1;stroke-miterlimit:10;" d="M 446.1 424 L 442.1 424 M 442.1 422.5 L 446.1 424 L 442.1 425.5 " transform="matrix(1.25,0,0,1.25,-263.75,-288.75)"/>
<path style="fill:none;stroke-width:1;stroke-linecap:round;stroke-linejoin:round;stroke:rgb(0%,0%,0%);stroke-opacity:1;stroke-miterlimit:10;" d="M 429 436 L 429 430 C 429 426.6875 431.6875 424 435 424 L 445.7875 424 " transform="matrix(1.25,0,0,1.25,-263.75,-288.75)"/>
<path style="fill:none;stroke-width:1;stroke-linecap:round;stroke-linejoin:round;stroke:rgb(0%,0%,0%);stroke-opacity:1;stroke-miterlimit:10;" d="M 340 435 L 362.1 435 " transform="matrix(1.25,0,0,1.25,-263.75,-288.75)"/>
<path style="fill:none;stroke-width:1;stroke-linecap:butt;stroke-linejoin:miter;stroke:rgb(0%,0%,0%);stroke-opacity:1;stroke-miterlimit:10;" d="M 366.1 435 L 362.1 435 M 362.1 433.5 L 366.1 435 L 362.1 436.5 " transform="matrix(1.25,0,0,1.25,-263.75,-288.75)"/>
<path style="fill:none;stroke-width:1;stroke-linecap:round;stroke-linejoin:round;stroke:rgb(0%,0%,0%);stroke-opacity:1;stroke-miterlimit:10;" d="M 340 435 L 346 435 C 349.3125 435 352 432.3125 352 429 L 352 424.9 " transform="matrix(1.25,0,0,1.25,-263.75,-288.75)"/>
<path style="fill:none;stroke-width:1;stroke-linecap:butt;stroke-linejoin:miter;stroke:rgb(0%,0%,0%);stroke-opacity:1;stroke-miterlimit:10;" d="M 352 420.9 L 352 424.9 M 350.5 424.9 L 352 420.9 L 353.5 424.9 " transform="matrix(1.25,0,0,1.25,-263.75,-288.75)"/>
<path style=" stroke:none;fill-rule:nonzero;fill:rgb(0%,0%,0%);fill-opacity:1;" d="M 58.125 237.050781 L 58.125 237.832031 L 59.804688 237.832031 L 59.804688 239.023438 L 60.546875 239.023438 L 60.546875 237.832031 L 62.695312 237.832031 L 62.695312 239.0625 L 63.476562 239.0625 L 63.476562 237.832031 L 65.644531 237.832031 L 65.644531 239.023438 L 66.40625 239.023438 L 66.40625 237.832031 L 68.125 237.832031 L 68.125 237.050781 L 66.40625 237.050781 L 66.40625 235.898438 L 65.644531 235.898438 L 65.644531 237.050781 L 63.476562 237.050781 L 63.476562 235.859375 L 62.695312 235.859375 L 62.695312 237.050781 L 60.546875 237.050781 L 60.546875 235.898438 L 59.804688 235.898438 L 59.804688 237.050781 Z M 67.753906 239.707031 L 58.496094 239.707031 L 58.496094 241.914062 L 59.277344 241.914062 L 59.277344 240.46875 L 62.695312 240.46875 L 62.695312 241.699219 L 59.882812 241.699219 L 59.882812 245.371094 L 60.664062 245.371094 L 60.664062 242.460938 L 62.695312 242.460938 L 62.695312 246.132812 L 63.515625 246.132812 L 63.515625 242.460938 L 65.625 242.460938 L 65.625 244.199219 C 65.625 244.472656 65.507812 244.609375 65.253906 244.609375 L 64.277344 244.570312 L 64.492188 245.351562 L 65.507812 245.351562 C 66.113281 245.351562 66.425781 245.019531 66.425781 244.355469 L 66.425781 241.699219 L 63.515625 241.699219 L 63.515625 240.46875 L 66.953125 240.46875 L 66.953125 241.875 L 67.753906 241.875 Z M 67.753906 239.707031 "/>
<path style=" stroke:none;fill-rule:nonzero;fill:rgb(0%,0%,0%);fill-opacity:1;" d="M 71.953125 236.796875 L 71.953125 240.3125 L 72.929688 240.3125 L 73.261719 241.269531 L 71.523438 241.269531 L 71.523438 241.953125 L 72.636719 241.953125 C 72.519531 242.8125 72.363281 243.496094 72.167969 244.003906 C 71.953125 244.550781 71.621094 245.039062 71.171875 245.488281 L 71.660156 246.132812 C 72.1875 245.605469 72.578125 245.019531 72.851562 244.355469 C 72.949219 244.101562 73.027344 243.828125 73.105469 243.496094 L 74.492188 243.496094 C 74.472656 244.277344 74.433594 244.765625 74.375 244.980469 C 74.316406 245.195312 74.121094 245.292969 73.828125 245.3125 L 73.144531 245.3125 L 73.339844 246.015625 L 74.042969 246.015625 C 74.492188 245.996094 74.824219 245.839844 75 245.507812 C 75.175781 245.195312 75.273438 244.296875 75.273438 242.832031 L 73.242188 242.832031 C 73.28125 242.558594 73.320312 242.285156 73.378906 241.953125 L 75.625 241.953125 L 75.625 241.269531 L 74.023438 241.269531 L 73.691406 240.3125 L 75.136719 240.3125 L 75.585938 240.859375 C 75.722656 240.664062 75.878906 240.429688 76.035156 240.175781 C 76.289062 241.347656 76.640625 242.382812 77.070312 243.261719 C 76.640625 244.121094 76.074219 244.824219 75.371094 245.390625 L 75.800781 246.09375 C 76.484375 245.546875 77.050781 244.863281 77.5 244.0625 C 77.96875 244.882812 78.515625 245.527344 79.140625 246.015625 L 79.609375 245.332031 C 78.925781 244.863281 78.359375 244.160156 77.871094 243.28125 C 78.4375 242.011719 78.730469 240.449219 78.789062 238.613281 L 79.433594 238.613281 L 79.433594 237.851562 L 76.992188 237.851562 C 77.148438 237.265625 77.285156 236.621094 77.382812 235.9375 L 76.640625 235.800781 C 76.386719 237.5 75.957031 238.886719 75.3125 239.941406 L 75.3125 236.796875 L 73.828125 236.796875 C 73.945312 236.503906 74.042969 236.210938 74.101562 235.898438 L 73.300781 235.78125 C 73.242188 236.132812 73.164062 236.464844 73.046875 236.796875 Z M 76.484375 239.277344 C 76.582031 239.0625 76.660156 238.828125 76.757812 238.613281 L 78.046875 238.613281 C 78.027344 240.058594 77.8125 241.328125 77.441406 242.402344 C 77.050781 241.503906 76.738281 240.46875 76.484375 239.277344 Z M 74.609375 239.707031 L 72.65625 239.707031 L 72.65625 238.886719 L 74.609375 238.886719 Z M 72.65625 238.28125 L 72.65625 237.402344 L 74.609375 237.402344 L 74.609375 238.28125 Z M 69.84375 236.015625 L 69.316406 236.523438 C 70.058594 237.070312 70.625 237.597656 71.054688 238.085938 L 71.582031 237.578125 C 71.09375 237.050781 70.527344 236.542969 69.84375 236.015625 Z M 69.6875 238.75 L 69.140625 239.277344 C 69.824219 239.84375 70.351562 240.371094 70.761719 240.898438 L 71.289062 240.351562 C 70.859375 239.804688 70.3125 239.277344 69.6875 238.75 Z M 70.703125 242.089844 C 70.292969 243.320312 69.84375 244.53125 69.296875 245.722656 L 70.019531 246.015625 C 70.507812 244.882812 70.976562 243.652344 71.386719 242.34375 Z M 70.703125 242.089844 "/>
<path style=" stroke:none;fill-rule:nonzero;fill:rgb(0%,0%,0%);fill-opacity:1;" d="M 83.457031 239.082031 L 83.457031 239.863281 L 86.679688 239.863281 L 86.679688 241.601562 L 84.21875 241.601562 L 84.21875 246.132812 L 85.019531 246.132812 L 85.019531 245.507812 L 89.238281 245.507812 L 89.238281 246.113281 L 90.039062 246.113281 L 90.039062 241.601562 L 87.5 241.601562 L 87.5 239.863281 L 90.742188 239.863281 L 90.742188 239.082031 L 87.5 239.082031 L 87.5 237.207031 C 88.535156 237.070312 89.433594 236.855469 90.214844 236.582031 L 89.824219 235.878906 C 88.203125 236.425781 86.152344 236.699219 83.710938 236.699219 L 83.945312 237.441406 C 84.921875 237.441406 85.820312 237.402344 86.679688 237.324219 L 86.679688 239.082031 Z M 85.019531 244.746094 L 85.019531 242.363281 L 89.238281 242.363281 L 89.238281 244.746094 Z M 81.425781 235.957031 L 80.878906 236.503906 C 81.679688 237.03125 82.324219 237.539062 82.792969 238.007812 L 83.339844 237.460938 C 82.832031 236.953125 82.1875 236.464844 81.425781 235.957031 Z M 81.171875 238.652344 L 80.605469 239.199219 C 81.425781 239.785156 82.070312 240.351562 82.539062 240.878906 L 83.105469 240.3125 C 82.578125 239.765625 81.933594 239.199219 81.171875 238.652344 Z M 82.5 241.640625 C 82.03125 243.007812 81.445312 244.335938 80.800781 245.644531 L 81.601562 245.996094 C 82.1875 244.726562 82.734375 243.359375 83.222656 241.933594 Z M 82.5 241.640625 "/>
<path style=" stroke:none;fill-rule:nonzero;fill:rgb(0%,0%,0%);fill-opacity:1;" d="M 93.632812 243.632812 C 94.707031 242.949219 95.722656 242.148438 96.679688 241.230469 L 96.679688 242.96875 C 96.679688 243.339844 96.523438 243.515625 96.210938 243.515625 C 95.878906 243.515625 95.566406 243.496094 95.273438 243.496094 L 95.488281 244.238281 L 96.503906 244.238281 C 97.109375 244.238281 97.421875 243.90625 97.421875 243.261719 L 97.421875 241.367188 C 98.105469 241.894531 98.945312 242.617188 99.921875 243.574219 L 100.390625 242.871094 C 99.375 241.992188 98.398438 241.230469 97.421875 240.546875 L 97.421875 238.828125 C 98.535156 238.222656 99.53125 237.617188 100.429688 236.992188 L 100.429688 236.230469 L 93.457031 236.230469 L 93.457031 236.992188 L 99.21875 236.992188 C 98.652344 237.363281 97.8125 237.832031 96.679688 238.378906 L 96.679688 240.3125 C 95.605469 241.328125 94.511719 242.167969 93.339844 242.832031 Z M 100.625 238.28125 L 100.625 244.765625 L 93.125 244.765625 L 93.125 238.28125 L 92.34375 238.28125 L 92.34375 246.132812 L 93.125 246.132812 L 93.125 245.507812 L 100.625 245.507812 L 100.625 246.152344 L 101.40625 246.152344 L 101.40625 238.28125 Z M 94.335938 238.632812 L 93.75 239.003906 C 94.394531 239.628906 94.921875 240.175781 95.3125 240.703125 L 95.9375 240.273438 C 95.566406 239.804688 95.039062 239.257812 94.335938 238.632812 Z M 99.453125 238.554688 C 99.042969 239.238281 98.515625 239.84375 97.929688 240.332031 L 98.515625 240.742188 C 99.121094 240.214844 99.667969 239.589844 100.117188 238.867188 Z M 99.453125 238.554688 "/>
<path style=" stroke:none;fill-rule:nonzero;fill:rgb(0%,0%,0%);fill-opacity:1;" d="M 109.902344 238.300781 L 111.5625 238.300781 C 111.523438 239.824219 111.289062 241.152344 110.839844 242.285156 C 110.390625 241.347656 110.039062 240.214844 109.765625 238.886719 Z M 110.46875 243.105469 C 109.960938 244.0625 109.277344 244.824219 108.398438 245.429688 L 108.808594 246.113281 C 109.648438 245.507812 110.351562 244.746094 110.898438 243.847656 C 111.445312 244.804688 112.128906 245.566406 112.910156 246.132812 L 113.359375 245.46875 C 112.539062 244.902344 111.855469 244.140625 111.269531 243.125 C 111.914062 241.796875 112.246094 240.175781 112.304688 238.300781 L 113.046875 238.300781 L 113.046875 237.539062 L 110.078125 237.539062 C 110.15625 237.03125 110.253906 236.503906 110.3125 235.917969 L 109.53125 235.78125 C 109.296875 237.929688 108.847656 239.628906 108.183594 240.878906 L 108.691406 241.503906 C 108.925781 241.09375 109.160156 240.644531 109.355469 240.117188 C 109.667969 241.25 110.039062 242.226562 110.46875 243.105469 Z M 105.136719 241.035156 C 105.058594 241.269531 104.980469 241.503906 104.882812 241.757812 L 103.222656 241.757812 L 103.222656 242.460938 L 104.550781 242.460938 C 104.335938 242.910156 104.082031 243.359375 103.789062 243.867188 C 104.335938 244.0625 104.84375 244.277344 105.351562 244.492188 C 104.6875 244.863281 103.886719 245.175781 102.96875 245.410156 L 103.359375 246.09375 C 104.472656 245.78125 105.410156 245.351562 106.152344 244.84375 C 106.816406 245.136719 107.402344 245.429688 107.890625 245.722656 L 108.320312 245.097656 C 107.832031 244.824219 107.324219 244.589844 106.777344 244.335938 C 107.363281 243.789062 107.773438 243.164062 108.027344 242.421875 L 108.027344 241.757812 L 105.664062 241.757812 C 105.742188 241.542969 105.820312 241.347656 105.898438 241.132812 Z M 106.035156 244.023438 C 105.625 243.847656 105.195312 243.691406 104.746094 243.535156 C 104.980469 243.203125 105.175781 242.832031 105.351562 242.460938 L 107.285156 242.460938 C 107.03125 243.046875 106.601562 243.574219 106.035156 244.023438 Z M 104.121094 236.015625 L 103.476562 236.230469 C 103.75 236.660156 104.003906 237.148438 104.238281 237.695312 L 104.824219 237.421875 C 104.609375 236.933594 104.394531 236.464844 104.121094 236.015625 Z M 107.539062 235.996094 C 107.34375 236.464844 107.050781 236.933594 106.679688 237.421875 L 107.265625 237.714844 C 107.617188 237.246094 107.890625 236.757812 108.125 236.25 Z M 103.261719 237.96875 L 103.261719 238.671875 L 104.84375 238.671875 C 104.511719 239.296875 103.90625 239.863281 103.046875 240.371094 L 103.4375 241.015625 C 104.394531 240.371094 105.078125 239.609375 105.449219 238.710938 L 105.449219 240.839844 L 106.210938 240.839844 L 106.210938 239.394531 C 106.601562 239.648438 107.089844 240.019531 107.65625 240.46875 L 108.066406 239.84375 C 107.441406 239.453125 106.816406 239.101562 106.210938 238.808594 L 106.210938 238.671875 L 108.242188 238.671875 L 108.242188 237.96875 L 106.210938 237.96875 L 106.210938 235.820312 L 105.449219 235.820312 L 105.449219 237.96875 Z M 103.261719 237.96875 "/>
<path style=" stroke:none;fill-rule:nonzero;fill:rgb(0%,0%,0%);fill-opacity:1;" d="M 118.300781 237.753906 L 116.484375 237.753906 C 116.699219 237.1875 116.875 236.582031 117.011719 235.917969 L 116.210938 235.800781 C 116.09375 236.464844 115.9375 237.128906 115.722656 237.753906 L 114.667969 237.753906 L 114.667969 245.761719 L 115.46875 245.761719 L 115.46875 244.785156 L 117.5 244.785156 L 117.5 245.429688 L 118.300781 245.429688 Z M 115.46875 244.023438 L 115.46875 241.5625 L 117.5 241.5625 L 117.5 244.023438 Z M 115.46875 240.839844 L 115.46875 238.515625 L 117.5 238.515625 L 117.5 240.839844 Z M 120.253906 240.371094 L 119.609375 240.761719 C 120.371094 241.699219 120.996094 242.519531 121.464844 243.261719 L 122.089844 242.8125 C 121.679688 242.128906 121.054688 241.289062 120.253906 240.371094 Z M 124.101562 237.773438 L 120.527344 237.773438 C 120.722656 237.1875 120.878906 236.542969 121.015625 235.878906 L 120.214844 235.78125 C 119.921875 237.382812 119.394531 238.730469 118.613281 239.84375 L 119.101562 240.46875 C 119.53125 239.902344 119.902344 239.257812 120.214844 238.554688 L 123.320312 238.554688 C 123.28125 241.796875 123.242188 243.730469 123.183594 244.375 C 123.085938 244.941406 122.792969 245.234375 122.246094 245.234375 C 121.914062 245.234375 121.503906 245.234375 121.035156 245.195312 L 121.210938 245.9375 C 121.757812 245.976562 122.148438 245.996094 122.363281 245.996094 C 123.320312 245.996094 123.828125 245.546875 123.945312 244.6875 C 124.0625 243.828125 124.101562 241.503906 124.101562 237.773438 Z M 124.101562 237.773438 "/>
<path style=" stroke:none;fill-rule:nonzero;fill:rgb(0%,0%,0%);fill-opacity:1;" d="M 74.082031 252.089844 C 72.773438 253.515625 71.132812 254.707031 69.160156 255.664062 L 69.550781 256.367188 C 71.542969 255.371094 73.144531 254.179688 74.375 252.832031 C 75.703125 254.257812 77.285156 255.410156 79.160156 256.308594 L 79.570312 255.585938 C 77.714844 254.726562 76.09375 253.574219 74.667969 252.089844 Z M 71.230469 255.644531 L 71.230469 256.425781 L 73.964844 256.425781 L 73.964844 258.378906 L 70.703125 258.378906 L 70.703125 259.160156 L 73.964844 259.160156 L 73.964844 261.230469 L 69.6875 261.230469 L 69.6875 262.03125 L 79.0625 262.03125 L 79.0625 261.230469 L 74.785156 261.230469 L 74.785156 259.160156 L 78.046875 259.160156 L 78.046875 258.378906 L 74.785156 258.378906 L 74.785156 256.425781 L 77.519531 256.425781 L 77.519531 255.644531 Z M 71.230469 255.644531 "/>
<path style=" stroke:none;fill-rule:nonzero;fill:rgb(0%,0%,0%);fill-opacity:1;" d="M 81.445312 252.246094 L 80.898438 252.773438 C 81.679688 253.417969 82.324219 254.003906 82.773438 254.550781 L 83.359375 253.984375 C 82.832031 253.398438 82.1875 252.832031 81.445312 252.246094 Z M 87.96875 262.167969 L 90.546875 262.167969 L 90.742188 261.367188 C 90.449219 261.386719 90.019531 261.386719 89.492188 261.40625 C 88.925781 261.425781 88.398438 261.425781 87.871094 261.425781 C 86.992188 261.425781 86.269531 261.425781 85.683594 261.40625 C 85.019531 261.386719 84.53125 261.289062 84.179688 261.132812 C 83.867188 260.996094 83.59375 260.761719 83.320312 260.429688 C 83.222656 260.332031 83.144531 260.234375 83.046875 260.175781 L 83.046875 255.957031 L 80.683594 255.957031 L 80.683594 256.699219 L 82.304688 256.699219 L 82.304688 260.117188 C 81.835938 260.332031 81.308594 260.898438 80.703125 261.855469 L 81.308594 262.402344 C 81.933594 261.367188 82.382812 260.839844 82.636719 260.839844 C 82.773438 260.839844 82.929688 260.9375 83.066406 261.132812 C 83.417969 261.523438 83.808594 261.816406 84.257812 261.953125 C 84.707031 262.070312 85.273438 262.148438 85.996094 262.148438 C 86.699219 262.167969 87.363281 262.167969 87.96875 262.167969 Z M 83.828125 253.222656 L 83.828125 253.964844 L 85.3125 253.964844 C 84.941406 254.765625 84.53125 255.449219 84.082031 255.976562 L 84.257812 256.71875 L 86.855469 256.71875 L 86.855469 258.066406 L 83.730469 258.066406 L 83.730469 258.828125 L 86.855469 258.828125 L 86.855469 260.917969 L 87.636719 260.917969 L 87.636719 258.828125 L 90.566406 258.828125 L 90.566406 258.066406 L 87.636719 258.066406 L 87.636719 256.71875 L 90.078125 256.71875 L 90.078125 255.976562 L 87.636719 255.976562 L 87.636719 254.648438 L 86.855469 254.648438 L 86.855469 255.976562 L 85.039062 255.976562 C 85.449219 255.390625 85.820312 254.726562 86.171875 253.964844 L 90.429688 253.964844 L 90.429688 253.222656 L 86.484375 253.222656 C 86.621094 252.871094 86.738281 252.539062 86.855469 252.167969 L 86.09375 251.972656 C 85.957031 252.402344 85.800781 252.832031 85.644531 253.222656 Z M 83.828125 253.222656 "/>
<path style=" stroke:none;fill-rule:nonzero;fill:rgb(0%,0%,0%);fill-opacity:1;" d="M 97.207031 253.964844 L 96.542969 254.277344 C 96.777344 254.6875 96.992188 255.136719 97.226562 255.625 L 95.507812 255.625 L 95.507812 256.40625 L 101.777344 256.40625 L 101.777344 255.625 L 99.960938 255.625 C 100.214844 255.175781 100.449219 254.667969 100.664062 254.101562 L 99.902344 253.828125 C 99.667969 254.472656 99.414062 255.058594 99.101562 255.625 L 98.007812 255.625 C 97.753906 255.019531 97.5 254.472656 97.207031 253.964844 Z M 98.691406 251.992188 L 97.851562 252.128906 C 97.96875 252.402344 98.105469 252.714844 98.242188 253.066406 L 95.761719 253.066406 L 95.761719 253.808594 L 101.582031 253.808594 L 101.582031 253.066406 L 99.0625 253.066406 C 98.925781 252.675781 98.808594 252.304688 98.691406 251.992188 Z M 93.066406 262.265625 C 93.730469 262.265625 94.082031 261.953125 94.082031 261.289062 L 94.082031 257.96875 C 94.394531 257.8125 94.707031 257.65625 95.019531 257.5 L 95.019531 256.679688 C 94.707031 256.835938 94.394531 256.992188 94.082031 257.148438 L 94.082031 255 L 95 255 L 95 254.21875 L 94.082031 254.21875 L 94.082031 252.089844 L 93.242188 252.089844 L 93.242188 254.21875 L 91.875 254.21875 L 91.875 255 L 93.242188 255 L 93.242188 257.5 C 92.714844 257.714844 92.1875 257.871094 91.660156 258.007812 L 91.875 258.828125 C 92.324219 258.671875 92.792969 258.496094 93.242188 258.320312 L 93.242188 261.09375 C 93.242188 261.386719 93.085938 261.523438 92.792969 261.523438 C 92.519531 261.523438 92.226562 261.503906 91.933594 261.484375 L 92.089844 262.265625 Z M 97.695312 256.71875 C 97.578125 257.03125 97.441406 257.34375 97.285156 257.675781 L 95.351562 257.675781 L 95.351562 258.476562 L 96.855469 258.476562 C 96.621094 258.90625 96.367188 259.335938 96.054688 259.804688 C 96.835938 260.117188 97.578125 260.410156 98.261719 260.742188 C 97.558594 261.132812 96.542969 261.445312 95.234375 261.679688 L 95.566406 262.421875 C 97.1875 262.109375 98.359375 261.660156 99.101562 261.132812 C 100 261.5625 100.78125 261.972656 101.445312 262.382812 L 101.894531 261.738281 C 101.191406 261.328125 100.449219 260.9375 99.667969 260.585938 C 100.195312 260.019531 100.546875 259.296875 100.722656 258.476562 L 101.953125 258.476562 L 101.953125 257.675781 L 98.105469 257.675781 C 98.242188 257.402344 98.359375 257.109375 98.476562 256.796875 Z M 99.960938 258.476562 C 99.785156 259.199219 99.433594 259.785156 98.925781 260.253906 C 98.320312 259.980469 97.695312 259.726562 97.050781 259.472656 C 97.265625 259.160156 97.480469 258.828125 97.675781 258.476562 Z M 99.960938 258.476562 "/>
<path style=" stroke:none;fill-rule:nonzero;fill:rgb(0%,0%,0%);fill-opacity:1;" d="M 106.152344 256.367188 L 106.152344 257.089844 L 112.246094 257.089844 L 112.246094 256.367188 Z M 105.351562 258.203125 L 105.351562 258.945312 L 107.8125 258.945312 C 107.03125 260.214844 106.367188 260.996094 105.878906 261.289062 C 105.820312 261.308594 105.78125 261.347656 105.703125 261.367188 L 105.878906 262.050781 C 108.007812 261.914062 109.960938 261.71875 111.738281 261.484375 C 111.972656 261.757812 112.167969 262.050781 112.363281 262.34375 L 113.007812 261.894531 C 112.519531 261.171875 111.796875 260.3125 110.878906 259.335938 L 110.273438 259.707031 C 110.605469 260.097656 110.9375 260.46875 111.25 260.839844 C 109.804688 261.054688 108.339844 261.210938 106.855469 261.308594 C 107.382812 260.839844 107.988281 260.039062 108.671875 258.945312 L 112.988281 258.945312 L 112.988281 258.203125 Z M 111.621094 253.261719 L 111.621094 254.570312 L 105 254.570312 L 105 253.261719 Z M 105 255.292969 L 112.402344 255.292969 L 112.402344 252.5 L 104.21875 252.5 L 104.21875 256.230469 C 104.199219 258.496094 103.808594 260.332031 103.027344 261.757812 L 103.613281 262.304688 C 104.53125 260.605469 105 258.574219 105 256.230469 Z M 105 255.292969 "/>
<path style=" stroke:none;fill-rule:nonzero;fill:rgb(0%,0%,0%);fill-opacity:1;" d="M 323.945312 240.996094 L 323.398438 241.523438 C 324.179688 242.167969 324.824219 242.753906 325.273438 243.300781 L 325.859375 242.734375 C 325.332031 242.148438 324.6875 241.582031 323.945312 240.996094 Z M 330.46875 250.917969 L 333.046875 250.917969 L 333.242188 250.117188 C 332.949219 250.136719 332.519531 250.136719 331.992188 250.15625 C 331.425781 250.175781 330.898438 250.175781 330.371094 250.175781 C 329.492188 250.175781 328.769531 250.175781 328.183594 250.15625 C 327.519531 250.136719 327.03125 250.039062 326.679688 249.882812 C 326.367188 249.746094 326.09375 249.511719 325.820312 249.179688 C 325.722656 249.082031 325.644531 248.984375 325.546875 248.925781 L 325.546875 244.707031 L 323.183594 244.707031 L 323.183594 245.449219 L 324.804688 245.449219 L 324.804688 248.867188 C 324.335938 249.082031 323.808594 249.648438 323.203125 250.605469 L 323.808594 251.152344 C 324.433594 250.117188 324.882812 249.589844 325.136719 249.589844 C 325.273438 249.589844 325.429688 249.6875 325.566406 249.882812 C 325.917969 250.273438 326.308594 250.566406 326.757812 250.703125 C 327.207031 250.820312 327.773438 250.898438 328.496094 250.898438 C 329.199219 250.917969 329.863281 250.917969 330.46875 250.917969 Z M 326.328125 241.972656 L 326.328125 242.714844 L 327.8125 242.714844 C 327.441406 243.515625 327.03125 244.199219 326.582031 244.726562 L 326.757812 245.46875 L 329.355469 245.46875 L 329.355469 246.816406 L 326.230469 246.816406 L 326.230469 247.578125 L 329.355469 247.578125 L 329.355469 249.667969 L 330.136719 249.667969 L 330.136719 247.578125 L 333.066406 247.578125 L 333.066406 246.816406 L 330.136719 246.816406 L 330.136719 245.46875 L 332.578125 245.46875 L 332.578125 244.726562 L 330.136719 244.726562 L 330.136719 243.398438 L 329.355469 243.398438 L 329.355469 244.726562 L 327.539062 244.726562 C 327.949219 244.140625 328.320312 243.476562 328.671875 242.714844 L 332.929688 242.714844 L 332.929688 241.972656 L 328.984375 241.972656 C 329.121094 241.621094 329.238281 241.289062 329.355469 240.917969 L 328.59375 240.722656 C 328.457031 241.152344 328.300781 241.582031 328.144531 241.972656 Z M 326.328125 241.972656 "/>
<path style=" stroke:none;fill-rule:nonzero;fill:rgb(0%,0%,0%);fill-opacity:1;" d="M 338.378906 248.867188 C 337.246094 249.296875 335.917969 249.628906 334.375 249.882812 L 334.472656 250.664062 C 335.9375 250.390625 337.246094 250.058594 338.378906 249.648438 Z M 336.308594 240.78125 C 335.859375 242.109375 335.3125 243.300781 334.6875 244.335938 C 334.589844 244.472656 334.472656 244.570312 334.355469 244.628906 L 334.550781 245.371094 C 335.195312 245.292969 335.839844 245.195312 336.484375 245.097656 C 335.859375 246.152344 335.332031 246.894531 334.902344 247.324219 C 334.804688 247.421875 334.667969 247.5 334.53125 247.578125 L 334.746094 248.300781 C 335.859375 248.164062 337.03125 247.871094 338.242188 247.460938 L 338.242188 246.738281 C 337.421875 247.011719 336.582031 247.246094 335.722656 247.421875 C 336.40625 246.601562 337.265625 245.253906 338.28125 243.359375 L 337.578125 243.085938 C 337.34375 243.515625 337.128906 243.945312 336.914062 244.335938 C 336.367188 244.433594 335.839844 244.511719 335.3125 244.570312 C 335.898438 243.691406 336.484375 242.539062 337.050781 241.074219 Z M 338.242188 242.207031 L 338.242188 242.988281 L 340.9375 242.988281 L 340.9375 244.648438 L 338.613281 244.648438 L 338.613281 245.449219 L 344.101562 245.449219 L 344.101562 244.648438 L 341.757812 244.648438 L 341.757812 242.988281 L 344.433594 242.988281 L 344.433594 242.207031 L 341.757812 242.207031 L 341.757812 240.839844 L 340.9375 240.839844 L 340.9375 242.207031 Z M 343.789062 246.5625 L 338.984375 246.5625 L 338.984375 251.09375 L 339.785156 251.09375 L 339.785156 250.546875 L 342.988281 250.546875 L 342.988281 251.09375 L 343.789062 251.09375 Z M 339.785156 249.785156 L 339.785156 247.324219 L 342.988281 247.324219 L 342.988281 249.785156 Z M 339.785156 249.785156 "/>
<path style=" stroke:none;fill-rule:nonzero;fill:rgb(0%,0%,0%);fill-opacity:1;" d="M 213.125 242.34375 L 220.078125 242.34375 L 220.078125 241.640625 L 213.496094 241.640625 C 213.613281 241.386719 213.710938 241.113281 213.808594 240.839844 L 213.007812 240.703125 C 212.578125 241.972656 211.796875 243.027344 210.644531 243.90625 L 211.132812 244.53125 C 211.621094 244.160156 212.050781 243.75 212.421875 243.320312 L 212.421875 246.679688 L 213.867188 246.679688 C 213.261719 247.5 212.324219 248.164062 211.015625 248.671875 L 211.445312 249.355469 C 212.03125 249.082031 212.558594 248.789062 213.007812 248.476562 C 213.613281 249.003906 214.316406 249.453125 215.078125 249.824219 C 213.90625 250.15625 212.519531 250.351562 210.898438 250.429688 L 211.210938 251.132812 C 213.105469 251.015625 214.707031 250.722656 216.035156 250.234375 C 217.304688 250.722656 218.789062 251.015625 220.429688 251.09375 L 220.625 250.351562 C 219.296875 250.3125 218.085938 250.117188 216.992188 249.804688 C 217.929688 249.335938 218.671875 248.75 219.21875 248.027344 L 219.21875 247.441406 L 214.179688 247.441406 C 214.394531 247.207031 214.570312 246.953125 214.746094 246.679688 L 219.199219 246.679688 L 219.199219 243.125 L 212.578125 243.125 C 212.773438 242.871094 212.949219 242.617188 213.125 242.34375 Z M 216.035156 249.492188 C 215.136719 249.140625 214.316406 248.671875 213.59375 248.105469 L 218.222656 248.105469 C 217.675781 248.652344 216.933594 249.121094 216.035156 249.492188 Z M 218.417969 246.035156 L 213.222656 246.035156 L 213.222656 245.195312 L 218.417969 245.195312 Z M 213.222656 244.589844 L 213.222656 243.769531 L 218.417969 243.769531 L 218.417969 244.589844 Z M 213.222656 244.589844 "/>
<path style=" stroke:none;fill-rule:nonzero;fill:rgb(0%,0%,0%);fill-opacity:1;" d="M 223.007812 242.988281 L 224.570312 242.988281 L 224.570312 244.433594 L 221.855469 244.433594 L 221.855469 245.195312 L 224.570312 245.195312 L 224.570312 246.386719 L 222.363281 246.386719 L 222.363281 250.429688 L 223.144531 250.429688 L 223.144531 247.128906 L 224.570312 247.128906 L 224.570312 251.132812 L 225.390625 251.132812 L 225.390625 247.128906 L 226.816406 247.128906 L 226.816406 249.179688 C 226.816406 249.472656 226.640625 249.609375 226.328125 249.609375 L 225.78125 249.589844 L 225.976562 250.351562 L 226.5625 250.351562 C 227.246094 250.351562 227.578125 250.019531 227.578125 249.355469 L 227.578125 246.386719 L 225.390625 246.386719 L 225.390625 245.195312 L 227.8125 245.195312 L 227.8125 244.433594 L 225.390625 244.433594 L 225.390625 242.988281 L 227.5 242.988281 L 227.5 242.246094 L 225.390625 242.246094 L 225.390625 240.839844 L 224.570312 240.839844 L 224.570312 242.246094 L 223.28125 242.246094 C 223.359375 241.933594 223.4375 241.601562 223.496094 241.25 L 222.714844 241.132812 C 222.558594 242.1875 222.207031 243.027344 221.640625 243.632812 L 222.304688 244.101562 C 222.558594 243.808594 222.792969 243.4375 223.007812 242.988281 Z M 228.476562 241.855469 L 228.476562 248.808594 L 229.277344 248.808594 L 229.277344 241.855469 Z M 230.546875 251.015625 C 231.230469 251.015625 231.582031 250.664062 231.582031 249.960938 L 231.582031 240.839844 L 230.78125 240.839844 L 230.78125 249.765625 C 230.78125 250.117188 230.605469 250.3125 230.253906 250.3125 C 229.765625 250.3125 229.257812 250.273438 228.710938 250.253906 L 228.886719 251.015625 Z M 230.546875 251.015625 "/>
</g>
</svg>
