<?xml version="1.0" encoding="UTF-8"?>
<svg xmlns="http://www.w3.org/2000/svg" xmlns:xlink="http://www.w3.org/1999/xlink" width="258pt" height="81pt" viewBox="0 0 258 81" version="1.1">
<g id="surface1">
<path style="fill-rule:nonzero;fill:rgb(69.803922%,85.098039%,100%);fill-opacity:1;stroke-width:1;stroke-linecap:round;stroke-linejoin:round;stroke:rgb(0%,0%,0%);stroke-opacity:1;stroke-miterlimit:10;" d="M 155.6375 702.5 L 179.6375 702.5 L 179.6375 726.5 L 155.6375 726.5 Z M 155.6375 702.5 " transform="matrix(1.25,0,0,1.25,-127.5,-877.5)"/>
<path style=" stroke:none;fill-rule:nonzero;fill:rgb(0%,0%,0%);fill-opacity:1;" d="M 80.40625 12.890625 C 80.25 12.109375 80.113281 11.914062 79.839844 11.914062 C 79.566406 11.914062 79.195312 11.992188 78.511719 12.246094 L 78.394531 12.285156 L 78.433594 12.460938 L 78.628906 12.402344 C 78.84375 12.34375 78.980469 12.324219 79.058594 12.324219 C 79.351562 12.324219 79.429688 12.421875 79.585938 13.085938 L 79.898438 14.492188 L 78.980469 15.800781 C 78.746094 16.132812 78.53125 16.347656 78.394531 16.347656 C 78.335938 16.347656 78.21875 16.308594 78.101562 16.25 C 77.964844 16.171875 77.847656 16.113281 77.75 16.113281 C 77.535156 16.113281 77.359375 16.308594 77.359375 16.523438 C 77.359375 16.816406 77.574219 16.992188 77.925781 16.992188 C 78.277344 16.992188 78.511719 16.894531 79 16.230469 L 79.996094 14.902344 L 80.308594 16.230469 C 80.445312 16.796875 80.621094 16.992188 80.972656 16.992188 C 81.402344 16.992188 81.695312 16.738281 82.359375 15.722656 L 82.183594 15.605469 C 82.085938 15.722656 82.046875 15.800781 81.949219 15.9375 C 81.695312 16.269531 81.558594 16.386719 81.421875 16.386719 C 81.265625 16.386719 81.167969 16.230469 81.089844 15.917969 L 80.71875 14.414062 C 80.660156 14.140625 80.621094 13.984375 80.621094 13.90625 C 81.128906 13.046875 81.539062 12.539062 81.734375 12.539062 C 82.007812 12.539062 82.105469 12.734375 82.320312 12.734375 C 82.535156 12.734375 82.691406 12.558594 82.691406 12.324219 C 82.691406 12.089844 82.515625 11.914062 82.242188 11.914062 C 81.753906 11.914062 81.324219 12.324219 80.542969 13.515625 Z M 80.40625 12.890625 "/>
<path style=" stroke:none;fill-rule:nonzero;fill:rgb(0%,0%,0%);fill-opacity:1;" d="M 86.222656 20.839844 L 86.125 20.800781 C 85.871094 21.230469 85.714844 21.308594 85.402344 21.308594 L 83.644531 21.308594 L 84.875 19.980469 C 85.539062 19.277344 85.832031 18.710938 85.832031 18.125 C 85.832031 17.382812 85.304688 16.796875 84.445312 16.796875 C 83.527344 16.796875 83.058594 17.421875 82.902344 18.300781 L 83.058594 18.339844 C 83.351562 17.597656 83.605469 17.363281 84.152344 17.363281 C 84.796875 17.363281 85.1875 17.734375 85.1875 18.417969 C 85.1875 19.0625 84.933594 19.628906 84.210938 20.371094 L 82.882812 21.777344 L 82.882812 21.875 L 85.8125 21.875 Z M 86.222656 20.839844 "/>
<path style="fill:none;stroke-width:1;stroke-linecap:round;stroke-linejoin:round;stroke:rgb(0%,0%,0%);stroke-opacity:1;stroke-miterlimit:10;" d="M 155.6375 742.5 L 179.6375 742.5 L 179.6375 766.5 L 155.6375 766.5 Z M 155.6375 742.5 " transform="matrix(1.25,0,0,1.25,-127.5,-877.5)"/>
<path style=" stroke:none;fill-rule:nonzero;fill:rgb(0%,0%,0%);fill-opacity:1;" d="M 82.59375 68.046875 C 81.988281 68.808594 81.851562 68.945312 81.675781 68.945312 C 81.558594 68.945312 81.480469 68.867188 81.480469 68.75 C 81.480469 68.613281 81.675781 67.929688 81.851562 67.34375 C 82.203125 66.289062 82.398438 65.449219 82.398438 65.175781 C 82.398438 64.746094 82.183594 64.414062 81.675781 64.414062 C 80.972656 64.414062 80.09375 65.136719 79.078125 66.796875 L 80.445312 61.757812 L 80.367188 61.699219 C 79.703125 61.835938 79.273438 61.914062 78.589844 61.992188 L 78.589844 62.167969 L 78.902344 62.167969 C 79.097656 62.167969 79.371094 62.246094 79.371094 62.441406 C 79.371094 62.597656 79.3125 62.792969 79.214844 63.144531 L 77.574219 69.375 L 78.414062 69.375 C 78.863281 67.636719 79.039062 67.246094 79.488281 66.5625 C 80.074219 65.664062 80.796875 64.980469 81.207031 64.980469 C 81.460938 64.980469 81.519531 65.097656 81.519531 65.273438 C 81.519531 65.3125 81.480469 65.46875 81.441406 65.644531 L 80.816406 67.96875 C 80.679688 68.515625 80.601562 68.867188 80.601562 69.003906 C 80.601562 69.296875 80.796875 69.472656 81.089844 69.472656 C 81.675781 69.472656 82.046875 69.179688 82.730469 68.203125 Z M 82.59375 68.046875 "/>
<path style=" stroke:none;fill-rule:nonzero;fill:rgb(0%,0%,0%);fill-opacity:1;" d="M 86.539062 72.089844 L 86.441406 72.050781 C 86.1875 72.480469 86.03125 72.558594 85.71875 72.558594 L 83.960938 72.558594 L 85.191406 71.230469 C 85.855469 70.527344 86.148438 69.960938 86.148438 69.375 C 86.148438 68.632812 85.621094 68.046875 84.761719 68.046875 C 83.84375 68.046875 83.375 68.671875 83.21875 69.550781 L 83.375 69.589844 C 83.667969 68.847656 83.921875 68.613281 84.46875 68.613281 C 85.113281 68.613281 85.503906 68.984375 85.503906 69.667969 C 85.503906 70.3125 85.25 70.878906 84.527344 71.621094 L 83.199219 73.027344 L 83.199219 73.125 L 86.128906 73.125 Z M 86.539062 72.089844 "/>
<path style="fill:none;stroke-width:1;stroke-linecap:round;stroke-linejoin:round;stroke:rgb(0%,0%,0%);stroke-opacity:1;stroke-miterlimit:10;" d="M 167.6375 732.4 L 167.6375 742.5 " transform="matrix(1.25,0,0,1.25,-127.5,-877.5)"/>
<path style="fill:none;stroke-width:1;stroke-linecap:butt;stroke-linejoin:miter;stroke:rgb(0%,0%,0%);stroke-opacity:1;stroke-miterlimit:10;" d="M 167.6375 728.4 L 167.6375 732.4 M 166.1375 732.4 L 167.6375 728.4 L 169.1375 732.4 " transform="matrix(1.25,0,0,1.25,-127.5,-877.5)"/>
<path style="fill-rule:nonzero;fill:rgb(69.803922%,85.098039%,100%);fill-opacity:1;stroke-width:1;stroke-linecap:round;stroke-linejoin:round;stroke:rgb(0%,0%,0%);stroke-opacity:1;stroke-miterlimit:10;" d="M 208.775 702.5 L 232.775 702.5 L 232.775 726.5 L 208.775 726.5 Z M 208.775 702.5 " transform="matrix(1.25,0,0,1.25,-127.5,-877.5)"/>
<path style=" stroke:none;fill-rule:nonzero;fill:rgb(0%,0%,0%);fill-opacity:1;" d="M 146.828125 12.890625 C 146.671875 12.109375 146.535156 11.914062 146.261719 11.914062 C 145.988281 11.914062 145.617188 11.992188 144.933594 12.246094 L 144.816406 12.285156 L 144.855469 12.460938 L 145.050781 12.402344 C 145.265625 12.34375 145.402344 12.324219 145.480469 12.324219 C 145.773438 12.324219 145.851562 12.421875 146.007812 13.085938 L 146.320312 14.492188 L 145.402344 15.800781 C 145.167969 16.132812 144.953125 16.347656 144.816406 16.347656 C 144.757812 16.347656 144.640625 16.308594 144.523438 16.25 C 144.386719 16.171875 144.269531 16.113281 144.171875 16.113281 C 143.957031 16.113281 143.78125 16.308594 143.78125 16.523438 C 143.78125 16.816406 143.996094 16.992188 144.347656 16.992188 C 144.699219 16.992188 144.933594 16.894531 145.421875 16.230469 L 146.417969 14.902344 L 146.730469 16.230469 C 146.867188 16.796875 147.042969 16.992188 147.394531 16.992188 C 147.824219 16.992188 148.117188 16.738281 148.78125 15.722656 L 148.605469 15.605469 C 148.507812 15.722656 148.46875 15.800781 148.371094 15.9375 C 148.117188 16.269531 147.980469 16.386719 147.84375 16.386719 C 147.6875 16.386719 147.589844 16.230469 147.511719 15.917969 L 147.140625 14.414062 C 147.082031 14.140625 147.042969 13.984375 147.042969 13.90625 C 147.550781 13.046875 147.960938 12.539062 148.15625 12.539062 C 148.429688 12.539062 148.527344 12.734375 148.742188 12.734375 C 148.957031 12.734375 149.113281 12.558594 149.113281 12.324219 C 149.113281 12.089844 148.9375 11.914062 148.664062 11.914062 C 148.175781 11.914062 147.746094 12.324219 146.964844 13.515625 Z M 146.828125 12.890625 "/>
<path style=" stroke:none;fill-rule:nonzero;fill:rgb(0%,0%,0%);fill-opacity:1;" d="M 149.535156 18.046875 C 149.847656 17.5 150.199219 17.246094 150.667969 17.246094 C 151.15625 17.246094 151.46875 17.519531 151.46875 18.027344 C 151.46875 18.476562 151.234375 18.808594 150.863281 19.023438 C 150.707031 19.121094 150.511719 19.199219 150.238281 19.296875 L 150.238281 19.394531 C 150.667969 19.394531 150.824219 19.414062 151 19.472656 C 151.507812 19.628906 151.78125 20 151.78125 20.566406 C 151.78125 21.191406 151.351562 21.71875 150.804688 21.71875 C 150.589844 21.71875 150.433594 21.679688 150.160156 21.484375 C 149.945312 21.328125 149.828125 21.289062 149.691406 21.289062 C 149.535156 21.289062 149.398438 21.386719 149.398438 21.542969 C 149.398438 21.816406 149.691406 21.972656 150.238281 21.972656 C 150.902344 21.972656 151.605469 21.757812 151.976562 21.289062 C 152.191406 20.996094 152.328125 20.625 152.328125 20.234375 C 152.328125 19.84375 152.191406 19.492188 151.996094 19.257812 C 151.839844 19.101562 151.703125 19.003906 151.371094 18.867188 C 151.859375 18.574219 152.054688 18.183594 152.054688 17.832031 C 152.054688 17.226562 151.585938 16.796875 150.902344 16.796875 C 150.121094 16.796875 149.632812 17.304688 149.417969 18.027344 Z M 149.535156 18.046875 "/>
<path style="fill:none;stroke-width:1;stroke-linecap:round;stroke-linejoin:round;stroke:rgb(0%,0%,0%);stroke-opacity:1;stroke-miterlimit:10;" d="M 208.775 742.5 L 232.775 742.5 L 232.775 766.5 L 208.775 766.5 Z M 208.775 742.5 " transform="matrix(1.25,0,0,1.25,-127.5,-877.5)"/>
<path style=" stroke:none;fill-rule:nonzero;fill:rgb(0%,0%,0%);fill-opacity:1;" d="M 149.011719 68.046875 C 148.40625 68.808594 148.269531 68.945312 148.09375 68.945312 C 147.976562 68.945312 147.898438 68.867188 147.898438 68.75 C 147.898438 68.613281 148.09375 67.929688 148.269531 67.34375 C 148.621094 66.289062 148.816406 65.449219 148.816406 65.175781 C 148.816406 64.746094 148.601562 64.414062 148.09375 64.414062 C 147.390625 64.414062 146.511719 65.136719 145.496094 66.796875 L 146.863281 61.757812 L 146.785156 61.699219 C 146.121094 61.835938 145.691406 61.914062 145.007812 61.992188 L 145.007812 62.167969 L 145.320312 62.167969 C 145.515625 62.167969 145.789062 62.246094 145.789062 62.441406 C 145.789062 62.597656 145.730469 62.792969 145.632812 63.144531 L 143.992188 69.375 L 144.832031 69.375 C 145.28125 67.636719 145.457031 67.246094 145.90625 66.5625 C 146.492188 65.664062 147.214844 64.980469 147.625 64.980469 C 147.878906 64.980469 147.9375 65.097656 147.9375 65.273438 C 147.9375 65.3125 147.898438 65.46875 147.859375 65.644531 L 147.234375 67.96875 C 147.097656 68.515625 147.019531 68.867188 147.019531 69.003906 C 147.019531 69.296875 147.214844 69.472656 147.507812 69.472656 C 148.09375 69.472656 148.464844 69.179688 149.148438 68.203125 Z M 149.011719 68.046875 "/>
<path style=" stroke:none;fill-rule:nonzero;fill:rgb(0%,0%,0%);fill-opacity:1;" d="M 149.851562 69.296875 C 150.164062 68.75 150.515625 68.496094 150.984375 68.496094 C 151.472656 68.496094 151.785156 68.769531 151.785156 69.277344 C 151.785156 69.726562 151.550781 70.058594 151.179688 70.273438 C 151.023438 70.371094 150.828125 70.449219 150.554688 70.546875 L 150.554688 70.644531 C 150.984375 70.644531 151.140625 70.664062 151.316406 70.722656 C 151.824219 70.878906 152.097656 71.25 152.097656 71.816406 C 152.097656 72.441406 151.667969 72.96875 151.121094 72.96875 C 150.90625 72.96875 150.75 72.929688 150.476562 72.734375 C 150.261719 72.578125 150.144531 72.539062 150.007812 72.539062 C 149.851562 72.539062 149.714844 72.636719 149.714844 72.792969 C 149.714844 73.066406 150.007812 73.222656 150.554688 73.222656 C 151.21875 73.222656 151.921875 73.007812 152.292969 72.539062 C 152.507812 72.246094 152.644531 71.875 152.644531 71.484375 C 152.644531 71.09375 152.507812 70.742188 152.3125 70.507812 C 152.15625 70.351562 152.019531 70.253906 151.6875 70.117188 C 152.175781 69.824219 152.371094 69.433594 152.371094 69.082031 C 152.371094 68.476562 151.902344 68.046875 151.21875 68.046875 C 150.4375 68.046875 149.949219 68.554688 149.734375 69.277344 Z M 149.851562 69.296875 "/>
<path style="fill:none;stroke-width:1;stroke-linecap:round;stroke-linejoin:round;stroke:rgb(0%,0%,0%);stroke-opacity:1;stroke-miterlimit:10;" d="M 220.775 732.4 L 220.775 742.5 " transform="matrix(1.25,0,0,1.25,-127.5,-877.5)"/>
<path style="fill:none;stroke-width:1;stroke-linecap:butt;stroke-linejoin:miter;stroke:rgb(0%,0%,0%);stroke-opacity:1;stroke-miterlimit:10;" d="M 220.775 728.4 L 220.775 732.4 M 219.275 732.4 L 220.775 728.4 L 222.275 732.4 " transform="matrix(1.25,0,0,1.25,-127.5,-877.5)"/>
<path style="fill-rule:nonzero;fill:rgb(69.803922%,85.098039%,100%);fill-opacity:1;stroke-width:1;stroke-linecap:round;stroke-linejoin:round;stroke:rgb(0%,0%,0%);stroke-opacity:1;stroke-miterlimit:10;" d="M 282.775 702.5 L 306.775 702.5 L 306.775 726.5 L 282.775 726.5 Z M 282.775 702.5 " transform="matrix(1.25,0,0,1.25,-127.5,-877.5)"/>
<path style=" stroke:none;fill-rule:nonzero;fill:rgb(0%,0%,0%);fill-opacity:1;" d="M 239.117188 12.890625 C 238.960938 12.109375 238.824219 11.914062 238.550781 11.914062 C 238.277344 11.914062 237.90625 11.992188 237.222656 12.246094 L 237.105469 12.285156 L 237.144531 12.460938 L 237.339844 12.402344 C 237.554688 12.34375 237.691406 12.324219 237.769531 12.324219 C 238.0625 12.324219 238.140625 12.421875 238.296875 13.085938 L 238.609375 14.492188 L 237.691406 15.800781 C 237.457031 16.132812 237.242188 16.347656 237.105469 16.347656 C 237.046875 16.347656 236.929688 16.308594 236.8125 16.25 C 236.675781 16.171875 236.558594 16.113281 236.460938 16.113281 C 236.246094 16.113281 236.070312 16.308594 236.070312 16.523438 C 236.070312 16.816406 236.285156 16.992188 236.636719 16.992188 C 236.988281 16.992188 237.222656 16.894531 237.710938 16.230469 L 238.707031 14.902344 L 239.019531 16.230469 C 239.15625 16.796875 239.332031 16.992188 239.683594 16.992188 C 240.113281 16.992188 240.40625 16.738281 241.070312 15.722656 L 240.894531 15.605469 C 240.796875 15.722656 240.757812 15.800781 240.660156 15.9375 C 240.40625 16.269531 240.269531 16.386719 240.132812 16.386719 C 239.976562 16.386719 239.878906 16.230469 239.800781 15.917969 L 239.429688 14.414062 C 239.371094 14.140625 239.332031 13.984375 239.332031 13.90625 C 239.839844 13.046875 240.25 12.539062 240.445312 12.539062 C 240.71875 12.539062 240.816406 12.734375 241.03125 12.734375 C 241.246094 12.734375 241.402344 12.558594 241.402344 12.324219 C 241.402344 12.089844 241.226562 11.914062 240.953125 11.914062 C 240.464844 11.914062 240.035156 12.324219 239.253906 13.515625 Z M 239.117188 12.890625 "/>
<path style=" stroke:none;fill-rule:nonzero;fill:rgb(0%,0%,0%);fill-opacity:1;" d="M 246.125 16.972656 L 242.140625 16.972656 L 241.828125 18.144531 L 241.964844 18.164062 C 242.316406 17.363281 242.550781 17.246094 243.742188 17.246094 L 242.667969 21.191406 C 242.550781 21.601562 242.375 21.71875 241.867188 21.757812 L 241.867188 21.875 L 244.035156 21.875 L 244.035156 21.757812 L 243.761719 21.738281 C 243.449219 21.699219 243.371094 21.640625 243.371094 21.40625 C 243.371094 21.25 243.429688 21.074219 243.46875 20.917969 L 244.503906 17.246094 L 244.933594 17.246094 C 245.421875 17.246094 245.695312 17.441406 245.695312 17.851562 C 245.695312 17.949219 245.675781 18.066406 245.675781 18.183594 L 245.792969 18.203125 Z M 246.125 16.972656 "/>
<path style="fill:none;stroke-width:1;stroke-linecap:round;stroke-linejoin:round;stroke:rgb(0%,0%,0%);stroke-opacity:1;stroke-miterlimit:10;" d="M 282.775 742.5 L 306.775 742.5 L 306.775 766.5 L 282.775 766.5 Z M 282.775 742.5 " transform="matrix(1.25,0,0,1.25,-127.5,-877.5)"/>
<path style=" stroke:none;fill-rule:nonzero;fill:rgb(0%,0%,0%);fill-opacity:1;" d="M 241.300781 68.046875 C 240.695312 68.808594 240.558594 68.945312 240.382812 68.945312 C 240.265625 68.945312 240.1875 68.867188 240.1875 68.75 C 240.1875 68.613281 240.382812 67.929688 240.558594 67.34375 C 240.910156 66.289062 241.105469 65.449219 241.105469 65.175781 C 241.105469 64.746094 240.890625 64.414062 240.382812 64.414062 C 239.679688 64.414062 238.800781 65.136719 237.785156 66.796875 L 239.152344 61.757812 L 239.074219 61.699219 C 238.410156 61.835938 237.980469 61.914062 237.296875 61.992188 L 237.296875 62.167969 L 237.609375 62.167969 C 237.804688 62.167969 238.078125 62.246094 238.078125 62.441406 C 238.078125 62.597656 238.019531 62.792969 237.921875 63.144531 L 236.28125 69.375 L 237.121094 69.375 C 237.570312 67.636719 237.746094 67.246094 238.195312 66.5625 C 238.78125 65.664062 239.503906 64.980469 239.914062 64.980469 C 240.167969 64.980469 240.226562 65.097656 240.226562 65.273438 C 240.226562 65.3125 240.1875 65.46875 240.148438 65.644531 L 239.523438 67.96875 C 239.386719 68.515625 239.308594 68.867188 239.308594 69.003906 C 239.308594 69.296875 239.503906 69.472656 239.796875 69.472656 C 240.382812 69.472656 240.753906 69.179688 241.4375 68.203125 Z M 241.300781 68.046875 "/>
<path style=" stroke:none;fill-rule:nonzero;fill:rgb(0%,0%,0%);fill-opacity:1;" d="M 246.4375 68.222656 L 242.453125 68.222656 L 242.140625 69.394531 L 242.277344 69.414062 C 242.628906 68.613281 242.863281 68.496094 244.054688 68.496094 L 242.980469 72.441406 C 242.863281 72.851562 242.6875 72.96875 242.179688 73.007812 L 242.179688 73.125 L 244.347656 73.125 L 244.347656 73.007812 L 244.074219 72.988281 C 243.761719 72.949219 243.683594 72.890625 243.683594 72.65625 C 243.683594 72.5 243.742188 72.324219 243.78125 72.167969 L 244.816406 68.496094 L 245.246094 68.496094 C 245.734375 68.496094 246.007812 68.691406 246.007812 69.101562 C 246.007812 69.199219 245.988281 69.316406 245.988281 69.433594 L 246.105469 69.453125 Z M 246.4375 68.222656 "/>
<path style="fill:none;stroke-width:1;stroke-linecap:round;stroke-linejoin:round;stroke:rgb(0%,0%,0%);stroke-opacity:1;stroke-miterlimit:10;" d="M 294.775 732.4 L 294.775 742.5 " transform="matrix(1.25,0,0,1.25,-127.5,-877.5)"/>
<path style="fill:none;stroke-width:1;stroke-linecap:butt;stroke-linejoin:miter;stroke:rgb(0%,0%,0%);stroke-opacity:1;stroke-miterlimit:10;" d="M 294.775 728.4 L 294.775 732.4 M 293.275 732.4 L 294.775 728.4 L 296.275 732.4 " transform="matrix(1.25,0,0,1.25,-127.5,-877.5)"/>
<path style=" stroke:none;fill-rule:nonzero;fill:rgb(0%,0%,0%);fill-opacity:1;" d="M 199.070312 68.261719 C 199.070312 67.929688 198.796875 67.617188 198.464844 67.617188 C 198.113281 67.617188 197.839844 67.910156 197.839844 68.261719 C 197.839844 68.613281 198.09375 68.867188 198.445312 68.867188 C 198.796875 68.867188 199.070312 68.59375 199.070312 68.261719 Z M 195.339844 68.261719 C 195.339844 67.929688 195.046875 67.617188 194.714844 67.617188 C 194.363281 67.617188 194.089844 67.910156 194.089844 68.261719 C 194.089844 68.613281 194.363281 68.867188 194.695312 68.867188 C 195.046875 68.867188 195.339844 68.59375 195.339844 68.261719 Z M 191.589844 68.261719 C 191.589844 67.929688 191.296875 67.617188 190.964844 67.617188 C 190.613281 67.617188 190.339844 67.910156 190.339844 68.261719 C 190.339844 68.613281 190.613281 68.867188 190.964844 68.867188 C 191.296875 68.867188 191.589844 68.59375 191.589844 68.261719 Z M 191.589844 68.261719 "/>
<path style="fill:none;stroke-width:1;stroke-linecap:round;stroke-linejoin:round;stroke:rgb(0%,0%,0%);stroke-opacity:1;stroke-miterlimit:10;" d="M 179.6375 754.5 L 202.871875 754.5 " transform="matrix(1.25,0,0,1.25,-127.5,-877.5)"/>
<path style="fill:none;stroke-width:1;stroke-linecap:butt;stroke-linejoin:miter;stroke:rgb(0%,0%,0%);stroke-opacity:1;stroke-miterlimit:10;" d="M 206.871875 754.5 L 202.871875 754.5 M 202.871875 753 L 206.871875 754.5 L 202.871875 756 " transform="matrix(1.25,0,0,1.25,-127.5,-877.5)"/>
<path style="fill:none;stroke-width:1;stroke-linecap:round;stroke-linejoin:round;stroke:rgb(0%,0%,0%);stroke-opacity:1;stroke-miterlimit:10;" d="M 232.775 754.5 L 242.371875 754.5 " transform="matrix(1.25,0,0,1.25,-127.5,-877.5)"/>
<path style="fill:none;stroke-width:1;stroke-linecap:butt;stroke-linejoin:miter;stroke:rgb(0%,0%,0%);stroke-opacity:1;stroke-miterlimit:10;" d="M 246.371875 754.5 L 242.371875 754.5 M 242.371875 753 L 246.371875 754.5 L 242.371875 756 " transform="matrix(1.25,0,0,1.25,-127.5,-877.5)"/>
<path style="fill:none;stroke-width:1;stroke-linecap:round;stroke-linejoin:round;stroke:rgb(0%,0%,0%);stroke-opacity:1;stroke-miterlimit:10;" d="M 267.275 754.5 L 276.871875 754.5 " transform="matrix(1.25,0,0,1.25,-127.5,-877.5)"/>
<path style="fill:none;stroke-width:1;stroke-linecap:butt;stroke-linejoin:miter;stroke:rgb(0%,0%,0%);stroke-opacity:1;stroke-miterlimit:10;" d="M 280.871875 754.5 L 276.871875 754.5 M 276.871875 753 L 280.871875 754.5 L 276.871875 756 " transform="matrix(1.25,0,0,1.25,-127.5,-877.5)"/>
<path style="fill-rule:nonzero;fill:rgb(69.803922%,85.098039%,100%);fill-opacity:1;stroke-width:1;stroke-linecap:round;stroke-linejoin:round;stroke:rgb(0%,0%,0%);stroke-opacity:1;stroke-miterlimit:10;" d="M 102.5 702.5 L 126.5 702.5 L 126.5 726.5 L 102.5 726.5 Z M 102.5 702.5 " transform="matrix(1.25,0,0,1.25,-127.5,-877.5)"/>
<path style=" stroke:none;fill-rule:nonzero;fill:rgb(0%,0%,0%);fill-opacity:1;" d="M 13.988281 12.890625 C 13.832031 12.109375 13.695312 11.914062 13.421875 11.914062 C 13.148438 11.914062 12.777344 11.992188 12.09375 12.246094 L 11.976562 12.285156 L 12.015625 12.460938 L 12.210938 12.402344 C 12.425781 12.34375 12.5625 12.324219 12.640625 12.324219 C 12.933594 12.324219 13.011719 12.421875 13.167969 13.085938 L 13.480469 14.492188 L 12.5625 15.800781 C 12.328125 16.132812 12.113281 16.347656 11.976562 16.347656 C 11.917969 16.347656 11.800781 16.308594 11.683594 16.25 C 11.546875 16.171875 11.429688 16.113281 11.332031 16.113281 C 11.117188 16.113281 10.941406 16.308594 10.941406 16.523438 C 10.941406 16.816406 11.15625 16.992188 11.507812 16.992188 C 11.859375 16.992188 12.09375 16.894531 12.582031 16.230469 L 13.578125 14.902344 L 13.890625 16.230469 C 14.027344 16.796875 14.203125 16.992188 14.554688 16.992188 C 14.984375 16.992188 15.277344 16.738281 15.941406 15.722656 L 15.765625 15.605469 C 15.667969 15.722656 15.628906 15.800781 15.53125 15.9375 C 15.277344 16.269531 15.140625 16.386719 15.003906 16.386719 C 14.847656 16.386719 14.75 16.230469 14.671875 15.917969 L 14.300781 14.414062 C 14.242188 14.140625 14.203125 13.984375 14.203125 13.90625 C 14.710938 13.046875 15.121094 12.539062 15.316406 12.539062 C 15.589844 12.539062 15.6875 12.734375 15.902344 12.734375 C 16.117188 12.734375 16.273438 12.558594 16.273438 12.324219 C 16.273438 12.089844 16.097656 11.914062 15.824219 11.914062 C 15.335938 11.914062 14.90625 12.324219 14.125 13.515625 Z M 13.988281 12.890625 "/>
<path style=" stroke:none;fill-rule:nonzero;fill:rgb(0%,0%,0%);fill-opacity:1;" d="M 19.195312 21.875 L 19.195312 21.757812 C 18.628906 21.757812 18.492188 21.621094 18.492188 21.308594 L 18.492188 16.835938 L 18.414062 16.796875 L 17.085938 17.480469 L 17.085938 17.597656 L 17.28125 17.519531 C 17.417969 17.460938 17.535156 17.421875 17.613281 17.421875 C 17.769531 17.421875 17.847656 17.539062 17.847656 17.792969 L 17.847656 21.171875 C 17.847656 21.582031 17.691406 21.738281 17.125 21.757812 L 17.125 21.875 Z M 19.195312 21.875 "/>
<path style="fill:none;stroke-width:1;stroke-linecap:round;stroke-linejoin:round;stroke:rgb(0%,0%,0%);stroke-opacity:1;stroke-miterlimit:10;" d="M 102.5 742.5 L 126.5 742.5 L 126.5 766.5 L 102.5 766.5 Z M 102.5 742.5 " transform="matrix(1.25,0,0,1.25,-127.5,-877.5)"/>
<path style=" stroke:none;fill-rule:nonzero;fill:rgb(0%,0%,0%);fill-opacity:1;" d="M 16.171875 68.046875 C 15.566406 68.808594 15.429688 68.945312 15.253906 68.945312 C 15.136719 68.945312 15.058594 68.867188 15.058594 68.75 C 15.058594 68.613281 15.253906 67.929688 15.429688 67.34375 C 15.78125 66.289062 15.976562 65.449219 15.976562 65.175781 C 15.976562 64.746094 15.761719 64.414062 15.253906 64.414062 C 14.550781 64.414062 13.671875 65.136719 12.65625 66.796875 L 14.023438 61.757812 L 13.945312 61.699219 C 13.28125 61.835938 12.851562 61.914062 12.167969 61.992188 L 12.167969 62.167969 L 12.480469 62.167969 C 12.675781 62.167969 12.949219 62.246094 12.949219 62.441406 C 12.949219 62.597656 12.890625 62.792969 12.792969 63.144531 L 11.152344 69.375 L 11.992188 69.375 C 12.441406 67.636719 12.617188 67.246094 13.066406 66.5625 C 13.652344 65.664062 14.375 64.980469 14.785156 64.980469 C 15.039062 64.980469 15.097656 65.097656 15.097656 65.273438 C 15.097656 65.3125 15.058594 65.46875 15.019531 65.644531 L 14.394531 67.96875 C 14.257812 68.515625 14.179688 68.867188 14.179688 69.003906 C 14.179688 69.296875 14.375 69.472656 14.667969 69.472656 C 15.253906 69.472656 15.625 69.179688 16.308594 68.203125 Z M 16.171875 68.046875 "/>
<path style=" stroke:none;fill-rule:nonzero;fill:rgb(0%,0%,0%);fill-opacity:1;" d="M 19.511719 73.125 L 19.511719 73.007812 C 18.945312 73.007812 18.808594 72.871094 18.808594 72.558594 L 18.808594 68.085938 L 18.730469 68.046875 L 17.402344 68.730469 L 17.402344 68.847656 L 17.597656 68.769531 C 17.734375 68.710938 17.851562 68.671875 17.929688 68.671875 C 18.085938 68.671875 18.164062 68.789062 18.164062 69.042969 L 18.164062 72.421875 C 18.164062 72.832031 18.007812 72.988281 17.441406 73.007812 L 17.441406 73.125 Z M 19.511719 73.125 "/>
<path style="fill:none;stroke-width:1;stroke-linecap:round;stroke-linejoin:round;stroke:rgb(0%,0%,0%);stroke-opacity:1;stroke-miterlimit:10;" d="M 114.5 732.4 L 114.5 742.5 " transform="matrix(1.25,0,0,1.25,-127.5,-877.5)"/>
<path style="fill:none;stroke-width:1;stroke-linecap:butt;stroke-linejoin:miter;stroke:rgb(0%,0%,0%);stroke-opacity:1;stroke-miterlimit:10;" d="M 114.5 728.4 L 114.5 732.4 M 113 732.4 L 114.5 728.4 L 116 732.4 " transform="matrix(1.25,0,0,1.25,-127.5,-877.5)"/>
<path style="fill:none;stroke-width:1;stroke-linecap:round;stroke-linejoin:round;stroke:rgb(0%,0%,0%);stroke-opacity:1;stroke-miterlimit:10;" d="M 126.5 754.5 L 149.734375 754.5 " transform="matrix(1.25,0,0,1.25,-127.5,-877.5)"/>
<path style="fill:none;stroke-width:1;stroke-linecap:butt;stroke-linejoin:miter;stroke:rgb(0%,0%,0%);stroke-opacity:1;stroke-miterlimit:10;" d="M 153.734375 754.5 L 149.734375 754.5 M 149.734375 753 L 153.734375 754.5 L 149.734375 756 " transform="matrix(1.25,0,0,1.25,-127.5,-877.5)"/>
</g>
</svg>
