<?xml version="1.0" encoding="UTF-8"?>
<svg xmlns="http://www.w3.org/2000/svg" xmlns:xlink="http://www.w3.org/1999/xlink" width="394pt" height="266pt" viewBox="0 0 394 266" version="1.1">
<g id="surface1">
<path style="fill:none;stroke-width:1;stroke-linecap:round;stroke-linejoin:round;stroke:rgb(0%,0%,0%);stroke-opacity:1;stroke-miterlimit:10;" d="M 304 228 L 536 228 C 542.628125 228 548 233.371875 548 240 L 548 356 C 548 362.628125 542.628125 368 536 368 L 304 368 C 297.371875 368 292 362.628125 292 356 L 292 240 C 292 233.371875 297.371875 228 304 228 Z M 304 228 " transform="matrix(1.25,0,0,1.25,-292.5,-283.75)"/>
<path style=" stroke:none;fill-rule:nonzero;fill:rgb(40%,74.901961%,100%);fill-opacity:1;" d="M 115.253906 136.25 L 150.253906 136.25 L 150.253906 116.25 L 115.253906 116.25 Z M 115.253906 136.25 "/>
<path style="fill:none;stroke-width:1;stroke-linecap:round;stroke-linejoin:round;stroke:rgb(0%,0%,0%);stroke-opacity:1;stroke-miterlimit:10;" d="M 326.203125 320 L 354.203125 320 L 354.203125 336 L 326.203125 336 Z M 326.203125 320 " transform="matrix(1.25,0,0,1.25,-292.5,-283.75)"/>
<path style=" stroke:none;fill-rule:nonzero;fill:rgb(0%,0%,0%);fill-opacity:1;" d="M 136.605469 123.976562 L 136.449219 124.816406 L 134.984375 124.816406 C 135.269531 125.222656 135.414062 125.730469 135.414062 126.339844 C 135.414062 127.292969 135.132812 128.132812 134.574219 128.859375 C 134.011719 129.589844 133.25 129.953125 132.289062 129.953125 C 131.546875 129.953125 130.960938 129.738281 130.53125 129.308594 C 130.113281 128.867188 129.90625 128.292969 129.90625 127.589844 C 129.90625 126.550781 130.191406 125.671875 130.765625 124.953125 C 131.351562 124.226562 132.105469 123.859375 133.03125 123.859375 C 133.328125 123.859375 133.601562 123.898438 133.851562 123.976562 Z M 130.902344 127.570312 C 130.902344 128.039062 131.023438 128.425781 131.273438 128.722656 C 131.519531 129.023438 131.859375 129.171875 132.289062 129.171875 C 132.953125 129.171875 133.472656 128.859375 133.851562 128.234375 C 134.226562 127.597656 134.417969 126.953125 134.417969 126.300781 C 134.417969 125.753906 134.292969 125.339844 134.046875 125.050781 C 133.8125 124.765625 133.484375 124.621094 133.070312 124.621094 C 132.40625 124.621094 131.878906 124.921875 131.488281 125.519531 C 131.097656 126.121094 130.902344 126.804688 130.902344 127.570312 Z M 130.902344 127.570312 "/>
<path style="fill:none;stroke-width:1;stroke-linecap:round;stroke-linejoin:round;stroke:rgb(0%,0%,0%);stroke-opacity:1;stroke-miterlimit:10;" d="M 271 351.2125 L 333.98125 351.93125 C 337.296875 351.96875 340.0125 349.3125 340.05 346 C 340.05 345.99375 340.05 345.9875 340.05 345.98125 L 340.0875 341.9 " transform="matrix(1.25,0,0,1.25,-292.5,-283.75)"/>
<path style="fill:none;stroke-width:1;stroke-linecap:butt;stroke-linejoin:miter;stroke:rgb(0%,0%,0%);stroke-opacity:1;stroke-miterlimit:10;" d="M 340.11875 337.9 L 340.0875 341.9 M 338.5875 341.8875 L 340.11875 337.9 L 341.5875 341.9125 " transform="matrix(1.25,0,0,1.25,-292.5,-283.75)"/>
<path style="fill:none;stroke-width:1;stroke-linecap:round;stroke-linejoin:round;stroke:rgb(0%,0%,0%);stroke-opacity:1;stroke-miterlimit:10;" d="M 340.1625 320 L 340.10625 307.9 " transform="matrix(1.25,0,0,1.25,-292.5,-283.75)"/>
<path style="fill:none;stroke-width:1;stroke-linecap:butt;stroke-linejoin:miter;stroke:rgb(0%,0%,0%);stroke-opacity:1;stroke-miterlimit:10;" d="M 340.090625 303.9 L 340.10625 307.9 M 338.60625 307.90625 L 340.090625 303.9 L 341.60625 307.89375 " transform="matrix(1.25,0,0,1.25,-292.5,-283.75)"/>
<path style=" stroke:none;fill-rule:nonzero;fill:rgb(40%,74.901961%,100%);fill-opacity:1;" d="M 179.929688 136.25 L 214.929688 136.25 L 214.929688 116.25 L 179.929688 116.25 Z M 179.929688 136.25 "/>
<path style="fill:none;stroke-width:1;stroke-linecap:round;stroke-linejoin:round;stroke:rgb(0%,0%,0%);stroke-opacity:1;stroke-miterlimit:10;" d="M 377.94375 320 L 405.94375 320 L 405.94375 336 L 377.94375 336 Z M 377.94375 320 " transform="matrix(1.25,0,0,1.25,-292.5,-283.75)"/>
<path style=" stroke:none;fill-rule:nonzero;fill:rgb(0%,0%,0%);fill-opacity:1;" d="M 201.285156 123.976562 L 201.128906 124.816406 L 199.664062 124.816406 C 199.945312 125.222656 200.09375 125.730469 200.09375 126.339844 C 200.09375 127.292969 199.808594 128.132812 199.253906 128.859375 C 198.691406 129.589844 197.929688 129.953125 196.96875 129.953125 C 196.226562 129.953125 195.640625 129.738281 195.210938 129.308594 C 194.789062 128.867188 194.585938 128.292969 194.585938 127.589844 C 194.585938 126.550781 194.867188 125.671875 195.445312 124.953125 C 196.03125 124.226562 196.78125 123.859375 197.710938 123.859375 C 198.007812 123.859375 198.28125 123.898438 198.53125 123.976562 Z M 195.582031 127.570312 C 195.582031 128.039062 195.703125 128.425781 195.953125 128.722656 C 196.195312 129.023438 196.539062 129.171875 196.96875 129.171875 C 197.632812 129.171875 198.148438 128.859375 198.53125 128.234375 C 198.90625 127.597656 199.097656 126.953125 199.097656 126.300781 C 199.097656 125.753906 198.96875 125.339844 198.726562 125.050781 C 198.492188 124.765625 198.164062 124.621094 197.75 124.621094 C 197.085938 124.621094 196.558594 124.921875 196.167969 125.519531 C 195.777344 126.121094 195.582031 126.804688 195.582031 127.570312 Z M 195.582031 127.570312 "/>
<path style="fill:none;stroke-width:1;stroke-linecap:round;stroke-linejoin:round;stroke:rgb(0%,0%,0%);stroke-opacity:1;stroke-miterlimit:10;" d="M 391.953125 320 L 391.96875 307.9 " transform="matrix(1.25,0,0,1.25,-292.5,-283.75)"/>
<path style="fill:none;stroke-width:1;stroke-linecap:butt;stroke-linejoin:miter;stroke:rgb(0%,0%,0%);stroke-opacity:1;stroke-miterlimit:10;" d="M 391.971875 303.9 L 391.96875 307.9 M 390.46875 307.9 L 391.971875 303.9 L 393.46875 307.903125 " transform="matrix(1.25,0,0,1.25,-292.5,-283.75)"/>
<path style=" stroke:none;fill-rule:nonzero;fill:rgb(0%,0%,0%);fill-opacity:1;" d="M 183.203125 56.445312 L 183.203125 58.105469 L 182.089844 58.105469 C 182.363281 57.382812 182.636719 56.5625 182.871094 55.644531 L 185.039062 55.644531 L 185.039062 54.882812 L 183.066406 54.882812 C 183.164062 54.433594 183.261719 53.945312 183.378906 53.4375 L 182.636719 53.28125 C 182.519531 53.828125 182.421875 54.375 182.304688 54.882812 L 181.191406 54.882812 L 181.191406 55.644531 L 182.128906 55.644531 C 181.875 56.640625 181.601562 57.5 181.269531 58.164062 L 181.445312 58.847656 L 183.203125 58.847656 L 183.203125 60.527344 C 182.539062 60.644531 181.855469 60.761719 181.113281 60.839844 L 181.210938 61.640625 C 181.894531 61.523438 182.558594 61.425781 183.203125 61.289062 L 183.203125 63.632812 L 183.945312 63.632812 L 183.945312 61.132812 L 185.019531 60.859375 L 185.019531 60.097656 C 184.6875 60.175781 184.335938 60.273438 183.945312 60.371094 L 183.945312 58.847656 L 184.980469 58.847656 L 184.980469 58.105469 L 183.945312 58.105469 L 183.945312 56.445312 Z M 186.523438 55.859375 L 186.523438 56.523438 L 189.746094 56.523438 L 189.746094 55.859375 L 186.523438 55.859375 C 187.089844 55.3125 187.636719 54.707031 188.164062 54.0625 C 189.023438 55.15625 189.980469 56.09375 191.035156 56.855469 L 191.464844 56.230469 C 190.449219 55.507812 189.453125 54.550781 188.457031 53.339844 L 187.890625 53.339844 C 186.972656 54.453125 185.9375 55.449219 184.785156 56.289062 L 185.234375 56.972656 C 185.664062 56.621094 186.09375 56.25 186.523438 55.859375 Z M 187.304688 63.554688 C 187.851562 63.554688 188.144531 63.261719 188.144531 62.675781 L 188.144531 57.421875 L 185.488281 57.421875 L 185.488281 63.632812 L 186.191406 63.632812 L 186.191406 61.523438 L 187.460938 61.523438 L 187.460938 62.539062 C 187.460938 62.773438 187.324219 62.910156 187.089844 62.910156 L 186.582031 62.890625 L 186.757812 63.554688 Z M 186.191406 60.898438 L 186.191406 59.824219 L 187.460938 59.824219 L 187.460938 60.898438 Z M 186.191406 59.199219 L 186.191406 58.085938 L 187.460938 58.085938 L 187.460938 59.199219 Z M 188.808594 57.734375 L 188.808594 61.777344 L 189.453125 61.777344 L 189.453125 57.734375 Z M 190.039062 63.574219 C 190.585938 63.574219 190.859375 63.242188 190.859375 62.597656 L 190.859375 57.226562 L 190.15625 57.226562 L 190.15625 62.421875 C 190.15625 62.734375 190.039062 62.910156 189.785156 62.910156 C 189.511719 62.910156 189.21875 62.890625 188.925781 62.851562 L 189.082031 63.574219 Z M 190.039062 63.574219 "/>
<path style=" stroke:none;fill-rule:nonzero;fill:rgb(0%,0%,0%);fill-opacity:1;" d="M 197.011719 55.917969 C 196.289062 58.90625 194.726562 61.210938 192.304688 62.773438 L 192.792969 63.476562 C 195.15625 61.933594 196.71875 59.726562 197.460938 56.855469 C 197.519531 56.992188 197.558594 57.148438 197.636719 57.34375 C 198.789062 60.3125 200.273438 62.363281 202.109375 63.457031 L 202.617188 62.8125 C 200.820312 61.699219 199.414062 59.785156 198.359375 57.109375 C 197.675781 55.273438 196.816406 54.003906 195.820312 53.300781 L 195.15625 53.730469 C 195.859375 54.257812 196.484375 54.980469 197.011719 55.917969 Z M 197.011719 55.917969 "/>
<path style=" stroke:none;fill-rule:nonzero;fill:rgb(0%,0%,0%);fill-opacity:1;" d="M 212.128906 63.535156 C 212.871094 63.535156 213.242188 63.144531 213.242188 62.382812 L 213.242188 53.886719 L 208.125 53.886719 L 208.125 54.628906 L 212.460938 54.628906 L 212.460938 62.167969 C 212.460938 62.597656 212.285156 62.8125 211.953125 62.8125 L 210.957031 62.773438 L 211.152344 63.535156 Z M 204.238281 55.175781 L 204.238281 63.632812 L 205.019531 63.632812 L 205.019531 55.175781 Z M 205.878906 53.203125 L 205.136719 53.535156 C 205.644531 54.140625 206.113281 54.84375 206.542969 55.625 L 207.265625 55.234375 C 206.855469 54.492188 206.386719 53.828125 205.878906 53.203125 Z M 205.878906 53.203125 "/>
<path style=" stroke:none;fill-rule:nonzero;fill:rgb(0%,0%,0%);fill-opacity:1;" d="M 198.429688 77.5 L 198.429688 77.226562 C 197.570312 77.167969 197.355469 77.03125 197.355469 76.308594 L 197.355469 71.015625 C 197.355469 70.390625 197.589844 70.214844 198.429688 70.175781 L 198.429688 69.902344 L 194.503906 69.902344 L 194.503906 70.175781 C 195.304688 70.234375 195.539062 70.390625 195.539062 71.015625 L 195.539062 76.308594 C 195.539062 77.011719 195.34375 77.148438 194.503906 77.226562 L 194.503906 77.5 Z M 198.429688 77.5 "/>
<path style=" stroke:none;fill-rule:nonzero;fill:rgb(0%,0%,0%);fill-opacity:1;" d="M 200.871094 78.046875 L 200.265625 78.046875 L 200.480469 77.265625 C 200.480469 77.246094 200.480469 77.207031 200.480469 77.207031 C 200.480469 77.167969 200.460938 77.148438 200.421875 77.148438 C 200.382812 77.148438 200.34375 77.167969 200.304688 77.226562 C 200.03125 77.636719 199.542969 77.988281 199.308594 78.046875 C 199.132812 78.085938 199.074219 78.144531 199.074219 78.242188 C 199.074219 78.242188 199.074219 78.261719 199.074219 78.28125 L 199.640625 78.28125 L 199.054688 80.507812 C 198.996094 80.742188 198.9375 80.976562 198.9375 81.054688 C 198.9375 81.25 199.074219 81.328125 199.269531 81.328125 C 199.660156 81.328125 199.894531 81.113281 200.34375 80.429688 L 200.246094 80.371094 C 199.875 80.839844 199.757812 80.957031 199.640625 80.957031 C 199.582031 80.957031 199.523438 80.9375 199.523438 80.839844 C 199.523438 80.820312 199.542969 80.761719 199.542969 80.742188 L 200.1875 78.28125 L 200.832031 78.28125 Z M 200.871094 78.046875 "/>
<path style=" stroke:none;fill-rule:nonzero;fill:rgb(0%,0%,0%);fill-opacity:1;" d="M 116.898438 53.554688 L 116.351562 54.101562 C 117.09375 54.746094 117.660156 55.332031 118.089844 55.898438 L 118.65625 55.351562 C 118.1875 54.746094 117.601562 54.160156 116.898438 53.554688 Z M 123.539062 63.476562 L 126.117188 63.457031 L 126.3125 62.65625 C 126.019531 62.675781 125.589844 62.675781 125.0625 62.695312 C 124.496094 62.714844 123.96875 62.714844 123.441406 62.734375 C 122.542969 62.734375 121.800781 62.734375 121.195312 62.714844 C 120.511719 62.714844 120.023438 62.617188 119.652344 62.460938 C 119.339844 62.324219 119.027344 62.089844 118.753906 61.757812 C 118.65625 61.640625 118.558594 61.5625 118.480469 61.503906 L 118.441406 57.285156 L 116.136719 57.304688 L 116.15625 58.046875 L 117.699219 58.027344 L 117.71875 61.464844 C 117.289062 61.660156 116.78125 62.246094 116.214844 63.203125 L 116.820312 63.75 C 117.40625 62.695312 117.816406 62.167969 118.070312 62.167969 C 118.207031 62.167969 118.363281 62.265625 118.519531 62.460938 C 118.871094 62.851562 119.28125 63.144531 119.730469 63.28125 C 120.179688 63.398438 120.785156 63.457031 121.507812 63.457031 C 122.25 63.476562 122.914062 63.476562 123.539062 63.476562 Z M 119.125 56.542969 L 119.125 57.207031 L 126.097656 57.167969 L 126.097656 56.503906 L 122.992188 56.523438 L 122.992188 55.917969 L 125.316406 55.898438 L 125.296875 53.867188 L 122.972656 53.886719 L 122.972656 53.339844 L 122.210938 53.339844 L 122.210938 53.886719 L 119.867188 53.90625 L 119.886719 55.9375 L 122.230469 55.917969 L 122.230469 56.523438 Z M 124.59375 55.3125 L 122.992188 55.332031 L 122.992188 54.511719 L 124.59375 54.492188 Z M 122.230469 55.332031 L 120.609375 55.332031 L 120.609375 54.511719 L 122.230469 54.511719 Z M 125.296875 57.753906 L 120.023438 57.792969 L 120.023438 60.664062 L 120.765625 60.644531 L 120.765625 58.417969 L 124.554688 58.398438 L 124.554688 60.429688 L 125.296875 60.429688 Z M 122.347656 58.808594 C 122.269531 59.6875 122.074219 60.3125 121.722656 60.683594 C 121.332031 61.09375 120.511719 61.328125 119.261719 61.40625 L 119.554688 62.070312 C 121 61.933594 121.917969 61.621094 122.347656 61.132812 C 122.699219 60.742188 122.933594 60 123.050781 58.886719 Z M 123.304688 60.429688 L 122.953125 60.957031 C 123.890625 61.25 124.789062 61.640625 125.667969 62.167969 L 126.058594 61.542969 C 125.238281 61.09375 124.300781 60.722656 123.304688 60.429688 Z M 123.304688 60.429688 "/>
<path style=" stroke:none;fill-rule:nonzero;fill:rgb(0%,0%,0%);fill-opacity:1;" d="M 128.890625 55.421875 L 128.910156 58.566406 L 136.527344 58.527344 L 136.527344 57.726562 L 129.710938 57.765625 L 129.691406 55.421875 L 137.09375 55.382812 L 137.09375 54.601562 L 132.972656 54.621094 C 132.777344 54.09375 132.601562 53.644531 132.40625 53.253906 L 131.566406 53.429688 C 131.761719 53.78125 131.976562 54.171875 132.152344 54.621094 L 127.582031 54.660156 L 127.582031 55.441406 Z M 128.460938 59.738281 C 128.226562 60.792969 127.875 61.75 127.347656 62.628906 L 128.03125 63.078125 C 128.558594 62.160156 128.96875 61.105469 129.242188 59.894531 Z M 132.660156 59.074219 L 131.898438 59.328125 C 132.289062 59.933594 132.640625 60.617188 132.972656 61.417969 L 133.714844 61.105469 C 133.402344 60.382812 133.050781 59.699219 132.660156 59.074219 Z M 136.039062 59.523438 L 135.277344 59.757812 C 135.824219 60.597656 136.332031 61.574219 136.78125 62.667969 L 137.503906 62.355469 C 137.09375 61.339844 136.605469 60.402344 136.039062 59.523438 Z M 134.164062 63.449219 C 134.574219 63.449219 134.867188 63.351562 135.0625 63.136719 C 135.277344 62.882812 135.414062 62.238281 135.511719 61.183594 L 134.730469 60.96875 C 134.691406 61.789062 134.613281 62.277344 134.476562 62.453125 C 134.398438 62.589844 134.242188 62.667969 134.007812 62.667969 L 131.3125 62.6875 C 131.019531 62.6875 130.863281 62.492188 130.863281 62.121094 L 130.84375 59.425781 L 130.023438 59.425781 L 130.042969 62.277344 C 130.042969 63.078125 130.394531 63.46875 131.058594 63.46875 Z M 134.164062 63.449219 "/>
<path style=" stroke:none;fill-rule:nonzero;fill:rgb(0%,0%,0%);fill-opacity:1;" d="M 147.074219 63.445312 C 147.816406 63.445312 148.1875 63.054688 148.1875 62.292969 L 148.128906 53.796875 L 143.011719 53.835938 L 143.03125 54.578125 L 147.367188 54.539062 L 147.40625 62.078125 C 147.40625 62.507812 147.230469 62.722656 146.898438 62.722656 L 145.902344 62.703125 L 146.097656 63.464844 Z M 139.144531 55.144531 L 139.183594 63.601562 L 139.964844 63.582031 L 139.925781 55.125 Z M 140.765625 53.152344 L 140.023438 53.484375 C 140.53125 54.089844 141.019531 54.792969 141.449219 55.574219 L 142.171875 55.183594 C 141.761719 54.441406 141.273438 53.777344 140.765625 53.152344 Z M 140.765625 53.152344 "/>
<path style=" stroke:none;fill-rule:nonzero;fill:rgb(0%,0%,0%);fill-opacity:1;" d="M 134.578125 72.15625 L 134.578125 69.890625 L 128.191406 69.929688 L 128.191406 70.203125 C 128.972656 70.242188 129.1875 70.398438 129.1875 71.0625 L 129.226562 76.375 C 129.226562 77 129.070312 77.15625 128.230469 77.253906 L 128.230469 77.527344 L 132.292969 77.507812 L 132.292969 77.234375 C 131.257812 77.175781 131.042969 77.019531 131.042969 76.375 L 131.023438 73.796875 C 132.175781 73.835938 132.644531 74.226562 132.742188 75.554688 L 133.035156 75.554688 L 133.015625 71.746094 L 132.722656 71.746094 C 132.585938 73.015625 132.15625 73.425781 131.023438 73.425781 L 131.003906 70.867188 C 131.003906 70.4375 131.21875 70.28125 131.804688 70.28125 C 132.78125 70.28125 133.289062 70.398438 133.621094 70.710938 C 134.03125 71.042969 134.148438 71.296875 134.304688 72.15625 Z M 134.578125 72.15625 "/>
<path style=" stroke:none;fill-rule:nonzero;fill:rgb(0%,0%,0%);fill-opacity:1;" d="M 137.15625 78.011719 L 136.550781 78.03125 L 136.765625 77.230469 C 136.765625 77.210938 136.765625 77.171875 136.765625 77.171875 C 136.765625 77.132812 136.746094 77.113281 136.707031 77.113281 C 136.667969 77.113281 136.628906 77.132812 136.589844 77.210938 C 136.316406 77.621094 135.828125 77.972656 135.59375 78.03125 C 135.417969 78.070312 135.359375 78.128906 135.359375 78.226562 C 135.359375 78.226562 135.359375 78.246094 135.359375 78.265625 L 135.925781 78.265625 L 135.359375 80.492188 C 135.300781 80.726562 135.242188 80.960938 135.242188 81.039062 C 135.242188 81.234375 135.378906 81.3125 135.574219 81.3125 C 135.964844 81.3125 136.199219 81.097656 136.648438 80.394531 L 136.550781 80.355469 C 136.179688 80.824219 136.0625 80.941406 135.945312 80.941406 C 135.886719 80.941406 135.828125 80.921875 135.828125 80.824219 C 135.828125 80.804688 135.847656 80.746094 135.847656 80.726562 L 136.472656 78.265625 L 137.117188 78.246094 Z M 137.15625 78.011719 "/>
<path style="fill:none;stroke-width:1;stroke-linecap:round;stroke-linejoin:round;stroke:rgb(0%,0%,0%);stroke-opacity:1;stroke-miterlimit:10;" d="M 315.8875 351.6375 L 385.971875 351.971875 C 389.284375 351.9875 391.984375 349.3125 392 346 C 392 345.99375 392 345.98125 392 345.971875 L 392 341.9 " transform="matrix(1.25,0,0,1.25,-292.5,-283.75)"/>
<path style="fill:none;stroke-width:1;stroke-linecap:butt;stroke-linejoin:miter;stroke:rgb(0%,0%,0%);stroke-opacity:1;stroke-miterlimit:10;" d="M 392 337.9 L 392 341.9 M 390.5 341.9 L 392 337.9 L 393.5 341.9 " transform="matrix(1.25,0,0,1.25,-292.5,-283.75)"/>
<path style="fill:none;stroke-width:1;stroke-linecap:round;stroke-linejoin:round;stroke:rgb(0%,0%,0%);stroke-opacity:1;stroke-miterlimit:10;" d="M 312.034375 376.5 L 312.00625 357.86875 C 312.003125 354.60625 314.60625 351.9375 317.86875 351.859375 L 325.40625 351.684375 " transform="matrix(1.25,0,0,1.25,-292.5,-283.75)"/>
<path style=" stroke:none;fill-rule:nonzero;fill:rgb(0%,0%,0%);fill-opacity:1;" d="M 81.917969 199.570312 L 81.917969 201.230469 L 80.804688 201.230469 C 81.078125 200.507812 81.351562 199.6875 81.585938 198.769531 L 83.753906 198.769531 L 83.753906 198.007812 L 81.78125 198.007812 C 81.878906 197.558594 81.976562 197.070312 82.09375 196.5625 L 81.351562 196.40625 C 81.234375 196.953125 81.136719 197.5 81.019531 198.007812 L 79.90625 198.007812 L 79.90625 198.769531 L 80.84375 198.769531 C 80.589844 199.765625 80.316406 200.625 79.984375 201.289062 L 80.160156 201.972656 L 81.917969 201.972656 L 81.917969 203.652344 C 81.253906 203.769531 80.570312 203.886719 79.828125 203.964844 L 79.925781 204.765625 C 80.609375 204.648438 81.273438 204.550781 81.917969 204.414062 L 81.917969 206.757812 L 82.660156 206.757812 L 82.660156 204.257812 L 83.734375 203.984375 L 83.734375 203.222656 C 83.402344 203.300781 83.050781 203.398438 82.660156 203.496094 L 82.660156 201.972656 L 83.695312 201.972656 L 83.695312 201.230469 L 82.660156 201.230469 L 82.660156 199.570312 Z M 85.238281 198.984375 L 85.238281 199.648438 L 88.460938 199.648438 L 88.460938 198.984375 L 85.238281 198.984375 C 85.804688 198.4375 86.351562 197.832031 86.878906 197.1875 C 87.738281 198.28125 88.695312 199.21875 89.75 199.980469 L 90.179688 199.355469 C 89.164062 198.632812 88.167969 197.675781 87.171875 196.464844 L 86.605469 196.464844 C 85.6875 197.578125 84.652344 198.574219 83.5 199.414062 L 83.949219 200.097656 C 84.378906 199.746094 84.808594 199.375 85.238281 198.984375 Z M 86.019531 206.679688 C 86.566406 206.679688 86.859375 206.386719 86.859375 205.800781 L 86.859375 200.546875 L 84.203125 200.546875 L 84.203125 206.757812 L 84.90625 206.757812 L 84.90625 204.648438 L 86.175781 204.648438 L 86.175781 205.664062 C 86.175781 205.898438 86.039062 206.035156 85.804688 206.035156 L 85.296875 206.015625 L 85.472656 206.679688 Z M 84.90625 204.023438 L 84.90625 202.949219 L 86.175781 202.949219 L 86.175781 204.023438 Z M 84.90625 202.324219 L 84.90625 201.210938 L 86.175781 201.210938 L 86.175781 202.324219 Z M 87.523438 200.859375 L 87.523438 204.902344 L 88.167969 204.902344 L 88.167969 200.859375 Z M 88.753906 206.699219 C 89.300781 206.699219 89.574219 206.367188 89.574219 205.722656 L 89.574219 200.351562 L 88.871094 200.351562 L 88.871094 205.546875 C 88.871094 205.859375 88.753906 206.035156 88.5 206.035156 C 88.226562 206.035156 87.933594 206.015625 87.640625 205.976562 L 87.796875 206.699219 Z M 88.753906 206.699219 "/>
<path style=" stroke:none;fill-rule:nonzero;fill:rgb(0%,0%,0%);fill-opacity:1;" d="M 95.726562 199.042969 C 95.003906 202.03125 93.441406 204.335938 91.019531 205.898438 L 91.507812 206.601562 C 93.871094 205.058594 95.433594 202.851562 96.175781 199.980469 C 96.234375 200.117188 96.273438 200.273438 96.351562 200.46875 C 97.503906 203.4375 98.988281 205.488281 100.824219 206.582031 L 101.332031 205.9375 C 99.535156 204.824219 98.128906 202.910156 97.074219 200.234375 C 96.390625 198.398438 95.53125 197.128906 94.535156 196.425781 L 93.871094 196.855469 C 94.574219 197.382812 95.199219 198.105469 95.726562 199.042969 Z M 95.726562 199.042969 "/>
<path style=" stroke:none;fill-rule:nonzero;fill:rgb(0%,0%,0%);fill-opacity:1;" d="M 113.457031 205.625 L 113.457031 205.351562 C 113.066406 205.332031 112.890625 205.195312 112.363281 204.375 L 110.3125 201.191406 L 111.210938 199.941406 C 112.1875 198.574219 112.480469 198.378906 113.320312 198.300781 L 113.320312 198.027344 L 110.507812 198.027344 L 110.507812 198.300781 L 110.742188 198.320312 C 111.171875 198.359375 111.328125 198.457031 111.328125 198.710938 C 111.328125 198.964844 111.191406 199.179688 110.664062 199.902344 L 110.039062 200.78125 L 108.945312 199.082031 C 108.808594 198.867188 108.789062 198.808594 108.789062 198.671875 C 108.789062 198.4375 108.90625 198.339844 109.316406 198.320312 L 109.667969 198.300781 L 109.667969 198.027344 L 105.78125 198.027344 L 105.78125 198.300781 C 106.191406 198.339844 106.328125 198.457031 106.679688 198.945312 L 108.90625 202.226562 L 106.933594 204.707031 C 106.601562 205.136719 106.328125 205.273438 105.761719 205.351562 L 105.761719 205.625 L 108.574219 205.625 L 108.574219 205.351562 C 107.890625 205.273438 107.675781 205.15625 107.675781 204.863281 C 107.675781 204.628906 107.890625 204.277344 108.730469 203.144531 L 109.160156 202.578125 L 110.292969 204.394531 C 110.429688 204.609375 110.527344 204.863281 110.527344 205 C 110.527344 205.195312 110.332031 205.292969 109.941406 205.3125 L 109.628906 205.351562 L 109.628906 205.625 Z M 113.457031 205.625 "/>
<path style=" stroke:none;fill-rule:nonzero;fill:rgb(0%,0%,0%);fill-opacity:1;" d="M 115.933594 206.171875 L 115.328125 206.171875 L 115.542969 205.390625 C 115.542969 205.371094 115.542969 205.332031 115.542969 205.332031 C 115.542969 205.292969 115.523438 205.273438 115.484375 205.273438 C 115.445312 205.273438 115.40625 205.292969 115.367188 205.351562 C 115.09375 205.761719 114.605469 206.113281 114.371094 206.171875 C 114.195312 206.210938 114.136719 206.269531 114.136719 206.367188 C 114.136719 206.367188 114.136719 206.386719 114.136719 206.40625 L 114.703125 206.40625 L 114.117188 208.632812 C 114.058594 208.867188 114 209.101562 114 209.179688 C 114 209.375 114.136719 209.453125 114.332031 209.453125 C 114.722656 209.453125 114.957031 209.238281 115.40625 208.554688 L 115.308594 208.496094 C 114.9375 208.964844 114.820312 209.082031 114.703125 209.082031 C 114.644531 209.082031 114.585938 209.0625 114.585938 208.964844 C 114.585938 208.945312 114.605469 208.886719 114.605469 208.867188 L 115.25 206.40625 L 115.894531 206.40625 Z M 115.933594 206.171875 "/>
<path style=" stroke:none;fill-rule:nonzero;fill:rgb(0%,0%,0%);fill-opacity:1;" d="M 16.210938 147.441406 L 16.210938 143.613281 L 14.433594 143.613281 C 14.785156 143.222656 15.117188 142.734375 15.46875 142.1875 L 15.46875 141.582031 L 12.851562 141.582031 C 12.96875 141.367188 13.085938 141.113281 13.164062 140.859375 L 12.363281 140.761719 C 11.972656 141.796875 11.230469 142.65625 10.136719 143.378906 L 10.605469 144.003906 C 10.742188 143.90625 10.878906 143.808594 11.035156 143.691406 L 11.035156 144.335938 L 15.429688 144.335938 L 15.429688 145.195312 L 10.878906 145.195312 L 10.878906 145.898438 L 15.429688 145.898438 L 15.429688 146.738281 L 10.625 146.738281 L 10.625 147.441406 Z M 12.421875 142.285156 L 14.570312 142.285156 C 14.238281 142.792969 13.90625 143.242188 13.574219 143.613281 L 11.132812 143.613281 C 11.621094 143.222656 12.050781 142.792969 12.421875 142.285156 Z M 7.1875 141.269531 L 7.1875 151.132812 L 7.988281 151.132812 L 7.988281 142.03125 L 9.609375 142.03125 C 9.335938 142.988281 8.964844 144.042969 8.496094 145.214844 C 9.101562 146.171875 9.394531 147.050781 9.394531 147.8125 C 9.394531 148.046875 9.335938 148.222656 9.257812 148.320312 C 9.160156 148.417969 8.964844 148.476562 8.691406 148.496094 C 8.574219 148.496094 8.417969 148.476562 8.261719 148.457031 L 8.515625 149.277344 C 9.160156 149.277344 9.628906 149.140625 9.902344 148.867188 C 10.078125 148.652344 10.175781 148.300781 10.175781 147.8125 C 10.136719 147.011719 9.84375 146.09375 9.296875 145.097656 C 9.726562 143.984375 10.097656 142.929688 10.410156 141.914062 L 10.410156 141.269531 Z M 16.054688 147.910156 L 15.351562 148.144531 C 15.742188 148.828125 16.113281 149.609375 16.445312 150.488281 L 17.109375 150.175781 C 16.796875 149.375 16.445312 148.632812 16.054688 147.910156 Z M 10.722656 148.125 C 10.546875 148.925781 10.273438 149.667969 9.902344 150.332031 L 10.566406 150.761719 C 10.9375 150.058594 11.230469 149.238281 11.445312 148.28125 Z M 14.453125 151.035156 C 14.785156 151.035156 15.039062 150.957031 15.195312 150.820312 C 15.390625 150.644531 15.527344 150.175781 15.585938 149.414062 L 14.882812 149.179688 C 14.84375 149.726562 14.785156 150.058594 14.707031 150.175781 C 14.628906 150.253906 14.492188 150.3125 14.316406 150.3125 L 13.105469 150.3125 C 12.832031 150.3125 12.695312 150.136719 12.695312 149.824219 L 12.695312 147.988281 L 11.933594 147.988281 L 11.933594 150 C 11.933594 150.683594 12.246094 151.035156 12.871094 151.035156 Z M 13.710938 147.734375 L 13.144531 148.105469 C 13.554688 148.59375 13.886719 149.023438 14.121094 149.433594 L 14.726562 149.003906 C 14.492188 148.652344 14.140625 148.222656 13.710938 147.734375 Z M 13.710938 147.734375 "/>
<path style=" stroke:none;fill-rule:nonzero;fill:rgb(0%,0%,0%);fill-opacity:1;" d="M 20.527344 146.210938 C 19.765625 147.03125 18.90625 147.753906 17.96875 148.359375 L 18.222656 149.21875 C 19.082031 148.574219 19.84375 147.890625 20.527344 147.167969 L 20.527344 151.09375 L 21.328125 151.09375 L 21.328125 140.878906 L 20.527344 140.878906 Z M 18.886719 141.992188 L 18.125 142.246094 C 18.554688 143.085938 18.945312 144.082031 19.296875 145.214844 L 20 144.882812 C 19.6875 143.867188 19.316406 142.890625 18.886719 141.992188 Z M 26.484375 141.035156 L 25.839844 141.425781 C 26.425781 142.089844 26.914062 142.695312 27.246094 143.261719 L 27.871094 142.8125 C 27.539062 142.304688 27.089844 141.699219 26.484375 141.035156 Z M 25.234375 140.839844 L 24.433594 140.839844 C 24.433594 141.523438 24.414062 142.539062 24.375 143.828125 L 22.070312 143.828125 L 22.070312 144.609375 L 24.335938 144.609375 C 24.101562 146.835938 23.242188 148.808594 21.738281 150.488281 L 22.265625 151.09375 C 23.554688 149.726562 24.433594 148.027344 24.921875 145.976562 C 25.410156 148.027344 26.367188 149.726562 27.773438 151.074219 L 28.339844 150.46875 C 26.777344 149.082031 25.761719 147.128906 25.292969 144.609375 L 27.949219 144.609375 L 27.949219 143.828125 L 25.195312 143.828125 C 25.214844 142.65625 25.234375 141.679688 25.234375 140.839844 Z M 25.234375 140.839844 "/>
<path style=" stroke:none;fill-rule:nonzero;fill:rgb(0%,0%,0%);fill-opacity:1;" d="M 33.964844 140.703125 C 33.925781 141.152344 33.828125 141.582031 33.710938 141.992188 L 29.746094 141.992188 L 29.746094 142.773438 L 33.4375 142.773438 C 33.222656 143.203125 32.988281 143.59375 32.65625 143.945312 C 31.953125 144.6875 30.800781 145.273438 29.199219 145.664062 L 29.511719 146.40625 C 30.859375 146.054688 31.914062 145.605469 32.65625 145.058594 C 33.203125 145.46875 33.75 145.957031 34.277344 146.503906 L 34.84375 145.9375 C 34.238281 145.390625 33.691406 144.941406 33.203125 144.589844 C 33.242188 144.550781 33.28125 144.511719 33.320312 144.472656 C 33.730469 143.984375 34.0625 143.417969 34.316406 142.773438 L 34.492188 142.773438 C 35.058594 144.296875 36.5625 145.507812 39.0625 146.386719 L 39.492188 145.683594 C 37.246094 144.980469 35.859375 144.023438 35.3125 142.773438 L 38.90625 142.773438 L 38.90625 141.992188 L 34.570312 141.992188 C 34.648438 141.601562 34.726562 141.210938 34.785156 140.78125 Z M 30.351562 147.363281 C 30.136719 148.359375 29.804688 149.296875 29.316406 150.117188 L 30.019531 150.566406 C 30.507812 149.707031 30.878906 148.691406 31.152344 147.519531 Z M 34.628906 146.953125 L 33.90625 147.167969 C 34.277344 147.753906 34.609375 148.417969 34.921875 149.160156 L 35.664062 148.847656 C 35.371094 148.164062 35.019531 147.539062 34.628906 146.953125 Z M 37.988281 147.1875 L 37.207031 147.441406 C 37.734375 148.242188 38.222656 149.160156 38.652344 150.214844 L 39.394531 149.882812 C 39.003906 148.925781 38.535156 148.027344 37.988281 147.1875 Z M 35.917969 150.898438 C 36.347656 150.898438 36.660156 150.78125 36.855469 150.605469 C 37.089844 150.371094 37.246094 149.765625 37.324219 148.75 L 36.5625 148.496094 C 36.503906 149.277344 36.425781 149.746094 36.289062 149.902344 C 36.191406 150.039062 36.015625 150.097656 35.78125 150.097656 L 33.320312 150.097656 C 32.988281 150.097656 32.832031 149.941406 32.832031 149.589844 L 32.832031 147.324219 L 31.992188 147.324219 L 31.992188 149.765625 C 31.992188 150.507812 32.34375 150.898438 33.066406 150.898438 Z M 35.917969 150.898438 "/>
<path style=" stroke:none;fill-rule:nonzero;fill:rgb(0%,0%,0%);fill-opacity:1;" d="M 21.796875 165 L 21.796875 164.726562 C 20.996094 164.609375 20.800781 164.492188 20.800781 163.90625 L 20.800781 158.515625 C 20.800781 157.910156 21.035156 157.734375 21.796875 157.675781 L 21.796875 157.402344 L 17.988281 157.402344 L 17.988281 157.675781 C 18.769531 157.734375 18.984375 157.871094 18.984375 158.515625 L 18.984375 160.800781 L 16.269531 160.800781 L 16.269531 158.515625 C 16.269531 157.871094 16.484375 157.734375 17.285156 157.675781 L 17.285156 157.402344 L 13.496094 157.402344 L 13.496094 157.675781 C 14.257812 157.734375 14.453125 157.890625 14.453125 158.515625 L 14.453125 163.90625 C 14.453125 164.492188 14.277344 164.609375 13.496094 164.726562 L 13.496094 165 L 17.285156 165 L 17.285156 164.726562 C 16.464844 164.628906 16.269531 164.492188 16.269531 163.90625 L 16.269531 161.328125 L 18.984375 161.328125 L 18.984375 163.90625 C 18.984375 164.472656 18.808594 164.628906 17.988281 164.726562 L 17.988281 165 Z M 21.796875 165 "/>
<path style=" stroke:none;fill-rule:nonzero;fill:rgb(0%,0%,0%);fill-opacity:1;" d="M 24.242188 165.546875 L 23.636719 165.546875 L 23.851562 164.765625 C 23.851562 164.746094 23.851562 164.707031 23.851562 164.707031 C 23.851562 164.667969 23.832031 164.648438 23.792969 164.648438 C 23.753906 164.648438 23.714844 164.667969 23.675781 164.726562 C 23.402344 165.136719 22.914062 165.488281 22.679688 165.546875 C 22.503906 165.585938 22.445312 165.644531 22.445312 165.742188 C 22.445312 165.742188 22.445312 165.761719 22.445312 165.78125 L 23.011719 165.78125 L 22.425781 168.007812 C 22.367188 168.242188 22.308594 168.476562 22.308594 168.554688 C 22.308594 168.75 22.445312 168.828125 22.640625 168.828125 C 23.03125 168.828125 23.265625 168.613281 23.714844 167.929688 L 23.617188 167.871094 C 23.246094 168.339844 23.128906 168.457031 23.011719 168.457031 C 22.953125 168.457031 22.894531 168.4375 22.894531 168.339844 C 22.894531 168.320312 22.914062 168.261719 22.914062 168.242188 L 23.558594 165.78125 L 24.203125 165.78125 Z M 24.242188 165.546875 "/>
<path style=" stroke:none;fill-rule:nonzero;fill:rgb(0%,0%,0%);fill-opacity:1;" d="M 28.75 167.109375 L 28.75 166.601562 L 24.589844 166.601562 L 24.589844 167.109375 Z M 28.75 167.109375 "/>
<path style=" stroke:none;fill-rule:nonzero;fill:rgb(0%,0%,0%);fill-opacity:1;" d="M 32.1875 168.75 L 32.1875 168.632812 C 31.621094 168.632812 31.484375 168.496094 31.484375 168.183594 L 31.484375 163.710938 L 31.40625 163.671875 L 30.078125 164.355469 L 30.078125 164.472656 L 30.273438 164.394531 C 30.410156 164.335938 30.527344 164.296875 30.605469 164.296875 C 30.761719 164.296875 30.839844 164.414062 30.839844 164.667969 L 30.839844 168.046875 C 30.839844 168.457031 30.683594 168.613281 30.117188 168.632812 L 30.117188 168.75 Z M 32.1875 168.75 "/>
<path style=" stroke:none;fill-rule:nonzero;fill:rgb(40%,74.901961%,100%);fill-opacity:1;" d="M 324.929688 136.25 L 359.929688 136.25 L 359.929688 116.25 L 324.929688 116.25 Z M 324.929688 136.25 "/>
<path style="fill:none;stroke-width:1;stroke-linecap:round;stroke-linejoin:round;stroke:rgb(0%,0%,0%);stroke-opacity:1;stroke-miterlimit:10;" d="M 493.94375 320 L 521.94375 320 L 521.94375 336 L 493.94375 336 Z M 493.94375 320 " transform="matrix(1.25,0,0,1.25,-292.5,-283.75)"/>
<path style=" stroke:none;fill-rule:nonzero;fill:rgb(0%,0%,0%);fill-opacity:1;" d="M 346.285156 123.976562 L 346.128906 124.816406 L 344.664062 124.816406 C 344.945312 125.222656 345.09375 125.730469 345.09375 126.339844 C 345.09375 127.292969 344.808594 128.132812 344.253906 128.859375 C 343.691406 129.589844 342.929688 129.953125 341.96875 129.953125 C 341.226562 129.953125 340.640625 129.738281 340.210938 129.308594 C 339.789062 128.867188 339.585938 128.292969 339.585938 127.589844 C 339.585938 126.550781 339.867188 125.671875 340.445312 124.953125 C 341.03125 124.226562 341.78125 123.859375 342.710938 123.859375 C 343.007812 123.859375 343.28125 123.898438 343.53125 123.976562 Z M 340.582031 127.570312 C 340.582031 128.039062 340.703125 128.425781 340.953125 128.722656 C 341.195312 129.023438 341.539062 129.171875 341.96875 129.171875 C 342.632812 129.171875 343.148438 128.859375 343.53125 128.234375 C 343.90625 127.597656 344.097656 126.953125 344.097656 126.300781 C 344.097656 125.753906 343.96875 125.339844 343.726562 125.050781 C 343.492188 124.765625 343.164062 124.621094 342.75 124.621094 C 342.085938 124.621094 341.558594 124.921875 341.167969 125.519531 C 340.777344 126.121094 340.582031 126.804688 340.582031 127.570312 Z M 340.582031 127.570312 "/>
<path style="fill:none;stroke-width:1;stroke-linecap:round;stroke-linejoin:round;stroke:rgb(0%,0%,0%);stroke-opacity:1;stroke-miterlimit:10;" d="M 368.640625 351.8875 L 501.98125 351.996875 C 505.29375 351.996875 507.984375 349.3125 507.984375 346 C 507.984375 345.99375 507.984375 345.9875 507.984375 345.98125 L 507.975 341.9 " transform="matrix(1.25,0,0,1.25,-292.5,-283.75)"/>
<path style="fill:none;stroke-width:1;stroke-linecap:butt;stroke-linejoin:miter;stroke:rgb(0%,0%,0%);stroke-opacity:1;stroke-miterlimit:10;" d="M 507.96875 337.9 L 507.975 341.9 M 506.475 341.903125 L 507.96875 337.9 L 509.475 341.9 " transform="matrix(1.25,0,0,1.25,-292.5,-283.75)"/>
<path style="fill:none;stroke-width:1;stroke-linecap:round;stroke-linejoin:round;stroke:rgb(0%,0%,0%);stroke-opacity:1;stroke-miterlimit:10;" d="M 507.91875 320 L 507.88125 307.9 " transform="matrix(1.25,0,0,1.25,-292.5,-283.75)"/>
<path style="fill:none;stroke-width:1;stroke-linecap:butt;stroke-linejoin:miter;stroke:rgb(0%,0%,0%);stroke-opacity:1;stroke-miterlimit:10;" d="M 507.871875 303.9 L 507.88125 307.9 M 506.38125 307.90625 L 507.871875 303.9 L 509.38125 307.89375 " transform="matrix(1.25,0,0,1.25,-292.5,-283.75)"/>
<path style=" stroke:none;fill-rule:nonzero;fill:rgb(0%,0%,0%);fill-opacity:1;" d="M 327.957031 56.445312 L 327.957031 58.105469 L 326.84375 58.105469 C 327.117188 57.382812 327.390625 56.5625 327.625 55.644531 L 329.792969 55.644531 L 329.792969 54.882812 L 327.820312 54.882812 C 327.917969 54.433594 328.015625 53.945312 328.132812 53.4375 L 327.390625 53.28125 C 327.273438 53.828125 327.175781 54.375 327.058594 54.882812 L 325.945312 54.882812 L 325.945312 55.644531 L 326.882812 55.644531 C 326.628906 56.640625 326.355469 57.5 326.023438 58.164062 L 326.199219 58.847656 L 327.957031 58.847656 L 327.957031 60.527344 C 327.292969 60.644531 326.609375 60.761719 325.867188 60.839844 L 325.964844 61.640625 C 326.648438 61.523438 327.3125 61.425781 327.957031 61.289062 L 327.957031 63.632812 L 328.699219 63.632812 L 328.699219 61.132812 L 329.773438 60.859375 L 329.773438 60.097656 C 329.441406 60.175781 329.089844 60.273438 328.699219 60.371094 L 328.699219 58.847656 L 329.734375 58.847656 L 329.734375 58.105469 L 328.699219 58.105469 L 328.699219 56.445312 Z M 331.277344 55.859375 L 331.277344 56.523438 L 334.5 56.523438 L 334.5 55.859375 L 331.277344 55.859375 C 331.84375 55.3125 332.390625 54.707031 332.917969 54.0625 C 333.777344 55.15625 334.734375 56.09375 335.789062 56.855469 L 336.21875 56.230469 C 335.203125 55.507812 334.207031 54.550781 333.210938 53.339844 L 332.644531 53.339844 C 331.726562 54.453125 330.691406 55.449219 329.539062 56.289062 L 329.988281 56.972656 C 330.417969 56.621094 330.847656 56.25 331.277344 55.859375 Z M 332.058594 63.554688 C 332.605469 63.554688 332.898438 63.261719 332.898438 62.675781 L 332.898438 57.421875 L 330.242188 57.421875 L 330.242188 63.632812 L 330.945312 63.632812 L 330.945312 61.523438 L 332.214844 61.523438 L 332.214844 62.539062 C 332.214844 62.773438 332.078125 62.910156 331.84375 62.910156 L 331.335938 62.890625 L 331.511719 63.554688 Z M 330.945312 60.898438 L 330.945312 59.824219 L 332.214844 59.824219 L 332.214844 60.898438 Z M 330.945312 59.199219 L 330.945312 58.085938 L 332.214844 58.085938 L 332.214844 59.199219 Z M 333.5625 57.734375 L 333.5625 61.777344 L 334.207031 61.777344 L 334.207031 57.734375 Z M 334.792969 63.574219 C 335.339844 63.574219 335.613281 63.242188 335.613281 62.597656 L 335.613281 57.226562 L 334.910156 57.226562 L 334.910156 62.421875 C 334.910156 62.734375 334.792969 62.910156 334.539062 62.910156 C 334.265625 62.910156 333.972656 62.890625 333.679688 62.851562 L 333.835938 63.574219 Z M 334.792969 63.574219 "/>
<path style=" stroke:none;fill-rule:nonzero;fill:rgb(0%,0%,0%);fill-opacity:1;" d="M 345.300781 57.226562 L 342.664062 57.226562 L 342.664062 53.300781 L 341.84375 53.300781 L 341.84375 57.226562 L 339.207031 57.226562 L 339.207031 54.160156 L 338.386719 54.160156 L 338.386719 58.007812 L 341.84375 58.007812 L 341.84375 62.148438 L 338.660156 62.148438 L 338.660156 59.0625 L 337.839844 59.0625 L 337.839844 63.554688 L 338.660156 63.554688 L 338.660156 62.910156 L 345.847656 62.910156 L 345.847656 63.554688 L 346.667969 63.554688 L 346.667969 59.0625 L 345.847656 59.0625 L 345.847656 62.148438 L 342.664062 62.148438 L 342.664062 58.007812 L 346.121094 58.007812 L 346.121094 54.160156 L 345.300781 54.160156 Z M 345.300781 57.226562 "/>
<path style=" stroke:none;fill-rule:nonzero;fill:rgb(0%,0%,0%);fill-opacity:1;" d="M 356.882812 63.535156 C 357.625 63.535156 357.996094 63.144531 357.996094 62.382812 L 357.996094 53.886719 L 352.878906 53.886719 L 352.878906 54.628906 L 357.214844 54.628906 L 357.214844 62.167969 C 357.214844 62.597656 357.039062 62.8125 356.707031 62.8125 L 355.710938 62.773438 L 355.90625 63.535156 Z M 348.992188 55.175781 L 348.992188 63.632812 L 349.773438 63.632812 L 349.773438 55.175781 Z M 350.632812 53.203125 L 349.890625 53.535156 C 350.398438 54.140625 350.867188 54.84375 351.296875 55.625 L 352.019531 55.234375 C 351.609375 54.492188 351.140625 53.828125 350.632812 53.203125 Z M 350.632812 53.203125 "/>
<path style=" stroke:none;fill-rule:nonzero;fill:rgb(0%,0%,0%);fill-opacity:1;" d="M 345.195312 73.730469 C 345.195312 71.40625 343.535156 69.726562 341.269531 69.726562 C 338.925781 69.726562 337.226562 71.347656 337.226562 73.75 C 337.226562 76.074219 338.867188 77.714844 341.191406 77.714844 C 343.535156 77.714844 345.195312 76.074219 345.195312 73.730469 Z M 343.203125 73.808594 C 343.203125 76.132812 342.519531 77.34375 341.230469 77.34375 C 339.941406 77.34375 339.21875 76.152344 339.21875 73.789062 C 339.21875 71.425781 339.921875 70.097656 341.171875 70.097656 C 342.480469 70.097656 343.203125 71.40625 343.203125 73.808594 Z M 343.203125 73.808594 "/>
<path style=" stroke:none;fill-rule:nonzero;fill:rgb(0%,0%,0%);fill-opacity:1;" d="M 347.8125 78.046875 L 347.207031 78.046875 L 347.421875 77.265625 C 347.421875 77.246094 347.421875 77.207031 347.421875 77.207031 C 347.421875 77.167969 347.402344 77.148438 347.363281 77.148438 C 347.324219 77.148438 347.285156 77.167969 347.246094 77.226562 C 346.972656 77.636719 346.484375 77.988281 346.25 78.046875 C 346.074219 78.085938 346.015625 78.144531 346.015625 78.242188 C 346.015625 78.242188 346.015625 78.261719 346.015625 78.28125 L 346.582031 78.28125 L 345.996094 80.507812 C 345.9375 80.742188 345.878906 80.976562 345.878906 81.054688 C 345.878906 81.25 346.015625 81.328125 346.210938 81.328125 C 346.601562 81.328125 346.835938 81.113281 347.285156 80.429688 L 347.1875 80.371094 C 346.816406 80.839844 346.699219 80.957031 346.582031 80.957031 C 346.523438 80.957031 346.464844 80.9375 346.464844 80.839844 C 346.464844 80.820312 346.484375 80.761719 346.484375 80.742188 L 347.128906 78.28125 L 347.773438 78.28125 Z M 347.8125 78.046875 "/>
<path style=" stroke:none;fill-rule:nonzero;fill:rgb(40%,74.901961%,100%);fill-opacity:1;" d="M 7.5 251.25 L 42.5 251.25 L 42.5 231.25 L 7.5 231.25 Z M 7.5 251.25 "/>
<path style="fill:none;stroke-width:1;stroke-linecap:round;stroke-linejoin:round;stroke:rgb(0%,0%,0%);stroke-opacity:1;stroke-miterlimit:10;" d="M 240 412 L 268 412 L 268 428 L 240 428 Z M 240 412 " transform="matrix(1.25,0,0,1.25,-292.5,-283.75)"/>
<path style=" stroke:none;fill-rule:nonzero;fill:rgb(0%,0%,0%);fill-opacity:1;" d="M 28.855469 238.976562 L 28.699219 239.816406 L 27.234375 239.816406 C 27.515625 240.222656 27.664062 240.730469 27.664062 241.339844 C 27.664062 242.292969 27.378906 243.132812 26.824219 243.859375 C 26.261719 244.589844 25.5 244.953125 24.539062 244.953125 C 23.796875 244.953125 23.210938 244.738281 22.78125 244.308594 C 22.359375 243.867188 22.15625 243.292969 22.15625 242.589844 C 22.15625 241.550781 22.4375 240.671875 23.015625 239.953125 C 23.601562 239.226562 24.351562 238.859375 25.28125 238.859375 C 25.578125 238.859375 25.851562 238.898438 26.101562 238.976562 Z M 23.152344 242.570312 C 23.152344 243.039062 23.273438 243.425781 23.523438 243.722656 C 23.765625 244.023438 24.109375 244.171875 24.539062 244.171875 C 25.203125 244.171875 25.71875 243.859375 26.101562 243.234375 C 26.476562 242.597656 26.667969 241.953125 26.667969 241.300781 C 26.667969 240.753906 26.539062 240.339844 26.296875 240.050781 C 26.0625 239.765625 25.734375 239.621094 25.320312 239.621094 C 24.65625 239.621094 24.128906 239.921875 23.738281 240.519531 C 23.347656 241.121094 23.152344 241.804688 23.152344 242.570312 Z M 23.152344 242.570312 "/>
<path style="fill:none;stroke-width:1;stroke-linecap:round;stroke-linejoin:round;stroke:rgb(0%,0%,0%);stroke-opacity:1;stroke-miterlimit:10;" d="M 460 416 L 482.1 416 " transform="matrix(1.25,0,0,1.25,-292.5,-283.75)"/>
<path style="fill:none;stroke-width:1;stroke-linecap:butt;stroke-linejoin:miter;stroke:rgb(0%,0%,0%);stroke-opacity:1;stroke-miterlimit:10;" d="M 486.1 416 L 482.1 416 M 482.1 414.5 L 486.1 416 L 482.1 417.5 " transform="matrix(1.25,0,0,1.25,-292.5,-283.75)"/>
<path style="fill:none;stroke-width:1;stroke-linecap:round;stroke-linejoin:round;stroke:rgb(0%,0%,0%);stroke-opacity:1;stroke-miterlimit:10;" d="M 469 428 L 469 422 C 469 418.6875 471.6875 416 475 416 L 485.7875 416 " transform="matrix(1.25,0,0,1.25,-292.5,-283.75)"/>
<path style="fill:none;stroke-width:1;stroke-linecap:round;stroke-linejoin:round;stroke:rgb(0%,0%,0%);stroke-opacity:1;stroke-miterlimit:10;" d="M 380 427 L 402.1 427 " transform="matrix(1.25,0,0,1.25,-292.5,-283.75)"/>
<path style="fill:none;stroke-width:1;stroke-linecap:butt;stroke-linejoin:miter;stroke:rgb(0%,0%,0%);stroke-opacity:1;stroke-miterlimit:10;" d="M 406.1 427 L 402.1 427 M 402.1 425.5 L 406.1 427 L 402.1 428.5 " transform="matrix(1.25,0,0,1.25,-292.5,-283.75)"/>
<path style="fill:none;stroke-width:1;stroke-linecap:round;stroke-linejoin:round;stroke:rgb(0%,0%,0%);stroke-opacity:1;stroke-miterlimit:10;" d="M 380 427 L 386 427 C 389.3125 427 392 424.3125 392 421 L 392 416.9 " transform="matrix(1.25,0,0,1.25,-292.5,-283.75)"/>
<path style="fill:none;stroke-width:1;stroke-linecap:butt;stroke-linejoin:miter;stroke:rgb(0%,0%,0%);stroke-opacity:1;stroke-miterlimit:10;" d="M 392 412.9 L 392 416.9 M 390.5 416.9 L 392 412.9 L 393.5 416.9 " transform="matrix(1.25,0,0,1.25,-292.5,-283.75)"/>
<path style=" stroke:none;fill-rule:nonzero;fill:rgb(0%,0%,0%);fill-opacity:1;" d="M 64.375 232.050781 L 64.375 232.832031 L 66.054688 232.832031 L 66.054688 234.023438 L 66.796875 234.023438 L 66.796875 232.832031 L 68.945312 232.832031 L 68.945312 234.0625 L 69.726562 234.0625 L 69.726562 232.832031 L 71.894531 232.832031 L 71.894531 234.023438 L 72.65625 234.023438 L 72.65625 232.832031 L 74.375 232.832031 L 74.375 232.050781 L 72.65625 232.050781 L 72.65625 230.898438 L 71.894531 230.898438 L 71.894531 232.050781 L 69.726562 232.050781 L 69.726562 230.859375 L 68.945312 230.859375 L 68.945312 232.050781 L 66.796875 232.050781 L 66.796875 230.898438 L 66.054688 230.898438 L 66.054688 232.050781 Z M 74.003906 234.707031 L 64.746094 234.707031 L 64.746094 236.914062 L 65.527344 236.914062 L 65.527344 235.46875 L 68.945312 235.46875 L 68.945312 236.699219 L 66.132812 236.699219 L 66.132812 240.371094 L 66.914062 240.371094 L 66.914062 237.460938 L 68.945312 237.460938 L 68.945312 241.132812 L 69.765625 241.132812 L 69.765625 237.460938 L 71.875 237.460938 L 71.875 239.199219 C 71.875 239.472656 71.757812 239.609375 71.503906 239.609375 L 70.527344 239.570312 L 70.742188 240.351562 L 71.757812 240.351562 C 72.363281 240.351562 72.675781 240.019531 72.675781 239.355469 L 72.675781 236.699219 L 69.765625 236.699219 L 69.765625 235.46875 L 73.203125 235.46875 L 73.203125 236.875 L 74.003906 236.875 Z M 74.003906 234.707031 "/>
<path style=" stroke:none;fill-rule:nonzero;fill:rgb(0%,0%,0%);fill-opacity:1;" d="M 78.203125 231.796875 L 78.203125 235.3125 L 79.179688 235.3125 L 79.511719 236.269531 L 77.773438 236.269531 L 77.773438 236.953125 L 78.886719 236.953125 C 78.769531 237.8125 78.613281 238.496094 78.417969 239.003906 C 78.203125 239.550781 77.871094 240.039062 77.421875 240.488281 L 77.910156 241.132812 C 78.4375 240.605469 78.828125 240.019531 79.101562 239.355469 C 79.199219 239.101562 79.277344 238.828125 79.355469 238.496094 L 80.742188 238.496094 C 80.722656 239.277344 80.683594 239.765625 80.625 239.980469 C 80.566406 240.195312 80.371094 240.292969 80.078125 240.3125 L 79.394531 240.3125 L 79.589844 241.015625 L 80.292969 241.015625 C 80.742188 240.996094 81.074219 240.839844 81.25 240.507812 C 81.425781 240.195312 81.523438 239.296875 81.523438 237.832031 L 79.492188 237.832031 C 79.53125 237.558594 79.570312 237.285156 79.628906 236.953125 L 81.875 236.953125 L 81.875 236.269531 L 80.273438 236.269531 L 79.941406 235.3125 L 81.386719 235.3125 L 81.835938 235.859375 C 81.972656 235.664062 82.128906 235.429688 82.285156 235.175781 C 82.539062 236.347656 82.890625 237.382812 83.320312 238.261719 C 82.890625 239.121094 82.324219 239.824219 81.621094 240.390625 L 82.050781 241.09375 C 82.734375 240.546875 83.300781 239.863281 83.75 239.0625 C 84.21875 239.882812 84.765625 240.527344 85.390625 241.015625 L 85.859375 240.332031 C 85.175781 239.863281 84.609375 239.160156 84.121094 238.28125 C 84.6875 237.011719 84.980469 235.449219 85.039062 233.613281 L 85.683594 233.613281 L 85.683594 232.851562 L 83.242188 232.851562 C 83.398438 232.265625 83.535156 231.621094 83.632812 230.9375 L 82.890625 230.800781 C 82.636719 232.5 82.207031 233.886719 81.5625 234.941406 L 81.5625 231.796875 L 80.078125 231.796875 C 80.195312 231.503906 80.292969 231.210938 80.351562 230.898438 L 79.550781 230.78125 C 79.492188 231.132812 79.414062 231.464844 79.296875 231.796875 Z M 82.734375 234.277344 C 82.832031 234.0625 82.910156 233.828125 83.007812 233.613281 L 84.296875 233.613281 C 84.277344 235.058594 84.0625 236.328125 83.691406 237.402344 C 83.300781 236.503906 82.988281 235.46875 82.734375 234.277344 Z M 80.859375 234.707031 L 78.90625 234.707031 L 78.90625 233.886719 L 80.859375 233.886719 Z M 78.90625 233.28125 L 78.90625 232.402344 L 80.859375 232.402344 L 80.859375 233.28125 Z M 76.09375 231.015625 L 75.566406 231.523438 C 76.308594 232.070312 76.875 232.597656 77.304688 233.085938 L 77.832031 232.578125 C 77.34375 232.050781 76.777344 231.542969 76.09375 231.015625 Z M 75.9375 233.75 L 75.390625 234.277344 C 76.074219 234.84375 76.601562 235.371094 77.011719 235.898438 L 77.539062 235.351562 C 77.109375 234.804688 76.5625 234.277344 75.9375 233.75 Z M 76.953125 237.089844 C 76.542969 238.320312 76.09375 239.53125 75.546875 240.722656 L 76.269531 241.015625 C 76.757812 239.882812 77.226562 238.652344 77.636719 237.34375 Z M 76.953125 237.089844 "/>
<path style=" stroke:none;fill-rule:nonzero;fill:rgb(0%,0%,0%);fill-opacity:1;" d="M 89.707031 234.082031 L 89.707031 234.863281 L 92.929688 234.863281 L 92.929688 236.601562 L 90.46875 236.601562 L 90.46875 241.132812 L 91.269531 241.132812 L 91.269531 240.507812 L 95.488281 240.507812 L 95.488281 241.113281 L 96.289062 241.113281 L 96.289062 236.601562 L 93.75 236.601562 L 93.75 234.863281 L 96.992188 234.863281 L 96.992188 234.082031 L 93.75 234.082031 L 93.75 232.207031 C 94.785156 232.070312 95.683594 231.855469 96.464844 231.582031 L 96.074219 230.878906 C 94.453125 231.425781 92.402344 231.699219 89.960938 231.699219 L 90.195312 232.441406 C 91.171875 232.441406 92.070312 232.402344 92.929688 232.324219 L 92.929688 234.082031 Z M 91.269531 239.746094 L 91.269531 237.363281 L 95.488281 237.363281 L 95.488281 239.746094 Z M 87.675781 230.957031 L 87.128906 231.503906 C 87.929688 232.03125 88.574219 232.539062 89.042969 233.007812 L 89.589844 232.460938 C 89.082031 231.953125 88.4375 231.464844 87.675781 230.957031 Z M 87.421875 233.652344 L 86.855469 234.199219 C 87.675781 234.785156 88.320312 235.351562 88.789062 235.878906 L 89.355469 235.3125 C 88.828125 234.765625 88.183594 234.199219 87.421875 233.652344 Z M 88.75 236.640625 C 88.28125 238.007812 87.695312 239.335938 87.050781 240.644531 L 87.851562 240.996094 C 88.4375 239.726562 88.984375 238.359375 89.472656 236.933594 Z M 88.75 236.640625 "/>
<path style=" stroke:none;fill-rule:nonzero;fill:rgb(0%,0%,0%);fill-opacity:1;" d="M 99.882812 238.632812 C 100.957031 237.949219 101.972656 237.148438 102.929688 236.230469 L 102.929688 237.96875 C 102.929688 238.339844 102.773438 238.515625 102.460938 238.515625 C 102.128906 238.515625 101.816406 238.496094 101.523438 238.496094 L 101.738281 239.238281 L 102.753906 239.238281 C 103.359375 239.238281 103.671875 238.90625 103.671875 238.261719 L 103.671875 236.367188 C 104.355469 236.894531 105.195312 237.617188 106.171875 238.574219 L 106.640625 237.871094 C 105.625 236.992188 104.648438 236.230469 103.671875 235.546875 L 103.671875 233.828125 C 104.785156 233.222656 105.78125 232.617188 106.679688 231.992188 L 106.679688 231.230469 L 99.707031 231.230469 L 99.707031 231.992188 L 105.46875 231.992188 C 104.902344 232.363281 104.0625 232.832031 102.929688 233.378906 L 102.929688 235.3125 C 101.855469 236.328125 100.761719 237.167969 99.589844 237.832031 Z M 106.875 233.28125 L 106.875 239.765625 L 99.375 239.765625 L 99.375 233.28125 L 98.59375 233.28125 L 98.59375 241.132812 L 99.375 241.132812 L 99.375 240.507812 L 106.875 240.507812 L 106.875 241.152344 L 107.65625 241.152344 L 107.65625 233.28125 Z M 100.585938 233.632812 L 100 234.003906 C 100.644531 234.628906 101.171875 235.175781 101.5625 235.703125 L 102.1875 235.273438 C 101.816406 234.804688 101.289062 234.257812 100.585938 233.632812 Z M 105.703125 233.554688 C 105.292969 234.238281 104.765625 234.84375 104.179688 235.332031 L 104.765625 235.742188 C 105.371094 235.214844 105.917969 234.589844 106.367188 233.867188 Z M 105.703125 233.554688 "/>
<path style=" stroke:none;fill-rule:nonzero;fill:rgb(0%,0%,0%);fill-opacity:1;" d="M 116.152344 233.300781 L 117.8125 233.300781 C 117.773438 234.824219 117.539062 236.152344 117.089844 237.285156 C 116.640625 236.347656 116.289062 235.214844 116.015625 233.886719 Z M 116.71875 238.105469 C 116.210938 239.0625 115.527344 239.824219 114.648438 240.429688 L 115.058594 241.113281 C 115.898438 240.507812 116.601562 239.746094 117.148438 238.847656 C 117.695312 239.804688 118.378906 240.566406 119.160156 241.132812 L 119.609375 240.46875 C 118.789062 239.902344 118.105469 239.140625 117.519531 238.125 C 118.164062 236.796875 118.496094 235.175781 118.554688 233.300781 L 119.296875 233.300781 L 119.296875 232.539062 L 116.328125 232.539062 C 116.40625 232.03125 116.503906 231.503906 116.5625 230.917969 L 115.78125 230.78125 C 115.546875 232.929688 115.097656 234.628906 114.433594 235.878906 L 114.941406 236.503906 C 115.175781 236.09375 115.410156 235.644531 115.605469 235.117188 C 115.917969 236.25 116.289062 237.226562 116.71875 238.105469 Z M 111.386719 236.035156 C 111.308594 236.269531 111.230469 236.503906 111.132812 236.757812 L 109.472656 236.757812 L 109.472656 237.460938 L 110.800781 237.460938 C 110.585938 237.910156 110.332031 238.359375 110.039062 238.867188 C 110.585938 239.0625 111.09375 239.277344 111.601562 239.492188 C 110.9375 239.863281 110.136719 240.175781 109.21875 240.410156 L 109.609375 241.09375 C 110.722656 240.78125 111.660156 240.351562 112.402344 239.84375 C 113.066406 240.136719 113.652344 240.429688 114.140625 240.722656 L 114.570312 240.097656 C 114.082031 239.824219 113.574219 239.589844 113.027344 239.335938 C 113.613281 238.789062 114.023438 238.164062 114.277344 237.421875 L 114.277344 236.757812 L 111.914062 236.757812 C 111.992188 236.542969 112.070312 236.347656 112.148438 236.132812 Z M 112.285156 239.023438 C 111.875 238.847656 111.445312 238.691406 110.996094 238.535156 C 111.230469 238.203125 111.425781 237.832031 111.601562 237.460938 L 113.535156 237.460938 C 113.28125 238.046875 112.851562 238.574219 112.285156 239.023438 Z M 110.371094 231.015625 L 109.726562 231.230469 C 110 231.660156 110.253906 232.148438 110.488281 232.695312 L 111.074219 232.421875 C 110.859375 231.933594 110.644531 231.464844 110.371094 231.015625 Z M 113.789062 230.996094 C 113.59375 231.464844 113.300781 231.933594 112.929688 232.421875 L 113.515625 232.714844 C 113.867188 232.246094 114.140625 231.757812 114.375 231.25 Z M 109.511719 232.96875 L 109.511719 233.671875 L 111.09375 233.671875 C 110.761719 234.296875 110.15625 234.863281 109.296875 235.371094 L 109.6875 236.015625 C 110.644531 235.371094 111.328125 234.609375 111.699219 233.710938 L 111.699219 235.839844 L 112.460938 235.839844 L 112.460938 234.394531 C 112.851562 234.648438 113.339844 235.019531 113.90625 235.46875 L 114.316406 234.84375 C 113.691406 234.453125 113.066406 234.101562 112.460938 233.808594 L 112.460938 233.671875 L 114.492188 233.671875 L 114.492188 232.96875 L 112.460938 232.96875 L 112.460938 230.820312 L 111.699219 230.820312 L 111.699219 232.96875 Z M 109.511719 232.96875 "/>
<path style=" stroke:none;fill-rule:nonzero;fill:rgb(0%,0%,0%);fill-opacity:1;" d="M 124.550781 232.753906 L 122.734375 232.753906 C 122.949219 232.1875 123.125 231.582031 123.261719 230.917969 L 122.460938 230.800781 C 122.34375 231.464844 122.1875 232.128906 121.972656 232.753906 L 120.917969 232.753906 L 120.917969 240.761719 L 121.71875 240.761719 L 121.71875 239.785156 L 123.75 239.785156 L 123.75 240.429688 L 124.550781 240.429688 Z M 121.71875 239.023438 L 121.71875 236.5625 L 123.75 236.5625 L 123.75 239.023438 Z M 121.71875 235.839844 L 121.71875 233.515625 L 123.75 233.515625 L 123.75 235.839844 Z M 126.503906 235.371094 L 125.859375 235.761719 C 126.621094 236.699219 127.246094 237.519531 127.714844 238.261719 L 128.339844 237.8125 C 127.929688 237.128906 127.304688 236.289062 126.503906 235.371094 Z M 130.351562 232.773438 L 126.777344 232.773438 C 126.972656 232.1875 127.128906 231.542969 127.265625 230.878906 L 126.464844 230.78125 C 126.171875 232.382812 125.644531 233.730469 124.863281 234.84375 L 125.351562 235.46875 C 125.78125 234.902344 126.152344 234.257812 126.464844 233.554688 L 129.570312 233.554688 C 129.53125 236.796875 129.492188 238.730469 129.433594 239.375 C 129.335938 239.941406 129.042969 240.234375 128.496094 240.234375 C 128.164062 240.234375 127.753906 240.234375 127.285156 240.195312 L 127.460938 240.9375 C 128.007812 240.976562 128.398438 240.996094 128.613281 240.996094 C 129.570312 240.996094 130.078125 240.546875 130.195312 239.6875 C 130.3125 238.828125 130.351562 236.503906 130.351562 232.773438 Z M 130.351562 232.773438 "/>
<path style=" stroke:none;fill-rule:nonzero;fill:rgb(0%,0%,0%);fill-opacity:1;" d="M 80.332031 247.089844 C 79.023438 248.515625 77.382812 249.707031 75.410156 250.664062 L 75.800781 251.367188 C 77.792969 250.371094 79.394531 249.179688 80.625 247.832031 C 81.953125 249.257812 83.535156 250.410156 85.410156 251.308594 L 85.820312 250.585938 C 83.964844 249.726562 82.34375 248.574219 80.917969 247.089844 Z M 77.480469 250.644531 L 77.480469 251.425781 L 80.214844 251.425781 L 80.214844 253.378906 L 76.953125 253.378906 L 76.953125 254.160156 L 80.214844 254.160156 L 80.214844 256.230469 L 75.9375 256.230469 L 75.9375 257.03125 L 85.3125 257.03125 L 85.3125 256.230469 L 81.035156 256.230469 L 81.035156 254.160156 L 84.296875 254.160156 L 84.296875 253.378906 L 81.035156 253.378906 L 81.035156 251.425781 L 83.769531 251.425781 L 83.769531 250.644531 Z M 77.480469 250.644531 "/>
<path style=" stroke:none;fill-rule:nonzero;fill:rgb(0%,0%,0%);fill-opacity:1;" d="M 87.695312 247.246094 L 87.148438 247.773438 C 87.929688 248.417969 88.574219 249.003906 89.023438 249.550781 L 89.609375 248.984375 C 89.082031 248.398438 88.4375 247.832031 87.695312 247.246094 Z M 94.21875 257.167969 L 96.796875 257.167969 L 96.992188 256.367188 C 96.699219 256.386719 96.269531 256.386719 95.742188 256.40625 C 95.175781 256.425781 94.648438 256.425781 94.121094 256.425781 C 93.242188 256.425781 92.519531 256.425781 91.933594 256.40625 C 91.269531 256.386719 90.78125 256.289062 90.429688 256.132812 C 90.117188 255.996094 89.84375 255.761719 89.570312 255.429688 C 89.472656 255.332031 89.394531 255.234375 89.296875 255.175781 L 89.296875 250.957031 L 86.933594 250.957031 L 86.933594 251.699219 L 88.554688 251.699219 L 88.554688 255.117188 C 88.085938 255.332031 87.558594 255.898438 86.953125 256.855469 L 87.558594 257.402344 C 88.183594 256.367188 88.632812 255.839844 88.886719 255.839844 C 89.023438 255.839844 89.179688 255.9375 89.316406 256.132812 C 89.667969 256.523438 90.058594 256.816406 90.507812 256.953125 C 90.957031 257.070312 91.523438 257.148438 92.246094 257.148438 C 92.949219 257.167969 93.613281 257.167969 94.21875 257.167969 Z M 90.078125 248.222656 L 90.078125 248.964844 L 91.5625 248.964844 C 91.191406 249.765625 90.78125 250.449219 90.332031 250.976562 L 90.507812 251.71875 L 93.105469 251.71875 L 93.105469 253.066406 L 89.980469 253.066406 L 89.980469 253.828125 L 93.105469 253.828125 L 93.105469 255.917969 L 93.886719 255.917969 L 93.886719 253.828125 L 96.816406 253.828125 L 96.816406 253.066406 L 93.886719 253.066406 L 93.886719 251.71875 L 96.328125 251.71875 L 96.328125 250.976562 L 93.886719 250.976562 L 93.886719 249.648438 L 93.105469 249.648438 L 93.105469 250.976562 L 91.289062 250.976562 C 91.699219 250.390625 92.070312 249.726562 92.421875 248.964844 L 96.679688 248.964844 L 96.679688 248.222656 L 92.734375 248.222656 C 92.871094 247.871094 92.988281 247.539062 93.105469 247.167969 L 92.34375 246.972656 C 92.207031 247.402344 92.050781 247.832031 91.894531 248.222656 Z M 90.078125 248.222656 "/>
<path style=" stroke:none;fill-rule:nonzero;fill:rgb(0%,0%,0%);fill-opacity:1;" d="M 103.457031 248.964844 L 102.792969 249.277344 C 103.027344 249.6875 103.242188 250.136719 103.476562 250.625 L 101.757812 250.625 L 101.757812 251.40625 L 108.027344 251.40625 L 108.027344 250.625 L 106.210938 250.625 C 106.464844 250.175781 106.699219 249.667969 106.914062 249.101562 L 106.152344 248.828125 C 105.917969 249.472656 105.664062 250.058594 105.351562 250.625 L 104.257812 250.625 C 104.003906 250.019531 103.75 249.472656 103.457031 248.964844 Z M 104.941406 246.992188 L 104.101562 247.128906 C 104.21875 247.402344 104.355469 247.714844 104.492188 248.066406 L 102.011719 248.066406 L 102.011719 248.808594 L 107.832031 248.808594 L 107.832031 248.066406 L 105.3125 248.066406 C 105.175781 247.675781 105.058594 247.304688 104.941406 246.992188 Z M 99.316406 257.265625 C 99.980469 257.265625 100.332031 256.953125 100.332031 256.289062 L 100.332031 252.96875 C 100.644531 252.8125 100.957031 252.65625 101.269531 252.5 L 101.269531 251.679688 C 100.957031 251.835938 100.644531 251.992188 100.332031 252.148438 L 100.332031 250 L 101.25 250 L 101.25 249.21875 L 100.332031 249.21875 L 100.332031 247.089844 L 99.492188 247.089844 L 99.492188 249.21875 L 98.125 249.21875 L 98.125 250 L 99.492188 250 L 99.492188 252.5 C 98.964844 252.714844 98.4375 252.871094 97.910156 253.007812 L 98.125 253.828125 C 98.574219 253.671875 99.042969 253.496094 99.492188 253.320312 L 99.492188 256.09375 C 99.492188 256.386719 99.335938 256.523438 99.042969 256.523438 C 98.769531 256.523438 98.476562 256.503906 98.183594 256.484375 L 98.339844 257.265625 Z M 103.945312 251.71875 C 103.828125 252.03125 103.691406 252.34375 103.535156 252.675781 L 101.601562 252.675781 L 101.601562 253.476562 L 103.105469 253.476562 C 102.871094 253.90625 102.617188 254.335938 102.304688 254.804688 C 103.085938 255.117188 103.828125 255.410156 104.511719 255.742188 C 103.808594 256.132812 102.792969 256.445312 101.484375 256.679688 L 101.816406 257.421875 C 103.4375 257.109375 104.609375 256.660156 105.351562 256.132812 C 106.25 256.5625 107.03125 256.972656 107.695312 257.382812 L 108.144531 256.738281 C 107.441406 256.328125 106.699219 255.9375 105.917969 255.585938 C 106.445312 255.019531 106.796875 254.296875 106.972656 253.476562 L 108.203125 253.476562 L 108.203125 252.675781 L 104.355469 252.675781 C 104.492188 252.402344 104.609375 252.109375 104.726562 251.796875 Z M 106.210938 253.476562 C 106.035156 254.199219 105.683594 254.785156 105.175781 255.253906 C 104.570312 254.980469 103.945312 254.726562 103.300781 254.472656 C 103.515625 254.160156 103.730469 253.828125 103.925781 253.476562 Z M 106.210938 253.476562 "/>
<path style=" stroke:none;fill-rule:nonzero;fill:rgb(0%,0%,0%);fill-opacity:1;" d="M 112.402344 251.367188 L 112.402344 252.089844 L 118.496094 252.089844 L 118.496094 251.367188 Z M 111.601562 253.203125 L 111.601562 253.945312 L 114.0625 253.945312 C 113.28125 255.214844 112.617188 255.996094 112.128906 256.289062 C 112.070312 256.308594 112.03125 256.347656 111.953125 256.367188 L 112.128906 257.050781 C 114.257812 256.914062 116.210938 256.71875 117.988281 256.484375 C 118.222656 256.757812 118.417969 257.050781 118.613281 257.34375 L 119.257812 256.894531 C 118.769531 256.171875 118.046875 255.3125 117.128906 254.335938 L 116.523438 254.707031 C 116.855469 255.097656 117.1875 255.46875 117.5 255.839844 C 116.054688 256.054688 114.589844 256.210938 113.105469 256.308594 C 113.632812 255.839844 114.238281 255.039062 114.921875 253.945312 L 119.238281 253.945312 L 119.238281 253.203125 Z M 117.871094 248.261719 L 117.871094 249.570312 L 111.25 249.570312 L 111.25 248.261719 Z M 111.25 250.292969 L 118.652344 250.292969 L 118.652344 247.5 L 110.46875 247.5 L 110.46875 251.230469 C 110.449219 253.496094 110.058594 255.332031 109.277344 256.757812 L 109.863281 257.304688 C 110.78125 255.605469 111.25 253.574219 111.25 251.230469 Z M 111.25 250.292969 "/>
<path style=" stroke:none;fill-rule:nonzero;fill:rgb(0%,0%,0%);fill-opacity:1;" d="M 345.195312 235.996094 L 344.648438 236.523438 C 345.429688 237.167969 346.074219 237.753906 346.523438 238.300781 L 347.109375 237.734375 C 346.582031 237.148438 345.9375 236.582031 345.195312 235.996094 Z M 351.71875 245.917969 L 354.296875 245.917969 L 354.492188 245.117188 C 354.199219 245.136719 353.769531 245.136719 353.242188 245.15625 C 352.675781 245.175781 352.148438 245.175781 351.621094 245.175781 C 350.742188 245.175781 350.019531 245.175781 349.433594 245.15625 C 348.769531 245.136719 348.28125 245.039062 347.929688 244.882812 C 347.617188 244.746094 347.34375 244.511719 347.070312 244.179688 C 346.972656 244.082031 346.894531 243.984375 346.796875 243.925781 L 346.796875 239.707031 L 344.433594 239.707031 L 344.433594 240.449219 L 346.054688 240.449219 L 346.054688 243.867188 C 345.585938 244.082031 345.058594 244.648438 344.453125 245.605469 L 345.058594 246.152344 C 345.683594 245.117188 346.132812 244.589844 346.386719 244.589844 C 346.523438 244.589844 346.679688 244.6875 346.816406 244.882812 C 347.167969 245.273438 347.558594 245.566406 348.007812 245.703125 C 348.457031 245.820312 349.023438 245.898438 349.746094 245.898438 C 350.449219 245.917969 351.113281 245.917969 351.71875 245.917969 Z M 347.578125 236.972656 L 347.578125 237.714844 L 349.0625 237.714844 C 348.691406 238.515625 348.28125 239.199219 347.832031 239.726562 L 348.007812 240.46875 L 350.605469 240.46875 L 350.605469 241.816406 L 347.480469 241.816406 L 347.480469 242.578125 L 350.605469 242.578125 L 350.605469 244.667969 L 351.386719 244.667969 L 351.386719 242.578125 L 354.316406 242.578125 L 354.316406 241.816406 L 351.386719 241.816406 L 351.386719 240.46875 L 353.828125 240.46875 L 353.828125 239.726562 L 351.386719 239.726562 L 351.386719 238.398438 L 350.605469 238.398438 L 350.605469 239.726562 L 348.789062 239.726562 C 349.199219 239.140625 349.570312 238.476562 349.921875 237.714844 L 354.179688 237.714844 L 354.179688 236.972656 L 350.234375 236.972656 C 350.371094 236.621094 350.488281 236.289062 350.605469 235.917969 L 349.84375 235.722656 C 349.707031 236.152344 349.550781 236.582031 349.394531 236.972656 Z M 347.578125 236.972656 "/>
<path style=" stroke:none;fill-rule:nonzero;fill:rgb(0%,0%,0%);fill-opacity:1;" d="M 359.628906 243.867188 C 358.496094 244.296875 357.167969 244.628906 355.625 244.882812 L 355.722656 245.664062 C 357.1875 245.390625 358.496094 245.058594 359.628906 244.648438 Z M 357.558594 235.78125 C 357.109375 237.109375 356.5625 238.300781 355.9375 239.335938 C 355.839844 239.472656 355.722656 239.570312 355.605469 239.628906 L 355.800781 240.371094 C 356.445312 240.292969 357.089844 240.195312 357.734375 240.097656 C 357.109375 241.152344 356.582031 241.894531 356.152344 242.324219 C 356.054688 242.421875 355.917969 242.5 355.78125 242.578125 L 355.996094 243.300781 C 357.109375 243.164062 358.28125 242.871094 359.492188 242.460938 L 359.492188 241.738281 C 358.671875 242.011719 357.832031 242.246094 356.972656 242.421875 C 357.65625 241.601562 358.515625 240.253906 359.53125 238.359375 L 358.828125 238.085938 C 358.59375 238.515625 358.378906 238.945312 358.164062 239.335938 C 357.617188 239.433594 357.089844 239.511719 356.5625 239.570312 C 357.148438 238.691406 357.734375 237.539062 358.300781 236.074219 Z M 359.492188 237.207031 L 359.492188 237.988281 L 362.1875 237.988281 L 362.1875 239.648438 L 359.863281 239.648438 L 359.863281 240.449219 L 365.351562 240.449219 L 365.351562 239.648438 L 363.007812 239.648438 L 363.007812 237.988281 L 365.683594 237.988281 L 365.683594 237.207031 L 363.007812 237.207031 L 363.007812 235.839844 L 362.1875 235.839844 L 362.1875 237.207031 Z M 365.039062 241.5625 L 360.234375 241.5625 L 360.234375 246.09375 L 361.035156 246.09375 L 361.035156 245.546875 L 364.238281 245.546875 L 364.238281 246.09375 L 365.039062 246.09375 Z M 361.035156 244.785156 L 361.035156 242.324219 L 364.238281 242.324219 L 364.238281 244.785156 Z M 361.035156 244.785156 "/>
<path style=" stroke:none;fill-rule:nonzero;fill:rgb(0%,0%,0%);fill-opacity:1;" d="M 234.375 237.34375 L 241.328125 237.34375 L 241.328125 236.640625 L 234.746094 236.640625 C 234.863281 236.386719 234.960938 236.113281 235.058594 235.839844 L 234.257812 235.703125 C 233.828125 236.972656 233.046875 238.027344 231.894531 238.90625 L 232.382812 239.53125 C 232.871094 239.160156 233.300781 238.75 233.671875 238.320312 L 233.671875 241.679688 L 235.117188 241.679688 C 234.511719 242.5 233.574219 243.164062 232.265625 243.671875 L 232.695312 244.355469 C 233.28125 244.082031 233.808594 243.789062 234.257812 243.476562 C 234.863281 244.003906 235.566406 244.453125 236.328125 244.824219 C 235.15625 245.15625 233.769531 245.351562 232.148438 245.429688 L 232.460938 246.132812 C 234.355469 246.015625 235.957031 245.722656 237.285156 245.234375 C 238.554688 245.722656 240.039062 246.015625 241.679688 246.09375 L 241.875 245.351562 C 240.546875 245.3125 239.335938 245.117188 238.242188 244.804688 C 239.179688 244.335938 239.921875 243.75 240.46875 243.027344 L 240.46875 242.441406 L 235.429688 242.441406 C 235.644531 242.207031 235.820312 241.953125 235.996094 241.679688 L 240.449219 241.679688 L 240.449219 238.125 L 233.828125 238.125 C 234.023438 237.871094 234.199219 237.617188 234.375 237.34375 Z M 237.285156 244.492188 C 236.386719 244.140625 235.566406 243.671875 234.84375 243.105469 L 239.472656 243.105469 C 238.925781 243.652344 238.183594 244.121094 237.285156 244.492188 Z M 239.667969 241.035156 L 234.472656 241.035156 L 234.472656 240.195312 L 239.667969 240.195312 Z M 234.472656 239.589844 L 234.472656 238.769531 L 239.667969 238.769531 L 239.667969 239.589844 Z M 234.472656 239.589844 "/>
<path style=" stroke:none;fill-rule:nonzero;fill:rgb(0%,0%,0%);fill-opacity:1;" d="M 244.257812 237.988281 L 245.820312 237.988281 L 245.820312 239.433594 L 243.105469 239.433594 L 243.105469 240.195312 L 245.820312 240.195312 L 245.820312 241.386719 L 243.613281 241.386719 L 243.613281 245.429688 L 244.394531 245.429688 L 244.394531 242.128906 L 245.820312 242.128906 L 245.820312 246.132812 L 246.640625 246.132812 L 246.640625 242.128906 L 248.066406 242.128906 L 248.066406 244.179688 C 248.066406 244.472656 247.890625 244.609375 247.578125 244.609375 L 247.03125 244.589844 L 247.226562 245.351562 L 247.8125 245.351562 C 248.496094 245.351562 248.828125 245.019531 248.828125 244.355469 L 248.828125 241.386719 L 246.640625 241.386719 L 246.640625 240.195312 L 249.0625 240.195312 L 249.0625 239.433594 L 246.640625 239.433594 L 246.640625 237.988281 L 248.75 237.988281 L 248.75 237.246094 L 246.640625 237.246094 L 246.640625 235.839844 L 245.820312 235.839844 L 245.820312 237.246094 L 244.53125 237.246094 C 244.609375 236.933594 244.6875 236.601562 244.746094 236.25 L 243.964844 236.132812 C 243.808594 237.1875 243.457031 238.027344 242.890625 238.632812 L 243.554688 239.101562 C 243.808594 238.808594 244.042969 238.4375 244.257812 237.988281 Z M 249.726562 236.855469 L 249.726562 243.808594 L 250.527344 243.808594 L 250.527344 236.855469 Z M 251.796875 246.015625 C 252.480469 246.015625 252.832031 245.664062 252.832031 244.960938 L 252.832031 235.839844 L 252.03125 235.839844 L 252.03125 244.765625 C 252.03125 245.117188 251.855469 245.3125 251.503906 245.3125 C 251.015625 245.3125 250.507812 245.273438 249.960938 245.253906 L 250.136719 246.015625 Z M 251.796875 246.015625 "/>
</g>
</svg>
