<?xml version="1.0" encoding="UTF-8"?>
<svg xmlns="http://www.w3.org/2000/svg" xmlns:xlink="http://www.w3.org/1999/xlink" width="394pt" height="266pt" viewBox="0 0 394 266" version="1.1">
<g id="surface1">
<path style="fill:none;stroke-width:1;stroke-linecap:round;stroke-linejoin:round;stroke:rgb(0%,0%,0%);stroke-opacity:1;stroke-miterlimit:10;" d="M 126 84 L 358 84 C 364.628125 84 370 89.371875 370 96 L 370 212 C 370 218.628125 364.628125 224 358 224 L 126 224 C 119.371875 224 114 218.628125 114 212 L 114 96 C 114 89.371875 119.371875 84 126 84 Z M 126 84 " transform="matrix(1.25,0,0,1.25,-70,-103.75)"/>
<path style=" stroke:none;fill-rule:nonzero;fill:rgb(40%,74.901961%,100%);fill-opacity:1;" d="M 115.253906 136.25 L 150.253906 136.25 L 150.253906 116.25 L 115.253906 116.25 Z M 115.253906 136.25 "/>
<path style="fill:none;stroke-width:1;stroke-linecap:round;stroke-linejoin:round;stroke:rgb(0%,0%,0%);stroke-opacity:1;stroke-miterlimit:10;" d="M 148.203125 176 L 176.203125 176 L 176.203125 192 L 148.203125 192 Z M 148.203125 176 " transform="matrix(1.25,0,0,1.25,-70,-103.75)"/>
<path style=" stroke:none;fill-rule:nonzero;fill:rgb(0%,0%,0%);fill-opacity:1;" d="M 136.605469 123.976562 L 136.449219 124.816406 L 134.984375 124.816406 C 135.269531 125.222656 135.414062 125.730469 135.414062 126.339844 C 135.414062 127.292969 135.132812 128.132812 134.574219 128.859375 C 134.011719 129.589844 133.25 129.953125 132.289062 129.953125 C 131.546875 129.953125 130.960938 129.738281 130.53125 129.308594 C 130.113281 128.867188 129.90625 128.292969 129.90625 127.589844 C 129.90625 126.550781 130.191406 125.671875 130.765625 124.953125 C 131.351562 124.226562 132.105469 123.859375 133.03125 123.859375 C 133.328125 123.859375 133.601562 123.898438 133.851562 123.976562 Z M 130.902344 127.570312 C 130.902344 128.039062 131.023438 128.425781 131.273438 128.722656 C 131.519531 129.023438 131.859375 129.171875 132.289062 129.171875 C 132.953125 129.171875 133.472656 128.859375 133.851562 128.234375 C 134.226562 127.597656 134.417969 126.953125 134.417969 126.300781 C 134.417969 125.753906 134.292969 125.339844 134.046875 125.050781 C 133.8125 124.765625 133.484375 124.621094 133.070312 124.621094 C 132.40625 124.621094 131.878906 124.921875 131.488281 125.519531 C 131.097656 126.121094 130.902344 126.804688 130.902344 127.570312 Z M 130.902344 127.570312 "/>
<path style="fill:none;stroke-width:1;stroke-linecap:round;stroke-linejoin:round;stroke:rgb(0%,0%,0%);stroke-opacity:1;stroke-miterlimit:10;" d="M 93 207.2125 L 155.98125 207.93125 C 159.296875 207.96875 162.0125 205.3125 162.05 202 C 162.05 201.99375 162.05 201.9875 162.05 201.98125 L 162.0875 197.9 " transform="matrix(1.25,0,0,1.25,-70,-103.75)"/>
<path style="fill:none;stroke-width:1;stroke-linecap:butt;stroke-linejoin:miter;stroke:rgb(0%,0%,0%);stroke-opacity:1;stroke-miterlimit:10;" d="M 162.11875 193.9 L 162.0875 197.9 M 160.5875 197.8875 L 162.11875 193.9 L 163.5875 197.9125 " transform="matrix(1.25,0,0,1.25,-70,-103.75)"/>
<path style="fill:none;stroke-width:1;stroke-linecap:round;stroke-linejoin:round;stroke:rgb(0%,0%,0%);stroke-opacity:1;stroke-miterlimit:10;" d="M 162.26875 176 L 162.375 163.89375 " transform="matrix(1.25,0,0,1.25,-70,-103.75)"/>
<path style="fill:none;stroke-width:1;stroke-linecap:butt;stroke-linejoin:miter;stroke:rgb(0%,0%,0%);stroke-opacity:1;stroke-miterlimit:10;" d="M 162.409375 159.89375 L 162.375 163.89375 M 160.875 163.88125 L 162.409375 159.89375 L 163.875 163.909375 " transform="matrix(1.25,0,0,1.25,-70,-103.75)"/>
<path style=" stroke:none;fill-rule:nonzero;fill:rgb(40%,74.901961%,100%);fill-opacity:1;" d="M 179.929688 136.25 L 214.929688 136.25 L 214.929688 116.25 L 179.929688 116.25 Z M 179.929688 136.25 "/>
<path style="fill:none;stroke-width:1;stroke-linecap:round;stroke-linejoin:round;stroke:rgb(0%,0%,0%);stroke-opacity:1;stroke-miterlimit:10;" d="M 199.94375 176 L 227.94375 176 L 227.94375 192 L 199.94375 192 Z M 199.94375 176 " transform="matrix(1.25,0,0,1.25,-70,-103.75)"/>
<path style=" stroke:none;fill-rule:nonzero;fill:rgb(0%,0%,0%);fill-opacity:1;" d="M 201.285156 123.976562 L 201.128906 124.816406 L 199.664062 124.816406 C 199.945312 125.222656 200.09375 125.730469 200.09375 126.339844 C 200.09375 127.292969 199.808594 128.132812 199.253906 128.859375 C 198.691406 129.589844 197.929688 129.953125 196.96875 129.953125 C 196.226562 129.953125 195.640625 129.738281 195.210938 129.308594 C 194.789062 128.867188 194.585938 128.292969 194.585938 127.589844 C 194.585938 126.550781 194.867188 125.671875 195.445312 124.953125 C 196.03125 124.226562 196.78125 123.859375 197.710938 123.859375 C 198.007812 123.859375 198.28125 123.898438 198.53125 123.976562 Z M 195.582031 127.570312 C 195.582031 128.039062 195.703125 128.425781 195.953125 128.722656 C 196.195312 129.023438 196.539062 129.171875 196.96875 129.171875 C 197.632812 129.171875 198.148438 128.859375 198.53125 128.234375 C 198.90625 127.597656 199.097656 126.953125 199.097656 126.300781 C 199.097656 125.753906 198.96875 125.339844 198.726562 125.050781 C 198.492188 124.765625 198.164062 124.621094 197.75 124.621094 C 197.085938 124.621094 196.558594 124.921875 196.167969 125.519531 C 195.777344 126.121094 195.582031 126.804688 195.582031 127.570312 Z M 195.582031 127.570312 "/>
<path style="fill:none;stroke-width:1;stroke-linecap:round;stroke-linejoin:round;stroke:rgb(0%,0%,0%);stroke-opacity:1;stroke-miterlimit:10;" d="M 213.953125 176 L 213.96875 163.89375 " transform="matrix(1.25,0,0,1.25,-70,-103.75)"/>
<path style="fill:none;stroke-width:1;stroke-linecap:butt;stroke-linejoin:miter;stroke:rgb(0%,0%,0%);stroke-opacity:1;stroke-miterlimit:10;" d="M 213.971875 159.89375 L 213.96875 163.89375 M 212.46875 163.89375 L 213.971875 159.89375 L 215.46875 163.89375 " transform="matrix(1.25,0,0,1.25,-70,-103.75)"/>
<path style=" stroke:none;fill-rule:nonzero;fill:rgb(0%,0%,0%);fill-opacity:1;" d="M 183.203125 56.441406 L 183.203125 58.101562 L 182.089844 58.101562 C 182.363281 57.378906 182.636719 56.558594 182.871094 55.640625 L 185.039062 55.640625 L 185.039062 54.878906 L 183.066406 54.878906 C 183.164062 54.429688 183.261719 53.941406 183.378906 53.433594 L 182.636719 53.277344 C 182.519531 53.824219 182.421875 54.371094 182.304688 54.878906 L 181.191406 54.878906 L 181.191406 55.640625 L 182.128906 55.640625 C 181.875 56.636719 181.601562 57.496094 181.269531 58.160156 L 181.445312 58.84375 L 183.203125 58.84375 L 183.203125 60.523438 C 182.539062 60.640625 181.855469 60.757812 181.113281 60.835938 L 181.210938 61.636719 C 181.894531 61.519531 182.558594 61.421875 183.203125 61.285156 L 183.203125 63.628906 L 183.945312 63.628906 L 183.945312 61.128906 L 185.019531 60.855469 L 185.019531 60.09375 C 184.6875 60.171875 184.335938 60.269531 183.945312 60.367188 L 183.945312 58.84375 L 184.980469 58.84375 L 184.980469 58.101562 L 183.945312 58.101562 L 183.945312 56.441406 Z M 186.523438 55.855469 L 186.523438 56.519531 L 189.746094 56.519531 L 189.746094 55.855469 L 186.523438 55.855469 C 187.089844 55.308594 187.636719 54.703125 188.164062 54.058594 C 189.023438 55.152344 189.980469 56.089844 191.035156 56.851562 L 191.464844 56.226562 C 190.449219 55.503906 189.453125 54.546875 188.457031 53.335938 L 187.890625 53.335938 C 186.972656 54.449219 185.9375 55.445312 184.785156 56.285156 L 185.234375 56.96875 C 185.664062 56.617188 186.09375 56.246094 186.523438 55.855469 Z M 187.304688 63.550781 C 187.851562 63.550781 188.144531 63.257812 188.144531 62.671875 L 188.144531 57.417969 L 185.488281 57.417969 L 185.488281 63.628906 L 186.191406 63.628906 L 186.191406 61.519531 L 187.460938 61.519531 L 187.460938 62.535156 C 187.460938 62.769531 187.324219 62.90625 187.089844 62.90625 L 186.582031 62.886719 L 186.757812 63.550781 Z M 186.191406 60.894531 L 186.191406 59.820312 L 187.460938 59.820312 L 187.460938 60.894531 Z M 186.191406 59.195312 L 186.191406 58.082031 L 187.460938 58.082031 L 187.460938 59.195312 Z M 188.808594 57.730469 L 188.808594 61.773438 L 189.453125 61.773438 L 189.453125 57.730469 Z M 190.039062 63.570312 C 190.585938 63.570312 190.859375 63.238281 190.859375 62.59375 L 190.859375 57.222656 L 190.15625 57.222656 L 190.15625 62.417969 C 190.15625 62.730469 190.039062 62.90625 189.785156 62.90625 C 189.511719 62.90625 189.21875 62.886719 188.925781 62.847656 L 189.082031 63.570312 Z M 190.039062 63.570312 "/>
<path style=" stroke:none;fill-rule:nonzero;fill:rgb(0%,0%,0%);fill-opacity:1;" d="M 197.011719 55.914062 C 196.289062 58.902344 194.726562 61.207031 192.304688 62.769531 L 192.792969 63.472656 C 195.15625 61.929688 196.71875 59.722656 197.460938 56.851562 C 197.519531 56.988281 197.558594 57.144531 197.636719 57.339844 C 198.789062 60.308594 200.273438 62.359375 202.109375 63.453125 L 202.617188 62.808594 C 200.820312 61.695312 199.414062 59.78125 198.359375 57.105469 C 197.675781 55.269531 196.816406 54 195.820312 53.296875 L 195.15625 53.726562 C 195.859375 54.253906 196.484375 54.976562 197.011719 55.914062 Z M 197.011719 55.914062 "/>
<path style=" stroke:none;fill-rule:nonzero;fill:rgb(0%,0%,0%);fill-opacity:1;" d="M 212.128906 63.53125 C 212.871094 63.53125 213.242188 63.140625 213.242188 62.378906 L 213.242188 53.882812 L 208.125 53.882812 L 208.125 54.625 L 212.460938 54.625 L 212.460938 62.164062 C 212.460938 62.59375 212.285156 62.808594 211.953125 62.808594 L 210.957031 62.769531 L 211.152344 63.53125 Z M 204.238281 55.171875 L 204.238281 63.628906 L 205.019531 63.628906 L 205.019531 55.171875 Z M 205.878906 53.199219 L 205.136719 53.53125 C 205.644531 54.136719 206.113281 54.839844 206.542969 55.621094 L 207.265625 55.230469 C 206.855469 54.488281 206.386719 53.824219 205.878906 53.199219 Z M 205.878906 53.199219 "/>
<path style=" stroke:none;fill-rule:nonzero;fill:rgb(0%,0%,0%);fill-opacity:1;" d="M 198.429688 77.496094 L 198.429688 77.222656 C 197.570312 77.164062 197.355469 77.027344 197.355469 76.304688 L 197.355469 71.011719 C 197.355469 70.386719 197.589844 70.210938 198.429688 70.171875 L 198.429688 69.898438 L 194.503906 69.898438 L 194.503906 70.171875 C 195.304688 70.230469 195.539062 70.386719 195.539062 71.011719 L 195.539062 76.304688 C 195.539062 77.007812 195.34375 77.144531 194.503906 77.222656 L 194.503906 77.496094 Z M 198.429688 77.496094 "/>
<path style=" stroke:none;fill-rule:nonzero;fill:rgb(0%,0%,0%);fill-opacity:1;" d="M 200.871094 78.042969 L 200.265625 78.042969 L 200.480469 77.261719 C 200.480469 77.242188 200.480469 77.203125 200.480469 77.203125 C 200.480469 77.164062 200.460938 77.144531 200.421875 77.144531 C 200.382812 77.144531 200.34375 77.164062 200.304688 77.222656 C 200.03125 77.632812 199.542969 77.984375 199.308594 78.042969 C 199.132812 78.082031 199.074219 78.140625 199.074219 78.238281 C 199.074219 78.238281 199.074219 78.257812 199.074219 78.277344 L 199.640625 78.277344 L 199.054688 80.503906 C 198.996094 80.738281 198.9375 80.972656 198.9375 81.050781 C 198.9375 81.246094 199.074219 81.324219 199.269531 81.324219 C 199.660156 81.324219 199.894531 81.109375 200.34375 80.425781 L 200.246094 80.367188 C 199.875 80.835938 199.757812 80.953125 199.640625 80.953125 C 199.582031 80.953125 199.523438 80.933594 199.523438 80.835938 C 199.523438 80.816406 199.542969 80.757812 199.542969 80.738281 L 200.1875 78.277344 L 200.832031 78.277344 Z M 200.871094 78.042969 "/>
<path style=" stroke:none;fill-rule:nonzero;fill:rgb(0%,0%,0%);fill-opacity:1;" d="M 117.6875 53.550781 L 117.140625 54.097656 C 117.882812 54.742188 118.449219 55.328125 118.878906 55.894531 L 119.445312 55.347656 C 118.976562 54.742188 118.390625 54.15625 117.6875 53.550781 Z M 124.328125 63.472656 L 126.90625 63.453125 L 127.101562 62.652344 C 126.808594 62.671875 126.378906 62.671875 125.851562 62.691406 C 125.285156 62.710938 124.757812 62.710938 124.230469 62.730469 C 123.332031 62.730469 122.589844 62.730469 121.984375 62.710938 C 121.300781 62.710938 120.8125 62.613281 120.441406 62.457031 C 120.128906 62.320312 119.816406 62.085938 119.542969 61.753906 C 119.445312 61.636719 119.347656 61.558594 119.269531 61.5 L 119.230469 57.28125 L 116.925781 57.300781 L 116.945312 58.042969 L 118.488281 58.023438 L 118.507812 61.460938 C 118.078125 61.65625 117.570312 62.242188 117.003906 63.199219 L 117.609375 63.746094 C 118.195312 62.691406 118.605469 62.164062 118.859375 62.164062 C 118.996094 62.164062 119.152344 62.261719 119.308594 62.457031 C 119.660156 62.847656 120.070312 63.140625 120.519531 63.277344 C 120.96875 63.394531 121.574219 63.453125 122.296875 63.453125 C 123.039062 63.472656 123.703125 63.472656 124.328125 63.472656 Z M 119.914062 56.539062 L 119.914062 57.203125 L 126.886719 57.164062 L 126.886719 56.5 L 123.78125 56.519531 L 123.78125 55.914062 L 126.105469 55.894531 L 126.085938 53.863281 L 123.761719 53.882812 L 123.761719 53.335938 L 123 53.335938 L 123 53.882812 L 120.65625 53.902344 L 120.675781 55.933594 L 123.019531 55.914062 L 123.019531 56.519531 Z M 125.382812 55.308594 L 123.78125 55.328125 L 123.78125 54.507812 L 125.382812 54.488281 Z M 123.019531 55.328125 L 121.398438 55.328125 L 121.398438 54.507812 L 123.019531 54.507812 Z M 126.085938 57.75 L 120.8125 57.789062 L 120.8125 60.660156 L 121.554688 60.640625 L 121.554688 58.414062 L 125.34375 58.394531 L 125.34375 60.425781 L 126.085938 60.425781 Z M 123.136719 58.804688 C 123.058594 59.683594 122.863281 60.308594 122.511719 60.679688 C 122.121094 61.089844 121.300781 61.324219 120.050781 61.402344 L 120.34375 62.066406 C 121.789062 61.929688 122.707031 61.617188 123.136719 61.128906 C 123.488281 60.738281 123.722656 59.996094 123.839844 58.882812 Z M 124.09375 60.425781 L 123.742188 60.953125 C 124.679688 61.246094 125.578125 61.636719 126.457031 62.164062 L 126.847656 61.539062 C 126.027344 61.089844 125.089844 60.71875 124.09375 60.425781 Z M 124.09375 60.425781 "/>
<path style=" stroke:none;fill-rule:nonzero;fill:rgb(0%,0%,0%);fill-opacity:1;" d="M 129.679688 55.421875 L 129.699219 58.566406 L 137.316406 58.527344 L 137.316406 57.726562 L 130.5 57.765625 L 130.480469 55.421875 L 137.882812 55.382812 L 137.882812 54.601562 L 133.761719 54.621094 C 133.566406 54.09375 133.390625 53.644531 133.195312 53.253906 L 132.355469 53.429688 C 132.550781 53.78125 132.765625 54.171875 132.941406 54.621094 L 128.371094 54.660156 L 128.371094 55.441406 Z M 129.25 59.738281 C 129.015625 60.792969 128.664062 61.75 128.136719 62.628906 L 128.820312 63.078125 C 129.347656 62.160156 129.757812 61.105469 130.03125 59.894531 Z M 133.449219 59.074219 L 132.6875 59.328125 C 133.078125 59.933594 133.429688 60.617188 133.761719 61.417969 L 134.503906 61.105469 C 134.191406 60.382812 133.839844 59.699219 133.449219 59.074219 Z M 136.828125 59.523438 L 136.066406 59.757812 C 136.613281 60.597656 137.121094 61.574219 137.570312 62.667969 L 138.292969 62.355469 C 137.882812 61.339844 137.394531 60.402344 136.828125 59.523438 Z M 134.953125 63.449219 C 135.363281 63.449219 135.65625 63.351562 135.851562 63.136719 C 136.066406 62.882812 136.203125 62.238281 136.300781 61.183594 L 135.519531 60.96875 C 135.480469 61.789062 135.402344 62.277344 135.265625 62.453125 C 135.1875 62.589844 135.03125 62.667969 134.796875 62.667969 L 132.101562 62.6875 C 131.808594 62.6875 131.652344 62.492188 131.652344 62.121094 L 131.632812 59.425781 L 130.8125 59.425781 L 130.832031 62.277344 C 130.832031 63.078125 131.183594 63.46875 131.847656 63.46875 Z M 134.953125 63.449219 "/>
<path style=" stroke:none;fill-rule:nonzero;fill:rgb(0%,0%,0%);fill-opacity:1;" d="M 147.863281 63.441406 C 148.605469 63.441406 148.976562 63.050781 148.976562 62.289062 L 148.917969 53.792969 L 143.800781 53.832031 L 143.820312 54.574219 L 148.15625 54.535156 L 148.195312 62.074219 C 148.195312 62.503906 148.019531 62.71875 147.6875 62.71875 L 146.691406 62.699219 L 146.886719 63.460938 Z M 139.933594 55.140625 L 139.972656 63.597656 L 140.753906 63.578125 L 140.714844 55.121094 Z M 141.554688 53.148438 L 140.8125 53.480469 C 141.320312 54.085938 141.808594 54.789062 142.238281 55.570312 L 142.960938 55.179688 C 142.550781 54.4375 142.0625 53.773438 141.554688 53.148438 Z M 141.554688 53.148438 "/>
<path style=" stroke:none;fill-rule:nonzero;fill:rgb(0%,0%,0%);fill-opacity:1;" d="M 135.363281 72.152344 L 135.363281 69.886719 L 128.976562 69.925781 L 128.976562 70.199219 C 129.757812 70.238281 129.972656 70.394531 129.972656 71.058594 L 130.011719 76.371094 C 130.011719 76.996094 129.855469 77.152344 129.015625 77.25 L 129.015625 77.523438 L 133.078125 77.503906 L 133.078125 77.230469 C 132.042969 77.171875 131.828125 77.015625 131.828125 76.371094 L 131.808594 73.792969 C 132.960938 73.832031 133.429688 74.222656 133.527344 75.550781 L 133.820312 75.550781 L 133.800781 71.742188 L 133.507812 71.742188 C 133.371094 73.011719 132.941406 73.421875 131.808594 73.421875 L 131.789062 70.863281 C 131.789062 70.433594 132.003906 70.277344 132.589844 70.277344 C 133.566406 70.277344 134.074219 70.394531 134.40625 70.707031 C 134.816406 71.039062 134.933594 71.292969 135.089844 72.152344 Z M 135.363281 72.152344 "/>
<path style=" stroke:none;fill-rule:nonzero;fill:rgb(0%,0%,0%);fill-opacity:1;" d="M 137.945312 78.007812 L 137.339844 78.027344 L 137.554688 77.226562 C 137.554688 77.207031 137.554688 77.167969 137.554688 77.167969 C 137.554688 77.128906 137.535156 77.109375 137.496094 77.109375 C 137.457031 77.109375 137.417969 77.128906 137.378906 77.207031 C 137.105469 77.617188 136.617188 77.96875 136.382812 78.027344 C 136.207031 78.066406 136.148438 78.125 136.148438 78.222656 C 136.148438 78.222656 136.148438 78.242188 136.148438 78.261719 L 136.714844 78.261719 L 136.148438 80.488281 C 136.089844 80.722656 136.03125 80.957031 136.03125 81.035156 C 136.03125 81.230469 136.167969 81.308594 136.363281 81.308594 C 136.753906 81.308594 136.988281 81.09375 137.4375 80.390625 L 137.339844 80.351562 C 136.96875 80.820312 136.851562 80.9375 136.734375 80.9375 C 136.675781 80.9375 136.617188 80.917969 136.617188 80.820312 C 136.617188 80.800781 136.636719 80.742188 136.636719 80.722656 L 137.261719 78.261719 L 137.90625 78.242188 Z M 137.945312 78.007812 "/>
<path style="fill:none;stroke-width:1;stroke-linecap:round;stroke-linejoin:round;stroke:rgb(0%,0%,0%);stroke-opacity:1;stroke-miterlimit:10;" d="M 137.8875 207.6375 L 207.971875 207.971875 C 211.284375 207.9875 213.984375 205.3125 214 202 C 214 201.99375 214 201.98125 214 201.971875 L 214 197.9 " transform="matrix(1.25,0,0,1.25,-70,-103.75)"/>
<path style="fill:none;stroke-width:1;stroke-linecap:butt;stroke-linejoin:miter;stroke:rgb(0%,0%,0%);stroke-opacity:1;stroke-miterlimit:10;" d="M 214 193.9 L 214 197.9 M 212.5 197.9 L 214 193.9 L 215.5 197.9 " transform="matrix(1.25,0,0,1.25,-70,-103.75)"/>
<path style="fill:none;stroke-width:1;stroke-linecap:round;stroke-linejoin:round;stroke:rgb(0%,0%,0%);stroke-opacity:1;stroke-miterlimit:10;" d="M 134.034375 232.5 L 134.00625 213.86875 C 134.003125 210.60625 136.60625 207.9375 139.86875 207.859375 L 147.40625 207.684375 " transform="matrix(1.25,0,0,1.25,-70,-103.75)"/>
<path style=" stroke:none;fill-rule:nonzero;fill:rgb(40%,74.901961%,100%);fill-opacity:1;" d="M 255.347656 136.25 L 290.347656 136.25 L 290.347656 116.25 L 255.347656 116.25 Z M 255.347656 136.25 "/>
<path style="fill:none;stroke-width:1;stroke-linecap:round;stroke-linejoin:round;stroke:rgb(0%,0%,0%);stroke-opacity:1;stroke-miterlimit:10;" d="M 260.278125 176 L 288.278125 176 L 288.278125 192 L 260.278125 192 Z M 260.278125 176 " transform="matrix(1.25,0,0,1.25,-70,-103.75)"/>
<path style=" stroke:none;fill-rule:nonzero;fill:rgb(0%,0%,0%);fill-opacity:1;" d="M 264.808594 128.9375 L 264.945312 129.796875 C 264.660156 129.859375 264.410156 129.894531 264.203125 129.894531 C 263.839844 129.894531 263.558594 129.835938 263.363281 129.71875 C 263.167969 129.601562 263.023438 129.453125 262.933594 129.269531 C 262.855469 129.089844 262.816406 128.703125 262.816406 128.117188 L 262.816406 124.757812 L 262.09375 124.757812 L 262.09375 123.976562 L 262.816406 123.976562 L 262.816406 122.53125 L 263.8125 121.945312 L 263.8125 123.976562 L 264.808594 123.976562 L 264.808594 124.757812 L 263.8125 124.757812 L 263.8125 128.15625 C 263.8125 128.445312 263.824219 128.625 263.851562 128.703125 C 263.890625 128.78125 263.949219 128.847656 264.027344 128.898438 C 264.105469 128.953125 264.214844 128.976562 264.359375 128.976562 C 264.476562 128.976562 264.625 128.964844 264.808594 128.9375 Z M 264.808594 128.9375 "/>
<path style=" stroke:none;fill-rule:nonzero;fill:rgb(0%,0%,0%);fill-opacity:1;" d="M 269.574219 129.09375 C 269.210938 129.40625 268.859375 129.628906 268.519531 129.757812 C 268.179688 129.882812 267.816406 129.953125 267.425781 129.953125 C 266.789062 129.953125 266.292969 129.796875 265.941406 129.484375 C 265.601562 129.171875 265.433594 128.769531 265.433594 128.273438 C 265.433594 127.988281 265.5 127.726562 265.628906 127.492188 C 265.757812 127.257812 265.929688 127.070312 266.136719 126.925781 C 266.34375 126.785156 266.578125 126.671875 266.839844 126.59375 C 267.035156 126.554688 267.328125 126.511719 267.71875 126.457031 C 268.527344 126.367188 269.117188 126.25 269.496094 126.105469 C 269.496094 125.976562 269.496094 125.890625 269.496094 125.851562 C 269.496094 125.449219 269.40625 125.167969 269.222656 125.011719 C 268.960938 124.777344 268.585938 124.660156 268.089844 124.660156 C 267.621094 124.660156 267.277344 124.746094 267.054688 124.914062 C 266.832031 125.070312 266.671875 125.359375 266.566406 125.773438 L 265.609375 125.65625 C 265.6875 125.242188 265.824219 124.910156 266.019531 124.660156 C 266.226562 124.402344 266.519531 124.207031 266.898438 124.074219 C 267.289062 123.933594 267.730469 123.859375 268.226562 123.859375 C 268.734375 123.859375 269.136719 123.917969 269.4375 124.035156 C 269.75 124.152344 269.976562 124.304688 270.121094 124.484375 C 270.277344 124.65625 270.382812 124.875 270.433594 125.148438 C 270.472656 125.320312 270.492188 125.617188 270.492188 126.046875 L 270.492188 127.375 C 270.492188 128.289062 270.511719 128.867188 270.550781 129.113281 C 270.589844 129.363281 270.675781 129.597656 270.804688 129.816406 L 269.769531 129.816406 C 269.664062 129.609375 269.601562 129.367188 269.574219 129.09375 Z M 269.496094 126.886719 C 269.132812 127.03125 268.589844 127.15625 267.875 127.257812 C 267.472656 127.324219 267.183594 127.394531 267.015625 127.472656 C 266.847656 127.539062 266.714844 127.644531 266.625 127.785156 C 266.535156 127.929688 266.488281 128.085938 266.488281 128.253906 C 266.488281 128.515625 266.585938 128.738281 266.78125 128.917969 C 266.976562 129.089844 267.269531 129.171875 267.660156 129.171875 C 268.039062 129.171875 268.375 129.089844 268.675781 128.917969 C 268.976562 128.75 269.195312 128.523438 269.339844 128.234375 C 269.445312 128.015625 269.496094 127.6875 269.496094 127.257812 Z M 269.496094 126.886719 "/>
<path style=" stroke:none;fill-rule:nonzero;fill:rgb(0%,0%,0%);fill-opacity:1;" d="M 272.019531 129.816406 L 272.019531 123.976562 L 272.917969 123.976562 L 272.917969 124.816406 C 273.332031 124.179688 273.953125 123.859375 274.773438 123.859375 C 275.125 123.859375 275.441406 123.925781 275.730469 124.054688 C 276.027344 124.171875 276.25 124.335938 276.394531 124.542969 C 276.535156 124.738281 276.640625 124.980469 276.707031 125.265625 C 276.746094 125.449219 276.765625 125.769531 276.765625 126.222656 L 276.765625 129.816406 L 275.769531 129.816406 L 275.769531 126.261719 C 275.769531 125.859375 275.730469 125.558594 275.652344 125.363281 C 275.574219 125.167969 275.4375 125.011719 275.242188 124.894531 C 275.046875 124.765625 274.816406 124.699219 274.558594 124.699219 C 274.140625 124.699219 273.777344 124.835938 273.464844 125.109375 C 273.164062 125.371094 273.015625 125.878906 273.015625 126.632812 L 273.015625 129.816406 Z M 272.019531 129.816406 "/>
<path style=" stroke:none;fill-rule:nonzero;fill:rgb(0%,0%,0%);fill-opacity:1;" d="M 278.273438 129.816406 L 278.273438 121.769531 L 279.269531 121.769531 L 279.269531 124.660156 C 279.722656 124.128906 280.304688 123.859375 281.007812 123.859375 C 281.4375 123.859375 281.808594 123.945312 282.121094 124.113281 C 282.441406 124.285156 282.671875 124.519531 282.804688 124.816406 C 282.945312 125.117188 283.019531 125.554688 283.019531 126.125 L 283.019531 129.816406 L 282.042969 129.816406 L 282.042969 126.125 C 282.042969 125.632812 281.929688 125.273438 281.710938 125.050781 C 281.5 124.816406 281.203125 124.699219 280.8125 124.699219 C 280.507812 124.699219 280.230469 124.777344 279.972656 124.933594 C 279.707031 125.078125 279.527344 125.28125 279.425781 125.539062 C 279.316406 125.800781 279.269531 126.164062 279.269531 126.632812 L 279.269531 129.816406 Z M 278.273438 129.816406 "/>
<path style="fill:none;stroke-width:1;stroke-linecap:round;stroke-linejoin:round;stroke:rgb(0%,0%,0%);stroke-opacity:1;stroke-miterlimit:10;" d="M 274.23125 176 L 274.175 167.109375 " transform="matrix(1.25,0,0,1.25,-70,-103.75)"/>
<path style="fill:none;stroke-width:1;stroke-linecap:butt;stroke-linejoin:miter;stroke:rgb(0%,0%,0%);stroke-opacity:1;stroke-miterlimit:10;" d="M 274.153125 163.109375 L 274.175 167.109375 M 272.675 167.11875 L 274.153125 163.109375 L 275.675 167.096875 " transform="matrix(1.25,0,0,1.25,-70,-103.75)"/>
<path style="fill:none;stroke-width:1;stroke-linecap:round;stroke-linejoin:round;stroke:rgb(0%,0%,0%);stroke-opacity:1;stroke-miterlimit:10;" d="M 185.2125 207.8625 L 268.109375 207.99375 C 271.40625 207.996875 274.090625 205.340625 274.11875 202.04375 L 274.15625 197.9 " transform="matrix(1.25,0,0,1.25,-70,-103.75)"/>
<path style="fill:none;stroke-width:1;stroke-linecap:butt;stroke-linejoin:miter;stroke:rgb(0%,0%,0%);stroke-opacity:1;stroke-miterlimit:10;" d="M 274.190625 193.9 L 274.15625 197.9 M 272.65625 197.8875 L 274.190625 193.9 L 275.65625 197.9125 " transform="matrix(1.25,0,0,1.25,-70,-103.75)"/>
<path style=" stroke:none;fill-rule:nonzero;fill:rgb(0%,0%,0%);fill-opacity:1;" d="M 81.917969 199.570312 L 81.917969 201.230469 L 80.804688 201.230469 C 81.078125 200.507812 81.351562 199.6875 81.585938 198.769531 L 83.753906 198.769531 L 83.753906 198.007812 L 81.78125 198.007812 C 81.878906 197.558594 81.976562 197.070312 82.09375 196.5625 L 81.351562 196.40625 C 81.234375 196.953125 81.136719 197.5 81.019531 198.007812 L 79.90625 198.007812 L 79.90625 198.769531 L 80.84375 198.769531 C 80.589844 199.765625 80.316406 200.625 79.984375 201.289062 L 80.160156 201.972656 L 81.917969 201.972656 L 81.917969 203.652344 C 81.253906 203.769531 80.570312 203.886719 79.828125 203.964844 L 79.925781 204.765625 C 80.609375 204.648438 81.273438 204.550781 81.917969 204.414062 L 81.917969 206.757812 L 82.660156 206.757812 L 82.660156 204.257812 L 83.734375 203.984375 L 83.734375 203.222656 C 83.402344 203.300781 83.050781 203.398438 82.660156 203.496094 L 82.660156 201.972656 L 83.695312 201.972656 L 83.695312 201.230469 L 82.660156 201.230469 L 82.660156 199.570312 Z M 85.238281 198.984375 L 85.238281 199.648438 L 88.460938 199.648438 L 88.460938 198.984375 L 85.238281 198.984375 C 85.804688 198.4375 86.351562 197.832031 86.878906 197.1875 C 87.738281 198.28125 88.695312 199.21875 89.75 199.980469 L 90.179688 199.355469 C 89.164062 198.632812 88.167969 197.675781 87.171875 196.464844 L 86.605469 196.464844 C 85.6875 197.578125 84.652344 198.574219 83.5 199.414062 L 83.949219 200.097656 C 84.378906 199.746094 84.808594 199.375 85.238281 198.984375 Z M 86.019531 206.679688 C 86.566406 206.679688 86.859375 206.386719 86.859375 205.800781 L 86.859375 200.546875 L 84.203125 200.546875 L 84.203125 206.757812 L 84.90625 206.757812 L 84.90625 204.648438 L 86.175781 204.648438 L 86.175781 205.664062 C 86.175781 205.898438 86.039062 206.035156 85.804688 206.035156 L 85.296875 206.015625 L 85.472656 206.679688 Z M 84.90625 204.023438 L 84.90625 202.949219 L 86.175781 202.949219 L 86.175781 204.023438 Z M 84.90625 202.324219 L 84.90625 201.210938 L 86.175781 201.210938 L 86.175781 202.324219 Z M 87.523438 200.859375 L 87.523438 204.902344 L 88.167969 204.902344 L 88.167969 200.859375 Z M 88.753906 206.699219 C 89.300781 206.699219 89.574219 206.367188 89.574219 205.722656 L 89.574219 200.351562 L 88.871094 200.351562 L 88.871094 205.546875 C 88.871094 205.859375 88.753906 206.035156 88.5 206.035156 C 88.226562 206.035156 87.933594 206.015625 87.640625 205.976562 L 87.796875 206.699219 Z M 88.753906 206.699219 "/>
<path style=" stroke:none;fill-rule:nonzero;fill:rgb(0%,0%,0%);fill-opacity:1;" d="M 95.726562 199.042969 C 95.003906 202.03125 93.441406 204.335938 91.019531 205.898438 L 91.507812 206.601562 C 93.871094 205.058594 95.433594 202.851562 96.175781 199.980469 C 96.234375 200.117188 96.273438 200.273438 96.351562 200.46875 C 97.503906 203.4375 98.988281 205.488281 100.824219 206.582031 L 101.332031 205.9375 C 99.535156 204.824219 98.128906 202.910156 97.074219 200.234375 C 96.390625 198.398438 95.53125 197.128906 94.535156 196.425781 L 93.871094 196.855469 C 94.574219 197.382812 95.199219 198.105469 95.726562 199.042969 Z M 95.726562 199.042969 "/>
<path style=" stroke:none;fill-rule:nonzero;fill:rgb(0%,0%,0%);fill-opacity:1;" d="M 113.457031 205.625 L 113.457031 205.351562 C 113.066406 205.332031 112.890625 205.195312 112.363281 204.375 L 110.3125 201.191406 L 111.210938 199.941406 C 112.1875 198.574219 112.480469 198.378906 113.320312 198.300781 L 113.320312 198.027344 L 110.507812 198.027344 L 110.507812 198.300781 L 110.742188 198.320312 C 111.171875 198.359375 111.328125 198.457031 111.328125 198.710938 C 111.328125 198.964844 111.191406 199.179688 110.664062 199.902344 L 110.039062 200.78125 L 108.945312 199.082031 C 108.808594 198.867188 108.789062 198.808594 108.789062 198.671875 C 108.789062 198.4375 108.90625 198.339844 109.316406 198.320312 L 109.667969 198.300781 L 109.667969 198.027344 L 105.78125 198.027344 L 105.78125 198.300781 C 106.191406 198.339844 106.328125 198.457031 106.679688 198.945312 L 108.90625 202.226562 L 106.933594 204.707031 C 106.601562 205.136719 106.328125 205.273438 105.761719 205.351562 L 105.761719 205.625 L 108.574219 205.625 L 108.574219 205.351562 C 107.890625 205.273438 107.675781 205.15625 107.675781 204.863281 C 107.675781 204.628906 107.890625 204.277344 108.730469 203.144531 L 109.160156 202.578125 L 110.292969 204.394531 C 110.429688 204.609375 110.527344 204.863281 110.527344 205 C 110.527344 205.195312 110.332031 205.292969 109.941406 205.3125 L 109.628906 205.351562 L 109.628906 205.625 Z M 113.457031 205.625 "/>
<path style=" stroke:none;fill-rule:nonzero;fill:rgb(0%,0%,0%);fill-opacity:1;" d="M 115.933594 206.171875 L 115.328125 206.171875 L 115.542969 205.390625 C 115.542969 205.371094 115.542969 205.332031 115.542969 205.332031 C 115.542969 205.292969 115.523438 205.273438 115.484375 205.273438 C 115.445312 205.273438 115.40625 205.292969 115.367188 205.351562 C 115.09375 205.761719 114.605469 206.113281 114.371094 206.171875 C 114.195312 206.210938 114.136719 206.269531 114.136719 206.367188 C 114.136719 206.367188 114.136719 206.386719 114.136719 206.40625 L 114.703125 206.40625 L 114.117188 208.632812 C 114.058594 208.867188 114 209.101562 114 209.179688 C 114 209.375 114.136719 209.453125 114.332031 209.453125 C 114.722656 209.453125 114.957031 209.238281 115.40625 208.554688 L 115.308594 208.496094 C 114.9375 208.964844 114.820312 209.082031 114.703125 209.082031 C 114.644531 209.082031 114.585938 209.0625 114.585938 208.964844 C 114.585938 208.945312 114.605469 208.886719 114.605469 208.867188 L 115.25 206.40625 L 115.894531 206.40625 Z M 115.933594 206.171875 "/>
<path style=" stroke:none;fill-rule:nonzero;fill:rgb(0%,0%,0%);fill-opacity:1;" d="M 16.210938 147.441406 L 16.210938 143.613281 L 14.433594 143.613281 C 14.785156 143.222656 15.117188 142.734375 15.46875 142.1875 L 15.46875 141.582031 L 12.851562 141.582031 C 12.96875 141.367188 13.085938 141.113281 13.164062 140.859375 L 12.363281 140.761719 C 11.972656 141.796875 11.230469 142.65625 10.136719 143.378906 L 10.605469 144.003906 C 10.742188 143.90625 10.878906 143.808594 11.035156 143.691406 L 11.035156 144.335938 L 15.429688 144.335938 L 15.429688 145.195312 L 10.878906 145.195312 L 10.878906 145.898438 L 15.429688 145.898438 L 15.429688 146.738281 L 10.625 146.738281 L 10.625 147.441406 Z M 12.421875 142.285156 L 14.570312 142.285156 C 14.238281 142.792969 13.90625 143.242188 13.574219 143.613281 L 11.132812 143.613281 C 11.621094 143.222656 12.050781 142.792969 12.421875 142.285156 Z M 7.1875 141.269531 L 7.1875 151.132812 L 7.988281 151.132812 L 7.988281 142.03125 L 9.609375 142.03125 C 9.335938 142.988281 8.964844 144.042969 8.496094 145.214844 C 9.101562 146.171875 9.394531 147.050781 9.394531 147.8125 C 9.394531 148.046875 9.335938 148.222656 9.257812 148.320312 C 9.160156 148.417969 8.964844 148.476562 8.691406 148.496094 C 8.574219 148.496094 8.417969 148.476562 8.261719 148.457031 L 8.515625 149.277344 C 9.160156 149.277344 9.628906 149.140625 9.902344 148.867188 C 10.078125 148.652344 10.175781 148.300781 10.175781 147.8125 C 10.136719 147.011719 9.84375 146.09375 9.296875 145.097656 C 9.726562 143.984375 10.097656 142.929688 10.410156 141.914062 L 10.410156 141.269531 Z M 16.054688 147.910156 L 15.351562 148.144531 C 15.742188 148.828125 16.113281 149.609375 16.445312 150.488281 L 17.109375 150.175781 C 16.796875 149.375 16.445312 148.632812 16.054688 147.910156 Z M 10.722656 148.125 C 10.546875 148.925781 10.273438 149.667969 9.902344 150.332031 L 10.566406 150.761719 C 10.9375 150.058594 11.230469 149.238281 11.445312 148.28125 Z M 14.453125 151.035156 C 14.785156 151.035156 15.039062 150.957031 15.195312 150.820312 C 15.390625 150.644531 15.527344 150.175781 15.585938 149.414062 L 14.882812 149.179688 C 14.84375 149.726562 14.785156 150.058594 14.707031 150.175781 C 14.628906 150.253906 14.492188 150.3125 14.316406 150.3125 L 13.105469 150.3125 C 12.832031 150.3125 12.695312 150.136719 12.695312 149.824219 L 12.695312 147.988281 L 11.933594 147.988281 L 11.933594 150 C 11.933594 150.683594 12.246094 151.035156 12.871094 151.035156 Z M 13.710938 147.734375 L 13.144531 148.105469 C 13.554688 148.59375 13.886719 149.023438 14.121094 149.433594 L 14.726562 149.003906 C 14.492188 148.652344 14.140625 148.222656 13.710938 147.734375 Z M 13.710938 147.734375 "/>
<path style=" stroke:none;fill-rule:nonzero;fill:rgb(0%,0%,0%);fill-opacity:1;" d="M 20.527344 146.210938 C 19.765625 147.03125 18.90625 147.753906 17.96875 148.359375 L 18.222656 149.21875 C 19.082031 148.574219 19.84375 147.890625 20.527344 147.167969 L 20.527344 151.09375 L 21.328125 151.09375 L 21.328125 140.878906 L 20.527344 140.878906 Z M 18.886719 141.992188 L 18.125 142.246094 C 18.554688 143.085938 18.945312 144.082031 19.296875 145.214844 L 20 144.882812 C 19.6875 143.867188 19.316406 142.890625 18.886719 141.992188 Z M 26.484375 141.035156 L 25.839844 141.425781 C 26.425781 142.089844 26.914062 142.695312 27.246094 143.261719 L 27.871094 142.8125 C 27.539062 142.304688 27.089844 141.699219 26.484375 141.035156 Z M 25.234375 140.839844 L 24.433594 140.839844 C 24.433594 141.523438 24.414062 142.539062 24.375 143.828125 L 22.070312 143.828125 L 22.070312 144.609375 L 24.335938 144.609375 C 24.101562 146.835938 23.242188 148.808594 21.738281 150.488281 L 22.265625 151.09375 C 23.554688 149.726562 24.433594 148.027344 24.921875 145.976562 C 25.410156 148.027344 26.367188 149.726562 27.773438 151.074219 L 28.339844 150.46875 C 26.777344 149.082031 25.761719 147.128906 25.292969 144.609375 L 27.949219 144.609375 L 27.949219 143.828125 L 25.195312 143.828125 C 25.214844 142.65625 25.234375 141.679688 25.234375 140.839844 Z M 25.234375 140.839844 "/>
<path style=" stroke:none;fill-rule:nonzero;fill:rgb(0%,0%,0%);fill-opacity:1;" d="M 33.964844 140.703125 C 33.925781 141.152344 33.828125 141.582031 33.710938 141.992188 L 29.746094 141.992188 L 29.746094 142.773438 L 33.4375 142.773438 C 33.222656 143.203125 32.988281 143.59375 32.65625 143.945312 C 31.953125 144.6875 30.800781 145.273438 29.199219 145.664062 L 29.511719 146.40625 C 30.859375 146.054688 31.914062 145.605469 32.65625 145.058594 C 33.203125 145.46875 33.75 145.957031 34.277344 146.503906 L 34.84375 145.9375 C 34.238281 145.390625 33.691406 144.941406 33.203125 144.589844 C 33.242188 144.550781 33.28125 144.511719 33.320312 144.472656 C 33.730469 143.984375 34.0625 143.417969 34.316406 142.773438 L 34.492188 142.773438 C 35.058594 144.296875 36.5625 145.507812 39.0625 146.386719 L 39.492188 145.683594 C 37.246094 144.980469 35.859375 144.023438 35.3125 142.773438 L 38.90625 142.773438 L 38.90625 141.992188 L 34.570312 141.992188 C 34.648438 141.601562 34.726562 141.210938 34.785156 140.78125 Z M 30.351562 147.363281 C 30.136719 148.359375 29.804688 149.296875 29.316406 150.117188 L 30.019531 150.566406 C 30.507812 149.707031 30.878906 148.691406 31.152344 147.519531 Z M 34.628906 146.953125 L 33.90625 147.167969 C 34.277344 147.753906 34.609375 148.417969 34.921875 149.160156 L 35.664062 148.847656 C 35.371094 148.164062 35.019531 147.539062 34.628906 146.953125 Z M 37.988281 147.1875 L 37.207031 147.441406 C 37.734375 148.242188 38.222656 149.160156 38.652344 150.214844 L 39.394531 149.882812 C 39.003906 148.925781 38.535156 148.027344 37.988281 147.1875 Z M 35.917969 150.898438 C 36.347656 150.898438 36.660156 150.78125 36.855469 150.605469 C 37.089844 150.371094 37.246094 149.765625 37.324219 148.75 L 36.5625 148.496094 C 36.503906 149.277344 36.425781 149.746094 36.289062 149.902344 C 36.191406 150.039062 36.015625 150.097656 35.78125 150.097656 L 33.320312 150.097656 C 32.988281 150.097656 32.832031 149.941406 32.832031 149.589844 L 32.832031 147.324219 L 31.992188 147.324219 L 31.992188 149.765625 C 31.992188 150.507812 32.34375 150.898438 33.066406 150.898438 Z M 35.917969 150.898438 "/>
<path style=" stroke:none;fill-rule:nonzero;fill:rgb(0%,0%,0%);fill-opacity:1;" d="M 21.796875 165 L 21.796875 164.726562 C 20.996094 164.609375 20.800781 164.492188 20.800781 163.90625 L 20.800781 158.515625 C 20.800781 157.910156 21.035156 157.734375 21.796875 157.675781 L 21.796875 157.402344 L 17.988281 157.402344 L 17.988281 157.675781 C 18.769531 157.734375 18.984375 157.871094 18.984375 158.515625 L 18.984375 160.800781 L 16.269531 160.800781 L 16.269531 158.515625 C 16.269531 157.871094 16.484375 157.734375 17.285156 157.675781 L 17.285156 157.402344 L 13.496094 157.402344 L 13.496094 157.675781 C 14.257812 157.734375 14.453125 157.890625 14.453125 158.515625 L 14.453125 163.90625 C 14.453125 164.492188 14.277344 164.609375 13.496094 164.726562 L 13.496094 165 L 17.285156 165 L 17.285156 164.726562 C 16.464844 164.628906 16.269531 164.492188 16.269531 163.90625 L 16.269531 161.328125 L 18.984375 161.328125 L 18.984375 163.90625 C 18.984375 164.472656 18.808594 164.628906 17.988281 164.726562 L 17.988281 165 Z M 21.796875 165 "/>
<path style=" stroke:none;fill-rule:nonzero;fill:rgb(0%,0%,0%);fill-opacity:1;" d="M 24.242188 165.546875 L 23.636719 165.546875 L 23.851562 164.765625 C 23.851562 164.746094 23.851562 164.707031 23.851562 164.707031 C 23.851562 164.667969 23.832031 164.648438 23.792969 164.648438 C 23.753906 164.648438 23.714844 164.667969 23.675781 164.726562 C 23.402344 165.136719 22.914062 165.488281 22.679688 165.546875 C 22.503906 165.585938 22.445312 165.644531 22.445312 165.742188 C 22.445312 165.742188 22.445312 165.761719 22.445312 165.78125 L 23.011719 165.78125 L 22.425781 168.007812 C 22.367188 168.242188 22.308594 168.476562 22.308594 168.554688 C 22.308594 168.75 22.445312 168.828125 22.640625 168.828125 C 23.03125 168.828125 23.265625 168.613281 23.714844 167.929688 L 23.617188 167.871094 C 23.246094 168.339844 23.128906 168.457031 23.011719 168.457031 C 22.953125 168.457031 22.894531 168.4375 22.894531 168.339844 C 22.894531 168.320312 22.914062 168.261719 22.914062 168.242188 L 23.558594 165.78125 L 24.203125 165.78125 Z M 24.242188 165.546875 "/>
<path style=" stroke:none;fill-rule:nonzero;fill:rgb(0%,0%,0%);fill-opacity:1;" d="M 28.75 167.109375 L 28.75 166.601562 L 24.589844 166.601562 L 24.589844 167.109375 Z M 28.75 167.109375 "/>
<path style=" stroke:none;fill-rule:nonzero;fill:rgb(0%,0%,0%);fill-opacity:1;" d="M 32.1875 168.75 L 32.1875 168.632812 C 31.621094 168.632812 31.484375 168.496094 31.484375 168.183594 L 31.484375 163.710938 L 31.40625 163.671875 L 30.078125 164.355469 L 30.078125 164.472656 L 30.273438 164.394531 C 30.410156 164.335938 30.527344 164.296875 30.605469 164.296875 C 30.761719 164.296875 30.839844 164.414062 30.839844 164.667969 L 30.839844 168.046875 C 30.839844 168.457031 30.683594 168.613281 30.117188 168.632812 L 30.117188 168.75 Z M 32.1875 168.75 "/>
<path style=" stroke:none;fill-rule:nonzero;fill:rgb(40%,74.901961%,100%);fill-opacity:1;" d="M 324.929688 136.25 L 359.929688 136.25 L 359.929688 116.25 L 324.929688 116.25 Z M 324.929688 136.25 "/>
<path style="fill:none;stroke-width:1;stroke-linecap:round;stroke-linejoin:round;stroke:rgb(0%,0%,0%);stroke-opacity:1;stroke-miterlimit:10;" d="M 315.94375 176 L 343.94375 176 L 343.94375 192 L 315.94375 192 Z M 315.94375 176 " transform="matrix(1.25,0,0,1.25,-70,-103.75)"/>
<path style=" stroke:none;fill-rule:nonzero;fill:rgb(0%,0%,0%);fill-opacity:1;" d="M 346.285156 123.976562 L 346.128906 124.816406 L 344.664062 124.816406 C 344.945312 125.222656 345.09375 125.730469 345.09375 126.339844 C 345.09375 127.292969 344.808594 128.132812 344.253906 128.859375 C 343.691406 129.589844 342.929688 129.953125 341.96875 129.953125 C 341.226562 129.953125 340.640625 129.738281 340.210938 129.308594 C 339.789062 128.867188 339.585938 128.292969 339.585938 127.589844 C 339.585938 126.550781 339.867188 125.671875 340.445312 124.953125 C 341.03125 124.226562 341.78125 123.859375 342.710938 123.859375 C 343.007812 123.859375 343.28125 123.898438 343.53125 123.976562 Z M 340.582031 127.570312 C 340.582031 128.039062 340.703125 128.425781 340.953125 128.722656 C 341.195312 129.023438 341.539062 129.171875 341.96875 129.171875 C 342.632812 129.171875 343.148438 128.859375 343.53125 128.234375 C 343.90625 127.597656 344.097656 126.953125 344.097656 126.300781 C 344.097656 125.753906 343.96875 125.339844 343.726562 125.050781 C 343.492188 124.765625 343.164062 124.621094 342.75 124.621094 C 342.085938 124.621094 341.558594 124.921875 341.167969 125.519531 C 340.777344 126.121094 340.582031 126.804688 340.582031 127.570312 Z M 340.582031 127.570312 "/>
<path style="fill:none;stroke-width:1;stroke-linecap:round;stroke-linejoin:round;stroke:rgb(0%,0%,0%);stroke-opacity:1;stroke-miterlimit:10;" d="M 223.89375 207.89375 L 323.98125 207.99375 C 327.29375 207.996875 329.984375 205.3125 329.984375 202 C 329.984375 201.99375 329.984375 201.9875 329.984375 201.98125 L 329.975 197.9 " transform="matrix(1.25,0,0,1.25,-70,-103.75)"/>
<path style="fill:none;stroke-width:1;stroke-linecap:butt;stroke-linejoin:miter;stroke:rgb(0%,0%,0%);stroke-opacity:1;stroke-miterlimit:10;" d="M 329.96875 193.9 L 329.975 197.9 M 328.475 197.903125 L 329.96875 193.9 L 331.475 197.9 " transform="matrix(1.25,0,0,1.25,-70,-103.75)"/>
<path style="fill:none;stroke-width:1;stroke-linecap:round;stroke-linejoin:round;stroke:rgb(0%,0%,0%);stroke-opacity:1;stroke-miterlimit:10;" d="M 329.91875 176 L 329.88125 163.89375 " transform="matrix(1.25,0,0,1.25,-70,-103.75)"/>
<path style="fill:none;stroke-width:1;stroke-linecap:butt;stroke-linejoin:miter;stroke:rgb(0%,0%,0%);stroke-opacity:1;stroke-miterlimit:10;" d="M 329.871875 159.89375 L 329.88125 163.89375 M 328.38125 163.9 L 329.871875 159.89375 L 331.38125 163.890625 " transform="matrix(1.25,0,0,1.25,-70,-103.75)"/>
<path style=" stroke:none;fill-rule:nonzero;fill:rgb(0%,0%,0%);fill-opacity:1;" d="M 327.957031 56.441406 L 327.957031 58.101562 L 326.84375 58.101562 C 327.117188 57.378906 327.390625 56.558594 327.625 55.640625 L 329.792969 55.640625 L 329.792969 54.878906 L 327.820312 54.878906 C 327.917969 54.429688 328.015625 53.941406 328.132812 53.433594 L 327.390625 53.277344 C 327.273438 53.824219 327.175781 54.371094 327.058594 54.878906 L 325.945312 54.878906 L 325.945312 55.640625 L 326.882812 55.640625 C 326.628906 56.636719 326.355469 57.496094 326.023438 58.160156 L 326.199219 58.84375 L 327.957031 58.84375 L 327.957031 60.523438 C 327.292969 60.640625 326.609375 60.757812 325.867188 60.835938 L 325.964844 61.636719 C 326.648438 61.519531 327.3125 61.421875 327.957031 61.285156 L 327.957031 63.628906 L 328.699219 63.628906 L 328.699219 61.128906 L 329.773438 60.855469 L 329.773438 60.09375 C 329.441406 60.171875 329.089844 60.269531 328.699219 60.367188 L 328.699219 58.84375 L 329.734375 58.84375 L 329.734375 58.101562 L 328.699219 58.101562 L 328.699219 56.441406 Z M 331.277344 55.855469 L 331.277344 56.519531 L 334.5 56.519531 L 334.5 55.855469 L 331.277344 55.855469 C 331.84375 55.308594 332.390625 54.703125 332.917969 54.058594 C 333.777344 55.152344 334.734375 56.089844 335.789062 56.851562 L 336.21875 56.226562 C 335.203125 55.503906 334.207031 54.546875 333.210938 53.335938 L 332.644531 53.335938 C 331.726562 54.449219 330.691406 55.445312 329.539062 56.285156 L 329.988281 56.96875 C 330.417969 56.617188 330.847656 56.246094 331.277344 55.855469 Z M 332.058594 63.550781 C 332.605469 63.550781 332.898438 63.257812 332.898438 62.671875 L 332.898438 57.417969 L 330.242188 57.417969 L 330.242188 63.628906 L 330.945312 63.628906 L 330.945312 61.519531 L 332.214844 61.519531 L 332.214844 62.535156 C 332.214844 62.769531 332.078125 62.90625 331.84375 62.90625 L 331.335938 62.886719 L 331.511719 63.550781 Z M 330.945312 60.894531 L 330.945312 59.820312 L 332.214844 59.820312 L 332.214844 60.894531 Z M 330.945312 59.195312 L 330.945312 58.082031 L 332.214844 58.082031 L 332.214844 59.195312 Z M 333.5625 57.730469 L 333.5625 61.773438 L 334.207031 61.773438 L 334.207031 57.730469 Z M 334.792969 63.570312 C 335.339844 63.570312 335.613281 63.238281 335.613281 62.59375 L 335.613281 57.222656 L 334.910156 57.222656 L 334.910156 62.417969 C 334.910156 62.730469 334.792969 62.90625 334.539062 62.90625 C 334.265625 62.90625 333.972656 62.886719 333.679688 62.847656 L 333.835938 63.570312 Z M 334.792969 63.570312 "/>
<path style=" stroke:none;fill-rule:nonzero;fill:rgb(0%,0%,0%);fill-opacity:1;" d="M 345.300781 57.222656 L 342.664062 57.222656 L 342.664062 53.296875 L 341.84375 53.296875 L 341.84375 57.222656 L 339.207031 57.222656 L 339.207031 54.15625 L 338.386719 54.15625 L 338.386719 58.003906 L 341.84375 58.003906 L 341.84375 62.144531 L 338.660156 62.144531 L 338.660156 59.058594 L 337.839844 59.058594 L 337.839844 63.550781 L 338.660156 63.550781 L 338.660156 62.90625 L 345.847656 62.90625 L 345.847656 63.550781 L 346.667969 63.550781 L 346.667969 59.058594 L 345.847656 59.058594 L 345.847656 62.144531 L 342.664062 62.144531 L 342.664062 58.003906 L 346.121094 58.003906 L 346.121094 54.15625 L 345.300781 54.15625 Z M 345.300781 57.222656 "/>
<path style=" stroke:none;fill-rule:nonzero;fill:rgb(0%,0%,0%);fill-opacity:1;" d="M 356.882812 63.53125 C 357.625 63.53125 357.996094 63.140625 357.996094 62.378906 L 357.996094 53.882812 L 352.878906 53.882812 L 352.878906 54.625 L 357.214844 54.625 L 357.214844 62.164062 C 357.214844 62.59375 357.039062 62.808594 356.707031 62.808594 L 355.710938 62.769531 L 355.90625 63.53125 Z M 348.992188 55.171875 L 348.992188 63.628906 L 349.773438 63.628906 L 349.773438 55.171875 Z M 350.632812 53.199219 L 349.890625 53.53125 C 350.398438 54.136719 350.867188 54.839844 351.296875 55.621094 L 352.019531 55.230469 C 351.609375 54.488281 351.140625 53.824219 350.632812 53.199219 Z M 350.632812 53.199219 "/>
<path style=" stroke:none;fill-rule:nonzero;fill:rgb(0%,0%,0%);fill-opacity:1;" d="M 345.195312 73.726562 C 345.195312 71.402344 343.535156 69.722656 341.269531 69.722656 C 338.925781 69.722656 337.226562 71.34375 337.226562 73.746094 C 337.226562 76.070312 338.867188 77.710938 341.191406 77.710938 C 343.535156 77.710938 345.195312 76.070312 345.195312 73.726562 Z M 343.203125 73.804688 C 343.203125 76.128906 342.519531 77.339844 341.230469 77.339844 C 339.941406 77.339844 339.21875 76.148438 339.21875 73.785156 C 339.21875 71.421875 339.921875 70.09375 341.171875 70.09375 C 342.480469 70.09375 343.203125 71.402344 343.203125 73.804688 Z M 343.203125 73.804688 "/>
<path style=" stroke:none;fill-rule:nonzero;fill:rgb(0%,0%,0%);fill-opacity:1;" d="M 347.8125 78.042969 L 347.207031 78.042969 L 347.421875 77.261719 C 347.421875 77.242188 347.421875 77.203125 347.421875 77.203125 C 347.421875 77.164062 347.402344 77.144531 347.363281 77.144531 C 347.324219 77.144531 347.285156 77.164062 347.246094 77.222656 C 346.972656 77.632812 346.484375 77.984375 346.25 78.042969 C 346.074219 78.082031 346.015625 78.140625 346.015625 78.238281 C 346.015625 78.238281 346.015625 78.257812 346.015625 78.277344 L 346.582031 78.277344 L 345.996094 80.503906 C 345.9375 80.738281 345.878906 80.972656 345.878906 81.050781 C 345.878906 81.246094 346.015625 81.324219 346.210938 81.324219 C 346.601562 81.324219 346.835938 81.109375 347.285156 80.425781 L 347.1875 80.367188 C 346.816406 80.835938 346.699219 80.953125 346.582031 80.953125 C 346.523438 80.953125 346.464844 80.933594 346.464844 80.835938 C 346.464844 80.816406 346.484375 80.757812 346.484375 80.738281 L 347.128906 78.277344 L 347.773438 78.277344 Z M 347.8125 78.042969 "/>
<path style=" stroke:none;fill-rule:nonzero;fill:rgb(0%,0%,0%);fill-opacity:1;" d="M 252.714844 54.054688 C 252.226562 55.792969 251.445312 57.335938 250.390625 58.683594 L 250.644531 59.542969 C 251.054688 59.074219 251.40625 58.605469 251.738281 58.078125 L 251.738281 64.40625 L 252.5 64.40625 L 252.5 56.769531 C 252.871094 56.027344 253.183594 55.226562 253.4375 54.386719 Z M 253.457031 56.105469 L 253.457031 62.746094 L 254.199219 62.746094 L 254.199219 56.105469 Z M 254.707031 56.59375 L 254.707031 57.316406 L 260.449219 57.316406 L 260.449219 56.59375 L 259.296875 56.59375 L 259.296875 54.542969 L 255.234375 54.542969 L 255.234375 55.265625 L 258.496094 55.265625 L 258.496094 56.59375 Z M 255.957031 59.171875 L 257.207031 59.171875 L 257.207031 59.289062 C 257.207031 59.71875 257.148438 60.128906 257.070312 60.539062 L 254.667969 60.539062 L 254.667969 61.242188 L 256.855469 61.242188 C 256.40625 62.394531 255.488281 63.234375 254.101562 63.761719 L 254.609375 64.425781 C 256.015625 63.820312 256.992188 62.882812 257.519531 61.613281 C 258.085938 62.628906 259.003906 63.546875 260.253906 64.386719 L 260.78125 63.722656 C 259.492188 62.980469 258.59375 62.160156 258.066406 61.242188 L 260.644531 61.242188 L 260.644531 60.539062 L 257.851562 60.539062 C 257.929688 60.109375 257.96875 59.660156 257.988281 59.171875 L 260.175781 59.171875 L 260.175781 58.449219 L 256.328125 58.449219 C 256.425781 58.214844 256.542969 57.960938 256.640625 57.726562 L 255.957031 57.570312 C 255.605469 58.429688 255.195312 59.152344 254.648438 59.679688 L 255.136719 60.265625 C 255.429688 59.953125 255.722656 59.582031 255.957031 59.171875 Z M 255.957031 59.171875 "/>
<path style=" stroke:none;fill-rule:nonzero;fill:rgb(0%,0%,0%);fill-opacity:1;" d="M 262.675781 54.25 L 262.109375 54.777344 C 262.910156 55.402344 263.554688 55.988281 264.003906 56.554688 L 264.570312 55.988281 C 264.042969 55.421875 263.417969 54.835938 262.675781 54.25 Z M 269.199219 64.171875 L 271.816406 64.171875 L 272.011719 63.371094 C 271.71875 63.390625 271.289062 63.390625 270.742188 63.410156 C 270.175781 63.429688 269.628906 63.429688 269.082031 63.429688 C 268.222656 63.429688 267.480469 63.429688 266.894531 63.410156 C 266.210938 63.390625 265.703125 63.292969 265.351562 63.136719 C 265.039062 63 264.746094 62.765625 264.472656 62.433594 C 264.394531 62.335938 264.296875 62.238281 264.199219 62.179688 L 264.199219 57.960938 L 261.855469 57.960938 L 261.855469 58.703125 L 263.457031 58.703125 L 263.457031 62.121094 C 262.988281 62.335938 262.460938 62.921875 261.855469 63.878906 L 262.460938 64.425781 C 263.085938 63.371094 263.535156 62.84375 263.808594 62.84375 C 263.945312 62.84375 264.101562 62.941406 264.257812 63.136719 C 264.609375 63.527344 265 63.820312 265.429688 63.957031 C 265.878906 64.074219 266.484375 64.152344 267.207031 64.152344 C 267.929688 64.171875 268.59375 64.171875 269.199219 64.171875 Z M 268.242188 54.035156 L 268.242188 55.460938 L 266.757812 55.460938 C 266.894531 55.109375 267.011719 54.738281 267.128906 54.347656 L 266.347656 54.191406 C 266.074219 55.207031 265.644531 56.125 265.039062 56.984375 L 265.742188 57.414062 C 265.976562 57.0625 266.210938 56.671875 266.40625 56.242188 L 268.242188 56.242188 L 268.242188 57.863281 L 265.3125 57.863281 L 265.3125 58.644531 L 267.128906 58.644531 C 267.089844 59.347656 266.972656 59.953125 266.777344 60.441406 C 266.484375 61.125 265.898438 61.671875 264.980469 62.121094 L 265.507812 62.765625 C 266.5625 62.21875 267.265625 61.515625 267.558594 60.65625 C 267.734375 60.089844 267.851562 59.425781 267.890625 58.644531 L 269.023438 58.644531 L 269.023438 61.828125 C 269.023438 62.082031 269.082031 62.277344 269.257812 62.453125 C 269.394531 62.609375 269.609375 62.6875 269.902344 62.6875 L 270.703125 62.6875 C 271.09375 62.667969 271.367188 62.570312 271.523438 62.414062 C 271.699219 62.238281 271.816406 61.691406 271.875 60.753906 L 271.171875 60.519531 C 271.132812 61.320312 271.035156 61.769531 270.898438 61.867188 C 270.820312 61.945312 270.703125 61.964844 270.546875 61.964844 L 270.136719 61.964844 C 269.882812 61.964844 269.785156 61.867188 269.785156 61.652344 L 269.785156 58.644531 L 271.660156 58.644531 L 271.660156 57.863281 L 269.023438 57.863281 L 269.023438 56.242188 L 271.269531 56.242188 L 271.269531 55.460938 L 269.023438 55.460938 L 269.023438 54.035156 Z M 268.242188 54.035156 "/>
<path style=" stroke:none;fill-rule:nonzero;fill:rgb(0%,0%,0%);fill-opacity:1;" d="M 283.359375 61.242188 L 282.578125 60.988281 C 282.519531 61.886719 282.441406 62.472656 282.324219 62.785156 C 282.207031 63.078125 281.914062 63.234375 281.484375 63.234375 L 279.023438 63.234375 C 278.632812 63.234375 278.457031 63.019531 278.457031 62.648438 L 278.457031 58.800781 L 282.441406 58.800781 L 282.441406 54.621094 L 277.128906 54.621094 L 277.128906 55.402344 L 281.660156 55.402344 L 281.660156 58.019531 L 277.65625 58.019531 L 277.65625 62.941406 C 277.65625 63.664062 278.007812 64.015625 278.710938 64.015625 L 281.621094 64.015625 C 282.246094 64.015625 282.675781 63.839844 282.890625 63.507812 C 283.105469 63.15625 283.261719 62.394531 283.359375 61.242188 Z M 274.316406 54.171875 L 273.769531 54.71875 C 274.570312 55.324219 275.214844 55.910156 275.703125 56.476562 L 276.25 55.910156 C 275.722656 55.324219 275.078125 54.757812 274.316406 54.171875 Z M 273.007812 57.511719 L 273.007812 58.273438 L 274.667969 58.273438 L 274.667969 62.765625 C 274.667969 62.941406 274.589844 63.117188 274.414062 63.234375 L 274.746094 63.976562 C 275.546875 63.449219 276.328125 62.882812 277.050781 62.238281 L 276.835938 61.378906 C 276.347656 61.828125 275.878906 62.238281 275.429688 62.570312 L 275.429688 57.511719 Z M 273.007812 57.511719 "/>
<path style=" stroke:none;fill-rule:nonzero;fill:rgb(0%,0%,0%);fill-opacity:1;" d="M 288.300781 54.777344 L 288.300781 55.539062 L 292.441406 55.539062 C 291.328125 56.828125 290.429688 57.882812 289.785156 58.722656 C 289.0625 59.621094 288.59375 60.382812 288.339844 61.007812 C 288.144531 61.496094 288.046875 61.925781 288.046875 62.316406 C 288.046875 62.804688 288.183594 63.214844 288.476562 63.546875 C 288.75 63.820312 289.21875 63.957031 289.902344 63.957031 L 292.8125 63.957031 C 293.398438 63.957031 293.828125 63.742188 294.101562 63.351562 C 294.355469 62.960938 294.472656 62.121094 294.472656 60.851562 L 293.710938 60.636719 C 293.710938 61.710938 293.613281 62.414062 293.457031 62.746094 C 293.28125 63.019531 292.988281 63.195312 292.578125 63.195312 L 290.058594 63.195312 C 289.550781 63.195312 289.199219 63.117188 289.042969 62.941406 C 288.90625 62.765625 288.828125 62.550781 288.828125 62.316406 C 288.828125 62.023438 288.945312 61.632812 289.121094 61.183594 C 289.355469 60.617188 289.804688 59.914062 290.449219 59.09375 C 291.035156 58.371094 292.089844 57.160156 293.613281 55.460938 L 293.613281 54.777344 Z M 284.6875 56.242188 C 284.648438 57.296875 284.492188 58.3125 284.21875 59.269531 L 284.882812 59.445312 C 285.15625 58.449219 285.292969 57.394531 285.351562 56.28125 Z M 287.617188 55.96875 L 286.992188 56.164062 C 287.34375 57.003906 287.636719 57.863281 287.871094 58.761719 L 288.554688 58.605469 C 288.28125 57.609375 287.96875 56.730469 287.617188 55.96875 Z M 285.976562 54.09375 L 285.976562 64.328125 L 286.777344 64.328125 L 286.777344 54.09375 Z M 285.976562 54.09375 "/>
<path style=" stroke:none;fill-rule:nonzero;fill:rgb(0%,0%,0%);fill-opacity:1;" d="M 274.777344 76.535156 C 274.289062 77.0625 273.976562 77.335938 273.625 77.550781 C 273.15625 77.785156 272.6875 77.921875 272.199219 77.921875 C 271.535156 77.921875 270.871094 77.589844 270.539062 77.082031 C 270.070312 76.339844 269.933594 75.5 269.933594 74.367188 C 269.933594 72.121094 270.832031 70.851562 272.003906 70.851562 C 272.765625 70.851562 273.371094 71.242188 273.878906 71.867188 C 274.152344 72.179688 274.425781 72.550781 274.640625 73.15625 L 274.914062 73.15625 L 274.914062 70.519531 L 274.621094 70.519531 C 274.445312 70.910156 274.328125 71.027344 274.113281 71.027344 C 274.015625 71.027344 273.859375 70.988281 273.605469 70.871094 C 272.960938 70.597656 272.394531 70.480469 271.847656 70.480469 C 269.5625 70.480469 267.941406 72.238281 267.941406 74.621094 C 267.941406 76.808594 269.464844 78.46875 271.886719 78.46875 C 273.175781 78.46875 274.074219 78.117188 275.128906 76.828125 Z M 274.777344 76.535156 "/>
<path style=" stroke:none;fill-rule:nonzero;fill:rgb(0%,0%,0%);fill-opacity:1;" d="M 277.746094 78.800781 L 277.140625 78.800781 L 277.355469 78.019531 C 277.355469 78 277.355469 77.960938 277.355469 77.960938 C 277.355469 77.921875 277.335938 77.902344 277.296875 77.902344 C 277.257812 77.902344 277.21875 77.921875 277.179688 77.980469 C 276.90625 78.390625 276.417969 78.742188 276.183594 78.800781 C 276.007812 78.839844 275.949219 78.898438 275.949219 78.996094 C 275.949219 78.996094 275.949219 79.015625 275.949219 79.035156 L 276.515625 79.035156 L 275.929688 81.261719 C 275.871094 81.496094 275.8125 81.730469 275.8125 81.808594 C 275.8125 82.003906 275.949219 82.082031 276.144531 82.082031 C 276.535156 82.082031 276.769531 81.867188 277.21875 81.183594 L 277.121094 81.125 C 276.75 81.59375 276.632812 81.710938 276.515625 81.710938 C 276.457031 81.710938 276.398438 81.691406 276.398438 81.59375 C 276.398438 81.574219 276.417969 81.515625 276.417969 81.496094 L 277.0625 79.035156 L 277.707031 79.035156 Z M 277.746094 78.800781 "/>
<path style=" stroke:none;fill-rule:nonzero;fill:rgb(0%,0%,0%);fill-opacity:1;" d="M 268.738281 69.433594 L 268.738281 68.320312 C 269.128906 67.882812 269.640625 67.65625 270.28125 67.65625 C 270.5 67.65625 270.730469 67.691406 270.964844 67.753906 C 271.207031 67.820312 271.554688 67.945312 272 68.125 C 272.242188 68.242188 272.433594 68.320312 272.566406 68.359375 C 272.691406 68.390625 272.824219 68.398438 272.957031 68.398438 C 273.191406 68.398438 273.429688 68.328125 273.679688 68.183594 C 273.9375 68.042969 274.167969 67.859375 274.363281 67.636719 L 274.363281 68.808594 C 274.128906 69.03125 273.882812 69.195312 273.640625 69.296875 C 273.40625 69.390625 273.136719 69.433594 272.839844 69.433594 C 272.613281 69.433594 272.410156 69.410156 272.214844 69.355469 C 272.019531 69.304688 271.695312 69.179688 271.257812 68.984375 C 270.828125 68.789062 270.464844 68.691406 270.183594 68.691406 C 269.949219 68.691406 269.722656 68.746094 269.519531 68.847656 C 269.308594 68.953125 269.050781 69.148438 268.738281 69.433594 Z M 268.738281 69.433594 "/>
<path style=" stroke:none;fill-rule:nonzero;fill:rgb(40%,74.901961%,100%);fill-opacity:1;" d="M 1.25 251.25 L 36.25 251.25 L 36.25 231.25 L 1.25 231.25 Z M 1.25 251.25 "/>
<path style="fill:none;stroke-width:1;stroke-linecap:round;stroke-linejoin:round;stroke:rgb(0%,0%,0%);stroke-opacity:1;stroke-miterlimit:10;" d="M 57 268 L 85 268 L 85 284 L 57 284 Z M 57 268 " transform="matrix(1.25,0,0,1.25,-70,-103.75)"/>
<path style=" stroke:none;fill-rule:nonzero;fill:rgb(0%,0%,0%);fill-opacity:1;" d="M 22.605469 238.976562 L 22.449219 239.816406 L 20.984375 239.816406 C 21.265625 240.222656 21.414062 240.730469 21.414062 241.339844 C 21.414062 242.292969 21.128906 243.132812 20.574219 243.859375 C 20.011719 244.589844 19.25 244.953125 18.289062 244.953125 C 17.546875 244.953125 16.960938 244.738281 16.53125 244.308594 C 16.109375 243.867188 15.90625 243.292969 15.90625 242.589844 C 15.90625 241.550781 16.1875 240.671875 16.765625 239.953125 C 17.351562 239.226562 18.101562 238.859375 19.03125 238.859375 C 19.328125 238.859375 19.601562 238.898438 19.851562 238.976562 Z M 16.902344 242.570312 C 16.902344 243.039062 17.023438 243.425781 17.273438 243.722656 C 17.515625 244.023438 17.859375 244.171875 18.289062 244.171875 C 18.953125 244.171875 19.46875 243.859375 19.851562 243.234375 C 20.226562 242.597656 20.417969 241.953125 20.417969 241.300781 C 20.417969 240.753906 20.289062 240.339844 20.046875 240.050781 C 19.8125 239.765625 19.484375 239.621094 19.070312 239.621094 C 18.40625 239.621094 17.878906 239.921875 17.488281 240.519531 C 17.097656 241.121094 16.902344 241.804688 16.902344 242.570312 Z M 16.902344 242.570312 "/>
<path style="fill:none;stroke-width:1;stroke-linecap:round;stroke-linejoin:round;stroke:rgb(0%,0%,0%);stroke-opacity:1;stroke-miterlimit:10;" d="M 277 272 L 299.1 272 " transform="matrix(1.25,0,0,1.25,-70,-103.75)"/>
<path style="fill:none;stroke-width:1;stroke-linecap:butt;stroke-linejoin:miter;stroke:rgb(0%,0%,0%);stroke-opacity:1;stroke-miterlimit:10;" d="M 303.1 272 L 299.1 272 M 299.1 270.5 L 303.1 272 L 299.1 273.5 " transform="matrix(1.25,0,0,1.25,-70,-103.75)"/>
<path style="fill:none;stroke-width:1;stroke-linecap:round;stroke-linejoin:round;stroke:rgb(0%,0%,0%);stroke-opacity:1;stroke-miterlimit:10;" d="M 286 284 L 286 278 C 286 274.6875 288.6875 272 292 272 L 302.7875 272 " transform="matrix(1.25,0,0,1.25,-70,-103.75)"/>
<path style="fill:none;stroke-width:1;stroke-linecap:round;stroke-linejoin:round;stroke:rgb(0%,0%,0%);stroke-opacity:1;stroke-miterlimit:10;" d="M 197 283 L 219.1 283 " transform="matrix(1.25,0,0,1.25,-70,-103.75)"/>
<path style="fill:none;stroke-width:1;stroke-linecap:butt;stroke-linejoin:miter;stroke:rgb(0%,0%,0%);stroke-opacity:1;stroke-miterlimit:10;" d="M 223.1 283 L 219.1 283 M 219.1 281.5 L 223.1 283 L 219.1 284.5 " transform="matrix(1.25,0,0,1.25,-70,-103.75)"/>
<path style="fill:none;stroke-width:1;stroke-linecap:round;stroke-linejoin:round;stroke:rgb(0%,0%,0%);stroke-opacity:1;stroke-miterlimit:10;" d="M 197 283 L 203 283 C 206.3125 283 209 280.3125 209 277 L 209 272.9 " transform="matrix(1.25,0,0,1.25,-70,-103.75)"/>
<path style="fill:none;stroke-width:1;stroke-linecap:butt;stroke-linejoin:miter;stroke:rgb(0%,0%,0%);stroke-opacity:1;stroke-miterlimit:10;" d="M 209 268.9 L 209 272.9 M 207.5 272.9 L 209 268.9 L 210.5 272.9 " transform="matrix(1.25,0,0,1.25,-70,-103.75)"/>
<path style=" stroke:none;fill-rule:nonzero;fill:rgb(0%,0%,0%);fill-opacity:1;" d="M 61.875 232.050781 L 61.875 232.832031 L 63.554688 232.832031 L 63.554688 234.023438 L 64.296875 234.023438 L 64.296875 232.832031 L 66.445312 232.832031 L 66.445312 234.0625 L 67.226562 234.0625 L 67.226562 232.832031 L 69.394531 232.832031 L 69.394531 234.023438 L 70.15625 234.023438 L 70.15625 232.832031 L 71.875 232.832031 L 71.875 232.050781 L 70.15625 232.050781 L 70.15625 230.898438 L 69.394531 230.898438 L 69.394531 232.050781 L 67.226562 232.050781 L 67.226562 230.859375 L 66.445312 230.859375 L 66.445312 232.050781 L 64.296875 232.050781 L 64.296875 230.898438 L 63.554688 230.898438 L 63.554688 232.050781 Z M 71.503906 234.707031 L 62.246094 234.707031 L 62.246094 236.914062 L 63.027344 236.914062 L 63.027344 235.46875 L 66.445312 235.46875 L 66.445312 236.699219 L 63.632812 236.699219 L 63.632812 240.371094 L 64.414062 240.371094 L 64.414062 237.460938 L 66.445312 237.460938 L 66.445312 241.132812 L 67.265625 241.132812 L 67.265625 237.460938 L 69.375 237.460938 L 69.375 239.199219 C 69.375 239.472656 69.257812 239.609375 69.003906 239.609375 L 68.027344 239.570312 L 68.242188 240.351562 L 69.257812 240.351562 C 69.863281 240.351562 70.175781 240.019531 70.175781 239.355469 L 70.175781 236.699219 L 67.265625 236.699219 L 67.265625 235.46875 L 70.703125 235.46875 L 70.703125 236.875 L 71.503906 236.875 Z M 71.503906 234.707031 "/>
<path style=" stroke:none;fill-rule:nonzero;fill:rgb(0%,0%,0%);fill-opacity:1;" d="M 75.703125 231.796875 L 75.703125 235.3125 L 76.679688 235.3125 L 77.011719 236.269531 L 75.273438 236.269531 L 75.273438 236.953125 L 76.386719 236.953125 C 76.269531 237.8125 76.113281 238.496094 75.917969 239.003906 C 75.703125 239.550781 75.371094 240.039062 74.921875 240.488281 L 75.410156 241.132812 C 75.9375 240.605469 76.328125 240.019531 76.601562 239.355469 C 76.699219 239.101562 76.777344 238.828125 76.855469 238.496094 L 78.242188 238.496094 C 78.222656 239.277344 78.183594 239.765625 78.125 239.980469 C 78.066406 240.195312 77.871094 240.292969 77.578125 240.3125 L 76.894531 240.3125 L 77.089844 241.015625 L 77.792969 241.015625 C 78.242188 240.996094 78.574219 240.839844 78.75 240.507812 C 78.925781 240.195312 79.023438 239.296875 79.023438 237.832031 L 76.992188 237.832031 C 77.03125 237.558594 77.070312 237.285156 77.128906 236.953125 L 79.375 236.953125 L 79.375 236.269531 L 77.773438 236.269531 L 77.441406 235.3125 L 78.886719 235.3125 L 79.335938 235.859375 C 79.472656 235.664062 79.628906 235.429688 79.785156 235.175781 C 80.039062 236.347656 80.390625 237.382812 80.820312 238.261719 C 80.390625 239.121094 79.824219 239.824219 79.121094 240.390625 L 79.550781 241.09375 C 80.234375 240.546875 80.800781 239.863281 81.25 239.0625 C 81.71875 239.882812 82.265625 240.527344 82.890625 241.015625 L 83.359375 240.332031 C 82.675781 239.863281 82.109375 239.160156 81.621094 238.28125 C 82.1875 237.011719 82.480469 235.449219 82.539062 233.613281 L 83.183594 233.613281 L 83.183594 232.851562 L 80.742188 232.851562 C 80.898438 232.265625 81.035156 231.621094 81.132812 230.9375 L 80.390625 230.800781 C 80.136719 232.5 79.707031 233.886719 79.0625 234.941406 L 79.0625 231.796875 L 77.578125 231.796875 C 77.695312 231.503906 77.792969 231.210938 77.851562 230.898438 L 77.050781 230.78125 C 76.992188 231.132812 76.914062 231.464844 76.796875 231.796875 Z M 80.234375 234.277344 C 80.332031 234.0625 80.410156 233.828125 80.507812 233.613281 L 81.796875 233.613281 C 81.777344 235.058594 81.5625 236.328125 81.191406 237.402344 C 80.800781 236.503906 80.488281 235.46875 80.234375 234.277344 Z M 78.359375 234.707031 L 76.40625 234.707031 L 76.40625 233.886719 L 78.359375 233.886719 Z M 76.40625 233.28125 L 76.40625 232.402344 L 78.359375 232.402344 L 78.359375 233.28125 Z M 73.59375 231.015625 L 73.066406 231.523438 C 73.808594 232.070312 74.375 232.597656 74.804688 233.085938 L 75.332031 232.578125 C 74.84375 232.050781 74.277344 231.542969 73.59375 231.015625 Z M 73.4375 233.75 L 72.890625 234.277344 C 73.574219 234.84375 74.101562 235.371094 74.511719 235.898438 L 75.039062 235.351562 C 74.609375 234.804688 74.0625 234.277344 73.4375 233.75 Z M 74.453125 237.089844 C 74.042969 238.320312 73.59375 239.53125 73.046875 240.722656 L 73.769531 241.015625 C 74.257812 239.882812 74.726562 238.652344 75.136719 237.34375 Z M 74.453125 237.089844 "/>
<path style=" stroke:none;fill-rule:nonzero;fill:rgb(0%,0%,0%);fill-opacity:1;" d="M 87.207031 234.082031 L 87.207031 234.863281 L 90.429688 234.863281 L 90.429688 236.601562 L 87.96875 236.601562 L 87.96875 241.132812 L 88.769531 241.132812 L 88.769531 240.507812 L 92.988281 240.507812 L 92.988281 241.113281 L 93.789062 241.113281 L 93.789062 236.601562 L 91.25 236.601562 L 91.25 234.863281 L 94.492188 234.863281 L 94.492188 234.082031 L 91.25 234.082031 L 91.25 232.207031 C 92.285156 232.070312 93.183594 231.855469 93.964844 231.582031 L 93.574219 230.878906 C 91.953125 231.425781 89.902344 231.699219 87.460938 231.699219 L 87.695312 232.441406 C 88.671875 232.441406 89.570312 232.402344 90.429688 232.324219 L 90.429688 234.082031 Z M 88.769531 239.746094 L 88.769531 237.363281 L 92.988281 237.363281 L 92.988281 239.746094 Z M 85.175781 230.957031 L 84.628906 231.503906 C 85.429688 232.03125 86.074219 232.539062 86.542969 233.007812 L 87.089844 232.460938 C 86.582031 231.953125 85.9375 231.464844 85.175781 230.957031 Z M 84.921875 233.652344 L 84.355469 234.199219 C 85.175781 234.785156 85.820312 235.351562 86.289062 235.878906 L 86.855469 235.3125 C 86.328125 234.765625 85.683594 234.199219 84.921875 233.652344 Z M 86.25 236.640625 C 85.78125 238.007812 85.195312 239.335938 84.550781 240.644531 L 85.351562 240.996094 C 85.9375 239.726562 86.484375 238.359375 86.972656 236.933594 Z M 86.25 236.640625 "/>
<path style=" stroke:none;fill-rule:nonzero;fill:rgb(0%,0%,0%);fill-opacity:1;" d="M 97.382812 238.632812 C 98.457031 237.949219 99.472656 237.148438 100.429688 236.230469 L 100.429688 237.96875 C 100.429688 238.339844 100.273438 238.515625 99.960938 238.515625 C 99.628906 238.515625 99.316406 238.496094 99.023438 238.496094 L 99.238281 239.238281 L 100.253906 239.238281 C 100.859375 239.238281 101.171875 238.90625 101.171875 238.261719 L 101.171875 236.367188 C 101.855469 236.894531 102.695312 237.617188 103.671875 238.574219 L 104.140625 237.871094 C 103.125 236.992188 102.148438 236.230469 101.171875 235.546875 L 101.171875 233.828125 C 102.285156 233.222656 103.28125 232.617188 104.179688 231.992188 L 104.179688 231.230469 L 97.207031 231.230469 L 97.207031 231.992188 L 102.96875 231.992188 C 102.402344 232.363281 101.5625 232.832031 100.429688 233.378906 L 100.429688 235.3125 C 99.355469 236.328125 98.261719 237.167969 97.089844 237.832031 Z M 104.375 233.28125 L 104.375 239.765625 L 96.875 239.765625 L 96.875 233.28125 L 96.09375 233.28125 L 96.09375 241.132812 L 96.875 241.132812 L 96.875 240.507812 L 104.375 240.507812 L 104.375 241.152344 L 105.15625 241.152344 L 105.15625 233.28125 Z M 98.085938 233.632812 L 97.5 234.003906 C 98.144531 234.628906 98.671875 235.175781 99.0625 235.703125 L 99.6875 235.273438 C 99.316406 234.804688 98.789062 234.257812 98.085938 233.632812 Z M 103.203125 233.554688 C 102.792969 234.238281 102.265625 234.84375 101.679688 235.332031 L 102.265625 235.742188 C 102.871094 235.214844 103.417969 234.589844 103.867188 233.867188 Z M 103.203125 233.554688 "/>
<path style=" stroke:none;fill-rule:nonzero;fill:rgb(0%,0%,0%);fill-opacity:1;" d="M 113.652344 233.300781 L 115.3125 233.300781 C 115.273438 234.824219 115.039062 236.152344 114.589844 237.285156 C 114.140625 236.347656 113.789062 235.214844 113.515625 233.886719 Z M 114.21875 238.105469 C 113.710938 239.0625 113.027344 239.824219 112.148438 240.429688 L 112.558594 241.113281 C 113.398438 240.507812 114.101562 239.746094 114.648438 238.847656 C 115.195312 239.804688 115.878906 240.566406 116.660156 241.132812 L 117.109375 240.46875 C 116.289062 239.902344 115.605469 239.140625 115.019531 238.125 C 115.664062 236.796875 115.996094 235.175781 116.054688 233.300781 L 116.796875 233.300781 L 116.796875 232.539062 L 113.828125 232.539062 C 113.90625 232.03125 114.003906 231.503906 114.0625 230.917969 L 113.28125 230.78125 C 113.046875 232.929688 112.597656 234.628906 111.933594 235.878906 L 112.441406 236.503906 C 112.675781 236.09375 112.910156 235.644531 113.105469 235.117188 C 113.417969 236.25 113.789062 237.226562 114.21875 238.105469 Z M 108.886719 236.035156 C 108.808594 236.269531 108.730469 236.503906 108.632812 236.757812 L 106.972656 236.757812 L 106.972656 237.460938 L 108.300781 237.460938 C 108.085938 237.910156 107.832031 238.359375 107.539062 238.867188 C 108.085938 239.0625 108.59375 239.277344 109.101562 239.492188 C 108.4375 239.863281 107.636719 240.175781 106.71875 240.410156 L 107.109375 241.09375 C 108.222656 240.78125 109.160156 240.351562 109.902344 239.84375 C 110.566406 240.136719 111.152344 240.429688 111.640625 240.722656 L 112.070312 240.097656 C 111.582031 239.824219 111.074219 239.589844 110.527344 239.335938 C 111.113281 238.789062 111.523438 238.164062 111.777344 237.421875 L 111.777344 236.757812 L 109.414062 236.757812 C 109.492188 236.542969 109.570312 236.347656 109.648438 236.132812 Z M 109.785156 239.023438 C 109.375 238.847656 108.945312 238.691406 108.496094 238.535156 C 108.730469 238.203125 108.925781 237.832031 109.101562 237.460938 L 111.035156 237.460938 C 110.78125 238.046875 110.351562 238.574219 109.785156 239.023438 Z M 107.871094 231.015625 L 107.226562 231.230469 C 107.5 231.660156 107.753906 232.148438 107.988281 232.695312 L 108.574219 232.421875 C 108.359375 231.933594 108.144531 231.464844 107.871094 231.015625 Z M 111.289062 230.996094 C 111.09375 231.464844 110.800781 231.933594 110.429688 232.421875 L 111.015625 232.714844 C 111.367188 232.246094 111.640625 231.757812 111.875 231.25 Z M 107.011719 232.96875 L 107.011719 233.671875 L 108.59375 233.671875 C 108.261719 234.296875 107.65625 234.863281 106.796875 235.371094 L 107.1875 236.015625 C 108.144531 235.371094 108.828125 234.609375 109.199219 233.710938 L 109.199219 235.839844 L 109.960938 235.839844 L 109.960938 234.394531 C 110.351562 234.648438 110.839844 235.019531 111.40625 235.46875 L 111.816406 234.84375 C 111.191406 234.453125 110.566406 234.101562 109.960938 233.808594 L 109.960938 233.671875 L 111.992188 233.671875 L 111.992188 232.96875 L 109.960938 232.96875 L 109.960938 230.820312 L 109.199219 230.820312 L 109.199219 232.96875 Z M 107.011719 232.96875 "/>
<path style=" stroke:none;fill-rule:nonzero;fill:rgb(0%,0%,0%);fill-opacity:1;" d="M 122.050781 232.753906 L 120.234375 232.753906 C 120.449219 232.1875 120.625 231.582031 120.761719 230.917969 L 119.960938 230.800781 C 119.84375 231.464844 119.6875 232.128906 119.472656 232.753906 L 118.417969 232.753906 L 118.417969 240.761719 L 119.21875 240.761719 L 119.21875 239.785156 L 121.25 239.785156 L 121.25 240.429688 L 122.050781 240.429688 Z M 119.21875 239.023438 L 119.21875 236.5625 L 121.25 236.5625 L 121.25 239.023438 Z M 119.21875 235.839844 L 119.21875 233.515625 L 121.25 233.515625 L 121.25 235.839844 Z M 124.003906 235.371094 L 123.359375 235.761719 C 124.121094 236.699219 124.746094 237.519531 125.214844 238.261719 L 125.839844 237.8125 C 125.429688 237.128906 124.804688 236.289062 124.003906 235.371094 Z M 127.851562 232.773438 L 124.277344 232.773438 C 124.472656 232.1875 124.628906 231.542969 124.765625 230.878906 L 123.964844 230.78125 C 123.671875 232.382812 123.144531 233.730469 122.363281 234.84375 L 122.851562 235.46875 C 123.28125 234.902344 123.652344 234.257812 123.964844 233.554688 L 127.070312 233.554688 C 127.03125 236.796875 126.992188 238.730469 126.933594 239.375 C 126.835938 239.941406 126.542969 240.234375 125.996094 240.234375 C 125.664062 240.234375 125.253906 240.234375 124.785156 240.195312 L 124.960938 240.9375 C 125.507812 240.976562 125.898438 240.996094 126.113281 240.996094 C 127.070312 240.996094 127.578125 240.546875 127.695312 239.6875 C 127.8125 238.828125 127.851562 236.503906 127.851562 232.773438 Z M 127.851562 232.773438 "/>
<path style=" stroke:none;fill-rule:nonzero;fill:rgb(0%,0%,0%);fill-opacity:1;" d="M 77.832031 247.089844 C 76.523438 248.515625 74.882812 249.707031 72.910156 250.664062 L 73.300781 251.367188 C 75.292969 250.371094 76.894531 249.179688 78.125 247.832031 C 79.453125 249.257812 81.035156 250.410156 82.910156 251.308594 L 83.320312 250.585938 C 81.464844 249.726562 79.84375 248.574219 78.417969 247.089844 Z M 74.980469 250.644531 L 74.980469 251.425781 L 77.714844 251.425781 L 77.714844 253.378906 L 74.453125 253.378906 L 74.453125 254.160156 L 77.714844 254.160156 L 77.714844 256.230469 L 73.4375 256.230469 L 73.4375 257.03125 L 82.8125 257.03125 L 82.8125 256.230469 L 78.535156 256.230469 L 78.535156 254.160156 L 81.796875 254.160156 L 81.796875 253.378906 L 78.535156 253.378906 L 78.535156 251.425781 L 81.269531 251.425781 L 81.269531 250.644531 Z M 74.980469 250.644531 "/>
<path style=" stroke:none;fill-rule:nonzero;fill:rgb(0%,0%,0%);fill-opacity:1;" d="M 85.195312 247.246094 L 84.648438 247.773438 C 85.429688 248.417969 86.074219 249.003906 86.523438 249.550781 L 87.109375 248.984375 C 86.582031 248.398438 85.9375 247.832031 85.195312 247.246094 Z M 91.71875 257.167969 L 94.296875 257.167969 L 94.492188 256.367188 C 94.199219 256.386719 93.769531 256.386719 93.242188 256.40625 C 92.675781 256.425781 92.148438 256.425781 91.621094 256.425781 C 90.742188 256.425781 90.019531 256.425781 89.433594 256.40625 C 88.769531 256.386719 88.28125 256.289062 87.929688 256.132812 C 87.617188 255.996094 87.34375 255.761719 87.070312 255.429688 C 86.972656 255.332031 86.894531 255.234375 86.796875 255.175781 L 86.796875 250.957031 L 84.433594 250.957031 L 84.433594 251.699219 L 86.054688 251.699219 L 86.054688 255.117188 C 85.585938 255.332031 85.058594 255.898438 84.453125 256.855469 L 85.058594 257.402344 C 85.683594 256.367188 86.132812 255.839844 86.386719 255.839844 C 86.523438 255.839844 86.679688 255.9375 86.816406 256.132812 C 87.167969 256.523438 87.558594 256.816406 88.007812 256.953125 C 88.457031 257.070312 89.023438 257.148438 89.746094 257.148438 C 90.449219 257.167969 91.113281 257.167969 91.71875 257.167969 Z M 87.578125 248.222656 L 87.578125 248.964844 L 89.0625 248.964844 C 88.691406 249.765625 88.28125 250.449219 87.832031 250.976562 L 88.007812 251.71875 L 90.605469 251.71875 L 90.605469 253.066406 L 87.480469 253.066406 L 87.480469 253.828125 L 90.605469 253.828125 L 90.605469 255.917969 L 91.386719 255.917969 L 91.386719 253.828125 L 94.316406 253.828125 L 94.316406 253.066406 L 91.386719 253.066406 L 91.386719 251.71875 L 93.828125 251.71875 L 93.828125 250.976562 L 91.386719 250.976562 L 91.386719 249.648438 L 90.605469 249.648438 L 90.605469 250.976562 L 88.789062 250.976562 C 89.199219 250.390625 89.570312 249.726562 89.921875 248.964844 L 94.179688 248.964844 L 94.179688 248.222656 L 90.234375 248.222656 C 90.371094 247.871094 90.488281 247.539062 90.605469 247.167969 L 89.84375 246.972656 C 89.707031 247.402344 89.550781 247.832031 89.394531 248.222656 Z M 87.578125 248.222656 "/>
<path style=" stroke:none;fill-rule:nonzero;fill:rgb(0%,0%,0%);fill-opacity:1;" d="M 100.957031 248.964844 L 100.292969 249.277344 C 100.527344 249.6875 100.742188 250.136719 100.976562 250.625 L 99.257812 250.625 L 99.257812 251.40625 L 105.527344 251.40625 L 105.527344 250.625 L 103.710938 250.625 C 103.964844 250.175781 104.199219 249.667969 104.414062 249.101562 L 103.652344 248.828125 C 103.417969 249.472656 103.164062 250.058594 102.851562 250.625 L 101.757812 250.625 C 101.503906 250.019531 101.25 249.472656 100.957031 248.964844 Z M 102.441406 246.992188 L 101.601562 247.128906 C 101.71875 247.402344 101.855469 247.714844 101.992188 248.066406 L 99.511719 248.066406 L 99.511719 248.808594 L 105.332031 248.808594 L 105.332031 248.066406 L 102.8125 248.066406 C 102.675781 247.675781 102.558594 247.304688 102.441406 246.992188 Z M 96.816406 257.265625 C 97.480469 257.265625 97.832031 256.953125 97.832031 256.289062 L 97.832031 252.96875 C 98.144531 252.8125 98.457031 252.65625 98.769531 252.5 L 98.769531 251.679688 C 98.457031 251.835938 98.144531 251.992188 97.832031 252.148438 L 97.832031 250 L 98.75 250 L 98.75 249.21875 L 97.832031 249.21875 L 97.832031 247.089844 L 96.992188 247.089844 L 96.992188 249.21875 L 95.625 249.21875 L 95.625 250 L 96.992188 250 L 96.992188 252.5 C 96.464844 252.714844 95.9375 252.871094 95.410156 253.007812 L 95.625 253.828125 C 96.074219 253.671875 96.542969 253.496094 96.992188 253.320312 L 96.992188 256.09375 C 96.992188 256.386719 96.835938 256.523438 96.542969 256.523438 C 96.269531 256.523438 95.976562 256.503906 95.683594 256.484375 L 95.839844 257.265625 Z M 101.445312 251.71875 C 101.328125 252.03125 101.191406 252.34375 101.035156 252.675781 L 99.101562 252.675781 L 99.101562 253.476562 L 100.605469 253.476562 C 100.371094 253.90625 100.117188 254.335938 99.804688 254.804688 C 100.585938 255.117188 101.328125 255.410156 102.011719 255.742188 C 101.308594 256.132812 100.292969 256.445312 98.984375 256.679688 L 99.316406 257.421875 C 100.9375 257.109375 102.109375 256.660156 102.851562 256.132812 C 103.75 256.5625 104.53125 256.972656 105.195312 257.382812 L 105.644531 256.738281 C 104.941406 256.328125 104.199219 255.9375 103.417969 255.585938 C 103.945312 255.019531 104.296875 254.296875 104.472656 253.476562 L 105.703125 253.476562 L 105.703125 252.675781 L 101.855469 252.675781 C 101.992188 252.402344 102.109375 252.109375 102.226562 251.796875 Z M 103.710938 253.476562 C 103.535156 254.199219 103.183594 254.785156 102.675781 255.253906 C 102.070312 254.980469 101.445312 254.726562 100.800781 254.472656 C 101.015625 254.160156 101.230469 253.828125 101.425781 253.476562 Z M 103.710938 253.476562 "/>
<path style=" stroke:none;fill-rule:nonzero;fill:rgb(0%,0%,0%);fill-opacity:1;" d="M 109.902344 251.367188 L 109.902344 252.089844 L 115.996094 252.089844 L 115.996094 251.367188 Z M 109.101562 253.203125 L 109.101562 253.945312 L 111.5625 253.945312 C 110.78125 255.214844 110.117188 255.996094 109.628906 256.289062 C 109.570312 256.308594 109.53125 256.347656 109.453125 256.367188 L 109.628906 257.050781 C 111.757812 256.914062 113.710938 256.71875 115.488281 256.484375 C 115.722656 256.757812 115.917969 257.050781 116.113281 257.34375 L 116.757812 256.894531 C 116.269531 256.171875 115.546875 255.3125 114.628906 254.335938 L 114.023438 254.707031 C 114.355469 255.097656 114.6875 255.46875 115 255.839844 C 113.554688 256.054688 112.089844 256.210938 110.605469 256.308594 C 111.132812 255.839844 111.738281 255.039062 112.421875 253.945312 L 116.738281 253.945312 L 116.738281 253.203125 Z M 115.371094 248.261719 L 115.371094 249.570312 L 108.75 249.570312 L 108.75 248.261719 Z M 108.75 250.292969 L 116.152344 250.292969 L 116.152344 247.5 L 107.96875 247.5 L 107.96875 251.230469 C 107.949219 253.496094 107.558594 255.332031 106.777344 256.757812 L 107.363281 257.304688 C 108.28125 255.605469 108.75 253.574219 108.75 251.230469 Z M 108.75 250.292969 "/>
<path style=" stroke:none;fill-rule:nonzero;fill:rgb(0%,0%,0%);fill-opacity:1;" d="M 337.695312 235.996094 L 337.148438 236.523438 C 337.929688 237.167969 338.574219 237.753906 339.023438 238.300781 L 339.609375 237.734375 C 339.082031 237.148438 338.4375 236.582031 337.695312 235.996094 Z M 344.21875 245.917969 L 346.796875 245.917969 L 346.992188 245.117188 C 346.699219 245.136719 346.269531 245.136719 345.742188 245.15625 C 345.175781 245.175781 344.648438 245.175781 344.121094 245.175781 C 343.242188 245.175781 342.519531 245.175781 341.933594 245.15625 C 341.269531 245.136719 340.78125 245.039062 340.429688 244.882812 C 340.117188 244.746094 339.84375 244.511719 339.570312 244.179688 C 339.472656 244.082031 339.394531 243.984375 339.296875 243.925781 L 339.296875 239.707031 L 336.933594 239.707031 L 336.933594 240.449219 L 338.554688 240.449219 L 338.554688 243.867188 C 338.085938 244.082031 337.558594 244.648438 336.953125 245.605469 L 337.558594 246.152344 C 338.183594 245.117188 338.632812 244.589844 338.886719 244.589844 C 339.023438 244.589844 339.179688 244.6875 339.316406 244.882812 C 339.667969 245.273438 340.058594 245.566406 340.507812 245.703125 C 340.957031 245.820312 341.523438 245.898438 342.246094 245.898438 C 342.949219 245.917969 343.613281 245.917969 344.21875 245.917969 Z M 340.078125 236.972656 L 340.078125 237.714844 L 341.5625 237.714844 C 341.191406 238.515625 340.78125 239.199219 340.332031 239.726562 L 340.507812 240.46875 L 343.105469 240.46875 L 343.105469 241.816406 L 339.980469 241.816406 L 339.980469 242.578125 L 343.105469 242.578125 L 343.105469 244.667969 L 343.886719 244.667969 L 343.886719 242.578125 L 346.816406 242.578125 L 346.816406 241.816406 L 343.886719 241.816406 L 343.886719 240.46875 L 346.328125 240.46875 L 346.328125 239.726562 L 343.886719 239.726562 L 343.886719 238.398438 L 343.105469 238.398438 L 343.105469 239.726562 L 341.289062 239.726562 C 341.699219 239.140625 342.070312 238.476562 342.421875 237.714844 L 346.679688 237.714844 L 346.679688 236.972656 L 342.734375 236.972656 C 342.871094 236.621094 342.988281 236.289062 343.105469 235.917969 L 342.34375 235.722656 C 342.207031 236.152344 342.050781 236.582031 341.894531 236.972656 Z M 340.078125 236.972656 "/>
<path style=" stroke:none;fill-rule:nonzero;fill:rgb(0%,0%,0%);fill-opacity:1;" d="M 352.128906 243.867188 C 350.996094 244.296875 349.667969 244.628906 348.125 244.882812 L 348.222656 245.664062 C 349.6875 245.390625 350.996094 245.058594 352.128906 244.648438 Z M 350.058594 235.78125 C 349.609375 237.109375 349.0625 238.300781 348.4375 239.335938 C 348.339844 239.472656 348.222656 239.570312 348.105469 239.628906 L 348.300781 240.371094 C 348.945312 240.292969 349.589844 240.195312 350.234375 240.097656 C 349.609375 241.152344 349.082031 241.894531 348.652344 242.324219 C 348.554688 242.421875 348.417969 242.5 348.28125 242.578125 L 348.496094 243.300781 C 349.609375 243.164062 350.78125 242.871094 351.992188 242.460938 L 351.992188 241.738281 C 351.171875 242.011719 350.332031 242.246094 349.472656 242.421875 C 350.15625 241.601562 351.015625 240.253906 352.03125 238.359375 L 351.328125 238.085938 C 351.09375 238.515625 350.878906 238.945312 350.664062 239.335938 C 350.117188 239.433594 349.589844 239.511719 349.0625 239.570312 C 349.648438 238.691406 350.234375 237.539062 350.800781 236.074219 Z M 351.992188 237.207031 L 351.992188 237.988281 L 354.6875 237.988281 L 354.6875 239.648438 L 352.363281 239.648438 L 352.363281 240.449219 L 357.851562 240.449219 L 357.851562 239.648438 L 355.507812 239.648438 L 355.507812 237.988281 L 358.183594 237.988281 L 358.183594 237.207031 L 355.507812 237.207031 L 355.507812 235.839844 L 354.6875 235.839844 L 354.6875 237.207031 Z M 357.539062 241.5625 L 352.734375 241.5625 L 352.734375 246.09375 L 353.535156 246.09375 L 353.535156 245.546875 L 356.738281 245.546875 L 356.738281 246.09375 L 357.539062 246.09375 Z M 353.535156 244.785156 L 353.535156 242.324219 L 356.738281 242.324219 L 356.738281 244.785156 Z M 353.535156 244.785156 "/>
<path style=" stroke:none;fill-rule:nonzero;fill:rgb(0%,0%,0%);fill-opacity:1;" d="M 228.125 237.34375 L 235.078125 237.34375 L 235.078125 236.640625 L 228.496094 236.640625 C 228.613281 236.386719 228.710938 236.113281 228.808594 235.839844 L 228.007812 235.703125 C 227.578125 236.972656 226.796875 238.027344 225.644531 238.90625 L 226.132812 239.53125 C 226.621094 239.160156 227.050781 238.75 227.421875 238.320312 L 227.421875 241.679688 L 228.867188 241.679688 C 228.261719 242.5 227.324219 243.164062 226.015625 243.671875 L 226.445312 244.355469 C 227.03125 244.082031 227.558594 243.789062 228.007812 243.476562 C 228.613281 244.003906 229.316406 244.453125 230.078125 244.824219 C 228.90625 245.15625 227.519531 245.351562 225.898438 245.429688 L 226.210938 246.132812 C 228.105469 246.015625 229.707031 245.722656 231.035156 245.234375 C 232.304688 245.722656 233.789062 246.015625 235.429688 246.09375 L 235.625 245.351562 C 234.296875 245.3125 233.085938 245.117188 231.992188 244.804688 C 232.929688 244.335938 233.671875 243.75 234.21875 243.027344 L 234.21875 242.441406 L 229.179688 242.441406 C 229.394531 242.207031 229.570312 241.953125 229.746094 241.679688 L 234.199219 241.679688 L 234.199219 238.125 L 227.578125 238.125 C 227.773438 237.871094 227.949219 237.617188 228.125 237.34375 Z M 231.035156 244.492188 C 230.136719 244.140625 229.316406 243.671875 228.59375 243.105469 L 233.222656 243.105469 C 232.675781 243.652344 231.933594 244.121094 231.035156 244.492188 Z M 233.417969 241.035156 L 228.222656 241.035156 L 228.222656 240.195312 L 233.417969 240.195312 Z M 228.222656 239.589844 L 228.222656 238.769531 L 233.417969 238.769531 L 233.417969 239.589844 Z M 228.222656 239.589844 "/>
<path style=" stroke:none;fill-rule:nonzero;fill:rgb(0%,0%,0%);fill-opacity:1;" d="M 238.007812 237.988281 L 239.570312 237.988281 L 239.570312 239.433594 L 236.855469 239.433594 L 236.855469 240.195312 L 239.570312 240.195312 L 239.570312 241.386719 L 237.363281 241.386719 L 237.363281 245.429688 L 238.144531 245.429688 L 238.144531 242.128906 L 239.570312 242.128906 L 239.570312 246.132812 L 240.390625 246.132812 L 240.390625 242.128906 L 241.816406 242.128906 L 241.816406 244.179688 C 241.816406 244.472656 241.640625 244.609375 241.328125 244.609375 L 240.78125 244.589844 L 240.976562 245.351562 L 241.5625 245.351562 C 242.246094 245.351562 242.578125 245.019531 242.578125 244.355469 L 242.578125 241.386719 L 240.390625 241.386719 L 240.390625 240.195312 L 242.8125 240.195312 L 242.8125 239.433594 L 240.390625 239.433594 L 240.390625 237.988281 L 242.5 237.988281 L 242.5 237.246094 L 240.390625 237.246094 L 240.390625 235.839844 L 239.570312 235.839844 L 239.570312 237.246094 L 238.28125 237.246094 C 238.359375 236.933594 238.4375 236.601562 238.496094 236.25 L 237.714844 236.132812 C 237.558594 237.1875 237.207031 238.027344 236.640625 238.632812 L 237.304688 239.101562 C 237.558594 238.808594 237.792969 238.4375 238.007812 237.988281 Z M 243.476562 236.855469 L 243.476562 243.808594 L 244.277344 243.808594 L 244.277344 236.855469 Z M 245.546875 246.015625 C 246.230469 246.015625 246.582031 245.664062 246.582031 244.960938 L 246.582031 235.839844 L 245.78125 235.839844 L 245.78125 244.765625 C 245.78125 245.117188 245.605469 245.3125 245.253906 245.3125 C 244.765625 245.3125 244.257812 245.273438 243.710938 245.253906 L 243.886719 246.015625 Z M 245.546875 246.015625 "/>
</g>
</svg>
