<?xml version="1.0" encoding="UTF-8"?>
<svg xmlns="http://www.w3.org/2000/svg" xmlns:xlink="http://www.w3.org/1999/xlink" width="343pt" height="226pt" viewBox="0 0 343 226" version="1.1">
<defs>
<clipPath id="clip1">
  <path d="M 93 17 L 103 17 L 103 178.875 L 93 178.875 Z M 93 17 "/>
</clipPath>
<clipPath id="clip2">
  <path d="M 116 86 L 126 86 L 126 178.875 L 116 178.875 Z M 116 86 "/>
</clipPath>
<clipPath id="clip3">
  <path d="M 138 173 L 149 173 L 149 178.875 L 138 178.875 Z M 138 173 "/>
</clipPath>
<clipPath id="clip4">
  <path d="M 161 178 L 171 178 L 171 178.875 L 161 178.875 Z M 161 178 "/>
</clipPath>
<clipPath id="clip5">
  <path d="M 184 178 L 194 178 L 194 178.875 L 184 178.875 Z M 184 178 "/>
</clipPath>
<clipPath id="clip6">
  <path d="M 206 178 L 216 178 L 216 178.875 L 206 178.875 Z M 206 178 "/>
</clipPath>
<clipPath id="clip7">
  <path d="M 229 178 L 239 178 L 239 178.875 L 229 178.875 Z M 229 178 "/>
</clipPath>
<clipPath id="clip8">
  <path d="M 274 178 L 284 178 L 284 178.875 L 274 178.875 Z M 274 178 "/>
</clipPath>
<clipPath id="clip9">
  <path d="M 102 32 L 112 32 L 112 178.875 L 102 178.875 Z M 102 32 "/>
</clipPath>
<clipPath id="clip10">
  <rect x="0" y="0" width="90" height="90"/>
</clipPath>
<g id="surface5" clip-path="url(#clip10)">
<rect x="0" y="0" width="90" height="90" style="fill:rgb(100%,49.803922%,5.490196%);fill-opacity:1;stroke:none;"/>
<path style="fill-rule:nonzero;fill:rgb(0%,0%,0%);fill-opacity:1;stroke-width:1;stroke-linecap:butt;stroke-linejoin:miter;stroke:rgb(0%,0%,0%);stroke-opacity:1;stroke-miterlimit:4;" d="M -36 36 L 36 -36 M -24 48 L 48 -24 M -12 60 L 60 -12 M 0 72 L 72 0 M 12 84 L 84 12 M 24 96 L 96 24 M 36 108 L 108 36 " transform="matrix(1.25,0,0,1.25,0,0)"/>
</g>
<pattern id="pattern0" patternUnits="userSpaceOnUse" width="90" height="90">
<use xlink:href="#surface5"/>
</pattern>
<clipPath id="clip11">
  <path d="M 125 74 L 135 74 L 135 178.875 L 125 178.875 Z M 125 74 "/>
</clipPath>
<clipPath id="clip12">
  <rect x="0" y="0" width="90" height="90"/>
</clipPath>
<g id="surface8" clip-path="url(#clip12)">
<rect x="0" y="0" width="90" height="90" style="fill:rgb(100%,49.803922%,5.490196%);fill-opacity:1;stroke:none;"/>
<path style="fill-rule:nonzero;fill:rgb(0%,0%,0%);fill-opacity:1;stroke-width:1;stroke-linecap:butt;stroke-linejoin:miter;stroke:rgb(0%,0%,0%);stroke-opacity:1;stroke-miterlimit:4;" d="M -36 36 L 36 -36 M -24 48 L 48 -24 M -12 60 L 60 -12 M 0 72 L 72 0 M 12 84 L 84 12 M 24 96 L 96 24 M 36 108 L 108 36 " transform="matrix(1.25,0,0,1.25,0,0)"/>
</g>
<pattern id="pattern1" patternUnits="userSpaceOnUse" width="90" height="90">
<use xlink:href="#surface8"/>
</pattern>
<clipPath id="clip13">
  <path d="M 148 170 L 158 170 L 158 178.875 L 148 178.875 Z M 148 170 "/>
</clipPath>
<clipPath id="clip14">
  <rect x="0" y="0" width="90" height="90"/>
</clipPath>
<g id="surface11" clip-path="url(#clip14)">
<rect x="0" y="0" width="90" height="90" style="fill:rgb(100%,49.803922%,5.490196%);fill-opacity:1;stroke:none;"/>
<path style="fill-rule:nonzero;fill:rgb(0%,0%,0%);fill-opacity:1;stroke-width:1;stroke-linecap:butt;stroke-linejoin:miter;stroke:rgb(0%,0%,0%);stroke-opacity:1;stroke-miterlimit:4;" d="M -36 36 L 36 -36 M -24 48 L 48 -24 M -12 60 L 60 -12 M 0 72 L 72 0 M 12 84 L 84 12 M 24 96 L 96 24 M 36 108 L 108 36 " transform="matrix(1.25,0,0,1.25,0,0)"/>
</g>
<pattern id="pattern2" patternUnits="userSpaceOnUse" width="90" height="90">
<use xlink:href="#surface11"/>
</pattern>
<clipPath id="clip15">
  <path d="M 170 177 L 180 177 L 180 178.875 L 170 178.875 Z M 170 177 "/>
</clipPath>
<clipPath id="clip16">
  <rect x="0" y="0" width="90" height="90"/>
</clipPath>
<g id="surface14" clip-path="url(#clip16)">
<rect x="0" y="0" width="90" height="90" style="fill:rgb(100%,49.803922%,5.490196%);fill-opacity:1;stroke:none;"/>
<path style="fill-rule:nonzero;fill:rgb(0%,0%,0%);fill-opacity:1;stroke-width:1;stroke-linecap:butt;stroke-linejoin:miter;stroke:rgb(0%,0%,0%);stroke-opacity:1;stroke-miterlimit:4;" d="M -36 36 L 36 -36 M -24 48 L 48 -24 M -12 60 L 60 -12 M 0 72 L 72 0 M 12 84 L 84 12 M 24 96 L 96 24 M 36 108 L 108 36 " transform="matrix(1.25,0,0,1.25,0,0)"/>
</g>
<pattern id="pattern3" patternUnits="userSpaceOnUse" width="90" height="90">
<use xlink:href="#surface14"/>
</pattern>
<clipPath id="clip17">
  <path d="M 193 178 L 203 178 L 203 178.875 L 193 178.875 Z M 193 178 "/>
</clipPath>
<clipPath id="clip18">
  <rect x="0" y="0" width="90" height="90"/>
</clipPath>
<g id="surface17" clip-path="url(#clip18)">
<rect x="0" y="0" width="90" height="90" style="fill:rgb(100%,49.803922%,5.490196%);fill-opacity:1;stroke:none;"/>
<path style="fill-rule:nonzero;fill:rgb(0%,0%,0%);fill-opacity:1;stroke-width:1;stroke-linecap:butt;stroke-linejoin:miter;stroke:rgb(0%,0%,0%);stroke-opacity:1;stroke-miterlimit:4;" d="M -36 36 L 36 -36 M -24 48 L 48 -24 M -12 60 L 60 -12 M 0 72 L 72 0 M 12 84 L 84 12 M 24 96 L 96 24 M 36 108 L 108 36 " transform="matrix(1.25,0,0,1.25,0,0)"/>
</g>
<pattern id="pattern4" patternUnits="userSpaceOnUse" width="90" height="90">
<use xlink:href="#surface17"/>
</pattern>
<clipPath id="clip19">
  <path d="M 215 178 L 226 178 L 226 178.875 L 215 178.875 Z M 215 178 "/>
</clipPath>
<clipPath id="clip20">
  <rect x="0" y="0" width="90" height="90"/>
</clipPath>
<g id="surface20" clip-path="url(#clip20)">
<rect x="0" y="0" width="90" height="90" style="fill:rgb(100%,49.803922%,5.490196%);fill-opacity:1;stroke:none;"/>
<path style="fill-rule:nonzero;fill:rgb(0%,0%,0%);fill-opacity:1;stroke-width:1;stroke-linecap:butt;stroke-linejoin:miter;stroke:rgb(0%,0%,0%);stroke-opacity:1;stroke-miterlimit:4;" d="M -36 36 L 36 -36 M -24 48 L 48 -24 M -12 60 L 60 -12 M 0 72 L 72 0 M 12 84 L 84 12 M 24 96 L 96 24 M 36 108 L 108 36 " transform="matrix(1.25,0,0,1.25,0,0)"/>
</g>
<pattern id="pattern5" patternUnits="userSpaceOnUse" width="90" height="90">
<use xlink:href="#surface20"/>
</pattern>
<clipPath id="clip21">
  <path d="M 238 178 L 248 178 L 248 178.875 L 238 178.875 Z M 238 178 "/>
</clipPath>
<clipPath id="clip22">
  <rect x="0" y="0" width="90" height="90"/>
</clipPath>
<g id="surface23" clip-path="url(#clip22)">
<rect x="0" y="0" width="90" height="90" style="fill:rgb(100%,49.803922%,5.490196%);fill-opacity:1;stroke:none;"/>
<path style="fill-rule:nonzero;fill:rgb(0%,0%,0%);fill-opacity:1;stroke-width:1;stroke-linecap:butt;stroke-linejoin:miter;stroke:rgb(0%,0%,0%);stroke-opacity:1;stroke-miterlimit:4;" d="M -36 36 L 36 -36 M -24 48 L 48 -24 M -12 60 L 60 -12 M 0 72 L 72 0 M 12 84 L 84 12 M 24 96 L 96 24 M 36 108 L 108 36 " transform="matrix(1.25,0,0,1.25,0,0)"/>
</g>
<pattern id="pattern6" patternUnits="userSpaceOnUse" width="90" height="90">
<use xlink:href="#surface23"/>
</pattern>
<clipPath id="clip23">
  <path d="M 261 178 L 271 178 L 271 178.875 L 261 178.875 Z M 261 178 "/>
</clipPath>
<clipPath id="clip24">
  <rect x="0" y="0" width="90" height="90"/>
</clipPath>
<g id="surface26" clip-path="url(#clip24)">
<rect x="0" y="0" width="90" height="90" style="fill:rgb(100%,49.803922%,5.490196%);fill-opacity:1;stroke:none;"/>
<path style="fill-rule:nonzero;fill:rgb(0%,0%,0%);fill-opacity:1;stroke-width:1;stroke-linecap:butt;stroke-linejoin:miter;stroke:rgb(0%,0%,0%);stroke-opacity:1;stroke-miterlimit:4;" d="M -36 36 L 36 -36 M -24 48 L 48 -24 M -12 60 L 60 -12 M 0 72 L 72 0 M 12 84 L 84 12 M 24 96 L 96 24 M 36 108 L 108 36 " transform="matrix(1.25,0,0,1.25,0,0)"/>
</g>
<pattern id="pattern7" patternUnits="userSpaceOnUse" width="90" height="90">
<use xlink:href="#surface26"/>
</pattern>
<clipPath id="clip25">
  <path d="M 283 178 L 293 178 L 293 178.875 L 283 178.875 Z M 283 178 "/>
</clipPath>
<clipPath id="clip26">
  <rect x="0" y="0" width="90" height="90"/>
</clipPath>
<g id="surface29" clip-path="url(#clip26)">
<rect x="0" y="0" width="90" height="90" style="fill:rgb(100%,49.803922%,5.490196%);fill-opacity:1;stroke:none;"/>
<path style="fill-rule:nonzero;fill:rgb(0%,0%,0%);fill-opacity:1;stroke-width:1;stroke-linecap:butt;stroke-linejoin:miter;stroke:rgb(0%,0%,0%);stroke-opacity:1;stroke-miterlimit:4;" d="M -36 36 L 36 -36 M -24 48 L 48 -24 M -12 60 L 60 -12 M 0 72 L 72 0 M 12 84 L 84 12 M 24 96 L 96 24 M 36 108 L 108 36 " transform="matrix(1.25,0,0,1.25,0,0)"/>
</g>
<pattern id="pattern8" patternUnits="userSpaceOnUse" width="90" height="90">
<use xlink:href="#surface29"/>
</pattern>
<clipPath id="clip27">
  <path d="M 306 178 L 316 178 L 316 178.875 L 306 178.875 Z M 306 178 "/>
</clipPath>
<clipPath id="clip28">
  <rect x="0" y="0" width="90" height="90"/>
</clipPath>
<g id="surface32" clip-path="url(#clip28)">
<rect x="0" y="0" width="90" height="90" style="fill:rgb(100%,49.803922%,5.490196%);fill-opacity:1;stroke:none;"/>
<path style="fill-rule:nonzero;fill:rgb(0%,0%,0%);fill-opacity:1;stroke-width:1;stroke-linecap:butt;stroke-linejoin:miter;stroke:rgb(0%,0%,0%);stroke-opacity:1;stroke-miterlimit:4;" d="M -36 36 L 36 -36 M -24 48 L 48 -24 M -12 60 L 60 -12 M 0 72 L 72 0 M 12 84 L 84 12 M 24 96 L 96 24 M 36 108 L 108 36 " transform="matrix(1.25,0,0,1.25,0,0)"/>
</g>
<pattern id="pattern9" patternUnits="userSpaceOnUse" width="90" height="90">
<use xlink:href="#surface32"/>
</pattern>
<filter id="alpha" filterUnits="objectBoundingBox" x="0%" y="0%" width="100%" height="100%">
  <feColorMatrix type="matrix" in="SourceGraphic" values="0 0 0 0 1 0 0 0 0 1 0 0 0 0 1 0 0 0 1 0"/>
</filter>
<mask id="mask0">
  <g filter="url(#alpha)">
<rect x="0" y="0" width="343" height="226" style="fill:rgb(0%,0%,0%);fill-opacity:0.8;stroke:none;"/>
  </g>
</mask>
<clipPath id="clip29">
  <rect x="0" y="0" width="343" height="226"/>
</clipPath>
<g id="surface35" clip-path="url(#clip29)">
<path style="fill-rule:nonzero;fill:rgb(100%,100%,100%);fill-opacity:1;stroke-width:1;stroke-linecap:butt;stroke-linejoin:miter;stroke:rgb(80%,80%,80%);stroke-opacity:1;stroke-miterlimit:4;" d="M 189.15 44.55625 L 254.353125 44.55625 C 255.6875 44.55625 256.353125 43.890625 256.353125 42.55625 L 256.353125 14.2 C 256.353125 12.865625 255.6875 12.2 254.353125 12.2 L 189.15 12.2 C 187.815625 12.2 187.15 12.865625 187.15 14.2 L 187.15 42.55625 C 187.15 43.890625 187.815625 44.55625 189.15 44.55625 Z M 189.15 44.55625 " transform="matrix(1.25,0,0,1.25,0,0)"/>
</g>
<clipPath id="clip30">
  <rect x="0" y="0" width="90" height="90"/>
</clipPath>
<g id="surface38" clip-path="url(#clip30)">
<rect x="0" y="0" width="90" height="90" style="fill:rgb(100%,49.803922%,5.490196%);fill-opacity:1;stroke:none;"/>
<path style="fill-rule:nonzero;fill:rgb(0%,0%,0%);fill-opacity:1;stroke-width:1;stroke-linecap:butt;stroke-linejoin:miter;stroke:rgb(0%,0%,0%);stroke-opacity:1;stroke-miterlimit:4;" d="M -36 36 L 36 -36 M -24 48 L 48 -24 M -12 60 L 60 -12 M 0 72 L 72 0 M 12 84 L 84 12 M 24 96 L 96 24 M 36 108 L 108 36 " transform="matrix(1.25,0,0,1.25,0,0)"/>
</g>
<pattern id="pattern10" patternUnits="userSpaceOnUse" width="90" height="90">
<use xlink:href="#surface38"/>
</pattern>
</defs>
<g id="surface1">
<path style=" stroke:none;fill-rule:nonzero;fill:rgb(100%,100%,100%);fill-opacity:1;" d="M 82.566406 178.875 L 326.691406 178.875 L 326.691406 9 L 82.566406 9 Z M 82.566406 178.875 "/>
<g clip-path="url(#clip1)" clip-rule="nonzero">
<path style=" stroke:none;fill-rule:nonzero;fill:rgb(12.156863%,46.666667%,70.588235%);fill-opacity:1;" d="M 93.664062 178.875 L 102.722656 178.875 L 102.722656 17.089844 L 93.664062 17.089844 Z M 93.664062 178.875 "/>
</g>
<g clip-path="url(#clip2)" clip-rule="nonzero">
<path style=" stroke:none;fill-rule:nonzero;fill:rgb(12.156863%,46.666667%,70.588235%);fill-opacity:1;" d="M 116.308594 178.875 L 125.367188 178.875 L 125.367188 86.390625 L 116.308594 86.390625 Z M 116.308594 178.875 "/>
</g>
<g clip-path="url(#clip3)" clip-rule="nonzero">
<path style=" stroke:none;fill-rule:nonzero;fill:rgb(12.156863%,46.666667%,70.588235%);fill-opacity:1;" d="M 138.957031 178.875 L 148.011719 178.875 L 148.011719 173.199219 L 138.957031 173.199219 Z M 138.957031 178.875 "/>
</g>
<g clip-path="url(#clip4)" clip-rule="nonzero">
<path style=" stroke:none;fill-rule:nonzero;fill:rgb(12.156863%,46.666667%,70.588235%);fill-opacity:1;" d="M 161.601562 178.875 L 170.660156 178.875 L 170.660156 178.316406 L 161.601562 178.316406 Z M 161.601562 178.875 "/>
</g>
<g clip-path="url(#clip5)" clip-rule="nonzero">
<path style=" stroke:none;fill-rule:nonzero;fill:rgb(12.156863%,46.666667%,70.588235%);fill-opacity:1;" d="M 184.246094 178.875 L 193.304688 178.875 L 193.304688 178.804688 L 184.246094 178.804688 Z M 184.246094 178.875 "/>
</g>
<g clip-path="url(#clip6)" clip-rule="nonzero">
<path style=" stroke:none;fill-rule:nonzero;fill:rgb(12.156863%,46.666667%,70.588235%);fill-opacity:1;" d="M 206.894531 178.875 L 215.953125 178.875 L 215.953125 178.855469 L 206.894531 178.855469 Z M 206.894531 178.875 "/>
</g>
<g clip-path="url(#clip7)" clip-rule="nonzero">
<path style=" stroke:none;fill-rule:nonzero;fill:rgb(12.156863%,46.666667%,70.588235%);fill-opacity:1;" d="M 229.539062 178.875 L 238.597656 178.875 L 238.597656 178.867188 L 229.539062 178.867188 Z M 229.539062 178.875 "/>
</g>
<g clip-path="url(#clip8)" clip-rule="nonzero">
<path style=" stroke:none;fill-rule:nonzero;fill:rgb(12.156863%,46.666667%,70.588235%);fill-opacity:1;" d="M 274.832031 178.875 L 283.890625 178.875 L 283.890625 178.871094 L 274.832031 178.871094 Z M 274.832031 178.875 "/>
</g>
<g clip-path="url(#clip9)" clip-rule="nonzero">
<path style=" stroke:none;fill-rule:nonzero;fill:url(#pattern0);" d="M 102.722656 178.875 L 111.78125 178.875 L 111.78125 32.996094 L 102.722656 32.996094 Z M 102.722656 178.875 "/>
</g>
<g clip-path="url(#clip11)" clip-rule="nonzero">
<path style=" stroke:none;fill-rule:nonzero;fill:url(#pattern1);" d="M 125.367188 178.875 L 134.425781 178.875 L 134.425781 74.316406 L 125.367188 74.316406 Z M 125.367188 178.875 "/>
</g>
<g clip-path="url(#clip13)" clip-rule="nonzero">
<path style=" stroke:none;fill-rule:nonzero;fill:url(#pattern2);" d="M 148.011719 178.875 L 157.070312 178.875 L 157.070312 170.054688 L 148.011719 170.054688 Z M 148.011719 178.875 "/>
</g>
<g clip-path="url(#clip15)" clip-rule="nonzero">
<path style=" stroke:none;fill-rule:nonzero;fill:url(#pattern3);" d="M 170.660156 178.875 L 179.71875 178.875 L 179.71875 177.722656 L 170.660156 177.722656 Z M 170.660156 178.875 "/>
</g>
<g clip-path="url(#clip17)" clip-rule="nonzero">
<path style=" stroke:none;fill-rule:nonzero;fill:url(#pattern4);" d="M 193.304688 178.875 L 202.363281 178.875 L 202.363281 178.742188 L 193.304688 178.742188 Z M 193.304688 178.875 "/>
</g>
<g clip-path="url(#clip19)" clip-rule="nonzero">
<path style=" stroke:none;fill-rule:nonzero;fill:url(#pattern5);" d="M 215.953125 178.875 L 225.011719 178.875 L 225.011719 178.824219 L 215.953125 178.824219 Z M 215.953125 178.875 "/>
</g>
<g clip-path="url(#clip21)" clip-rule="nonzero">
<path style=" stroke:none;fill-rule:nonzero;fill:url(#pattern6);" d="M 238.597656 178.875 L 247.65625 178.875 L 247.65625 178.871094 L 238.597656 178.871094 Z M 238.597656 178.875 "/>
</g>
<g clip-path="url(#clip23)" clip-rule="nonzero">
<path style=" stroke:none;fill-rule:nonzero;fill:url(#pattern7);" d="M 261.246094 178.875 L 270.300781 178.875 L 270.300781 178.871094 L 261.246094 178.871094 Z M 261.246094 178.875 "/>
</g>
<g clip-path="url(#clip25)" clip-rule="nonzero">
<path style=" stroke:none;fill-rule:nonzero;fill:url(#pattern8);" d="M 283.890625 178.875 L 292.949219 178.875 L 292.949219 178.871094 L 283.890625 178.871094 Z M 283.890625 178.875 "/>
</g>
<g clip-path="url(#clip27)" clip-rule="nonzero">
<path style=" stroke:none;fill-rule:nonzero;fill:url(#pattern9);" d="M 306.535156 178.875 L 315.59375 178.875 L 315.59375 178.871094 L 306.535156 178.871094 Z M 306.535156 178.875 "/>
</g>
<path style="fill:none;stroke-width:0.8;stroke-linecap:butt;stroke-linejoin:round;stroke:rgb(0%,0%,0%);stroke-opacity:1;stroke-miterlimit:4;" d="M -0.001519 0 L -0.001519 3.5 " transform="matrix(1.25,0,0,1.25,83.310492,178.875)"/>
<path style=" stroke:none;fill-rule:nonzero;fill:rgb(0%,0%,0%);fill-opacity:1;" d="M 83.304688 188.824219 C 82.671875 188.824219 82.195312 189.136719 81.875 189.761719 C 81.554688 190.382812 81.394531 191.324219 81.394531 192.578125 C 81.394531 193.824219 81.554688 194.761719 81.875 195.386719 C 82.195312 196.011719 82.671875 196.324219 83.304688 196.324219 C 83.945312 196.324219 84.425781 196.011719 84.742188 195.386719 C 85.0625 194.761719 85.222656 193.824219 85.222656 192.578125 C 85.222656 191.324219 85.0625 190.382812 84.742188 189.761719 C 84.425781 189.136719 83.945312 188.824219 83.304688 188.824219 Z M 83.304688 187.847656 C 84.328125 187.847656 85.109375 188.25 85.648438 189.058594 C 86.1875 189.867188 86.457031 191.039062 86.457031 192.578125 C 86.457031 194.109375 86.1875 195.28125 85.648438 196.089844 C 85.109375 196.898438 84.328125 197.300781 83.304688 197.300781 C 82.285156 197.300781 81.503906 196.898438 80.964844 196.089844 C 80.425781 195.28125 80.15625 194.109375 80.15625 192.578125 C 80.15625 191.039062 80.425781 189.867188 80.964844 189.058594 C 81.503906 188.25 82.285156 187.847656 83.304688 187.847656 Z M 83.304688 187.847656 "/>
<path style="fill:none;stroke-width:0.8;stroke-linecap:butt;stroke-linejoin:round;stroke:rgb(0%,0%,0%);stroke-opacity:1;stroke-miterlimit:4;" d="M -0.001548 0 L -0.001548 3.5 " transform="matrix(1.25,0,0,1.25,164.189435,178.875)"/>
<path style=" stroke:none;fill-rule:nonzero;fill:rgb(0%,0%,0%);fill-opacity:1;" d="M 158.632812 196.085938 L 162.9375 196.085938 L 162.9375 197.125 L 157.152344 197.125 L 157.152344 196.085938 C 157.621094 195.601562 158.257812 194.953125 159.0625 194.136719 C 159.871094 193.320312 160.378906 192.792969 160.585938 192.558594 C 160.980469 192.113281 161.257812 191.738281 161.414062 191.433594 C 161.570312 191.125 161.648438 190.824219 161.648438 190.527344 C 161.648438 190.042969 161.480469 189.648438 161.140625 189.34375 C 160.800781 189.035156 160.359375 188.882812 159.8125 188.882812 C 159.425781 188.882812 159.015625 188.949219 158.585938 189.085938 C 158.160156 189.21875 157.699219 189.421875 157.210938 189.695312 L 157.210938 188.449219 C 157.707031 188.25 158.171875 188.101562 158.601562 188 C 159.035156 187.898438 159.429688 187.847656 159.789062 187.847656 C 160.734375 187.847656 161.484375 188.082031 162.046875 188.554688 C 162.609375 189.027344 162.886719 189.65625 162.886719 190.445312 C 162.886719 190.820312 162.816406 191.175781 162.675781 191.511719 C 162.539062 191.847656 162.28125 192.242188 161.910156 192.699219 C 161.808594 192.816406 161.488281 193.15625 160.941406 193.722656 C 160.398438 194.285156 159.628906 195.074219 158.632812 196.085938 Z M 158.632812 196.085938 "/>
<path style=" stroke:none;fill-rule:nonzero;fill:rgb(0%,0%,0%);fill-opacity:1;" d="M 168.160156 188.824219 C 167.527344 188.824219 167.050781 189.136719 166.730469 189.761719 C 166.410156 190.382812 166.25 191.324219 166.25 192.578125 C 166.25 193.824219 166.410156 194.761719 166.730469 195.386719 C 167.050781 196.011719 167.527344 196.324219 168.160156 196.324219 C 168.800781 196.324219 169.28125 196.011719 169.597656 195.386719 C 169.917969 194.761719 170.078125 193.824219 170.078125 192.578125 C 170.078125 191.324219 169.917969 190.382812 169.597656 189.761719 C 169.28125 189.136719 168.800781 188.824219 168.160156 188.824219 Z M 168.160156 187.847656 C 169.183594 187.847656 169.964844 188.25 170.503906 189.058594 C 171.042969 189.867188 171.3125 191.039062 171.3125 192.578125 C 171.3125 194.109375 171.042969 195.28125 170.503906 196.089844 C 169.964844 196.898438 169.183594 197.300781 168.160156 197.300781 C 167.140625 197.300781 166.359375 196.898438 165.820312 196.089844 C 165.28125 195.28125 165.011719 194.109375 165.011719 192.578125 C 165.011719 191.039062 165.28125 189.867188 165.820312 189.058594 C 166.359375 188.25 167.140625 187.847656 168.160156 187.847656 Z M 168.160156 187.847656 "/>
<path style="fill:none;stroke-width:0.8;stroke-linecap:butt;stroke-linejoin:round;stroke:rgb(0%,0%,0%);stroke-opacity:1;stroke-miterlimit:4;" d="M 0.001548 0 L 0.001548 3.5 " transform="matrix(1.25,0,0,1.25,245.068377,178.875)"/>
<path style=" stroke:none;fill-rule:nonzero;fill:rgb(0%,0%,0%);fill-opacity:1;" d="M 241.839844 189.085938 L 238.726562 193.949219 L 241.839844 193.949219 Z M 241.515625 188.011719 L 243.066406 188.011719 L 243.066406 193.949219 L 244.367188 193.949219 L 244.367188 194.976562 L 243.066406 194.976562 L 243.066406 197.125 L 241.839844 197.125 L 241.839844 194.976562 L 237.726562 194.976562 L 237.726562 193.785156 Z M 241.515625 188.011719 "/>
<path style=" stroke:none;fill-rule:nonzero;fill:rgb(0%,0%,0%);fill-opacity:1;" d="M 249.039062 188.824219 C 248.40625 188.824219 247.929688 189.136719 247.609375 189.761719 C 247.289062 190.382812 247.128906 191.324219 247.128906 192.578125 C 247.128906 193.824219 247.289062 194.761719 247.609375 195.386719 C 247.929688 196.011719 248.40625 196.324219 249.039062 196.324219 C 249.679688 196.324219 250.160156 196.011719 250.476562 195.386719 C 250.796875 194.761719 250.957031 193.824219 250.957031 192.578125 C 250.957031 191.324219 250.796875 190.382812 250.476562 189.761719 C 250.160156 189.136719 249.679688 188.824219 249.039062 188.824219 Z M 249.039062 187.847656 C 250.0625 187.847656 250.84375 188.25 251.382812 189.058594 C 251.921875 189.867188 252.191406 191.039062 252.191406 192.578125 C 252.191406 194.109375 251.921875 195.28125 251.382812 196.089844 C 250.84375 196.898438 250.0625 197.300781 249.039062 197.300781 C 248.019531 197.300781 247.238281 196.898438 246.699219 196.089844 C 246.160156 195.28125 245.890625 194.109375 245.890625 192.578125 C 245.890625 191.039062 246.160156 189.867188 246.699219 189.058594 C 247.238281 188.25 248.019531 187.847656 249.039062 187.847656 Z M 249.039062 187.847656 "/>
<path style="fill:none;stroke-width:0.8;stroke-linecap:butt;stroke-linejoin:round;stroke:rgb(0%,0%,0%);stroke-opacity:1;stroke-miterlimit:4;" d="M 0.001519 0 L 0.001519 3.5 " transform="matrix(1.25,0,0,1.25,325.94732,178.875)"/>
<path style=" stroke:none;fill-rule:nonzero;fill:rgb(0%,0%,0%);fill-opacity:1;" d="M 322.121094 192.078125 C 321.566406 192.078125 321.128906 192.265625 320.804688 192.644531 C 320.480469 193.023438 320.320312 193.539062 320.320312 194.199219 C 320.320312 194.855469 320.480469 195.371094 320.804688 195.753906 C 321.128906 196.132812 321.566406 196.324219 322.121094 196.324219 C 322.675781 196.324219 323.113281 196.132812 323.4375 195.753906 C 323.757812 195.371094 323.921875 194.855469 323.921875 194.199219 C 323.921875 193.539062 323.757812 193.023438 323.4375 192.644531 C 323.113281 192.265625 322.675781 192.078125 322.121094 192.078125 Z M 324.570312 188.210938 L 324.570312 189.335938 C 324.257812 189.1875 323.945312 189.078125 323.632812 189 C 323.316406 188.921875 323.003906 188.882812 322.695312 188.882812 C 321.878906 188.882812 321.257812 189.15625 320.828125 189.707031 C 320.398438 190.257812 320.15625 191.085938 320.09375 192.199219 C 320.332031 191.84375 320.632812 191.570312 320.996094 191.382812 C 321.359375 191.195312 321.757812 191.101562 322.195312 191.101562 C 323.109375 191.101562 323.832031 191.378906 324.363281 191.933594 C 324.894531 192.488281 325.160156 193.242188 325.160156 194.199219 C 325.160156 195.136719 324.882812 195.886719 324.332031 196.453125 C 323.777344 197.019531 323.039062 197.300781 322.121094 197.300781 C 321.066406 197.300781 320.261719 196.898438 319.703125 196.089844 C 319.144531 195.28125 318.867188 194.109375 318.867188 192.578125 C 318.867188 191.136719 319.210938 189.988281 319.894531 189.132812 C 320.578125 188.273438 321.492188 187.847656 322.644531 187.847656 C 322.953125 187.847656 323.265625 187.875 323.582031 187.9375 C 323.898438 188 324.226562 188.089844 324.570312 188.210938 Z M 324.570312 188.210938 "/>
<path style=" stroke:none;fill-rule:nonzero;fill:rgb(0%,0%,0%);fill-opacity:1;" d="M 329.917969 188.824219 C 329.285156 188.824219 328.808594 189.136719 328.488281 189.761719 C 328.167969 190.382812 328.007812 191.324219 328.007812 192.578125 C 328.007812 193.824219 328.167969 194.761719 328.488281 195.386719 C 328.808594 196.011719 329.285156 196.324219 329.917969 196.324219 C 330.558594 196.324219 331.039062 196.011719 331.355469 195.386719 C 331.675781 194.761719 331.835938 193.824219 331.835938 192.578125 C 331.835938 191.324219 331.675781 190.382812 331.355469 189.761719 C 331.039062 189.136719 330.558594 188.824219 329.917969 188.824219 Z M 329.917969 187.847656 C 330.941406 187.847656 331.722656 188.25 332.261719 189.058594 C 332.800781 189.867188 333.070312 191.039062 333.070312 192.578125 C 333.070312 194.109375 332.800781 195.28125 332.261719 196.089844 C 331.722656 196.898438 330.941406 197.300781 329.917969 197.300781 C 328.898438 197.300781 328.117188 196.898438 327.578125 196.089844 C 327.039062 195.28125 326.769531 194.109375 326.769531 192.578125 C 326.769531 191.039062 327.039062 189.867188 327.578125 189.058594 C 328.117188 188.25 328.898438 187.847656 329.917969 187.847656 Z M 329.917969 187.847656 "/>
<path style=" stroke:none;fill-rule:nonzero;fill:rgb(0%,0%,0%);fill-opacity:1;" d="M 138.589844 208.722656 L 136.816406 208.722656 L 136.300781 210.761719 L 138.089844 210.761719 Z M 137.675781 205.25 L 137.039062 207.78125 L 138.824219 207.78125 L 139.464844 205.25 L 140.441406 205.25 L 139.8125 207.78125 L 141.714844 207.78125 L 141.714844 208.722656 L 139.574219 208.722656 L 139.074219 210.761719 L 141.015625 210.761719 L 141.015625 211.695312 L 138.835938 211.695312 L 138.199219 214.222656 L 137.222656 214.222656 L 137.851562 211.695312 L 136.0625 211.695312 L 135.433594 214.222656 L 134.453125 214.222656 L 135.085938 211.695312 L 133.164062 211.695312 L 133.164062 210.761719 L 135.3125 210.761719 L 135.824219 208.722656 L 133.859375 208.722656 L 133.859375 207.78125 L 136.0625 207.78125 L 136.6875 205.25 Z M 137.675781 205.25 "/>
<path style=" stroke:none;fill-rule:nonzero;fill:rgb(0%,0%,0%);fill-opacity:1;" d="M 148.9375 205.445312 L 148.9375 207.386719 L 151.25 207.386719 L 151.25 208.257812 L 148.9375 208.257812 L 148.9375 211.96875 C 148.9375 212.527344 149.011719 212.882812 149.164062 213.042969 C 149.316406 213.203125 149.628906 213.28125 150.097656 213.28125 L 151.25 213.28125 L 151.25 214.222656 L 150.097656 214.222656 C 149.230469 214.222656 148.632812 214.058594 148.300781 213.738281 C 147.972656 213.414062 147.808594 212.824219 147.808594 211.96875 L 147.808594 208.257812 L 146.984375 208.257812 L 146.984375 207.386719 L 147.808594 207.386719 L 147.808594 205.445312 Z M 148.9375 205.445312 "/>
<path style=" stroke:none;fill-rule:nonzero;fill:rgb(0%,0%,0%);fill-opacity:1;" d="M 155.375 208.171875 C 154.773438 208.171875 154.296875 208.40625 153.949219 208.878906 C 153.597656 209.347656 153.421875 209.992188 153.421875 210.808594 C 153.421875 211.625 153.597656 212.269531 153.945312 212.742188 C 154.292969 213.210938 154.769531 213.445312 155.375 213.445312 C 155.972656 213.445312 156.449219 213.210938 156.796875 212.738281 C 157.148438 212.265625 157.324219 211.621094 157.324219 210.808594 C 157.324219 210 157.148438 209.355469 156.796875 208.882812 C 156.449219 208.410156 155.972656 208.171875 155.375 208.171875 Z M 155.375 207.222656 C 156.351562 207.222656 157.117188 207.539062 157.675781 208.175781 C 158.234375 208.808594 158.515625 209.6875 158.515625 210.808594 C 158.515625 211.925781 158.234375 212.804688 157.675781 213.445312 C 157.117188 214.082031 156.351562 214.398438 155.375 214.398438 C 154.394531 214.398438 153.625 214.082031 153.070312 213.445312 C 152.515625 212.804688 152.238281 211.925781 152.238281 210.808594 C 152.238281 209.6875 152.515625 208.808594 153.070312 208.175781 C 153.625 207.539062 154.394531 207.222656 155.375 207.222656 Z M 155.375 207.222656 "/>
<path style=" stroke:none;fill-rule:nonzero;fill:rgb(0%,0%,0%);fill-opacity:1;" d="M 160.332031 204.722656 L 161.460938 204.722656 L 161.460938 210.332031 L 164.8125 207.386719 L 166.246094 207.386719 L 162.621094 210.582031 L 166.398438 214.222656 L 164.933594 214.222656 L 161.460938 210.882812 L 161.460938 214.222656 L 160.332031 214.222656 Z M 160.332031 204.722656 "/>
<path style=" stroke:none;fill-rule:nonzero;fill:rgb(0%,0%,0%);fill-opacity:1;" d="M 173.007812 210.523438 L 173.007812 211.070312 L 167.84375 211.070312 C 167.894531 211.84375 168.125 212.433594 168.542969 212.839844 C 168.960938 213.242188 169.539062 213.445312 170.285156 213.445312 C 170.714844 213.445312 171.132812 213.394531 171.539062 213.289062 C 171.945312 213.183594 172.347656 213.023438 172.746094 212.8125 L 172.746094 213.875 C 172.34375 214.042969 171.929688 214.175781 171.507812 214.265625 C 171.082031 214.355469 170.652344 214.398438 170.21875 214.398438 C 169.128906 214.398438 168.265625 214.082031 167.628906 213.449219 C 166.992188 212.8125 166.671875 211.953125 166.671875 210.871094 C 166.671875 209.75 166.972656 208.863281 167.578125 208.207031 C 168.183594 207.550781 168.996094 207.222656 170.023438 207.222656 C 170.941406 207.222656 171.671875 207.515625 172.207031 208.109375 C 172.742188 208.699219 173.007812 209.503906 173.007812 210.523438 Z M 171.886719 210.191406 C 171.878906 209.578125 171.707031 209.089844 171.371094 208.722656 C 171.035156 208.355469 170.589844 208.171875 170.035156 208.171875 C 169.410156 208.171875 168.90625 208.347656 168.53125 208.703125 C 168.15625 209.058594 167.9375 209.554688 167.882812 210.199219 Z M 171.886719 210.191406 "/>
<path style=" stroke:none;fill-rule:nonzero;fill:rgb(0%,0%,0%);fill-opacity:1;" d="M 180.535156 210.09375 L 180.535156 214.222656 L 179.410156 214.222656 L 179.410156 210.132812 C 179.410156 209.484375 179.285156 209 179.03125 208.679688 C 178.78125 208.359375 178.402344 208.199219 177.898438 208.199219 C 177.289062 208.199219 176.8125 208.390625 176.460938 208.777344 C 176.113281 209.164062 175.9375 209.691406 175.9375 210.359375 L 175.9375 214.222656 L 174.808594 214.222656 L 174.808594 207.386719 L 175.9375 207.386719 L 175.9375 208.449219 C 176.207031 208.035156 176.523438 207.730469 176.886719 207.527344 C 177.25 207.324219 177.671875 207.222656 178.148438 207.222656 C 178.933594 207.222656 179.527344 207.464844 179.929688 207.949219 C 180.332031 208.433594 180.535156 209.148438 180.535156 210.09375 Z M 180.535156 210.09375 "/>
<path style=" stroke:none;fill-rule:nonzero;fill:rgb(0%,0%,0%);fill-opacity:1;" d="M 187.128906 207.585938 L 187.128906 208.648438 C 186.8125 208.484375 186.484375 208.363281 186.140625 208.285156 C 185.800781 208.203125 185.445312 208.160156 185.078125 208.160156 C 184.523438 208.160156 184.105469 208.246094 183.824219 208.417969 C 183.546875 208.585938 183.40625 208.84375 183.40625 209.1875 C 183.40625 209.445312 183.507812 209.652344 183.707031 209.800781 C 183.90625 209.949219 184.308594 210.089844 184.910156 210.222656 L 185.292969 210.308594 C 186.089844 210.480469 186.65625 210.71875 186.992188 211.03125 C 187.328125 211.34375 187.496094 211.777344 187.496094 212.335938 C 187.496094 212.96875 187.246094 213.472656 186.742188 213.84375 C 186.242188 214.214844 185.550781 214.398438 184.671875 214.398438 C 184.304688 214.398438 183.925781 214.363281 183.527344 214.292969 C 183.128906 214.21875 182.710938 214.113281 182.273438 213.972656 L 182.273438 212.8125 C 182.6875 213.027344 183.097656 213.1875 183.5 213.296875 C 183.902344 213.402344 184.300781 213.457031 184.695312 213.457031 C 185.226562 213.457031 185.632812 213.367188 185.914062 213.1875 C 186.199219 213.003906 186.34375 212.75 186.34375 212.421875 C 186.34375 212.117188 186.242188 211.882812 186.035156 211.71875 C 185.832031 211.554688 185.378906 211.398438 184.683594 211.25 L 184.292969 211.15625 C 183.597656 211.011719 183.09375 210.785156 182.785156 210.484375 C 182.476562 210.179688 182.320312 209.761719 182.320312 209.234375 C 182.320312 208.589844 182.550781 208.09375 183.003906 207.746094 C 183.460938 207.394531 184.109375 207.222656 184.945312 207.222656 C 185.359375 207.222656 185.75 207.25 186.117188 207.3125 C 186.484375 207.371094 186.820312 207.464844 187.128906 207.585938 Z M 187.128906 207.585938 "/>
<path style=" stroke:none;fill-rule:nonzero;fill:rgb(0%,0%,0%);fill-opacity:1;" d="M 194.34375 213.195312 L 194.34375 216.820312 L 193.214844 216.820312 L 193.214844 207.386719 L 194.34375 207.386719 L 194.34375 208.421875 C 194.582031 208.015625 194.878906 207.714844 195.238281 207.519531 C 195.601562 207.320312 196.03125 207.222656 196.53125 207.222656 C 197.359375 207.222656 198.035156 207.550781 198.554688 208.210938 C 199.074219 208.867188 199.332031 209.734375 199.332031 210.808594 C 199.332031 211.882812 199.074219 212.75 198.554688 213.410156 C 198.035156 214.070312 197.359375 214.398438 196.53125 214.398438 C 196.03125 214.398438 195.601562 214.300781 195.238281 214.101562 C 194.878906 213.902344 194.582031 213.601562 194.34375 213.195312 Z M 198.167969 210.808594 C 198.167969 209.984375 197.996094 209.335938 197.65625 208.867188 C 197.316406 208.394531 196.851562 208.160156 196.257812 208.160156 C 195.660156 208.160156 195.195312 208.394531 194.855469 208.867188 C 194.515625 209.335938 194.34375 209.984375 194.34375 210.808594 C 194.34375 211.632812 194.515625 212.28125 194.855469 212.753906 C 195.195312 213.222656 195.660156 213.457031 196.257812 213.457031 C 196.851562 213.457031 197.316406 213.222656 197.65625 212.753906 C 197.996094 212.28125 198.167969 211.632812 198.167969 210.808594 Z M 198.167969 210.808594 "/>
<path style=" stroke:none;fill-rule:nonzero;fill:rgb(0%,0%,0%);fill-opacity:1;" d="M 207.042969 210.523438 L 207.042969 211.070312 L 201.878906 211.070312 C 201.925781 211.84375 202.160156 212.433594 202.578125 212.839844 C 202.992188 213.242188 203.574219 213.445312 204.320312 213.445312 C 204.75 213.445312 205.167969 213.394531 205.574219 213.289062 C 205.976562 213.183594 206.378906 213.023438 206.78125 212.8125 L 206.78125 213.875 C 206.375 214.042969 205.960938 214.175781 205.539062 214.265625 C 205.117188 214.355469 204.6875 214.398438 204.253906 214.398438 C 203.160156 214.398438 202.296875 214.082031 201.660156 213.449219 C 201.023438 212.8125 200.707031 211.953125 200.707031 210.871094 C 200.707031 209.75 201.007812 208.863281 201.613281 208.207031 C 202.214844 207.550781 203.03125 207.222656 204.058594 207.222656 C 204.976562 207.222656 205.703125 207.515625 206.238281 208.109375 C 206.773438 208.699219 207.042969 209.503906 207.042969 210.523438 Z M 205.917969 210.191406 C 205.910156 209.578125 205.738281 209.089844 205.402344 208.722656 C 205.066406 208.355469 204.621094 208.171875 204.070312 208.171875 C 203.441406 208.171875 202.941406 208.347656 202.566406 208.703125 C 202.1875 209.058594 201.972656 209.554688 201.914062 210.199219 Z M 205.917969 210.191406 "/>
<path style=" stroke:none;fill-rule:nonzero;fill:rgb(0%,0%,0%);fill-opacity:1;" d="M 212.84375 208.433594 C 212.71875 208.359375 212.582031 208.308594 212.433594 208.273438 C 212.285156 208.238281 212.121094 208.222656 211.941406 208.222656 C 211.308594 208.222656 210.820312 208.425781 210.480469 208.839844 C 210.140625 209.253906 209.96875 209.847656 209.96875 210.621094 L 209.96875 214.222656 L 208.839844 214.222656 L 208.839844 207.386719 L 209.96875 207.386719 L 209.96875 208.449219 C 210.207031 208.03125 210.515625 207.722656 210.890625 207.523438 C 211.269531 207.320312 211.730469 207.222656 212.273438 207.222656 C 212.347656 207.222656 212.433594 207.226562 212.527344 207.238281 C 212.621094 207.246094 212.726562 207.261719 212.839844 207.28125 Z M 212.84375 208.433594 "/>
<path style=" stroke:none;fill-rule:nonzero;fill:rgb(0%,0%,0%);fill-opacity:1;" d="M 222.355469 207.585938 L 222.355469 208.648438 C 222.039062 208.484375 221.707031 208.363281 221.367188 208.285156 C 221.023438 208.203125 220.671875 208.160156 220.304688 208.160156 C 219.746094 208.160156 219.328125 208.246094 219.050781 208.417969 C 218.769531 208.585938 218.632812 208.84375 218.632812 209.1875 C 218.632812 209.445312 218.730469 209.652344 218.929688 209.800781 C 219.128906 209.949219 219.53125 210.089844 220.132812 210.222656 L 220.519531 210.308594 C 221.316406 210.480469 221.882812 210.71875 222.21875 211.03125 C 222.554688 211.34375 222.722656 211.777344 222.722656 212.335938 C 222.722656 212.96875 222.46875 213.472656 221.96875 213.84375 C 221.464844 214.214844 220.773438 214.398438 219.894531 214.398438 C 219.527344 214.398438 219.148438 214.363281 218.75 214.292969 C 218.351562 214.21875 217.933594 214.113281 217.496094 213.972656 L 217.496094 212.8125 C 217.910156 213.027344 218.320312 213.1875 218.722656 213.296875 C 219.125 213.402344 219.523438 213.457031 219.921875 213.457031 C 220.449219 213.457031 220.855469 213.367188 221.140625 213.1875 C 221.425781 213.003906 221.566406 212.75 221.566406 212.421875 C 221.566406 212.117188 221.464844 211.882812 221.257812 211.71875 C 221.054688 211.554688 220.601562 211.398438 219.90625 211.25 L 219.515625 211.15625 C 218.820312 211.011719 218.316406 210.785156 218.007812 210.484375 C 217.699219 210.179688 217.546875 209.761719 217.546875 209.234375 C 217.546875 208.589844 217.773438 208.09375 218.230469 207.746094 C 218.683594 207.394531 219.332031 207.222656 220.171875 207.222656 C 220.585938 207.222656 220.972656 207.25 221.339844 207.3125 C 221.707031 207.371094 222.046875 207.464844 222.355469 207.585938 Z M 222.355469 207.585938 "/>
<path style=" stroke:none;fill-rule:nonzero;fill:rgb(0%,0%,0%);fill-opacity:1;" d="M 230.355469 210.523438 L 230.355469 211.070312 L 225.191406 211.070312 C 225.242188 211.84375 225.476562 212.433594 225.890625 212.839844 C 226.308594 213.242188 226.890625 213.445312 227.632812 213.445312 C 228.066406 213.445312 228.484375 213.394531 228.886719 213.289062 C 229.292969 213.183594 229.695312 213.023438 230.09375 212.8125 L 230.09375 213.875 C 229.691406 214.042969 229.277344 214.175781 228.855469 214.265625 C 228.429688 214.355469 228.003906 214.398438 227.566406 214.398438 C 226.476562 214.398438 225.613281 214.082031 224.976562 213.449219 C 224.339844 212.8125 224.019531 211.953125 224.019531 210.871094 C 224.019531 209.75 224.324219 208.863281 224.925781 208.207031 C 225.53125 207.550781 226.347656 207.222656 227.371094 207.222656 C 228.292969 207.222656 229.019531 207.515625 229.554688 208.109375 C 230.089844 208.699219 230.355469 209.503906 230.355469 210.523438 Z M 229.234375 210.191406 C 229.226562 209.578125 229.054688 209.089844 228.71875 208.722656 C 228.382812 208.355469 227.9375 208.171875 227.382812 208.171875 C 226.757812 208.171875 226.257812 208.347656 225.878906 208.703125 C 225.503906 209.058594 225.285156 209.554688 225.230469 210.199219 Z M 229.234375 210.191406 "/>
<path style=" stroke:none;fill-rule:nonzero;fill:rgb(0%,0%,0%);fill-opacity:1;" d="M 232.871094 210.808594 C 232.871094 211.632812 233.042969 212.28125 233.382812 212.753906 C 233.722656 213.222656 234.1875 213.457031 234.78125 213.457031 C 235.375 213.457031 235.84375 213.222656 236.183594 212.753906 C 236.527344 212.28125 236.699219 211.632812 236.699219 210.808594 C 236.699219 209.984375 236.527344 209.335938 236.183594 208.867188 C 235.84375 208.394531 235.375 208.160156 234.78125 208.160156 C 234.1875 208.160156 233.722656 208.394531 233.382812 208.867188 C 233.042969 209.335938 232.871094 209.984375 232.871094 210.808594 Z M 236.699219 213.195312 C 236.460938 213.601562 236.164062 213.902344 235.804688 214.101562 C 235.445312 214.300781 235.011719 214.398438 234.507812 214.398438 C 233.679688 214.398438 233.007812 214.070312 232.488281 213.410156 C 231.96875 212.75 231.710938 211.882812 231.710938 210.808594 C 231.710938 209.734375 231.96875 208.867188 232.488281 208.210938 C 233.007812 207.550781 233.679688 207.222656 234.507812 207.222656 C 235.011719 207.222656 235.445312 207.320312 235.804688 207.519531 C 236.164062 207.714844 236.460938 208.015625 236.699219 208.421875 L 236.699219 207.386719 L 237.820312 207.386719 L 237.820312 216.820312 L 236.699219 216.820312 Z M 236.699219 213.195312 "/>
<path style=" stroke:none;fill-rule:nonzero;fill:rgb(0%,0%,0%);fill-opacity:1;" d="M 240.019531 211.523438 L 240.019531 207.386719 L 241.140625 207.386719 L 241.140625 211.480469 C 241.140625 212.128906 241.265625 212.613281 241.519531 212.9375 C 241.769531 213.261719 242.148438 213.421875 242.65625 213.421875 C 243.261719 213.421875 243.738281 213.230469 244.089844 212.84375 C 244.445312 212.457031 244.621094 211.929688 244.621094 211.261719 L 244.621094 207.386719 L 245.742188 207.386719 L 245.742188 214.222656 L 244.621094 214.222656 L 244.621094 213.171875 C 244.347656 213.585938 244.03125 213.894531 243.671875 214.097656 C 243.3125 214.296875 242.894531 214.398438 242.417969 214.398438 C 241.632812 214.398438 241.035156 214.15625 240.628906 213.667969 C 240.222656 213.179688 240.019531 212.464844 240.019531 211.523438 Z M 242.84375 207.222656 Z M 242.84375 207.222656 "/>
<path style=" stroke:none;fill-rule:nonzero;fill:rgb(0%,0%,0%);fill-opacity:1;" d="M 253.902344 210.523438 L 253.902344 211.070312 L 248.738281 211.070312 C 248.789062 211.84375 249.023438 212.433594 249.4375 212.839844 C 249.855469 213.242188 250.4375 213.445312 251.179688 213.445312 C 251.613281 213.445312 252.03125 213.394531 252.433594 213.289062 C 252.839844 213.183594 253.242188 213.023438 253.640625 212.8125 L 253.640625 213.875 C 253.238281 214.042969 252.824219 214.175781 252.402344 214.265625 C 251.980469 214.355469 251.550781 214.398438 251.113281 214.398438 C 250.023438 214.398438 249.160156 214.082031 248.523438 213.449219 C 247.886719 212.8125 247.566406 211.953125 247.566406 210.871094 C 247.566406 209.75 247.871094 208.863281 248.472656 208.207031 C 249.078125 207.550781 249.894531 207.222656 250.917969 207.222656 C 251.839844 207.222656 252.566406 207.515625 253.101562 208.109375 C 253.636719 208.699219 253.902344 209.503906 253.902344 210.523438 Z M 252.78125 210.191406 C 252.773438 209.578125 252.601562 209.089844 252.265625 208.722656 C 251.929688 208.355469 251.484375 208.171875 250.929688 208.171875 C 250.304688 208.171875 249.804688 208.347656 249.425781 208.703125 C 249.050781 209.058594 248.835938 209.554688 248.777344 210.199219 Z M 252.78125 210.191406 "/>
<path style=" stroke:none;fill-rule:nonzero;fill:rgb(0%,0%,0%);fill-opacity:1;" d="M 261.429688 210.09375 L 261.429688 214.222656 L 260.308594 214.222656 L 260.308594 210.132812 C 260.308594 209.484375 260.179688 209 259.929688 208.679688 C 259.675781 208.359375 259.296875 208.199219 258.792969 208.199219 C 258.1875 208.199219 257.707031 208.390625 257.359375 208.777344 C 257.007812 209.164062 256.832031 209.691406 256.832031 210.359375 L 256.832031 214.222656 L 255.703125 214.222656 L 255.703125 207.386719 L 256.832031 207.386719 L 256.832031 208.449219 C 257.101562 208.035156 257.417969 207.730469 257.78125 207.527344 C 258.148438 207.324219 258.566406 207.222656 259.042969 207.222656 C 259.828125 207.222656 260.421875 207.464844 260.824219 207.949219 C 261.230469 208.433594 261.429688 209.148438 261.429688 210.09375 Z M 261.429688 210.09375 "/>
<path style=" stroke:none;fill-rule:nonzero;fill:rgb(0%,0%,0%);fill-opacity:1;" d="M 268.589844 207.648438 L 268.589844 208.699219 C 268.269531 208.523438 267.953125 208.390625 267.632812 208.304688 C 267.316406 208.214844 266.992188 208.171875 266.667969 208.171875 C 265.9375 208.171875 265.371094 208.402344 264.96875 208.867188 C 264.566406 209.328125 264.363281 209.972656 264.363281 210.808594 C 264.363281 211.644531 264.566406 212.292969 264.96875 212.753906 C 265.371094 213.214844 265.9375 213.445312 266.667969 213.445312 C 266.992188 213.445312 267.316406 213.402344 267.632812 213.316406 C 267.953125 213.226562 268.269531 213.097656 268.589844 212.921875 L 268.589844 213.960938 C 268.273438 214.105469 267.949219 214.214844 267.613281 214.289062 C 267.28125 214.363281 266.921875 214.398438 266.542969 214.398438 C 265.515625 214.398438 264.695312 214.074219 264.089844 213.429688 C 263.484375 212.78125 263.179688 211.90625 263.179688 210.808594 C 263.179688 209.695312 263.488281 208.816406 264.097656 208.179688 C 264.710938 207.539062 265.550781 207.222656 266.617188 207.222656 C 266.964844 207.222656 267.300781 207.257812 267.628906 207.328125 C 267.960938 207.398438 268.277344 207.503906 268.589844 207.648438 Z M 268.589844 207.648438 "/>
<path style=" stroke:none;fill-rule:nonzero;fill:rgb(0%,0%,0%);fill-opacity:1;" d="M 276.390625 210.523438 L 276.390625 211.070312 L 271.226562 211.070312 C 271.273438 211.84375 271.507812 212.433594 271.925781 212.839844 C 272.339844 213.242188 272.921875 213.445312 273.667969 213.445312 C 274.097656 213.445312 274.515625 213.394531 274.921875 213.289062 C 275.324219 213.183594 275.726562 213.023438 276.128906 212.8125 L 276.128906 213.875 C 275.722656 214.042969 275.3125 214.175781 274.886719 214.265625 C 274.464844 214.355469 274.035156 214.398438 273.601562 214.398438 C 272.507812 214.398438 271.644531 214.082031 271.007812 213.449219 C 270.371094 212.8125 270.054688 211.953125 270.054688 210.871094 C 270.054688 209.75 270.355469 208.863281 270.960938 208.207031 C 271.5625 207.550781 272.378906 207.222656 273.40625 207.222656 C 274.324219 207.222656 275.050781 207.515625 275.585938 208.109375 C 276.121094 208.699219 276.390625 209.503906 276.390625 210.523438 Z M 275.265625 210.191406 C 275.257812 209.578125 275.085938 209.089844 274.75 208.722656 C 274.414062 208.355469 273.96875 208.171875 273.417969 208.171875 C 272.789062 208.171875 272.289062 208.347656 271.914062 208.703125 C 271.535156 209.058594 271.320312 209.554688 271.261719 210.199219 Z M 275.265625 210.191406 "/>
<path style="fill:none;stroke-width:0.8;stroke-linecap:butt;stroke-linejoin:round;stroke:rgb(0%,0%,0%);stroke-opacity:1;stroke-miterlimit:4;" d="M 0 0 L -3.5 0 " transform="matrix(1.25,0,0,1.25,82.566406,178.875)"/>
<path style=" stroke:none;fill-rule:nonzero;fill:rgb(0%,0%,0%);fill-opacity:1;" d="M 69.835938 175.324219 C 69.203125 175.324219 68.726562 175.636719 68.40625 176.261719 C 68.085938 176.882812 67.925781 177.824219 67.925781 179.078125 C 67.925781 180.324219 68.085938 181.261719 68.40625 181.886719 C 68.726562 182.511719 69.203125 182.824219 69.835938 182.824219 C 70.476562 182.824219 70.953125 182.511719 71.273438 181.886719 C 71.59375 181.261719 71.753906 180.324219 71.753906 179.078125 C 71.753906 177.824219 71.59375 176.882812 71.273438 176.261719 C 70.953125 175.636719 70.476562 175.324219 69.835938 175.324219 Z M 69.835938 174.347656 C 70.859375 174.347656 71.640625 174.75 72.179688 175.558594 C 72.71875 176.367188 72.984375 177.539062 72.984375 179.078125 C 72.984375 180.609375 72.71875 181.78125 72.179688 182.589844 C 71.640625 183.398438 70.859375 183.800781 69.835938 183.800781 C 68.816406 183.800781 68.035156 183.398438 67.496094 182.589844 C 66.957031 181.78125 66.6875 180.609375 66.6875 179.078125 C 66.6875 177.539062 66.957031 176.367188 67.496094 175.558594 C 68.035156 174.75 68.816406 174.347656 69.835938 174.347656 Z M 69.835938 174.347656 "/>
<path style="fill:none;stroke-width:0.8;stroke-linecap:butt;stroke-linejoin:round;stroke:rgb(0%,0%,0%);stroke-opacity:1;stroke-miterlimit:4;" d="M 0 -0.001116 L -3.5 -0.001116 " transform="matrix(1.25,0,0,1.25,82.566406,147.688895)"/>
<path style=" stroke:none;fill-rule:nonzero;fill:rgb(0%,0%,0%);fill-opacity:1;" d="M 36.449219 151.402344 L 40.75 151.402344 L 40.75 152.4375 L 34.96875 152.4375 L 34.96875 151.402344 C 35.433594 150.917969 36.070312 150.265625 36.878906 149.453125 C 37.6875 148.636719 38.195312 148.109375 38.402344 147.871094 C 38.796875 147.429688 39.070312 147.054688 39.226562 146.746094 C 39.386719 146.4375 39.464844 146.136719 39.464844 145.839844 C 39.464844 145.355469 39.296875 144.960938 38.953125 144.65625 C 38.617188 144.351562 38.171875 144.199219 37.625 144.199219 C 37.242188 144.199219 36.832031 144.265625 36.402344 144.398438 C 35.972656 144.53125 35.515625 144.738281 35.027344 145.011719 L 35.027344 143.765625 C 35.523438 143.566406 35.988281 143.414062 36.417969 143.3125 C 36.851562 143.210938 37.246094 143.160156 37.601562 143.160156 C 38.546875 143.160156 39.300781 143.398438 39.859375 143.871094 C 40.421875 144.339844 40.703125 144.972656 40.703125 145.761719 C 40.703125 146.136719 40.632812 146.492188 40.492188 146.828125 C 40.351562 147.160156 40.097656 147.554688 39.726562 148.011719 C 39.625 148.128906 39.300781 148.472656 38.757812 149.035156 C 38.210938 149.597656 37.441406 150.386719 36.449219 151.402344 Z M 36.449219 151.402344 "/>
<path style=" stroke:none;fill-rule:nonzero;fill:rgb(0%,0%,0%);fill-opacity:1;" d="M 45.976562 144.136719 C 45.34375 144.136719 44.863281 144.449219 44.542969 145.074219 C 44.226562 145.699219 44.066406 146.636719 44.066406 147.890625 C 44.066406 149.140625 44.226562 150.078125 44.542969 150.703125 C 44.863281 151.328125 45.34375 151.640625 45.976562 151.640625 C 46.617188 151.640625 47.09375 151.328125 47.414062 150.703125 C 47.734375 150.078125 47.894531 149.140625 47.894531 147.890625 C 47.894531 146.636719 47.734375 145.699219 47.414062 145.074219 C 47.09375 144.449219 46.617188 144.136719 45.976562 144.136719 Z M 45.976562 143.160156 C 47 143.160156 47.777344 143.566406 48.316406 144.375 C 48.855469 145.179688 49.125 146.351562 49.125 147.890625 C 49.125 149.425781 48.855469 150.597656 48.316406 151.40625 C 47.777344 152.210938 47 152.617188 45.976562 152.617188 C 44.957031 152.617188 44.175781 152.210938 43.636719 151.40625 C 43.097656 150.597656 42.828125 149.425781 42.828125 147.890625 C 42.828125 146.351562 43.097656 145.179688 43.636719 144.375 C 44.175781 143.566406 44.957031 143.160156 45.976562 143.160156 Z M 45.976562 143.160156 "/>
<path style=" stroke:none;fill-rule:nonzero;fill:rgb(0%,0%,0%);fill-opacity:1;" d="M 53.929688 144.136719 C 53.296875 144.136719 52.816406 144.449219 52.496094 145.074219 C 52.179688 145.699219 52.019531 146.636719 52.019531 147.890625 C 52.019531 149.140625 52.179688 150.078125 52.496094 150.703125 C 52.816406 151.328125 53.296875 151.640625 53.929688 151.640625 C 54.570312 151.640625 55.046875 151.328125 55.367188 150.703125 C 55.6875 150.078125 55.847656 149.140625 55.847656 147.890625 C 55.847656 146.636719 55.6875 145.699219 55.367188 145.074219 C 55.046875 144.449219 54.570312 144.136719 53.929688 144.136719 Z M 53.929688 143.160156 C 54.953125 143.160156 55.730469 143.566406 56.269531 144.375 C 56.808594 145.179688 57.078125 146.351562 57.078125 147.890625 C 57.078125 149.425781 56.808594 150.597656 56.269531 151.40625 C 55.730469 152.210938 54.953125 152.617188 53.929688 152.617188 C 52.910156 152.617188 52.128906 152.210938 51.589844 151.40625 C 51.050781 150.597656 50.78125 149.425781 50.78125 147.890625 C 50.78125 146.351562 51.050781 145.179688 51.589844 144.375 C 52.128906 143.566406 52.910156 143.160156 53.929688 143.160156 Z M 53.929688 143.160156 "/>
<path style=" stroke:none;fill-rule:nonzero;fill:rgb(0%,0%,0%);fill-opacity:1;" d="M 61.882812 144.136719 C 61.246094 144.136719 60.769531 144.449219 60.449219 145.074219 C 60.132812 145.699219 59.972656 146.636719 59.972656 147.890625 C 59.972656 149.140625 60.132812 150.078125 60.449219 150.703125 C 60.769531 151.328125 61.246094 151.640625 61.882812 151.640625 C 62.519531 151.640625 63 151.328125 63.320312 150.703125 C 63.640625 150.078125 63.800781 149.140625 63.800781 147.890625 C 63.800781 146.636719 63.640625 145.699219 63.320312 145.074219 C 63 144.449219 62.519531 144.136719 61.882812 144.136719 Z M 61.882812 143.160156 C 62.902344 143.160156 63.683594 143.566406 64.222656 144.375 C 64.761719 145.179688 65.03125 146.351562 65.03125 147.890625 C 65.03125 149.425781 64.761719 150.597656 64.222656 151.40625 C 63.683594 152.210938 62.902344 152.617188 61.882812 152.617188 C 60.859375 152.617188 60.082031 152.210938 59.542969 151.40625 C 59.003906 150.597656 58.734375 149.425781 58.734375 147.890625 C 58.734375 146.351562 59.003906 145.179688 59.542969 144.375 C 60.082031 143.566406 60.859375 143.160156 61.882812 143.160156 Z M 61.882812 143.160156 "/>
<path style=" stroke:none;fill-rule:nonzero;fill:rgb(0%,0%,0%);fill-opacity:1;" d="M 69.835938 144.136719 C 69.199219 144.136719 68.722656 144.449219 68.402344 145.074219 C 68.085938 145.699219 67.925781 146.636719 67.925781 147.890625 C 67.925781 149.140625 68.085938 150.078125 68.402344 150.703125 C 68.722656 151.328125 69.199219 151.640625 69.835938 151.640625 C 70.472656 151.640625 70.953125 151.328125 71.273438 150.703125 C 71.59375 150.078125 71.753906 149.140625 71.753906 147.890625 C 71.753906 146.636719 71.59375 145.699219 71.273438 145.074219 C 70.953125 144.449219 70.472656 144.136719 69.835938 144.136719 Z M 69.835938 143.160156 C 70.855469 143.160156 71.636719 143.566406 72.175781 144.375 C 72.714844 145.179688 72.984375 146.351562 72.984375 147.890625 C 72.984375 149.425781 72.714844 150.597656 72.175781 151.40625 C 71.636719 152.210938 70.855469 152.617188 69.835938 152.617188 C 68.8125 152.617188 68.035156 152.210938 67.496094 151.40625 C 66.957031 150.597656 66.6875 149.425781 66.6875 147.890625 C 66.6875 146.351562 66.957031 145.179688 67.496094 144.375 C 68.035156 143.566406 68.8125 143.160156 69.835938 143.160156 Z M 69.835938 143.160156 "/>
<path style="fill:none;stroke-width:0.8;stroke-linecap:butt;stroke-linejoin:round;stroke:rgb(0%,0%,0%);stroke-opacity:1;stroke-miterlimit:4;" d="M 0 0.000892 L -3.5 0.000892 " transform="matrix(1.25,0,0,1.25,82.566406,116.502791)"/>
<path style=" stroke:none;fill-rule:nonzero;fill:rgb(0%,0%,0%);fill-opacity:1;" d="M 38.773438 113.210938 L 35.664062 118.078125 L 38.773438 118.078125 Z M 38.453125 112.136719 L 40 112.136719 L 40 118.078125 L 41.304688 118.078125 L 41.304688 119.101562 L 40 119.101562 L 40 121.25 L 38.773438 121.25 L 38.773438 119.101562 L 34.664062 119.101562 L 34.664062 117.914062 Z M 38.453125 112.136719 "/>
<path style=" stroke:none;fill-rule:nonzero;fill:rgb(0%,0%,0%);fill-opacity:1;" d="M 45.976562 112.949219 C 45.34375 112.949219 44.863281 113.261719 44.542969 113.886719 C 44.226562 114.511719 44.066406 115.449219 44.066406 116.703125 C 44.066406 117.953125 44.226562 118.890625 44.542969 119.515625 C 44.863281 120.140625 45.34375 120.453125 45.976562 120.453125 C 46.617188 120.453125 47.09375 120.140625 47.414062 119.515625 C 47.734375 118.890625 47.894531 117.953125 47.894531 116.703125 C 47.894531 115.449219 47.734375 114.511719 47.414062 113.886719 C 47.09375 113.261719 46.617188 112.949219 45.976562 112.949219 Z M 45.976562 111.972656 C 47 111.972656 47.777344 112.378906 48.316406 113.1875 C 48.855469 113.996094 49.125 115.167969 49.125 116.703125 C 49.125 118.238281 48.855469 119.410156 48.316406 120.21875 C 47.777344 121.027344 47 121.429688 45.976562 121.429688 C 44.957031 121.429688 44.175781 121.027344 43.636719 120.21875 C 43.097656 119.410156 42.828125 118.238281 42.828125 116.703125 C 42.828125 115.167969 43.097656 113.996094 43.636719 113.1875 C 44.175781 112.378906 44.957031 111.972656 45.976562 111.972656 Z M 45.976562 111.972656 "/>
<path style=" stroke:none;fill-rule:nonzero;fill:rgb(0%,0%,0%);fill-opacity:1;" d="M 53.929688 112.949219 C 53.296875 112.949219 52.816406 113.261719 52.496094 113.886719 C 52.179688 114.511719 52.019531 115.449219 52.019531 116.703125 C 52.019531 117.953125 52.179688 118.890625 52.496094 119.515625 C 52.816406 120.140625 53.296875 120.453125 53.929688 120.453125 C 54.570312 120.453125 55.046875 120.140625 55.367188 119.515625 C 55.6875 118.890625 55.847656 117.953125 55.847656 116.703125 C 55.847656 115.449219 55.6875 114.511719 55.367188 113.886719 C 55.046875 113.261719 54.570312 112.949219 53.929688 112.949219 Z M 53.929688 111.972656 C 54.953125 111.972656 55.730469 112.378906 56.269531 113.1875 C 56.808594 113.996094 57.078125 115.167969 57.078125 116.703125 C 57.078125 118.238281 56.808594 119.410156 56.269531 120.21875 C 55.730469 121.027344 54.953125 121.429688 53.929688 121.429688 C 52.910156 121.429688 52.128906 121.027344 51.589844 120.21875 C 51.050781 119.410156 50.78125 118.238281 50.78125 116.703125 C 50.78125 115.167969 51.050781 113.996094 51.589844 113.1875 C 52.128906 112.378906 52.910156 111.972656 53.929688 111.972656 Z M 53.929688 111.972656 "/>
<path style=" stroke:none;fill-rule:nonzero;fill:rgb(0%,0%,0%);fill-opacity:1;" d="M 61.882812 112.949219 C 61.246094 112.949219 60.769531 113.261719 60.449219 113.886719 C 60.132812 114.511719 59.972656 115.449219 59.972656 116.703125 C 59.972656 117.953125 60.132812 118.890625 60.449219 119.515625 C 60.769531 120.140625 61.246094 120.453125 61.882812 120.453125 C 62.519531 120.453125 63 120.140625 63.320312 119.515625 C 63.640625 118.890625 63.800781 117.953125 63.800781 116.703125 C 63.800781 115.449219 63.640625 114.511719 63.320312 113.886719 C 63 113.261719 62.519531 112.949219 61.882812 112.949219 Z M 61.882812 111.972656 C 62.902344 111.972656 63.683594 112.378906 64.222656 113.1875 C 64.761719 113.996094 65.03125 115.167969 65.03125 116.703125 C 65.03125 118.238281 64.761719 119.410156 64.222656 120.21875 C 63.683594 121.027344 62.902344 121.429688 61.882812 121.429688 C 60.859375 121.429688 60.082031 121.027344 59.542969 120.21875 C 59.003906 119.410156 58.734375 118.238281 58.734375 116.703125 C 58.734375 115.167969 59.003906 113.996094 59.542969 113.1875 C 60.082031 112.378906 60.859375 111.972656 61.882812 111.972656 Z M 61.882812 111.972656 "/>
<path style=" stroke:none;fill-rule:nonzero;fill:rgb(0%,0%,0%);fill-opacity:1;" d="M 69.835938 112.949219 C 69.199219 112.949219 68.722656 113.261719 68.402344 113.886719 C 68.085938 114.511719 67.925781 115.449219 67.925781 116.703125 C 67.925781 117.953125 68.085938 118.890625 68.402344 119.515625 C 68.722656 120.140625 69.199219 120.453125 69.835938 120.453125 C 70.472656 120.453125 70.953125 120.140625 71.273438 119.515625 C 71.59375 118.890625 71.753906 117.953125 71.753906 116.703125 C 71.753906 115.449219 71.59375 114.511719 71.273438 113.886719 C 70.953125 113.261719 70.472656 112.949219 69.835938 112.949219 Z M 69.835938 111.972656 C 70.855469 111.972656 71.636719 112.378906 72.175781 113.1875 C 72.714844 113.996094 72.984375 115.167969 72.984375 116.703125 C 72.984375 118.238281 72.714844 119.410156 72.175781 120.21875 C 71.636719 121.027344 70.855469 121.429688 69.835938 121.429688 C 68.8125 121.429688 68.035156 121.027344 67.496094 120.21875 C 66.957031 119.410156 66.6875 118.238281 66.6875 116.703125 C 66.6875 115.167969 66.957031 113.996094 67.496094 113.1875 C 68.035156 112.378906 68.8125 111.972656 69.835938 111.972656 Z M 69.835938 111.972656 "/>
<path style="fill:none;stroke-width:0.8;stroke-linecap:butt;stroke-linejoin:round;stroke:rgb(0%,0%,0%);stroke-opacity:1;stroke-miterlimit:4;" d="M 0 -0.000224 L -3.5 -0.000224 " transform="matrix(1.25,0,0,1.25,82.566406,85.316686)"/>
<path style=" stroke:none;fill-rule:nonzero;fill:rgb(0%,0%,0%);fill-opacity:1;" d="M 38.179688 85.019531 C 37.625 85.019531 37.1875 85.207031 36.859375 85.585938 C 36.539062 85.964844 36.375 86.484375 36.375 87.140625 C 36.375 87.796875 36.539062 88.316406 36.859375 88.695312 C 37.1875 89.078125 37.625 89.265625 38.179688 89.265625 C 38.730469 89.265625 39.167969 89.078125 39.492188 88.695312 C 39.816406 88.316406 39.976562 87.796875 39.976562 87.140625 C 39.976562 86.484375 39.816406 85.964844 39.492188 85.585938 C 39.167969 85.207031 38.730469 85.019531 38.179688 85.019531 Z M 40.625 81.152344 L 40.625 82.277344 C 40.316406 82.128906 40.003906 82.019531 39.6875 81.941406 C 39.371094 81.863281 39.058594 81.824219 38.75 81.824219 C 37.9375 81.824219 37.3125 82.101562 36.882812 82.648438 C 36.457031 83.199219 36.210938 84.027344 36.148438 85.140625 C 36.390625 84.785156 36.691406 84.515625 37.054688 84.324219 C 37.414062 84.136719 37.816406 84.042969 38.25 84.042969 C 39.164062 84.042969 39.890625 84.320312 40.421875 84.875 C 40.953125 85.429688 41.21875 86.1875 41.21875 87.140625 C 41.21875 88.078125 40.941406 88.828125 40.386719 89.394531 C 39.832031 89.960938 39.097656 90.242188 38.179688 90.242188 C 37.125 90.242188 36.316406 89.839844 35.757812 89.03125 C 35.203125 88.222656 34.921875 87.050781 34.921875 85.519531 C 34.921875 84.078125 35.265625 82.929688 35.949219 82.074219 C 36.632812 81.214844 37.550781 80.789062 38.703125 80.789062 C 39.011719 80.789062 39.324219 80.820312 39.640625 80.878906 C 39.953125 80.941406 40.28125 81.03125 40.625 81.152344 Z M 40.625 81.152344 "/>
<path style=" stroke:none;fill-rule:nonzero;fill:rgb(0%,0%,0%);fill-opacity:1;" d="M 45.976562 81.765625 C 45.34375 81.765625 44.863281 82.078125 44.542969 82.703125 C 44.226562 83.324219 44.066406 84.265625 44.066406 85.519531 C 44.066406 86.765625 44.226562 87.703125 44.542969 88.328125 C 44.863281 88.953125 45.34375 89.265625 45.976562 89.265625 C 46.617188 89.265625 47.09375 88.953125 47.414062 88.328125 C 47.734375 87.703125 47.894531 86.765625 47.894531 85.519531 C 47.894531 84.265625 47.734375 83.324219 47.414062 82.703125 C 47.09375 82.078125 46.617188 81.765625 45.976562 81.765625 Z M 45.976562 80.789062 C 47 80.789062 47.777344 81.191406 48.316406 82 C 48.855469 82.808594 49.125 83.980469 49.125 85.519531 C 49.125 87.050781 48.855469 88.222656 48.316406 89.03125 C 47.777344 89.839844 47 90.242188 45.976562 90.242188 C 44.957031 90.242188 44.175781 89.839844 43.636719 89.03125 C 43.097656 88.222656 42.828125 87.050781 42.828125 85.519531 C 42.828125 83.980469 43.097656 82.808594 43.636719 82 C 44.175781 81.191406 44.957031 80.789062 45.976562 80.789062 Z M 45.976562 80.789062 "/>
<path style=" stroke:none;fill-rule:nonzero;fill:rgb(0%,0%,0%);fill-opacity:1;" d="M 53.929688 81.765625 C 53.296875 81.765625 52.816406 82.078125 52.496094 82.703125 C 52.179688 83.324219 52.019531 84.265625 52.019531 85.519531 C 52.019531 86.765625 52.179688 87.703125 52.496094 88.328125 C 52.816406 88.953125 53.296875 89.265625 53.929688 89.265625 C 54.570312 89.265625 55.046875 88.953125 55.367188 88.328125 C 55.6875 87.703125 55.847656 86.765625 55.847656 85.519531 C 55.847656 84.265625 55.6875 83.324219 55.367188 82.703125 C 55.046875 82.078125 54.570312 81.765625 53.929688 81.765625 Z M 53.929688 80.789062 C 54.953125 80.789062 55.730469 81.191406 56.269531 82 C 56.808594 82.808594 57.078125 83.980469 57.078125 85.519531 C 57.078125 87.050781 56.808594 88.222656 56.269531 89.03125 C 55.730469 89.839844 54.953125 90.242188 53.929688 90.242188 C 52.910156 90.242188 52.128906 89.839844 51.589844 89.03125 C 51.050781 88.222656 50.78125 87.050781 50.78125 85.519531 C 50.78125 83.980469 51.050781 82.808594 51.589844 82 C 52.128906 81.191406 52.910156 80.789062 53.929688 80.789062 Z M 53.929688 80.789062 "/>
<path style=" stroke:none;fill-rule:nonzero;fill:rgb(0%,0%,0%);fill-opacity:1;" d="M 61.882812 81.765625 C 61.246094 81.765625 60.769531 82.078125 60.449219 82.703125 C 60.132812 83.324219 59.972656 84.265625 59.972656 85.519531 C 59.972656 86.765625 60.132812 87.703125 60.449219 88.328125 C 60.769531 88.953125 61.246094 89.265625 61.882812 89.265625 C 62.519531 89.265625 63 88.953125 63.320312 88.328125 C 63.640625 87.703125 63.800781 86.765625 63.800781 85.519531 C 63.800781 84.265625 63.640625 83.324219 63.320312 82.703125 C 63 82.078125 62.519531 81.765625 61.882812 81.765625 Z M 61.882812 80.789062 C 62.902344 80.789062 63.683594 81.191406 64.222656 82 C 64.761719 82.808594 65.03125 83.980469 65.03125 85.519531 C 65.03125 87.050781 64.761719 88.222656 64.222656 89.03125 C 63.683594 89.839844 62.902344 90.242188 61.882812 90.242188 C 60.859375 90.242188 60.082031 89.839844 59.542969 89.03125 C 59.003906 88.222656 58.734375 87.050781 58.734375 85.519531 C 58.734375 83.980469 59.003906 82.808594 59.542969 82 C 60.082031 81.191406 60.859375 80.789062 61.882812 80.789062 Z M 61.882812 80.789062 "/>
<path style=" stroke:none;fill-rule:nonzero;fill:rgb(0%,0%,0%);fill-opacity:1;" d="M 69.835938 81.765625 C 69.199219 81.765625 68.722656 82.078125 68.402344 82.703125 C 68.085938 83.324219 67.925781 84.265625 67.925781 85.519531 C 67.925781 86.765625 68.085938 87.703125 68.402344 88.328125 C 68.722656 88.953125 69.199219 89.265625 69.835938 89.265625 C 70.472656 89.265625 70.953125 88.953125 71.273438 88.328125 C 71.59375 87.703125 71.753906 86.765625 71.753906 85.519531 C 71.753906 84.265625 71.59375 83.324219 71.273438 82.703125 C 70.953125 82.078125 70.472656 81.765625 69.835938 81.765625 Z M 69.835938 80.789062 C 70.855469 80.789062 71.636719 81.191406 72.175781 82 C 72.714844 82.808594 72.984375 83.980469 72.984375 85.519531 C 72.984375 87.050781 72.714844 88.222656 72.175781 89.03125 C 71.636719 89.839844 70.855469 90.242188 69.835938 90.242188 C 68.8125 90.242188 68.035156 89.839844 67.496094 89.03125 C 66.957031 88.222656 66.6875 87.050781 66.6875 85.519531 C 66.6875 83.980469 66.957031 82.808594 67.496094 82 C 68.035156 81.191406 68.8125 80.789062 69.835938 80.789062 Z M 69.835938 80.789062 "/>
<path style="fill:none;stroke-width:0.8;stroke-linecap:butt;stroke-linejoin:round;stroke:rgb(0%,0%,0%);stroke-opacity:1;stroke-miterlimit:4;" d="M 0 -0.00134 L -3.5 -0.00134 " transform="matrix(1.25,0,0,1.25,82.566406,54.130581)"/>
<path style=" stroke:none;fill-rule:nonzero;fill:rgb(0%,0%,0%);fill-opacity:1;" d="M 38.023438 54.550781 C 37.4375 54.550781 36.976562 54.707031 36.640625 55.023438 C 36.304688 55.335938 36.140625 55.765625 36.140625 56.316406 C 36.140625 56.863281 36.304688 57.296875 36.640625 57.609375 C 36.976562 57.925781 37.4375 58.082031 38.023438 58.082031 C 38.609375 58.082031 39.070312 57.921875 39.40625 57.609375 C 39.746094 57.292969 39.914062 56.859375 39.914062 56.316406 C 39.914062 55.765625 39.75 55.335938 39.414062 55.023438 C 39.078125 54.707031 38.613281 54.550781 38.023438 54.550781 Z M 36.789062 54.027344 C 36.261719 53.898438 35.851562 53.652344 35.554688 53.289062 C 35.261719 52.925781 35.113281 52.484375 35.113281 51.964844 C 35.113281 51.234375 35.371094 50.660156 35.890625 50.238281 C 36.410156 49.8125 37.121094 49.601562 38.023438 49.601562 C 38.929688 49.601562 39.644531 49.8125 40.160156 50.238281 C 40.675781 50.660156 40.9375 51.234375 40.9375 51.964844 C 40.9375 52.484375 40.789062 52.925781 40.492188 53.289062 C 40.199219 53.652344 39.789062 53.898438 39.265625 54.027344 C 39.859375 54.167969 40.320312 54.4375 40.648438 54.839844 C 40.984375 55.242188 41.148438 55.734375 41.148438 56.316406 C 41.148438 57.199219 40.878906 57.878906 40.339844 58.351562 C 39.800781 58.820312 39.027344 59.058594 38.023438 59.058594 C 37.019531 59.058594 36.246094 58.820312 35.707031 58.351562 C 35.167969 57.878906 34.898438 57.199219 34.898438 56.316406 C 34.898438 55.734375 35.066406 55.242188 35.398438 54.839844 C 35.734375 54.4375 36.195312 54.167969 36.789062 54.027344 Z M 36.339844 52.082031 C 36.339844 52.550781 36.488281 52.921875 36.78125 53.183594 C 37.078125 53.449219 37.492188 53.582031 38.023438 53.582031 C 38.554688 53.582031 38.96875 53.449219 39.265625 53.183594 C 39.566406 52.921875 39.714844 52.550781 39.714844 52.082031 C 39.714844 51.609375 39.566406 51.238281 39.265625 50.976562 C 38.96875 50.710938 38.554688 50.578125 38.023438 50.578125 C 37.492188 50.578125 37.078125 50.710938 36.78125 50.976562 C 36.488281 51.238281 36.339844 51.609375 36.339844 52.082031 Z M 36.339844 52.082031 "/>
<path style=" stroke:none;fill-rule:nonzero;fill:rgb(0%,0%,0%);fill-opacity:1;" d="M 45.976562 50.578125 C 45.34375 50.578125 44.863281 50.890625 44.542969 51.515625 C 44.226562 52.140625 44.066406 53.078125 44.066406 54.332031 C 44.066406 55.582031 44.226562 56.519531 44.542969 57.144531 C 44.863281 57.769531 45.34375 58.082031 45.976562 58.082031 C 46.617188 58.082031 47.09375 57.769531 47.414062 57.144531 C 47.734375 56.519531 47.894531 55.582031 47.894531 54.332031 C 47.894531 53.078125 47.734375 52.140625 47.414062 51.515625 C 47.09375 50.890625 46.617188 50.578125 45.976562 50.578125 Z M 45.976562 49.601562 C 47 49.601562 47.777344 50.007812 48.316406 50.816406 C 48.855469 51.621094 49.125 52.796875 49.125 54.332031 C 49.125 55.867188 48.855469 57.039062 48.316406 57.847656 C 47.777344 58.652344 47 59.058594 45.976562 59.058594 C 44.957031 59.058594 44.175781 58.652344 43.636719 57.847656 C 43.097656 57.039062 42.828125 55.867188 42.828125 54.332031 C 42.828125 52.796875 43.097656 51.621094 43.636719 50.816406 C 44.175781 50.007812 44.957031 49.601562 45.976562 49.601562 Z M 45.976562 49.601562 "/>
<path style=" stroke:none;fill-rule:nonzero;fill:rgb(0%,0%,0%);fill-opacity:1;" d="M 53.929688 50.578125 C 53.296875 50.578125 52.816406 50.890625 52.496094 51.515625 C 52.179688 52.140625 52.019531 53.078125 52.019531 54.332031 C 52.019531 55.582031 52.179688 56.519531 52.496094 57.144531 C 52.816406 57.769531 53.296875 58.082031 53.929688 58.082031 C 54.570312 58.082031 55.046875 57.769531 55.367188 57.144531 C 55.6875 56.519531 55.847656 55.582031 55.847656 54.332031 C 55.847656 53.078125 55.6875 52.140625 55.367188 51.515625 C 55.046875 50.890625 54.570312 50.578125 53.929688 50.578125 Z M 53.929688 49.601562 C 54.953125 49.601562 55.730469 50.007812 56.269531 50.816406 C 56.808594 51.621094 57.078125 52.796875 57.078125 54.332031 C 57.078125 55.867188 56.808594 57.039062 56.269531 57.847656 C 55.730469 58.652344 54.953125 59.058594 53.929688 59.058594 C 52.910156 59.058594 52.128906 58.652344 51.589844 57.847656 C 51.050781 57.039062 50.78125 55.867188 50.78125 54.332031 C 50.78125 52.796875 51.050781 51.621094 51.589844 50.816406 C 52.128906 50.007812 52.910156 49.601562 53.929688 49.601562 Z M 53.929688 49.601562 "/>
<path style=" stroke:none;fill-rule:nonzero;fill:rgb(0%,0%,0%);fill-opacity:1;" d="M 61.882812 50.578125 C 61.246094 50.578125 60.769531 50.890625 60.449219 51.515625 C 60.132812 52.140625 59.972656 53.078125 59.972656 54.332031 C 59.972656 55.582031 60.132812 56.519531 60.449219 57.144531 C 60.769531 57.769531 61.246094 58.082031 61.882812 58.082031 C 62.519531 58.082031 63 57.769531 63.320312 57.144531 C 63.640625 56.519531 63.800781 55.582031 63.800781 54.332031 C 63.800781 53.078125 63.640625 52.140625 63.320312 51.515625 C 63 50.890625 62.519531 50.578125 61.882812 50.578125 Z M 61.882812 49.601562 C 62.902344 49.601562 63.683594 50.007812 64.222656 50.816406 C 64.761719 51.621094 65.03125 52.796875 65.03125 54.332031 C 65.03125 55.867188 64.761719 57.039062 64.222656 57.847656 C 63.683594 58.652344 62.902344 59.058594 61.882812 59.058594 C 60.859375 59.058594 60.082031 58.652344 59.542969 57.847656 C 59.003906 57.039062 58.734375 55.867188 58.734375 54.332031 C 58.734375 52.796875 59.003906 51.621094 59.542969 50.816406 C 60.082031 50.007812 60.859375 49.601562 61.882812 49.601562 Z M 61.882812 49.601562 "/>
<path style=" stroke:none;fill-rule:nonzero;fill:rgb(0%,0%,0%);fill-opacity:1;" d="M 69.835938 50.578125 C 69.199219 50.578125 68.722656 50.890625 68.402344 51.515625 C 68.085938 52.140625 67.925781 53.078125 67.925781 54.332031 C 67.925781 55.582031 68.085938 56.519531 68.402344 57.144531 C 68.722656 57.769531 69.199219 58.082031 69.835938 58.082031 C 70.472656 58.082031 70.953125 57.769531 71.273438 57.144531 C 71.59375 56.519531 71.753906 55.582031 71.753906 54.332031 C 71.753906 53.078125 71.59375 52.140625 71.273438 51.515625 C 70.953125 50.890625 70.472656 50.578125 69.835938 50.578125 Z M 69.835938 49.601562 C 70.855469 49.601562 71.636719 50.007812 72.175781 50.816406 C 72.714844 51.621094 72.984375 52.796875 72.984375 54.332031 C 72.984375 55.867188 72.714844 57.039062 72.175781 57.847656 C 71.636719 58.652344 70.855469 59.058594 69.835938 59.058594 C 68.8125 59.058594 68.035156 58.652344 67.496094 57.847656 C 66.957031 57.039062 66.6875 55.867188 66.6875 54.332031 C 66.6875 52.796875 66.957031 51.621094 67.496094 50.816406 C 68.035156 50.007812 68.8125 49.601562 69.835938 49.601562 Z M 69.835938 49.601562 "/>
<path style="fill:none;stroke-width:0.8;stroke-linecap:butt;stroke-linejoin:round;stroke:rgb(0%,0%,0%);stroke-opacity:1;stroke-miterlimit:4;" d="M 0 0.000669 L -3.5 0.000669 " transform="matrix(1.25,0,0,1.25,82.566406,22.944476)"/>
<path style=" stroke:none;fill-rule:nonzero;fill:rgb(0%,0%,0%);fill-opacity:1;" d="M 27.648438 26.65625 L 29.664062 26.65625 L 29.664062 19.703125 L 27.46875 20.144531 L 27.46875 19.019531 L 29.648438 18.582031 L 30.882812 18.582031 L 30.882812 26.65625 L 32.898438 26.65625 L 32.898438 27.695312 L 27.648438 27.695312 Z M 27.648438 26.65625 "/>
<path style=" stroke:none;fill-rule:nonzero;fill:rgb(0%,0%,0%);fill-opacity:1;" d="M 38.023438 19.394531 C 37.390625 19.394531 36.910156 19.707031 36.589844 20.332031 C 36.273438 20.953125 36.113281 21.894531 36.113281 23.148438 C 36.113281 24.394531 36.273438 25.332031 36.589844 25.957031 C 36.910156 26.582031 37.390625 26.894531 38.023438 26.894531 C 38.664062 26.894531 39.140625 26.582031 39.460938 25.957031 C 39.78125 25.332031 39.941406 24.394531 39.941406 23.148438 C 39.941406 21.894531 39.78125 20.953125 39.460938 20.332031 C 39.140625 19.707031 38.664062 19.394531 38.023438 19.394531 Z M 38.023438 18.417969 C 39.046875 18.417969 39.824219 18.820312 40.363281 19.628906 C 40.902344 20.4375 41.171875 21.609375 41.171875 23.148438 C 41.171875 24.679688 40.902344 25.851562 40.363281 26.660156 C 39.824219 27.46875 39.046875 27.871094 38.023438 27.871094 C 37.003906 27.871094 36.222656 27.46875 35.683594 26.660156 C 35.144531 25.851562 34.875 24.679688 34.875 23.148438 C 34.875 21.609375 35.144531 20.4375 35.683594 19.628906 C 36.222656 18.820312 37.003906 18.417969 38.023438 18.417969 Z M 38.023438 18.417969 "/>
<path style=" stroke:none;fill-rule:nonzero;fill:rgb(0%,0%,0%);fill-opacity:1;" d="M 45.976562 19.394531 C 45.34375 19.394531 44.863281 19.707031 44.542969 20.332031 C 44.226562 20.953125 44.066406 21.894531 44.066406 23.148438 C 44.066406 24.394531 44.226562 25.332031 44.542969 25.957031 C 44.863281 26.582031 45.34375 26.894531 45.976562 26.894531 C 46.617188 26.894531 47.09375 26.582031 47.414062 25.957031 C 47.734375 25.332031 47.894531 24.394531 47.894531 23.148438 C 47.894531 21.894531 47.734375 20.953125 47.414062 20.332031 C 47.09375 19.707031 46.617188 19.394531 45.976562 19.394531 Z M 45.976562 18.417969 C 47 18.417969 47.777344 18.820312 48.316406 19.628906 C 48.855469 20.4375 49.125 21.609375 49.125 23.148438 C 49.125 24.679688 48.855469 25.851562 48.316406 26.660156 C 47.777344 27.46875 47 27.871094 45.976562 27.871094 C 44.957031 27.871094 44.175781 27.46875 43.636719 26.660156 C 43.097656 25.851562 42.828125 24.679688 42.828125 23.148438 C 42.828125 21.609375 43.097656 20.4375 43.636719 19.628906 C 44.175781 18.820312 44.957031 18.417969 45.976562 18.417969 Z M 45.976562 18.417969 "/>
<path style=" stroke:none;fill-rule:nonzero;fill:rgb(0%,0%,0%);fill-opacity:1;" d="M 53.929688 19.394531 C 53.292969 19.394531 52.816406 19.707031 52.496094 20.332031 C 52.179688 20.953125 52.019531 21.894531 52.019531 23.148438 C 52.019531 24.394531 52.179688 25.332031 52.496094 25.957031 C 52.816406 26.582031 53.292969 26.894531 53.929688 26.894531 C 54.566406 26.894531 55.046875 26.582031 55.367188 25.957031 C 55.6875 25.332031 55.847656 24.394531 55.847656 23.148438 C 55.847656 21.894531 55.6875 20.953125 55.367188 20.332031 C 55.046875 19.707031 54.566406 19.394531 53.929688 19.394531 Z M 53.929688 18.417969 C 54.949219 18.417969 55.730469 18.820312 56.269531 19.628906 C 56.808594 20.4375 57.078125 21.609375 57.078125 23.148438 C 57.078125 24.679688 56.808594 25.851562 56.269531 26.660156 C 55.730469 27.46875 54.949219 27.871094 53.929688 27.871094 C 52.90625 27.871094 52.128906 27.46875 51.589844 26.660156 C 51.050781 25.851562 50.78125 24.679688 50.78125 23.148438 C 50.78125 21.609375 51.050781 20.4375 51.589844 19.628906 C 52.128906 18.820312 52.90625 18.417969 53.929688 18.417969 Z M 53.929688 18.417969 "/>
<path style=" stroke:none;fill-rule:nonzero;fill:rgb(0%,0%,0%);fill-opacity:1;" d="M 61.882812 19.394531 C 61.246094 19.394531 60.769531 19.707031 60.449219 20.332031 C 60.132812 20.953125 59.972656 21.894531 59.972656 23.148438 C 59.972656 24.394531 60.132812 25.332031 60.449219 25.957031 C 60.769531 26.582031 61.246094 26.894531 61.882812 26.894531 C 62.519531 26.894531 63 26.582031 63.320312 25.957031 C 63.640625 25.332031 63.800781 24.394531 63.800781 23.148438 C 63.800781 21.894531 63.640625 20.953125 63.320312 20.332031 C 63 19.707031 62.519531 19.394531 61.882812 19.394531 Z M 61.882812 18.417969 C 62.902344 18.417969 63.683594 18.820312 64.222656 19.628906 C 64.761719 20.4375 65.03125 21.609375 65.03125 23.148438 C 65.03125 24.679688 64.761719 25.851562 64.222656 26.660156 C 63.683594 27.46875 62.902344 27.871094 61.882812 27.871094 C 60.859375 27.871094 60.082031 27.46875 59.542969 26.660156 C 59.003906 25.851562 58.734375 24.679688 58.734375 23.148438 C 58.734375 21.609375 59.003906 20.4375 59.542969 19.628906 C 60.082031 18.820312 60.859375 18.417969 61.882812 18.417969 Z M 61.882812 18.417969 "/>
<path style=" stroke:none;fill-rule:nonzero;fill:rgb(0%,0%,0%);fill-opacity:1;" d="M 69.835938 19.394531 C 69.199219 19.394531 68.722656 19.707031 68.402344 20.332031 C 68.085938 20.953125 67.925781 21.894531 67.925781 23.148438 C 67.925781 24.394531 68.085938 25.332031 68.402344 25.957031 C 68.722656 26.582031 69.199219 26.894531 69.835938 26.894531 C 70.472656 26.894531 70.953125 26.582031 71.273438 25.957031 C 71.59375 25.332031 71.753906 24.394531 71.753906 23.148438 C 71.753906 21.894531 71.59375 20.953125 71.273438 20.332031 C 70.953125 19.707031 70.472656 19.394531 69.835938 19.394531 Z M 69.835938 18.417969 C 70.855469 18.417969 71.636719 18.820312 72.175781 19.628906 C 72.714844 20.4375 72.984375 21.609375 72.984375 23.148438 C 72.984375 24.679688 72.714844 25.851562 72.175781 26.660156 C 71.636719 27.46875 70.855469 27.871094 69.835938 27.871094 C 68.8125 27.871094 68.035156 27.46875 67.496094 26.660156 C 66.957031 25.851562 66.6875 24.679688 66.6875 23.148438 C 66.6875 21.609375 66.957031 20.4375 67.496094 19.628906 C 68.035156 18.820312 68.8125 18.417969 69.835938 18.417969 Z M 69.835938 18.417969 "/>
<path style=" stroke:none;fill-rule:nonzero;fill:rgb(0%,0%,0%);fill-opacity:1;" d="M 11.925781 105.472656 L 12.976562 105.472656 C 12.800781 105.789062 12.667969 106.109375 12.582031 106.429688 C 12.492188 106.746094 12.449219 107.070312 12.449219 107.394531 C 12.449219 108.125 12.679688 108.691406 13.144531 109.09375 C 13.605469 109.496094 14.25 109.695312 15.085938 109.695312 C 15.921875 109.695312 16.570312 109.496094 17.03125 109.09375 C 17.492188 108.691406 17.722656 108.125 17.722656 107.394531 C 17.722656 107.070312 17.679688 106.746094 17.59375 106.429688 C 17.503906 106.109375 17.375 105.789062 17.199219 105.472656 L 18.238281 105.472656 C 18.382812 105.785156 18.492188 106.109375 18.566406 106.445312 C 18.640625 106.78125 18.675781 107.140625 18.675781 107.515625 C 18.675781 108.546875 18.351562 109.367188 17.707031 109.972656 C 17.058594 110.578125 16.183594 110.882812 15.085938 110.882812 C 13.972656 110.882812 13.09375 110.574219 12.457031 109.960938 C 11.816406 109.351562 11.5 108.507812 11.5 107.445312 C 11.5 107.097656 11.535156 106.761719 11.605469 106.429688 C 11.675781 106.101562 11.78125 105.78125 11.925781 105.472656 Z M 11.925781 105.472656 "/>
<path style=" stroke:none;fill-rule:nonzero;fill:rgb(0%,0%,0%);fill-opacity:1;" d="M 12.449219 100.871094 C 12.449219 101.472656 12.683594 101.949219 13.15625 102.300781 C 13.625 102.648438 14.269531 102.824219 15.085938 102.824219 C 15.902344 102.824219 16.546875 102.652344 17.019531 102.304688 C 17.488281 101.953125 17.722656 101.476562 17.722656 100.871094 C 17.722656 100.273438 17.488281 99.796875 17.015625 99.449219 C 16.542969 99.097656 15.898438 98.925781 15.085938 98.925781 C 14.277344 98.925781 13.632812 99.097656 13.160156 99.449219 C 12.6875 99.796875 12.449219 100.273438 12.449219 100.871094 Z M 11.5 100.871094 C 11.5 99.894531 11.816406 99.128906 12.453125 98.570312 C 13.085938 98.011719 13.964844 97.734375 15.085938 97.734375 C 16.203125 97.734375 17.082031 98.011719 17.722656 98.570312 C 18.359375 99.128906 18.675781 99.894531 18.675781 100.871094 C 18.675781 101.851562 18.359375 102.621094 17.722656 103.175781 C 17.082031 103.730469 16.203125 104.007812 15.085938 104.007812 C 13.964844 104.007812 13.085938 103.730469 12.453125 103.175781 C 11.816406 102.621094 11.5 101.851562 11.5 100.871094 Z M 11.5 100.871094 "/>
<path style=" stroke:none;fill-rule:nonzero;fill:rgb(0%,0%,0%);fill-opacity:1;" d="M 15.800781 95.988281 L 11.664062 95.988281 L 11.664062 94.863281 L 15.757812 94.863281 C 16.40625 94.863281 16.890625 94.738281 17.214844 94.488281 C 17.539062 94.234375 17.699219 93.855469 17.699219 93.351562 C 17.699219 92.746094 17.507812 92.265625 17.121094 91.914062 C 16.734375 91.5625 16.207031 91.386719 15.539062 91.386719 L 11.664062 91.386719 L 11.664062 90.261719 L 18.5 90.261719 L 18.5 91.386719 L 17.449219 91.386719 C 17.863281 91.65625 18.171875 91.972656 18.375 92.335938 C 18.574219 92.695312 18.675781 93.113281 18.675781 93.589844 C 18.675781 94.375 18.433594 94.96875 17.945312 95.378906 C 17.457031 95.785156 16.742188 95.988281 15.800781 95.988281 Z M 11.5 93.160156 Z M 11.5 93.160156 "/>
<path style=" stroke:none;fill-rule:nonzero;fill:rgb(0%,0%,0%);fill-opacity:1;" d="M 14.371094 82.265625 L 18.5 82.265625 L 18.5 83.390625 L 14.410156 83.390625 C 13.761719 83.390625 13.277344 83.515625 12.957031 83.769531 C 12.636719 84.019531 12.476562 84.398438 12.476562 84.902344 C 12.476562 85.511719 12.667969 85.988281 13.054688 86.339844 C 13.441406 86.6875 13.96875 86.863281 14.636719 86.863281 L 18.5 86.863281 L 18.5 87.992188 L 11.664062 87.992188 L 11.664062 86.863281 L 12.726562 86.863281 C 12.3125 86.59375 12.007812 86.277344 11.804688 85.914062 C 11.601562 85.550781 11.5 85.128906 11.5 84.652344 C 11.5 83.867188 11.742188 83.273438 12.226562 82.871094 C 12.710938 82.46875 13.425781 82.265625 14.371094 82.265625 Z M 14.371094 82.265625 "/>
<path style=" stroke:none;fill-rule:nonzero;fill:rgb(0%,0%,0%);fill-opacity:1;" d="M 9.722656 78.917969 L 11.664062 78.917969 L 11.664062 76.605469 L 12.535156 76.605469 L 12.535156 78.917969 L 16.246094 78.917969 C 16.804688 78.917969 17.160156 78.839844 17.320312 78.6875 C 17.480469 78.535156 17.558594 78.226562 17.558594 77.757812 L 17.558594 76.605469 L 18.5 76.605469 L 18.5 77.757812 C 18.5 78.625 18.335938 79.222656 18.015625 79.550781 C 17.691406 79.878906 17.101562 80.046875 16.246094 80.046875 L 12.535156 80.046875 L 12.535156 80.871094 L 11.664062 80.871094 L 11.664062 80.046875 L 9.722656 80.046875 Z M 9.722656 78.917969 "/>
<path style="fill:none;stroke-width:0.8;stroke-linecap:square;stroke-linejoin:miter;stroke:rgb(0%,0%,0%);stroke-opacity:1;stroke-miterlimit:4;" d="M 66.053125 143.1 L 66.053125 7.2 " transform="matrix(1.25,0,0,1.25,0,0)"/>
<path style="fill:none;stroke-width:0.8;stroke-linecap:square;stroke-linejoin:miter;stroke:rgb(0%,0%,0%);stroke-opacity:1;stroke-miterlimit:4;" d="M 261.353125 143.1 L 261.353125 7.2 " transform="matrix(1.25,0,0,1.25,0,0)"/>
<path style="fill:none;stroke-width:0.8;stroke-linecap:square;stroke-linejoin:miter;stroke:rgb(0%,0%,0%);stroke-opacity:1;stroke-miterlimit:4;" d="M 66.053125 143.1 L 261.353125 143.1 " transform="matrix(1.25,0,0,1.25,0,0)"/>
<path style="fill:none;stroke-width:0.8;stroke-linecap:square;stroke-linejoin:miter;stroke:rgb(0%,0%,0%);stroke-opacity:1;stroke-miterlimit:4;" d="M 66.053125 7.2 L 261.353125 7.2 " transform="matrix(1.25,0,0,1.25,0,0)"/>
<use xlink:href="#surface35" mask="url(#mask0)"/>
<path style=" stroke:none;fill-rule:nonzero;fill:rgb(12.156863%,46.666667%,70.588235%);fill-opacity:1;" d="M 238.9375 29.746094 L 263.9375 29.746094 L 263.9375 20.996094 L 238.9375 20.996094 Z M 238.9375 29.746094 "/>
<path style=" stroke:none;fill-rule:nonzero;fill:rgb(0%,0%,0%);fill-opacity:1;" d="M 279.472656 23.113281 L 279.472656 24.175781 C 279.15625 24.011719 278.828125 23.890625 278.484375 23.808594 C 278.144531 23.726562 277.789062 23.6875 277.421875 23.6875 C 276.863281 23.6875 276.445312 23.773438 276.167969 23.941406 C 275.890625 24.113281 275.75 24.371094 275.75 24.710938 C 275.75 24.972656 275.851562 25.175781 276.046875 25.324219 C 276.25 25.472656 276.648438 25.617188 277.25 25.75 L 277.636719 25.835938 C 278.433594 26.007812 279 26.246094 279.335938 26.558594 C 279.671875 26.871094 279.839844 27.304688 279.839844 27.859375 C 279.839844 28.496094 279.589844 29 279.085938 29.371094 C 278.582031 29.742188 277.890625 29.925781 277.015625 29.925781 C 276.648438 29.925781 276.265625 29.890625 275.867188 29.816406 C 275.472656 29.746094 275.054688 29.640625 274.617188 29.496094 L 274.617188 28.335938 C 275.03125 28.554688 275.4375 28.714844 275.84375 28.824219 C 276.242188 28.929688 276.644531 28.984375 277.039062 28.984375 C 277.566406 28.984375 277.972656 28.894531 278.257812 28.710938 C 278.542969 28.53125 278.6875 28.277344 278.6875 27.945312 C 278.6875 27.640625 278.582031 27.410156 278.375 27.246094 C 278.171875 27.082031 277.722656 26.925781 277.023438 26.773438 L 276.632812 26.683594 C 275.9375 26.539062 275.4375 26.3125 275.125 26.007812 C 274.820312 25.707031 274.664062 25.289062 274.664062 24.761719 C 274.664062 24.117188 274.890625 23.621094 275.347656 23.273438 C 275.804688 22.921875 276.449219 22.746094 277.289062 22.746094 C 277.703125 22.746094 278.09375 22.777344 278.460938 22.839844 C 278.828125 22.898438 279.164062 22.992188 279.472656 23.113281 Z M 279.472656 23.113281 "/>
<path style=" stroke:none;fill-rule:nonzero;fill:rgb(0%,0%,0%);fill-opacity:1;" d="M 284.277344 23.699219 C 283.675781 23.699219 283.199219 23.933594 282.847656 24.402344 C 282.5 24.875 282.324219 25.519531 282.324219 26.335938 C 282.324219 27.152344 282.496094 27.796875 282.84375 28.265625 C 283.195312 28.738281 283.671875 28.972656 284.277344 28.972656 C 284.875 28.972656 285.347656 28.738281 285.699219 28.265625 C 286.046875 27.792969 286.222656 27.148438 286.222656 26.335938 C 286.222656 25.527344 286.046875 24.882812 285.699219 24.410156 C 285.347656 23.9375 284.875 23.699219 284.277344 23.699219 Z M 284.277344 22.746094 C 285.253906 22.746094 286.019531 23.066406 286.578125 23.699219 C 287.136719 24.335938 287.414062 25.214844 287.414062 26.335938 C 287.414062 27.453125 287.136719 28.332031 286.578125 28.96875 C 286.019531 29.605469 285.253906 29.925781 284.277344 29.925781 C 283.296875 29.925781 282.527344 29.605469 281.972656 28.96875 C 281.417969 28.332031 281.140625 27.453125 281.140625 26.335938 C 281.140625 25.214844 281.417969 24.335938 281.972656 23.699219 C 282.527344 23.066406 283.296875 22.746094 284.277344 22.746094 Z M 284.277344 22.746094 "/>
<path style=" stroke:none;fill-rule:nonzero;fill:rgb(0%,0%,0%);fill-opacity:1;" d="M 289.160156 27.050781 L 289.160156 22.910156 L 290.28125 22.910156 L 290.28125 27.007812 C 290.28125 27.65625 290.410156 28.140625 290.660156 28.464844 C 290.914062 28.789062 291.292969 28.949219 291.796875 28.949219 C 292.402344 28.949219 292.882812 28.753906 293.234375 28.367188 C 293.585938 27.980469 293.761719 27.453125 293.761719 26.785156 L 293.761719 22.910156 L 294.882812 22.910156 L 294.882812 29.746094 L 293.761719 29.746094 L 293.761719 28.695312 C 293.488281 29.113281 293.171875 29.421875 292.8125 29.621094 C 292.453125 29.824219 292.035156 29.925781 291.558594 29.925781 C 290.773438 29.925781 290.175781 29.679688 289.769531 29.191406 C 289.363281 28.703125 289.160156 27.992188 289.160156 27.050781 Z M 291.984375 22.746094 Z M 291.984375 22.746094 "/>
<path style=" stroke:none;fill-rule:nonzero;fill:rgb(0%,0%,0%);fill-opacity:1;" d="M 301.160156 23.960938 C 301.03125 23.886719 300.894531 23.835938 300.746094 23.800781 C 300.597656 23.765625 300.433594 23.746094 300.257812 23.746094 C 299.621094 23.746094 299.132812 23.953125 298.792969 24.367188 C 298.453125 24.78125 298.285156 25.371094 298.285156 26.144531 L 298.285156 29.746094 L 297.15625 29.746094 L 297.15625 22.910156 L 298.285156 22.910156 L 298.285156 23.972656 C 298.519531 23.558594 298.828125 23.25 299.207031 23.050781 C 299.585938 22.847656 300.042969 22.746094 300.585938 22.746094 C 300.664062 22.746094 300.75 22.753906 300.84375 22.761719 C 300.9375 22.773438 301.039062 22.789062 301.152344 22.808594 Z M 301.160156 23.960938 "/>
<path style=" stroke:none;fill-rule:nonzero;fill:rgb(0%,0%,0%);fill-opacity:1;" d="M 306.976562 23.171875 L 306.976562 24.222656 C 306.65625 24.046875 306.339844 23.917969 306.019531 23.828125 C 305.703125 23.742188 305.378906 23.699219 305.054688 23.699219 C 304.324219 23.699219 303.757812 23.929688 303.355469 24.390625 C 302.953125 24.851562 302.75 25.5 302.75 26.335938 C 302.75 27.171875 302.953125 27.820312 303.355469 28.28125 C 303.757812 28.742188 304.324219 28.972656 305.054688 28.972656 C 305.378906 28.972656 305.703125 28.929688 306.019531 28.839844 C 306.339844 28.753906 306.65625 28.621094 306.976562 28.445312 L 306.976562 29.484375 C 306.660156 29.632812 306.335938 29.742188 306 29.8125 C 305.667969 29.886719 305.308594 29.925781 304.929688 29.925781 C 303.902344 29.925781 303.082031 29.601562 302.476562 28.953125 C 301.871094 28.308594 301.566406 27.433594 301.566406 26.335938 C 301.566406 25.222656 301.875 24.34375 302.484375 23.707031 C 303.097656 23.066406 303.9375 22.746094 305.003906 22.746094 C 305.351562 22.746094 305.6875 22.785156 306.015625 22.855469 C 306.347656 22.925781 306.664062 23.03125 306.976562 23.171875 Z M 306.976562 23.171875 "/>
<path style=" stroke:none;fill-rule:nonzero;fill:rgb(0%,0%,0%);fill-opacity:1;" d="M 314.777344 26.046875 L 314.777344 26.597656 L 309.613281 26.597656 C 309.660156 27.371094 309.894531 27.960938 310.3125 28.363281 C 310.726562 28.769531 311.308594 28.972656 312.054688 28.972656 C 312.484375 28.972656 312.902344 28.917969 313.308594 28.8125 C 313.710938 28.707031 314.113281 28.550781 314.515625 28.335938 L 314.515625 29.398438 C 314.109375 29.570312 313.695312 29.699219 313.273438 29.789062 C 312.851562 29.878906 312.421875 29.925781 311.988281 29.925781 C 310.894531 29.925781 310.03125 29.609375 309.394531 28.972656 C 308.757812 28.339844 308.441406 27.480469 308.441406 26.394531 C 308.441406 25.277344 308.742188 24.390625 309.347656 23.734375 C 309.949219 23.078125 310.765625 22.746094 311.792969 22.746094 C 312.710938 22.746094 313.4375 23.042969 313.972656 23.636719 C 314.507812 24.226562 314.777344 25.03125 314.777344 26.046875 Z M 313.652344 25.71875 C 313.644531 25.105469 313.472656 24.617188 313.136719 24.25 C 312.800781 23.882812 312.355469 23.699219 311.804688 23.699219 C 311.175781 23.699219 310.675781 23.875 310.300781 24.230469 C 309.921875 24.585938 309.707031 25.082031 309.648438 25.726562 Z M 313.652344 25.71875 "/>
<path style=" stroke:none;fill-rule:nonzero;fill:url(#pattern10);" d="M 238.9375 48.09375 L 263.9375 48.09375 L 263.9375 39.34375 L 238.9375 39.34375 Z M 238.9375 48.09375 "/>
<path style=" stroke:none;fill-rule:nonzero;fill:rgb(0%,0%,0%);fill-opacity:1;" d="M 276.226562 39.316406 L 276.226562 41.257812 L 278.539062 41.257812 L 278.539062 42.132812 L 276.226562 42.132812 L 276.226562 45.84375 C 276.226562 46.402344 276.304688 46.757812 276.453125 46.917969 C 276.609375 47.078125 276.917969 47.15625 277.386719 47.15625 L 278.539062 47.15625 L 278.539062 48.09375 L 277.386719 48.09375 C 276.519531 48.09375 275.921875 47.933594 275.59375 47.609375 C 275.261719 47.285156 275.097656 46.699219 275.097656 45.84375 L 275.097656 42.132812 L 274.273438 42.132812 L 274.273438 41.257812 L 275.097656 41.257812 L 275.097656 39.316406 Z M 276.226562 39.316406 "/>
<path style=" stroke:none;fill-rule:nonzero;fill:rgb(0%,0%,0%);fill-opacity:1;" d="M 283.125 44.660156 C 282.214844 44.660156 281.585938 44.761719 281.238281 44.96875 C 280.886719 45.175781 280.710938 45.53125 280.710938 46.03125 C 280.710938 46.429688 280.84375 46.746094 281.105469 46.980469 C 281.371094 47.214844 281.726562 47.332031 282.175781 47.332031 C 282.800781 47.332031 283.300781 47.109375 283.675781 46.667969 C 284.054688 46.226562 284.242188 45.640625 284.242188 44.910156 L 284.242188 44.660156 Z M 285.363281 44.195312 L 285.363281 48.09375 L 284.242188 48.09375 L 284.242188 47.058594 C 283.984375 47.472656 283.664062 47.777344 283.28125 47.976562 C 282.898438 48.175781 282.429688 48.273438 281.878906 48.273438 C 281.179688 48.273438 280.621094 48.078125 280.207031 47.683594 C 279.796875 47.289062 279.589844 46.765625 279.589844 46.105469 C 279.589844 45.335938 279.847656 44.757812 280.359375 44.367188 C 280.875 43.976562 281.644531 43.78125 282.664062 43.78125 L 284.242188 43.78125 L 284.242188 43.667969 C 284.242188 43.152344 284.070312 42.753906 283.730469 42.46875 C 283.390625 42.1875 282.914062 42.046875 282.300781 42.046875 C 281.910156 42.046875 281.527344 42.09375 281.15625 42.1875 C 280.789062 42.28125 280.433594 42.421875 280.089844 42.609375 L 280.089844 41.570312 C 280.5 41.410156 280.898438 41.292969 281.285156 41.214844 C 281.671875 41.136719 282.050781 41.09375 282.414062 41.09375 C 283.40625 41.09375 284.144531 41.351562 284.632812 41.863281 C 285.121094 42.375 285.363281 43.152344 285.363281 44.195312 Z M 285.363281 44.195312 "/>
<path style=" stroke:none;fill-rule:nonzero;fill:rgb(0%,0%,0%);fill-opacity:1;" d="M 291.636719 42.308594 C 291.511719 42.234375 291.375 42.183594 291.226562 42.148438 C 291.078125 42.113281 290.914062 42.09375 290.734375 42.09375 C 290.097656 42.09375 289.613281 42.300781 289.273438 42.714844 C 288.933594 43.128906 288.761719 43.71875 288.761719 44.492188 L 288.761719 48.09375 L 287.632812 48.09375 L 287.632812 41.257812 L 288.761719 41.257812 L 288.761719 42.320312 C 289 41.90625 289.304688 41.597656 289.683594 41.398438 C 290.0625 41.195312 290.523438 41.09375 291.066406 41.09375 C 291.140625 41.09375 291.226562 41.101562 291.320312 41.109375 C 291.414062 41.121094 291.519531 41.136719 291.632812 41.15625 Z M 291.636719 42.308594 "/>
<path style=" stroke:none;fill-rule:nonzero;fill:rgb(0%,0%,0%);fill-opacity:1;" d="M 297.09375 44.597656 C 297.09375 43.785156 296.925781 43.152344 296.589844 42.707031 C 296.257812 42.257812 295.785156 42.035156 295.179688 42.035156 C 294.578125 42.035156 294.109375 42.257812 293.773438 42.707031 C 293.4375 43.152344 293.269531 43.785156 293.269531 44.597656 C 293.269531 45.40625 293.4375 46.035156 293.773438 46.484375 C 294.109375 46.933594 294.578125 47.15625 295.179688 47.15625 C 295.785156 47.15625 296.257812 46.933594 296.589844 46.484375 C 296.925781 46.035156 297.09375 45.40625 297.09375 44.597656 Z M 298.21875 47.246094 C 298.21875 48.410156 297.960938 49.277344 297.441406 49.84375 C 296.925781 50.410156 296.136719 50.695312 295.070312 50.695312 C 294.675781 50.695312 294.300781 50.664062 293.953125 50.605469 C 293.601562 50.546875 293.261719 50.457031 292.933594 50.335938 L 292.933594 49.242188 C 293.261719 49.421875 293.585938 49.554688 293.910156 49.636719 C 294.230469 49.722656 294.558594 49.765625 294.890625 49.765625 C 295.628906 49.765625 296.179688 49.574219 296.546875 49.191406 C 296.910156 48.808594 297.09375 48.226562 297.09375 47.449219 L 297.09375 46.890625 C 296.863281 47.296875 296.566406 47.597656 296.203125 47.796875 C 295.84375 47.996094 295.410156 48.09375 294.902344 48.09375 C 294.066406 48.09375 293.390625 47.777344 292.878906 47.136719 C 292.363281 46.5 292.109375 45.652344 292.109375 44.597656 C 292.109375 43.539062 292.363281 42.691406 292.878906 42.054688 C 293.390625 41.414062 294.066406 41.09375 294.902344 41.09375 C 295.410156 41.09375 295.84375 41.195312 296.203125 41.394531 C 296.566406 41.59375 296.863281 41.894531 297.09375 42.296875 L 297.09375 41.257812 L 298.21875 41.257812 Z M 298.21875 47.246094 "/>
<path style=" stroke:none;fill-rule:nonzero;fill:rgb(0%,0%,0%);fill-opacity:1;" d="M 306.378906 44.394531 L 306.378906 44.945312 L 301.214844 44.945312 C 301.265625 45.71875 301.496094 46.308594 301.914062 46.710938 C 302.332031 47.117188 302.910156 47.320312 303.65625 47.320312 C 304.085938 47.320312 304.503906 47.265625 304.910156 47.160156 C 305.316406 47.054688 305.71875 46.898438 306.117188 46.683594 L 306.117188 47.746094 C 305.714844 47.917969 305.300781 48.046875 304.875 48.136719 C 304.453125 48.226562 304.023438 48.273438 303.589844 48.273438 C 302.5 48.273438 301.632812 47.957031 301 47.320312 C 300.359375 46.6875 300.042969 45.828125 300.042969 44.742188 C 300.042969 43.625 300.34375 42.738281 300.949219 42.082031 C 301.554688 41.425781 302.367188 41.09375 303.394531 41.09375 C 304.3125 41.09375 305.039062 41.390625 305.578125 41.984375 C 306.109375 42.574219 306.378906 43.378906 306.378906 44.394531 Z M 305.257812 44.066406 C 305.25 43.453125 305.078125 42.964844 304.742188 42.597656 C 304.40625 42.230469 303.960938 42.046875 303.40625 42.046875 C 302.78125 42.046875 302.277344 42.222656 301.902344 42.578125 C 301.527344 42.933594 301.308594 43.429688 301.25 44.074219 Z M 305.257812 44.066406 "/>
<path style=" stroke:none;fill-rule:nonzero;fill:rgb(0%,0%,0%);fill-opacity:1;" d="M 309.332031 39.316406 L 309.332031 41.257812 L 311.644531 41.257812 L 311.644531 42.132812 L 309.332031 42.132812 L 309.332031 45.84375 C 309.332031 46.402344 309.410156 46.757812 309.5625 46.917969 C 309.714844 47.078125 310.023438 47.15625 310.492188 47.15625 L 311.644531 47.15625 L 311.644531 48.09375 L 310.492188 48.09375 C 309.625 48.09375 309.027344 47.933594 308.699219 47.609375 C 308.367188 47.285156 308.203125 46.699219 308.203125 45.84375 L 308.203125 42.132812 L 307.378906 42.132812 L 307.378906 41.257812 L 308.203125 41.257812 L 308.203125 39.316406 Z M 309.332031 39.316406 "/>
</g>
</svg>
