<?xml version="1.0" encoding="UTF-8"?>
<svg xmlns="http://www.w3.org/2000/svg" xmlns:xlink="http://www.w3.org/1999/xlink" width="178pt" height="109pt" viewBox="0 0 178 109" version="1.1">
<g id="surface1">
<path style="fill:none;stroke-width:1;stroke-linecap:round;stroke-linejoin:round;stroke:rgb(0%,0%,0%);stroke-opacity:1;stroke-miterlimit:10;" d="M 131.44375 149.8 L 152 149.8 L 152 165.9 L 131.44375 165.9 Z M 131.44375 149.8 " transform="matrix(1.25,0,0,1.25,-113.75,-100)"/>
<path style=" stroke:none;fill-rule:nonzero;fill:rgb(0%,0%,0%);fill-opacity:1;" d="M 56.050781 96.914062 C 56.050781 95.964844 56.148438 95.195312 56.34375 94.609375 C 56.539062 94.023438 56.824219 93.574219 57.203125 93.261719 C 57.59375 92.949219 58.082031 92.792969 58.667969 92.792969 C 59.109375 92.792969 59.496094 92.886719 59.820312 93.066406 C 60.144531 93.238281 60.414062 93.484375 60.621094 93.808594 C 60.828125 94.136719 60.992188 94.53125 61.109375 95 C 61.238281 95.46875 61.304688 96.109375 61.304688 96.914062 C 61.304688 97.851562 61.207031 98.613281 61.011719 99.199219 C 60.816406 99.773438 60.523438 100.222656 60.132812 100.546875 C 59.753906 100.859375 59.265625 101.015625 58.667969 101.015625 C 57.898438 101.015625 57.292969 100.738281 56.851562 100.175781 C 56.316406 99.511719 56.050781 98.425781 56.050781 96.914062 Z M 57.066406 96.914062 C 57.066406 98.230469 57.214844 99.109375 57.515625 99.550781 C 57.828125 99.980469 58.210938 100.195312 58.667969 100.195312 C 59.125 100.195312 59.507812 99.980469 59.820312 99.550781 C 60.132812 99.109375 60.289062 98.230469 60.289062 96.914062 C 60.289062 95.585938 60.132812 94.707031 59.820312 94.277344 C 59.507812 93.835938 59.125 93.613281 58.667969 93.613281 C 58.210938 93.613281 57.847656 93.804688 57.574219 94.179688 C 57.234375 94.675781 57.066406 95.585938 57.066406 96.914062 Z M 57.066406 96.914062 "/>
<path style=" stroke:none;fill-rule:nonzero;fill:rgb(0%,0%,0%);fill-opacity:1;" d="M 62.855469 100.878906 L 62.855469 99.746094 L 63.988281 99.746094 L 63.988281 100.878906 Z M 62.855469 100.878906 "/>
<path style=" stroke:none;fill-rule:nonzero;fill:rgb(0%,0%,0%);fill-opacity:1;" d="M 69.167969 100.878906 L 68.171875 100.878906 L 68.171875 94.570312 C 67.9375 94.804688 67.625 95.039062 67.234375 95.273438 C 66.84375 95.496094 66.5 95.660156 66.199219 95.761719 L 66.199219 94.804688 C 66.746094 94.558594 67.226562 94.253906 67.644531 93.886719 C 68.0625 93.511719 68.355469 93.144531 68.523438 92.792969 L 69.167969 92.792969 Z M 69.167969 100.878906 "/>
<path style="fill:none;stroke-width:1;stroke-linecap:round;stroke-linejoin:round;stroke:rgb(0%,0%,0%);stroke-opacity:1;stroke-miterlimit:10;" d="M 131.44375 133.7 L 152 133.7 L 152 149.8 L 131.44375 149.8 Z M 131.44375 133.7 " transform="matrix(1.25,0,0,1.25,-113.75,-100)"/>
<path style=" stroke:none;fill-rule:nonzero;fill:rgb(0%,0%,0%);fill-opacity:1;" d="M 56.050781 76.789062 C 56.050781 75.839844 56.148438 75.070312 56.34375 74.484375 C 56.539062 73.898438 56.824219 73.449219 57.203125 73.136719 C 57.59375 72.824219 58.082031 72.667969 58.667969 72.667969 C 59.109375 72.667969 59.496094 72.761719 59.820312 72.941406 C 60.144531 73.113281 60.414062 73.359375 60.621094 73.683594 C 60.828125 74.011719 60.992188 74.40625 61.109375 74.875 C 61.238281 75.34375 61.304688 75.984375 61.304688 76.789062 C 61.304688 77.726562 61.207031 78.488281 61.011719 79.074219 C 60.816406 79.648438 60.523438 80.097656 60.132812 80.421875 C 59.753906 80.734375 59.265625 80.890625 58.667969 80.890625 C 57.898438 80.890625 57.292969 80.613281 56.851562 80.050781 C 56.316406 79.386719 56.050781 78.300781 56.050781 76.789062 Z M 57.066406 76.789062 C 57.066406 78.105469 57.214844 78.984375 57.515625 79.425781 C 57.828125 79.855469 58.210938 80.070312 58.667969 80.070312 C 59.125 80.070312 59.507812 79.855469 59.820312 79.425781 C 60.132812 78.984375 60.289062 78.105469 60.289062 76.789062 C 60.289062 75.460938 60.132812 74.582031 59.820312 74.152344 C 59.507812 73.710938 59.125 73.488281 58.667969 73.488281 C 58.210938 73.488281 57.847656 73.679688 57.574219 74.054688 C 57.234375 74.550781 57.066406 75.460938 57.066406 76.789062 Z M 57.066406 76.789062 "/>
<path style=" stroke:none;fill-rule:nonzero;fill:rgb(0%,0%,0%);fill-opacity:1;" d="M 62.855469 80.753906 L 62.855469 79.621094 L 63.988281 79.621094 L 63.988281 80.753906 Z M 62.855469 80.753906 "/>
<path style=" stroke:none;fill-rule:nonzero;fill:rgb(0%,0%,0%);fill-opacity:1;" d="M 70.632812 79.796875 L 70.632812 80.753906 L 65.300781 80.753906 C 65.300781 80.519531 65.339844 80.292969 65.417969 80.070312 C 65.5625 79.707031 65.78125 79.347656 66.082031 78.996094 C 66.382812 78.644531 66.8125 78.242188 67.371094 77.785156 C 68.242188 77.058594 68.828125 76.484375 69.128906 76.066406 C 69.441406 75.652344 69.597656 75.253906 69.597656 74.875 C 69.597656 74.484375 69.453125 74.160156 69.167969 73.898438 C 68.894531 73.625 68.535156 73.488281 68.09375 73.488281 C 67.613281 73.488281 67.226562 73.632812 66.941406 73.917969 C 66.65625 74.207031 66.511719 74.601562 66.511719 75.109375 L 65.496094 74.992188 C 65.5625 74.238281 65.820312 73.664062 66.277344 73.273438 C 66.734375 72.871094 67.34375 72.667969 68.113281 72.667969 C 68.882812 72.667969 69.488281 72.882812 69.929688 73.3125 C 70.386719 73.742188 70.613281 74.269531 70.613281 74.894531 C 70.613281 75.222656 70.546875 75.539062 70.417969 75.851562 C 70.289062 76.164062 70.066406 76.496094 69.753906 76.847656 C 69.453125 77.1875 68.953125 77.65625 68.25 78.253906 C 67.652344 78.75 67.265625 79.089844 67.097656 79.269531 C 66.929688 79.453125 66.792969 79.628906 66.6875 79.796875 Z M 70.632812 79.796875 "/>
<path style="fill:none;stroke-width:1;stroke-linecap:round;stroke-linejoin:round;stroke:rgb(0%,0%,0%);stroke-opacity:1;stroke-miterlimit:10;" d="M 131.44375 117.6 L 152 117.6 L 152 133.7 L 131.44375 133.7 Z M 131.44375 117.6 " transform="matrix(1.25,0,0,1.25,-113.75,-100)"/>
<path style=" stroke:none;fill-rule:nonzero;fill:rgb(0%,0%,0%);fill-opacity:1;" d="M 56.050781 56.664062 C 56.050781 55.714844 56.148438 54.945312 56.34375 54.359375 C 56.539062 53.773438 56.824219 53.324219 57.203125 53.011719 C 57.59375 52.699219 58.082031 52.542969 58.667969 52.542969 C 59.109375 52.542969 59.496094 52.636719 59.820312 52.816406 C 60.144531 52.988281 60.414062 53.234375 60.621094 53.558594 C 60.828125 53.886719 60.992188 54.28125 61.109375 54.75 C 61.238281 55.21875 61.304688 55.859375 61.304688 56.664062 C 61.304688 57.601562 61.207031 58.363281 61.011719 58.949219 C 60.816406 59.523438 60.523438 59.972656 60.132812 60.296875 C 59.753906 60.609375 59.265625 60.765625 58.667969 60.765625 C 57.898438 60.765625 57.292969 60.488281 56.851562 59.925781 C 56.316406 59.261719 56.050781 58.175781 56.050781 56.664062 Z M 57.066406 56.664062 C 57.066406 57.980469 57.214844 58.859375 57.515625 59.300781 C 57.828125 59.730469 58.210938 59.945312 58.667969 59.945312 C 59.125 59.945312 59.507812 59.730469 59.820312 59.300781 C 60.132812 58.859375 60.289062 57.980469 60.289062 56.664062 C 60.289062 55.335938 60.132812 54.457031 59.820312 54.027344 C 59.507812 53.585938 59.125 53.363281 58.667969 53.363281 C 58.210938 53.363281 57.847656 53.554688 57.574219 53.929688 C 57.234375 54.425781 57.066406 55.335938 57.066406 56.664062 Z M 57.066406 56.664062 "/>
<path style=" stroke:none;fill-rule:nonzero;fill:rgb(0%,0%,0%);fill-opacity:1;" d="M 62.855469 60.628906 L 62.855469 59.496094 L 63.988281 59.496094 L 63.988281 60.628906 Z M 62.855469 60.628906 "/>
<path style=" stroke:none;fill-rule:nonzero;fill:rgb(0%,0%,0%);fill-opacity:1;" d="M 70.632812 59.671875 L 70.632812 60.628906 L 65.300781 60.628906 C 65.300781 60.394531 65.339844 60.167969 65.417969 59.945312 C 65.5625 59.582031 65.78125 59.222656 66.082031 58.871094 C 66.382812 58.519531 66.8125 58.117188 67.371094 57.660156 C 68.242188 56.933594 68.828125 56.359375 69.128906 55.941406 C 69.441406 55.527344 69.597656 55.128906 69.597656 54.75 C 69.597656 54.359375 69.453125 54.035156 69.167969 53.773438 C 68.894531 53.5 68.535156 53.363281 68.09375 53.363281 C 67.613281 53.363281 67.226562 53.507812 66.941406 53.792969 C 66.65625 54.082031 66.511719 54.476562 66.511719 54.984375 L 65.496094 54.867188 C 65.5625 54.113281 65.820312 53.539062 66.277344 53.148438 C 66.734375 52.746094 67.34375 52.542969 68.113281 52.542969 C 68.882812 52.542969 69.488281 52.757812 69.929688 53.1875 C 70.386719 53.617188 70.613281 54.144531 70.613281 54.769531 C 70.613281 55.097656 70.546875 55.414062 70.417969 55.726562 C 70.289062 56.039062 70.066406 56.371094 69.753906 56.722656 C 69.453125 57.0625 68.953125 57.53125 68.25 58.128906 C 67.652344 58.625 67.265625 58.964844 67.097656 59.144531 C 66.929688 59.328125 66.792969 59.503906 66.6875 59.671875 Z M 70.632812 59.671875 "/>
<path style=" stroke:none;fill-rule:nonzero;fill:rgb(69.803922%,85.098039%,100%);fill-opacity:1;" d="M 50.554688 47 L 76.25 47 L 76.25 26.875 L 50.554688 26.875 Z M 50.554688 47 "/>
<path style="fill:none;stroke-width:1;stroke-linecap:round;stroke-linejoin:round;stroke:rgb(0%,0%,0%);stroke-opacity:1;stroke-miterlimit:10;" d="M 131.44375 101.5 L 152 101.5 L 152 117.6 L 131.44375 117.6 Z M 131.44375 101.5 " transform="matrix(1.25,0,0,1.25,-113.75,-100)"/>
<path style=" stroke:none;fill-rule:nonzero;fill:rgb(0%,0%,0%);fill-opacity:1;" d="M 56.050781 36.539062 C 56.050781 35.589844 56.148438 34.820312 56.34375 34.234375 C 56.539062 33.648438 56.824219 33.199219 57.203125 32.886719 C 57.59375 32.574219 58.082031 32.417969 58.667969 32.417969 C 59.109375 32.417969 59.496094 32.511719 59.820312 32.691406 C 60.144531 32.863281 60.414062 33.109375 60.621094 33.433594 C 60.828125 33.761719 60.992188 34.15625 61.109375 34.625 C 61.238281 35.09375 61.304688 35.734375 61.304688 36.539062 C 61.304688 37.476562 61.207031 38.238281 61.011719 38.824219 C 60.816406 39.398438 60.523438 39.847656 60.132812 40.171875 C 59.753906 40.484375 59.265625 40.640625 58.667969 40.640625 C 57.898438 40.640625 57.292969 40.363281 56.851562 39.800781 C 56.316406 39.136719 56.050781 38.050781 56.050781 36.539062 Z M 57.066406 36.539062 C 57.066406 37.855469 57.214844 38.734375 57.515625 39.175781 C 57.828125 39.605469 58.210938 39.820312 58.667969 39.820312 C 59.125 39.820312 59.507812 39.605469 59.820312 39.175781 C 60.132812 38.734375 60.289062 37.855469 60.289062 36.539062 C 60.289062 35.210938 60.132812 34.332031 59.820312 33.902344 C 59.507812 33.460938 59.125 33.238281 58.667969 33.238281 C 58.210938 33.238281 57.847656 33.429688 57.574219 33.804688 C 57.234375 34.300781 57.066406 35.210938 57.066406 36.539062 Z M 57.066406 36.539062 "/>
<path style=" stroke:none;fill-rule:nonzero;fill:rgb(0%,0%,0%);fill-opacity:1;" d="M 62.855469 40.503906 L 62.855469 39.371094 L 63.988281 39.371094 L 63.988281 40.503906 Z M 62.855469 40.503906 "/>
<path style=" stroke:none;fill-rule:nonzero;fill:rgb(0%,0%,0%);fill-opacity:1;" d="M 65.4375 38.394531 L 66.472656 38.296875 C 66.550781 38.804688 66.726562 39.191406 67 39.449219 C 67.285156 39.699219 67.625 39.820312 68.015625 39.820312 C 68.496094 39.820312 68.902344 39.644531 69.226562 39.292969 C 69.566406 38.929688 69.734375 38.453125 69.734375 37.867188 C 69.734375 37.296875 69.570312 36.847656 69.246094 36.519531 C 68.933594 36.195312 68.523438 36.03125 68.015625 36.03125 C 67.691406 36.03125 67.398438 36.109375 67.136719 36.265625 C 66.890625 36.410156 66.6875 36.59375 66.53125 36.8125 L 65.613281 36.695312 L 66.394531 32.554688 L 70.398438 32.554688 L 70.398438 33.511719 L 67.175781 33.511719 L 66.746094 35.660156 C 67.226562 35.335938 67.734375 35.171875 68.269531 35.171875 C 68.972656 35.171875 69.566406 35.414062 70.046875 35.894531 C 70.527344 36.378906 70.769531 37.003906 70.769531 37.769531 C 70.769531 38.5 70.5625 39.132812 70.144531 39.664062 C 69.625 40.316406 68.914062 40.640625 68.015625 40.640625 C 67.285156 40.640625 66.6875 40.441406 66.21875 40.035156 C 65.761719 39.621094 65.503906 39.074219 65.4375 38.394531 Z M 65.4375 38.394531 "/>
<path style=" stroke:none;fill-rule:nonzero;fill:rgb(0%,0%,0%);fill-opacity:1;" d="M 11.078125 11.476562 L 7.835938 11.476562 L 7.835938 20.03125 L 8.636719 20.03125 L 8.636719 19.015625 L 10.296875 19.015625 L 10.296875 19.757812 L 11.078125 19.757812 Z M 8.636719 18.253906 L 8.636719 15.539062 L 10.296875 15.539062 L 10.296875 18.253906 Z M 8.636719 14.796875 L 8.636719 12.21875 L 10.296875 12.21875 L 10.296875 14.796875 Z M 12.699219 14.816406 L 12.035156 15.246094 C 12.71875 16.28125 13.246094 17.21875 13.636719 18.058594 L 14.300781 17.589844 C 13.929688 16.808594 13.402344 15.871094 12.699219 14.816406 Z M 15.257812 20.832031 C 15.960938 20.832031 16.3125 20.460938 16.3125 19.757812 L 16.3125 13.46875 L 17.699219 13.46875 L 17.699219 12.6875 L 16.3125 12.6875 L 16.3125 10.714844 L 15.492188 10.714844 L 15.492188 12.6875 L 11.605469 12.6875 L 11.605469 13.46875 L 15.492188 13.46875 L 15.492188 19.5625 C 15.492188 19.914062 15.316406 20.089844 15.003906 20.089844 C 14.398438 20.089844 13.773438 20.070312 13.128906 20.050781 L 13.304688 20.832031 Z M 15.257812 20.832031 "/>
<path style=" stroke:none;fill-rule:nonzero;fill:rgb(0%,0%,0%);fill-opacity:1;" d="M 21.605469 13.683594 L 21.605469 18.917969 L 25.882812 18.917969 L 25.882812 13.683594 Z M 25.140625 18.195312 L 22.367188 18.195312 L 22.367188 16.652344 L 25.140625 16.652344 Z M 22.367188 15.929688 L 22.367188 14.386719 L 25.140625 14.386719 L 25.140625 15.929688 Z M 27.152344 20.851562 C 27.894531 20.851562 28.285156 20.441406 28.285156 19.660156 L 28.285156 11.183594 L 23.128906 11.183594 L 23.128906 11.945312 L 27.503906 11.945312 L 27.503906 19.425781 C 27.503906 19.875 27.308594 20.128906 26.976562 20.128906 L 26 20.089844 L 26.195312 20.851562 Z M 19.28125 12.492188 L 19.28125 20.949219 L 20.0625 20.949219 L 20.0625 12.492188 Z M 20.921875 10.519531 L 20.179688 10.851562 C 20.667969 11.457031 21.136719 12.160156 21.566406 12.941406 L 22.289062 12.550781 C 21.898438 11.808594 21.429688 11.144531 20.921875 10.519531 Z M 20.921875 10.519531 "/>
<path style=" stroke:none;fill-rule:nonzero;fill:rgb(0%,0%,0%);fill-opacity:1;" d="M 34.691406 10.597656 L 34.691406 14.289062 L 32.582031 14.289062 L 32.582031 11.476562 L 31.761719 11.476562 L 31.761719 14.289062 L 30.042969 14.289062 L 30.042969 15.089844 L 34.769531 15.089844 L 34.769531 18.46875 L 35.570312 18.46875 L 35.570312 15.089844 L 40.042969 15.089844 L 40.042969 14.289062 L 35.511719 14.289062 L 35.511719 12.746094 L 38.929688 12.746094 L 38.929688 11.964844 L 35.511719 11.964844 L 35.511719 10.597656 Z M 38.363281 15.910156 C 37.132812 18.761719 34.554688 20.207031 30.667969 20.207031 L 30.960938 20.988281 C 34.964844 20.96875 37.679688 19.40625 39.105469 16.300781 Z M 32.738281 15.578125 C 32.09375 16.574219 31.292969 17.433594 30.335938 18.175781 L 30.84375 18.839844 C 31.820312 18.058594 32.640625 17.140625 33.324219 16.105469 Z M 32.738281 15.578125 "/>
<path style=" stroke:none;fill-rule:nonzero;fill:rgb(0%,0%,0%);fill-opacity:1;" d="M 64.472656 17 L 63.476562 17 L 63.476562 10.691406 C 63.242188 10.925781 62.929688 11.160156 62.539062 11.394531 C 62.148438 11.617188 61.800781 11.78125 61.503906 11.882812 L 61.503906 10.925781 C 62.050781 10.679688 62.53125 10.375 62.949219 10.007812 C 63.363281 9.632812 63.65625 9.265625 63.828125 8.914062 L 64.472656 8.914062 Z M 64.472656 17 "/>
<path style="fill:none;stroke-width:1;stroke-linecap:round;stroke-linejoin:round;stroke:rgb(0%,0%,0%);stroke-opacity:1;stroke-miterlimit:10;" d="M 158.04375 149.8 L 178.596875 149.8 L 178.596875 165.9 L 158.04375 165.9 Z M 158.04375 149.8 " transform="matrix(1.25,0,0,1.25,-113.75,-100)"/>
<path style=" stroke:none;fill-rule:nonzero;fill:rgb(0%,0%,0%);fill-opacity:1;" d="M 89.300781 96.914062 C 89.300781 95.964844 89.398438 95.195312 89.59375 94.609375 C 89.789062 94.023438 90.070312 93.574219 90.453125 93.261719 C 90.84375 92.949219 91.332031 92.792969 91.917969 92.792969 C 92.355469 92.792969 92.742188 92.886719 93.070312 93.066406 C 93.390625 93.238281 93.660156 93.484375 93.871094 93.808594 C 94.074219 94.136719 94.242188 94.53125 94.359375 95 C 94.484375 95.46875 94.554688 96.109375 94.554688 96.914062 C 94.554688 97.851562 94.457031 98.613281 94.261719 99.199219 C 94.066406 99.773438 93.773438 100.222656 93.382812 100.546875 C 93 100.859375 92.511719 101.015625 91.917969 101.015625 C 91.144531 101.015625 90.539062 100.738281 90.101562 100.175781 C 89.5625 99.511719 89.300781 98.425781 89.300781 96.914062 Z M 90.316406 96.914062 C 90.316406 98.230469 90.460938 99.109375 90.765625 99.550781 C 91.078125 99.980469 91.457031 100.195312 91.917969 100.195312 C 92.371094 100.195312 92.757812 99.980469 93.070312 99.550781 C 93.382812 99.109375 93.539062 98.230469 93.539062 96.914062 C 93.539062 95.585938 93.382812 94.707031 93.070312 94.277344 C 92.757812 93.835938 92.371094 93.613281 91.917969 93.613281 C 91.457031 93.613281 91.097656 93.804688 90.824219 94.179688 C 90.480469 94.675781 90.316406 95.585938 90.316406 96.914062 Z M 90.316406 96.914062 "/>
<path style=" stroke:none;fill-rule:nonzero;fill:rgb(0%,0%,0%);fill-opacity:1;" d="M 96.105469 100.878906 L 96.105469 99.746094 L 97.238281 99.746094 L 97.238281 100.878906 Z M 96.105469 100.878906 "/>
<path style=" stroke:none;fill-rule:nonzero;fill:rgb(0%,0%,0%);fill-opacity:1;" d="M 103.882812 99.921875 L 103.882812 100.878906 L 98.550781 100.878906 C 98.550781 100.644531 98.589844 100.417969 98.667969 100.195312 C 98.808594 99.832031 99.027344 99.472656 99.332031 99.121094 C 99.628906 98.769531 100.058594 98.367188 100.621094 97.910156 C 101.488281 97.183594 102.074219 96.609375 102.378906 96.191406 C 102.691406 95.777344 102.847656 95.378906 102.847656 95 C 102.847656 94.609375 102.699219 94.285156 102.417969 94.023438 C 102.144531 93.75 101.78125 93.613281 101.34375 93.613281 C 100.859375 93.613281 100.472656 93.757812 100.191406 94.042969 C 99.902344 94.332031 99.761719 94.726562 99.761719 95.234375 L 98.746094 95.117188 C 98.808594 94.363281 99.066406 93.789062 99.527344 93.398438 C 99.980469 92.996094 100.589844 92.792969 101.363281 92.792969 C 102.128906 92.792969 102.734375 93.007812 103.179688 93.4375 C 103.632812 93.867188 103.863281 94.394531 103.863281 95.019531 C 103.863281 95.347656 103.792969 95.664062 103.667969 95.976562 C 103.535156 96.289062 103.316406 96.621094 103.003906 96.972656 C 102.699219 97.3125 102.203125 97.78125 101.5 98.378906 C 100.898438 98.875 100.511719 99.214844 100.347656 99.394531 C 100.175781 99.578125 100.039062 99.753906 99.9375 99.921875 Z M 103.882812 99.921875 "/>
<path style="fill:none;stroke-width:1;stroke-linecap:round;stroke-linejoin:round;stroke:rgb(0%,0%,0%);stroke-opacity:1;stroke-miterlimit:10;" d="M 158.04375 101.5 L 178.596875 101.5 L 178.596875 117.6 L 158.04375 117.6 Z M 158.04375 101.5 " transform="matrix(1.25,0,0,1.25,-113.75,-100)"/>
<path style=" stroke:none;fill-rule:nonzero;fill:rgb(0%,0%,0%);fill-opacity:1;" d="M 89.300781 36.539062 C 89.300781 35.589844 89.398438 34.820312 89.59375 34.234375 C 89.789062 33.648438 90.070312 33.199219 90.453125 32.886719 C 90.84375 32.574219 91.332031 32.417969 91.917969 32.417969 C 92.355469 32.417969 92.742188 32.511719 93.070312 32.691406 C 93.390625 32.863281 93.660156 33.109375 93.871094 33.433594 C 94.074219 33.761719 94.242188 34.15625 94.359375 34.625 C 94.484375 35.09375 94.554688 35.734375 94.554688 36.539062 C 94.554688 37.476562 94.457031 38.238281 94.261719 38.824219 C 94.066406 39.398438 93.773438 39.847656 93.382812 40.171875 C 93 40.484375 92.511719 40.640625 91.917969 40.640625 C 91.144531 40.640625 90.539062 40.363281 90.101562 39.800781 C 89.5625 39.136719 89.300781 38.050781 89.300781 36.539062 Z M 90.316406 36.539062 C 90.316406 37.855469 90.460938 38.734375 90.765625 39.175781 C 91.078125 39.605469 91.457031 39.820312 91.917969 39.820312 C 92.371094 39.820312 92.757812 39.605469 93.070312 39.175781 C 93.382812 38.734375 93.539062 37.855469 93.539062 36.539062 C 93.539062 35.210938 93.382812 34.332031 93.070312 33.902344 C 92.757812 33.460938 92.371094 33.238281 91.917969 33.238281 C 91.457031 33.238281 91.097656 33.429688 90.824219 33.804688 C 90.480469 34.300781 90.316406 35.210938 90.316406 36.539062 Z M 90.316406 36.539062 "/>
<path style=" stroke:none;fill-rule:nonzero;fill:rgb(0%,0%,0%);fill-opacity:1;" d="M 96.105469 40.503906 L 96.105469 39.371094 L 97.238281 39.371094 L 97.238281 40.503906 Z M 96.105469 40.503906 "/>
<path style=" stroke:none;fill-rule:nonzero;fill:rgb(0%,0%,0%);fill-opacity:1;" d="M 102.417969 40.503906 L 101.421875 40.503906 L 101.421875 34.195312 C 101.1875 34.429688 100.875 34.664062 100.484375 34.898438 C 100.09375 35.121094 99.746094 35.285156 99.449219 35.386719 L 99.449219 34.429688 C 99.996094 34.183594 100.472656 33.878906 100.894531 33.511719 C 101.308594 33.136719 101.601562 32.769531 101.773438 32.417969 L 102.417969 32.417969 Z M 102.417969 40.503906 "/>
<path style=" stroke:none;fill-rule:nonzero;fill:rgb(69.803922%,85.098039%,100%);fill-opacity:1;" d="M 83.804688 67.125 L 109.496094 67.125 L 109.496094 47 L 83.804688 47 Z M 83.804688 67.125 "/>
<path style="fill:none;stroke-width:1;stroke-linecap:round;stroke-linejoin:round;stroke:rgb(0%,0%,0%);stroke-opacity:1;stroke-miterlimit:10;" d="M 158.04375 117.6 L 178.596875 117.6 L 178.596875 133.7 L 158.04375 133.7 Z M 158.04375 117.6 " transform="matrix(1.25,0,0,1.25,-113.75,-100)"/>
<path style=" stroke:none;fill-rule:nonzero;fill:rgb(0%,0%,0%);fill-opacity:1;" d="M 89.300781 56.664062 C 89.300781 55.714844 89.398438 54.945312 89.59375 54.359375 C 89.789062 53.773438 90.070312 53.324219 90.453125 53.011719 C 90.84375 52.699219 91.332031 52.542969 91.917969 52.542969 C 92.355469 52.542969 92.742188 52.636719 93.070312 52.816406 C 93.390625 52.988281 93.660156 53.234375 93.871094 53.558594 C 94.074219 53.886719 94.242188 54.28125 94.359375 54.75 C 94.484375 55.21875 94.554688 55.859375 94.554688 56.664062 C 94.554688 57.601562 94.457031 58.363281 94.261719 58.949219 C 94.066406 59.523438 93.773438 59.972656 93.382812 60.296875 C 93 60.609375 92.511719 60.765625 91.917969 60.765625 C 91.144531 60.765625 90.539062 60.488281 90.101562 59.925781 C 89.5625 59.261719 89.300781 58.175781 89.300781 56.664062 Z M 90.316406 56.664062 C 90.316406 57.980469 90.460938 58.859375 90.765625 59.300781 C 91.078125 59.730469 91.457031 59.945312 91.917969 59.945312 C 92.371094 59.945312 92.757812 59.730469 93.070312 59.300781 C 93.382812 58.859375 93.539062 57.980469 93.539062 56.664062 C 93.539062 55.335938 93.382812 54.457031 93.070312 54.027344 C 92.757812 53.585938 92.371094 53.363281 91.917969 53.363281 C 91.457031 53.363281 91.097656 53.554688 90.824219 53.929688 C 90.480469 54.425781 90.316406 55.335938 90.316406 56.664062 Z M 90.316406 56.664062 "/>
<path style=" stroke:none;fill-rule:nonzero;fill:rgb(0%,0%,0%);fill-opacity:1;" d="M 96.105469 60.628906 L 96.105469 59.496094 L 97.238281 59.496094 L 97.238281 60.628906 Z M 96.105469 60.628906 "/>
<path style=" stroke:none;fill-rule:nonzero;fill:rgb(0%,0%,0%);fill-opacity:1;" d="M 101.851562 60.628906 L 101.851562 58.695312 L 98.355469 58.695312 L 98.355469 57.796875 L 102.027344 52.582031 L 102.847656 52.582031 L 102.847656 57.796875 L 103.941406 57.796875 L 103.941406 58.695312 L 102.847656 58.695312 L 102.847656 60.628906 Z M 101.851562 57.796875 L 101.851562 54.164062 L 99.332031 57.796875 Z M 101.851562 57.796875 "/>
<path style="fill:none;stroke-width:1;stroke-linecap:round;stroke-linejoin:round;stroke:rgb(0%,0%,0%);stroke-opacity:1;stroke-miterlimit:10;" d="M 158.04375 133.7 L 178.596875 133.7 L 178.596875 149.8 L 158.04375 149.8 Z M 158.04375 133.7 " transform="matrix(1.25,0,0,1.25,-113.75,-100)"/>
<path style=" stroke:none;fill-rule:nonzero;fill:rgb(0%,0%,0%);fill-opacity:1;" d="M 89.300781 76.789062 C 89.300781 75.839844 89.398438 75.070312 89.59375 74.484375 C 89.789062 73.898438 90.070312 73.449219 90.453125 73.136719 C 90.84375 72.824219 91.332031 72.667969 91.917969 72.667969 C 92.355469 72.667969 92.742188 72.761719 93.070312 72.941406 C 93.390625 73.113281 93.660156 73.359375 93.871094 73.683594 C 94.074219 74.011719 94.242188 74.40625 94.359375 74.875 C 94.484375 75.34375 94.554688 75.984375 94.554688 76.789062 C 94.554688 77.726562 94.457031 78.488281 94.261719 79.074219 C 94.066406 79.648438 93.773438 80.097656 93.382812 80.421875 C 93 80.734375 92.511719 80.890625 91.917969 80.890625 C 91.144531 80.890625 90.539062 80.613281 90.101562 80.050781 C 89.5625 79.386719 89.300781 78.300781 89.300781 76.789062 Z M 90.316406 76.789062 C 90.316406 78.105469 90.460938 78.984375 90.765625 79.425781 C 91.078125 79.855469 91.457031 80.070312 91.917969 80.070312 C 92.371094 80.070312 92.757812 79.855469 93.070312 79.425781 C 93.382812 78.984375 93.539062 78.105469 93.539062 76.789062 C 93.539062 75.460938 93.382812 74.582031 93.070312 74.152344 C 92.757812 73.710938 92.371094 73.488281 91.917969 73.488281 C 91.457031 73.488281 91.097656 73.679688 90.824219 74.054688 C 90.480469 74.550781 90.316406 75.460938 90.316406 76.789062 Z M 90.316406 76.789062 "/>
<path style=" stroke:none;fill-rule:nonzero;fill:rgb(0%,0%,0%);fill-opacity:1;" d="M 96.105469 80.753906 L 96.105469 79.621094 L 97.238281 79.621094 L 97.238281 80.753906 Z M 96.105469 80.753906 "/>
<path style=" stroke:none;fill-rule:nonzero;fill:rgb(0%,0%,0%);fill-opacity:1;" d="M 98.6875 78.625 L 99.683594 78.488281 C 99.800781 79.050781 99.984375 79.453125 100.25 79.699219 C 100.523438 79.949219 100.859375 80.070312 101.265625 80.070312 C 101.71875 80.070312 102.105469 79.914062 102.417969 79.601562 C 102.738281 79.277344 102.90625 78.875 102.90625 78.390625 C 102.90625 77.9375 102.753906 77.566406 102.457031 77.277344 C 102.167969 76.980469 101.796875 76.828125 101.34375 76.828125 C 101.148438 76.828125 100.914062 76.867188 100.640625 76.945312 L 100.757812 76.066406 C 100.820312 76.082031 100.875 76.085938 100.914062 76.085938 C 101.328125 76.085938 101.703125 75.976562 102.046875 75.753906 C 102.382812 75.535156 102.554688 75.195312 102.554688 74.738281 C 102.554688 74.375 102.425781 74.074219 102.183594 73.839844 C 101.933594 73.605469 101.617188 73.488281 101.226562 73.488281 C 100.84375 73.488281 100.527344 73.613281 100.269531 73.859375 C 100.019531 74.09375 99.859375 74.453125 99.78125 74.933594 L 98.785156 74.757812 C 98.910156 74.09375 99.183594 73.582031 99.605469 73.214844 C 100.035156 72.851562 100.566406 72.667969 101.207031 72.667969 C 101.644531 72.667969 102.050781 72.765625 102.417969 72.960938 C 102.792969 73.144531 103.082031 73.398438 103.277344 73.722656 C 103.472656 74.050781 103.570312 74.394531 103.570312 74.757812 C 103.570312 75.109375 103.472656 75.429688 103.277344 75.714844 C 103.089844 76.003906 102.816406 76.230469 102.457031 76.398438 C 102.933594 76.503906 103.304688 76.730469 103.570312 77.082031 C 103.828125 77.421875 103.960938 77.851562 103.960938 78.371094 C 103.960938 79.074219 103.695312 79.675781 103.179688 80.167969 C 102.671875 80.652344 102.027344 80.890625 101.246094 80.890625 C 100.542969 80.890625 99.957031 80.683594 99.488281 80.265625 C 99.019531 79.851562 98.75 79.304688 98.6875 78.625 Z M 98.6875 78.625 "/>
<path style=" stroke:none;fill-rule:nonzero;fill:rgb(0%,0%,0%);fill-opacity:1;" d="M 99.1875 15.917969 L 99.1875 16.875 L 93.855469 16.875 C 93.855469 16.640625 93.894531 16.414062 93.972656 16.191406 C 94.113281 15.828125 94.332031 15.46875 94.636719 15.117188 C 94.933594 14.765625 95.363281 14.367188 95.925781 13.90625 C 96.792969 13.179688 97.378906 12.609375 97.683594 12.1875 C 97.996094 11.773438 98.152344 11.375 98.152344 10.996094 C 98.152344 10.605469 98.003906 10.28125 97.722656 10.019531 C 97.449219 9.746094 97.085938 9.609375 96.648438 9.609375 C 96.164062 9.609375 95.777344 9.757812 95.496094 10.039062 C 95.207031 10.328125 95.066406 10.722656 95.066406 11.230469 L 94.050781 11.113281 C 94.113281 10.359375 94.371094 9.785156 94.832031 9.394531 C 95.285156 8.992188 95.894531 8.789062 96.667969 8.789062 C 97.433594 8.789062 98.039062 9.003906 98.484375 9.433594 C 98.9375 9.863281 99.167969 10.390625 99.167969 11.015625 C 99.167969 11.34375 99.097656 11.660156 98.972656 11.972656 C 98.839844 12.285156 98.621094 12.617188 98.308594 12.96875 C 98.003906 13.3125 97.507812 13.78125 96.804688 14.375 C 96.203125 14.875 95.816406 15.210938 95.652344 15.390625 C 95.480469 15.578125 95.34375 15.75 95.242188 15.917969 Z M 99.1875 15.917969 "/>
<path style="fill:none;stroke-width:1;stroke-linecap:round;stroke-linejoin:round;stroke:rgb(0%,0%,0%);stroke-opacity:1;stroke-miterlimit:10;" d="M 184.73125 149.890625 L 205.2875 149.890625 L 205.2875 165.99375 L 184.73125 165.99375 Z M 184.73125 149.890625 " transform="matrix(1.25,0,0,1.25,-113.75,-100)"/>
<path style=" stroke:none;fill-rule:nonzero;fill:rgb(0%,0%,0%);fill-opacity:1;" d="M 122.660156 97.027344 C 122.660156 96.078125 122.757812 95.308594 122.953125 94.722656 C 123.148438 94.136719 123.433594 93.6875 123.8125 93.375 C 124.203125 93.0625 124.691406 92.90625 125.277344 92.90625 C 125.71875 92.90625 126.105469 93 126.429688 93.179688 C 126.753906 93.351562 127.023438 93.597656 127.230469 93.921875 C 127.4375 94.25 127.601562 94.644531 127.71875 95.113281 C 127.847656 95.582031 127.914062 96.222656 127.914062 97.027344 C 127.914062 97.964844 127.816406 98.726562 127.621094 99.3125 C 127.425781 99.886719 127.132812 100.335938 126.742188 100.660156 C 126.363281 100.972656 125.875 101.128906 125.277344 101.128906 C 124.507812 101.128906 123.902344 100.851562 123.460938 100.289062 C 122.925781 99.625 122.660156 98.539062 122.660156 97.027344 Z M 123.675781 97.027344 C 123.675781 98.34375 123.824219 99.222656 124.125 99.664062 C 124.4375 100.09375 124.820312 100.308594 125.277344 100.308594 C 125.734375 100.308594 126.117188 100.09375 126.429688 99.664062 C 126.742188 99.222656 126.898438 98.34375 126.898438 97.027344 C 126.898438 95.699219 126.742188 94.820312 126.429688 94.390625 C 126.117188 93.949219 125.734375 93.726562 125.277344 93.726562 C 124.820312 93.726562 124.457031 93.917969 124.183594 94.292969 C 123.84375 94.789062 123.675781 95.699219 123.675781 97.027344 Z M 123.675781 97.027344 "/>
<path style=" stroke:none;fill-rule:nonzero;fill:rgb(0%,0%,0%);fill-opacity:1;" d="M 129.464844 100.992188 L 129.464844 99.859375 L 130.597656 99.859375 L 130.597656 100.992188 Z M 129.464844 100.992188 "/>
<path style=" stroke:none;fill-rule:nonzero;fill:rgb(0%,0%,0%);fill-opacity:1;" d="M 137.242188 100.035156 L 137.242188 100.992188 L 131.910156 100.992188 C 131.910156 100.757812 131.949219 100.53125 132.027344 100.308594 C 132.171875 99.945312 132.390625 99.585938 132.691406 99.234375 C 132.992188 98.882812 133.421875 98.480469 133.980469 98.023438 C 134.851562 97.296875 135.4375 96.722656 135.738281 96.304688 C 136.050781 95.890625 136.207031 95.492188 136.207031 95.113281 C 136.207031 94.722656 136.0625 94.398438 135.777344 94.136719 C 135.503906 93.863281 135.144531 93.726562 134.703125 93.726562 C 134.222656 93.726562 133.835938 93.871094 133.550781 94.15625 C 133.265625 94.445312 133.121094 94.839844 133.121094 95.347656 L 132.105469 95.230469 C 132.171875 94.476562 132.429688 93.902344 132.886719 93.511719 C 133.34375 93.109375 133.953125 92.90625 134.722656 92.90625 C 135.492188 92.90625 136.097656 93.121094 136.539062 93.550781 C 136.996094 93.980469 137.222656 94.507812 137.222656 95.132812 C 137.222656 95.460938 137.15625 95.777344 137.027344 96.089844 C 136.898438 96.402344 136.675781 96.734375 136.363281 97.085938 C 136.0625 97.425781 135.5625 97.894531 134.859375 98.492188 C 134.261719 98.988281 133.875 99.328125 133.707031 99.507812 C 133.539062 99.691406 133.402344 99.867188 133.296875 100.035156 Z M 137.242188 100.035156 "/>
<path style=" stroke:none;fill-rule:nonzero;fill:rgb(69.803922%,85.098039%,100%);fill-opacity:1;" d="M 117.164062 87.363281 L 142.859375 87.363281 L 142.859375 67.234375 L 117.164062 67.234375 Z M 117.164062 87.363281 "/>
<path style="fill:none;stroke-width:1;stroke-linecap:round;stroke-linejoin:round;stroke:rgb(0%,0%,0%);stroke-opacity:1;stroke-miterlimit:10;" d="M 184.73125 133.7875 L 205.2875 133.7875 L 205.2875 149.890625 L 184.73125 149.890625 Z M 184.73125 133.7875 " transform="matrix(1.25,0,0,1.25,-113.75,-100)"/>
<path style=" stroke:none;fill-rule:nonzero;fill:rgb(0%,0%,0%);fill-opacity:1;" d="M 122.660156 76.902344 C 122.660156 75.953125 122.757812 75.183594 122.953125 74.597656 C 123.148438 74.011719 123.433594 73.5625 123.8125 73.25 C 124.203125 72.9375 124.691406 72.78125 125.277344 72.78125 C 125.71875 72.78125 126.105469 72.875 126.429688 73.054688 C 126.753906 73.226562 127.023438 73.472656 127.230469 73.796875 C 127.4375 74.125 127.601562 74.519531 127.71875 74.988281 C 127.847656 75.457031 127.914062 76.097656 127.914062 76.902344 C 127.914062 77.839844 127.816406 78.601562 127.621094 79.1875 C 127.425781 79.761719 127.132812 80.210938 126.742188 80.535156 C 126.363281 80.847656 125.875 81.003906 125.277344 81.003906 C 124.507812 81.003906 123.902344 80.726562 123.460938 80.164062 C 122.925781 79.5 122.660156 78.414062 122.660156 76.902344 Z M 123.675781 76.902344 C 123.675781 78.21875 123.824219 79.097656 124.125 79.539062 C 124.4375 79.96875 124.820312 80.183594 125.277344 80.183594 C 125.734375 80.183594 126.117188 79.96875 126.429688 79.539062 C 126.742188 79.097656 126.898438 78.21875 126.898438 76.902344 C 126.898438 75.574219 126.742188 74.695312 126.429688 74.265625 C 126.117188 73.824219 125.734375 73.601562 125.277344 73.601562 C 124.820312 73.601562 124.457031 73.792969 124.183594 74.167969 C 123.84375 74.664062 123.675781 75.574219 123.675781 76.902344 Z M 123.675781 76.902344 "/>
<path style=" stroke:none;fill-rule:nonzero;fill:rgb(0%,0%,0%);fill-opacity:1;" d="M 129.464844 80.867188 L 129.464844 79.734375 L 130.597656 79.734375 L 130.597656 80.867188 Z M 129.464844 80.867188 "/>
<path style=" stroke:none;fill-rule:nonzero;fill:rgb(0%,0%,0%);fill-opacity:1;" d="M 135.210938 80.867188 L 135.210938 78.933594 L 131.714844 78.933594 L 131.714844 78.035156 L 135.386719 72.820312 L 136.207031 72.820312 L 136.207031 78.035156 L 137.300781 78.035156 L 137.300781 78.933594 L 136.207031 78.933594 L 136.207031 80.867188 Z M 135.210938 78.035156 L 135.210938 74.402344 L 132.691406 78.035156 Z M 135.210938 78.035156 "/>
<path style="fill:none;stroke-width:1;stroke-linecap:round;stroke-linejoin:round;stroke:rgb(0%,0%,0%);stroke-opacity:1;stroke-miterlimit:10;" d="M 184.73125 117.690625 L 205.2875 117.690625 L 205.2875 133.7875 L 184.73125 133.7875 Z M 184.73125 117.690625 " transform="matrix(1.25,0,0,1.25,-113.75,-100)"/>
<path style=" stroke:none;fill-rule:nonzero;fill:rgb(0%,0%,0%);fill-opacity:1;" d="M 122.660156 56.777344 C 122.660156 55.828125 122.757812 55.058594 122.953125 54.472656 C 123.148438 53.886719 123.433594 53.4375 123.8125 53.125 C 124.203125 52.8125 124.691406 52.65625 125.277344 52.65625 C 125.71875 52.65625 126.105469 52.75 126.429688 52.929688 C 126.753906 53.101562 127.023438 53.347656 127.230469 53.671875 C 127.4375 54 127.601562 54.394531 127.71875 54.863281 C 127.847656 55.332031 127.914062 55.972656 127.914062 56.777344 C 127.914062 57.714844 127.816406 58.476562 127.621094 59.0625 C 127.425781 59.636719 127.132812 60.085938 126.742188 60.410156 C 126.363281 60.722656 125.875 60.878906 125.277344 60.878906 C 124.507812 60.878906 123.902344 60.601562 123.460938 60.039062 C 122.925781 59.375 122.660156 58.289062 122.660156 56.777344 Z M 123.675781 56.777344 C 123.675781 58.09375 123.824219 58.972656 124.125 59.414062 C 124.4375 59.84375 124.820312 60.058594 125.277344 60.058594 C 125.734375 60.058594 126.117188 59.84375 126.429688 59.414062 C 126.742188 58.972656 126.898438 58.09375 126.898438 56.777344 C 126.898438 55.449219 126.742188 54.570312 126.429688 54.140625 C 126.117188 53.699219 125.734375 53.476562 125.277344 53.476562 C 124.820312 53.476562 124.457031 53.667969 124.183594 54.042969 C 123.84375 54.539062 123.675781 55.449219 123.675781 56.777344 Z M 123.675781 56.777344 "/>
<path style=" stroke:none;fill-rule:nonzero;fill:rgb(0%,0%,0%);fill-opacity:1;" d="M 129.464844 60.742188 L 129.464844 59.609375 L 130.597656 59.609375 L 130.597656 60.742188 Z M 129.464844 60.742188 "/>
<path style=" stroke:none;fill-rule:nonzero;fill:rgb(0%,0%,0%);fill-opacity:1;" d="M 137.242188 59.785156 L 137.242188 60.742188 L 131.910156 60.742188 C 131.910156 60.507812 131.949219 60.28125 132.027344 60.058594 C 132.171875 59.695312 132.390625 59.335938 132.691406 58.984375 C 132.992188 58.632812 133.421875 58.230469 133.980469 57.773438 C 134.851562 57.046875 135.4375 56.472656 135.738281 56.054688 C 136.050781 55.640625 136.207031 55.242188 136.207031 54.863281 C 136.207031 54.472656 136.0625 54.148438 135.777344 53.886719 C 135.503906 53.613281 135.144531 53.476562 134.703125 53.476562 C 134.222656 53.476562 133.835938 53.621094 133.550781 53.90625 C 133.265625 54.195312 133.121094 54.589844 133.121094 55.097656 L 132.105469 54.980469 C 132.171875 54.226562 132.429688 53.652344 132.886719 53.261719 C 133.34375 52.859375 133.953125 52.65625 134.722656 52.65625 C 135.492188 52.65625 136.097656 52.871094 136.539062 53.300781 C 136.996094 53.730469 137.222656 54.257812 137.222656 54.882812 C 137.222656 55.210938 137.15625 55.527344 137.027344 55.839844 C 136.898438 56.152344 136.675781 56.484375 136.363281 56.835938 C 136.0625 57.175781 135.5625 57.644531 134.859375 58.242188 C 134.261719 58.738281 133.875 59.078125 133.707031 59.257812 C 133.539062 59.441406 133.402344 59.617188 133.296875 59.785156 Z M 137.242188 59.785156 "/>
<path style="fill:none;stroke-width:1;stroke-linecap:round;stroke-linejoin:round;stroke:rgb(0%,0%,0%);stroke-opacity:1;stroke-miterlimit:10;" d="M 184.73125 101.590625 L 205.2875 101.590625 L 205.2875 117.690625 L 184.73125 117.690625 Z M 184.73125 101.590625 " transform="matrix(1.25,0,0,1.25,-113.75,-100)"/>
<path style=" stroke:none;fill-rule:nonzero;fill:rgb(0%,0%,0%);fill-opacity:1;" d="M 122.660156 36.652344 C 122.660156 35.703125 122.757812 34.933594 122.953125 34.347656 C 123.148438 33.761719 123.433594 33.3125 123.8125 33 C 124.203125 32.6875 124.691406 32.53125 125.277344 32.53125 C 125.71875 32.53125 126.105469 32.625 126.429688 32.804688 C 126.753906 32.976562 127.023438 33.222656 127.230469 33.546875 C 127.4375 33.875 127.601562 34.269531 127.71875 34.738281 C 127.847656 35.207031 127.914062 35.847656 127.914062 36.652344 C 127.914062 37.589844 127.816406 38.351562 127.621094 38.9375 C 127.425781 39.511719 127.132812 39.960938 126.742188 40.285156 C 126.363281 40.597656 125.875 40.753906 125.277344 40.753906 C 124.507812 40.753906 123.902344 40.476562 123.460938 39.914062 C 122.925781 39.25 122.660156 38.164062 122.660156 36.652344 Z M 123.675781 36.652344 C 123.675781 37.96875 123.824219 38.847656 124.125 39.289062 C 124.4375 39.71875 124.820312 39.933594 125.277344 39.933594 C 125.734375 39.933594 126.117188 39.71875 126.429688 39.289062 C 126.742188 38.847656 126.898438 37.96875 126.898438 36.652344 C 126.898438 35.324219 126.742188 34.445312 126.429688 34.015625 C 126.117188 33.574219 125.734375 33.351562 125.277344 33.351562 C 124.820312 33.351562 124.457031 33.542969 124.183594 33.917969 C 123.84375 34.414062 123.675781 35.324219 123.675781 36.652344 Z M 123.675781 36.652344 "/>
<path style=" stroke:none;fill-rule:nonzero;fill:rgb(0%,0%,0%);fill-opacity:1;" d="M 129.464844 40.617188 L 129.464844 39.484375 L 130.597656 39.484375 L 130.597656 40.617188 Z M 129.464844 40.617188 "/>
<path style=" stroke:none;fill-rule:nonzero;fill:rgb(0%,0%,0%);fill-opacity:1;" d="M 137.242188 39.660156 L 137.242188 40.617188 L 131.910156 40.617188 C 131.910156 40.382812 131.949219 40.15625 132.027344 39.933594 C 132.171875 39.570312 132.390625 39.210938 132.691406 38.859375 C 132.992188 38.507812 133.421875 38.105469 133.980469 37.648438 C 134.851562 36.921875 135.4375 36.347656 135.738281 35.929688 C 136.050781 35.515625 136.207031 35.117188 136.207031 34.738281 C 136.207031 34.347656 136.0625 34.023438 135.777344 33.761719 C 135.503906 33.488281 135.144531 33.351562 134.703125 33.351562 C 134.222656 33.351562 133.835938 33.496094 133.550781 33.78125 C 133.265625 34.070312 133.121094 34.464844 133.121094 34.972656 L 132.105469 34.855469 C 132.171875 34.101562 132.429688 33.527344 132.886719 33.136719 C 133.34375 32.734375 133.953125 32.53125 134.722656 32.53125 C 135.492188 32.53125 136.097656 32.746094 136.539062 33.175781 C 136.996094 33.605469 137.222656 34.132812 137.222656 34.757812 C 137.222656 35.085938 137.15625 35.402344 137.027344 35.714844 C 136.898438 36.027344 136.675781 36.359375 136.363281 36.710938 C 136.0625 37.050781 135.5625 37.519531 134.859375 38.117188 C 134.261719 38.613281 133.875 38.953125 133.707031 39.132812 C 133.539062 39.316406 133.402344 39.492188 133.296875 39.660156 Z M 137.242188 39.660156 "/>
<path style=" stroke:none;fill-rule:nonzero;fill:rgb(0%,0%,0%);fill-opacity:1;" d="M 127.238281 14.859375 L 128.234375 14.722656 C 128.351562 15.285156 128.539062 15.691406 128.800781 15.933594 C 129.074219 16.183594 129.410156 16.304688 129.816406 16.304688 C 130.269531 16.304688 130.65625 16.148438 130.96875 15.835938 C 131.292969 15.515625 131.457031 15.109375 131.457031 14.625 C 131.457031 14.171875 131.304688 13.800781 131.007812 13.511719 C 130.71875 13.214844 130.347656 13.0625 129.894531 13.0625 C 129.699219 13.0625 129.464844 13.101562 129.191406 13.179688 L 129.308594 12.300781 C 129.371094 12.316406 129.425781 12.320312 129.464844 12.320312 C 129.878906 12.320312 130.257812 12.214844 130.597656 11.988281 C 130.933594 11.769531 131.105469 11.433594 131.105469 10.972656 C 131.105469 10.613281 130.980469 10.308594 130.734375 10.074219 C 130.484375 9.839844 130.167969 9.722656 129.777344 9.722656 C 129.398438 9.722656 129.078125 9.851562 128.820312 10.09375 C 128.570312 10.328125 128.410156 10.691406 128.332031 11.167969 L 127.335938 10.992188 C 127.464844 10.328125 127.738281 9.816406 128.15625 9.449219 C 128.585938 9.089844 129.117188 8.902344 129.757812 8.902344 C 130.199219 8.902344 130.601562 9 130.96875 9.195312 C 131.34375 9.382812 131.632812 9.636719 131.828125 9.957031 C 132.023438 10.285156 132.121094 10.632812 132.121094 10.992188 C 132.121094 11.34375 132.023438 11.667969 131.828125 11.949219 C 131.644531 12.238281 131.371094 12.46875 131.007812 12.632812 C 131.488281 12.742188 131.859375 12.964844 132.121094 13.316406 C 132.378906 13.660156 132.511719 14.089844 132.511719 14.605469 C 132.511719 15.308594 132.25 15.910156 131.730469 16.402344 C 131.222656 16.886719 130.578125 17.125 129.796875 17.125 C 129.09375 17.125 128.507812 16.921875 128.039062 16.5 C 127.570312 16.085938 127.300781 15.539062 127.238281 14.859375 Z M 127.238281 14.859375 "/>
<path style=" stroke:none;fill-rule:nonzero;fill:rgb(69.803922%,85.098039%,100%);fill-opacity:1;" d="M 150.527344 107.601562 L 176.21875 107.601562 L 176.21875 87.476562 L 150.527344 87.476562 Z M 150.527344 107.601562 "/>
<path style="fill:none;stroke-width:1;stroke-linecap:round;stroke-linejoin:round;stroke:rgb(0%,0%,0%);stroke-opacity:1;stroke-miterlimit:10;" d="M 211.421875 149.98125 L 231.975 149.98125 L 231.975 166.08125 L 211.421875 166.08125 Z M 211.421875 149.98125 " transform="matrix(1.25,0,0,1.25,-113.75,-100)"/>
<path style=" stroke:none;fill-rule:nonzero;fill:rgb(0%,0%,0%);fill-opacity:1;" d="M 156.023438 97.140625 C 156.023438 96.195312 156.121094 95.421875 156.316406 94.835938 C 156.511719 94.25 156.792969 93.800781 157.175781 93.488281 C 157.566406 93.175781 158.054688 93.019531 158.640625 93.019531 C 159.078125 93.019531 159.464844 93.113281 159.792969 93.292969 C 160.113281 93.464844 160.382812 93.714844 160.59375 94.035156 C 160.796875 94.363281 160.964844 94.757812 161.082031 95.226562 C 161.207031 95.695312 161.277344 96.335938 161.277344 97.140625 C 161.277344 98.078125 161.179688 98.839844 160.984375 99.425781 C 160.789062 100.003906 160.496094 100.453125 160.105469 100.773438 C 159.722656 101.085938 159.234375 101.242188 158.640625 101.242188 C 157.867188 101.242188 157.261719 100.964844 156.824219 100.402344 C 156.285156 99.738281 156.023438 98.65625 156.023438 97.140625 Z M 157.039062 97.140625 C 157.039062 98.460938 157.183594 99.339844 157.488281 99.777344 C 157.800781 100.207031 158.179688 100.421875 158.640625 100.421875 C 159.09375 100.421875 159.480469 100.207031 159.792969 99.777344 C 160.105469 99.339844 160.261719 98.460938 160.261719 97.140625 C 160.261719 95.8125 160.105469 94.933594 159.792969 94.503906 C 159.480469 94.066406 159.09375 93.839844 158.640625 93.839844 C 158.179688 93.839844 157.820312 94.03125 157.546875 94.40625 C 157.203125 94.90625 157.039062 95.8125 157.039062 97.140625 Z M 157.039062 97.140625 "/>
<path style=" stroke:none;fill-rule:nonzero;fill:rgb(0%,0%,0%);fill-opacity:1;" d="M 162.828125 101.105469 L 162.828125 99.972656 L 163.960938 99.972656 L 163.960938 101.105469 Z M 162.828125 101.105469 "/>
<path style=" stroke:none;fill-rule:nonzero;fill:rgb(0%,0%,0%);fill-opacity:1;" d="M 170.546875 95.03125 L 169.550781 95.109375 C 169.472656 94.71875 169.347656 94.4375 169.179688 94.25 C 168.917969 93.976562 168.59375 93.839844 168.203125 93.839844 C 167.875 93.839844 167.597656 93.929688 167.363281 94.09375 C 167.050781 94.328125 166.800781 94.660156 166.621094 95.089844 C 166.449219 95.519531 166.359375 96.140625 166.347656 96.945312 C 166.582031 96.59375 166.867188 96.335938 167.207031 96.164062 C 167.558594 95.984375 167.921875 95.890625 168.300781 95.890625 C 168.964844 95.890625 169.523438 96.136719 169.980469 96.613281 C 170.449219 97.097656 170.683594 97.722656 170.683594 98.488281 C 170.683594 98.996094 170.570312 99.476562 170.351562 99.914062 C 170.128906 100.34375 169.828125 100.675781 169.453125 100.910156 C 169.074219 101.128906 168.644531 101.242188 168.164062 101.242188 C 167.34375 101.242188 166.671875 100.945312 166.152344 100.34375 C 165.628906 99.734375 165.371094 98.734375 165.371094 97.335938 C 165.371094 95.789062 165.65625 94.65625 166.230469 93.9375 C 166.722656 93.328125 167.402344 93.019531 168.261719 93.019531 C 168.886719 93.019531 169.398438 93.207031 169.804688 93.566406 C 170.207031 93.917969 170.453125 94.40625 170.546875 95.03125 Z M 166.503906 98.488281 C 166.503906 98.839844 166.574219 99.171875 166.71875 99.484375 C 166.859375 99.789062 167.0625 100.023438 167.324219 100.1875 C 167.582031 100.34375 167.855469 100.421875 168.144531 100.421875 C 168.558594 100.421875 168.917969 100.261719 169.21875 99.933594 C 169.515625 99.597656 169.667969 99.132812 169.667969 98.546875 C 169.667969 97.992188 169.515625 97.550781 169.21875 97.238281 C 168.929688 96.917969 168.558594 96.75 168.105469 96.75 C 167.660156 96.75 167.285156 96.917969 166.972656 97.238281 C 166.660156 97.550781 166.503906 97.972656 166.503906 98.488281 Z M 166.503906 98.488281 "/>
<path style="fill:none;stroke-width:1;stroke-linecap:round;stroke-linejoin:round;stroke:rgb(0%,0%,0%);stroke-opacity:1;stroke-miterlimit:10;" d="M 211.421875 133.88125 L 231.975 133.88125 L 231.975 149.98125 L 211.421875 149.98125 Z M 211.421875 133.88125 " transform="matrix(1.25,0,0,1.25,-113.75,-100)"/>
<path style=" stroke:none;fill-rule:nonzero;fill:rgb(0%,0%,0%);fill-opacity:1;" d="M 156.023438 77.015625 C 156.023438 76.070312 156.121094 75.296875 156.316406 74.710938 C 156.511719 74.125 156.792969 73.675781 157.175781 73.363281 C 157.566406 73.050781 158.054688 72.894531 158.640625 72.894531 C 159.078125 72.894531 159.464844 72.988281 159.792969 73.167969 C 160.113281 73.339844 160.382812 73.589844 160.59375 73.910156 C 160.796875 74.238281 160.964844 74.632812 161.082031 75.101562 C 161.207031 75.570312 161.277344 76.210938 161.277344 77.015625 C 161.277344 77.953125 161.179688 78.714844 160.984375 79.300781 C 160.789062 79.878906 160.496094 80.328125 160.105469 80.648438 C 159.722656 80.960938 159.234375 81.117188 158.640625 81.117188 C 157.867188 81.117188 157.261719 80.839844 156.824219 80.277344 C 156.285156 79.613281 156.023438 78.53125 156.023438 77.015625 Z M 157.039062 77.015625 C 157.039062 78.335938 157.183594 79.214844 157.488281 79.652344 C 157.800781 80.082031 158.179688 80.296875 158.640625 80.296875 C 159.09375 80.296875 159.480469 80.082031 159.792969 79.652344 C 160.105469 79.214844 160.261719 78.335938 160.261719 77.015625 C 160.261719 75.6875 160.105469 74.808594 159.792969 74.378906 C 159.480469 73.941406 159.09375 73.714844 158.640625 73.714844 C 158.179688 73.714844 157.820312 73.90625 157.546875 74.28125 C 157.203125 74.78125 157.039062 75.6875 157.039062 77.015625 Z M 157.039062 77.015625 "/>
<path style=" stroke:none;fill-rule:nonzero;fill:rgb(0%,0%,0%);fill-opacity:1;" d="M 162.828125 80.980469 L 162.828125 79.847656 L 163.960938 79.847656 L 163.960938 80.980469 Z M 162.828125 80.980469 "/>
<path style=" stroke:none;fill-rule:nonzero;fill:rgb(0%,0%,0%);fill-opacity:1;" d="M 170.605469 80.023438 L 170.605469 80.980469 L 165.273438 80.980469 C 165.273438 80.746094 165.3125 80.523438 165.390625 80.296875 C 165.53125 79.9375 165.753906 79.574219 166.054688 79.222656 C 166.351562 78.871094 166.78125 78.472656 167.34375 78.011719 C 168.214844 77.285156 168.800781 76.714844 169.101562 76.292969 C 169.414062 75.878906 169.570312 75.484375 169.570312 75.101562 C 169.570312 74.710938 169.425781 74.390625 169.140625 74.125 C 168.867188 73.851562 168.507812 73.714844 168.066406 73.714844 C 167.582031 73.714844 167.199219 73.863281 166.914062 74.144531 C 166.625 74.433594 166.484375 74.828125 166.484375 75.335938 L 165.46875 75.21875 C 165.53125 74.46875 165.792969 73.890625 166.25 73.5 C 166.703125 73.101562 167.316406 72.894531 168.085938 72.894531 C 168.851562 72.894531 169.457031 73.109375 169.902344 73.539062 C 170.355469 73.96875 170.585938 74.496094 170.585938 75.121094 C 170.585938 75.449219 170.519531 75.765625 170.390625 76.078125 C 170.257812 76.390625 170.039062 76.722656 169.726562 77.074219 C 169.425781 77.417969 168.925781 77.886719 168.222656 78.480469 C 167.621094 78.980469 167.238281 79.316406 167.070312 79.496094 C 166.898438 79.683594 166.761719 79.859375 166.660156 80.023438 Z M 170.605469 80.023438 "/>
<path style="fill:none;stroke-width:1;stroke-linecap:round;stroke-linejoin:round;stroke:rgb(0%,0%,0%);stroke-opacity:1;stroke-miterlimit:10;" d="M 211.421875 117.78125 L 231.975 117.78125 L 231.975 133.88125 L 211.421875 133.88125 Z M 211.421875 117.78125 " transform="matrix(1.25,0,0,1.25,-113.75,-100)"/>
<path style=" stroke:none;fill-rule:nonzero;fill:rgb(0%,0%,0%);fill-opacity:1;" d="M 156.023438 56.890625 C 156.023438 55.945312 156.121094 55.171875 156.316406 54.585938 C 156.511719 54 156.792969 53.550781 157.175781 53.238281 C 157.566406 52.925781 158.054688 52.769531 158.640625 52.769531 C 159.078125 52.769531 159.464844 52.863281 159.792969 53.042969 C 160.113281 53.214844 160.382812 53.464844 160.59375 53.785156 C 160.796875 54.113281 160.964844 54.507812 161.082031 54.976562 C 161.207031 55.445312 161.277344 56.085938 161.277344 56.890625 C 161.277344 57.828125 161.179688 58.589844 160.984375 59.175781 C 160.789062 59.753906 160.496094 60.203125 160.105469 60.523438 C 159.722656 60.835938 159.234375 60.992188 158.640625 60.992188 C 157.867188 60.992188 157.261719 60.714844 156.824219 60.152344 C 156.285156 59.488281 156.023438 58.40625 156.023438 56.890625 Z M 157.039062 56.890625 C 157.039062 58.210938 157.183594 59.089844 157.488281 59.527344 C 157.800781 59.957031 158.179688 60.171875 158.640625 60.171875 C 159.09375 60.171875 159.480469 59.957031 159.792969 59.527344 C 160.105469 59.089844 160.261719 58.210938 160.261719 56.890625 C 160.261719 55.5625 160.105469 54.683594 159.792969 54.253906 C 159.480469 53.816406 159.09375 53.589844 158.640625 53.589844 C 158.179688 53.589844 157.820312 53.78125 157.546875 54.15625 C 157.203125 54.65625 157.039062 55.5625 157.039062 56.890625 Z M 157.039062 56.890625 "/>
<path style=" stroke:none;fill-rule:nonzero;fill:rgb(0%,0%,0%);fill-opacity:1;" d="M 162.828125 60.855469 L 162.828125 59.722656 L 163.960938 59.722656 L 163.960938 60.855469 Z M 162.828125 60.855469 "/>
<path style=" stroke:none;fill-rule:nonzero;fill:rgb(0%,0%,0%);fill-opacity:1;" d="M 170.605469 59.898438 L 170.605469 60.855469 L 165.273438 60.855469 C 165.273438 60.621094 165.3125 60.398438 165.390625 60.171875 C 165.53125 59.8125 165.753906 59.449219 166.054688 59.097656 C 166.351562 58.746094 166.78125 58.347656 167.34375 57.886719 C 168.214844 57.160156 168.800781 56.589844 169.101562 56.167969 C 169.414062 55.753906 169.570312 55.359375 169.570312 54.976562 C 169.570312 54.585938 169.425781 54.265625 169.140625 54 C 168.867188 53.726562 168.507812 53.589844 168.066406 53.589844 C 167.582031 53.589844 167.199219 53.738281 166.914062 54.019531 C 166.625 54.308594 166.484375 54.703125 166.484375 55.210938 L 165.46875 55.09375 C 165.53125 54.34375 165.792969 53.765625 166.25 53.375 C 166.703125 52.976562 167.316406 52.769531 168.085938 52.769531 C 168.851562 52.769531 169.457031 52.984375 169.902344 53.414062 C 170.355469 53.84375 170.585938 54.371094 170.585938 54.996094 C 170.585938 55.324219 170.519531 55.640625 170.390625 55.953125 C 170.257812 56.265625 170.039062 56.597656 169.726562 56.949219 C 169.425781 57.292969 168.925781 57.761719 168.222656 58.355469 C 167.621094 58.855469 167.238281 59.191406 167.070312 59.371094 C 166.898438 59.558594 166.761719 59.734375 166.660156 59.898438 Z M 170.605469 59.898438 "/>
<path style="fill:none;stroke-width:1;stroke-linecap:round;stroke-linejoin:round;stroke:rgb(0%,0%,0%);stroke-opacity:1;stroke-miterlimit:10;" d="M 211.421875 101.684375 L 231.975 101.684375 L 231.975 117.78125 L 211.421875 117.78125 Z M 211.421875 101.684375 " transform="matrix(1.25,0,0,1.25,-113.75,-100)"/>
<path style=" stroke:none;fill-rule:nonzero;fill:rgb(0%,0%,0%);fill-opacity:1;" d="M 156.023438 36.765625 C 156.023438 35.820312 156.121094 35.046875 156.316406 34.460938 C 156.511719 33.875 156.792969 33.425781 157.175781 33.113281 C 157.566406 32.800781 158.054688 32.644531 158.640625 32.644531 C 159.078125 32.644531 159.464844 32.738281 159.792969 32.917969 C 160.113281 33.089844 160.382812 33.339844 160.59375 33.660156 C 160.796875 33.988281 160.964844 34.382812 161.082031 34.851562 C 161.207031 35.320312 161.277344 35.960938 161.277344 36.765625 C 161.277344 37.703125 161.179688 38.464844 160.984375 39.050781 C 160.789062 39.628906 160.496094 40.078125 160.105469 40.398438 C 159.722656 40.710938 159.234375 40.867188 158.640625 40.867188 C 157.867188 40.867188 157.261719 40.589844 156.824219 40.027344 C 156.285156 39.363281 156.023438 38.28125 156.023438 36.765625 Z M 157.039062 36.765625 C 157.039062 38.085938 157.183594 38.964844 157.488281 39.402344 C 157.800781 39.832031 158.179688 40.046875 158.640625 40.046875 C 159.09375 40.046875 159.480469 39.832031 159.792969 39.402344 C 160.105469 38.964844 160.261719 38.085938 160.261719 36.765625 C 160.261719 35.4375 160.105469 34.558594 159.792969 34.128906 C 159.480469 33.691406 159.09375 33.464844 158.640625 33.464844 C 158.179688 33.464844 157.820312 33.65625 157.546875 34.03125 C 157.203125 34.53125 157.039062 35.4375 157.039062 36.765625 Z M 157.039062 36.765625 "/>
<path style=" stroke:none;fill-rule:nonzero;fill:rgb(0%,0%,0%);fill-opacity:1;" d="M 162.828125 40.730469 L 162.828125 39.597656 L 163.960938 39.597656 L 163.960938 40.730469 Z M 162.828125 40.730469 "/>
<path style=" stroke:none;fill-rule:nonzero;fill:rgb(0%,0%,0%);fill-opacity:1;" d="M 165.410156 36.765625 C 165.410156 35.820312 165.507812 35.046875 165.703125 34.460938 C 165.898438 33.875 166.183594 33.425781 166.5625 33.113281 C 166.953125 32.800781 167.441406 32.644531 168.027344 32.644531 C 168.46875 32.644531 168.851562 32.738281 169.179688 32.917969 C 169.503906 33.089844 169.769531 33.339844 169.980469 33.660156 C 170.1875 33.988281 170.351562 34.382812 170.46875 34.851562 C 170.597656 35.320312 170.664062 35.960938 170.664062 36.765625 C 170.664062 37.703125 170.566406 38.464844 170.371094 39.050781 C 170.175781 39.628906 169.882812 40.078125 169.492188 40.398438 C 169.113281 40.710938 168.625 40.867188 168.027344 40.867188 C 167.257812 40.867188 166.652344 40.589844 166.210938 40.027344 C 165.675781 39.363281 165.410156 38.28125 165.410156 36.765625 Z M 166.425781 36.765625 C 166.425781 38.085938 166.574219 38.964844 166.875 39.402344 C 167.1875 39.832031 167.570312 40.046875 168.027344 40.046875 C 168.480469 40.046875 168.867188 39.832031 169.179688 39.402344 C 169.492188 38.964844 169.648438 38.085938 169.648438 36.765625 C 169.648438 35.4375 169.492188 34.558594 169.179688 34.128906 C 168.867188 33.691406 168.480469 33.464844 168.027344 33.464844 C 167.570312 33.464844 167.207031 33.65625 166.933594 34.03125 C 166.59375 34.53125 166.425781 35.4375 166.425781 36.765625 Z M 166.425781 36.765625 "/>
<path style=" stroke:none;fill-rule:nonzero;fill:rgb(0%,0%,0%);fill-opacity:1;" d="M 163.878906 17.101562 L 163.878906 15.167969 L 160.382812 15.167969 L 160.382812 14.269531 L 164.054688 9.054688 L 164.875 9.054688 L 164.875 14.269531 L 165.96875 14.269531 L 165.96875 15.167969 L 164.875 15.167969 L 164.875 17.101562 Z M 163.878906 14.269531 L 163.878906 10.636719 L 161.359375 14.269531 Z M 163.878906 14.269531 "/>
<path style=" stroke:none;fill-rule:nonzero;fill:rgb(0%,0%,0%);fill-opacity:1;" d="M 13.976562 96.113281 L 8.292969 98.652344 L 8.292969 99.355469 L 13.976562 101.894531 L 13.976562 101.054688 L 9.347656 99.003906 L 13.976562 96.953125 Z M 13.976562 96.113281 "/>
<path style=" stroke:none;fill-rule:nonzero;fill:rgb(0%,0%,0%);fill-opacity:1;" d="M 17.621094 95.9375 C 16.78125 95.9375 16.117188 96.25 15.628906 96.855469 C 15.140625 97.421875 14.886719 98.144531 14.886719 99.003906 C 14.886719 99.941406 15.140625 100.683594 15.667969 101.25 C 16.15625 101.796875 16.839844 102.070312 17.660156 102.070312 C 18.421875 102.070312 19.027344 101.855469 19.515625 101.425781 C 19.90625 101.054688 20.179688 100.605469 20.296875 100.039062 L 19.398438 100.039062 C 19.261719 100.449219 19.066406 100.761719 18.8125 100.957031 C 18.519531 101.191406 18.128906 101.308594 17.660156 101.308594 C 17.113281 101.308594 16.664062 101.132812 16.351562 100.78125 C 16.039062 100.410156 15.882812 99.902344 15.824219 99.257812 L 20.414062 99.257812 C 20.394531 98.242188 20.179688 97.441406 19.75 96.894531 C 19.261719 96.25 18.558594 95.9375 17.621094 95.9375 Z M 17.660156 96.699219 C 18.753906 96.699219 19.378906 97.304688 19.476562 98.554688 L 15.84375 98.554688 C 15.902344 97.988281 16.078125 97.539062 16.410156 97.207031 C 16.722656 96.855469 17.132812 96.699219 17.660156 96.699219 Z M 17.660156 96.699219 "/>
<path style=" stroke:none;fill-rule:nonzero;fill:rgb(0%,0%,0%);fill-opacity:1;" d="M 24.078125 95.9375 C 23.199219 95.9375 22.515625 96.230469 21.988281 96.835938 C 21.5 97.421875 21.246094 98.125 21.246094 99.003906 C 21.246094 99.882812 21.5 100.605469 21.988281 101.152344 C 22.515625 101.777344 23.199219 102.070312 24.078125 102.070312 C 24.9375 102.070312 25.640625 101.777344 26.167969 101.152344 C 26.65625 100.605469 26.890625 99.882812 26.890625 99.003906 C 26.890625 98.125 26.65625 97.421875 26.148438 96.835938 C 25.640625 96.230469 24.9375 95.9375 24.078125 95.9375 Z M 24.078125 96.699219 C 24.683594 96.699219 25.171875 96.933594 25.523438 97.402344 C 25.835938 97.832031 25.992188 98.359375 25.992188 99.003906 C 25.992188 99.648438 25.835938 100.175781 25.523438 100.605469 C 25.171875 101.074219 24.683594 101.308594 24.078125 101.308594 C 23.453125 101.308594 22.964844 101.074219 22.632812 100.605469 C 22.320312 100.175781 22.164062 99.648438 22.164062 99.003906 C 22.164062 98.359375 22.320312 97.832031 22.632812 97.402344 C 22.964844 96.933594 23.453125 96.699219 24.078125 96.699219 Z M 24.078125 96.699219 "/>
<path style=" stroke:none;fill-rule:nonzero;fill:rgb(0%,0%,0%);fill-opacity:1;" d="M 30.125 95.9375 C 29.480469 95.9375 28.933594 96.09375 28.523438 96.386719 C 28.09375 96.679688 27.878906 97.050781 27.878906 97.558594 C 27.878906 98.046875 28.09375 98.417969 28.542969 98.691406 C 28.816406 98.867188 29.285156 99.042969 29.988281 99.199219 C 30.613281 99.355469 31.023438 99.492188 31.21875 99.570312 C 31.570312 99.746094 31.765625 100 31.765625 100.332031 C 31.765625 100.976562 31.238281 101.308594 30.203125 101.308594 C 29.714844 101.308594 29.34375 101.230469 29.089844 101.054688 C 28.835938 100.839844 28.679688 100.527344 28.601562 100.058594 L 27.722656 100.058594 C 27.859375 101.40625 28.699219 102.070312 30.222656 102.070312 C 31.863281 102.070312 32.683594 101.464844 32.683594 100.273438 C 32.683594 99.765625 32.449219 99.375 32 99.082031 C 31.6875 98.886719 31.199219 98.710938 30.496094 98.535156 C 29.910156 98.378906 29.5 98.261719 29.285156 98.164062 C 28.953125 97.988281 28.796875 97.773438 28.796875 97.519531 C 28.796875 97.265625 28.914062 97.070312 29.167969 96.914062 C 29.402344 96.757812 29.714844 96.699219 30.125 96.699219 C 30.574219 96.699219 30.945312 96.777344 31.179688 96.972656 C 31.414062 97.128906 31.550781 97.382812 31.628906 97.753906 L 32.507812 97.753906 C 32.351562 96.542969 31.570312 95.9375 30.125 95.9375 Z M 30.125 95.9375 "/>
<path style=" stroke:none;fill-rule:nonzero;fill:rgb(0%,0%,0%);fill-opacity:1;" d="M 33.617188 96.113281 L 33.617188 96.953125 L 38.246094 99.003906 L 33.617188 101.054688 L 33.617188 101.894531 L 39.300781 99.355469 L 39.300781 98.652344 Z M 33.617188 96.113281 "/>
<path style=" stroke:none;fill-rule:nonzero;fill:rgb(0%,0%,0%);fill-opacity:1;" d="M 26.351562 78.148438 L 27.40625 78.421875 C 27.183594 79.296875 26.78125 79.964844 26.195312 80.433594 C 25.621094 80.894531 24.910156 81.117188 24.066406 81.117188 C 23.207031 81.117188 22.503906 80.941406 21.957031 80.589844 C 21.410156 80.238281 20.992188 79.730469 20.707031 79.066406 C 20.433594 78.394531 20.296875 77.671875 20.296875 76.898438 C 20.296875 76.054688 20.453125 75.316406 20.765625 74.691406 C 21.089844 74.066406 21.546875 73.597656 22.132812 73.285156 C 22.730469 72.964844 23.382812 72.796875 24.085938 72.796875 C 24.890625 72.796875 25.570312 73.007812 26.117188 73.421875 C 26.675781 73.828125 27.058594 74.398438 27.269531 75.140625 L 26.214844 75.375 C 26.03125 74.789062 25.765625 74.371094 25.414062 74.105469 C 25.0625 73.832031 24.613281 73.695312 24.066406 73.695312 C 23.453125 73.695312 22.9375 73.847656 22.523438 74.144531 C 22.105469 74.449219 21.8125 74.847656 21.644531 75.355469 C 21.472656 75.855469 21.390625 76.363281 21.390625 76.878906 C 21.390625 77.574219 21.488281 78.179688 21.683594 78.695312 C 21.890625 79.203125 22.203125 79.585938 22.621094 79.828125 C 23.035156 80.078125 23.492188 80.199219 23.988281 80.199219 C 24.585938 80.199219 25.085938 80.035156 25.492188 79.691406 C 25.90625 79.339844 26.195312 78.828125 26.351562 78.148438 Z M 26.351562 78.148438 "/>
<path style=" stroke:none;fill-rule:nonzero;fill:rgb(0%,0%,0%);fill-opacity:1;" d="M 20.859375 60.855469 L 20.859375 52.808594 L 23.886719 52.808594 C 24.5 52.808594 24.988281 52.898438 25.351562 53.0625 C 25.730469 53.21875 26.023438 53.46875 26.230469 53.804688 C 26.453125 54.148438 26.5625 54.5 26.5625 54.859375 C 26.5625 55.210938 26.464844 55.539062 26.269531 55.835938 C 26.085938 56.140625 25.808594 56.382812 25.429688 56.578125 C 25.910156 56.726562 26.28125 56.964844 26.542969 57.300781 C 26.816406 57.644531 26.953125 58.042969 26.953125 58.511719 C 26.953125 58.894531 26.867188 59.246094 26.699219 59.566406 C 26.542969 59.894531 26.347656 60.148438 26.113281 60.328125 C 25.878906 60.5 25.585938 60.632812 25.234375 60.71875 C 24.882812 60.8125 24.445312 60.855469 23.925781 60.855469 Z M 21.933594 56.1875 L 23.671875 56.1875 C 24.140625 56.1875 24.480469 56.160156 24.6875 56.089844 C 24.960938 56.011719 25.164062 55.886719 25.292969 55.699219 C 25.4375 55.503906 25.507812 55.269531 25.507812 54.996094 C 25.507812 54.722656 25.441406 54.488281 25.3125 54.292969 C 25.183594 54.089844 25 53.941406 24.765625 53.863281 C 24.53125 53.785156 24.121094 53.746094 23.535156 53.746094 L 21.933594 53.746094 Z M 21.933594 59.898438 L 23.925781 59.898438 C 24.277344 59.898438 24.523438 59.890625 24.667969 59.859375 C 24.902344 59.820312 25.105469 59.753906 25.273438 59.644531 C 25.441406 59.542969 25.578125 59.390625 25.683594 59.195312 C 25.789062 59 25.839844 58.777344 25.839844 58.511719 C 25.839844 58.214844 25.761719 57.957031 25.605469 57.730469 C 25.449219 57.511719 25.234375 57.359375 24.960938 57.28125 C 24.6875 57.195312 24.296875 57.144531 23.789062 57.144531 L 21.933594 57.144531 Z M 21.933594 59.898438 "/>
<path style=" stroke:none;fill-rule:nonzero;fill:rgb(0%,0%,0%);fill-opacity:1;" d="M 20.019531 40.730469 L 23.125 32.683594 L 24.257812 32.683594 L 27.558594 40.730469 L 26.347656 40.730469 L 25.410156 38.289062 L 22.03125 38.289062 L 21.152344 40.730469 Z M 22.34375 37.429688 L 25.078125 37.429688 L 24.238281 35.183594 C 23.976562 34.511719 23.789062 33.953125 23.671875 33.523438 C 23.566406 34.046875 23.417969 34.558594 23.222656 35.066406 Z M 22.34375 37.429688 "/>
</g>
</svg>
