<?xml version="1.0" encoding="UTF-8"?>
<svg xmlns="http://www.w3.org/2000/svg" xmlns:xlink="http://www.w3.org/1999/xlink" width="176pt" height="109pt" viewBox="0 0 176 109" version="1.1">
<g id="surface1">
<path style="fill:none;stroke-width:1;stroke-linecap:round;stroke-linejoin:round;stroke:rgb(0%,0%,0%);stroke-opacity:1;stroke-miterlimit:10;" d="M 129.909375 254.7 L 150.465625 254.7 L 150.465625 270.8 L 129.909375 270.8 Z M 129.909375 254.7 " transform="matrix(1.25,0,0,1.25,-112.5,-231.25)"/>
<path style=" stroke:none;fill-rule:nonzero;fill:rgb(0%,0%,0%);fill-opacity:1;" d="M 55.382812 96.789062 C 55.382812 95.839844 55.480469 95.070312 55.675781 94.484375 C 55.871094 93.898438 56.15625 93.449219 56.535156 93.136719 C 56.925781 92.824219 57.414062 92.667969 58 92.667969 C 58.441406 92.667969 58.828125 92.761719 59.152344 92.941406 C 59.476562 93.113281 59.746094 93.359375 59.953125 93.683594 C 60.160156 94.011719 60.324219 94.40625 60.441406 94.875 C 60.570312 95.34375 60.636719 95.984375 60.636719 96.789062 C 60.636719 97.726562 60.539062 98.488281 60.34375 99.074219 C 60.148438 99.648438 59.855469 100.097656 59.464844 100.421875 C 59.085938 100.734375 58.597656 100.890625 58 100.890625 C 57.230469 100.890625 56.625 100.613281 56.183594 100.050781 C 55.648438 99.386719 55.382812 98.300781 55.382812 96.789062 Z M 56.398438 96.789062 C 56.398438 98.105469 56.546875 98.984375 56.847656 99.425781 C 57.160156 99.855469 57.542969 100.070312 58 100.070312 C 58.457031 100.070312 58.839844 99.855469 59.152344 99.425781 C 59.464844 98.984375 59.621094 98.105469 59.621094 96.789062 C 59.621094 95.460938 59.464844 94.582031 59.152344 94.152344 C 58.839844 93.710938 58.457031 93.488281 58 93.488281 C 57.542969 93.488281 57.179688 93.679688 56.90625 94.054688 C 56.566406 94.550781 56.398438 95.460938 56.398438 96.789062 Z M 56.398438 96.789062 "/>
<path style=" stroke:none;fill-rule:nonzero;fill:rgb(0%,0%,0%);fill-opacity:1;" d="M 62.1875 100.753906 L 62.1875 99.621094 L 63.320312 99.621094 L 63.320312 100.753906 Z M 62.1875 100.753906 "/>
<path style=" stroke:none;fill-rule:nonzero;fill:rgb(0%,0%,0%);fill-opacity:1;" d="M 68.5 100.753906 L 67.503906 100.753906 L 67.503906 94.445312 C 67.269531 94.679688 66.957031 94.914062 66.566406 95.148438 C 66.175781 95.371094 65.832031 95.535156 65.53125 95.636719 L 65.53125 94.679688 C 66.078125 94.433594 66.558594 94.128906 66.976562 93.761719 C 67.394531 93.386719 67.6875 93.019531 67.855469 92.667969 L 68.5 92.667969 Z M 68.5 100.753906 "/>
<path style="fill:none;stroke-width:1;stroke-linecap:round;stroke-linejoin:round;stroke:rgb(0%,0%,0%);stroke-opacity:1;stroke-miterlimit:10;" d="M 129.909375 238.6 L 150.465625 238.6 L 150.465625 254.7 L 129.909375 254.7 Z M 129.909375 238.6 " transform="matrix(1.25,0,0,1.25,-112.5,-231.25)"/>
<path style=" stroke:none;fill-rule:nonzero;fill:rgb(0%,0%,0%);fill-opacity:1;" d="M 55.382812 76.664062 C 55.382812 75.714844 55.480469 74.945312 55.675781 74.359375 C 55.871094 73.773438 56.15625 73.324219 56.535156 73.011719 C 56.925781 72.699219 57.414062 72.542969 58 72.542969 C 58.441406 72.542969 58.828125 72.636719 59.152344 72.816406 C 59.476562 72.988281 59.746094 73.234375 59.953125 73.558594 C 60.160156 73.886719 60.324219 74.28125 60.441406 74.75 C 60.570312 75.21875 60.636719 75.859375 60.636719 76.664062 C 60.636719 77.601562 60.539062 78.363281 60.34375 78.949219 C 60.148438 79.523438 59.855469 79.972656 59.464844 80.296875 C 59.085938 80.609375 58.597656 80.765625 58 80.765625 C 57.230469 80.765625 56.625 80.488281 56.183594 79.925781 C 55.648438 79.261719 55.382812 78.175781 55.382812 76.664062 Z M 56.398438 76.664062 C 56.398438 77.980469 56.546875 78.859375 56.847656 79.300781 C 57.160156 79.730469 57.542969 79.945312 58 79.945312 C 58.457031 79.945312 58.839844 79.730469 59.152344 79.300781 C 59.464844 78.859375 59.621094 77.980469 59.621094 76.664062 C 59.621094 75.335938 59.464844 74.457031 59.152344 74.027344 C 58.839844 73.585938 58.457031 73.363281 58 73.363281 C 57.542969 73.363281 57.179688 73.554688 56.90625 73.929688 C 56.566406 74.425781 56.398438 75.335938 56.398438 76.664062 Z M 56.398438 76.664062 "/>
<path style=" stroke:none;fill-rule:nonzero;fill:rgb(0%,0%,0%);fill-opacity:1;" d="M 62.1875 80.628906 L 62.1875 79.496094 L 63.320312 79.496094 L 63.320312 80.628906 Z M 62.1875 80.628906 "/>
<path style=" stroke:none;fill-rule:nonzero;fill:rgb(0%,0%,0%);fill-opacity:1;" d="M 69.964844 79.671875 L 69.964844 80.628906 L 64.632812 80.628906 C 64.632812 80.394531 64.671875 80.167969 64.75 79.945312 C 64.894531 79.582031 65.113281 79.222656 65.414062 78.871094 C 65.714844 78.519531 66.144531 78.117188 66.703125 77.660156 C 67.574219 76.933594 68.160156 76.359375 68.460938 75.941406 C 68.773438 75.527344 68.929688 75.128906 68.929688 74.75 C 68.929688 74.359375 68.785156 74.035156 68.5 73.773438 C 68.226562 73.5 67.867188 73.363281 67.425781 73.363281 C 66.945312 73.363281 66.558594 73.507812 66.273438 73.792969 C 65.988281 74.082031 65.84375 74.476562 65.84375 74.984375 L 64.828125 74.867188 C 64.894531 74.113281 65.152344 73.539062 65.609375 73.148438 C 66.066406 72.746094 66.675781 72.542969 67.445312 72.542969 C 68.214844 72.542969 68.820312 72.757812 69.261719 73.1875 C 69.71875 73.617188 69.945312 74.144531 69.945312 74.769531 C 69.945312 75.097656 69.878906 75.414062 69.75 75.726562 C 69.621094 76.039062 69.398438 76.371094 69.085938 76.722656 C 68.785156 77.0625 68.285156 77.53125 67.582031 78.128906 C 66.984375 78.625 66.597656 78.964844 66.429688 79.144531 C 66.261719 79.328125 66.125 79.503906 66.019531 79.671875 Z M 69.964844 79.671875 "/>
<path style="fill:none;stroke-width:1;stroke-linecap:round;stroke-linejoin:round;stroke:rgb(0%,0%,0%);stroke-opacity:1;stroke-miterlimit:10;" d="M 129.909375 222.5 L 150.465625 222.5 L 150.465625 238.6 L 129.909375 238.6 Z M 129.909375 222.5 " transform="matrix(1.25,0,0,1.25,-112.5,-231.25)"/>
<path style=" stroke:none;fill-rule:nonzero;fill:rgb(0%,0%,0%);fill-opacity:1;" d="M 55.382812 56.539062 C 55.382812 55.589844 55.480469 54.820312 55.675781 54.234375 C 55.871094 53.648438 56.15625 53.199219 56.535156 52.886719 C 56.925781 52.574219 57.414062 52.417969 58 52.417969 C 58.441406 52.417969 58.828125 52.511719 59.152344 52.691406 C 59.476562 52.863281 59.746094 53.109375 59.953125 53.433594 C 60.160156 53.761719 60.324219 54.15625 60.441406 54.625 C 60.570312 55.09375 60.636719 55.734375 60.636719 56.539062 C 60.636719 57.476562 60.539062 58.238281 60.34375 58.824219 C 60.148438 59.398438 59.855469 59.847656 59.464844 60.171875 C 59.085938 60.484375 58.597656 60.640625 58 60.640625 C 57.230469 60.640625 56.625 60.363281 56.183594 59.800781 C 55.648438 59.136719 55.382812 58.050781 55.382812 56.539062 Z M 56.398438 56.539062 C 56.398438 57.855469 56.546875 58.734375 56.847656 59.175781 C 57.160156 59.605469 57.542969 59.820312 58 59.820312 C 58.457031 59.820312 58.839844 59.605469 59.152344 59.175781 C 59.464844 58.734375 59.621094 57.855469 59.621094 56.539062 C 59.621094 55.210938 59.464844 54.332031 59.152344 53.902344 C 58.839844 53.460938 58.457031 53.238281 58 53.238281 C 57.542969 53.238281 57.179688 53.429688 56.90625 53.804688 C 56.566406 54.300781 56.398438 55.210938 56.398438 56.539062 Z M 56.398438 56.539062 "/>
<path style=" stroke:none;fill-rule:nonzero;fill:rgb(0%,0%,0%);fill-opacity:1;" d="M 62.1875 60.503906 L 62.1875 59.371094 L 63.320312 59.371094 L 63.320312 60.503906 Z M 62.1875 60.503906 "/>
<path style=" stroke:none;fill-rule:nonzero;fill:rgb(0%,0%,0%);fill-opacity:1;" d="M 69.964844 59.546875 L 69.964844 60.503906 L 64.632812 60.503906 C 64.632812 60.269531 64.671875 60.042969 64.75 59.820312 C 64.894531 59.457031 65.113281 59.097656 65.414062 58.746094 C 65.714844 58.394531 66.144531 57.992188 66.703125 57.535156 C 67.574219 56.808594 68.160156 56.234375 68.460938 55.816406 C 68.773438 55.402344 68.929688 55.003906 68.929688 54.625 C 68.929688 54.234375 68.785156 53.910156 68.5 53.648438 C 68.226562 53.375 67.867188 53.238281 67.425781 53.238281 C 66.945312 53.238281 66.558594 53.382812 66.273438 53.667969 C 65.988281 53.957031 65.84375 54.351562 65.84375 54.859375 L 64.828125 54.742188 C 64.894531 53.988281 65.152344 53.414062 65.609375 53.023438 C 66.066406 52.621094 66.675781 52.417969 67.445312 52.417969 C 68.214844 52.417969 68.820312 52.632812 69.261719 53.0625 C 69.71875 53.492188 69.945312 54.019531 69.945312 54.644531 C 69.945312 54.972656 69.878906 55.289062 69.75 55.601562 C 69.621094 55.914062 69.398438 56.246094 69.085938 56.597656 C 68.785156 56.9375 68.285156 57.40625 67.582031 58.003906 C 66.984375 58.5 66.597656 58.839844 66.429688 59.019531 C 66.261719 59.203125 66.125 59.378906 66.019531 59.546875 Z M 69.964844 59.546875 "/>
<path style=" stroke:none;fill-rule:nonzero;fill:rgb(69.803922%,85.098039%,100%);fill-opacity:1;" d="M 49.886719 46.875 L 75.582031 46.875 L 75.582031 26.75 L 49.886719 26.75 Z M 49.886719 46.875 "/>
<path style="fill:none;stroke-width:1;stroke-linecap:round;stroke-linejoin:round;stroke:rgb(0%,0%,0%);stroke-opacity:1;stroke-miterlimit:10;" d="M 129.909375 206.4 L 150.465625 206.4 L 150.465625 222.5 L 129.909375 222.5 Z M 129.909375 206.4 " transform="matrix(1.25,0,0,1.25,-112.5,-231.25)"/>
<path style=" stroke:none;fill-rule:nonzero;fill:rgb(0%,0%,0%);fill-opacity:1;" d="M 55.382812 36.414062 C 55.382812 35.464844 55.480469 34.695312 55.675781 34.109375 C 55.871094 33.523438 56.15625 33.074219 56.535156 32.761719 C 56.925781 32.449219 57.414062 32.292969 58 32.292969 C 58.441406 32.292969 58.828125 32.386719 59.152344 32.566406 C 59.476562 32.738281 59.746094 32.984375 59.953125 33.308594 C 60.160156 33.636719 60.324219 34.03125 60.441406 34.5 C 60.570312 34.96875 60.636719 35.609375 60.636719 36.414062 C 60.636719 37.351562 60.539062 38.113281 60.34375 38.699219 C 60.148438 39.273438 59.855469 39.722656 59.464844 40.046875 C 59.085938 40.359375 58.597656 40.515625 58 40.515625 C 57.230469 40.515625 56.625 40.238281 56.183594 39.675781 C 55.648438 39.011719 55.382812 37.925781 55.382812 36.414062 Z M 56.398438 36.414062 C 56.398438 37.730469 56.546875 38.609375 56.847656 39.050781 C 57.160156 39.480469 57.542969 39.695312 58 39.695312 C 58.457031 39.695312 58.839844 39.480469 59.152344 39.050781 C 59.464844 38.609375 59.621094 37.730469 59.621094 36.414062 C 59.621094 35.085938 59.464844 34.207031 59.152344 33.777344 C 58.839844 33.335938 58.457031 33.113281 58 33.113281 C 57.542969 33.113281 57.179688 33.304688 56.90625 33.679688 C 56.566406 34.175781 56.398438 35.085938 56.398438 36.414062 Z M 56.398438 36.414062 "/>
<path style=" stroke:none;fill-rule:nonzero;fill:rgb(0%,0%,0%);fill-opacity:1;" d="M 62.1875 40.378906 L 62.1875 39.246094 L 63.320312 39.246094 L 63.320312 40.378906 Z M 62.1875 40.378906 "/>
<path style=" stroke:none;fill-rule:nonzero;fill:rgb(0%,0%,0%);fill-opacity:1;" d="M 64.769531 38.269531 L 65.804688 38.171875 C 65.882812 38.679688 66.058594 39.066406 66.332031 39.324219 C 66.617188 39.574219 66.957031 39.695312 67.347656 39.695312 C 67.828125 39.695312 68.234375 39.519531 68.558594 39.167969 C 68.898438 38.804688 69.066406 38.328125 69.066406 37.742188 C 69.066406 37.171875 68.902344 36.722656 68.578125 36.394531 C 68.265625 36.070312 67.855469 35.90625 67.347656 35.90625 C 67.023438 35.90625 66.730469 35.984375 66.46875 36.140625 C 66.222656 36.285156 66.019531 36.46875 65.863281 36.6875 L 64.945312 36.570312 L 65.726562 32.429688 L 69.730469 32.429688 L 69.730469 33.386719 L 66.507812 33.386719 L 66.078125 35.535156 C 66.558594 35.210938 67.066406 35.046875 67.601562 35.046875 C 68.304688 35.046875 68.898438 35.289062 69.378906 35.769531 C 69.859375 36.253906 70.101562 36.878906 70.101562 37.644531 C 70.101562 38.375 69.894531 39.007812 69.476562 39.539062 C 68.957031 40.191406 68.246094 40.515625 67.347656 40.515625 C 66.617188 40.515625 66.019531 40.316406 65.550781 39.910156 C 65.09375 39.496094 64.835938 38.949219 64.769531 38.269531 Z M 64.769531 38.269531 "/>
<path style=" stroke:none;fill-rule:nonzero;fill:rgb(0%,0%,0%);fill-opacity:1;" d="M 10.410156 11.351562 L 7.167969 11.351562 L 7.167969 19.90625 L 7.96875 19.90625 L 7.96875 18.890625 L 9.628906 18.890625 L 9.628906 19.632812 L 10.410156 19.632812 Z M 7.96875 18.128906 L 7.96875 15.414062 L 9.628906 15.414062 L 9.628906 18.128906 Z M 7.96875 14.671875 L 7.96875 12.09375 L 9.628906 12.09375 L 9.628906 14.671875 Z M 12.03125 14.691406 L 11.367188 15.121094 C 12.050781 16.15625 12.578125 17.09375 12.96875 17.933594 L 13.632812 17.464844 C 13.261719 16.683594 12.734375 15.746094 12.03125 14.691406 Z M 14.589844 20.707031 C 15.292969 20.707031 15.644531 20.335938 15.644531 19.632812 L 15.644531 13.34375 L 17.03125 13.34375 L 17.03125 12.5625 L 15.644531 12.5625 L 15.644531 10.589844 L 14.824219 10.589844 L 14.824219 12.5625 L 10.9375 12.5625 L 10.9375 13.34375 L 14.824219 13.34375 L 14.824219 19.4375 C 14.824219 19.789062 14.648438 19.964844 14.335938 19.964844 C 13.730469 19.964844 13.105469 19.945312 12.460938 19.925781 L 12.636719 20.707031 Z M 14.589844 20.707031 "/>
<path style=" stroke:none;fill-rule:nonzero;fill:rgb(0%,0%,0%);fill-opacity:1;" d="M 20.9375 13.558594 L 20.9375 18.792969 L 25.214844 18.792969 L 25.214844 13.558594 Z M 24.472656 18.070312 L 21.699219 18.070312 L 21.699219 16.527344 L 24.472656 16.527344 Z M 21.699219 15.804688 L 21.699219 14.261719 L 24.472656 14.261719 L 24.472656 15.804688 Z M 26.484375 20.726562 C 27.226562 20.726562 27.617188 20.316406 27.617188 19.535156 L 27.617188 11.058594 L 22.460938 11.058594 L 22.460938 11.820312 L 26.835938 11.820312 L 26.835938 19.300781 C 26.835938 19.75 26.640625 20.003906 26.308594 20.003906 L 25.332031 19.964844 L 25.527344 20.726562 Z M 18.613281 12.367188 L 18.613281 20.824219 L 19.394531 20.824219 L 19.394531 12.367188 Z M 20.253906 10.394531 L 19.511719 10.726562 C 20 11.332031 20.46875 12.035156 20.898438 12.816406 L 21.621094 12.425781 C 21.230469 11.683594 20.761719 11.019531 20.253906 10.394531 Z M 20.253906 10.394531 "/>
<path style=" stroke:none;fill-rule:nonzero;fill:rgb(0%,0%,0%);fill-opacity:1;" d="M 34.023438 10.472656 L 34.023438 14.164062 L 31.914062 14.164062 L 31.914062 11.351562 L 31.09375 11.351562 L 31.09375 14.164062 L 29.375 14.164062 L 29.375 14.964844 L 34.101562 14.964844 L 34.101562 18.34375 L 34.902344 18.34375 L 34.902344 14.964844 L 39.375 14.964844 L 39.375 14.164062 L 34.84375 14.164062 L 34.84375 12.621094 L 38.261719 12.621094 L 38.261719 11.839844 L 34.84375 11.839844 L 34.84375 10.472656 Z M 37.695312 15.785156 C 36.464844 18.636719 33.886719 20.082031 30 20.082031 L 30.292969 20.863281 C 34.296875 20.84375 37.011719 19.28125 38.4375 16.175781 Z M 32.070312 15.453125 C 31.425781 16.449219 30.625 17.308594 29.667969 18.050781 L 30.175781 18.714844 C 31.152344 17.933594 31.972656 17.015625 32.65625 15.980469 Z M 32.070312 15.453125 "/>
<path style=" stroke:none;fill-rule:nonzero;fill:rgb(0%,0%,0%);fill-opacity:1;" d="M 63.804688 16.875 L 62.808594 16.875 L 62.808594 10.566406 C 62.574219 10.800781 62.261719 11.035156 61.871094 11.269531 C 61.480469 11.492188 61.136719 11.65625 60.835938 11.757812 L 60.835938 10.800781 C 61.382812 10.554688 61.863281 10.25 62.28125 9.882812 C 62.699219 9.507812 62.992188 9.140625 63.160156 8.789062 L 63.804688 8.789062 Z M 63.804688 16.875 "/>
<path style="fill:none;stroke-width:1;stroke-linecap:round;stroke-linejoin:round;stroke:rgb(0%,0%,0%);stroke-opacity:1;stroke-miterlimit:10;" d="M 156.50625 254.7 L 177.0625 254.7 L 177.0625 270.8 L 156.50625 270.8 Z M 156.50625 254.7 " transform="matrix(1.25,0,0,1.25,-112.5,-231.25)"/>
<path style=" stroke:none;fill-rule:nonzero;fill:rgb(0%,0%,0%);fill-opacity:1;" d="M 88.632812 96.789062 C 88.632812 95.839844 88.730469 95.070312 88.925781 94.484375 C 89.121094 93.898438 89.402344 93.449219 89.785156 93.136719 C 90.175781 92.824219 90.664062 92.667969 91.25 92.667969 C 91.6875 92.667969 92.074219 92.761719 92.402344 92.941406 C 92.722656 93.113281 92.992188 93.359375 93.203125 93.683594 C 93.40625 94.011719 93.574219 94.40625 93.691406 94.875 C 93.816406 95.34375 93.886719 95.984375 93.886719 96.789062 C 93.886719 97.726562 93.789062 98.488281 93.59375 99.074219 C 93.398438 99.648438 93.105469 100.097656 92.714844 100.421875 C 92.332031 100.734375 91.84375 100.890625 91.25 100.890625 C 90.476562 100.890625 89.871094 100.613281 89.433594 100.050781 C 88.894531 99.386719 88.632812 98.300781 88.632812 96.789062 Z M 89.648438 96.789062 C 89.648438 98.105469 89.792969 98.984375 90.097656 99.425781 C 90.410156 99.855469 90.789062 100.070312 91.25 100.070312 C 91.703125 100.070312 92.089844 99.855469 92.402344 99.425781 C 92.714844 98.984375 92.871094 98.105469 92.871094 96.789062 C 92.871094 95.460938 92.714844 94.582031 92.402344 94.152344 C 92.089844 93.710938 91.703125 93.488281 91.25 93.488281 C 90.789062 93.488281 90.429688 93.679688 90.15625 94.054688 C 89.8125 94.550781 89.648438 95.460938 89.648438 96.789062 Z M 89.648438 96.789062 "/>
<path style=" stroke:none;fill-rule:nonzero;fill:rgb(0%,0%,0%);fill-opacity:1;" d="M 95.4375 100.753906 L 95.4375 99.621094 L 96.570312 99.621094 L 96.570312 100.753906 Z M 95.4375 100.753906 "/>
<path style=" stroke:none;fill-rule:nonzero;fill:rgb(0%,0%,0%);fill-opacity:1;" d="M 103.214844 99.796875 L 103.214844 100.753906 L 97.882812 100.753906 C 97.882812 100.519531 97.921875 100.292969 98 100.070312 C 98.140625 99.707031 98.359375 99.347656 98.664062 98.996094 C 98.960938 98.644531 99.390625 98.242188 99.953125 97.785156 C 100.820312 97.058594 101.40625 96.484375 101.710938 96.066406 C 102.023438 95.652344 102.179688 95.253906 102.179688 94.875 C 102.179688 94.484375 102.03125 94.160156 101.75 93.898438 C 101.476562 93.625 101.113281 93.488281 100.675781 93.488281 C 100.191406 93.488281 99.804688 93.632812 99.523438 93.917969 C 99.234375 94.207031 99.09375 94.601562 99.09375 95.109375 L 98.078125 94.992188 C 98.140625 94.238281 98.398438 93.664062 98.859375 93.273438 C 99.3125 92.871094 99.921875 92.667969 100.695312 92.667969 C 101.460938 92.667969 102.066406 92.882812 102.511719 93.3125 C 102.964844 93.742188 103.195312 94.269531 103.195312 94.894531 C 103.195312 95.222656 103.125 95.539062 103 95.851562 C 102.867188 96.164062 102.648438 96.496094 102.335938 96.847656 C 102.03125 97.1875 101.535156 97.65625 100.832031 98.253906 C 100.230469 98.75 99.84375 99.089844 99.679688 99.269531 C 99.507812 99.453125 99.371094 99.628906 99.269531 99.796875 Z M 103.214844 99.796875 "/>
<path style="fill:none;stroke-width:1;stroke-linecap:round;stroke-linejoin:round;stroke:rgb(0%,0%,0%);stroke-opacity:1;stroke-miterlimit:10;" d="M 156.50625 206.4 L 177.0625 206.4 L 177.0625 222.5 L 156.50625 222.5 Z M 156.50625 206.4 " transform="matrix(1.25,0,0,1.25,-112.5,-231.25)"/>
<path style=" stroke:none;fill-rule:nonzero;fill:rgb(0%,0%,0%);fill-opacity:1;" d="M 88.632812 36.414062 C 88.632812 35.464844 88.730469 34.695312 88.925781 34.109375 C 89.121094 33.523438 89.402344 33.074219 89.785156 32.761719 C 90.175781 32.449219 90.664062 32.292969 91.25 32.292969 C 91.6875 32.292969 92.074219 32.386719 92.402344 32.566406 C 92.722656 32.738281 92.992188 32.984375 93.203125 33.308594 C 93.40625 33.636719 93.574219 34.03125 93.691406 34.5 C 93.816406 34.96875 93.886719 35.609375 93.886719 36.414062 C 93.886719 37.351562 93.789062 38.113281 93.59375 38.699219 C 93.398438 39.273438 93.105469 39.722656 92.714844 40.046875 C 92.332031 40.359375 91.84375 40.515625 91.25 40.515625 C 90.476562 40.515625 89.871094 40.238281 89.433594 39.675781 C 88.894531 39.011719 88.632812 37.925781 88.632812 36.414062 Z M 89.648438 36.414062 C 89.648438 37.730469 89.792969 38.609375 90.097656 39.050781 C 90.410156 39.480469 90.789062 39.695312 91.25 39.695312 C 91.703125 39.695312 92.089844 39.480469 92.402344 39.050781 C 92.714844 38.609375 92.871094 37.730469 92.871094 36.414062 C 92.871094 35.085938 92.714844 34.207031 92.402344 33.777344 C 92.089844 33.335938 91.703125 33.113281 91.25 33.113281 C 90.789062 33.113281 90.429688 33.304688 90.15625 33.679688 C 89.8125 34.175781 89.648438 35.085938 89.648438 36.414062 Z M 89.648438 36.414062 "/>
<path style=" stroke:none;fill-rule:nonzero;fill:rgb(0%,0%,0%);fill-opacity:1;" d="M 95.4375 40.378906 L 95.4375 39.246094 L 96.570312 39.246094 L 96.570312 40.378906 Z M 95.4375 40.378906 "/>
<path style=" stroke:none;fill-rule:nonzero;fill:rgb(0%,0%,0%);fill-opacity:1;" d="M 101.75 40.378906 L 100.753906 40.378906 L 100.753906 34.070312 C 100.519531 34.304688 100.207031 34.539062 99.816406 34.773438 C 99.425781 34.996094 99.078125 35.160156 98.78125 35.261719 L 98.78125 34.304688 C 99.328125 34.058594 99.804688 33.753906 100.226562 33.386719 C 100.640625 33.011719 100.933594 32.644531 101.105469 32.292969 L 101.75 32.292969 Z M 101.75 40.378906 "/>
<path style="fill:none;stroke-width:1;stroke-linecap:round;stroke-linejoin:round;stroke:rgb(0%,0%,0%);stroke-opacity:1;stroke-miterlimit:10;" d="M 156.50625 222.5 L 177.0625 222.5 L 177.0625 238.6 L 156.50625 238.6 Z M 156.50625 222.5 " transform="matrix(1.25,0,0,1.25,-112.5,-231.25)"/>
<path style=" stroke:none;fill-rule:nonzero;fill:rgb(0%,0%,0%);fill-opacity:1;" d="M 88.632812 56.539062 C 88.632812 55.589844 88.730469 54.820312 88.925781 54.234375 C 89.121094 53.648438 89.402344 53.199219 89.785156 52.886719 C 90.175781 52.574219 90.664062 52.417969 91.25 52.417969 C 91.6875 52.417969 92.074219 52.511719 92.402344 52.691406 C 92.722656 52.863281 92.992188 53.109375 93.203125 53.433594 C 93.40625 53.761719 93.574219 54.15625 93.691406 54.625 C 93.816406 55.09375 93.886719 55.734375 93.886719 56.539062 C 93.886719 57.476562 93.789062 58.238281 93.59375 58.824219 C 93.398438 59.398438 93.105469 59.847656 92.714844 60.171875 C 92.332031 60.484375 91.84375 60.640625 91.25 60.640625 C 90.476562 60.640625 89.871094 60.363281 89.433594 59.800781 C 88.894531 59.136719 88.632812 58.050781 88.632812 56.539062 Z M 89.648438 56.539062 C 89.648438 57.855469 89.792969 58.734375 90.097656 59.175781 C 90.410156 59.605469 90.789062 59.820312 91.25 59.820312 C 91.703125 59.820312 92.089844 59.605469 92.402344 59.175781 C 92.714844 58.734375 92.871094 57.855469 92.871094 56.539062 C 92.871094 55.210938 92.714844 54.332031 92.402344 53.902344 C 92.089844 53.460938 91.703125 53.238281 91.25 53.238281 C 90.789062 53.238281 90.429688 53.429688 90.15625 53.804688 C 89.8125 54.300781 89.648438 55.210938 89.648438 56.539062 Z M 89.648438 56.539062 "/>
<path style=" stroke:none;fill-rule:nonzero;fill:rgb(0%,0%,0%);fill-opacity:1;" d="M 95.4375 60.503906 L 95.4375 59.371094 L 96.570312 59.371094 L 96.570312 60.503906 Z M 95.4375 60.503906 "/>
<path style=" stroke:none;fill-rule:nonzero;fill:rgb(0%,0%,0%);fill-opacity:1;" d="M 101.183594 60.503906 L 101.183594 58.570312 L 97.6875 58.570312 L 97.6875 57.671875 L 101.359375 52.457031 L 102.179688 52.457031 L 102.179688 57.671875 L 103.273438 57.671875 L 103.273438 58.570312 L 102.179688 58.570312 L 102.179688 60.503906 Z M 101.183594 57.671875 L 101.183594 54.039062 L 98.664062 57.671875 Z M 101.183594 57.671875 "/>
<path style=" stroke:none;fill-rule:nonzero;fill:rgb(69.803922%,85.098039%,100%);fill-opacity:1;" d="M 83.132812 87.125 L 108.828125 87.125 L 108.828125 67 L 83.132812 67 Z M 83.132812 87.125 "/>
<path style="fill:none;stroke-width:1;stroke-linecap:round;stroke-linejoin:round;stroke:rgb(0%,0%,0%);stroke-opacity:1;stroke-miterlimit:10;" d="M 156.50625 238.6 L 177.0625 238.6 L 177.0625 254.7 L 156.50625 254.7 Z M 156.50625 238.6 " transform="matrix(1.25,0,0,1.25,-112.5,-231.25)"/>
<path style=" stroke:none;fill-rule:nonzero;fill:rgb(0%,0%,0%);fill-opacity:1;" d="M 88.632812 76.664062 C 88.632812 75.714844 88.730469 74.945312 88.925781 74.359375 C 89.121094 73.773438 89.402344 73.324219 89.785156 73.011719 C 90.175781 72.699219 90.664062 72.542969 91.25 72.542969 C 91.6875 72.542969 92.074219 72.636719 92.402344 72.816406 C 92.722656 72.988281 92.992188 73.234375 93.203125 73.558594 C 93.40625 73.886719 93.574219 74.28125 93.691406 74.75 C 93.816406 75.21875 93.886719 75.859375 93.886719 76.664062 C 93.886719 77.601562 93.789062 78.363281 93.59375 78.949219 C 93.398438 79.523438 93.105469 79.972656 92.714844 80.296875 C 92.332031 80.609375 91.84375 80.765625 91.25 80.765625 C 90.476562 80.765625 89.871094 80.488281 89.433594 79.925781 C 88.894531 79.261719 88.632812 78.175781 88.632812 76.664062 Z M 89.648438 76.664062 C 89.648438 77.980469 89.792969 78.859375 90.097656 79.300781 C 90.410156 79.730469 90.789062 79.945312 91.25 79.945312 C 91.703125 79.945312 92.089844 79.730469 92.402344 79.300781 C 92.714844 78.859375 92.871094 77.980469 92.871094 76.664062 C 92.871094 75.335938 92.714844 74.457031 92.402344 74.027344 C 92.089844 73.585938 91.703125 73.363281 91.25 73.363281 C 90.789062 73.363281 90.429688 73.554688 90.15625 73.929688 C 89.8125 74.425781 89.648438 75.335938 89.648438 76.664062 Z M 89.648438 76.664062 "/>
<path style=" stroke:none;fill-rule:nonzero;fill:rgb(0%,0%,0%);fill-opacity:1;" d="M 95.4375 80.628906 L 95.4375 79.496094 L 96.570312 79.496094 L 96.570312 80.628906 Z M 95.4375 80.628906 "/>
<path style=" stroke:none;fill-rule:nonzero;fill:rgb(0%,0%,0%);fill-opacity:1;" d="M 98.019531 78.5 L 99.015625 78.363281 C 99.132812 78.925781 99.316406 79.328125 99.582031 79.574219 C 99.855469 79.824219 100.191406 79.945312 100.597656 79.945312 C 101.050781 79.945312 101.4375 79.789062 101.75 79.476562 C 102.070312 79.152344 102.238281 78.75 102.238281 78.265625 C 102.238281 77.8125 102.085938 77.441406 101.789062 77.152344 C 101.5 76.855469 101.128906 76.703125 100.675781 76.703125 C 100.480469 76.703125 100.246094 76.742188 99.972656 76.820312 L 100.089844 75.941406 C 100.152344 75.957031 100.207031 75.960938 100.246094 75.960938 C 100.660156 75.960938 101.035156 75.851562 101.378906 75.628906 C 101.714844 75.410156 101.886719 75.070312 101.886719 74.613281 C 101.886719 74.25 101.757812 73.949219 101.515625 73.714844 C 101.265625 73.480469 100.949219 73.363281 100.558594 73.363281 C 100.175781 73.363281 99.859375 73.488281 99.601562 73.734375 C 99.351562 73.96875 99.191406 74.328125 99.113281 74.808594 L 98.117188 74.632812 C 98.242188 73.96875 98.515625 73.457031 98.9375 73.089844 C 99.367188 72.726562 99.898438 72.542969 100.539062 72.542969 C 100.976562 72.542969 101.382812 72.640625 101.75 72.835938 C 102.125 73.019531 102.414062 73.273438 102.609375 73.597656 C 102.804688 73.925781 102.902344 74.269531 102.902344 74.632812 C 102.902344 74.984375 102.804688 75.304688 102.609375 75.589844 C 102.421875 75.878906 102.148438 76.105469 101.789062 76.273438 C 102.265625 76.378906 102.636719 76.605469 102.902344 76.957031 C 103.160156 77.296875 103.292969 77.726562 103.292969 78.246094 C 103.292969 78.949219 103.027344 79.550781 102.511719 80.042969 C 102.003906 80.527344 101.359375 80.765625 100.578125 80.765625 C 99.875 80.765625 99.289062 80.558594 98.820312 80.140625 C 98.351562 79.726562 98.082031 79.179688 98.019531 78.5 Z M 98.019531 78.5 "/>
<path style=" stroke:none;fill-rule:nonzero;fill:rgb(0%,0%,0%);fill-opacity:1;" d="M 98.519531 15.792969 L 98.519531 16.75 L 93.1875 16.75 C 93.1875 16.515625 93.226562 16.289062 93.304688 16.066406 C 93.445312 15.703125 93.664062 15.34375 93.96875 14.992188 C 94.265625 14.640625 94.695312 14.242188 95.257812 13.78125 C 96.125 13.054688 96.710938 12.484375 97.015625 12.0625 C 97.328125 11.648438 97.484375 11.25 97.484375 10.871094 C 97.484375 10.480469 97.335938 10.15625 97.054688 9.894531 C 96.78125 9.621094 96.417969 9.484375 95.980469 9.484375 C 95.496094 9.484375 95.109375 9.632812 94.828125 9.914062 C 94.539062 10.203125 94.398438 10.597656 94.398438 11.105469 L 93.382812 10.988281 C 93.445312 10.234375 93.703125 9.660156 94.164062 9.269531 C 94.617188 8.867188 95.226562 8.664062 96 8.664062 C 96.765625 8.664062 97.371094 8.878906 97.816406 9.308594 C 98.269531 9.738281 98.5 10.265625 98.5 10.890625 C 98.5 11.21875 98.429688 11.535156 98.304688 11.847656 C 98.171875 12.160156 97.953125 12.492188 97.640625 12.84375 C 97.335938 13.1875 96.839844 13.65625 96.136719 14.25 C 95.535156 14.75 95.148438 15.085938 94.984375 15.265625 C 94.8125 15.453125 94.675781 15.625 94.574219 15.792969 Z M 98.519531 15.792969 "/>
<path style="fill:none;stroke-width:1;stroke-linecap:round;stroke-linejoin:round;stroke:rgb(0%,0%,0%);stroke-opacity:1;stroke-miterlimit:10;" d="M 183.2 254.7875 L 203.753125 254.7875 L 203.753125 270.890625 L 183.2 270.890625 Z M 183.2 254.7875 " transform="matrix(1.25,0,0,1.25,-112.5,-231.25)"/>
<path style=" stroke:none;fill-rule:nonzero;fill:rgb(0%,0%,0%);fill-opacity:1;" d="M 121.992188 96.902344 C 121.992188 95.953125 122.089844 95.183594 122.285156 94.597656 C 122.480469 94.011719 122.765625 93.5625 123.144531 93.25 C 123.535156 92.9375 124.023438 92.78125 124.609375 92.78125 C 125.050781 92.78125 125.4375 92.875 125.761719 93.054688 C 126.085938 93.226562 126.355469 93.472656 126.5625 93.796875 C 126.769531 94.125 126.933594 94.519531 127.050781 94.988281 C 127.179688 95.457031 127.246094 96.097656 127.246094 96.902344 C 127.246094 97.839844 127.148438 98.601562 126.953125 99.1875 C 126.757812 99.761719 126.464844 100.210938 126.074219 100.535156 C 125.695312 100.847656 125.207031 101.003906 124.609375 101.003906 C 123.839844 101.003906 123.234375 100.726562 122.792969 100.164062 C 122.257812 99.5 121.992188 98.414062 121.992188 96.902344 Z M 123.007812 96.902344 C 123.007812 98.21875 123.15625 99.097656 123.457031 99.539062 C 123.769531 99.96875 124.152344 100.183594 124.609375 100.183594 C 125.066406 100.183594 125.449219 99.96875 125.761719 99.539062 C 126.074219 99.097656 126.230469 98.21875 126.230469 96.902344 C 126.230469 95.574219 126.074219 94.695312 125.761719 94.265625 C 125.449219 93.824219 125.066406 93.601562 124.609375 93.601562 C 124.152344 93.601562 123.789062 93.792969 123.515625 94.167969 C 123.175781 94.664062 123.007812 95.574219 123.007812 96.902344 Z M 123.007812 96.902344 "/>
<path style=" stroke:none;fill-rule:nonzero;fill:rgb(0%,0%,0%);fill-opacity:1;" d="M 128.796875 100.867188 L 128.796875 99.734375 L 129.929688 99.734375 L 129.929688 100.867188 Z M 128.796875 100.867188 "/>
<path style=" stroke:none;fill-rule:nonzero;fill:rgb(0%,0%,0%);fill-opacity:1;" d="M 135.113281 100.867188 L 134.117188 100.867188 L 134.117188 94.558594 C 133.882812 94.792969 133.570312 95.027344 133.179688 95.261719 C 132.789062 95.484375 132.441406 95.648438 132.144531 95.75 L 132.144531 94.792969 C 132.691406 94.546875 133.167969 94.242188 133.589844 93.875 C 134.003906 93.5 134.296875 93.132812 134.46875 92.78125 L 135.113281 92.78125 Z M 135.113281 100.867188 "/>
<path style="fill:none;stroke-width:1;stroke-linecap:round;stroke-linejoin:round;stroke:rgb(0%,0%,0%);stroke-opacity:1;stroke-miterlimit:10;" d="M 183.2 238.690625 L 203.753125 238.690625 L 203.753125 254.7875 L 183.2 254.7875 Z M 183.2 238.690625 " transform="matrix(1.25,0,0,1.25,-112.5,-231.25)"/>
<path style=" stroke:none;fill-rule:nonzero;fill:rgb(0%,0%,0%);fill-opacity:1;" d="M 121.992188 76.777344 C 121.992188 75.828125 122.089844 75.058594 122.285156 74.472656 C 122.480469 73.886719 122.765625 73.4375 123.144531 73.125 C 123.535156 72.8125 124.023438 72.65625 124.609375 72.65625 C 125.050781 72.65625 125.4375 72.75 125.761719 72.929688 C 126.085938 73.101562 126.355469 73.347656 126.5625 73.671875 C 126.769531 74 126.933594 74.394531 127.050781 74.863281 C 127.179688 75.332031 127.246094 75.972656 127.246094 76.777344 C 127.246094 77.714844 127.148438 78.476562 126.953125 79.0625 C 126.757812 79.636719 126.464844 80.085938 126.074219 80.410156 C 125.695312 80.722656 125.207031 80.878906 124.609375 80.878906 C 123.839844 80.878906 123.234375 80.601562 122.792969 80.039062 C 122.257812 79.375 121.992188 78.289062 121.992188 76.777344 Z M 123.007812 76.777344 C 123.007812 78.09375 123.15625 78.972656 123.457031 79.414062 C 123.769531 79.84375 124.152344 80.058594 124.609375 80.058594 C 125.066406 80.058594 125.449219 79.84375 125.761719 79.414062 C 126.074219 78.972656 126.230469 78.09375 126.230469 76.777344 C 126.230469 75.449219 126.074219 74.570312 125.761719 74.140625 C 125.449219 73.699219 125.066406 73.476562 124.609375 73.476562 C 124.152344 73.476562 123.789062 73.667969 123.515625 74.042969 C 123.175781 74.539062 123.007812 75.449219 123.007812 76.777344 Z M 123.007812 76.777344 "/>
<path style=" stroke:none;fill-rule:nonzero;fill:rgb(0%,0%,0%);fill-opacity:1;" d="M 128.796875 80.742188 L 128.796875 79.609375 L 129.929688 79.609375 L 129.929688 80.742188 Z M 128.796875 80.742188 "/>
<path style=" stroke:none;fill-rule:nonzero;fill:rgb(0%,0%,0%);fill-opacity:1;" d="M 136.578125 79.785156 L 136.578125 80.742188 L 131.246094 80.742188 C 131.246094 80.507812 131.285156 80.28125 131.363281 80.058594 C 131.503906 79.695312 131.722656 79.335938 132.027344 78.984375 C 132.324219 78.632812 132.753906 78.230469 133.316406 77.773438 C 134.183594 77.046875 134.769531 76.472656 135.074219 76.054688 C 135.386719 75.640625 135.542969 75.242188 135.542969 74.863281 C 135.542969 74.472656 135.394531 74.148438 135.113281 73.886719 C 134.839844 73.613281 134.476562 73.476562 134.039062 73.476562 C 133.554688 73.476562 133.167969 73.621094 132.886719 73.90625 C 132.597656 74.195312 132.457031 74.589844 132.457031 75.097656 L 131.441406 74.980469 C 131.503906 74.226562 131.761719 73.652344 132.222656 73.261719 C 132.675781 72.859375 133.285156 72.65625 134.058594 72.65625 C 134.824219 72.65625 135.429688 72.871094 135.875 73.300781 C 136.328125 73.730469 136.558594 74.257812 136.558594 74.882812 C 136.558594 75.210938 136.488281 75.527344 136.363281 75.839844 C 136.230469 76.152344 136.011719 76.484375 135.699219 76.835938 C 135.394531 77.175781 134.898438 77.644531 134.195312 78.242188 C 133.59375 78.738281 133.207031 79.078125 133.042969 79.257812 C 132.871094 79.441406 132.734375 79.617188 132.632812 79.785156 Z M 136.578125 79.785156 "/>
<path style=" stroke:none;fill-rule:nonzero;fill:rgb(69.803922%,85.098039%,100%);fill-opacity:1;" d="M 116.5 67.113281 L 142.191406 67.113281 L 142.191406 46.988281 L 116.5 46.988281 Z M 116.5 67.113281 "/>
<path style="fill:none;stroke-width:1;stroke-linecap:round;stroke-linejoin:round;stroke:rgb(0%,0%,0%);stroke-opacity:1;stroke-miterlimit:10;" d="M 183.2 222.590625 L 203.753125 222.590625 L 203.753125 238.690625 L 183.2 238.690625 Z M 183.2 222.590625 " transform="matrix(1.25,0,0,1.25,-112.5,-231.25)"/>
<path style=" stroke:none;fill-rule:nonzero;fill:rgb(0%,0%,0%);fill-opacity:1;" d="M 121.992188 56.652344 C 121.992188 55.703125 122.089844 54.933594 122.285156 54.347656 C 122.480469 53.761719 122.765625 53.3125 123.144531 53 C 123.535156 52.6875 124.023438 52.53125 124.609375 52.53125 C 125.050781 52.53125 125.4375 52.625 125.761719 52.804688 C 126.085938 52.976562 126.355469 53.222656 126.5625 53.546875 C 126.769531 53.875 126.933594 54.269531 127.050781 54.738281 C 127.179688 55.207031 127.246094 55.847656 127.246094 56.652344 C 127.246094 57.589844 127.148438 58.351562 126.953125 58.9375 C 126.757812 59.511719 126.464844 59.960938 126.074219 60.285156 C 125.695312 60.597656 125.207031 60.753906 124.609375 60.753906 C 123.839844 60.753906 123.234375 60.476562 122.792969 59.914062 C 122.257812 59.25 121.992188 58.164062 121.992188 56.652344 Z M 123.007812 56.652344 C 123.007812 57.96875 123.15625 58.847656 123.457031 59.289062 C 123.769531 59.71875 124.152344 59.933594 124.609375 59.933594 C 125.066406 59.933594 125.449219 59.71875 125.761719 59.289062 C 126.074219 58.847656 126.230469 57.96875 126.230469 56.652344 C 126.230469 55.324219 126.074219 54.445312 125.761719 54.015625 C 125.449219 53.574219 125.066406 53.351562 124.609375 53.351562 C 124.152344 53.351562 123.789062 53.542969 123.515625 53.917969 C 123.175781 54.414062 123.007812 55.324219 123.007812 56.652344 Z M 123.007812 56.652344 "/>
<path style=" stroke:none;fill-rule:nonzero;fill:rgb(0%,0%,0%);fill-opacity:1;" d="M 128.796875 60.617188 L 128.796875 59.484375 L 129.929688 59.484375 L 129.929688 60.617188 Z M 128.796875 60.617188 "/>
<path style=" stroke:none;fill-rule:nonzero;fill:rgb(0%,0%,0%);fill-opacity:1;" d="M 136.519531 54.542969 L 135.523438 54.621094 C 135.445312 54.230469 135.316406 53.945312 135.152344 53.761719 C 134.886719 53.488281 134.566406 53.351562 134.175781 53.351562 C 133.847656 53.351562 133.570312 53.4375 133.335938 53.605469 C 133.023438 53.839844 132.773438 54.171875 132.59375 54.601562 C 132.421875 55.03125 132.328125 55.652344 132.320312 56.457031 C 132.554688 56.105469 132.835938 55.847656 133.179688 55.675781 C 133.53125 55.496094 133.890625 55.402344 134.273438 55.402344 C 134.9375 55.402344 135.492188 55.644531 135.953125 56.125 C 136.421875 56.609375 136.65625 57.234375 136.65625 58 C 136.65625 58.507812 136.542969 58.984375 136.324219 59.425781 C 136.097656 59.855469 135.800781 60.1875 135.425781 60.421875 C 135.042969 60.640625 134.613281 60.753906 134.136719 60.753906 C 133.316406 60.753906 132.640625 60.457031 132.125 59.855469 C 131.601562 59.246094 131.34375 58.242188 131.34375 56.847656 C 131.34375 55.300781 131.625 54.167969 132.203125 53.449219 C 132.695312 52.839844 133.375 52.53125 134.234375 52.53125 C 134.859375 52.53125 135.371094 52.714844 135.777344 53.078125 C 136.175781 53.429688 136.425781 53.917969 136.519531 54.542969 Z M 132.476562 58 C 132.476562 58.351562 132.542969 58.683594 132.691406 58.996094 C 132.832031 59.296875 133.03125 59.53125 133.296875 59.699219 C 133.554688 59.855469 133.828125 59.933594 134.117188 59.933594 C 134.53125 59.933594 134.886719 59.773438 135.191406 59.445312 C 135.488281 59.109375 135.640625 58.644531 135.640625 58.058594 C 135.640625 57.5 135.488281 57.0625 135.191406 56.75 C 134.902344 56.425781 134.53125 56.261719 134.078125 56.261719 C 133.632812 56.261719 133.257812 56.425781 132.945312 56.75 C 132.632812 57.0625 132.476562 57.480469 132.476562 58 Z M 132.476562 58 "/>
<path style="fill:none;stroke-width:1;stroke-linecap:round;stroke-linejoin:round;stroke:rgb(0%,0%,0%);stroke-opacity:1;stroke-miterlimit:10;" d="M 183.2 206.49375 L 203.753125 206.49375 L 203.753125 222.590625 L 183.2 222.590625 Z M 183.2 206.49375 " transform="matrix(1.25,0,0,1.25,-112.5,-231.25)"/>
<path style=" stroke:none;fill-rule:nonzero;fill:rgb(0%,0%,0%);fill-opacity:1;" d="M 121.992188 36.527344 C 121.992188 35.578125 122.089844 34.808594 122.285156 34.222656 C 122.480469 33.636719 122.765625 33.1875 123.144531 32.875 C 123.535156 32.5625 124.023438 32.40625 124.609375 32.40625 C 125.050781 32.40625 125.4375 32.5 125.761719 32.679688 C 126.085938 32.851562 126.355469 33.097656 126.5625 33.421875 C 126.769531 33.75 126.933594 34.144531 127.050781 34.613281 C 127.179688 35.082031 127.246094 35.722656 127.246094 36.527344 C 127.246094 37.464844 127.148438 38.226562 126.953125 38.8125 C 126.757812 39.386719 126.464844 39.835938 126.074219 40.160156 C 125.695312 40.472656 125.207031 40.628906 124.609375 40.628906 C 123.839844 40.628906 123.234375 40.351562 122.792969 39.789062 C 122.257812 39.125 121.992188 38.039062 121.992188 36.527344 Z M 123.007812 36.527344 C 123.007812 37.84375 123.15625 38.722656 123.457031 39.164062 C 123.769531 39.59375 124.152344 39.808594 124.609375 39.808594 C 125.066406 39.808594 125.449219 39.59375 125.761719 39.164062 C 126.074219 38.722656 126.230469 37.84375 126.230469 36.527344 C 126.230469 35.199219 126.074219 34.320312 125.761719 33.890625 C 125.449219 33.449219 125.066406 33.226562 124.609375 33.226562 C 124.152344 33.226562 123.789062 33.417969 123.515625 33.792969 C 123.175781 34.289062 123.007812 35.199219 123.007812 36.527344 Z M 123.007812 36.527344 "/>
<path style=" stroke:none;fill-rule:nonzero;fill:rgb(0%,0%,0%);fill-opacity:1;" d="M 128.796875 40.492188 L 128.796875 39.359375 L 129.929688 39.359375 L 129.929688 40.492188 Z M 128.796875 40.492188 "/>
<path style=" stroke:none;fill-rule:nonzero;fill:rgb(0%,0%,0%);fill-opacity:1;" d="M 135.113281 40.492188 L 134.117188 40.492188 L 134.117188 34.183594 C 133.882812 34.417969 133.570312 34.652344 133.179688 34.886719 C 132.789062 35.109375 132.441406 35.273438 132.144531 35.375 L 132.144531 34.417969 C 132.691406 34.171875 133.167969 33.867188 133.589844 33.5 C 134.003906 33.125 134.296875 32.757812 134.46875 32.40625 L 135.113281 32.40625 Z M 135.113281 40.492188 "/>
<path style=" stroke:none;fill-rule:nonzero;fill:rgb(0%,0%,0%);fill-opacity:1;" d="M 126.570312 14.734375 L 127.566406 14.597656 C 127.683594 15.160156 127.871094 15.566406 128.132812 15.808594 C 128.40625 16.058594 128.746094 16.179688 129.148438 16.179688 C 129.605469 16.179688 129.988281 16.023438 130.300781 15.710938 C 130.625 15.390625 130.789062 14.984375 130.789062 14.5 C 130.789062 14.046875 130.640625 13.675781 130.339844 13.386719 C 130.054688 13.089844 129.683594 12.9375 129.226562 12.9375 C 129.03125 12.9375 128.796875 12.976562 128.523438 13.054688 L 128.640625 12.175781 C 128.707031 12.191406 128.757812 12.195312 128.796875 12.195312 C 129.214844 12.195312 129.589844 12.089844 129.929688 11.863281 C 130.269531 11.644531 130.4375 11.308594 130.4375 10.847656 C 130.4375 10.488281 130.3125 10.183594 130.066406 9.949219 C 129.820312 9.714844 129.5 9.597656 129.109375 9.597656 C 128.730469 9.597656 128.414062 9.726562 128.152344 9.96875 C 127.90625 10.203125 127.742188 10.566406 127.664062 11.042969 L 126.667969 10.867188 C 126.796875 10.203125 127.070312 9.691406 127.488281 9.324219 C 127.917969 8.964844 128.453125 8.777344 129.089844 8.777344 C 129.53125 8.777344 129.9375 8.875 130.300781 9.070312 C 130.679688 9.257812 130.964844 9.511719 131.160156 9.832031 C 131.355469 10.160156 131.453125 10.507812 131.453125 10.867188 C 131.453125 11.21875 131.355469 11.542969 131.160156 11.824219 C 130.976562 12.113281 130.703125 12.34375 130.339844 12.507812 C 130.820312 12.617188 131.191406 12.839844 131.453125 13.191406 C 131.714844 13.535156 131.84375 13.964844 131.84375 14.480469 C 131.84375 15.183594 131.582031 15.785156 131.0625 16.277344 C 130.554688 16.761719 129.910156 17 129.128906 17 C 128.425781 17 127.839844 16.796875 127.371094 16.375 C 126.902344 15.960938 126.636719 15.414062 126.570312 14.734375 Z M 126.570312 14.734375 "/>
<path style=" stroke:none;fill-rule:nonzero;fill:rgb(69.803922%,85.098039%,100%);fill-opacity:1;" d="M 149.859375 107.476562 L 175.550781 107.476562 L 175.550781 87.351562 L 149.859375 87.351562 Z M 149.859375 107.476562 "/>
<path style="fill:none;stroke-width:1;stroke-linecap:round;stroke-linejoin:round;stroke:rgb(0%,0%,0%);stroke-opacity:1;stroke-miterlimit:10;" d="M 209.8875 254.88125 L 230.440625 254.88125 L 230.440625 270.98125 L 209.8875 270.98125 Z M 209.8875 254.88125 " transform="matrix(1.25,0,0,1.25,-112.5,-231.25)"/>
<path style=" stroke:none;fill-rule:nonzero;fill:rgb(0%,0%,0%);fill-opacity:1;" d="M 155.355469 97.015625 C 155.355469 96.070312 155.453125 95.296875 155.648438 94.710938 C 155.84375 94.125 156.128906 93.675781 156.507812 93.363281 C 156.898438 93.050781 157.386719 92.894531 157.972656 92.894531 C 158.414062 92.894531 158.796875 92.988281 159.125 93.167969 C 159.449219 93.339844 159.714844 93.589844 159.925781 93.910156 C 160.132812 94.238281 160.296875 94.632812 160.414062 95.101562 C 160.542969 95.570312 160.609375 96.210938 160.609375 97.015625 C 160.609375 97.953125 160.511719 98.714844 160.316406 99.300781 C 160.121094 99.878906 159.828125 100.328125 159.4375 100.648438 C 159.058594 100.960938 158.570312 101.117188 157.972656 101.117188 C 157.203125 101.117188 156.597656 100.839844 156.15625 100.277344 C 155.621094 99.613281 155.355469 98.53125 155.355469 97.015625 Z M 156.371094 97.015625 C 156.371094 98.335938 156.519531 99.214844 156.820312 99.652344 C 157.132812 100.082031 157.515625 100.296875 157.972656 100.296875 C 158.425781 100.296875 158.8125 100.082031 159.125 99.652344 C 159.4375 99.214844 159.59375 98.335938 159.59375 97.015625 C 159.59375 95.6875 159.4375 94.808594 159.125 94.378906 C 158.8125 93.941406 158.425781 93.714844 157.972656 93.714844 C 157.515625 93.714844 157.152344 93.90625 156.878906 94.28125 C 156.539062 94.78125 156.371094 95.6875 156.371094 97.015625 Z M 156.371094 97.015625 "/>
<path style=" stroke:none;fill-rule:nonzero;fill:rgb(0%,0%,0%);fill-opacity:1;" d="M 162.160156 100.980469 L 162.160156 99.847656 L 163.292969 99.847656 L 163.292969 100.980469 Z M 162.160156 100.980469 "/>
<path style=" stroke:none;fill-rule:nonzero;fill:rgb(0%,0%,0%);fill-opacity:1;" d="M 169.878906 94.90625 L 168.882812 94.984375 C 168.804688 94.59375 168.679688 94.3125 168.511719 94.125 C 168.25 93.851562 167.925781 93.714844 167.535156 93.714844 C 167.207031 93.714844 166.929688 93.804688 166.695312 93.96875 C 166.382812 94.203125 166.132812 94.535156 165.953125 94.964844 C 165.78125 95.394531 165.691406 96.015625 165.679688 96.820312 C 165.914062 96.46875 166.199219 96.210938 166.539062 96.039062 C 166.890625 95.859375 167.253906 95.765625 167.632812 95.765625 C 168.296875 95.765625 168.855469 96.011719 169.3125 96.488281 C 169.78125 96.972656 170.015625 97.597656 170.015625 98.363281 C 170.015625 98.871094 169.902344 99.351562 169.683594 99.789062 C 169.460938 100.21875 169.160156 100.550781 168.785156 100.785156 C 168.40625 101.003906 167.976562 101.117188 167.496094 101.117188 C 166.675781 101.117188 166.003906 100.820312 165.484375 100.21875 C 164.960938 99.609375 164.703125 98.609375 164.703125 97.210938 C 164.703125 95.664062 164.988281 94.53125 165.5625 93.8125 C 166.054688 93.203125 166.734375 92.894531 167.59375 92.894531 C 168.21875 92.894531 168.730469 93.082031 169.136719 93.441406 C 169.539062 93.792969 169.785156 94.28125 169.878906 94.90625 Z M 165.835938 98.363281 C 165.835938 98.714844 165.90625 99.046875 166.050781 99.359375 C 166.191406 99.664062 166.394531 99.898438 166.65625 100.0625 C 166.914062 100.21875 167.1875 100.296875 167.476562 100.296875 C 167.890625 100.296875 168.25 100.136719 168.550781 99.808594 C 168.847656 99.472656 169 99.007812 169 98.421875 C 169 97.867188 168.847656 97.425781 168.550781 97.113281 C 168.261719 96.792969 167.890625 96.625 167.4375 96.625 C 166.992188 96.625 166.617188 96.792969 166.304688 97.113281 C 165.992188 97.425781 165.835938 97.847656 165.835938 98.363281 Z M 165.835938 98.363281 "/>
<path style="fill:none;stroke-width:1;stroke-linecap:round;stroke-linejoin:round;stroke:rgb(0%,0%,0%);stroke-opacity:1;stroke-miterlimit:10;" d="M 209.8875 238.78125 L 230.440625 238.78125 L 230.440625 254.88125 L 209.8875 254.88125 Z M 209.8875 238.78125 " transform="matrix(1.25,0,0,1.25,-112.5,-231.25)"/>
<path style=" stroke:none;fill-rule:nonzero;fill:rgb(0%,0%,0%);fill-opacity:1;" d="M 155.355469 76.890625 C 155.355469 75.945312 155.453125 75.171875 155.648438 74.585938 C 155.84375 74 156.128906 73.550781 156.507812 73.238281 C 156.898438 72.925781 157.386719 72.769531 157.972656 72.769531 C 158.414062 72.769531 158.796875 72.863281 159.125 73.042969 C 159.449219 73.214844 159.714844 73.464844 159.925781 73.785156 C 160.132812 74.113281 160.296875 74.507812 160.414062 74.976562 C 160.542969 75.445312 160.609375 76.085938 160.609375 76.890625 C 160.609375 77.828125 160.511719 78.589844 160.316406 79.175781 C 160.121094 79.753906 159.828125 80.203125 159.4375 80.523438 C 159.058594 80.835938 158.570312 80.992188 157.972656 80.992188 C 157.203125 80.992188 156.597656 80.714844 156.15625 80.152344 C 155.621094 79.488281 155.355469 78.40625 155.355469 76.890625 Z M 156.371094 76.890625 C 156.371094 78.210938 156.519531 79.089844 156.820312 79.527344 C 157.132812 79.957031 157.515625 80.171875 157.972656 80.171875 C 158.425781 80.171875 158.8125 79.957031 159.125 79.527344 C 159.4375 79.089844 159.59375 78.210938 159.59375 76.890625 C 159.59375 75.5625 159.4375 74.683594 159.125 74.253906 C 158.8125 73.816406 158.425781 73.589844 157.972656 73.589844 C 157.515625 73.589844 157.152344 73.78125 156.878906 74.15625 C 156.539062 74.65625 156.371094 75.5625 156.371094 76.890625 Z M 156.371094 76.890625 "/>
<path style=" stroke:none;fill-rule:nonzero;fill:rgb(0%,0%,0%);fill-opacity:1;" d="M 162.160156 80.855469 L 162.160156 79.722656 L 163.292969 79.722656 L 163.292969 80.855469 Z M 162.160156 80.855469 "/>
<path style=" stroke:none;fill-rule:nonzero;fill:rgb(0%,0%,0%);fill-opacity:1;" d="M 168.472656 80.855469 L 167.476562 80.855469 L 167.476562 74.546875 C 167.242188 74.78125 166.929688 75.015625 166.539062 75.25 C 166.148438 75.476562 165.800781 75.636719 165.503906 75.738281 L 165.503906 74.78125 C 166.050781 74.539062 166.53125 74.230469 166.949219 73.863281 C 167.363281 73.488281 167.65625 73.121094 167.828125 72.769531 L 168.472656 72.769531 Z M 168.472656 80.855469 "/>
<path style="fill:none;stroke-width:1;stroke-linecap:round;stroke-linejoin:round;stroke:rgb(0%,0%,0%);stroke-opacity:1;stroke-miterlimit:10;" d="M 209.8875 222.684375 L 230.440625 222.684375 L 230.440625 238.78125 L 209.8875 238.78125 Z M 209.8875 222.684375 " transform="matrix(1.25,0,0,1.25,-112.5,-231.25)"/>
<path style=" stroke:none;fill-rule:nonzero;fill:rgb(0%,0%,0%);fill-opacity:1;" d="M 155.355469 56.765625 C 155.355469 55.820312 155.453125 55.046875 155.648438 54.460938 C 155.84375 53.875 156.128906 53.425781 156.507812 53.113281 C 156.898438 52.800781 157.386719 52.644531 157.972656 52.644531 C 158.414062 52.644531 158.796875 52.738281 159.125 52.917969 C 159.449219 53.089844 159.714844 53.339844 159.925781 53.660156 C 160.132812 53.988281 160.296875 54.382812 160.414062 54.851562 C 160.542969 55.320312 160.609375 55.960938 160.609375 56.765625 C 160.609375 57.703125 160.511719 58.464844 160.316406 59.050781 C 160.121094 59.628906 159.828125 60.078125 159.4375 60.398438 C 159.058594 60.710938 158.570312 60.867188 157.972656 60.867188 C 157.203125 60.867188 156.597656 60.589844 156.15625 60.027344 C 155.621094 59.363281 155.355469 58.28125 155.355469 56.765625 Z M 156.371094 56.765625 C 156.371094 58.085938 156.519531 58.964844 156.820312 59.402344 C 157.132812 59.832031 157.515625 60.046875 157.972656 60.046875 C 158.425781 60.046875 158.8125 59.832031 159.125 59.402344 C 159.4375 58.964844 159.59375 58.085938 159.59375 56.765625 C 159.59375 55.4375 159.4375 54.558594 159.125 54.128906 C 158.8125 53.691406 158.425781 53.464844 157.972656 53.464844 C 157.515625 53.464844 157.152344 53.65625 156.878906 54.03125 C 156.539062 54.53125 156.371094 55.4375 156.371094 56.765625 Z M 156.371094 56.765625 "/>
<path style=" stroke:none;fill-rule:nonzero;fill:rgb(0%,0%,0%);fill-opacity:1;" d="M 162.160156 60.730469 L 162.160156 59.597656 L 163.292969 59.597656 L 163.292969 60.730469 Z M 162.160156 60.730469 "/>
<path style=" stroke:none;fill-rule:nonzero;fill:rgb(0%,0%,0%);fill-opacity:1;" d="M 169.9375 59.773438 L 169.9375 60.730469 L 164.605469 60.730469 C 164.605469 60.496094 164.644531 60.273438 164.722656 60.046875 C 164.863281 59.6875 165.085938 59.324219 165.386719 58.972656 C 165.683594 58.621094 166.113281 58.222656 166.675781 57.761719 C 167.546875 57.035156 168.132812 56.464844 168.433594 56.042969 C 168.746094 55.628906 168.902344 55.234375 168.902344 54.851562 C 168.902344 54.460938 168.757812 54.140625 168.472656 53.875 C 168.199219 53.601562 167.839844 53.464844 167.398438 53.464844 C 166.914062 53.464844 166.53125 53.613281 166.246094 53.894531 C 165.957031 54.183594 165.816406 54.578125 165.816406 55.085938 L 164.800781 54.96875 C 164.863281 54.21875 165.125 53.640625 165.582031 53.25 C 166.035156 52.851562 166.648438 52.644531 167.417969 52.644531 C 168.183594 52.644531 168.789062 52.859375 169.234375 53.289062 C 169.6875 53.71875 169.917969 54.246094 169.917969 54.871094 C 169.917969 55.199219 169.851562 55.515625 169.722656 55.828125 C 169.589844 56.140625 169.371094 56.472656 169.058594 56.824219 C 168.757812 57.167969 168.257812 57.636719 167.554688 58.230469 C 166.953125 58.730469 166.570312 59.066406 166.402344 59.246094 C 166.230469 59.433594 166.09375 59.609375 165.992188 59.773438 Z M 169.9375 59.773438 "/>
<path style="fill:none;stroke-width:1;stroke-linecap:round;stroke-linejoin:round;stroke:rgb(0%,0%,0%);stroke-opacity:1;stroke-miterlimit:10;" d="M 209.8875 206.58125 L 230.440625 206.58125 L 230.440625 222.684375 L 209.8875 222.684375 Z M 209.8875 206.58125 " transform="matrix(1.25,0,0,1.25,-112.5,-231.25)"/>
<path style=" stroke:none;fill-rule:nonzero;fill:rgb(0%,0%,0%);fill-opacity:1;" d="M 155.355469 36.640625 C 155.355469 35.695312 155.453125 34.921875 155.648438 34.335938 C 155.84375 33.75 156.128906 33.300781 156.507812 32.988281 C 156.898438 32.675781 157.386719 32.519531 157.972656 32.519531 C 158.414062 32.519531 158.796875 32.613281 159.125 32.792969 C 159.449219 32.964844 159.714844 33.214844 159.925781 33.535156 C 160.132812 33.863281 160.296875 34.257812 160.414062 34.726562 C 160.542969 35.195312 160.609375 35.835938 160.609375 36.640625 C 160.609375 37.578125 160.511719 38.339844 160.316406 38.925781 C 160.121094 39.503906 159.828125 39.953125 159.4375 40.273438 C 159.058594 40.585938 158.570312 40.742188 157.972656 40.742188 C 157.203125 40.742188 156.597656 40.464844 156.15625 39.902344 C 155.621094 39.238281 155.355469 38.15625 155.355469 36.640625 Z M 156.371094 36.640625 C 156.371094 37.960938 156.519531 38.839844 156.820312 39.277344 C 157.132812 39.707031 157.515625 39.921875 157.972656 39.921875 C 158.425781 39.921875 158.8125 39.707031 159.125 39.277344 C 159.4375 38.839844 159.59375 37.960938 159.59375 36.640625 C 159.59375 35.3125 159.4375 34.433594 159.125 34.003906 C 158.8125 33.566406 158.425781 33.339844 157.972656 33.339844 C 157.515625 33.339844 157.152344 33.53125 156.878906 33.90625 C 156.539062 34.40625 156.371094 35.3125 156.371094 36.640625 Z M 156.371094 36.640625 "/>
<path style=" stroke:none;fill-rule:nonzero;fill:rgb(0%,0%,0%);fill-opacity:1;" d="M 162.160156 40.605469 L 162.160156 39.472656 L 163.292969 39.472656 L 163.292969 40.605469 Z M 162.160156 40.605469 "/>
<path style=" stroke:none;fill-rule:nonzero;fill:rgb(0%,0%,0%);fill-opacity:1;" d="M 168.472656 40.605469 L 167.476562 40.605469 L 167.476562 34.296875 C 167.242188 34.53125 166.929688 34.765625 166.539062 35 C 166.148438 35.226562 165.800781 35.386719 165.503906 35.488281 L 165.503906 34.53125 C 166.050781 34.289062 166.53125 33.980469 166.949219 33.613281 C 167.363281 33.238281 167.65625 32.871094 167.828125 32.519531 L 168.472656 32.519531 Z M 168.472656 40.605469 "/>
<path style=" stroke:none;fill-rule:nonzero;fill:rgb(0%,0%,0%);fill-opacity:1;" d="M 163.210938 16.976562 L 163.210938 15.042969 L 159.714844 15.042969 L 159.714844 14.144531 L 163.386719 8.929688 L 164.207031 8.929688 L 164.207031 14.144531 L 165.300781 14.144531 L 165.300781 15.042969 L 164.207031 15.042969 L 164.207031 16.976562 Z M 163.210938 14.144531 L 163.210938 10.511719 L 160.691406 14.144531 Z M 163.210938 14.144531 "/>
<path style=" stroke:none;fill-rule:nonzero;fill:rgb(0%,0%,0%);fill-opacity:1;" d="M 13.308594 95.761719 L 7.625 98.300781 L 7.625 99.003906 L 13.308594 101.542969 L 13.308594 100.703125 L 8.679688 98.652344 L 13.308594 96.601562 Z M 13.308594 95.761719 "/>
<path style=" stroke:none;fill-rule:nonzero;fill:rgb(0%,0%,0%);fill-opacity:1;" d="M 16.953125 95.585938 C 16.113281 95.585938 15.449219 95.898438 14.960938 96.503906 C 14.472656 97.070312 14.21875 97.792969 14.21875 98.652344 C 14.21875 99.589844 14.472656 100.332031 15 100.898438 C 15.488281 101.445312 16.171875 101.71875 16.992188 101.71875 C 17.753906 101.71875 18.359375 101.503906 18.847656 101.074219 C 19.238281 100.703125 19.511719 100.253906 19.628906 99.6875 L 18.730469 99.6875 C 18.59375 100.097656 18.398438 100.410156 18.144531 100.605469 C 17.851562 100.839844 17.460938 100.957031 16.992188 100.957031 C 16.445312 100.957031 15.996094 100.78125 15.683594 100.429688 C 15.371094 100.058594 15.214844 99.550781 15.15625 98.90625 L 19.746094 98.90625 C 19.726562 97.890625 19.511719 97.089844 19.082031 96.542969 C 18.59375 95.898438 17.890625 95.585938 16.953125 95.585938 Z M 16.992188 96.347656 C 18.085938 96.347656 18.710938 96.953125 18.808594 98.203125 L 15.175781 98.203125 C 15.234375 97.636719 15.410156 97.1875 15.742188 96.855469 C 16.054688 96.503906 16.464844 96.347656 16.992188 96.347656 Z M 16.992188 96.347656 "/>
<path style=" stroke:none;fill-rule:nonzero;fill:rgb(0%,0%,0%);fill-opacity:1;" d="M 23.410156 95.585938 C 22.53125 95.585938 21.847656 95.878906 21.320312 96.484375 C 20.832031 97.070312 20.578125 97.773438 20.578125 98.652344 C 20.578125 99.53125 20.832031 100.253906 21.320312 100.800781 C 21.847656 101.425781 22.53125 101.71875 23.410156 101.71875 C 24.269531 101.71875 24.972656 101.425781 25.5 100.800781 C 25.988281 100.253906 26.222656 99.53125 26.222656 98.652344 C 26.222656 97.773438 25.988281 97.070312 25.480469 96.484375 C 24.972656 95.878906 24.269531 95.585938 23.410156 95.585938 Z M 23.410156 96.347656 C 24.015625 96.347656 24.503906 96.582031 24.855469 97.050781 C 25.167969 97.480469 25.324219 98.007812 25.324219 98.652344 C 25.324219 99.296875 25.167969 99.824219 24.855469 100.253906 C 24.503906 100.722656 24.015625 100.957031 23.410156 100.957031 C 22.785156 100.957031 22.296875 100.722656 21.964844 100.253906 C 21.652344 99.824219 21.496094 99.296875 21.496094 98.652344 C 21.496094 98.007812 21.652344 97.480469 21.964844 97.050781 C 22.296875 96.582031 22.785156 96.347656 23.410156 96.347656 Z M 23.410156 96.347656 "/>
<path style=" stroke:none;fill-rule:nonzero;fill:rgb(0%,0%,0%);fill-opacity:1;" d="M 29.457031 95.585938 C 28.8125 95.585938 28.265625 95.742188 27.855469 96.035156 C 27.425781 96.328125 27.210938 96.699219 27.210938 97.207031 C 27.210938 97.695312 27.425781 98.066406 27.875 98.339844 C 28.148438 98.515625 28.617188 98.691406 29.320312 98.847656 C 29.945312 99.003906 30.355469 99.140625 30.550781 99.21875 C 30.902344 99.394531 31.097656 99.648438 31.097656 99.980469 C 31.097656 100.625 30.570312 100.957031 29.535156 100.957031 C 29.046875 100.957031 28.675781 100.878906 28.421875 100.703125 C 28.167969 100.488281 28.011719 100.175781 27.933594 99.707031 L 27.054688 99.707031 C 27.191406 101.054688 28.03125 101.71875 29.554688 101.71875 C 31.195312 101.71875 32.015625 101.113281 32.015625 99.921875 C 32.015625 99.414062 31.78125 99.023438 31.332031 98.730469 C 31.019531 98.535156 30.53125 98.359375 29.828125 98.183594 C 29.242188 98.027344 28.832031 97.910156 28.617188 97.8125 C 28.285156 97.636719 28.128906 97.421875 28.128906 97.167969 C 28.128906 96.914062 28.246094 96.71875 28.5 96.5625 C 28.734375 96.40625 29.046875 96.347656 29.457031 96.347656 C 29.90625 96.347656 30.277344 96.425781 30.511719 96.621094 C 30.746094 96.777344 30.882812 97.03125 30.960938 97.402344 L 31.839844 97.402344 C 31.683594 96.191406 30.902344 95.585938 29.457031 95.585938 Z M 29.457031 95.585938 "/>
<path style=" stroke:none;fill-rule:nonzero;fill:rgb(0%,0%,0%);fill-opacity:1;" d="M 32.949219 95.761719 L 32.949219 96.601562 L 37.578125 98.652344 L 32.949219 100.703125 L 32.949219 101.542969 L 38.632812 99.003906 L 38.632812 98.300781 Z M 32.949219 95.761719 "/>
<path style=" stroke:none;fill-rule:nonzero;fill:rgb(0%,0%,0%);fill-opacity:1;" d="M 25.683594 77.796875 L 26.738281 78.070312 C 26.515625 78.945312 26.113281 79.613281 25.527344 80.082031 C 24.953125 80.539062 24.242188 80.765625 23.398438 80.765625 C 22.539062 80.765625 21.835938 80.589844 21.289062 80.238281 C 20.742188 79.886719 20.324219 79.378906 20.039062 78.714844 C 19.765625 78.039062 19.628906 77.316406 19.628906 76.546875 C 19.628906 75.703125 19.785156 74.964844 20.097656 74.339844 C 20.421875 73.714844 20.878906 73.246094 21.464844 72.933594 C 22.0625 72.609375 22.714844 72.445312 23.417969 72.445312 C 24.222656 72.445312 24.902344 72.65625 25.449219 73.070312 C 26.007812 73.476562 26.390625 74.046875 26.601562 74.789062 L 25.546875 75.023438 C 25.363281 74.4375 25.097656 74.015625 24.746094 73.753906 C 24.394531 73.480469 23.945312 73.34375 23.398438 73.34375 C 22.785156 73.34375 22.269531 73.496094 21.855469 73.792969 C 21.4375 74.09375 21.144531 74.496094 20.976562 75.003906 C 20.804688 75.5 20.722656 76.007812 20.722656 76.527344 C 20.722656 77.21875 20.820312 77.824219 21.015625 78.34375 C 21.222656 78.851562 21.535156 79.230469 21.953125 79.476562 C 22.367188 79.726562 22.824219 79.847656 23.320312 79.847656 C 23.917969 79.847656 24.417969 79.679688 24.824219 79.339844 C 25.238281 78.988281 25.527344 78.476562 25.683594 77.796875 Z M 25.683594 77.796875 "/>
<path style=" stroke:none;fill-rule:nonzero;fill:rgb(0%,0%,0%);fill-opacity:1;" d="M 20.195312 60.503906 L 20.195312 52.457031 L 23.222656 52.457031 C 23.832031 52.457031 24.320312 52.542969 24.6875 52.710938 C 25.0625 52.867188 25.355469 53.117188 25.566406 53.453125 C 25.785156 53.792969 25.898438 54.144531 25.898438 54.507812 C 25.898438 54.859375 25.800781 55.1875 25.605469 55.484375 C 25.417969 55.785156 25.140625 56.03125 24.765625 56.226562 C 25.242188 56.371094 25.613281 56.613281 25.878906 56.949219 C 26.152344 57.289062 26.289062 57.691406 26.289062 58.160156 C 26.289062 58.539062 26.199219 58.890625 26.035156 59.214844 C 25.878906 59.542969 25.683594 59.796875 25.449219 59.976562 C 25.214844 60.148438 24.921875 60.277344 24.570312 60.367188 C 24.21875 60.460938 23.777344 60.503906 23.261719 60.503906 Z M 21.269531 55.835938 L 23.007812 55.835938 C 23.476562 55.835938 23.8125 55.804688 24.023438 55.738281 C 24.296875 55.660156 24.496094 55.53125 24.628906 55.347656 C 24.769531 55.152344 24.84375 54.917969 24.84375 54.644531 C 24.84375 54.371094 24.773438 54.136719 24.648438 53.941406 C 24.515625 53.734375 24.335938 53.589844 24.101562 53.511719 C 23.867188 53.433594 23.457031 53.394531 22.871094 53.394531 L 21.269531 53.394531 Z M 21.269531 59.546875 L 23.261719 59.546875 C 23.613281 59.546875 23.855469 59.535156 24.003906 59.507812 C 24.238281 59.46875 24.4375 59.398438 24.609375 59.292969 C 24.773438 59.191406 24.910156 59.039062 25.019531 58.84375 C 25.121094 58.648438 25.175781 58.421875 25.175781 58.160156 C 25.175781 57.863281 25.097656 57.601562 24.941406 57.378906 C 24.785156 57.160156 24.570312 57.007812 24.296875 56.929688 C 24.023438 56.839844 23.632812 56.792969 23.125 56.792969 L 21.269531 56.792969 Z M 21.269531 59.546875 "/>
<path style=" stroke:none;fill-rule:nonzero;fill:rgb(0%,0%,0%);fill-opacity:1;" d="M 19.355469 40.378906 L 22.460938 32.332031 L 23.59375 32.332031 L 26.894531 40.378906 L 25.683594 40.378906 L 24.746094 37.9375 L 21.367188 37.9375 L 20.488281 40.378906 Z M 21.679688 37.078125 L 24.414062 37.078125 L 23.574219 34.832031 C 23.308594 34.15625 23.125 33.601562 23.007812 33.171875 C 22.898438 33.695312 22.753906 34.207031 22.558594 34.714844 Z M 21.679688 37.078125 "/>
</g>
</svg>
