<?xml version="1.0" encoding="UTF-8"?>
<svg xmlns="http://www.w3.org/2000/svg" xmlns:xlink="http://www.w3.org/1999/xlink" width="305pt" height="173pt" viewBox="0 0 305 173" version="1.1">
<defs>
<clipPath id="clip1">
  <path d="M 16.25 81.40625 L 22 81.40625 L 22 87.34375 L 16.25 87.34375 Z M 16.25 81.40625 "/>
</clipPath>
<clipPath id="clip2">
  <path d="M 283.125 81.40625 L 289 81.40625 L 289 87.34375 L 283.125 87.34375 Z M 283.125 81.40625 "/>
</clipPath>
</defs>
<g id="surface1">
<path style="fill:none;stroke-width:1;stroke-linecap:round;stroke-linejoin:round;stroke:rgb(0%,0%,0%);stroke-opacity:1;stroke-miterlimit:10;" d="M 471.4 309.253125 L 549 309.253125 L 549 327.253125 L 471.4 327.253125 Z M 471.4 309.253125 " transform="matrix(1.25,0,0,1.25,-556.25,-273.75)"/>
<path style=" stroke:none;fill-rule:nonzero;fill:rgb(0%,0%,0%);fill-opacity:1;" d="M 65.367188 123.308594 L 65.367188 124.03125 L 66.226562 124.03125 L 66.226562 129.460938 L 67.007812 129.460938 L 67.007812 128.855469 L 69.527344 128.855469 L 69.527344 124.03125 L 70.367188 124.03125 L 70.367188 123.308594 L 69.527344 123.308594 L 69.527344 122.195312 L 68.746094 122.195312 L 68.746094 123.308594 L 67.007812 123.308594 L 67.007812 122.175781 L 66.226562 122.175781 L 66.226562 123.308594 Z M 67.007812 128.113281 L 67.007812 126.394531 L 68.746094 126.394531 L 68.746094 128.113281 Z M 68.746094 125.671875 L 67.007812 125.671875 L 67.007812 124.03125 L 68.746094 124.03125 Z M 69.859375 119.304688 L 69.859375 120.886719 L 66.929688 120.886719 L 66.929688 119.675781 L 66.109375 119.675781 L 66.109375 121.609375 L 74.351562 121.609375 L 74.351562 119.65625 L 73.53125 119.65625 L 73.53125 120.886719 L 70.679688 120.886719 L 70.679688 119.304688 Z M 71.363281 121.921875 C 71.1875 123.40625 70.757812 124.578125 70.113281 125.398438 L 70.738281 125.828125 C 71.148438 125.320312 71.480469 124.65625 71.714844 123.855469 L 74.097656 123.855469 C 73.960938 124.480469 73.765625 125.046875 73.550781 125.554688 L 74.253906 125.75 C 74.507812 125.066406 74.722656 124.34375 74.898438 123.621094 L 74.898438 123.132812 L 71.910156 123.132812 C 71.988281 122.800781 72.066406 122.429688 72.125 122.039062 Z M 72.183594 124.421875 C 72.183594 125.457031 72.066406 126.316406 71.832031 126.980469 C 71.519531 127.761719 70.875 128.425781 69.898438 128.953125 L 70.386719 129.578125 C 71.519531 128.933594 72.261719 128.132812 72.574219 127.15625 L 72.59375 127.078125 C 73.121094 128.074219 73.921875 128.914062 74.957031 129.578125 L 75.464844 128.972656 C 74.214844 128.25 73.335938 127.273438 72.808594 126.042969 C 72.886719 125.535156 72.925781 125.007812 72.925781 124.421875 Z M 72.183594 124.421875 "/>
<path style=" stroke:none;fill-rule:nonzero;fill:rgb(0%,0%,0%);fill-opacity:1;" d="M 81.011719 121.863281 C 80.289062 124.851562 78.726562 127.15625 76.304688 128.71875 L 76.792969 129.421875 C 79.15625 127.878906 80.71875 125.671875 81.460938 122.800781 C 81.519531 122.9375 81.558594 123.09375 81.636719 123.289062 C 82.789062 126.257812 84.273438 128.308594 86.109375 129.402344 L 86.617188 128.757812 C 84.820312 127.644531 83.414062 125.730469 82.359375 123.054688 C 81.675781 121.21875 80.816406 119.949219 79.820312 119.246094 L 79.15625 119.675781 C 79.859375 120.203125 80.484375 120.925781 81.011719 121.863281 Z M 81.011719 121.863281 "/>
<path style=" stroke:none;fill-rule:nonzero;fill:rgb(0%,0%,0%);fill-opacity:1;" d="M 90.777344 123.5625 L 90.777344 124.285156 L 96.871094 124.285156 L 96.871094 123.5625 Z M 89.976562 125.398438 L 89.976562 126.140625 L 92.4375 126.140625 C 91.65625 127.410156 90.992188 128.191406 90.503906 128.484375 C 90.445312 128.503906 90.40625 128.542969 90.328125 128.5625 L 90.503906 129.246094 C 92.632812 129.109375 94.585938 128.914062 96.363281 128.679688 C 96.597656 128.953125 96.792969 129.246094 96.988281 129.539062 L 97.632812 129.089844 C 97.144531 128.367188 96.421875 127.507812 95.503906 126.53125 L 94.898438 126.902344 C 95.230469 127.292969 95.5625 127.664062 95.875 128.035156 C 94.429688 128.25 92.964844 128.40625 91.480469 128.503906 C 92.007812 128.035156 92.613281 127.234375 93.296875 126.140625 L 97.613281 126.140625 L 97.613281 125.398438 Z M 96.246094 120.457031 L 96.246094 121.765625 L 89.625 121.765625 L 89.625 120.457031 Z M 89.625 122.488281 L 97.027344 122.488281 L 97.027344 119.695312 L 88.84375 119.695312 L 88.84375 123.425781 C 88.824219 125.691406 88.433594 127.527344 87.652344 128.953125 L 88.238281 129.5 C 89.15625 127.800781 89.625 125.769531 89.625 123.425781 Z M 89.625 122.488281 "/>
<path style=" stroke:none;fill-rule:nonzero;fill:rgb(0%,0%,0%);fill-opacity:1;" d="M 77.164062 156.785156 L 76.617188 157.3125 C 77.476562 157.9375 78.140625 158.523438 78.648438 159.050781 L 79.195312 158.503906 C 78.648438 157.9375 77.964844 157.371094 77.164062 156.785156 Z M 76.96875 159.539062 L 76.421875 160.066406 C 77.222656 160.671875 77.847656 161.21875 78.296875 161.765625 L 78.84375 161.199219 C 78.335938 160.652344 77.710938 160.105469 76.96875 159.539062 Z M 78.277344 162.585938 C 77.789062 163.914062 77.222656 165.222656 76.539062 166.511719 L 77.300781 166.84375 C 77.90625 165.59375 78.472656 164.265625 78.960938 162.839844 Z M 81.285156 158.796875 L 81.285156 162.742188 L 83.21875 162.742188 L 83.21875 165.730469 C 83.21875 166.023438 83.082031 166.160156 82.828125 166.160156 C 82.554688 166.160156 82.28125 166.140625 81.988281 166.101562 L 82.144531 166.84375 L 83.101562 166.84375 C 83.6875 166.84375 83.980469 166.53125 83.980469 165.925781 L 83.980469 162.742188 L 85.855469 162.742188 L 85.855469 158.796875 L 83.667969 158.796875 C 83.785156 158.464844 83.882812 158.113281 83.960938 157.742188 L 86.441406 157.742188 L 86.441406 157 L 79.703125 157 L 79.703125 161.023438 C 79.664062 163.289062 79.292969 165.046875 78.589844 166.316406 L 79.195312 166.863281 C 80.015625 165.398438 80.445312 163.445312 80.484375 161.023438 L 80.484375 157.742188 L 83.199219 157.742188 C 83.121094 158.09375 83.023438 158.445312 82.886719 158.796875 Z M 85.132812 162.097656 L 82.007812 162.097656 L 82.007812 161.082031 L 85.132812 161.082031 Z M 82.007812 160.476562 L 82.007812 159.441406 L 85.132812 159.441406 L 85.132812 160.476562 Z M 81.558594 163.542969 C 81.324219 164.402344 80.953125 165.183594 80.425781 165.886719 L 81.070312 166.296875 C 81.597656 165.554688 81.988281 164.695312 82.28125 163.699219 Z M 85.386719 163.484375 L 84.722656 163.71875 C 85.152344 164.460938 85.542969 165.320312 85.914062 166.277344 L 86.597656 165.984375 C 86.265625 165.105469 85.855469 164.265625 85.386719 163.484375 Z M 85.386719 163.484375 "/>
<path style="fill:none;stroke-width:1;stroke-linecap:round;stroke-linejoin:round;stroke:rgb(0%,0%,0%);stroke-opacity:1;stroke-miterlimit:10;" d="M 549 286.34375 L 579.5 286.34375 " transform="matrix(1.25,0,0,1.25,-556.25,-273.75)"/>
<path style="fill:none;stroke-width:1;stroke-linecap:butt;stroke-linejoin:miter;stroke:rgb(0%,0%,0%);stroke-opacity:1;stroke-miterlimit:10;" d="M 583.5 286.34375 L 579.5 286.34375 M 579.5 284.84375 L 583.5 286.34375 L 579.5 287.84375 " transform="matrix(1.25,0,0,1.25,-556.25,-273.75)"/>
<path style="fill:none;stroke-width:1;stroke-linecap:round;stroke-linejoin:round;stroke:rgb(0%,0%,0%);stroke-opacity:1;stroke-miterlimit:10;" d="M 510.2 339.6 L 510.2 333.15625 " transform="matrix(1.25,0,0,1.25,-556.25,-273.75)"/>
<path style="fill:none;stroke-width:1;stroke-linecap:butt;stroke-linejoin:miter;stroke:rgb(0%,0%,0%);stroke-opacity:1;stroke-miterlimit:10;" d="M 510.2 329.15625 L 510.2 333.15625 M 508.7 333.15625 L 510.2 329.15625 L 511.7 333.15625 " transform="matrix(1.25,0,0,1.25,-556.25,-273.75)"/>
<path style=" stroke:none;fill-rule:nonzero;fill:rgb(0%,0%,0%);fill-opacity:1;" d="M 68.640625 17.480469 C 67.839844 17.890625 66.902344 18.203125 65.847656 18.4375 L 65.945312 19.238281 C 66.960938 18.984375 67.859375 18.652344 68.640625 18.242188 Z M 67.488281 9.53125 C 67.078125 10.839844 66.589844 11.992188 66.023438 13.007812 C 65.945312 13.144531 65.828125 13.242188 65.710938 13.300781 L 65.90625 14.023438 C 66.511719 13.925781 67.097656 13.828125 67.703125 13.710938 C 67.117188 14.746094 66.628906 15.46875 66.238281 15.898438 C 66.140625 15.996094 66.003906 16.074219 65.867188 16.132812 L 66.082031 16.855469 C 67 16.71875 67.957031 16.484375 68.972656 16.152344 L 68.972656 15.429688 C 68.328125 15.664062 67.683594 15.839844 67.039062 15.976562 C 67.644531 15.214844 68.425781 13.925781 69.363281 12.109375 L 68.660156 11.835938 C 68.464844 12.246094 68.25 12.636719 68.074219 12.988281 C 67.605469 13.085938 67.117188 13.164062 66.628906 13.242188 C 67.175781 12.402344 67.722656 11.25 68.25 9.824219 Z M 74.851562 19.84375 C 75.359375 19.84375 75.613281 19.570312 75.613281 19.0625 L 75.613281 14.53125 L 70.476562 14.53125 L 70.476562 19.882812 L 71.140625 19.882812 L 71.140625 17.382812 L 72.019531 17.382812 L 72.019531 19.6875 L 72.625 19.6875 L 72.625 17.382812 L 73.445312 17.382812 L 73.445312 19.6875 L 74.03125 19.6875 L 74.03125 17.382812 L 74.949219 17.382812 L 74.949219 18.886719 C 74.949219 19.121094 74.832031 19.238281 74.636719 19.238281 L 74.1875 19.21875 L 74.363281 19.84375 Z M 71.140625 16.699219 L 71.140625 15.234375 L 72.019531 15.234375 L 72.019531 16.699219 Z M 72.625 15.234375 L 73.445312 15.234375 L 73.445312 16.699219 L 72.625 16.699219 Z M 74.03125 15.234375 L 74.949219 15.234375 L 74.949219 16.699219 L 74.03125 16.699219 Z M 74.832031 11.40625 L 74.832031 12.851562 L 70.4375 12.851562 L 70.4375 11.40625 Z M 70.4375 13.554688 L 75.574219 13.554688 L 75.574219 10.703125 L 73.035156 10.703125 C 72.898438 10.253906 72.761719 9.84375 72.605469 9.511719 L 71.765625 9.628906 C 71.941406 9.960938 72.097656 10.3125 72.253906 10.703125 L 69.695312 10.703125 L 69.695312 13.4375 C 69.675781 15.839844 69.226562 17.8125 68.328125 19.355469 L 68.914062 19.863281 C 69.890625 18.105469 70.398438 15.996094 70.4375 13.554688 Z M 70.4375 13.554688 "/>
<path style=" stroke:none;fill-rule:nonzero;fill:rgb(0%,0%,0%);fill-opacity:1;" d="M 80.75 13.515625 L 78.679688 13.515625 C 78.972656 12.714844 79.1875 11.875 79.34375 10.976562 L 81.042969 10.976562 L 81.042969 10.195312 L 77.195312 10.195312 L 77.195312 10.976562 L 78.582031 10.976562 C 78.308594 12.65625 77.742188 14.140625 76.882812 15.449219 L 77.292969 16.113281 C 77.566406 15.722656 77.800781 15.332031 78.035156 14.921875 L 78.035156 19.511719 L 78.796875 19.511719 L 78.796875 18.652344 L 80.007812 18.652344 L 80.007812 19.296875 L 80.75 19.296875 Z M 78.796875 17.910156 L 78.796875 14.257812 L 80.007812 14.257812 L 80.007812 17.910156 Z M 82.253906 11.582031 L 81.648438 15.234375 L 86.199219 15.234375 C 86.199219 17.03125 86.101562 18.125 85.925781 18.496094 C 85.769531 18.867188 85.242188 19.0625 84.382812 19.0625 C 84.167969 19.0625 83.835938 19.023438 83.328125 18.984375 L 83.5625 19.765625 C 83.914062 19.804688 84.246094 19.804688 84.578125 19.804688 C 85.554688 19.804688 86.199219 19.589844 86.511719 19.179688 C 86.804688 18.769531 86.960938 17.207031 86.960938 14.472656 L 85.769531 14.472656 L 86.394531 10.039062 L 81.550781 10.039062 L 81.550781 10.800781 L 85.515625 10.800781 L 84.949219 14.472656 L 82.566406 14.472656 L 83.054688 11.640625 Z M 81.316406 16.660156 L 81.316406 17.421875 L 85.417969 17.421875 L 85.417969 16.660156 Z M 81.316406 16.660156 "/>
<path style=" stroke:none;fill-rule:nonzero;fill:rgb(0%,0%,0%);fill-opacity:1;" d="M 89.324219 9.980469 L 89.324219 12.714844 L 92.742188 12.714844 L 92.742188 9.980469 Z M 92 12.03125 L 90.046875 12.03125 L 90.046875 10.683594 L 92 10.683594 Z M 93.992188 9.980469 L 93.992188 12.714844 L 97.488281 12.714844 L 97.488281 9.980469 Z M 96.765625 12.03125 L 94.734375 12.03125 L 94.734375 10.683594 L 96.765625 10.683594 Z M 88.40625 13.847656 L 88.40625 14.570312 L 91.511719 14.570312 C 90.730469 15.234375 89.617188 15.800781 88.171875 16.210938 L 88.542969 16.875 C 88.875 16.777344 89.167969 16.679688 89.480469 16.5625 L 89.480469 19.882812 L 90.183594 19.882812 L 90.183594 19.394531 L 92.097656 19.394531 L 92.097656 19.882812 L 92.820312 19.882812 L 92.820312 16.347656 L 90.007812 16.347656 C 91.0625 15.878906 91.902344 15.292969 92.527344 14.570312 L 94.441406 14.570312 C 95.007812 15.253906 95.828125 15.839844 96.902344 16.347656 L 93.914062 16.347656 L 93.914062 19.882812 L 94.636719 19.882812 L 94.636719 19.394531 L 96.726562 19.394531 L 96.726562 19.882812 L 97.449219 19.882812 L 97.449219 16.582031 C 97.703125 16.660156 97.957031 16.777344 98.230469 16.855469 L 98.5625 16.171875 C 97.117188 15.78125 96.023438 15.234375 95.28125 14.570312 L 98.328125 14.570312 L 98.328125 13.847656 L 96.785156 13.847656 C 96.589844 13.496094 96.394531 13.164062 96.160156 12.851562 L 95.476562 13.085938 C 95.652344 13.300781 95.828125 13.554688 95.984375 13.847656 L 93.074219 13.847656 C 93.230469 13.574219 93.386719 13.300781 93.484375 13.007812 L 92.722656 12.929688 C 92.585938 13.242188 92.410156 13.554688 92.195312 13.847656 Z M 90.183594 18.710938 L 90.183594 17.011719 L 92.097656 17.011719 L 92.097656 18.710938 Z M 94.636719 18.710938 L 94.636719 17.011719 L 96.726562 17.011719 L 96.726562 18.710938 Z M 94.636719 18.710938 "/>
<path style=" stroke:none;fill-rule:nonzero;fill:rgb(0%,0%,0%);fill-opacity:1;" d="M 212.429688 15.605469 L 213.757812 15.605469 L 213.757812 16.972656 L 211.316406 16.972656 L 211.316406 17.695312 L 213.757812 17.695312 L 213.757812 19.902344 L 214.539062 19.902344 L 214.539062 17.695312 L 216.453125 17.695312 L 216.453125 16.972656 L 214.539062 16.972656 L 214.539062 15.605469 L 216.21875 15.605469 L 216.21875 14.863281 L 214.539062 14.863281 L 214.539062 13.828125 L 213.757812 13.828125 L 213.757812 14.863281 L 212.722656 14.863281 C 212.800781 14.609375 212.859375 14.335938 212.917969 14.023438 L 212.253906 13.90625 C 212.078125 14.804688 211.765625 15.507812 211.257812 16.054688 L 211.726562 16.621094 C 212 16.328125 212.234375 15.996094 212.429688 15.605469 Z M 212.898438 10.957031 C 212.820312 11.328125 212.683594 11.660156 212.527344 11.953125 C 212.273438 12.34375 211.882812 12.714844 211.394531 13.007812 L 211.863281 13.613281 C 212.429688 13.242188 212.878906 12.792969 213.171875 12.324219 C 213.386719 11.933594 213.542969 11.464844 213.660156 10.957031 L 215.320312 10.957031 C 215.28125 11.757812 215.242188 12.265625 215.183594 12.460938 C 215.105469 12.65625 214.910156 12.753906 214.597656 12.773438 C 214.324219 12.753906 214.011719 12.734375 213.621094 12.714844 L 213.816406 13.378906 C 214.167969 13.398438 214.5 13.4375 214.753906 13.4375 C 215.242188 13.4375 215.574219 13.261719 215.789062 12.988281 C 215.984375 12.675781 216.082031 11.757812 216.082031 10.234375 L 211.394531 10.234375 L 211.394531 10.957031 Z M 207.585938 15.019531 L 208.601562 15.019531 L 208.601562 16.484375 L 207.566406 16.484375 C 207.566406 16.40625 207.585938 16.328125 207.585938 16.230469 Z M 207.546875 17.167969 L 208.601562 17.167969 L 208.601562 19.726562 L 209.265625 19.726562 L 209.265625 17.167969 L 210.300781 17.167969 L 210.300781 18.730469 C 210.300781 19.003906 210.183594 19.160156 209.929688 19.160156 C 209.753906 19.160156 209.558594 19.140625 209.34375 19.101562 L 209.539062 19.785156 L 210.164062 19.785156 C 210.710938 19.785156 210.984375 19.511719 210.984375 18.984375 L 210.984375 12.226562 L 209.636719 12.226562 C 209.890625 11.894531 210.144531 11.464844 210.398438 10.957031 L 210.398438 10.410156 L 208.386719 10.410156 C 208.484375 10.175781 208.582031 9.921875 208.679688 9.6875 L 207.9375 9.511719 C 207.507812 10.683594 206.960938 11.621094 206.277344 12.34375 L 206.765625 12.949219 C 206.804688 12.890625 206.84375 12.871094 206.882812 12.8125 L 206.882812 16.269531 C 206.882812 17.558594 206.648438 18.632812 206.21875 19.453125 L 206.765625 19.960938 C 207.175781 19.21875 207.429688 18.28125 207.546875 17.167969 Z M 208.816406 12.226562 L 207.351562 12.226562 C 207.605469 11.875 207.859375 11.484375 208.074219 11.074219 L 209.539062 11.074219 C 209.285156 11.503906 209.050781 11.894531 208.816406 12.226562 Z M 210.300781 16.484375 L 209.265625 16.484375 L 209.265625 15.019531 L 210.300781 15.019531 Z M 210.300781 14.335938 L 209.265625 14.335938 L 209.265625 12.929688 L 210.300781 12.929688 Z M 208.601562 12.929688 L 208.601562 14.335938 L 207.585938 14.335938 L 207.585938 12.929688 Z M 208.601562 12.929688 "/>
<path style=" stroke:none;fill-rule:nonzero;fill:rgb(0%,0%,0%);fill-opacity:1;" d="M 221.257812 13.515625 L 219.1875 13.515625 C 219.480469 12.714844 219.695312 11.875 219.851562 10.976562 L 221.550781 10.976562 L 221.550781 10.195312 L 217.703125 10.195312 L 217.703125 10.976562 L 219.089844 10.976562 C 218.816406 12.65625 218.25 14.140625 217.390625 15.449219 L 217.800781 16.113281 C 218.074219 15.722656 218.308594 15.332031 218.542969 14.921875 L 218.542969 19.511719 L 219.304688 19.511719 L 219.304688 18.652344 L 220.515625 18.652344 L 220.515625 19.296875 L 221.257812 19.296875 Z M 219.304688 17.910156 L 219.304688 14.257812 L 220.515625 14.257812 L 220.515625 17.910156 Z M 222.761719 11.582031 L 222.15625 15.234375 L 226.707031 15.234375 C 226.707031 17.03125 226.609375 18.125 226.433594 18.496094 C 226.277344 18.867188 225.75 19.0625 224.890625 19.0625 C 224.675781 19.0625 224.34375 19.023438 223.835938 18.984375 L 224.070312 19.765625 C 224.421875 19.804688 224.753906 19.804688 225.085938 19.804688 C 226.0625 19.804688 226.707031 19.589844 227.019531 19.179688 C 227.3125 18.769531 227.46875 17.207031 227.46875 14.472656 L 226.277344 14.472656 L 226.902344 10.039062 L 222.058594 10.039062 L 222.058594 10.800781 L 226.023438 10.800781 L 225.457031 14.472656 L 223.074219 14.472656 L 223.5625 11.640625 Z M 221.824219 16.660156 L 221.824219 17.421875 L 225.925781 17.421875 L 225.925781 16.660156 Z M 221.824219 16.660156 "/>
<path style=" stroke:none;fill-rule:nonzero;fill:rgb(0%,0%,0%);fill-opacity:1;" d="M 229.832031 9.980469 L 229.832031 12.714844 L 233.25 12.714844 L 233.25 9.980469 Z M 232.507812 12.03125 L 230.554688 12.03125 L 230.554688 10.683594 L 232.507812 10.683594 Z M 234.5 9.980469 L 234.5 12.714844 L 237.996094 12.714844 L 237.996094 9.980469 Z M 237.273438 12.03125 L 235.242188 12.03125 L 235.242188 10.683594 L 237.273438 10.683594 Z M 228.914062 13.847656 L 228.914062 14.570312 L 232.019531 14.570312 C 231.238281 15.234375 230.125 15.800781 228.679688 16.210938 L 229.050781 16.875 C 229.382812 16.777344 229.675781 16.679688 229.988281 16.5625 L 229.988281 19.882812 L 230.691406 19.882812 L 230.691406 19.394531 L 232.605469 19.394531 L 232.605469 19.882812 L 233.328125 19.882812 L 233.328125 16.347656 L 230.515625 16.347656 C 231.570312 15.878906 232.410156 15.292969 233.035156 14.570312 L 234.949219 14.570312 C 235.515625 15.253906 236.335938 15.839844 237.410156 16.347656 L 234.421875 16.347656 L 234.421875 19.882812 L 235.144531 19.882812 L 235.144531 19.394531 L 237.234375 19.394531 L 237.234375 19.882812 L 237.957031 19.882812 L 237.957031 16.582031 C 238.210938 16.660156 238.464844 16.777344 238.738281 16.855469 L 239.070312 16.171875 C 237.625 15.78125 236.53125 15.234375 235.789062 14.570312 L 238.835938 14.570312 L 238.835938 13.847656 L 237.292969 13.847656 C 237.097656 13.496094 236.902344 13.164062 236.667969 12.851562 L 235.984375 13.085938 C 236.160156 13.300781 236.335938 13.554688 236.492188 13.847656 L 233.582031 13.847656 C 233.738281 13.574219 233.894531 13.300781 233.992188 13.007812 L 233.230469 12.929688 C 233.09375 13.242188 232.917969 13.554688 232.703125 13.847656 Z M 230.691406 18.710938 L 230.691406 17.011719 L 232.605469 17.011719 L 232.605469 18.710938 Z M 235.144531 18.710938 L 235.144531 17.011719 L 237.234375 17.011719 L 237.234375 18.710938 Z M 235.144531 18.710938 "/>
<path style=" stroke:none;fill-rule:nonzero;fill:rgb(69.803922%,85.098039%,100%);fill-opacity:1;" d="M 33 95.429688 L 130 95.429688 L 130 72.929688 L 33 72.929688 Z M 33 95.429688 "/>
<path style="fill:none;stroke-width:1;stroke-linecap:round;stroke-linejoin:round;stroke:rgb(0%,0%,0%);stroke-opacity:1;stroke-miterlimit:10;" d="M 471.4 277.34375 L 549 277.34375 L 549 295.34375 L 471.4 295.34375 Z M 471.4 277.34375 " transform="matrix(1.25,0,0,1.25,-556.25,-273.75)"/>
<path style=" stroke:none;fill-rule:nonzero;fill:rgb(0%,0%,0%);fill-opacity:1;" d="M 74.566406 79.472656 C 72.847656 79.863281 70.914062 80.078125 68.785156 80.097656 L 68.785156 84.453125 C 68.726562 86.425781 68.394531 87.949219 67.769531 89.0625 L 68.335938 89.667969 C 69.097656 88.359375 69.488281 86.640625 69.546875 84.453125 L 69.546875 82.421875 L 72.125 82.421875 L 72.027344 83.457031 L 70.230469 83.457031 L 70.230469 89.667969 L 70.992188 89.667969 L 70.992188 88.964844 L 74 88.964844 L 74 89.6875 L 74.761719 89.6875 L 74.761719 83.457031 L 72.808594 83.457031 C 72.847656 83.125 72.886719 82.792969 72.925781 82.421875 L 75.230469 82.421875 L 75.230469 81.699219 L 72.984375 81.699219 L 73.023438 80.898438 L 72.222656 80.78125 L 72.183594 81.699219 L 69.546875 81.699219 L 69.546875 80.761719 C 71.539062 80.722656 73.335938 80.507812 74.957031 80.15625 Z M 70.992188 88.28125 L 70.992188 87.285156 L 74 87.285156 L 74 88.28125 Z M 70.992188 86.660156 L 70.992188 85.703125 L 74 85.703125 L 74 86.660156 Z M 70.992188 85.078125 L 70.992188 84.140625 L 74 84.140625 L 74 85.078125 Z M 67.417969 79.511719 C 66.96875 80.546875 66.226562 81.464844 65.230469 82.265625 L 65.464844 83.066406 C 66.695312 82.128906 67.574219 81.054688 68.121094 79.84375 Z M 67.632812 82.34375 C 67.105469 83.4375 66.265625 84.433594 65.09375 85.292969 L 65.328125 86.074219 C 65.71875 85.78125 66.089844 85.488281 66.441406 85.175781 L 66.441406 89.628906 L 67.222656 89.628906 L 67.222656 84.375 C 67.671875 83.847656 68.042969 83.28125 68.335938 82.675781 Z M 67.632812 82.34375 "/>
<path style=" stroke:none;fill-rule:nonzero;fill:rgb(0%,0%,0%);fill-opacity:1;" d="M 84.527344 82.96875 L 83.902344 83.359375 C 84.820312 84.511719 85.542969 85.546875 86.089844 86.484375 L 86.773438 86.015625 C 86.246094 85.136719 85.484375 84.140625 84.527344 82.96875 Z M 76.65625 83.457031 L 76.65625 84.238281 L 77.90625 84.238281 L 77.90625 87.128906 C 77.378906 87.265625 76.871094 87.382812 76.34375 87.460938 L 76.539062 88.242188 C 77.847656 87.949219 79.058594 87.578125 80.191406 87.148438 L 80.191406 86.367188 C 79.703125 86.5625 79.195312 86.738281 78.6875 86.894531 L 78.6875 84.238281 L 79.976562 84.238281 L 79.976562 83.457031 L 78.6875 83.457031 L 78.6875 81.035156 L 80.132812 81.035156 L 80.132812 80.234375 L 76.480469 80.234375 L 76.480469 81.035156 L 77.90625 81.035156 L 77.90625 83.457031 Z M 80.582031 79.921875 L 80.582031 80.703125 L 83.472656 80.703125 C 82.828125 82.753906 81.695312 84.511719 80.054688 85.976562 L 80.542969 86.601562 C 81.519531 85.742188 82.320312 84.765625 82.964844 83.671875 L 82.964844 89.667969 L 83.765625 89.667969 L 83.765625 82.128906 C 83.960938 81.660156 84.117188 81.191406 84.273438 80.703125 L 86.285156 80.703125 L 86.285156 79.921875 Z M 80.582031 79.921875 "/>
<path style=" stroke:none;fill-rule:nonzero;fill:rgb(0%,0%,0%);fill-opacity:1;" d="M 90.777344 83.671875 L 90.777344 84.394531 L 96.871094 84.394531 L 96.871094 83.671875 Z M 89.976562 85.507812 L 89.976562 86.25 L 92.4375 86.25 C 91.65625 87.519531 90.992188 88.300781 90.503906 88.59375 C 90.445312 88.613281 90.40625 88.652344 90.328125 88.671875 L 90.503906 89.355469 C 92.632812 89.21875 94.585938 89.023438 96.363281 88.789062 C 96.597656 89.0625 96.792969 89.355469 96.988281 89.648438 L 97.632812 89.199219 C 97.144531 88.476562 96.421875 87.617188 95.503906 86.640625 L 94.898438 87.011719 C 95.230469 87.402344 95.5625 87.773438 95.875 88.144531 C 94.429688 88.359375 92.964844 88.515625 91.480469 88.613281 C 92.007812 88.144531 92.613281 87.34375 93.296875 86.25 L 97.613281 86.25 L 97.613281 85.507812 Z M 96.246094 80.566406 L 96.246094 81.875 L 89.625 81.875 L 89.625 80.566406 Z M 89.625 82.597656 L 97.027344 82.597656 L 97.027344 79.804688 L 88.84375 79.804688 L 88.84375 83.535156 C 88.824219 85.800781 88.433594 87.636719 87.652344 89.0625 L 88.238281 89.609375 C 89.15625 87.910156 89.625 85.878906 89.625 83.535156 Z M 89.625 82.597656 "/>
<path style=" stroke:none;fill-rule:nonzero;fill:rgb(0%,0%,0%);fill-opacity:1;" d="M 12.425781 85.996094 C 12.347656 86.09375 12.269531 86.191406 12.191406 86.289062 C 11.859375 86.699219 11.664062 86.875 11.507812 86.875 C 11.371094 86.875 11.332031 86.777344 11.332031 86.679688 C 11.332031 86.582031 11.371094 86.386719 11.488281 85.996094 L 12.113281 83.710938 C 12.171875 83.476562 12.230469 83.222656 12.230469 83.027344 C 12.230469 82.617188 11.976562 82.34375 11.488281 82.34375 C 10.765625 82.34375 10.023438 83.027344 8.890625 84.824219 L 9.652344 82.363281 L 9.59375 82.34375 C 9.007812 82.460938 8.695312 82.519531 7.777344 82.695312 L 7.777344 82.871094 C 8.34375 82.890625 8.519531 82.949219 8.519531 83.183594 C 8.519531 83.242188 8.5 83.320312 8.480469 83.359375 L 7.40625 87.304688 L 8.246094 87.304688 C 8.773438 85.527344 8.871094 85.273438 9.378906 84.511719 C 10.082031 83.476562 10.589844 82.910156 11.039062 82.910156 C 11.214844 82.910156 11.3125 83.046875 11.3125 83.242188 C 11.3125 83.378906 11.234375 83.789062 11.15625 84.140625 L 10.667969 85.957031 C 10.492188 86.542969 10.472656 86.679688 10.472656 86.796875 C 10.472656 87.226562 10.726562 87.402344 11 87.402344 C 11.527344 87.402344 11.820312 87.1875 12.582031 86.132812 Z M 12.425781 85.996094 "/>
<g clip-path="url(#clip1)" clip-rule="nonzero">
<path style=" stroke:none;fill-rule:nonzero;fill:rgb(0%,0%,0%);fill-opacity:1;" d="M 19.515625 84.359375 L 21.742188 82.132812 C 21.859375 81.996094 21.898438 81.976562 21.898438 81.898438 C 21.898438 81.761719 21.78125 81.664062 21.664062 81.664062 C 21.585938 81.664062 21.527344 81.703125 21.429688 81.820312 L 19.183594 84.046875 L 16.9375 81.820312 C 16.820312 81.683594 16.78125 81.664062 16.703125 81.664062 C 16.585938 81.664062 16.46875 81.761719 16.46875 81.898438 C 16.46875 81.976562 16.527344 82.035156 16.625 82.132812 L 18.851562 84.359375 L 16.625 86.605469 C 16.507812 86.703125 16.46875 86.78125 16.46875 86.839844 C 16.46875 86.976562 16.585938 87.074219 16.703125 87.074219 C 16.78125 87.074219 16.820312 87.054688 16.9375 86.917969 L 19.183594 84.691406 L 21.429688 86.917969 C 21.527344 87.035156 21.605469 87.074219 21.664062 87.074219 C 21.800781 87.074219 21.898438 86.976562 21.898438 86.839844 C 21.898438 86.761719 21.859375 86.742188 21.742188 86.605469 Z M 19.515625 84.359375 "/>
<path style=" stroke:none;fill-rule:nonzero;fill:rgb(0%,0%,0%);fill-opacity:1;" d="M 19.515625 84.359375 L 21.742188 82.132812 C 21.859375 81.996094 21.898438 81.976562 21.898438 81.898438 C 21.898438 81.761719 21.78125 81.664062 21.664062 81.664062 C 21.585938 81.664062 21.527344 81.703125 21.429688 81.820312 L 19.183594 84.046875 L 16.9375 81.820312 C 16.820312 81.683594 16.78125 81.664062 16.703125 81.664062 C 16.585938 81.664062 16.46875 81.761719 16.46875 81.898438 C 16.46875 81.976562 16.527344 82.035156 16.625 82.132812 L 18.851562 84.359375 L 16.625 86.605469 C 16.507812 86.703125 16.46875 86.78125 16.46875 86.839844 C 16.46875 86.976562 16.585938 87.074219 16.703125 87.074219 C 16.78125 87.074219 16.820312 87.054688 16.9375 86.917969 L 19.183594 84.691406 L 21.429688 86.917969 C 21.527344 87.035156 21.605469 87.074219 21.664062 87.074219 C 21.800781 87.074219 21.898438 86.976562 21.898438 86.839844 C 21.898438 86.761719 21.859375 86.742188 21.742188 86.605469 Z M 19.515625 84.359375 "/>
</g>
<path style="fill:none;stroke-width:1;stroke-linecap:round;stroke-linejoin:round;stroke:rgb(0%,0%,0%);stroke-opacity:1;stroke-miterlimit:10;" d="M 510.2 309.253125 L 510.2 301.246875 " transform="matrix(1.25,0,0,1.25,-556.25,-273.75)"/>
<path style="fill:none;stroke-width:1;stroke-linecap:butt;stroke-linejoin:miter;stroke:rgb(0%,0%,0%);stroke-opacity:1;stroke-miterlimit:10;" d="M 510.2 297.246875 L 510.2 301.246875 M 508.7 301.246875 L 510.2 297.246875 L 511.7 301.246875 " transform="matrix(1.25,0,0,1.25,-556.25,-273.75)"/>
<path style="fill:none;stroke-width:1;stroke-linecap:round;stroke-linejoin:round;stroke:rgb(0%,0%,0%);stroke-opacity:1;stroke-miterlimit:10;" d="M 585.4 309.253125 L 663 309.253125 L 663 327.253125 L 585.4 327.253125 Z M 585.4 309.253125 " transform="matrix(1.25,0,0,1.25,-556.25,-273.75)"/>
<path style=" stroke:none;fill-rule:nonzero;fill:rgb(0%,0%,0%);fill-opacity:1;" d="M 207.867188 123.308594 L 207.867188 124.03125 L 208.726562 124.03125 L 208.726562 129.460938 L 209.507812 129.460938 L 209.507812 128.855469 L 212.027344 128.855469 L 212.027344 124.03125 L 212.867188 124.03125 L 212.867188 123.308594 L 212.027344 123.308594 L 212.027344 122.195312 L 211.246094 122.195312 L 211.246094 123.308594 L 209.507812 123.308594 L 209.507812 122.175781 L 208.726562 122.175781 L 208.726562 123.308594 Z M 209.507812 128.113281 L 209.507812 126.394531 L 211.246094 126.394531 L 211.246094 128.113281 Z M 211.246094 125.671875 L 209.507812 125.671875 L 209.507812 124.03125 L 211.246094 124.03125 Z M 212.359375 119.304688 L 212.359375 120.886719 L 209.429688 120.886719 L 209.429688 119.675781 L 208.609375 119.675781 L 208.609375 121.609375 L 216.851562 121.609375 L 216.851562 119.65625 L 216.03125 119.65625 L 216.03125 120.886719 L 213.179688 120.886719 L 213.179688 119.304688 Z M 213.863281 121.921875 C 213.6875 123.40625 213.257812 124.578125 212.613281 125.398438 L 213.238281 125.828125 C 213.648438 125.320312 213.980469 124.65625 214.214844 123.855469 L 216.597656 123.855469 C 216.460938 124.480469 216.265625 125.046875 216.050781 125.554688 L 216.753906 125.75 C 217.007812 125.066406 217.222656 124.34375 217.398438 123.621094 L 217.398438 123.132812 L 214.410156 123.132812 C 214.488281 122.800781 214.566406 122.429688 214.625 122.039062 Z M 214.683594 124.421875 C 214.683594 125.457031 214.566406 126.316406 214.332031 126.980469 C 214.019531 127.761719 213.375 128.425781 212.398438 128.953125 L 212.886719 129.578125 C 214.019531 128.933594 214.761719 128.132812 215.074219 127.15625 L 215.09375 127.078125 C 215.621094 128.074219 216.421875 128.914062 217.457031 129.578125 L 217.964844 128.972656 C 216.714844 128.25 215.835938 127.273438 215.308594 126.042969 C 215.386719 125.535156 215.425781 125.007812 215.425781 124.421875 Z M 214.683594 124.421875 "/>
<path style=" stroke:none;fill-rule:nonzero;fill:rgb(0%,0%,0%);fill-opacity:1;" d="M 223.511719 121.863281 C 222.789062 124.851562 221.226562 127.15625 218.804688 128.71875 L 219.292969 129.421875 C 221.65625 127.878906 223.21875 125.671875 223.960938 122.800781 C 224.019531 122.9375 224.058594 123.09375 224.136719 123.289062 C 225.289062 126.257812 226.773438 128.308594 228.609375 129.402344 L 229.117188 128.757812 C 227.320312 127.644531 225.914062 125.730469 224.859375 123.054688 C 224.175781 121.21875 223.316406 119.949219 222.320312 119.246094 L 221.65625 119.675781 C 222.359375 120.203125 222.984375 120.925781 223.511719 121.863281 Z M 223.511719 121.863281 "/>
<path style=" stroke:none;fill-rule:nonzero;fill:rgb(0%,0%,0%);fill-opacity:1;" d="M 233.277344 123.5625 L 233.277344 124.285156 L 239.371094 124.285156 L 239.371094 123.5625 Z M 232.476562 125.398438 L 232.476562 126.140625 L 234.9375 126.140625 C 234.15625 127.410156 233.492188 128.191406 233.003906 128.484375 C 232.945312 128.503906 232.90625 128.542969 232.828125 128.5625 L 233.003906 129.246094 C 235.132812 129.109375 237.085938 128.914062 238.863281 128.679688 C 239.097656 128.953125 239.292969 129.246094 239.488281 129.539062 L 240.132812 129.089844 C 239.644531 128.367188 238.921875 127.507812 238.003906 126.53125 L 237.398438 126.902344 C 237.730469 127.292969 238.0625 127.664062 238.375 128.035156 C 236.929688 128.25 235.464844 128.40625 233.980469 128.503906 C 234.507812 128.035156 235.113281 127.234375 235.796875 126.140625 L 240.113281 126.140625 L 240.113281 125.398438 Z M 238.746094 120.457031 L 238.746094 121.765625 L 232.125 121.765625 L 232.125 120.457031 Z M 232.125 122.488281 L 239.527344 122.488281 L 239.527344 119.695312 L 231.34375 119.695312 L 231.34375 123.425781 C 231.324219 125.691406 230.933594 127.527344 230.152344 128.953125 L 230.738281 129.5 C 231.65625 127.800781 232.125 125.769531 232.125 123.425781 Z M 232.125 122.488281 "/>
<path style=" stroke:none;fill-rule:nonzero;fill:rgb(0%,0%,0%);fill-opacity:1;" d="M 222.164062 157.117188 L 214.605469 157.117188 L 214.605469 166.882812 L 215.425781 166.882812 L 215.425781 166.140625 L 221.34375 166.140625 L 221.34375 166.863281 L 222.164062 166.863281 Z M 215.425781 165.339844 L 215.425781 163.230469 L 221.34375 163.230469 L 221.34375 165.339844 Z M 215.425781 162.488281 L 215.425781 160.515625 L 221.34375 160.515625 L 221.34375 162.488281 Z M 215.425781 159.773438 L 215.425781 157.898438 L 221.34375 157.898438 L 221.34375 159.773438 Z M 215.425781 159.773438 "/>
<path style=" stroke:none;fill-rule:nonzero;fill:rgb(0%,0%,0%);fill-opacity:1;" d="M 226.148438 156.589844 L 226.148438 158.71875 L 224.78125 158.71875 L 224.78125 159.5 L 226.148438 159.5 C 225.796875 160.90625 225.230469 162.175781 224.410156 163.289062 L 224.761719 164.167969 C 225.328125 163.289062 225.796875 162.3125 226.148438 161.257812 L 226.148438 166.863281 L 226.949219 166.863281 L 226.949219 161.21875 C 227.28125 161.648438 227.671875 162.214844 228.140625 162.917969 L 228.609375 162.234375 C 228.042969 161.550781 227.496094 160.925781 226.949219 160.359375 L 226.949219 159.5 L 228.257812 159.5 L 228.257812 158.71875 L 226.949219 158.71875 L 226.949219 156.589844 Z M 229.46875 161.667969 C 229.15625 163.074219 228.648438 164.324219 227.945312 165.476562 L 228.648438 165.925781 C 229.3125 164.773438 229.859375 163.425781 230.210938 161.84375 Z M 233.53125 161.628906 L 232.808594 161.863281 C 233.238281 163.074219 233.648438 164.460938 234.019531 166.023438 L 234.761719 165.691406 C 234.410156 164.246094 234.019531 162.898438 233.53125 161.628906 Z M 231.011719 166.746094 C 231.675781 166.746094 232.007812 166.414062 232.007812 165.75 L 232.007812 160.75 L 234.761719 160.75 L 234.761719 159.96875 L 228.453125 159.96875 L 228.453125 160.75 L 231.207031 160.75 L 231.207031 165.554688 C 231.207031 165.867188 231.050781 166.042969 230.738281 166.042969 C 230.40625 166.042969 230.074219 166.023438 229.722656 166.003906 L 229.878906 166.746094 Z M 229.058594 157.234375 L 229.058594 157.996094 L 234.175781 157.996094 L 234.175781 157.234375 Z M 229.058594 157.234375 "/>
<path style="fill:none;stroke-width:1;stroke-linecap:round;stroke-linejoin:round;stroke:rgb(0%,0%,0%);stroke-opacity:1;stroke-miterlimit:10;" d="M 624.2 339.6 L 624.2 333.15625 " transform="matrix(1.25,0,0,1.25,-556.25,-273.75)"/>
<path style="fill:none;stroke-width:1;stroke-linecap:butt;stroke-linejoin:miter;stroke:rgb(0%,0%,0%);stroke-opacity:1;stroke-miterlimit:10;" d="M 624.2 329.15625 L 624.2 333.15625 M 622.7 333.15625 L 624.2 329.15625 L 625.7 333.15625 " transform="matrix(1.25,0,0,1.25,-556.25,-273.75)"/>
<path style="fill:none;stroke-width:1;stroke-linecap:round;stroke-linejoin:round;stroke:rgb(0%,0%,0%);stroke-opacity:1;stroke-miterlimit:10;" d="M 624.2 309.253125 L 624.2 301.246875 " transform="matrix(1.25,0,0,1.25,-556.25,-273.75)"/>
<path style="fill:none;stroke-width:1;stroke-linecap:butt;stroke-linejoin:miter;stroke:rgb(0%,0%,0%);stroke-opacity:1;stroke-miterlimit:10;" d="M 624.2 297.246875 L 624.2 301.246875 M 622.7 301.246875 L 624.2 297.246875 L 625.7 301.246875 " transform="matrix(1.25,0,0,1.25,-556.25,-273.75)"/>
<path style=" stroke:none;fill-rule:nonzero;fill:rgb(69.803922%,85.098039%,100%);fill-opacity:1;" d="M 175.5 95.429688 L 272.5 95.429688 L 272.5 72.929688 L 175.5 72.929688 Z M 175.5 95.429688 "/>
<path style="fill:none;stroke-width:1;stroke-linecap:round;stroke-linejoin:round;stroke:rgb(0%,0%,0%);stroke-opacity:1;stroke-miterlimit:10;" d="M 585.4 277.34375 L 663 277.34375 L 663 295.34375 L 585.4 295.34375 Z M 585.4 277.34375 " transform="matrix(1.25,0,0,1.25,-556.25,-273.75)"/>
<path style=" stroke:none;fill-rule:nonzero;fill:rgb(0%,0%,0%);fill-opacity:1;" d="M 217.066406 79.472656 C 215.347656 79.863281 213.414062 80.078125 211.285156 80.097656 L 211.285156 84.453125 C 211.226562 86.425781 210.894531 87.949219 210.269531 89.0625 L 210.835938 89.667969 C 211.597656 88.359375 211.988281 86.640625 212.046875 84.453125 L 212.046875 82.421875 L 214.625 82.421875 L 214.527344 83.457031 L 212.730469 83.457031 L 212.730469 89.667969 L 213.492188 89.667969 L 213.492188 88.964844 L 216.5 88.964844 L 216.5 89.6875 L 217.261719 89.6875 L 217.261719 83.457031 L 215.308594 83.457031 C 215.347656 83.125 215.386719 82.792969 215.425781 82.421875 L 217.730469 82.421875 L 217.730469 81.699219 L 215.484375 81.699219 L 215.523438 80.898438 L 214.722656 80.78125 L 214.683594 81.699219 L 212.046875 81.699219 L 212.046875 80.761719 C 214.039062 80.722656 215.835938 80.507812 217.457031 80.15625 Z M 213.492188 88.28125 L 213.492188 87.285156 L 216.5 87.285156 L 216.5 88.28125 Z M 213.492188 86.660156 L 213.492188 85.703125 L 216.5 85.703125 L 216.5 86.660156 Z M 213.492188 85.078125 L 213.492188 84.140625 L 216.5 84.140625 L 216.5 85.078125 Z M 209.917969 79.511719 C 209.46875 80.546875 208.726562 81.464844 207.730469 82.265625 L 207.964844 83.066406 C 209.195312 82.128906 210.074219 81.054688 210.621094 79.84375 Z M 210.132812 82.34375 C 209.605469 83.4375 208.765625 84.433594 207.59375 85.292969 L 207.828125 86.074219 C 208.21875 85.78125 208.589844 85.488281 208.941406 85.175781 L 208.941406 89.628906 L 209.722656 89.628906 L 209.722656 84.375 C 210.171875 83.847656 210.542969 83.28125 210.835938 82.675781 Z M 210.132812 82.34375 "/>
<path style=" stroke:none;fill-rule:nonzero;fill:rgb(0%,0%,0%);fill-opacity:1;" d="M 227.027344 82.96875 L 226.402344 83.359375 C 227.320312 84.511719 228.042969 85.546875 228.589844 86.484375 L 229.273438 86.015625 C 228.746094 85.136719 227.984375 84.140625 227.027344 82.96875 Z M 219.15625 83.457031 L 219.15625 84.238281 L 220.40625 84.238281 L 220.40625 87.128906 C 219.878906 87.265625 219.371094 87.382812 218.84375 87.460938 L 219.039062 88.242188 C 220.347656 87.949219 221.558594 87.578125 222.691406 87.148438 L 222.691406 86.367188 C 222.203125 86.5625 221.695312 86.738281 221.1875 86.894531 L 221.1875 84.238281 L 222.476562 84.238281 L 222.476562 83.457031 L 221.1875 83.457031 L 221.1875 81.035156 L 222.632812 81.035156 L 222.632812 80.234375 L 218.980469 80.234375 L 218.980469 81.035156 L 220.40625 81.035156 L 220.40625 83.457031 Z M 223.082031 79.921875 L 223.082031 80.703125 L 225.972656 80.703125 C 225.328125 82.753906 224.195312 84.511719 222.554688 85.976562 L 223.042969 86.601562 C 224.019531 85.742188 224.820312 84.765625 225.464844 83.671875 L 225.464844 89.667969 L 226.265625 89.667969 L 226.265625 82.128906 C 226.460938 81.660156 226.617188 81.191406 226.773438 80.703125 L 228.785156 80.703125 L 228.785156 79.921875 Z M 223.082031 79.921875 "/>
<path style=" stroke:none;fill-rule:nonzero;fill:rgb(0%,0%,0%);fill-opacity:1;" d="M 233.277344 83.671875 L 233.277344 84.394531 L 239.371094 84.394531 L 239.371094 83.671875 Z M 232.476562 85.507812 L 232.476562 86.25 L 234.9375 86.25 C 234.15625 87.519531 233.492188 88.300781 233.003906 88.59375 C 232.945312 88.613281 232.90625 88.652344 232.828125 88.671875 L 233.003906 89.355469 C 235.132812 89.21875 237.085938 89.023438 238.863281 88.789062 C 239.097656 89.0625 239.292969 89.355469 239.488281 89.648438 L 240.132812 89.199219 C 239.644531 88.476562 238.921875 87.617188 238.003906 86.640625 L 237.398438 87.011719 C 237.730469 87.402344 238.0625 87.773438 238.375 88.144531 C 236.929688 88.359375 235.464844 88.515625 233.980469 88.613281 C 234.507812 88.144531 235.113281 87.34375 235.796875 86.25 L 240.113281 86.25 L 240.113281 85.507812 Z M 238.746094 80.566406 L 238.746094 81.875 L 232.125 81.875 L 232.125 80.566406 Z M 232.125 82.597656 L 239.527344 82.597656 L 239.527344 79.804688 L 231.34375 79.804688 L 231.34375 83.535156 C 231.324219 85.800781 230.933594 87.636719 230.152344 89.0625 L 230.738281 89.609375 C 231.65625 87.910156 232.125 85.878906 232.125 83.535156 Z M 232.125 82.597656 "/>
<g clip-path="url(#clip2)" clip-rule="nonzero">
<path style=" stroke:none;fill-rule:nonzero;fill:rgb(0%,0%,0%);fill-opacity:1;" d="M 286.390625 84.359375 L 288.617188 82.132812 C 288.734375 81.996094 288.773438 81.976562 288.773438 81.898438 C 288.773438 81.761719 288.65625 81.664062 288.539062 81.664062 C 288.460938 81.664062 288.402344 81.703125 288.304688 81.820312 L 286.058594 84.046875 L 283.8125 81.820312 C 283.695312 81.683594 283.65625 81.664062 283.578125 81.664062 C 283.460938 81.664062 283.34375 81.761719 283.34375 81.898438 C 283.34375 81.976562 283.402344 82.035156 283.5 82.132812 L 285.726562 84.359375 L 283.5 86.605469 C 283.382812 86.703125 283.34375 86.78125 283.34375 86.839844 C 283.34375 86.976562 283.460938 87.074219 283.578125 87.074219 C 283.65625 87.074219 283.695312 87.054688 283.8125 86.917969 L 286.058594 84.691406 L 288.304688 86.917969 C 288.402344 87.035156 288.480469 87.074219 288.539062 87.074219 C 288.675781 87.074219 288.773438 86.976562 288.773438 86.839844 C 288.773438 86.761719 288.734375 86.742188 288.617188 86.605469 Z M 286.390625 84.359375 "/>
<path style=" stroke:none;fill-rule:nonzero;fill:rgb(0%,0%,0%);fill-opacity:1;" d="M 286.390625 84.359375 L 288.617188 82.132812 C 288.734375 81.996094 288.773438 81.976562 288.773438 81.898438 C 288.773438 81.761719 288.65625 81.664062 288.539062 81.664062 C 288.460938 81.664062 288.402344 81.703125 288.304688 81.820312 L 286.058594 84.046875 L 283.8125 81.820312 C 283.695312 81.683594 283.65625 81.664062 283.578125 81.664062 C 283.460938 81.664062 283.34375 81.761719 283.34375 81.898438 C 283.34375 81.976562 283.402344 82.035156 283.5 82.132812 L 285.726562 84.359375 L 283.5 86.605469 C 283.382812 86.703125 283.34375 86.78125 283.34375 86.839844 C 283.34375 86.976562 283.460938 87.074219 283.578125 87.074219 C 283.65625 87.074219 283.695312 87.054688 283.8125 86.917969 L 286.058594 84.691406 L 288.304688 86.917969 C 288.402344 87.035156 288.480469 87.074219 288.539062 87.074219 C 288.675781 87.074219 288.773438 86.976562 288.773438 86.839844 C 288.773438 86.761719 288.734375 86.742188 288.617188 86.605469 Z M 286.390625 84.359375 "/>
</g>
<path style=" stroke:none;fill-rule:nonzero;fill:rgb(0%,0%,0%);fill-opacity:1;" d="M 297.550781 85.996094 C 297.472656 86.09375 297.394531 86.191406 297.316406 86.289062 C 296.984375 86.699219 296.789062 86.875 296.632812 86.875 C 296.496094 86.875 296.457031 86.777344 296.457031 86.679688 C 296.457031 86.582031 296.496094 86.386719 296.613281 85.996094 L 297.238281 83.710938 C 297.296875 83.476562 297.355469 83.222656 297.355469 83.027344 C 297.355469 82.617188 297.101562 82.34375 296.613281 82.34375 C 295.890625 82.34375 295.148438 83.027344 294.015625 84.824219 L 294.777344 82.363281 L 294.71875 82.34375 C 294.132812 82.460938 293.820312 82.519531 292.902344 82.695312 L 292.902344 82.871094 C 293.46875 82.890625 293.644531 82.949219 293.644531 83.183594 C 293.644531 83.242188 293.625 83.320312 293.605469 83.359375 L 292.53125 87.304688 L 293.371094 87.304688 C 293.898438 85.527344 293.996094 85.273438 294.503906 84.511719 C 295.207031 83.476562 295.714844 82.910156 296.164062 82.910156 C 296.339844 82.910156 296.4375 83.046875 296.4375 83.242188 C 296.4375 83.378906 296.359375 83.789062 296.28125 84.140625 L 295.792969 85.957031 C 295.617188 86.542969 295.597656 86.679688 295.597656 86.796875 C 295.597656 87.226562 295.851562 87.402344 296.125 87.402344 C 296.652344 87.402344 296.945312 87.1875 297.707031 86.132812 Z M 297.550781 85.996094 "/>
<path style="fill:none;stroke-width:1;stroke-linecap:round;stroke-linejoin:round;stroke:rgb(0%,0%,0%);stroke-opacity:1;stroke-miterlimit:10;" d="M 585.4 245.434375 L 663 245.434375 L 663 263.434375 L 585.4 263.434375 Z M 585.4 245.434375 " transform="matrix(1.25,0,0,1.25,-556.25,-273.75)"/>
<path style=" stroke:none;fill-rule:nonzero;fill:rgb(0%,0%,0%);fill-opacity:1;" d="M 206.832031 39.507812 C 205.523438 40.933594 203.882812 42.125 201.910156 43.082031 L 202.300781 43.785156 C 204.292969 42.789062 205.894531 41.597656 207.125 40.25 C 208.453125 41.675781 210.035156 42.828125 211.910156 43.726562 L 212.320312 43.003906 C 210.464844 42.144531 208.84375 40.992188 207.417969 39.507812 Z M 203.980469 43.0625 L 203.980469 43.84375 L 206.714844 43.84375 L 206.714844 45.796875 L 203.453125 45.796875 L 203.453125 46.578125 L 206.714844 46.578125 L 206.714844 48.648438 L 202.4375 48.648438 L 202.4375 49.449219 L 211.8125 49.449219 L 211.8125 48.648438 L 207.535156 48.648438 L 207.535156 46.578125 L 210.796875 46.578125 L 210.796875 45.796875 L 207.535156 45.796875 L 207.535156 43.84375 L 210.269531 43.84375 L 210.269531 43.0625 Z M 203.980469 43.0625 "/>
<path style=" stroke:none;fill-rule:nonzero;fill:rgb(0%,0%,0%);fill-opacity:1;" d="M 214.195312 39.664062 L 213.648438 40.191406 C 214.429688 40.835938 215.074219 41.421875 215.523438 41.96875 L 216.109375 41.402344 C 215.582031 40.816406 214.9375 40.25 214.195312 39.664062 Z M 220.71875 49.585938 L 223.296875 49.585938 L 223.492188 48.785156 C 223.199219 48.804688 222.769531 48.804688 222.242188 48.824219 C 221.675781 48.84375 221.148438 48.84375 220.621094 48.84375 C 219.742188 48.84375 219.019531 48.84375 218.433594 48.824219 C 217.769531 48.804688 217.28125 48.707031 216.929688 48.550781 C 216.617188 48.414062 216.34375 48.179688 216.070312 47.847656 C 215.972656 47.75 215.894531 47.652344 215.796875 47.59375 L 215.796875 43.375 L 213.433594 43.375 L 213.433594 44.117188 L 215.054688 44.117188 L 215.054688 47.535156 C 214.585938 47.75 214.058594 48.316406 213.453125 49.273438 L 214.058594 49.820312 C 214.683594 48.785156 215.132812 48.257812 215.386719 48.257812 C 215.523438 48.257812 215.679688 48.355469 215.816406 48.550781 C 216.167969 48.941406 216.558594 49.234375 217.007812 49.371094 C 217.457031 49.488281 218.023438 49.566406 218.746094 49.566406 C 219.449219 49.585938 220.113281 49.585938 220.71875 49.585938 Z M 216.578125 40.640625 L 216.578125 41.382812 L 218.0625 41.382812 C 217.691406 42.183594 217.28125 42.867188 216.832031 43.394531 L 217.007812 44.136719 L 219.605469 44.136719 L 219.605469 45.484375 L 216.480469 45.484375 L 216.480469 46.246094 L 219.605469 46.246094 L 219.605469 48.335938 L 220.386719 48.335938 L 220.386719 46.246094 L 223.316406 46.246094 L 223.316406 45.484375 L 220.386719 45.484375 L 220.386719 44.136719 L 222.828125 44.136719 L 222.828125 43.394531 L 220.386719 43.394531 L 220.386719 42.066406 L 219.605469 42.066406 L 219.605469 43.394531 L 217.789062 43.394531 C 218.199219 42.808594 218.570312 42.144531 218.921875 41.382812 L 223.179688 41.382812 L 223.179688 40.640625 L 219.234375 40.640625 C 219.371094 40.289062 219.488281 39.957031 219.605469 39.585938 L 218.84375 39.390625 C 218.707031 39.820312 218.550781 40.25 218.394531 40.640625 Z M 216.578125 40.640625 "/>
<path style=" stroke:none;fill-rule:nonzero;fill:rgb(0%,0%,0%);fill-opacity:1;" d="M 229.957031 41.382812 L 229.292969 41.695312 C 229.527344 42.105469 229.742188 42.554688 229.976562 43.042969 L 228.257812 43.042969 L 228.257812 43.824219 L 234.527344 43.824219 L 234.527344 43.042969 L 232.710938 43.042969 C 232.964844 42.59375 233.199219 42.085938 233.414062 41.519531 L 232.652344 41.246094 C 232.417969 41.890625 232.164062 42.476562 231.851562 43.042969 L 230.757812 43.042969 C 230.503906 42.4375 230.25 41.890625 229.957031 41.382812 Z M 231.441406 39.410156 L 230.601562 39.546875 C 230.71875 39.820312 230.855469 40.132812 230.992188 40.484375 L 228.511719 40.484375 L 228.511719 41.226562 L 234.332031 41.226562 L 234.332031 40.484375 L 231.8125 40.484375 C 231.675781 40.09375 231.558594 39.722656 231.441406 39.410156 Z M 225.816406 49.683594 C 226.480469 49.683594 226.832031 49.371094 226.832031 48.707031 L 226.832031 45.386719 C 227.144531 45.230469 227.457031 45.074219 227.769531 44.917969 L 227.769531 44.097656 C 227.457031 44.253906 227.144531 44.410156 226.832031 44.566406 L 226.832031 42.417969 L 227.75 42.417969 L 227.75 41.636719 L 226.832031 41.636719 L 226.832031 39.507812 L 225.992188 39.507812 L 225.992188 41.636719 L 224.625 41.636719 L 224.625 42.417969 L 225.992188 42.417969 L 225.992188 44.917969 C 225.464844 45.132812 224.9375 45.289062 224.410156 45.425781 L 224.625 46.246094 C 225.074219 46.089844 225.542969 45.914062 225.992188 45.738281 L 225.992188 48.511719 C 225.992188 48.804688 225.835938 48.941406 225.542969 48.941406 C 225.269531 48.941406 224.976562 48.921875 224.683594 48.902344 L 224.839844 49.683594 Z M 230.445312 44.136719 C 230.328125 44.449219 230.191406 44.761719 230.035156 45.09375 L 228.101562 45.09375 L 228.101562 45.894531 L 229.605469 45.894531 C 229.371094 46.324219 229.117188 46.753906 228.804688 47.222656 C 229.585938 47.535156 230.328125 47.828125 231.011719 48.160156 C 230.308594 48.550781 229.292969 48.863281 227.984375 49.097656 L 228.316406 49.839844 C 229.9375 49.527344 231.109375 49.078125 231.851562 48.550781 C 232.75 48.980469 233.53125 49.390625 234.195312 49.800781 L 234.644531 49.15625 C 233.941406 48.746094 233.199219 48.355469 232.417969 48.003906 C 232.945312 47.4375 233.296875 46.714844 233.472656 45.894531 L 234.703125 45.894531 L 234.703125 45.09375 L 230.855469 45.09375 C 230.992188 44.820312 231.109375 44.527344 231.226562 44.214844 Z M 232.710938 45.894531 C 232.535156 46.617188 232.183594 47.203125 231.675781 47.671875 C 231.070312 47.398438 230.445312 47.144531 229.800781 46.890625 C 230.015625 46.578125 230.230469 46.246094 230.425781 45.894531 Z M 232.710938 45.894531 "/>
<path style=" stroke:none;fill-rule:nonzero;fill:rgb(0%,0%,0%);fill-opacity:1;" d="M 238.902344 43.785156 L 238.902344 44.507812 L 244.996094 44.507812 L 244.996094 43.785156 Z M 238.101562 45.621094 L 238.101562 46.363281 L 240.5625 46.363281 C 239.78125 47.632812 239.117188 48.414062 238.628906 48.707031 C 238.570312 48.726562 238.53125 48.765625 238.453125 48.785156 L 238.628906 49.46875 C 240.757812 49.332031 242.710938 49.136719 244.488281 48.902344 C 244.722656 49.175781 244.917969 49.46875 245.113281 49.761719 L 245.757812 49.3125 C 245.269531 48.589844 244.546875 47.730469 243.628906 46.753906 L 243.023438 47.125 C 243.355469 47.515625 243.6875 47.886719 244 48.257812 C 242.554688 48.472656 241.089844 48.628906 239.605469 48.726562 C 240.132812 48.257812 240.738281 47.457031 241.421875 46.363281 L 245.738281 46.363281 L 245.738281 45.621094 Z M 244.371094 40.679688 L 244.371094 41.988281 L 237.75 41.988281 L 237.75 40.679688 Z M 237.75 42.710938 L 245.152344 42.710938 L 245.152344 39.917969 L 236.96875 39.917969 L 236.96875 43.648438 C 236.949219 45.914062 236.558594 47.75 235.777344 49.175781 L 236.363281 49.722656 C 237.28125 48.023438 237.75 45.992188 237.75 43.648438 Z M 237.75 42.710938 "/>
<path style="fill:none;stroke-width:1;stroke-linecap:round;stroke-linejoin:round;stroke:rgb(0%,0%,0%);stroke-opacity:1;stroke-miterlimit:10;" d="M 624.2 277.34375 L 624.2 269.33125 " transform="matrix(1.25,0,0,1.25,-556.25,-273.75)"/>
<path style="fill:none;stroke-width:1;stroke-linecap:butt;stroke-linejoin:miter;stroke:rgb(0%,0%,0%);stroke-opacity:1;stroke-miterlimit:10;" d="M 624.2 265.33125 L 624.2 269.33125 M 622.7 269.33125 L 624.2 265.33125 L 625.7 269.33125 " transform="matrix(1.25,0,0,1.25,-556.25,-273.75)"/>
</g>
</svg>
