<?xml version="1.0" encoding="UTF-8"?>
<svg xmlns="http://www.w3.org/2000/svg" xmlns:xlink="http://www.w3.org/1999/xlink" width="295pt" height="130pt" viewBox="0 0 295 130" version="1.1">
<g id="surface1">
<path style="fill:none;stroke-width:1;stroke-linecap:round;stroke-linejoin:round;stroke:rgb(0%,0%,0%);stroke-opacity:1;stroke-miterlimit:10;" d="M 142.6 48 L 237.8 48 L 237.8 150 L 142.6 150 Z M 142.6 48 " transform="matrix(1.25,0,0,1.25,-177.5,-58.75)"/>
<path style=" stroke:none;fill-rule:nonzero;fill:rgb(0%,0%,0%);fill-opacity:1;" d="M 44.558594 119.238281 L 45.515625 119.375 C 45.554688 119.671875 45.660156 119.886719 45.847656 120.019531 C 46.089844 120.199219 46.433594 120.292969 46.863281 120.292969 C 47.316406 120.292969 47.667969 120.199219 47.917969 120.019531 C 48.160156 119.835938 48.332031 119.578125 48.425781 119.257812 C 48.472656 119.046875 48.492188 118.628906 48.484375 117.988281 C 48.054688 118.496094 47.515625 118.75 46.882812 118.75 C 46.070312 118.75 45.445312 118.46875 45.007812 117.890625 C 44.578125 117.304688 44.363281 116.609375 44.363281 115.800781 C 44.363281 115.242188 44.460938 114.726562 44.65625 114.257812 C 44.859375 113.789062 45.152344 113.433594 45.535156 113.183594 C 45.910156 112.925781 46.359375 112.792969 46.882812 112.792969 C 47.570312 112.792969 48.136719 113.066406 48.582031 113.613281 L 48.582031 112.910156 L 49.5 112.910156 L 49.5 117.949219 C 49.5 118.859375 49.402344 119.5 49.207031 119.882812 C 49.019531 120.257812 48.726562 120.554688 48.328125 120.78125 C 47.9375 121 47.449219 121.113281 46.863281 121.113281 C 46.160156 121.113281 45.59375 120.957031 45.164062 120.644531 C 44.742188 120.332031 44.542969 119.863281 44.558594 119.238281 Z M 45.378906 115.722656 C 45.378906 116.492188 45.523438 117.050781 45.828125 117.402344 C 46.125 117.753906 46.5 117.929688 46.960938 117.929688 C 47.414062 117.929688 47.800781 117.753906 48.113281 117.402344 C 48.425781 117.050781 48.582031 116.503906 48.582031 115.761719 C 48.582031 115.046875 48.414062 114.507812 48.09375 114.140625 C 47.78125 113.78125 47.398438 113.59375 46.960938 113.59375 C 46.515625 113.59375 46.140625 113.78125 45.828125 114.140625 C 45.523438 114.492188 45.378906 115.019531 45.378906 115.722656 Z M 45.378906 115.722656 "/>
<path style=" stroke:none;fill-rule:nonzero;fill:rgb(0%,0%,0%);fill-opacity:1;" d="M 50.988281 120.976562 L 50.988281 112.910156 L 51.886719 112.910156 L 51.886719 113.671875 C 52.09375 113.375 52.328125 113.15625 52.589844 113.007812 C 52.863281 112.867188 53.195312 112.792969 53.585938 112.792969 C 54.082031 112.792969 54.515625 112.925781 54.894531 113.183594 C 55.273438 113.433594 55.558594 113.789062 55.753906 114.257812 C 55.949219 114.726562 56.046875 115.234375 56.046875 115.78125 C 56.046875 116.382812 55.9375 116.921875 55.714844 117.402344 C 55.507812 117.886719 55.199219 118.257812 54.796875 118.515625 C 54.394531 118.757812 53.964844 118.886719 53.507812 118.886719 C 53.183594 118.886719 52.890625 118.8125 52.628906 118.671875 C 52.367188 118.53125 52.152344 118.355469 51.984375 118.144531 L 51.984375 120.976562 Z M 51.886719 115.859375 C 51.886719 116.617188 52.035156 117.179688 52.335938 117.539062 C 52.648438 117.890625 53.019531 118.066406 53.449219 118.066406 C 53.878906 118.066406 54.25 117.886719 54.5625 117.519531 C 54.886719 117.144531 55.050781 116.5625 55.050781 115.78125 C 55.050781 115.039062 54.894531 114.488281 54.582031 114.121094 C 54.28125 113.746094 53.917969 113.554688 53.488281 113.554688 C 53.070312 113.554688 52.699219 113.757812 52.375 114.160156 C 52.050781 114.550781 51.886719 115.117188 51.886719 115.859375 Z M 51.886719 115.859375 "/>
<path style=" stroke:none;fill-rule:nonzero;fill:rgb(0%,0%,0%);fill-opacity:1;" d="M 61.074219 118.75 L 61.074219 117.890625 C 60.617188 118.554688 60 118.886719 59.21875 118.886719 C 58.878906 118.886719 58.558594 118.820312 58.261719 118.691406 C 57.960938 118.550781 57.734375 118.378906 57.578125 118.183594 C 57.433594 117.988281 57.335938 117.75 57.285156 117.460938 C 57.246094 117.265625 57.226562 116.953125 57.226562 116.523438 L 57.226562 112.910156 L 58.203125 112.910156 L 58.203125 116.152344 C 58.203125 116.675781 58.226562 117.023438 58.28125 117.1875 C 58.332031 117.453125 58.457031 117.65625 58.652344 117.8125 C 58.859375 117.960938 59.113281 118.027344 59.414062 118.027344 C 59.710938 118.027344 59.992188 117.960938 60.253906 117.8125 C 60.511719 117.65625 60.695312 117.453125 60.800781 117.1875 C 60.902344 116.929688 60.957031 116.542969 60.957031 116.035156 L 60.957031 112.910156 L 61.953125 112.910156 L 61.953125 118.75 Z M 61.074219 118.75 "/>
<path style=" stroke:none;fill-rule:nonzero;fill:rgb(0%,0%,0%);fill-opacity:1;" d="M 65.398438 121.113281 C 64.851562 120.421875 64.386719 119.617188 64.011719 118.710938 C 63.632812 117.789062 63.445312 116.832031 63.445312 115.839844 C 63.445312 114.96875 63.585938 114.132812 63.875 113.320312 C 64.199219 112.398438 64.707031 111.480469 65.398438 110.566406 L 66.101562 110.566406 C 65.65625 111.324219 65.363281 111.867188 65.222656 112.1875 C 65 112.695312 64.824219 113.222656 64.695312 113.769531 C 64.539062 114.460938 64.460938 115.152344 64.460938 115.839844 C 64.460938 117.597656 65.007812 119.355469 66.101562 121.113281 Z M 65.398438 121.113281 "/>
<path style=" stroke:none;fill-rule:nonzero;fill:rgb(0%,0%,0%);fill-opacity:1;" d="M 66.976562 114.785156 C 66.976562 113.835938 67.074219 113.066406 67.269531 112.480469 C 67.464844 111.894531 67.75 111.445312 68.128906 111.132812 C 68.519531 110.820312 69.007812 110.664062 69.59375 110.664062 C 70.035156 110.664062 70.417969 110.757812 70.746094 110.9375 C 71.070312 111.109375 71.335938 111.359375 71.546875 111.679688 C 71.753906 112.007812 71.917969 112.402344 72.035156 112.871094 C 72.164062 113.339844 72.230469 113.980469 72.230469 114.785156 C 72.230469 115.722656 72.132812 116.484375 71.9375 117.070312 C 71.742188 117.648438 71.449219 118.09375 71.058594 118.417969 C 70.679688 118.730469 70.191406 118.886719 69.59375 118.886719 C 68.824219 118.886719 68.21875 118.609375 67.777344 118.046875 C 67.242188 117.382812 66.976562 116.296875 66.976562 114.785156 Z M 67.992188 114.785156 C 67.992188 116.101562 68.140625 116.984375 68.441406 117.421875 C 68.753906 117.851562 69.136719 118.066406 69.59375 118.066406 C 70.046875 118.066406 70.433594 117.851562 70.746094 117.421875 C 71.058594 116.984375 71.214844 116.101562 71.214844 114.785156 C 71.214844 113.457031 71.058594 112.578125 70.746094 112.148438 C 70.433594 111.710938 70.046875 111.484375 69.59375 111.484375 C 69.136719 111.484375 68.773438 111.675781 68.5 112.050781 C 68.160156 112.546875 67.992188 113.457031 67.992188 114.785156 Z M 67.992188 114.785156 "/>
<path style=" stroke:none;fill-rule:nonzero;fill:rgb(0%,0%,0%);fill-opacity:1;" d="M 74.152344 121.113281 L 73.449219 121.113281 C 74.542969 119.355469 75.089844 117.597656 75.089844 115.839844 C 75.089844 115.152344 75.011719 114.46875 74.855469 113.789062 C 74.722656 113.242188 74.546875 112.714844 74.328125 112.207031 C 74.179688 111.882812 73.886719 111.335938 73.449219 110.566406 L 74.152344 110.566406 C 74.839844 111.480469 75.347656 112.398438 75.675781 113.320312 C 75.957031 114.132812 76.105469 114.96875 76.105469 115.839844 C 76.105469 116.832031 75.914062 117.789062 75.539062 118.710938 C 75.15625 119.617188 74.699219 120.421875 74.152344 121.113281 Z M 74.152344 121.113281 "/>
<path style=" stroke:none;fill-rule:nonzero;fill:rgb(40%,74.901961%,100%);fill-opacity:1;" d="M 19.3125 99.875 L 51.1875 99.875 L 51.1875 68 L 19.3125 68 Z M 19.3125 99.875 "/>
<path style="fill:none;stroke-width:1;stroke-linecap:round;stroke-linejoin:round;stroke:rgb(0%,0%,0%);stroke-opacity:1;stroke-miterlimit:10;" d="M 157.45 101.4 L 182.95 101.4 L 182.95 126.9 L 157.45 126.9 Z M 157.45 101.4 " transform="matrix(1.25,0,0,1.25,-177.5,-58.75)"/>
<path style=" stroke:none;fill-rule:nonzero;fill:rgb(0%,0%,0%);fill-opacity:1;" d="M 39.058594 87.0625 L 39.058594 86.789062 C 38.667969 86.769531 38.492188 86.632812 37.964844 85.8125 L 35.914062 82.628906 L 36.8125 81.378906 C 37.789062 80.011719 38.082031 79.816406 38.921875 79.738281 L 38.921875 79.464844 L 36.109375 79.464844 L 36.109375 79.738281 L 36.34375 79.757812 C 36.773438 79.796875 36.929688 79.894531 36.929688 80.148438 C 36.929688 80.402344 36.792969 80.617188 36.265625 81.339844 L 35.640625 82.21875 L 34.546875 80.519531 C 34.410156 80.304688 34.390625 80.246094 34.390625 80.109375 C 34.390625 79.875 34.507812 79.777344 34.917969 79.757812 L 35.269531 79.738281 L 35.269531 79.464844 L 31.382812 79.464844 L 31.382812 79.738281 C 31.792969 79.777344 31.929688 79.894531 32.28125 80.382812 L 34.507812 83.664062 L 32.535156 86.144531 C 32.203125 86.574219 31.929688 86.710938 31.363281 86.789062 L 31.363281 87.0625 L 34.175781 87.0625 L 34.175781 86.789062 C 33.492188 86.710938 33.277344 86.59375 33.277344 86.300781 C 33.277344 86.066406 33.492188 85.714844 34.332031 84.582031 L 34.761719 84.015625 L 35.894531 85.832031 C 36.03125 86.046875 36.128906 86.300781 36.128906 86.4375 C 36.128906 86.632812 35.933594 86.730469 35.542969 86.75 L 35.230469 86.789062 L 35.230469 87.0625 Z M 39.058594 87.0625 "/>
<path style="fill:none;stroke-width:1;stroke-linecap:round;stroke-linejoin:round;stroke:rgb(0%,0%,0%);stroke-opacity:1;stroke-miterlimit:10;" d="M 281.6 48 L 376.8 48 L 376.8 150 L 281.6 150 Z M 281.6 48 " transform="matrix(1.25,0,0,1.25,-177.5,-58.75)"/>
<path style=" stroke:none;fill-rule:nonzero;fill:rgb(0%,0%,0%);fill-opacity:1;" d="M 218.308594 119.238281 L 219.265625 119.375 C 219.304688 119.671875 219.410156 119.886719 219.597656 120.019531 C 219.839844 120.199219 220.183594 120.292969 220.613281 120.292969 C 221.066406 120.292969 221.417969 120.199219 221.667969 120.019531 C 221.910156 119.835938 222.082031 119.578125 222.175781 119.257812 C 222.222656 119.046875 222.242188 118.628906 222.234375 117.988281 C 221.804688 118.496094 221.265625 118.75 220.632812 118.75 C 219.820312 118.75 219.195312 118.46875 218.757812 117.890625 C 218.328125 117.304688 218.113281 116.609375 218.113281 115.800781 C 218.113281 115.242188 218.210938 114.726562 218.40625 114.257812 C 218.609375 113.789062 218.902344 113.433594 219.285156 113.183594 C 219.660156 112.925781 220.109375 112.792969 220.632812 112.792969 C 221.320312 112.792969 221.886719 113.066406 222.332031 113.613281 L 222.332031 112.910156 L 223.25 112.910156 L 223.25 117.949219 C 223.25 118.859375 223.152344 119.5 222.957031 119.882812 C 222.769531 120.257812 222.476562 120.554688 222.078125 120.78125 C 221.6875 121 221.199219 121.113281 220.613281 121.113281 C 219.910156 121.113281 219.34375 120.957031 218.914062 120.644531 C 218.492188 120.332031 218.292969 119.863281 218.308594 119.238281 Z M 219.128906 115.722656 C 219.128906 116.492188 219.273438 117.050781 219.578125 117.402344 C 219.875 117.753906 220.25 117.929688 220.710938 117.929688 C 221.164062 117.929688 221.550781 117.753906 221.863281 117.402344 C 222.175781 117.050781 222.332031 116.503906 222.332031 115.761719 C 222.332031 115.046875 222.164062 114.507812 221.84375 114.140625 C 221.53125 113.78125 221.148438 113.59375 220.710938 113.59375 C 220.265625 113.59375 219.890625 113.78125 219.578125 114.140625 C 219.273438 114.492188 219.128906 115.019531 219.128906 115.722656 Z M 219.128906 115.722656 "/>
<path style=" stroke:none;fill-rule:nonzero;fill:rgb(0%,0%,0%);fill-opacity:1;" d="M 224.738281 120.976562 L 224.738281 112.910156 L 225.636719 112.910156 L 225.636719 113.671875 C 225.84375 113.375 226.078125 113.15625 226.339844 113.007812 C 226.613281 112.867188 226.945312 112.792969 227.335938 112.792969 C 227.832031 112.792969 228.265625 112.925781 228.644531 113.183594 C 229.023438 113.433594 229.308594 113.789062 229.503906 114.257812 C 229.699219 114.726562 229.796875 115.234375 229.796875 115.78125 C 229.796875 116.382812 229.6875 116.921875 229.464844 117.402344 C 229.257812 117.886719 228.949219 118.257812 228.546875 118.515625 C 228.144531 118.757812 227.714844 118.886719 227.257812 118.886719 C 226.933594 118.886719 226.640625 118.8125 226.378906 118.671875 C 226.117188 118.53125 225.902344 118.355469 225.734375 118.144531 L 225.734375 120.976562 Z M 225.636719 115.859375 C 225.636719 116.617188 225.785156 117.179688 226.085938 117.539062 C 226.398438 117.890625 226.769531 118.066406 227.199219 118.066406 C 227.628906 118.066406 228 117.886719 228.3125 117.519531 C 228.636719 117.144531 228.800781 116.5625 228.800781 115.78125 C 228.800781 115.039062 228.644531 114.488281 228.332031 114.121094 C 228.03125 113.746094 227.667969 113.554688 227.238281 113.554688 C 226.820312 113.554688 226.449219 113.757812 226.125 114.160156 C 225.800781 114.550781 225.636719 115.117188 225.636719 115.859375 Z M 225.636719 115.859375 "/>
<path style=" stroke:none;fill-rule:nonzero;fill:rgb(0%,0%,0%);fill-opacity:1;" d="M 234.824219 118.75 L 234.824219 117.890625 C 234.367188 118.554688 233.75 118.886719 232.96875 118.886719 C 232.628906 118.886719 232.308594 118.820312 232.011719 118.691406 C 231.710938 118.550781 231.484375 118.378906 231.328125 118.183594 C 231.183594 117.988281 231.085938 117.75 231.035156 117.460938 C 230.996094 117.265625 230.976562 116.953125 230.976562 116.523438 L 230.976562 112.910156 L 231.953125 112.910156 L 231.953125 116.152344 C 231.953125 116.675781 231.976562 117.023438 232.03125 117.1875 C 232.082031 117.453125 232.207031 117.65625 232.402344 117.8125 C 232.609375 117.960938 232.863281 118.027344 233.164062 118.027344 C 233.460938 118.027344 233.742188 117.960938 234.003906 117.8125 C 234.261719 117.65625 234.445312 117.453125 234.550781 117.1875 C 234.652344 116.929688 234.707031 116.542969 234.707031 116.035156 L 234.707031 112.910156 L 235.703125 112.910156 L 235.703125 118.75 Z M 234.824219 118.75 "/>
<path style=" stroke:none;fill-rule:nonzero;fill:rgb(0%,0%,0%);fill-opacity:1;" d="M 239.148438 121.113281 C 238.601562 120.421875 238.136719 119.617188 237.761719 118.710938 C 237.382812 117.789062 237.195312 116.832031 237.195312 115.839844 C 237.195312 114.96875 237.335938 114.132812 237.625 113.320312 C 237.949219 112.398438 238.457031 111.480469 239.148438 110.566406 L 239.851562 110.566406 C 239.40625 111.324219 239.113281 111.867188 238.972656 112.1875 C 238.75 112.695312 238.574219 113.222656 238.445312 113.769531 C 238.289062 114.460938 238.210938 115.152344 238.210938 115.839844 C 238.210938 117.597656 238.757812 119.355469 239.851562 121.113281 Z M 239.148438 121.113281 "/>
<path style=" stroke:none;fill-rule:nonzero;fill:rgb(0%,0%,0%);fill-opacity:1;" d="M 244.457031 118.75 L 243.460938 118.75 L 243.460938 112.441406 C 243.226562 112.675781 242.914062 112.910156 242.523438 113.144531 C 242.132812 113.367188 241.785156 113.53125 241.488281 113.632812 L 241.488281 112.675781 C 242.035156 112.429688 242.515625 112.125 242.933594 111.757812 C 243.347656 111.382812 243.640625 111.015625 243.8125 110.664062 L 244.457031 110.664062 Z M 244.457031 118.75 "/>
<path style=" stroke:none;fill-rule:nonzero;fill:rgb(0%,0%,0%);fill-opacity:1;" d="M 247.902344 121.113281 L 247.199219 121.113281 C 248.292969 119.355469 248.839844 117.597656 248.839844 115.839844 C 248.839844 115.152344 248.761719 114.46875 248.605469 113.789062 C 248.472656 113.242188 248.296875 112.714844 248.078125 112.207031 C 247.929688 111.882812 247.636719 111.335938 247.199219 110.566406 L 247.902344 110.566406 C 248.589844 111.480469 249.097656 112.398438 249.425781 113.320312 C 249.707031 114.132812 249.855469 114.96875 249.855469 115.839844 C 249.855469 116.832031 249.664062 117.789062 249.289062 118.710938 C 248.90625 119.617188 248.449219 120.421875 247.902344 121.113281 Z M 247.902344 121.113281 "/>
<path style=" stroke:none;fill-rule:nonzero;fill:rgb(40%,74.901961%,100%);fill-opacity:1;" d="M 192.0625 99.875 L 223.9375 99.875 L 223.9375 68 L 192.0625 68 Z M 192.0625 99.875 "/>
<path style="fill:none;stroke-width:1;stroke-linecap:round;stroke-linejoin:round;stroke:rgb(0%,0%,0%);stroke-opacity:1;stroke-miterlimit:10;" d="M 295.65 101.4 L 321.15 101.4 L 321.15 126.9 L 295.65 126.9 Z M 295.65 101.4 " transform="matrix(1.25,0,0,1.25,-177.5,-58.75)"/>
<path style=" stroke:none;fill-rule:nonzero;fill:rgb(0%,0%,0%);fill-opacity:1;" d="M 211.378906 84.347656 L 211.085938 84.347656 C 210.773438 85.304688 210.617188 85.773438 209.992188 86.222656 C 209.523438 86.554688 208.78125 86.671875 207.707031 86.671875 L 206.789062 86.671875 L 211.046875 79.640625 L 211.046875 79.464844 L 205.167969 79.464844 L 204.914062 81.789062 L 205.226562 81.789062 C 205.734375 80.167969 206.203125 79.953125 207.921875 79.894531 L 208.859375 79.855469 L 204.5625 86.886719 L 204.5625 87.0625 L 211.085938 87.0625 Z M 211.378906 84.347656 "/>
<path style=" stroke:none;fill-rule:nonzero;fill:rgb(40%,74.901961%,100%);fill-opacity:1;" d="M 244.0625 99.875 L 275.9375 99.875 L 275.9375 68 L 244.0625 68 Z M 244.0625 99.875 "/>
<path style="fill:none;stroke-width:1;stroke-linecap:round;stroke-linejoin:round;stroke:rgb(0%,0%,0%);stroke-opacity:1;stroke-miterlimit:10;" d="M 337.25 101.4 L 362.75 101.4 L 362.75 126.9 L 337.25 126.9 Z M 337.25 101.4 " transform="matrix(1.25,0,0,1.25,-177.5,-58.75)"/>
<path style=" stroke:none;fill-rule:nonzero;fill:rgb(0%,0%,0%);fill-opacity:1;" d="M 263.808594 79.464844 L 261.328125 79.464844 L 261.328125 79.738281 C 262.089844 79.796875 262.265625 79.894531 262.265625 80.207031 C 262.265625 80.441406 262.109375 80.871094 261.816406 81.359375 L 260.585938 83.351562 L 259.238281 80.753906 C 259.101562 80.5 258.964844 80.1875 258.964844 80.089844 C 258.964844 79.835938 259.121094 79.796875 259.570312 79.757812 L 259.882812 79.738281 L 259.882812 79.464844 L 256.113281 79.464844 L 256.113281 79.738281 C 256.484375 79.757812 256.835938 80.011719 257.03125 80.402344 L 259.0625 84.09375 L 259.0625 85.617188 C 259.0625 86.457031 258.945312 86.710938 258.027344 86.789062 L 258.027344 87.0625 L 261.914062 87.0625 L 261.914062 86.789062 C 261.035156 86.710938 260.878906 86.554688 260.878906 85.675781 L 260.878906 83.683594 L 263.027344 80.167969 C 263.203125 79.914062 263.417969 79.796875 263.808594 79.738281 Z M 263.808594 79.464844 "/>
<path style="fill-rule:nonzero;fill:rgb(69.803922%,85.098039%,100%);fill-opacity:1;stroke-width:1;stroke-linecap:round;stroke-linejoin:round;stroke:rgb(0%,0%,0%);stroke-opacity:1;stroke-miterlimit:10;" d="M 338.215625 64.13125 C 343.19375 69.1125 343.19375 77.1875 338.215625 82.1625 C 333.2375 87.14375 325.1625 87.14375 320.184375 82.1625 C 315.20625 77.1875 315.20625 69.1125 320.184375 64.13125 C 325.1625 59.15625 333.2375 59.15625 338.215625 64.13125 " transform="matrix(1.25,0,0,1.25,-177.5,-58.75)"/>
<path style=" stroke:none;fill-rule:nonzero;fill:rgb(0%,0%,0%);fill-opacity:1;" d="M 233.917969 34.945312 L 233.917969 32.738281 L 231.730469 32.738281 L 231.730469 31.820312 L 233.917969 31.820312 L 233.917969 29.632812 L 234.855469 29.632812 L 234.855469 31.820312 L 237.042969 31.820312 L 237.042969 32.738281 L 234.855469 32.738281 L 234.855469 34.945312 Z M 233.917969 34.945312 "/>
<path style="fill:none;stroke-width:1;stroke-linecap:round;stroke-linejoin:miter;stroke:rgb(0%,0%,0%);stroke-opacity:1;stroke-miterlimit:10;" d="M 314.86875 101.4 L 320.7625 89.784375 " transform="matrix(1.25,0,0,1.25,-177.5,-58.75)"/>
<path style="fill:none;stroke-width:1;stroke-linecap:butt;stroke-linejoin:miter;stroke:rgb(0%,0%,0%);stroke-opacity:1;stroke-miterlimit:10;" d="M 322.56875 86.21875 L 320.7625 89.784375 M 319.421875 89.10625 L 322.56875 86.21875 L 322.096875 90.465625 " transform="matrix(1.25,0,0,1.25,-177.5,-58.75)"/>
<path style="fill:none;stroke-width:1;stroke-linecap:round;stroke-linejoin:miter;stroke:rgb(0%,0%,0%);stroke-opacity:1;stroke-miterlimit:10;" d="M 343.53125 101.4 L 337.640625 89.784375 " transform="matrix(1.25,0,0,1.25,-177.5,-58.75)"/>
<path style="fill:none;stroke-width:1;stroke-linecap:butt;stroke-linejoin:miter;stroke:rgb(0%,0%,0%);stroke-opacity:1;stroke-miterlimit:10;" d="M 335.828125 86.21875 L 337.640625 89.784375 M 336.3 90.465625 L 335.828125 86.21875 L 338.975 89.10625 " transform="matrix(1.25,0,0,1.25,-177.5,-58.75)"/>
<path style="fill:none;stroke-width:1;stroke-linecap:round;stroke-linejoin:miter;stroke:rgb(0%,0%,0%);stroke-opacity:1;stroke-miterlimit:10;" d="M 182.95 114.15 L 289.75 114.15 " transform="matrix(1.25,0,0,1.25,-177.5,-58.75)"/>
<path style="fill:none;stroke-width:1;stroke-linecap:butt;stroke-linejoin:miter;stroke:rgb(0%,0%,0%);stroke-opacity:1;stroke-miterlimit:10;" d="M 293.75 114.15 L 289.75 114.15 M 289.75 112.65 L 293.75 114.15 L 289.75 115.65 " transform="matrix(1.25,0,0,1.25,-177.5,-58.75)"/>
<path style=" stroke:none;fill-rule:nonzero;fill:rgb(0%,0%,0%);fill-opacity:1;" d="M 139.5 73.09375 L 146.453125 73.09375 L 146.453125 72.390625 L 139.871094 72.390625 C 139.988281 72.136719 140.085938 71.863281 140.183594 71.589844 L 139.382812 71.453125 C 138.953125 72.722656 138.171875 73.777344 137.019531 74.65625 L 137.507812 75.28125 C 137.996094 74.910156 138.425781 74.5 138.796875 74.070312 L 138.796875 77.429688 L 140.242188 77.429688 C 139.636719 78.25 138.699219 78.914062 137.390625 79.421875 L 137.820312 80.105469 C 138.40625 79.832031 138.933594 79.539062 139.382812 79.226562 C 139.988281 79.753906 140.691406 80.203125 141.453125 80.574219 C 140.28125 80.90625 138.894531 81.101562 137.273438 81.179688 L 137.585938 81.882812 C 139.480469 81.765625 141.082031 81.472656 142.410156 80.984375 C 143.679688 81.472656 145.164062 81.765625 146.804688 81.84375 L 147 81.101562 C 145.671875 81.0625 144.460938 80.867188 143.367188 80.554688 C 144.304688 80.085938 145.046875 79.5 145.59375 78.777344 L 145.59375 78.191406 L 140.554688 78.191406 C 140.769531 77.957031 140.945312 77.703125 141.121094 77.429688 L 145.574219 77.429688 L 145.574219 73.875 L 138.953125 73.875 C 139.148438 73.621094 139.324219 73.367188 139.5 73.09375 Z M 142.410156 80.242188 C 141.511719 79.890625 140.691406 79.421875 139.96875 78.855469 L 144.597656 78.855469 C 144.050781 79.402344 143.308594 79.871094 142.410156 80.242188 Z M 144.792969 76.785156 L 139.597656 76.785156 L 139.597656 75.945312 L 144.792969 75.945312 Z M 139.597656 75.339844 L 139.597656 74.519531 L 144.792969 74.519531 L 144.792969 75.339844 Z M 139.597656 75.339844 "/>
<path style=" stroke:none;fill-rule:nonzero;fill:rgb(0%,0%,0%);fill-opacity:1;" d="M 149.382812 73.738281 L 150.945312 73.738281 L 150.945312 75.183594 L 148.230469 75.183594 L 148.230469 75.945312 L 150.945312 75.945312 L 150.945312 77.136719 L 148.738281 77.136719 L 148.738281 81.179688 L 149.519531 81.179688 L 149.519531 77.878906 L 150.945312 77.878906 L 150.945312 81.882812 L 151.765625 81.882812 L 151.765625 77.878906 L 153.191406 77.878906 L 153.191406 79.929688 C 153.191406 80.222656 153.015625 80.359375 152.703125 80.359375 L 152.15625 80.339844 L 152.351562 81.101562 L 152.9375 81.101562 C 153.621094 81.101562 153.953125 80.769531 153.953125 80.105469 L 153.953125 77.136719 L 151.765625 77.136719 L 151.765625 75.945312 L 154.1875 75.945312 L 154.1875 75.183594 L 151.765625 75.183594 L 151.765625 73.738281 L 153.875 73.738281 L 153.875 72.996094 L 151.765625 72.996094 L 151.765625 71.589844 L 150.945312 71.589844 L 150.945312 72.996094 L 149.65625 72.996094 C 149.734375 72.683594 149.8125 72.351562 149.871094 72 L 149.089844 71.882812 C 148.933594 72.9375 148.582031 73.777344 148.015625 74.382812 L 148.679688 74.851562 C 148.933594 74.558594 149.167969 74.1875 149.382812 73.738281 Z M 154.851562 72.605469 L 154.851562 79.558594 L 155.652344 79.558594 L 155.652344 72.605469 Z M 156.921875 81.765625 C 157.605469 81.765625 157.957031 81.414062 157.957031 80.710938 L 157.957031 71.589844 L 157.15625 71.589844 L 157.15625 80.515625 C 157.15625 80.867188 156.980469 81.0625 156.628906 81.0625 C 156.140625 81.0625 155.632812 81.023438 155.085938 81.003906 L 155.261719 81.765625 Z M 156.921875 81.765625 "/>
</g>
</svg>
