<?xml version="1.0" encoding="UTF-8"?>
<svg xmlns="http://www.w3.org/2000/svg" xmlns:xlink="http://www.w3.org/1999/xlink" width="344pt" height="239pt" viewBox="0 0 344 239" version="1.1">
<g id="surface1">
<path style="fill:none;stroke-width:1;stroke-linecap:round;stroke-linejoin:round;stroke:rgb(0%,0%,0%);stroke-opacity:1;stroke-miterlimit:10;" d="M 41 173.609375 L 41 43.4 " transform="matrix(1.25,0,0,1.25,-8.75,-13.75)"/>
<path style="fill:none;stroke-width:1;stroke-linecap:butt;stroke-linejoin:miter;stroke:rgb(0%,0%,0%);stroke-opacity:1;stroke-miterlimit:10;" d="M 41 39.4 L 41 43.4 M 39.5 43.4 L 41 39.4 L 42.5 43.4 " transform="matrix(1.25,0,0,1.25,-8.75,-13.75)"/>
<path style="fill:none;stroke-width:1;stroke-linecap:round;stroke-linejoin:round;stroke:rgb(0%,0%,0%);stroke-opacity:1;stroke-miterlimit:10;" d="M 41 174.109375 L 275.1 173.625 " transform="matrix(1.25,0,0,1.25,-8.75,-13.75)"/>
<path style="fill:none;stroke-width:1;stroke-linecap:butt;stroke-linejoin:miter;stroke:rgb(0%,0%,0%);stroke-opacity:1;stroke-miterlimit:10;" d="M 279.1 173.61875 L 275.1 173.625 M 275.096875 172.125 L 279.1 173.61875 L 275.1 175.125 " transform="matrix(1.25,0,0,1.25,-8.75,-13.75)"/>
<path style=" stroke:none;fill-rule:nonzero;fill:rgb(0%,0%,0%);fill-opacity:1;" d="M 17.070312 46.445312 L 11.601562 46.445312 L 11.601562 50.742188 L 12.402344 50.742188 L 12.402344 47.167969 L 16.289062 47.167969 L 16.289062 50.722656 L 17.070312 50.722656 Z M 11.992188 43.105469 L 11.992188 45.644531 L 16.738281 45.644531 L 16.738281 43.105469 Z M 15.957031 44.960938 L 12.773438 44.960938 L 12.773438 43.808594 L 15.957031 43.808594 Z M 13.925781 47.792969 L 13.925781 48.984375 C 13.886719 49.84375 13.671875 50.527344 13.242188 51.074219 C 12.773438 51.582031 11.972656 51.992188 10.820312 52.304688 L 11.25 52.988281 C 12.460938 52.65625 13.320312 52.1875 13.867188 51.582031 C 14.394531 50.9375 14.6875 50.058594 14.726562 48.984375 L 14.726562 47.792969 Z M 8.789062 52.871094 C 9.453125 52.871094 9.785156 52.539062 9.785156 51.875 L 9.785156 48.574219 C 10.214844 48.378906 10.644531 48.164062 11.074219 47.949219 L 11.074219 47.128906 C 10.664062 47.34375 10.234375 47.558594 9.785156 47.773438 L 9.785156 45.527344 L 11.132812 45.527344 L 11.132812 44.746094 L 9.785156 44.746094 L 9.785156 42.695312 L 8.984375 42.695312 L 8.984375 44.746094 L 7.480469 44.746094 L 7.480469 45.527344 L 8.984375 45.527344 L 8.984375 48.085938 C 8.4375 48.300781 7.871094 48.496094 7.285156 48.632812 L 7.480469 49.453125 C 7.988281 49.296875 8.496094 49.101562 8.984375 48.925781 L 8.984375 51.679688 C 8.984375 51.992188 8.828125 52.148438 8.515625 52.148438 C 8.203125 52.148438 7.890625 52.128906 7.558594 52.109375 L 7.734375 52.871094 Z M 15.058594 50.722656 L 14.648438 51.328125 C 15.507812 51.738281 16.367188 52.304688 17.1875 53.007812 L 17.636719 52.324219 C 16.855469 51.699219 15.996094 51.171875 15.058594 50.722656 Z M 15.058594 50.722656 "/>
<path style=" stroke:none;fill-rule:nonzero;fill:rgb(0%,0%,0%);fill-opacity:1;" d="M 20.917969 42.929688 C 20.410156 44.433594 19.648438 45.625 18.632812 46.523438 L 19.335938 47.128906 C 19.804688 46.679688 20.253906 46.113281 20.664062 45.449219 L 23.339844 45.449219 L 23.339844 46.191406 C 23.320312 46.71875 23.28125 47.226562 23.183594 47.695312 L 18.828125 47.695312 L 18.828125 48.476562 L 23.027344 48.476562 C 22.851562 49.042969 22.617188 49.570312 22.324219 50.019531 C 21.621094 50.957031 20.390625 51.699219 18.632812 52.285156 L 19.0625 52.96875 C 20.839844 52.402344 22.109375 51.601562 22.890625 50.585938 C 23.28125 50.039062 23.59375 49.394531 23.808594 48.652344 C 24.414062 50.488281 25.9375 51.914062 28.398438 52.96875 L 28.847656 52.265625 C 26.503906 51.367188 25.039062 50.097656 24.492188 48.476562 L 28.671875 48.476562 L 28.671875 47.695312 L 24.023438 47.695312 C 24.101562 47.226562 24.160156 46.71875 24.179688 46.191406 L 24.179688 45.449219 L 27.949219 45.449219 L 27.949219 44.667969 L 24.179688 44.667969 L 24.179688 42.695312 L 23.339844 42.695312 L 23.339844 44.667969 L 21.074219 44.667969 C 21.289062 44.21875 21.484375 43.730469 21.660156 43.203125 Z M 20.917969 42.929688 "/>
<path style=" stroke:none;fill-rule:nonzero;fill:rgb(0%,0%,0%);fill-opacity:1;" d="M 283.925781 219.378906 L 283.925781 220.101562 L 285.566406 220.101562 L 285.566406 220.941406 L 286.328125 220.941406 L 286.328125 220.101562 L 288.125 220.101562 L 288.125 220.941406 L 288.90625 220.941406 L 288.90625 220.101562 L 290.644531 220.101562 L 290.644531 219.378906 L 288.90625 219.378906 L 288.90625 218.480469 L 288.125 218.480469 L 288.125 219.378906 L 286.328125 219.378906 L 286.328125 218.480469 L 285.566406 218.480469 L 285.566406 219.378906 Z M 287.089844 226.449219 C 287.734375 227.386719 288.789062 228.167969 290.253906 228.792969 L 290.78125 228.148438 C 289.453125 227.679688 288.476562 227.074219 287.8125 226.292969 L 290.664062 226.292969 L 290.664062 225.550781 L 287.421875 225.550781 C 287.5 225.296875 287.558594 225.023438 287.597656 224.710938 L 289.902344 224.710938 L 289.902344 221.292969 L 284.53125 221.292969 L 284.53125 224.710938 L 286.894531 224.710938 C 286.835938 225.003906 286.757812 225.296875 286.679688 225.550781 L 283.710938 225.550781 L 283.710938 226.292969 L 286.328125 226.292969 C 286.25 226.46875 286.132812 226.605469 286.015625 226.742188 C 285.527344 227.328125 284.726562 227.757812 283.59375 228.070312 L 283.886719 228.734375 C 285.195312 228.363281 286.09375 227.875 286.601562 227.210938 C 286.777344 226.996094 286.953125 226.722656 287.089844 226.449219 Z M 282.832031 223.011719 C 283.125 223.460938 283.496094 224.066406 283.90625 224.808594 L 284.335938 224.164062 C 283.808594 223.402344 283.320312 222.738281 282.832031 222.152344 L 282.832031 221.410156 L 284.023438 221.410156 L 284.023438 220.667969 L 282.832031 220.667969 L 282.832031 218.5 L 282.070312 218.5 L 282.070312 220.667969 L 280.761719 220.667969 L 280.761719 221.410156 L 282.070312 221.410156 L 282.070312 221.46875 C 281.738281 222.855469 281.171875 224.066406 280.390625 225.140625 L 280.742188 226.019531 C 281.289062 225.160156 281.71875 224.183594 282.070312 223.128906 L 282.070312 228.734375 L 282.832031 228.734375 Z M 289.179688 224.066406 L 285.253906 224.066406 L 285.253906 223.304688 L 289.179688 223.304688 Z M 285.253906 222.699219 L 285.253906 221.957031 L 289.179688 221.957031 L 289.179688 222.699219 Z M 285.253906 222.699219 "/>
<path style=" stroke:none;fill-rule:nonzero;fill:rgb(0%,0%,0%);fill-opacity:1;" d="M 292.304688 218.949219 L 292.304688 219.671875 L 293.4375 219.671875 L 293.4375 221.371094 L 292.011719 221.371094 L 292.011719 222.113281 L 293.398438 222.113281 C 293.28125 223.03125 292.910156 223.714844 292.285156 224.183594 L 292.890625 224.710938 C 293.632812 224.125 294.0625 223.265625 294.179688 222.113281 L 295.664062 222.113281 L 295.664062 224.574219 L 296.445312 224.574219 L 296.445312 222.113281 L 297.832031 222.113281 L 297.832031 221.371094 L 296.445312 221.371094 L 296.445312 219.671875 L 297.578125 219.671875 L 297.578125 218.949219 Z M 294.21875 219.671875 L 295.664062 219.671875 L 295.664062 221.371094 L 294.21875 221.371094 Z M 298.496094 219.222656 L 298.496094 223.089844 L 299.277344 223.089844 L 299.277344 219.222656 Z M 292.558594 225.6875 L 292.558594 226.429688 L 296.523438 226.429688 L 296.523438 227.738281 L 291.933594 227.738281 L 291.933594 228.480469 L 301.816406 228.480469 L 301.816406 227.738281 L 297.324219 227.738281 L 297.324219 226.429688 L 301.191406 226.429688 L 301.191406 225.6875 L 297.324219 225.6875 L 297.324219 224.710938 L 296.523438 224.710938 L 296.523438 225.6875 Z M 300.410156 224.691406 C 300.996094 224.691406 301.308594 224.339844 301.308594 223.65625 L 301.308594 218.597656 L 300.527344 218.597656 L 300.527344 223.460938 C 300.527344 223.792969 300.390625 223.96875 300.136719 223.96875 C 299.6875 223.96875 299.21875 223.949219 298.730469 223.910156 L 298.90625 224.691406 Z M 300.410156 224.691406 "/>
<path style=" stroke:none;fill-rule:nonzero;fill:rgb(0%,0%,0%);fill-opacity:1;" d="M 305.625 219.984375 L 312.578125 219.984375 L 312.578125 219.28125 L 305.996094 219.28125 C 306.113281 219.027344 306.210938 218.753906 306.308594 218.480469 L 305.507812 218.34375 C 305.078125 219.613281 304.296875 220.667969 303.144531 221.546875 L 303.632812 222.171875 C 304.121094 221.800781 304.550781 221.390625 304.921875 220.960938 L 304.921875 224.320312 L 306.367188 224.320312 C 305.761719 225.140625 304.824219 225.804688 303.515625 226.3125 L 303.945312 226.996094 C 304.53125 226.722656 305.058594 226.429688 305.507812 226.117188 C 306.113281 226.644531 306.816406 227.09375 307.578125 227.464844 C 306.40625 227.796875 305.019531 227.992188 303.398438 228.070312 L 303.710938 228.773438 C 305.605469 228.65625 307.207031 228.363281 308.535156 227.875 C 309.804688 228.363281 311.289062 228.65625 312.929688 228.734375 L 313.125 227.992188 C 311.796875 227.953125 310.585938 227.757812 309.492188 227.445312 C 310.429688 226.976562 311.171875 226.390625 311.71875 225.667969 L 311.71875 225.082031 L 306.679688 225.082031 C 306.894531 224.847656 307.070312 224.59375 307.246094 224.320312 L 311.699219 224.320312 L 311.699219 220.765625 L 305.078125 220.765625 C 305.273438 220.511719 305.449219 220.257812 305.625 219.984375 Z M 308.535156 227.132812 C 307.636719 226.78125 306.816406 226.3125 306.09375 225.746094 L 310.722656 225.746094 C 310.175781 226.292969 309.433594 226.761719 308.535156 227.132812 Z M 310.917969 223.675781 L 305.722656 223.675781 L 305.722656 222.835938 L 310.917969 222.835938 Z M 305.722656 222.230469 L 305.722656 221.410156 L 310.917969 221.410156 L 310.917969 222.230469 Z M 305.722656 222.230469 "/>
<path style=" stroke:none;fill-rule:nonzero;fill:rgb(0%,0%,0%);fill-opacity:1;" d="M 314.570312 224.28125 L 314.570312 225.082031 L 319.023438 225.082031 L 319.023438 227.523438 C 319.023438 227.816406 318.867188 227.953125 318.574219 227.953125 C 318.164062 227.953125 317.734375 227.933594 317.285156 227.894531 L 317.460938 228.695312 L 318.867188 228.695312 C 319.511719 228.695312 319.84375 228.363281 319.84375 227.71875 L 319.84375 225.082031 L 324.179688 225.082031 L 324.179688 224.28125 L 319.84375 224.28125 L 319.84375 223.128906 L 319.023438 223.128906 L 319.023438 224.28125 Z M 321.757812 225.511719 L 321.210938 226.039062 C 322.246094 226.917969 323.046875 227.71875 323.632812 228.480469 L 324.257812 227.875 C 323.574219 227.074219 322.753906 226.292969 321.757812 225.511719 Z M 316.855469 225.453125 C 316.152344 226.332031 315.3125 227.113281 314.296875 227.757812 L 314.824219 228.441406 C 315.859375 227.738281 316.71875 226.917969 317.421875 225.980469 Z M 318.144531 218.402344 C 318.085938 218.871094 318.007812 219.300781 317.910156 219.691406 L 314.941406 219.691406 L 314.941406 220.472656 L 317.65625 220.472656 C 317.5 220.804688 317.34375 221.117188 317.128906 221.390625 C 316.601562 222.09375 315.722656 222.621094 314.511719 222.992188 L 314.824219 223.734375 C 316.25 223.304688 317.246094 222.699219 317.8125 221.917969 C 318.105469 221.507812 318.359375 221.019531 318.535156 220.472656 L 320.996094 220.472656 L 320.996094 222.191406 C 320.996094 222.894531 321.347656 223.246094 322.070312 223.246094 L 323.085938 223.246094 C 323.652344 223.246094 324.003906 222.992188 324.121094 222.484375 C 324.199219 222.308594 324.257812 221.859375 324.316406 221.136719 L 323.535156 220.902344 C 323.535156 221.292969 323.515625 221.625 323.476562 221.976562 C 323.417969 222.308594 323.28125 222.484375 323.066406 222.484375 L 322.1875 222.484375 C 321.933594 222.484375 321.796875 222.347656 321.796875 222.074219 L 321.796875 219.691406 L 318.75 219.691406 C 318.847656 219.320312 318.90625 218.910156 318.945312 218.480469 Z M 318.144531 218.402344 "/>
<path style=" stroke:none;fill-rule:nonzero;fill:rgb(0%,0%,0%);fill-opacity:1;" d="M 327.929688 224.632812 L 327.929688 225.335938 L 328.613281 225.335938 C 329.140625 226.039062 329.824219 226.664062 330.664062 227.171875 C 329.648438 227.601562 328.476562 227.914062 327.167969 228.109375 L 327.519531 228.8125 C 329.003906 228.558594 330.3125 228.148438 331.464844 227.621094 C 332.519531 228.148438 333.847656 228.558594 335.390625 228.8125 L 335.742188 228.109375 C 334.414062 227.933594 333.242188 227.621094 332.226562 227.210938 C 333.125 226.664062 333.90625 226 334.53125 225.238281 L 334.53125 224.632812 Z M 329.472656 225.335938 L 333.476562 225.335938 C 332.890625 225.902344 332.207031 226.410156 331.40625 226.820312 C 330.644531 226.410156 330 225.921875 329.472656 225.335938 Z M 327.285156 222.113281 L 329.179688 222.113281 L 329.179688 223.871094 L 333.730469 223.871094 L 333.730469 222.113281 L 335.46875 222.113281 L 335.46875 221.371094 L 333.730469 221.371094 L 333.730469 220.453125 L 332.949219 220.453125 L 332.949219 221.371094 L 329.960938 221.371094 L 329.960938 220.472656 L 329.179688 220.472656 L 329.179688 221.371094 L 327.285156 221.371094 L 327.285156 220.101562 L 335.488281 220.101562 L 335.488281 219.320312 L 331.621094 219.320312 C 331.503906 218.988281 331.367188 218.675781 331.230469 218.402344 L 330.371094 218.519531 C 330.527344 218.773438 330.664062 219.027344 330.800781 219.320312 L 326.464844 219.320312 L 326.464844 222.992188 C 326.445312 225.21875 326.113281 226.9375 325.46875 228.1875 L 326.074219 228.734375 C 326.835938 227.289062 327.246094 225.375 327.285156 222.992188 Z M 329.960938 222.113281 L 332.949219 222.113281 L 332.949219 223.1875 L 329.960938 223.1875 Z M 329.960938 222.113281 "/>
<path style="fill:none;stroke-width:1;stroke-linecap:round;stroke-linejoin:round;stroke:rgb(0%,0%,0%);stroke-opacity:1;stroke-miterlimit:10;" d="M 57.5 47 C 57.5 47 69.175 98.13125 128.996875 131.5875 C 188.815625 165.034375 268.65625 165.08125 268.65625 165.08125 " transform="matrix(1.25,0,0,1.25,-8.75,-13.75)"/>
<path style="fill:none;stroke-width:1;stroke-linecap:round;stroke-linejoin:round;stroke:rgb(0%,0%,0%);stroke-opacity:1;stroke-miterlimit:10;" d="M 57.5 37.5 C 57.5 37.5 67.471875 87.003125 127.29375 98.23125 C 187.1125 109.4625 268.65625 77.1375 268.65625 77.1375 " transform="matrix(1.25,0,0,1.25,-8.75,-13.75)"/>
<path style=" stroke:none;fill-rule:nonzero;fill:rgb(0%,0%,0%);fill-opacity:1;" d="M 280.152344 112.257812 C 278.472656 112.746094 276.363281 113 273.804688 113 L 274.058594 113.722656 C 276.753906 113.722656 278.921875 113.46875 280.542969 112.941406 Z M 277.261719 114.054688 L 276.382812 114.191406 C 276.578125 114.640625 276.753906 115.128906 276.929688 115.675781 L 274.234375 115.675781 L 274.234375 116.457031 L 279.3125 116.457031 C 278.375 117.960938 277.105469 119.191406 275.464844 120.128906 C 275.40625 120.089844 275.386719 120.03125 275.347656 120.011719 C 275.25 119.933594 275.132812 119.875 274.996094 119.875 C 274.46875 119.875 273.941406 120.539062 273.394531 121.867188 L 274.019531 122.394531 C 274.429688 121.300781 274.761719 120.773438 274.976562 120.773438 C 275.074219 120.773438 275.171875 120.832031 275.269531 120.949219 C 275.464844 121.28125 275.699219 121.554688 275.953125 121.730469 C 276.285156 121.964844 276.734375 122.121094 277.339844 122.160156 C 277.652344 122.179688 278.023438 122.179688 278.472656 122.179688 L 280.816406 122.179688 L 280.992188 121.378906 C 280.054688 121.417969 279.175781 121.4375 278.355469 121.4375 C 277.925781 121.4375 277.535156 121.417969 277.222656 121.417969 C 276.734375 121.398438 276.304688 121.183594 275.914062 120.734375 C 277.769531 119.679688 279.195312 118.234375 280.230469 116.398438 L 280.230469 115.675781 L 277.75 115.675781 C 277.59375 115.070312 277.417969 114.542969 277.261719 114.054688 Z M 271.636719 112.296875 L 271.050781 112.863281 C 271.832031 113.449219 272.457031 114.015625 272.90625 114.5625 L 273.472656 113.976562 C 272.964844 113.410156 272.359375 112.863281 271.636719 112.296875 Z M 271.34375 114.953125 L 270.777344 115.5 C 271.5 116.105469 272.066406 116.691406 272.457031 117.21875 L 273.042969 116.632812 C 272.59375 116.085938 272.027344 115.519531 271.34375 114.953125 Z M 272.671875 118.078125 C 272.183594 119.40625 271.617188 120.714844 270.933594 121.984375 L 271.734375 122.335938 C 272.359375 121.085938 272.90625 119.777344 273.414062 118.371094 Z M 272.671875 118.078125 "/>
<path style=" stroke:none;fill-rule:nonzero;fill:rgb(0%,0%,0%);fill-opacity:1;" d="M 285.347656 112.042969 C 284.625 113.820312 283.472656 115.402344 281.871094 116.769531 L 282.125 117.609375 C 282.730469 117.121094 283.277344 116.59375 283.785156 116.046875 L 283.785156 122.472656 L 284.585938 122.472656 L 284.585938 115.050781 C 285.191406 114.230469 285.699219 113.351562 286.089844 112.394531 Z M 290.523438 122.257812 C 291.070312 122.257812 291.441406 122.121094 291.636719 121.867188 C 291.832031 121.59375 291.96875 120.8125 292.046875 119.503906 L 291.304688 119.269531 C 291.246094 120.382812 291.167969 121.027344 291.050781 121.203125 C 290.914062 121.378906 290.679688 121.496094 290.386719 121.496094 L 288.570312 121.496094 C 288.199219 121.496094 288.003906 121.300781 288.003906 120.96875 L 288.003906 117.160156 C 289.410156 116.28125 290.640625 115.285156 291.675781 114.152344 L 291.109375 113.507812 C 290.230469 114.523438 289.195312 115.421875 288.003906 116.203125 L 288.003906 112.179688 L 287.203125 112.179688 L 287.203125 116.691406 C 286.636719 117.042969 286.011719 117.335938 285.386719 117.628906 L 285.757812 118.390625 C 286.246094 118.15625 286.734375 117.902344 287.203125 117.648438 L 287.203125 121.066406 C 287.203125 121.867188 287.59375 122.257812 288.375 122.257812 Z M 290.523438 122.257812 "/>
<path style=" stroke:none;fill-rule:nonzero;fill:rgb(0%,0%,0%);fill-opacity:1;" d="M 302.886719 115.890625 L 297.417969 115.890625 L 297.417969 120.1875 L 298.21875 120.1875 L 298.21875 116.613281 L 302.105469 116.613281 L 302.105469 120.167969 L 302.886719 120.167969 Z M 297.808594 112.550781 L 297.808594 115.089844 L 302.554688 115.089844 L 302.554688 112.550781 Z M 301.773438 114.40625 L 298.589844 114.40625 L 298.589844 113.253906 L 301.773438 113.253906 Z M 299.742188 117.238281 L 299.742188 118.429688 C 299.703125 119.289062 299.488281 119.972656 299.058594 120.519531 C 298.589844 121.027344 297.789062 121.4375 296.636719 121.75 L 297.066406 122.433594 C 298.277344 122.101562 299.136719 121.632812 299.683594 121.027344 C 300.210938 120.382812 300.503906 119.503906 300.542969 118.429688 L 300.542969 117.238281 Z M 294.605469 122.316406 C 295.269531 122.316406 295.601562 121.984375 295.601562 121.320312 L 295.601562 118.019531 C 296.03125 117.824219 296.460938 117.609375 296.890625 117.394531 L 296.890625 116.574219 C 296.480469 116.789062 296.050781 117.003906 295.601562 117.21875 L 295.601562 114.972656 L 296.949219 114.972656 L 296.949219 114.191406 L 295.601562 114.191406 L 295.601562 112.140625 L 294.800781 112.140625 L 294.800781 114.191406 L 293.296875 114.191406 L 293.296875 114.972656 L 294.800781 114.972656 L 294.800781 117.53125 C 294.253906 117.746094 293.6875 117.941406 293.101562 118.078125 L 293.296875 118.898438 C 293.804688 118.742188 294.3125 118.546875 294.800781 118.371094 L 294.800781 121.125 C 294.800781 121.4375 294.644531 121.59375 294.332031 121.59375 C 294.019531 121.59375 293.707031 121.574219 293.375 121.554688 L 293.550781 122.316406 Z M 300.875 120.167969 L 300.464844 120.773438 C 301.324219 121.183594 302.183594 121.75 303.003906 122.453125 L 303.453125 121.769531 C 302.671875 121.144531 301.8125 120.617188 300.875 120.167969 Z M 300.875 120.167969 "/>
<path style=" stroke:none;fill-rule:nonzero;fill:rgb(0%,0%,0%);fill-opacity:1;" d="M 306.734375 112.375 C 306.226562 113.878906 305.464844 115.070312 304.449219 115.96875 L 305.152344 116.574219 C 305.621094 116.125 306.070312 115.558594 306.480469 114.894531 L 309.15625 114.894531 L 309.15625 115.636719 C 309.136719 116.164062 309.097656 116.671875 309 117.140625 L 304.644531 117.140625 L 304.644531 117.921875 L 308.84375 117.921875 C 308.667969 118.488281 308.433594 119.015625 308.140625 119.464844 C 307.4375 120.402344 306.207031 121.144531 304.449219 121.730469 L 304.878906 122.414062 C 306.65625 121.847656 307.925781 121.046875 308.707031 120.03125 C 309.097656 119.484375 309.410156 118.839844 309.625 118.097656 C 310.230469 119.933594 311.753906 121.359375 314.214844 122.414062 L 314.664062 121.710938 C 312.320312 120.8125 310.855469 119.542969 310.308594 117.921875 L 314.488281 117.921875 L 314.488281 117.140625 L 309.839844 117.140625 C 309.917969 116.671875 309.976562 116.164062 309.996094 115.636719 L 309.996094 114.894531 L 313.765625 114.894531 L 313.765625 114.113281 L 309.996094 114.113281 L 309.996094 112.140625 L 309.15625 112.140625 L 309.15625 114.113281 L 306.890625 114.113281 C 307.105469 113.664062 307.300781 113.175781 307.476562 112.648438 Z M 306.734375 112.375 "/>
<path style=" stroke:none;fill-rule:nonzero;fill:rgb(0%,0%,0%);fill-opacity:1;" d="M 277.359375 167.207031 L 277.359375 176.015625 L 278.140625 176.015625 L 278.140625 167.207031 Z M 279.722656 166.660156 L 279.722656 176.777344 L 280.523438 176.777344 L 280.523438 166.660156 Z M 275.132812 166.699219 L 275.132812 171.640625 C 275.113281 173.769531 274.664062 175.3125 273.765625 176.269531 L 274.371094 176.816406 C 275.367188 175.722656 275.875 174.003906 275.914062 171.640625 L 275.914062 166.699219 Z M 272.007812 166.542969 L 271.460938 167.089844 C 272.261719 167.695312 272.90625 168.28125 273.394531 168.847656 L 273.941406 168.28125 C 273.414062 167.695312 272.769531 167.128906 272.007812 166.542969 Z M 270.699219 169.882812 L 270.699219 170.644531 L 272.359375 170.644531 L 272.359375 175.019531 C 272.359375 175.214844 272.261719 175.390625 272.105469 175.527344 L 272.417969 176.25 C 273.101562 175.761719 273.726562 175.195312 274.3125 174.570312 L 274.097656 173.730469 C 273.765625 174.082031 273.433594 174.414062 273.121094 174.707031 L 273.121094 169.882812 Z M 270.699219 169.882812 "/>
<path style=" stroke:none;fill-rule:nonzero;fill:rgb(0%,0%,0%);fill-opacity:1;" d="M 285.503906 174.472656 C 284.488281 174.902344 283.277344 175.234375 281.910156 175.488281 L 282.007812 176.308594 C 283.316406 176.035156 284.488281 175.683594 285.503906 175.273438 Z M 283.804688 166.464844 C 283.394531 167.792969 282.925781 168.945312 282.359375 169.980469 C 282.261719 170.117188 282.144531 170.234375 282.007812 170.292969 L 282.222656 171.035156 C 282.808594 170.9375 283.375 170.820312 283.941406 170.703125 C 283.394531 171.757812 282.90625 172.5 282.515625 172.949219 C 282.417969 173.046875 282.28125 173.125 282.144531 173.203125 L 282.359375 173.945312 C 283.394531 173.789062 284.46875 173.515625 285.601562 173.085938 L 285.601562 172.34375 C 284.839844 172.636719 284.078125 172.851562 283.335938 173.007812 C 283.941406 172.207031 284.722656 170.878906 285.679688 169.003906 L 284.9375 168.710938 C 284.722656 169.160156 284.527344 169.570312 284.3125 169.980469 C 283.863281 170.058594 283.414062 170.136719 282.964844 170.214844 C 283.511719 169.355469 284.039062 168.203125 284.585938 166.757812 Z M 286.871094 173.222656 C 286.539062 174.160156 286.070312 175.058594 285.445312 175.9375 L 286.148438 176.328125 C 286.675781 175.566406 287.164062 174.628906 287.574219 173.515625 Z M 291.089844 173.222656 L 290.367188 173.457031 C 290.816406 174.277344 291.226562 175.234375 291.597656 176.328125 L 292.28125 176.015625 C 291.949219 175.019531 291.539062 174.101562 291.089844 173.222656 Z M 288.570312 176.640625 C 289.214844 176.640625 289.546875 176.347656 289.546875 175.742188 L 289.546875 172.578125 L 291.929688 172.578125 L 291.929688 171.855469 L 289.546875 171.855469 L 289.546875 169.667969 L 288.042969 169.667969 C 288.160156 169.296875 288.296875 168.867188 288.433594 168.457031 L 291.929688 168.457031 L 291.929688 167.695312 L 288.667969 167.695312 C 288.765625 167.324219 288.863281 166.953125 288.960938 166.5625 L 288.179688 166.425781 C 288.0625 166.855469 287.964844 167.285156 287.847656 167.695312 L 285.347656 167.695312 L 285.347656 168.457031 L 287.632812 168.457031 C 287.496094 168.867188 287.359375 169.277344 287.222656 169.667969 L 285.757812 169.667969 L 285.757812 170.410156 L 286.929688 170.410156 C 286.695312 170.9375 286.441406 171.445312 286.207031 171.875 L 286.382812 172.578125 L 288.765625 172.578125 L 288.765625 175.507812 C 288.765625 175.800781 288.609375 175.9375 288.335938 175.9375 L 287.261719 175.898438 L 287.457031 176.640625 Z M 287.75 170.410156 L 288.765625 170.410156 L 288.765625 171.855469 L 287.105469 171.855469 C 287.320312 171.40625 287.535156 170.917969 287.75 170.410156 Z M 287.75 170.410156 "/>
<path style=" stroke:none;fill-rule:nonzero;fill:rgb(0%,0%,0%);fill-opacity:1;" d="M 302.886719 170.195312 L 297.417969 170.195312 L 297.417969 174.492188 L 298.21875 174.492188 L 298.21875 170.917969 L 302.105469 170.917969 L 302.105469 174.472656 L 302.886719 174.472656 Z M 297.808594 166.855469 L 297.808594 169.394531 L 302.554688 169.394531 L 302.554688 166.855469 Z M 301.773438 168.710938 L 298.589844 168.710938 L 298.589844 167.558594 L 301.773438 167.558594 Z M 299.742188 171.542969 L 299.742188 172.734375 C 299.703125 173.59375 299.488281 174.277344 299.058594 174.824219 C 298.589844 175.332031 297.789062 175.742188 296.636719 176.054688 L 297.066406 176.738281 C 298.277344 176.40625 299.136719 175.9375 299.683594 175.332031 C 300.210938 174.6875 300.503906 173.808594 300.542969 172.734375 L 300.542969 171.542969 Z M 294.605469 176.621094 C 295.269531 176.621094 295.601562 176.289062 295.601562 175.625 L 295.601562 172.324219 C 296.03125 172.128906 296.460938 171.914062 296.890625 171.699219 L 296.890625 170.878906 C 296.480469 171.09375 296.050781 171.308594 295.601562 171.523438 L 295.601562 169.277344 L 296.949219 169.277344 L 296.949219 168.496094 L 295.601562 168.496094 L 295.601562 166.445312 L 294.800781 166.445312 L 294.800781 168.496094 L 293.296875 168.496094 L 293.296875 169.277344 L 294.800781 169.277344 L 294.800781 171.835938 C 294.253906 172.050781 293.6875 172.246094 293.101562 172.382812 L 293.296875 173.203125 C 293.804688 173.046875 294.3125 172.851562 294.800781 172.675781 L 294.800781 175.429688 C 294.800781 175.742188 294.644531 175.898438 294.332031 175.898438 C 294.019531 175.898438 293.707031 175.878906 293.375 175.859375 L 293.550781 176.621094 Z M 300.875 174.472656 L 300.464844 175.078125 C 301.324219 175.488281 302.183594 176.054688 303.003906 176.757812 L 303.453125 176.074219 C 302.671875 175.449219 301.8125 174.921875 300.875 174.472656 Z M 300.875 174.472656 "/>
<path style=" stroke:none;fill-rule:nonzero;fill:rgb(0%,0%,0%);fill-opacity:1;" d="M 306.734375 166.679688 C 306.226562 168.183594 305.464844 169.375 304.449219 170.273438 L 305.152344 170.878906 C 305.621094 170.429688 306.070312 169.863281 306.480469 169.199219 L 309.15625 169.199219 L 309.15625 169.941406 C 309.136719 170.46875 309.097656 170.976562 309 171.445312 L 304.644531 171.445312 L 304.644531 172.226562 L 308.84375 172.226562 C 308.667969 172.792969 308.433594 173.320312 308.140625 173.769531 C 307.4375 174.707031 306.207031 175.449219 304.449219 176.035156 L 304.878906 176.71875 C 306.65625 176.152344 307.925781 175.351562 308.707031 174.335938 C 309.097656 173.789062 309.410156 173.144531 309.625 172.402344 C 310.230469 174.238281 311.753906 175.664062 314.214844 176.71875 L 314.664062 176.015625 C 312.320312 175.117188 310.855469 173.847656 310.308594 172.226562 L 314.488281 172.226562 L 314.488281 171.445312 L 309.839844 171.445312 C 309.917969 170.976562 309.976562 170.46875 309.996094 169.941406 L 309.996094 169.199219 L 313.765625 169.199219 L 313.765625 168.417969 L 309.996094 168.417969 L 309.996094 166.445312 L 309.15625 166.445312 L 309.15625 168.417969 L 306.890625 168.417969 C 307.105469 167.96875 307.300781 167.480469 307.476562 166.953125 Z M 306.734375 166.679688 "/>
<path style=" stroke:none;fill-rule:nonzero;fill:rgb(0%,0%,0%);fill-opacity:1;" d="M 81.113281 17.597656 L 86.425781 17.597656 C 86.25 18.554688 85.878906 19.414062 85.3125 20.195312 L 85.898438 20.761719 C 86.621094 19.902344 87.070312 18.769531 87.285156 17.402344 L 87.285156 16.835938 L 81.40625 16.835938 C 81.582031 16.328125 81.738281 15.761719 81.855469 15.175781 L 81.035156 15.078125 C 80.664062 17.148438 79.824219 18.75 78.496094 19.882812 L 79.003906 20.527344 C 79.882812 19.824219 80.585938 18.867188 81.113281 17.597656 Z M 82.714844 18.339844 C 82.695312 19.824219 82.460938 21.035156 81.992188 21.992188 C 81.367188 23.125 80.078125 24.0625 78.144531 24.824219 L 78.710938 25.488281 C 80.859375 24.609375 82.226562 23.496094 82.8125 22.148438 C 82.929688 21.875 83.046875 21.601562 83.144531 21.308594 C 83.964844 23.144531 85.507812 24.550781 87.734375 25.507812 L 88.183594 24.804688 C 85.664062 23.769531 84.082031 22.1875 83.4375 20.019531 C 83.496094 19.511719 83.535156 18.945312 83.535156 18.339844 Z M 82.714844 18.339844 "/>
<path style=" stroke:none;fill-rule:nonzero;fill:rgb(0%,0%,0%);fill-opacity:1;" d="M 93.066406 24.023438 C 94.042969 23.671875 94.941406 23.242188 95.800781 22.734375 L 95.585938 22.03125 C 95.078125 22.34375 94.53125 22.636719 93.984375 22.871094 L 93.984375 15.507812 L 93.222656 15.507812 L 93.222656 22.753906 C 93.222656 22.988281 93.085938 23.164062 92.832031 23.300781 Z M 90.585938 25.351562 C 91.210938 25.351562 91.523438 25 91.523438 24.316406 L 91.523438 21.152344 C 91.933594 20.976562 92.34375 20.78125 92.734375 20.566406 L 92.734375 19.785156 C 92.324219 20.019531 91.914062 20.214844 91.523438 20.390625 L 91.523438 18.027344 L 92.65625 18.027344 L 92.65625 17.246094 L 91.523438 17.246094 L 91.523438 15.175781 L 90.722656 15.175781 L 90.722656 17.246094 L 89.414062 17.246094 L 89.414062 18.027344 L 90.722656 18.027344 L 90.722656 20.703125 C 90.253906 20.878906 89.765625 21.035156 89.277344 21.152344 L 89.453125 21.914062 C 89.882812 21.796875 90.292969 21.640625 90.722656 21.484375 L 90.722656 24.101562 C 90.722656 24.453125 90.585938 24.628906 90.3125 24.628906 C 90.039062 24.628906 89.746094 24.609375 89.453125 24.570312 L 89.609375 25.351562 Z M 97.695312 15.253906 C 97.695312 17.460938 97.539062 19.257812 97.207031 20.683594 C 96.777344 22.363281 95.878906 23.769531 94.53125 24.882812 L 95.039062 25.507812 C 96.035156 24.6875 96.796875 23.730469 97.324219 22.636719 C 97.988281 23.632812 98.515625 24.570312 98.925781 25.429688 L 99.570312 24.980469 C 99.121094 24.082031 98.496094 23.046875 97.65625 21.855469 C 97.792969 21.503906 97.890625 21.113281 97.988281 20.722656 C 98.320312 19.238281 98.496094 17.402344 98.496094 15.253906 Z M 95.429688 16.484375 L 94.765625 16.699219 C 95.253906 17.578125 95.683594 18.574219 96.09375 19.707031 L 96.757812 19.394531 C 96.386719 18.359375 95.9375 17.402344 95.429688 16.484375 Z M 95.429688 16.484375 "/>
<path style=" stroke:none;fill-rule:nonzero;fill:rgb(0%,0%,0%);fill-opacity:1;" d="M 105.332031 15.175781 C 104.003906 16.738281 102.34375 18.046875 100.351562 19.101562 L 100.78125 19.882812 C 102.773438 18.75 104.394531 17.441406 105.625 15.898438 C 106.953125 17.519531 108.554688 18.847656 110.429688 19.84375 L 110.859375 19.082031 C 109.003906 18.125 107.34375 16.835938 105.917969 15.175781 Z M 109.179688 20.957031 L 102.070312 20.957031 L 102.070312 25.488281 L 102.851562 25.488281 L 102.851562 24.804688 L 108.398438 24.804688 L 108.398438 25.488281 L 109.179688 25.488281 Z M 102.851562 24.042969 L 102.851562 21.71875 L 108.398438 21.71875 L 108.398438 24.042969 Z M 102.695312 18.75 L 102.695312 19.53125 L 108.554688 19.53125 L 108.554688 18.75 Z M 102.695312 18.75 "/>
<path style=" stroke:none;fill-rule:nonzero;fill:rgb(0%,0%,0%);fill-opacity:1;" d="M 220.761719 15.332031 L 220.195312 15.878906 C 221.015625 16.523438 221.640625 17.148438 222.089844 17.714844 L 222.675781 17.109375 C 222.167969 16.542969 221.523438 15.9375 220.761719 15.332031 Z M 227.597656 25.292969 L 229.980469 25.292969 L 230.175781 24.472656 C 229.902344 24.492188 229.511719 24.511719 229.003906 24.511719 C 228.496094 24.511719 227.988281 24.53125 227.5 24.53125 C 226.582031 24.53125 225.800781 24.511719 225.175781 24.511719 C 224.492188 24.492188 223.945312 24.414062 223.574219 24.257812 C 223.261719 24.101562 222.949219 23.867188 222.65625 23.554688 C 222.558594 23.4375 222.460938 23.359375 222.363281 23.300781 L 222.363281 19.082031 L 219.980469 19.082031 L 219.980469 19.84375 L 221.582031 19.84375 L 221.582031 23.242188 C 221.113281 23.457031 220.585938 24.042969 219.980469 25 L 220.585938 25.546875 C 221.210938 24.492188 221.679688 23.964844 221.953125 23.964844 C 222.089844 23.964844 222.246094 24.0625 222.421875 24.257812 C 222.773438 24.648438 223.183594 24.941406 223.652344 25.078125 C 224.121094 25.195312 224.746094 25.273438 225.507812 25.273438 C 226.269531 25.292969 226.953125 25.292969 227.597656 25.292969 Z M 227.265625 23.789062 C 227.929688 23.789062 228.28125 23.457031 228.28125 22.792969 L 228.28125 17.832031 L 229.941406 17.832031 L 229.941406 17.03125 L 228.28125 17.03125 L 228.28125 15.214844 L 227.460938 15.214844 L 227.460938 17.03125 L 223.203125 17.03125 L 223.203125 17.832031 L 227.460938 17.832031 L 227.460938 22.617188 C 227.460938 22.910156 227.304688 23.066406 226.972656 23.066406 C 226.503906 23.066406 225.996094 23.046875 225.488281 23.007812 L 225.664062 23.789062 Z M 224.433594 18.828125 L 223.808594 19.238281 C 224.492188 20.058594 225.039062 20.800781 225.429688 21.464844 L 226.09375 21.015625 C 225.703125 20.390625 225.15625 19.667969 224.433594 18.828125 Z M 224.433594 18.828125 "/>
<path style=" stroke:none;fill-rule:nonzero;fill:rgb(0%,0%,0%);fill-opacity:1;" d="M 234.941406 24.023438 C 235.917969 23.671875 236.816406 23.242188 237.675781 22.734375 L 237.460938 22.03125 C 236.953125 22.34375 236.40625 22.636719 235.859375 22.871094 L 235.859375 15.507812 L 235.097656 15.507812 L 235.097656 22.753906 C 235.097656 22.988281 234.960938 23.164062 234.707031 23.300781 Z M 232.460938 25.351562 C 233.085938 25.351562 233.398438 25 233.398438 24.316406 L 233.398438 21.152344 C 233.808594 20.976562 234.21875 20.78125 234.609375 20.566406 L 234.609375 19.785156 C 234.199219 20.019531 233.789062 20.214844 233.398438 20.390625 L 233.398438 18.027344 L 234.53125 18.027344 L 234.53125 17.246094 L 233.398438 17.246094 L 233.398438 15.175781 L 232.597656 15.175781 L 232.597656 17.246094 L 231.289062 17.246094 L 231.289062 18.027344 L 232.597656 18.027344 L 232.597656 20.703125 C 232.128906 20.878906 231.640625 21.035156 231.152344 21.152344 L 231.328125 21.914062 C 231.757812 21.796875 232.167969 21.640625 232.597656 21.484375 L 232.597656 24.101562 C 232.597656 24.453125 232.460938 24.628906 232.1875 24.628906 C 231.914062 24.628906 231.621094 24.609375 231.328125 24.570312 L 231.484375 25.351562 Z M 239.570312 15.253906 C 239.570312 17.460938 239.414062 19.257812 239.082031 20.683594 C 238.652344 22.363281 237.753906 23.769531 236.40625 24.882812 L 236.914062 25.507812 C 237.910156 24.6875 238.671875 23.730469 239.199219 22.636719 C 239.863281 23.632812 240.390625 24.570312 240.800781 25.429688 L 241.445312 24.980469 C 240.996094 24.082031 240.371094 23.046875 239.53125 21.855469 C 239.667969 21.503906 239.765625 21.113281 239.863281 20.722656 C 240.195312 19.238281 240.371094 17.402344 240.371094 15.253906 Z M 237.304688 16.484375 L 236.640625 16.699219 C 237.128906 17.578125 237.558594 18.574219 237.96875 19.707031 L 238.632812 19.394531 C 238.261719 18.359375 237.8125 17.402344 237.304688 16.484375 Z M 237.304688 16.484375 "/>
<path style=" stroke:none;fill-rule:nonzero;fill:rgb(0%,0%,0%);fill-opacity:1;" d="M 247.207031 15.175781 C 245.878906 16.738281 244.21875 18.046875 242.226562 19.101562 L 242.65625 19.882812 C 244.648438 18.75 246.269531 17.441406 247.5 15.898438 C 248.828125 17.519531 250.429688 18.847656 252.304688 19.84375 L 252.734375 19.082031 C 250.878906 18.125 249.21875 16.835938 247.792969 15.175781 Z M 251.054688 20.957031 L 243.945312 20.957031 L 243.945312 25.488281 L 244.726562 25.488281 L 244.726562 24.804688 L 250.273438 24.804688 L 250.273438 25.488281 L 251.054688 25.488281 Z M 244.726562 24.042969 L 244.726562 21.71875 L 250.273438 21.71875 L 250.273438 24.042969 Z M 244.570312 18.75 L 244.570312 19.53125 L 250.429688 19.53125 L 250.429688 18.75 Z M 244.570312 18.75 "/>
<path style="fill:none;stroke-width:1;stroke-linecap:round;stroke-linejoin:round;stroke:rgb(0%,0%,0%);stroke-opacity:1;stroke-miterlimit:10;" d="M 98.75 13.5 L 72.15 13.5 " transform="matrix(1.25,0,0,1.25,-8.75,-13.75)"/>
<path style="fill-rule:nonzero;fill:rgb(0%,0%,0%);fill-opacity:1;stroke-width:1;stroke-linecap:butt;stroke-linejoin:miter;stroke:rgb(0%,0%,0%);stroke-opacity:1;stroke-miterlimit:10;" d="M 68.15 13.5 L 72.15 15 L 72.15 12 Z M 68.15 13.5 " transform="matrix(1.25,0,0,1.25,-8.75,-13.75)"/>
<path style="fill:none;stroke-width:1;stroke-linecap:round;stroke-linejoin:round;stroke:rgb(0%,0%,0%);stroke-opacity:1;stroke-miterlimit:10;" d="M 179.75 13.5 L 206.35 13.5 " transform="matrix(1.25,0,0,1.25,-8.75,-13.75)"/>
<path style="fill-rule:nonzero;fill:rgb(0%,0%,0%);fill-opacity:1;stroke-width:1;stroke-linecap:butt;stroke-linejoin:miter;stroke:rgb(0%,0%,0%);stroke-opacity:1;stroke-miterlimit:10;" d="M 210.35 13.5 L 206.35 12 L 206.35 15 Z M 210.35 13.5 " transform="matrix(1.25,0,0,1.25,-8.75,-13.75)"/>
<path style="fill:none;stroke-width:1;stroke-linecap:round;stroke-linejoin:round;stroke:rgb(0%,0%,0%);stroke-opacity:1;stroke-dasharray:1,5;stroke-miterlimit:10;" d="M 140 174.609375 L 140 38.5 " transform="matrix(1.25,0,0,1.25,-8.75,-13.75)"/>
<path style=" stroke:none;fill-rule:nonzero;fill:rgb(0%,0%,0%);fill-opacity:1;" d="M 156.308594 19.570312 L 156.308594 20.214844 L 157.382812 20.214844 L 157.382812 24.121094 L 156.328125 24.160156 L 156.425781 24.863281 C 158.007812 24.765625 159.316406 24.648438 160.390625 24.53125 L 160.390625 25.527344 L 161.171875 25.527344 L 161.171875 24.433594 C 161.386719 24.394531 161.621094 24.355469 161.816406 24.316406 L 161.816406 23.671875 C 161.621094 23.710938 161.386719 23.75 161.171875 23.769531 L 161.171875 20.214844 L 166.230469 20.214844 L 166.230469 19.570312 Z M 158.105469 24.082031 L 158.105469 23.105469 L 160.390625 23.105469 L 160.390625 23.886719 C 159.707031 23.964844 158.945312 24.023438 158.105469 24.082031 Z M 158.105469 22.519531 L 158.105469 21.679688 L 160.390625 21.679688 L 160.390625 22.519531 Z M 158.105469 21.074219 L 158.105469 20.214844 L 160.390625 20.214844 L 160.390625 21.074219 Z M 157.734375 15.585938 L 157.734375 18.828125 L 164.84375 18.828125 L 164.84375 15.585938 Z M 164.0625 18.242188 L 158.496094 18.242188 L 158.496094 17.480469 L 164.0625 17.480469 Z M 158.496094 16.914062 L 158.496094 16.191406 L 164.0625 16.191406 L 164.0625 16.914062 Z M 162.109375 21.640625 C 162.34375 22.460938 162.753906 23.203125 163.378906 23.847656 C 162.910156 24.257812 162.324219 24.589844 161.640625 24.882812 L 162.050781 25.507812 C 162.792969 25.195312 163.417969 24.804688 163.945312 24.355469 C 164.453125 24.785156 165.078125 25.15625 165.820312 25.507812 L 166.230469 24.84375 C 165.527344 24.550781 164.960938 24.21875 164.453125 23.847656 C 165 23.222656 165.371094 22.480469 165.585938 21.601562 L 165.585938 20.976562 L 161.757812 20.976562 L 161.757812 21.640625 Z M 163.886719 23.359375 C 163.359375 22.851562 163.007812 22.285156 162.8125 21.640625 L 164.863281 21.640625 C 164.667969 22.265625 164.335938 22.851562 163.886719 23.359375 Z M 163.886719 23.359375 "/>
<path style=" stroke:none;fill-rule:nonzero;fill:rgb(0%,0%,0%);fill-opacity:1;" d="M 171.09375 16.542969 L 171.09375 17.324219 L 173.535156 17.324219 L 173.535156 19.003906 L 170.507812 19.003906 L 170.507812 19.785156 L 177.421875 19.785156 L 177.421875 19.003906 L 174.375 19.003906 L 174.375 17.324219 L 176.855469 17.324219 L 176.855469 16.542969 L 174.375 16.542969 L 174.375 15.175781 L 173.535156 15.175781 L 173.535156 16.542969 Z M 170.976562 21.621094 L 170.976562 22.402344 L 173.535156 22.402344 L 173.535156 24.316406 L 170.3125 24.316406 L 170.3125 25.117188 L 177.617188 25.117188 L 177.617188 24.316406 L 174.375 24.316406 L 174.375 22.402344 L 176.953125 22.402344 L 176.953125 21.621094 L 174.375 21.621094 L 174.375 20.195312 L 173.535156 20.195312 L 173.535156 21.621094 Z M 168.710938 19.238281 L 168.710938 25.507812 L 169.550781 25.507812 L 169.550781 17.988281 C 170 17.207031 170.390625 16.367188 170.683594 15.488281 L 169.921875 15.136719 C 169.375 16.875 168.496094 18.417969 167.285156 19.746094 L 167.539062 20.625 C 167.96875 20.175781 168.359375 19.726562 168.710938 19.238281 Z M 168.710938 19.238281 "/>
</g>
</svg>
