<?xml version="1.0" encoding="UTF-8"?>
<svg xmlns="http://www.w3.org/2000/svg" xmlns:xlink="http://www.w3.org/1999/xlink" width="310pt" height="226pt" viewBox="0 0 310 226" version="1.1">
<defs>
<clipPath id="clip1">
  <path d="M 67 9 L 69 9 L 69 178.875 L 67 178.875 Z M 67 9 "/>
</clipPath>
<clipPath id="clip2">
  <path d="M 127 9 L 130 9 L 130 178.875 L 127 178.875 Z M 127 9 "/>
</clipPath>
<clipPath id="clip3">
  <path d="M 188 9 L 190 9 L 190 178.875 L 188 178.875 Z M 188 9 "/>
</clipPath>
<clipPath id="clip4">
  <path d="M 249 9 L 251 9 L 251 178.875 L 249 178.875 Z M 249 9 "/>
</clipPath>
<clipPath id="clip5">
  <path d="M 56.847656 170 L 300.972656 170 L 300.972656 172 L 56.847656 172 Z M 56.847656 170 "/>
</clipPath>
<clipPath id="clip6">
  <path d="M 56.847656 124 L 300.972656 124 L 300.972656 126 L 56.847656 126 Z M 56.847656 124 "/>
</clipPath>
<clipPath id="clip7">
  <path d="M 56.847656 78 L 300.972656 78 L 300.972656 80 L 56.847656 80 Z M 56.847656 78 "/>
</clipPath>
<clipPath id="clip8">
  <path d="M 56.847656 32 L 300.972656 32 L 300.972656 34 L 56.847656 34 Z M 56.847656 32 "/>
</clipPath>
<clipPath id="clip9">
  <path d="M 56.847656 26 L 292 26 L 292 173 L 56.847656 173 Z M 56.847656 26 "/>
</clipPath>
</defs>
<g id="surface1">
<path style=" stroke:none;fill-rule:nonzero;fill:rgb(100%,100%,100%);fill-opacity:1;" d="M 56.847656 178.875 L 300.972656 178.875 L 300.972656 9 L 56.847656 9 Z M 56.847656 178.875 "/>
<g clip-path="url(#clip1)" clip-rule="nonzero">
<path style="fill:none;stroke-width:0.8;stroke-linecap:square;stroke-linejoin:round;stroke:rgb(69.019608%,69.019608%,69.019608%);stroke-opacity:1;stroke-miterlimit:4;" d="M 54.35625 143.1 L 54.35625 7.2 " transform="matrix(1.25,0,0,1.25,0,0)"/>
</g>
<path style="fill:none;stroke-width:0.8;stroke-linecap:butt;stroke-linejoin:round;stroke:rgb(0%,0%,0%);stroke-opacity:1;stroke-miterlimit:4;" d="M 0.000852 0 L 0.000852 3.5 " transform="matrix(1.25,0,0,1.25,67.944248,178.875)"/>
<path style=" stroke:none;fill-rule:nonzero;fill:rgb(0%,0%,0%);fill-opacity:1;" d="M 58.496094 195.992188 L 60.507812 195.992188 L 60.507812 189.039062 L 58.316406 189.476562 L 58.316406 188.355469 L 60.496094 187.914062 L 61.730469 187.914062 L 61.730469 195.992188 L 63.742188 195.992188 L 63.742188 197.027344 L 58.496094 197.027344 Z M 58.496094 195.992188 "/>
<path style=" stroke:none;fill-rule:nonzero;fill:rgb(0%,0%,0%);fill-opacity:1;" d="M 68.871094 188.726562 C 68.234375 188.726562 67.757812 189.039062 67.4375 189.664062 C 67.117188 190.289062 66.960938 191.226562 66.960938 192.480469 C 66.960938 193.730469 67.117188 194.667969 67.4375 195.292969 C 67.757812 195.917969 68.234375 196.230469 68.871094 196.230469 C 69.507812 196.230469 69.988281 195.917969 70.308594 195.292969 C 70.628906 194.667969 70.789062 193.730469 70.789062 192.480469 C 70.789062 191.226562 70.628906 190.289062 70.308594 189.664062 C 69.988281 189.039062 69.507812 188.726562 68.871094 188.726562 Z M 68.871094 187.75 C 69.890625 187.75 70.671875 188.15625 71.210938 188.964844 C 71.75 189.769531 72.019531 190.941406 72.019531 192.480469 C 72.019531 194.015625 71.75 195.1875 71.210938 195.996094 C 70.671875 196.800781 69.890625 197.207031 68.871094 197.207031 C 67.847656 197.207031 67.070312 196.800781 66.53125 195.996094 C 65.992188 195.1875 65.722656 194.015625 65.722656 192.480469 C 65.722656 190.941406 65.992188 189.769531 66.53125 188.964844 C 67.070312 188.15625 67.847656 187.75 68.871094 187.75 Z M 68.871094 187.75 "/>
<path style=" stroke:none;fill-rule:nonzero;fill:rgb(0%,0%,0%);fill-opacity:1;" d="M 75.75 186.433594 C 75.304688 186.433594 74.972656 186.652344 74.75 187.089844 C 74.523438 187.523438 74.414062 188.183594 74.414062 189.058594 C 74.414062 189.933594 74.523438 190.589844 74.75 191.027344 C 74.972656 191.464844 75.304688 191.683594 75.75 191.683594 C 76.199219 191.683594 76.535156 191.464844 76.757812 191.027344 C 76.980469 190.589844 77.09375 189.933594 77.09375 189.058594 C 77.09375 188.183594 76.980469 187.523438 76.757812 187.089844 C 76.535156 186.652344 76.199219 186.433594 75.75 186.433594 Z M 75.75 185.75 C 76.464844 185.75 77.011719 186.03125 77.390625 186.597656 C 77.765625 187.164062 77.957031 187.984375 77.957031 189.058594 C 77.957031 190.132812 77.765625 190.953125 77.390625 191.519531 C 77.011719 192.085938 76.464844 192.367188 75.75 192.367188 C 75.035156 192.367188 74.488281 192.085938 74.113281 191.519531 C 73.734375 190.953125 73.546875 190.132812 73.546875 189.058594 C 73.546875 187.984375 73.734375 187.164062 74.113281 186.597656 C 74.488281 186.03125 75.035156 185.75 75.75 185.75 Z M 75.75 185.75 "/>
<g clip-path="url(#clip2)" clip-rule="nonzero">
<path style="fill:none;stroke-width:0.8;stroke-linecap:square;stroke-linejoin:round;stroke:rgb(69.019608%,69.019608%,69.019608%);stroke-opacity:1;stroke-miterlimit:4;" d="M 102.85625 143.1 L 102.85625 7.2 " transform="matrix(1.25,0,0,1.25,0,0)"/>
</g>
<path style="fill:none;stroke-width:0.8;stroke-linecap:butt;stroke-linejoin:round;stroke:rgb(0%,0%,0%);stroke-opacity:1;stroke-miterlimit:4;" d="M 0.00012 0 L 0.00012 3.5 " transform="matrix(1.25,0,0,1.25,128.570162,178.875)"/>
<path style=" stroke:none;fill-rule:nonzero;fill:rgb(0%,0%,0%);fill-opacity:1;" d="M 119.121094 196 L 121.132812 196 L 121.132812 189.046875 L 118.941406 189.488281 L 118.941406 188.363281 L 121.121094 187.925781 L 122.355469 187.925781 L 122.355469 196 L 124.367188 196 L 124.367188 197.039062 L 119.121094 197.039062 Z M 119.121094 196 "/>
<path style=" stroke:none;fill-rule:nonzero;fill:rgb(0%,0%,0%);fill-opacity:1;" d="M 129.496094 188.738281 C 128.863281 188.738281 128.382812 189.050781 128.0625 189.675781 C 127.746094 190.296875 127.585938 191.238281 127.585938 192.492188 C 127.585938 193.738281 127.746094 194.675781 128.0625 195.300781 C 128.382812 195.925781 128.863281 196.238281 129.496094 196.238281 C 130.136719 196.238281 130.613281 195.925781 130.933594 195.300781 C 131.253906 194.675781 131.414062 193.738281 131.414062 192.492188 C 131.414062 191.238281 131.253906 190.296875 130.933594 189.675781 C 130.613281 189.050781 130.136719 188.738281 129.496094 188.738281 Z M 129.496094 187.761719 C 130.519531 187.761719 131.296875 188.164062 131.835938 188.972656 C 132.375 189.78125 132.644531 190.953125 132.644531 192.492188 C 132.644531 194.023438 132.375 195.195312 131.835938 196.003906 C 131.296875 196.8125 130.519531 197.214844 129.496094 197.214844 C 128.476562 197.214844 127.695312 196.8125 127.15625 196.003906 C 126.617188 195.195312 126.347656 194.023438 126.347656 192.492188 C 126.347656 190.953125 126.617188 189.78125 127.15625 188.972656 C 127.695312 188.164062 128.476562 187.761719 129.496094 187.761719 Z M 129.496094 187.761719 "/>
<path style=" stroke:none;fill-rule:nonzero;fill:rgb(0%,0%,0%);fill-opacity:1;" d="M 134.679688 191.527344 L 136.089844 191.527344 L 136.089844 186.660156 L 134.558594 186.96875 L 134.558594 186.179688 L 136.082031 185.875 L 136.945312 185.875 L 136.945312 191.527344 L 138.355469 191.527344 L 138.355469 192.253906 L 134.679688 192.253906 Z M 134.679688 191.527344 "/>
<g clip-path="url(#clip3)" clip-rule="nonzero">
<path style="fill:none;stroke-width:0.8;stroke-linecap:square;stroke-linejoin:round;stroke:rgb(69.019608%,69.019608%,69.019608%);stroke-opacity:1;stroke-miterlimit:4;" d="M 151.35625 143.1 L 151.35625 7.2 " transform="matrix(1.25,0,0,1.25,0,0)"/>
</g>
<path style="fill:none;stroke-width:0.8;stroke-linecap:butt;stroke-linejoin:round;stroke:rgb(0%,0%,0%);stroke-opacity:1;stroke-miterlimit:4;" d="M -0.000611 0 L -0.000611 3.5 " transform="matrix(1.25,0,0,1.25,189.196076,178.875)"/>
<path style=" stroke:none;fill-rule:nonzero;fill:rgb(0%,0%,0%);fill-opacity:1;" d="M 179.746094 195.992188 L 181.761719 195.992188 L 181.761719 189.039062 L 179.570312 189.476562 L 179.570312 188.355469 L 181.75 187.914062 L 182.980469 187.914062 L 182.980469 195.992188 L 184.996094 195.992188 L 184.996094 197.027344 L 179.746094 197.027344 Z M 179.746094 195.992188 "/>
<path style=" stroke:none;fill-rule:nonzero;fill:rgb(0%,0%,0%);fill-opacity:1;" d="M 190.121094 188.726562 C 189.488281 188.726562 189.011719 189.039062 188.691406 189.664062 C 188.371094 190.289062 188.210938 191.226562 188.210938 192.480469 C 188.210938 193.730469 188.371094 194.667969 188.691406 195.292969 C 189.011719 195.917969 189.488281 196.230469 190.121094 196.230469 C 190.761719 196.230469 191.238281 195.917969 191.558594 195.292969 C 191.878906 194.667969 192.039062 193.730469 192.039062 192.480469 C 192.039062 191.226562 191.878906 190.289062 191.558594 189.664062 C 191.238281 189.039062 190.761719 188.726562 190.121094 188.726562 Z M 190.121094 187.75 C 191.144531 187.75 191.925781 188.15625 192.464844 188.964844 C 193.003906 189.769531 193.273438 190.941406 193.273438 192.480469 C 193.273438 194.015625 193.003906 195.1875 192.464844 195.996094 C 191.925781 196.800781 191.144531 197.207031 190.121094 197.207031 C 189.101562 197.207031 188.320312 196.800781 187.78125 195.996094 C 187.242188 195.1875 186.972656 194.015625 186.972656 192.480469 C 186.972656 190.941406 187.242188 189.769531 187.78125 188.964844 C 188.320312 188.15625 189.101562 187.75 190.121094 187.75 Z M 190.121094 187.75 "/>
<path style=" stroke:none;fill-rule:nonzero;fill:rgb(0%,0%,0%);fill-opacity:1;" d="M 195.898438 191.515625 L 198.914062 191.515625 L 198.914062 192.242188 L 194.863281 192.242188 L 194.863281 191.515625 C 195.191406 191.175781 195.636719 190.722656 196.199219 190.152344 C 196.765625 189.582031 197.121094 189.210938 197.265625 189.046875 C 197.542969 188.734375 197.738281 188.472656 197.847656 188.257812 C 197.957031 188.042969 198.011719 187.832031 198.011719 187.625 C 198.011719 187.285156 197.890625 187.007812 197.65625 186.796875 C 197.417969 186.582031 197.105469 186.472656 196.726562 186.472656 C 196.453125 186.472656 196.167969 186.519531 195.867188 186.613281 C 195.566406 186.707031 195.246094 186.851562 194.90625 187.042969 L 194.90625 186.171875 C 195.253906 186.03125 195.578125 185.925781 195.878906 185.855469 C 196.179688 185.785156 196.457031 185.75 196.707031 185.75 C 197.371094 185.75 197.894531 185.914062 198.289062 186.246094 C 198.683594 186.574219 198.878906 187.015625 198.878906 187.566406 C 198.878906 187.832031 198.828125 188.078125 198.730469 188.3125 C 198.632812 188.546875 198.453125 188.824219 198.195312 189.144531 C 198.125 189.226562 197.898438 189.464844 197.515625 189.859375 C 197.132812 190.253906 196.597656 190.808594 195.898438 191.515625 Z M 195.898438 191.515625 "/>
<g clip-path="url(#clip4)" clip-rule="nonzero">
<path style="fill:none;stroke-width:0.8;stroke-linecap:square;stroke-linejoin:round;stroke:rgb(69.019608%,69.019608%,69.019608%);stroke-opacity:1;stroke-miterlimit:4;" d="M 199.85625 143.1 L 199.85625 7.2 " transform="matrix(1.25,0,0,1.25,0,0)"/>
</g>
<path style="fill:none;stroke-width:0.8;stroke-linecap:butt;stroke-linejoin:round;stroke:rgb(0%,0%,0%);stroke-opacity:1;stroke-miterlimit:4;" d="M -0.001343 0 L -0.001343 3.5 " transform="matrix(1.25,0,0,1.25,249.821991,178.875)"/>
<path style=" stroke:none;fill-rule:nonzero;fill:rgb(0%,0%,0%);fill-opacity:1;" d="M 240.371094 195.992188 L 242.386719 195.992188 L 242.386719 189.039062 L 240.195312 189.476562 L 240.195312 188.355469 L 242.375 187.914062 L 243.605469 187.914062 L 243.605469 195.992188 L 245.621094 195.992188 L 245.621094 197.027344 L 240.371094 197.027344 Z M 240.371094 195.992188 "/>
<path style=" stroke:none;fill-rule:nonzero;fill:rgb(0%,0%,0%);fill-opacity:1;" d="M 250.746094 188.726562 C 250.113281 188.726562 249.636719 189.039062 249.316406 189.664062 C 248.996094 190.289062 248.835938 191.226562 248.835938 192.480469 C 248.835938 193.730469 248.996094 194.667969 249.316406 195.292969 C 249.636719 195.917969 250.113281 196.230469 250.746094 196.230469 C 251.386719 196.230469 251.867188 195.917969 252.183594 195.292969 C 252.503906 194.667969 252.664062 193.730469 252.664062 192.480469 C 252.664062 191.226562 252.503906 190.289062 252.183594 189.664062 C 251.867188 189.039062 251.386719 188.726562 250.746094 188.726562 Z M 250.746094 187.75 C 251.769531 187.75 252.550781 188.15625 253.089844 188.964844 C 253.628906 189.769531 253.898438 190.941406 253.898438 192.480469 C 253.898438 194.015625 253.628906 195.1875 253.089844 195.996094 C 252.550781 196.800781 251.769531 197.207031 250.746094 197.207031 C 249.726562 197.207031 248.945312 196.800781 248.40625 195.996094 C 247.867188 195.1875 247.597656 194.015625 247.597656 192.480469 C 247.597656 190.941406 247.867188 189.769531 248.40625 188.964844 C 248.945312 188.15625 249.726562 187.75 250.746094 187.75 Z M 250.746094 187.75 "/>
<path style=" stroke:none;fill-rule:nonzero;fill:rgb(0%,0%,0%);fill-opacity:1;" d="M 258.398438 188.800781 C 258.8125 188.890625 259.132812 189.074219 259.363281 189.355469 C 259.597656 189.632812 259.714844 189.976562 259.714844 190.386719 C 259.714844 191.015625 259.496094 191.503906 259.0625 191.851562 C 258.628906 192.195312 258.015625 192.367188 257.21875 192.367188 C 256.949219 192.367188 256.675781 192.339844 256.390625 192.289062 C 256.109375 192.234375 255.816406 192.15625 255.515625 192.050781 L 255.515625 191.21875 C 255.753906 191.355469 256.015625 191.460938 256.300781 191.53125 C 256.585938 191.605469 256.882812 191.640625 257.195312 191.640625 C 257.734375 191.640625 258.144531 191.53125 258.429688 191.320312 C 258.710938 191.105469 258.855469 190.796875 258.855469 190.386719 C 258.855469 190.011719 258.722656 189.71875 258.460938 189.507812 C 258.195312 189.292969 257.828125 189.1875 257.359375 189.1875 L 256.617188 189.1875 L 256.617188 188.476562 L 257.394531 188.476562 C 257.816406 188.476562 258.144531 188.394531 258.367188 188.222656 C 258.59375 188.054688 258.707031 187.808594 258.707031 187.492188 C 258.707031 187.164062 258.589844 186.914062 258.355469 186.738281 C 258.125 186.5625 257.792969 186.472656 257.359375 186.472656 C 257.125 186.472656 256.871094 186.5 256.597656 186.550781 C 256.328125 186.601562 256.03125 186.683594 255.707031 186.789062 L 255.707031 186.023438 C 256.035156 185.929688 256.339844 185.863281 256.628906 185.816406 C 256.914062 185.769531 257.183594 185.75 257.4375 185.75 C 258.09375 185.75 258.609375 185.898438 258.992188 186.195312 C 259.375 186.492188 259.5625 186.894531 259.5625 187.402344 C 259.5625 187.753906 259.464844 188.054688 259.261719 188.296875 C 259.058594 188.539062 258.769531 188.707031 258.398438 188.800781 Z M 258.398438 188.800781 "/>
<path style="fill:none;stroke-width:0.6;stroke-linecap:butt;stroke-linejoin:round;stroke:rgb(0%,0%,0%);stroke-opacity:1;stroke-miterlimit:4;" d="M 0.001211 0 L 0.001211 2 " transform="matrix(1.25,0,0,1.25,58.553174,178.875)"/>
<path style="fill:none;stroke-width:0.6;stroke-linecap:butt;stroke-linejoin:round;stroke:rgb(0%,0%,0%);stroke-opacity:1;stroke-miterlimit:4;" d="M 0.001059 0 L 0.001059 2 " transform="matrix(1.25,0,0,1.25,62.068989,178.875)"/>
<path style="fill:none;stroke-width:0.6;stroke-linecap:butt;stroke-linejoin:round;stroke:rgb(0%,0%,0%);stroke-opacity:1;stroke-miterlimit:4;" d="M 0.001374 0 L 0.001374 2 " transform="matrix(1.25,0,0,1.25,65.170158,178.875)"/>
<path style="fill:none;stroke-width:0.6;stroke-linecap:butt;stroke-linejoin:round;stroke:rgb(0%,0%,0%);stroke-opacity:1;stroke-miterlimit:4;" d="M 0.000677 0 L 0.000677 2 " transform="matrix(1.25,0,0,1.25,86.194466,178.875)"/>
<path style="fill:none;stroke-width:0.6;stroke-linecap:butt;stroke-linejoin:round;stroke:rgb(0%,0%,0%);stroke-opacity:1;stroke-miterlimit:4;" d="M 0.000747 0 L 0.000747 2 " transform="matrix(1.25,0,0,1.25,96.87016,178.875)"/>
<path style="fill:none;stroke-width:0.6;stroke-linecap:butt;stroke-linejoin:round;stroke:rgb(0%,0%,0%);stroke-opacity:1;stroke-miterlimit:4;" d="M 0.000502 0 L 0.000502 2 " transform="matrix(1.25,0,0,1.25,104.444685,178.875)"/>
<path style="fill:none;stroke-width:0.6;stroke-linecap:butt;stroke-linejoin:round;stroke:rgb(0%,0%,0%);stroke-opacity:1;stroke-miterlimit:4;" d="M 0.000296 0 L 0.000296 2 " transform="matrix(1.25,0,0,1.25,110.319942,178.875)"/>
<path style="fill:none;stroke-width:0.6;stroke-linecap:butt;stroke-linejoin:round;stroke:rgb(0%,0%,0%);stroke-opacity:1;stroke-miterlimit:4;" d="M 0.000572 0 L 0.000572 2 " transform="matrix(1.25,0,0,1.25,115.120379,178.875)"/>
<path style="fill:none;stroke-width:0.6;stroke-linecap:butt;stroke-linejoin:round;stroke:rgb(0%,0%,0%);stroke-opacity:1;stroke-miterlimit:4;" d="M 0.000479 0 L 0.000479 2 " transform="matrix(1.25,0,0,1.25,119.179089,178.875)"/>
<path style="fill:none;stroke-width:0.6;stroke-linecap:butt;stroke-linejoin:round;stroke:rgb(0%,0%,0%);stroke-opacity:1;stroke-miterlimit:4;" d="M 0.000327 0 L 0.000327 2 " transform="matrix(1.25,0,0,1.25,122.694904,178.875)"/>
<path style="fill:none;stroke-width:0.6;stroke-linecap:butt;stroke-linejoin:round;stroke:rgb(0%,0%,0%);stroke-opacity:1;stroke-miterlimit:4;" d="M 0.000642 0 L 0.000642 2 " transform="matrix(1.25,0,0,1.25,125.796073,178.875)"/>
<path style="fill:none;stroke-width:0.6;stroke-linecap:butt;stroke-linejoin:round;stroke:rgb(0%,0%,0%);stroke-opacity:1;stroke-miterlimit:4;" d="M -0.000055 0 L -0.000055 2 " transform="matrix(1.25,0,0,1.25,146.820381,178.875)"/>
<path style="fill:none;stroke-width:0.6;stroke-linecap:butt;stroke-linejoin:round;stroke:rgb(0%,0%,0%);stroke-opacity:1;stroke-miterlimit:4;" d="M 0.000015 0 L 0.000015 2 " transform="matrix(1.25,0,0,1.25,157.496075,178.875)"/>
<path style="fill:none;stroke-width:0.6;stroke-linecap:butt;stroke-linejoin:round;stroke:rgb(0%,0%,0%);stroke-opacity:1;stroke-miterlimit:4;" d="M -0.00023 0 L -0.00023 2 " transform="matrix(1.25,0,0,1.25,165.0706,178.875)"/>
<path style="fill:none;stroke-width:0.6;stroke-linecap:butt;stroke-linejoin:round;stroke:rgb(0%,0%,0%);stroke-opacity:1;stroke-miterlimit:4;" d="M -0.000436 0 L -0.000436 2 " transform="matrix(1.25,0,0,1.25,170.945857,178.875)"/>
<path style="fill:none;stroke-width:0.6;stroke-linecap:butt;stroke-linejoin:round;stroke:rgb(0%,0%,0%);stroke-opacity:1;stroke-miterlimit:4;" d="M -0.00016 0 L -0.00016 2 " transform="matrix(1.25,0,0,1.25,175.746294,178.875)"/>
<path style="fill:none;stroke-width:0.6;stroke-linecap:butt;stroke-linejoin:round;stroke:rgb(0%,0%,0%);stroke-opacity:1;stroke-miterlimit:4;" d="M -0.000253 0 L -0.000253 2 " transform="matrix(1.25,0,0,1.25,179.805004,178.875)"/>
<path style="fill:none;stroke-width:0.6;stroke-linecap:butt;stroke-linejoin:round;stroke:rgb(0%,0%,0%);stroke-opacity:1;stroke-miterlimit:4;" d="M -0.000405 0 L -0.000405 2 " transform="matrix(1.25,0,0,1.25,183.320819,178.875)"/>
<path style="fill:none;stroke-width:0.6;stroke-linecap:butt;stroke-linejoin:round;stroke:rgb(0%,0%,0%);stroke-opacity:1;stroke-miterlimit:4;" d="M -0.00009 0 L -0.00009 2 " transform="matrix(1.25,0,0,1.25,186.421988,178.875)"/>
<path style="fill:none;stroke-width:0.6;stroke-linecap:butt;stroke-linejoin:round;stroke:rgb(0%,0%,0%);stroke-opacity:1;stroke-miterlimit:4;" d="M -0.000786 0 L -0.000786 2 " transform="matrix(1.25,0,0,1.25,207.446295,178.875)"/>
<path style="fill:none;stroke-width:0.6;stroke-linecap:butt;stroke-linejoin:round;stroke:rgb(0%,0%,0%);stroke-opacity:1;stroke-miterlimit:4;" d="M -0.000716 0 L -0.000716 2 " transform="matrix(1.25,0,0,1.25,218.121989,178.875)"/>
<path style="fill:none;stroke-width:0.6;stroke-linecap:butt;stroke-linejoin:round;stroke:rgb(0%,0%,0%);stroke-opacity:1;stroke-miterlimit:4;" d="M -0.000961 0 L -0.000961 2 " transform="matrix(1.25,0,0,1.25,225.696514,178.875)"/>
<path style="fill:none;stroke-width:0.6;stroke-linecap:butt;stroke-linejoin:round;stroke:rgb(0%,0%,0%);stroke-opacity:1;stroke-miterlimit:4;" d="M -0.001168 0 L -0.001168 2 " transform="matrix(1.25,0,0,1.25,231.571773,178.875)"/>
<path style="fill:none;stroke-width:0.6;stroke-linecap:butt;stroke-linejoin:round;stroke:rgb(0%,0%,0%);stroke-opacity:1;stroke-miterlimit:4;" d="M -0.000891 0 L -0.000891 2 " transform="matrix(1.25,0,0,1.25,236.372208,178.875)"/>
<path style="fill:none;stroke-width:0.6;stroke-linecap:butt;stroke-linejoin:round;stroke:rgb(0%,0%,0%);stroke-opacity:1;stroke-miterlimit:4;" d="M -0.000985 0 L -0.000985 2 " transform="matrix(1.25,0,0,1.25,240.430919,178.875)"/>
<path style="fill:none;stroke-width:0.6;stroke-linecap:butt;stroke-linejoin:round;stroke:rgb(0%,0%,0%);stroke-opacity:1;stroke-miterlimit:4;" d="M -0.001137 0 L -0.001137 2 " transform="matrix(1.25,0,0,1.25,243.946734,178.875)"/>
<path style="fill:none;stroke-width:0.6;stroke-linecap:butt;stroke-linejoin:round;stroke:rgb(0%,0%,0%);stroke-opacity:1;stroke-miterlimit:4;" d="M -0.000821 0 L -0.000821 2 " transform="matrix(1.25,0,0,1.25,247.047901,178.875)"/>
<path style="fill:none;stroke-width:0.6;stroke-linecap:butt;stroke-linejoin:round;stroke:rgb(0%,0%,0%);stroke-opacity:1;stroke-miterlimit:4;" d="M -0.001518 0 L -0.001518 2 " transform="matrix(1.25,0,0,1.25,268.07221,178.875)"/>
<path style="fill:none;stroke-width:0.6;stroke-linecap:butt;stroke-linejoin:round;stroke:rgb(0%,0%,0%);stroke-opacity:1;stroke-miterlimit:4;" d="M -0.001448 0 L -0.001448 2 " transform="matrix(1.25,0,0,1.25,278.747904,178.875)"/>
<path style="fill:none;stroke-width:0.6;stroke-linecap:butt;stroke-linejoin:round;stroke:rgb(0%,0%,0%);stroke-opacity:1;stroke-miterlimit:4;" d="M 0.001432 0 L 0.001432 2 " transform="matrix(1.25,0,0,1.25,286.322429,178.875)"/>
<path style="fill:none;stroke-width:0.6;stroke-linecap:butt;stroke-linejoin:round;stroke:rgb(0%,0%,0%);stroke-opacity:1;stroke-miterlimit:4;" d="M 0.001225 0 L 0.001225 2 " transform="matrix(1.25,0,0,1.25,292.197688,178.875)"/>
<path style="fill:none;stroke-width:0.6;stroke-linecap:butt;stroke-linejoin:round;stroke:rgb(0%,0%,0%);stroke-opacity:1;stroke-miterlimit:4;" d="M 0.001502 0 L 0.001502 2 " transform="matrix(1.25,0,0,1.25,296.998123,178.875)"/>
<path style=" stroke:none;fill-rule:nonzero;fill:rgb(0%,0%,0%);fill-opacity:1;" d="M 155.933594 205.445312 L 155.933594 207.386719 L 158.246094 207.386719 L 158.246094 208.257812 L 155.933594 208.257812 L 155.933594 211.96875 C 155.933594 212.527344 156.011719 212.882812 156.164062 213.042969 C 156.316406 213.203125 156.625 213.28125 157.09375 213.28125 L 158.246094 213.28125 L 158.246094 214.222656 L 157.09375 214.222656 C 156.226562 214.222656 155.628906 214.058594 155.300781 213.738281 C 154.96875 213.414062 154.804688 212.824219 154.804688 211.96875 L 154.804688 208.257812 L 153.980469 208.257812 L 153.980469 207.386719 L 154.804688 207.386719 L 154.804688 205.445312 Z M 155.933594 205.445312 "/>
<path style=" stroke:none;fill-rule:nonzero;fill:rgb(0%,0%,0%);fill-opacity:1;" d="M 162.371094 208.171875 C 161.769531 208.171875 161.296875 208.40625 160.945312 208.878906 C 160.59375 209.347656 160.417969 209.992188 160.417969 210.808594 C 160.417969 211.625 160.59375 212.269531 160.941406 212.742188 C 161.289062 213.210938 161.765625 213.445312 162.371094 213.445312 C 162.972656 213.445312 163.445312 213.210938 163.792969 212.738281 C 164.144531 212.265625 164.320312 211.621094 164.320312 210.808594 C 164.320312 210 164.144531 209.355469 163.792969 208.882812 C 163.445312 208.410156 162.972656 208.171875 162.371094 208.171875 Z M 162.371094 207.222656 C 163.347656 207.222656 164.117188 207.539062 164.671875 208.175781 C 165.230469 208.808594 165.511719 209.6875 165.511719 210.808594 C 165.511719 211.925781 165.230469 212.804688 164.671875 213.445312 C 164.117188 214.082031 163.347656 214.398438 162.371094 214.398438 C 161.390625 214.398438 160.625 214.082031 160.066406 213.445312 C 159.511719 212.804688 159.234375 211.925781 159.234375 210.808594 C 159.234375 209.6875 159.511719 208.808594 160.066406 208.175781 C 160.625 207.539062 161.390625 207.222656 162.371094 207.222656 Z M 162.371094 207.222656 "/>
<path style=" stroke:none;fill-rule:nonzero;fill:rgb(0%,0%,0%);fill-opacity:1;" d="M 167.328125 204.722656 L 168.457031 204.722656 L 168.457031 210.332031 L 171.808594 207.386719 L 173.242188 207.386719 L 169.617188 210.582031 L 173.398438 214.222656 L 171.933594 214.222656 L 168.457031 210.882812 L 168.457031 214.222656 L 167.328125 214.222656 Z M 167.328125 204.722656 "/>
<path style=" stroke:none;fill-rule:nonzero;fill:rgb(0%,0%,0%);fill-opacity:1;" d="M 180.003906 210.523438 L 180.003906 211.070312 L 174.839844 211.070312 C 174.890625 211.84375 175.125 212.433594 175.539062 212.839844 C 175.957031 213.242188 176.539062 213.445312 177.28125 213.445312 C 177.714844 213.445312 178.132812 213.394531 178.535156 213.289062 C 178.941406 213.183594 179.34375 213.023438 179.742188 212.8125 L 179.742188 213.875 C 179.339844 214.042969 178.925781 214.175781 178.503906 214.265625 C 178.082031 214.355469 177.652344 214.398438 177.214844 214.398438 C 176.125 214.398438 175.261719 214.082031 174.625 213.449219 C 173.988281 212.8125 173.667969 211.953125 173.667969 210.871094 C 173.667969 209.75 173.972656 208.863281 174.574219 208.207031 C 175.179688 207.550781 175.996094 207.222656 177.019531 207.222656 C 177.941406 207.222656 178.667969 207.515625 179.203125 208.109375 C 179.738281 208.699219 180.003906 209.503906 180.003906 210.523438 Z M 178.882812 210.191406 C 178.875 209.578125 178.703125 209.089844 178.367188 208.722656 C 178.03125 208.355469 177.585938 208.171875 177.03125 208.171875 C 176.40625 208.171875 175.90625 208.347656 175.527344 208.703125 C 175.152344 209.058594 174.9375 209.554688 174.878906 210.199219 Z M 178.882812 210.191406 "/>
<path style=" stroke:none;fill-rule:nonzero;fill:rgb(0%,0%,0%);fill-opacity:1;" d="M 187.53125 210.09375 L 187.53125 214.222656 L 186.410156 214.222656 L 186.410156 210.132812 C 186.410156 209.484375 186.28125 209 186.03125 208.679688 C 185.777344 208.359375 185.398438 208.199219 184.894531 208.199219 C 184.289062 208.199219 183.808594 208.390625 183.460938 208.777344 C 183.109375 209.164062 182.933594 209.691406 182.933594 210.359375 L 182.933594 214.222656 L 181.804688 214.222656 L 181.804688 207.386719 L 182.933594 207.386719 L 182.933594 208.449219 C 183.203125 208.035156 183.519531 207.730469 183.882812 207.527344 C 184.246094 207.324219 184.667969 207.222656 185.144531 207.222656 C 185.929688 207.222656 186.523438 207.464844 186.925781 207.949219 C 187.328125 208.433594 187.53125 209.148438 187.53125 210.09375 Z M 187.53125 210.09375 "/>
<path style=" stroke:none;fill-rule:nonzero;fill:rgb(0%,0%,0%);fill-opacity:1;" d="M 190.058594 212.671875 L 191.34375 212.671875 L 191.34375 214.222656 L 190.058594 214.222656 Z M 190.058594 207.757812 L 191.34375 207.757812 L 191.34375 209.308594 L 190.058594 209.308594 Z M 190.058594 207.757812 "/>
<path style=" stroke:none;fill-rule:nonzero;fill:rgb(0%,0%,0%);fill-opacity:1;" d="M 203.640625 207.386719 L 201.167969 210.710938 L 203.765625 214.222656 L 202.441406 214.222656 L 200.453125 211.535156 L 198.464844 214.222656 L 197.136719 214.222656 L 199.792969 210.644531 L 197.363281 207.386719 L 198.6875 207.386719 L 200.5 209.820312 L 202.3125 207.386719 Z M 203.640625 207.386719 "/>
<g clip-path="url(#clip5)" clip-rule="nonzero">
<path style="fill:none;stroke-width:0.8;stroke-linecap:square;stroke-linejoin:round;stroke:rgb(69.019608%,69.019608%,69.019608%);stroke-opacity:1;stroke-miterlimit:4;" d="M 45.478125 136.921875 L 240.778125 136.921875 " transform="matrix(1.25,0,0,1.25,0,0)"/>
</g>
<path style="fill:none;stroke-width:0.8;stroke-linecap:butt;stroke-linejoin:round;stroke:rgb(0%,0%,0%);stroke-opacity:1;stroke-miterlimit:4;" d="M 0 -0.000852 L -3.5 -0.000852 " transform="matrix(1.25,0,0,1.25,56.847656,171.153409)"/>
<path style=" stroke:none;fill-rule:nonzero;fill:rgb(0%,0%,0%);fill-opacity:1;" d="M 27.648438 174.769531 L 29.664062 174.769531 L 29.664062 167.816406 L 27.46875 168.257812 L 27.46875 167.132812 L 29.648438 166.695312 L 30.882812 166.695312 L 30.882812 174.769531 L 32.898438 174.769531 L 32.898438 175.808594 L 27.648438 175.808594 Z M 27.648438 174.769531 "/>
<path style=" stroke:none;fill-rule:nonzero;fill:rgb(0%,0%,0%);fill-opacity:1;" d="M 38.023438 167.507812 C 37.390625 167.507812 36.910156 167.820312 36.589844 168.445312 C 36.273438 169.066406 36.113281 170.007812 36.113281 171.261719 C 36.113281 172.507812 36.273438 173.445312 36.589844 174.070312 C 36.910156 174.695312 37.390625 175.007812 38.023438 175.007812 C 38.664062 175.007812 39.140625 174.695312 39.460938 174.070312 C 39.78125 173.445312 39.941406 172.507812 39.941406 171.261719 C 39.941406 170.007812 39.78125 169.066406 39.460938 168.445312 C 39.140625 167.820312 38.664062 167.507812 38.023438 167.507812 Z M 38.023438 166.53125 C 39.046875 166.53125 39.824219 166.933594 40.363281 167.742188 C 40.902344 168.550781 41.171875 169.722656 41.171875 171.261719 C 41.171875 172.792969 40.902344 173.964844 40.363281 174.773438 C 39.824219 175.582031 39.046875 175.984375 38.023438 175.984375 C 37.003906 175.984375 36.222656 175.582031 35.683594 174.773438 C 35.144531 173.964844 34.875 172.792969 34.875 171.261719 C 34.875 169.722656 35.144531 168.550781 35.683594 167.742188 C 36.222656 166.933594 37.003906 166.53125 38.023438 166.53125 Z M 38.023438 166.53125 "/>
<path style=" stroke:none;fill-rule:nonzero;fill:rgb(0%,0%,0%);fill-opacity:1;" d="M 44.902344 165.210938 C 44.460938 165.210938 44.125 165.429688 43.902344 165.867188 C 43.679688 166.304688 43.566406 166.960938 43.566406 167.839844 C 43.566406 168.710938 43.679688 169.367188 43.902344 169.804688 C 44.125 170.242188 44.460938 170.460938 44.902344 170.460938 C 45.351562 170.460938 45.6875 170.242188 45.910156 169.804688 C 46.132812 169.367188 46.246094 168.710938 46.246094 167.839844 C 46.246094 166.960938 46.132812 166.304688 45.910156 165.867188 C 45.6875 165.429688 45.351562 165.210938 44.902344 165.210938 Z M 44.902344 164.527344 C 45.621094 164.527344 46.164062 164.808594 46.542969 165.375 C 46.921875 165.941406 47.109375 166.761719 47.109375 167.839844 C 47.109375 168.914062 46.921875 169.730469 46.542969 170.296875 C 46.164062 170.863281 45.621094 171.144531 44.902344 171.144531 C 44.1875 171.144531 43.644531 170.863281 43.265625 170.296875 C 42.890625 169.730469 42.699219 168.914062 42.699219 167.839844 C 42.699219 166.761719 42.890625 165.941406 43.265625 165.375 C 43.644531 164.808594 44.1875 164.527344 44.902344 164.527344 Z M 44.902344 164.527344 "/>
<g clip-path="url(#clip6)" clip-rule="nonzero">
<path style="fill:none;stroke-width:0.8;stroke-linecap:square;stroke-linejoin:round;stroke:rgb(69.019608%,69.019608%,69.019608%);stroke-opacity:1;stroke-miterlimit:4;" d="M 45.478125 100.090625 L 240.778125 100.090625 " transform="matrix(1.25,0,0,1.25,0,0)"/>
</g>
<path style="fill:none;stroke-width:0.8;stroke-linecap:butt;stroke-linejoin:round;stroke:rgb(0%,0%,0%);stroke-opacity:1;stroke-miterlimit:4;" d="M 0 -0.000145 L -3.5 -0.000145 " transform="matrix(1.25,0,0,1.25,56.847656,125.113463)"/>
<path style=" stroke:none;fill-rule:nonzero;fill:rgb(0%,0%,0%);fill-opacity:1;" d="M 27.648438 128.738281 L 29.664062 128.738281 L 29.664062 121.785156 L 27.46875 122.226562 L 27.46875 121.101562 L 29.648438 120.664062 L 30.882812 120.664062 L 30.882812 128.738281 L 32.898438 128.738281 L 32.898438 129.777344 L 27.648438 129.777344 Z M 27.648438 128.738281 "/>
<path style=" stroke:none;fill-rule:nonzero;fill:rgb(0%,0%,0%);fill-opacity:1;" d="M 38.023438 121.476562 C 37.390625 121.476562 36.910156 121.789062 36.589844 122.414062 C 36.273438 123.039062 36.113281 123.976562 36.113281 125.230469 C 36.113281 126.480469 36.273438 127.414062 36.589844 128.039062 C 36.910156 128.664062 37.390625 128.976562 38.023438 128.976562 C 38.664062 128.976562 39.140625 128.664062 39.460938 128.039062 C 39.78125 127.414062 39.941406 126.480469 39.941406 125.230469 C 39.941406 123.976562 39.78125 123.039062 39.460938 122.414062 C 39.140625 121.789062 38.664062 121.476562 38.023438 121.476562 Z M 38.023438 120.5 C 39.046875 120.5 39.824219 120.902344 40.363281 121.710938 C 40.902344 122.519531 41.171875 123.691406 41.171875 125.230469 C 41.171875 126.765625 40.902344 127.933594 40.363281 128.742188 C 39.824219 129.550781 39.046875 129.953125 38.023438 129.953125 C 37.003906 129.953125 36.222656 129.550781 35.683594 128.742188 C 35.144531 127.933594 34.875 126.765625 34.875 125.230469 C 34.875 123.691406 35.144531 122.519531 35.683594 121.710938 C 36.222656 120.902344 37.003906 120.5 38.023438 120.5 Z M 38.023438 120.5 "/>
<path style=" stroke:none;fill-rule:nonzero;fill:rgb(0%,0%,0%);fill-opacity:1;" d="M 43.207031 124.265625 L 44.617188 124.265625 L 44.617188 119.398438 L 43.085938 119.707031 L 43.085938 118.921875 L 44.609375 118.613281 L 45.472656 118.613281 L 45.472656 124.265625 L 46.882812 124.265625 L 46.882812 124.992188 L 43.207031 124.992188 Z M 43.207031 124.265625 "/>
<g clip-path="url(#clip7)" clip-rule="nonzero">
<path style="fill:none;stroke-width:0.8;stroke-linecap:square;stroke-linejoin:round;stroke:rgb(69.019608%,69.019608%,69.019608%);stroke-opacity:1;stroke-miterlimit:4;" d="M 45.478125 63.259375 L 240.778125 63.259375 " transform="matrix(1.25,0,0,1.25,0,0)"/>
</g>
<path style="fill:none;stroke-width:0.8;stroke-linecap:butt;stroke-linejoin:round;stroke:rgb(0%,0%,0%);stroke-opacity:1;stroke-miterlimit:4;" d="M 0 0.000562 L -3.5 0.000562 " transform="matrix(1.25,0,0,1.25,56.847656,79.073516)"/>
<path style=" stroke:none;fill-rule:nonzero;fill:rgb(0%,0%,0%);fill-opacity:1;" d="M 27.648438 82.691406 L 29.664062 82.691406 L 29.664062 75.738281 L 27.46875 76.175781 L 27.46875 75.054688 L 29.648438 74.613281 L 30.882812 74.613281 L 30.882812 82.691406 L 32.898438 82.691406 L 32.898438 83.726562 L 27.648438 83.726562 Z M 27.648438 82.691406 "/>
<path style=" stroke:none;fill-rule:nonzero;fill:rgb(0%,0%,0%);fill-opacity:1;" d="M 38.023438 75.425781 C 37.390625 75.425781 36.910156 75.738281 36.589844 76.363281 C 36.273438 76.988281 36.113281 77.925781 36.113281 79.179688 C 36.113281 80.429688 36.273438 81.367188 36.589844 81.992188 C 36.910156 82.617188 37.390625 82.929688 38.023438 82.929688 C 38.664062 82.929688 39.140625 82.617188 39.460938 81.992188 C 39.78125 81.367188 39.941406 80.429688 39.941406 79.179688 C 39.941406 77.925781 39.78125 76.988281 39.460938 76.363281 C 39.140625 75.738281 38.664062 75.425781 38.023438 75.425781 Z M 38.023438 74.449219 C 39.046875 74.449219 39.824219 74.855469 40.363281 75.664062 C 40.902344 76.46875 41.171875 77.640625 41.171875 79.179688 C 41.171875 80.714844 40.902344 81.886719 40.363281 82.695312 C 39.824219 83.5 39.046875 83.90625 38.023438 83.90625 C 37.003906 83.90625 36.222656 83.5 35.683594 82.695312 C 35.144531 81.886719 34.875 80.714844 34.875 79.179688 C 34.875 77.640625 35.144531 76.46875 35.683594 75.664062 C 36.222656 74.855469 37.003906 74.449219 38.023438 74.449219 Z M 38.023438 74.449219 "/>
<path style=" stroke:none;fill-rule:nonzero;fill:rgb(0%,0%,0%);fill-opacity:1;" d="M 43.800781 78.214844 L 46.8125 78.214844 L 46.8125 78.941406 L 42.765625 78.941406 L 42.765625 78.214844 C 43.089844 77.875 43.539062 77.421875 44.101562 76.851562 C 44.667969 76.28125 45.023438 75.910156 45.167969 75.746094 C 45.445312 75.433594 45.636719 75.171875 45.746094 74.957031 C 45.859375 74.742188 45.914062 74.53125 45.914062 74.324219 C 45.914062 73.984375 45.792969 73.707031 45.554688 73.496094 C 45.316406 73.28125 45.007812 73.171875 44.625 73.171875 C 44.355469 73.171875 44.070312 73.21875 43.769531 73.3125 C 43.46875 73.410156 43.148438 73.550781 42.804688 73.742188 L 42.804688 72.871094 C 43.152344 72.730469 43.476562 72.625 43.78125 72.554688 C 44.082031 72.484375 44.359375 72.449219 44.609375 72.449219 C 45.269531 72.449219 45.796875 72.613281 46.191406 72.945312 C 46.582031 73.273438 46.78125 73.714844 46.78125 74.265625 C 46.78125 74.53125 46.730469 74.777344 46.632812 75.015625 C 46.535156 75.246094 46.355469 75.523438 46.097656 75.84375 C 46.023438 75.925781 45.796875 76.164062 45.417969 76.558594 C 45.035156 76.953125 44.496094 77.507812 43.800781 78.214844 Z M 43.800781 78.214844 "/>
<g clip-path="url(#clip8)" clip-rule="nonzero">
<path style="fill:none;stroke-width:0.8;stroke-linecap:square;stroke-linejoin:round;stroke:rgb(69.019608%,69.019608%,69.019608%);stroke-opacity:1;stroke-miterlimit:4;" d="M 45.478125 26.428125 L 240.778125 26.428125 " transform="matrix(1.25,0,0,1.25,0,0)"/>
</g>
<path style="fill:none;stroke-width:0.8;stroke-linecap:butt;stroke-linejoin:round;stroke:rgb(0%,0%,0%);stroke-opacity:1;stroke-miterlimit:4;" d="M 0 0.001269 L -3.5 0.001269 " transform="matrix(1.25,0,0,1.25,56.847656,33.03357)"/>
<path style=" stroke:none;fill-rule:nonzero;fill:rgb(0%,0%,0%);fill-opacity:1;" d="M 27.648438 36.648438 L 29.664062 36.648438 L 29.664062 29.695312 L 27.46875 30.136719 L 27.46875 29.011719 L 29.648438 28.574219 L 30.882812 28.574219 L 30.882812 36.648438 L 32.898438 36.648438 L 32.898438 37.6875 L 27.648438 37.6875 Z M 27.648438 36.648438 "/>
<path style=" stroke:none;fill-rule:nonzero;fill:rgb(0%,0%,0%);fill-opacity:1;" d="M 38.023438 29.386719 C 37.390625 29.386719 36.910156 29.699219 36.589844 30.324219 C 36.273438 30.949219 36.113281 31.886719 36.113281 33.140625 C 36.113281 34.390625 36.273438 35.324219 36.589844 35.949219 C 36.910156 36.574219 37.390625 36.886719 38.023438 36.886719 C 38.664062 36.886719 39.140625 36.574219 39.460938 35.949219 C 39.78125 35.324219 39.941406 34.390625 39.941406 33.140625 C 39.941406 31.886719 39.78125 30.949219 39.460938 30.324219 C 39.140625 29.699219 38.664062 29.386719 38.023438 29.386719 Z M 38.023438 28.410156 C 39.046875 28.410156 39.824219 28.8125 40.363281 29.621094 C 40.902344 30.429688 41.171875 31.601562 41.171875 33.140625 C 41.171875 34.675781 40.902344 35.84375 40.363281 36.652344 C 39.824219 37.460938 39.046875 37.863281 38.023438 37.863281 C 37.003906 37.863281 36.222656 37.460938 35.683594 36.652344 C 35.144531 35.84375 34.875 34.675781 34.875 33.140625 C 34.875 31.601562 35.144531 30.429688 35.683594 29.621094 C 36.222656 28.8125 37.003906 28.410156 38.023438 28.410156 Z M 38.023438 28.410156 "/>
<path style=" stroke:none;fill-rule:nonzero;fill:rgb(0%,0%,0%);fill-opacity:1;" d="M 45.671875 29.460938 C 46.085938 29.550781 46.410156 29.734375 46.640625 30.015625 C 46.871094 30.292969 46.988281 30.636719 46.988281 31.046875 C 46.988281 31.675781 46.773438 32.164062 46.339844 32.507812 C 45.90625 32.855469 45.292969 33.027344 44.492188 33.027344 C 44.226562 33.027344 43.953125 33 43.667969 32.945312 C 43.382812 32.894531 43.09375 32.816406 42.789062 32.707031 L 42.789062 31.875 C 43.027344 32.015625 43.289062 32.121094 43.574219 32.191406 C 43.859375 32.261719 44.160156 32.296875 44.46875 32.296875 C 45.007812 32.296875 45.421875 32.191406 45.703125 31.980469 C 45.988281 31.765625 46.128906 31.457031 46.128906 31.046875 C 46.128906 30.671875 46 30.378906 45.734375 30.164062 C 45.472656 29.953125 45.105469 29.847656 44.636719 29.847656 L 43.890625 29.847656 L 43.890625 29.136719 L 44.671875 29.136719 C 45.09375 29.136719 45.417969 29.054688 45.644531 28.882812 C 45.867188 28.714844 45.980469 28.46875 45.980469 28.152344 C 45.980469 27.824219 45.863281 27.574219 45.632812 27.398438 C 45.402344 27.222656 45.070312 27.132812 44.636719 27.132812 C 44.398438 27.132812 44.144531 27.160156 43.875 27.210938 C 43.605469 27.261719 43.304688 27.34375 42.980469 27.449219 L 42.980469 26.679688 C 43.308594 26.589844 43.617188 26.523438 43.902344 26.476562 C 44.1875 26.429688 44.460938 26.40625 44.710938 26.40625 C 45.367188 26.40625 45.886719 26.554688 46.265625 26.855469 C 46.648438 27.152344 46.839844 27.554688 46.839844 28.058594 C 46.839844 28.414062 46.738281 28.710938 46.535156 28.957031 C 46.335938 29.199219 46.046875 29.367188 45.671875 29.460938 Z M 45.671875 29.460938 "/>
<path style="fill:none;stroke-width:0.6;stroke-linecap:butt;stroke-linejoin:round;stroke:rgb(0%,0%,0%);stroke-opacity:1;stroke-miterlimit:4;" d="M 0 0.000055 L -2 0.000055 " transform="matrix(1.25,0,0,1.25,56.847656,178.285088)"/>
<path style="fill:none;stroke-width:0.6;stroke-linecap:butt;stroke-linejoin:round;stroke:rgb(0%,0%,0%);stroke-opacity:1;stroke-miterlimit:4;" d="M 0 -0.001488 L -2 -0.001488 " transform="matrix(1.25,0,0,1.25,56.847656,175.615141)"/>
<path style="fill:none;stroke-width:0.6;stroke-linecap:butt;stroke-linejoin:round;stroke:rgb(0%,0%,0%);stroke-opacity:1;stroke-miterlimit:4;" d="M 0 0.00131 L -2 0.00131 " transform="matrix(1.25,0,0,1.25,56.847656,173.260081)"/>
<path style="fill:none;stroke-width:0.6;stroke-linecap:butt;stroke-linejoin:round;stroke:rgb(0%,0%,0%);stroke-opacity:1;stroke-miterlimit:4;" d="M 0 -0.000828 L -2 -0.000828 " transform="matrix(1.25,0,0,1.25,56.847656,157.294004)"/>
<path style="fill:none;stroke-width:0.6;stroke-linecap:butt;stroke-linejoin:round;stroke:rgb(0%,0%,0%);stroke-opacity:1;stroke-miterlimit:4;" d="M 0 0.000582 L -2 0.000582 " transform="matrix(1.25,0,0,1.25,56.847656,149.186772)"/>
<path style="fill:none;stroke-width:0.6;stroke-linecap:butt;stroke-linejoin:round;stroke:rgb(0%,0%,0%);stroke-opacity:1;stroke-miterlimit:4;" d="M 0 -0.000804 L -2 -0.000804 " transform="matrix(1.25,0,0,1.25,56.847656,143.434599)"/>
<path style="fill:none;stroke-width:0.6;stroke-linecap:butt;stroke-linejoin:round;stroke:rgb(0%,0%,0%);stroke-opacity:1;stroke-miterlimit:4;" d="M 0 -0.000169 L -2 -0.000169 " transform="matrix(1.25,0,0,1.25,56.847656,138.972868)"/>
<path style="fill:none;stroke-width:0.6;stroke-linecap:butt;stroke-linejoin:round;stroke:rgb(0%,0%,0%);stroke-opacity:1;stroke-miterlimit:4;" d="M 0 0.000606 L -2 0.000606 " transform="matrix(1.25,0,0,1.25,56.847656,135.327368)"/>
<path style="fill:none;stroke-width:0.6;stroke-linecap:butt;stroke-linejoin:round;stroke:rgb(0%,0%,0%);stroke-opacity:1;stroke-miterlimit:4;" d="M 0 0.000763 L -2 0.000763 " transform="matrix(1.25,0,0,1.25,56.847656,132.24514)"/>
<path style="fill:none;stroke-width:0.6;stroke-linecap:butt;stroke-linejoin:round;stroke:rgb(0%,0%,0%);stroke-opacity:1;stroke-miterlimit:4;" d="M 0 -0.000781 L -2 -0.000781 " transform="matrix(1.25,0,0,1.25,56.847656,129.575195)"/>
<path style="fill:none;stroke-width:0.6;stroke-linecap:butt;stroke-linejoin:round;stroke:rgb(0%,0%,0%);stroke-opacity:1;stroke-miterlimit:4;" d="M 0 -0.001108 L -2 -0.001108 " transform="matrix(1.25,0,0,1.25,56.847656,127.220135)"/>
<path style="fill:none;stroke-width:0.6;stroke-linecap:butt;stroke-linejoin:round;stroke:rgb(0%,0%,0%);stroke-opacity:1;stroke-miterlimit:4;" d="M 0 -0.000121 L -2 -0.000121 " transform="matrix(1.25,0,0,1.25,56.847656,111.254058)"/>
<path style="fill:none;stroke-width:0.6;stroke-linecap:butt;stroke-linejoin:round;stroke:rgb(0%,0%,0%);stroke-opacity:1;stroke-miterlimit:4;" d="M 0 0.001289 L -2 0.001289 " transform="matrix(1.25,0,0,1.25,56.847656,103.146826)"/>
<path style="fill:none;stroke-width:0.6;stroke-linecap:butt;stroke-linejoin:round;stroke:rgb(0%,0%,0%);stroke-opacity:1;stroke-miterlimit:4;" d="M 0 -0.000097 L -2 -0.000097 " transform="matrix(1.25,0,0,1.25,56.847656,97.394653)"/>
<path style="fill:none;stroke-width:0.6;stroke-linecap:butt;stroke-linejoin:round;stroke:rgb(0%,0%,0%);stroke-opacity:1;stroke-miterlimit:4;" d="M 0 0.000538 L -2 0.000538 " transform="matrix(1.25,0,0,1.25,56.847656,92.932921)"/>
<path style="fill:none;stroke-width:0.6;stroke-linecap:butt;stroke-linejoin:round;stroke:rgb(0%,0%,0%);stroke-opacity:1;stroke-miterlimit:4;" d="M 0 0.001313 L -2 0.001313 " transform="matrix(1.25,0,0,1.25,56.847656,89.287421)"/>
<path style="fill:none;stroke-width:0.6;stroke-linecap:butt;stroke-linejoin:round;stroke:rgb(0%,0%,0%);stroke-opacity:1;stroke-miterlimit:4;" d="M 0 0.00147 L -2 0.00147 " transform="matrix(1.25,0,0,1.25,56.847656,86.205194)"/>
<path style="fill:none;stroke-width:0.6;stroke-linecap:butt;stroke-linejoin:round;stroke:rgb(0%,0%,0%);stroke-opacity:1;stroke-miterlimit:4;" d="M 0 -0.000073 L -2 -0.000073 " transform="matrix(1.25,0,0,1.25,56.847656,83.535247)"/>
<path style="fill:none;stroke-width:0.6;stroke-linecap:butt;stroke-linejoin:round;stroke:rgb(0%,0%,0%);stroke-opacity:1;stroke-miterlimit:4;" d="M 0 -0.000401 L -2 -0.000401 " transform="matrix(1.25,0,0,1.25,56.847656,81.180189)"/>
<path style="fill:none;stroke-width:0.6;stroke-linecap:butt;stroke-linejoin:round;stroke:rgb(0%,0%,0%);stroke-opacity:1;stroke-miterlimit:4;" d="M 0 0.000586 L -2 0.000586 " transform="matrix(1.25,0,0,1.25,56.847656,65.214111)"/>
<path style="fill:none;stroke-width:0.6;stroke-linecap:butt;stroke-linejoin:round;stroke:rgb(0%,0%,0%);stroke-opacity:1;stroke-miterlimit:4;" d="M 0 -0.001128 L -2 -0.001128 " transform="matrix(1.25,0,0,1.25,56.847656,57.106879)"/>
<path style="fill:none;stroke-width:0.6;stroke-linecap:butt;stroke-linejoin:round;stroke:rgb(0%,0%,0%);stroke-opacity:1;stroke-miterlimit:4;" d="M 0 0.00061 L -2 0.00061 " transform="matrix(1.25,0,0,1.25,56.847656,51.354706)"/>
<path style="fill:none;stroke-width:0.6;stroke-linecap:butt;stroke-linejoin:round;stroke:rgb(0%,0%,0%);stroke-opacity:1;stroke-miterlimit:4;" d="M 0 0.001245 L -2 0.001245 " transform="matrix(1.25,0,0,1.25,56.847656,46.892975)"/>
<path style="fill:none;stroke-width:0.6;stroke-linecap:butt;stroke-linejoin:round;stroke:rgb(0%,0%,0%);stroke-opacity:1;stroke-miterlimit:4;" d="M 0 -0.001104 L -2 -0.001104 " transform="matrix(1.25,0,0,1.25,56.847656,43.247474)"/>
<path style="fill:none;stroke-width:0.6;stroke-linecap:butt;stroke-linejoin:round;stroke:rgb(0%,0%,0%);stroke-opacity:1;stroke-miterlimit:4;" d="M 0 -0.000948 L -2 -0.000948 " transform="matrix(1.25,0,0,1.25,56.847656,40.165248)"/>
<path style="fill:none;stroke-width:0.6;stroke-linecap:butt;stroke-linejoin:round;stroke:rgb(0%,0%,0%);stroke-opacity:1;stroke-miterlimit:4;" d="M 0 0.000634 L -2 0.000634 " transform="matrix(1.25,0,0,1.25,56.847656,37.495301)"/>
<path style="fill:none;stroke-width:0.6;stroke-linecap:butt;stroke-linejoin:round;stroke:rgb(0%,0%,0%);stroke-opacity:1;stroke-miterlimit:4;" d="M 0 0.000306 L -2 0.000306 " transform="matrix(1.25,0,0,1.25,56.847656,35.140242)"/>
<path style="fill:none;stroke-width:0.6;stroke-linecap:butt;stroke-linejoin:round;stroke:rgb(0%,0%,0%);stroke-opacity:1;stroke-miterlimit:4;" d="M 0 0.001293 L -2 0.001293 " transform="matrix(1.25,0,0,1.25,56.847656,19.174165)"/>
<path style="fill:none;stroke-width:0.6;stroke-linecap:butt;stroke-linejoin:round;stroke:rgb(0%,0%,0%);stroke-opacity:1;stroke-miterlimit:4;" d="M 0 -0.000421 L -2 -0.000421 " transform="matrix(1.25,0,0,1.25,56.847656,11.066933)"/>
<path style=" stroke:none;fill-rule:nonzero;fill:rgb(0%,0%,0%);fill-opacity:1;" d="M 9 136.820312 L 9.9375 136.820312 L 9.9375 137.894531 C 9.9375 138.296875 10.015625 138.578125 10.179688 138.734375 C 10.34375 138.890625 10.636719 138.96875 11.058594 138.96875 L 11.664062 138.96875 L 11.664062 137.117188 L 12.535156 137.117188 L 12.535156 138.96875 L 18.5 138.96875 L 18.5 140.097656 L 12.535156 140.097656 L 12.535156 141.171875 L 11.664062 141.171875 L 11.664062 140.097656 L 11.1875 140.097656 C 10.425781 140.097656 9.871094 139.921875 9.523438 139.566406 C 9.175781 139.210938 9 138.652344 9 137.882812 Z M 9 136.820312 "/>
<path style=" stroke:none;fill-rule:nonzero;fill:rgb(0%,0%,0%);fill-opacity:1;" d="M 12.710938 131.917969 C 12.636719 132.046875 12.585938 132.183594 12.550781 132.332031 C 12.515625 132.480469 12.5 132.644531 12.5 132.820312 C 12.5 133.457031 12.703125 133.945312 13.117188 134.285156 C 13.53125 134.625 14.125 134.792969 14.898438 134.792969 L 18.5 134.792969 L 18.5 135.921875 L 11.664062 135.921875 L 11.664062 134.792969 L 12.726562 134.792969 C 12.308594 134.558594 12 134.25 11.800781 133.871094 C 11.597656 133.492188 11.5 133.035156 11.5 132.492188 C 11.5 132.414062 11.503906 132.328125 11.515625 132.234375 C 11.523438 132.140625 11.539062 132.039062 11.558594 131.925781 Z M 12.710938 131.917969 "/>
<path style=" stroke:none;fill-rule:nonzero;fill:rgb(0%,0%,0%);fill-opacity:1;" d="M 14.800781 125.175781 L 15.347656 125.175781 L 15.347656 130.339844 C 16.121094 130.289062 16.710938 130.054688 17.117188 129.640625 C 17.519531 129.222656 17.722656 128.640625 17.722656 127.898438 C 17.722656 127.464844 17.671875 127.046875 17.566406 126.644531 C 17.460938 126.238281 17.300781 125.835938 17.089844 125.4375 L 18.152344 125.4375 C 18.320312 125.839844 18.453125 126.253906 18.542969 126.675781 C 18.632812 127.101562 18.675781 127.527344 18.675781 127.964844 C 18.675781 129.054688 18.359375 129.917969 17.726562 130.554688 C 17.089844 131.191406 16.230469 131.511719 15.148438 131.511719 C 14.027344 131.511719 13.140625 131.207031 12.484375 130.605469 C 11.828125 130 11.5 129.183594 11.5 128.160156 C 11.5 127.238281 11.792969 126.511719 12.386719 125.976562 C 12.976562 125.441406 13.78125 125.175781 14.800781 125.175781 Z M 14.46875 126.296875 C 13.855469 126.304688 13.367188 126.476562 13 126.8125 C 12.632812 127.148438 12.449219 127.59375 12.449219 128.148438 C 12.449219 128.773438 12.625 129.273438 12.980469 129.652344 C 13.335938 130.027344 13.832031 130.246094 14.476562 130.300781 Z M 14.46875 126.296875 "/>
<path style=" stroke:none;fill-rule:nonzero;fill:rgb(0%,0%,0%);fill-opacity:1;" d="M 15.085938 122.660156 C 15.910156 122.660156 16.558594 122.492188 17.03125 122.152344 C 17.5 121.8125 17.734375 121.34375 17.734375 120.75 C 17.734375 120.15625 17.5 119.6875 17.03125 119.347656 C 16.558594 119.003906 15.910156 118.835938 15.085938 118.835938 C 14.261719 118.835938 13.613281 119.003906 13.144531 119.347656 C 12.671875 119.6875 12.4375 120.15625 12.4375 120.75 C 12.4375 121.34375 12.671875 121.8125 13.144531 122.152344 C 13.613281 122.492188 14.261719 122.660156 15.085938 122.660156 Z M 17.472656 118.835938 C 17.878906 119.070312 18.179688 119.367188 18.378906 119.730469 C 18.578125 120.089844 18.675781 120.519531 18.675781 121.027344 C 18.675781 121.851562 18.347656 122.523438 17.6875 123.042969 C 17.027344 123.5625 16.160156 123.820312 15.085938 123.820312 C 14.011719 123.820312 13.144531 123.5625 12.488281 123.042969 C 11.828125 122.523438 11.5 121.851562 11.5 121.027344 C 11.5 120.519531 11.597656 120.089844 11.796875 119.730469 C 11.992188 119.367188 12.292969 119.070312 12.699219 118.835938 L 11.664062 118.835938 L 11.664062 117.710938 L 21.097656 117.710938 L 21.097656 118.835938 Z M 17.472656 118.835938 "/>
<path style=" stroke:none;fill-rule:nonzero;fill:rgb(0%,0%,0%);fill-opacity:1;" d="M 15.800781 115.511719 L 11.664062 115.511719 L 11.664062 114.390625 L 15.757812 114.390625 C 16.40625 114.390625 16.890625 114.265625 17.214844 114.011719 C 17.539062 113.761719 17.699219 113.382812 17.699219 112.875 C 17.699219 112.269531 17.507812 111.792969 17.121094 111.441406 C 16.734375 111.085938 16.207031 110.910156 15.539062 110.910156 L 11.664062 110.910156 L 11.664062 109.789062 L 18.5 109.789062 L 18.5 110.910156 L 17.449219 110.910156 C 17.863281 111.183594 18.171875 111.5 18.375 111.859375 C 18.574219 112.21875 18.675781 112.636719 18.675781 113.113281 C 18.675781 113.898438 18.433594 114.496094 17.945312 114.902344 C 17.457031 115.308594 16.742188 115.511719 15.800781 115.511719 Z M 11.5 112.6875 Z M 11.5 112.6875 "/>
<path style=" stroke:none;fill-rule:nonzero;fill:rgb(0%,0%,0%);fill-opacity:1;" d="M 14.800781 101.628906 L 15.347656 101.628906 L 15.347656 106.792969 C 16.121094 106.742188 16.710938 106.507812 17.117188 106.09375 C 17.519531 105.675781 17.722656 105.09375 17.722656 104.351562 C 17.722656 103.917969 17.671875 103.5 17.566406 103.097656 C 17.460938 102.691406 17.300781 102.289062 17.089844 101.890625 L 18.152344 101.890625 C 18.320312 102.292969 18.453125 102.707031 18.542969 103.128906 C 18.632812 103.554688 18.675781 103.980469 18.675781 104.417969 C 18.675781 105.507812 18.359375 106.371094 17.726562 107.007812 C 17.089844 107.644531 16.230469 107.964844 15.148438 107.964844 C 14.027344 107.964844 13.140625 107.660156 12.484375 107.058594 C 11.828125 106.453125 11.5 105.636719 11.5 104.613281 C 11.5 103.691406 11.792969 102.964844 12.386719 102.429688 C 12.976562 101.894531 13.78125 101.628906 14.800781 101.628906 Z M 14.46875 102.75 C 13.855469 102.757812 13.367188 102.929688 13 103.265625 C 12.632812 103.601562 12.449219 104.046875 12.449219 104.601562 C 12.449219 105.226562 12.625 105.726562 12.980469 106.105469 C 13.335938 106.480469 13.832031 106.699219 14.476562 106.753906 Z M 14.46875 102.75 "/>
<path style=" stroke:none;fill-rule:nonzero;fill:rgb(0%,0%,0%);fill-opacity:1;" d="M 14.371094 94.101562 L 18.5 94.101562 L 18.5 95.222656 L 14.410156 95.222656 C 13.761719 95.222656 13.277344 95.351562 12.957031 95.601562 C 12.636719 95.855469 12.476562 96.234375 12.476562 96.738281 C 12.476562 97.34375 12.667969 97.824219 13.054688 98.171875 C 13.441406 98.523438 13.96875 98.699219 14.636719 98.699219 L 18.5 98.699219 L 18.5 99.828125 L 11.664062 99.828125 L 11.664062 98.699219 L 12.726562 98.699219 C 12.3125 98.429688 12.007812 98.113281 11.804688 97.75 C 11.601562 97.386719 11.5 96.964844 11.5 96.488281 C 11.5 95.703125 11.742188 95.109375 12.226562 94.707031 C 12.710938 94.304688 13.425781 94.101562 14.371094 94.101562 Z M 14.371094 94.101562 "/>
<path style=" stroke:none;fill-rule:nonzero;fill:rgb(0%,0%,0%);fill-opacity:1;" d="M 11.925781 86.941406 L 12.976562 86.941406 C 12.800781 87.261719 12.667969 87.578125 12.582031 87.898438 C 12.492188 88.214844 12.449219 88.539062 12.449219 88.863281 C 12.449219 89.59375 12.679688 90.160156 13.144531 90.5625 C 13.605469 90.964844 14.25 91.167969 15.085938 91.167969 C 15.921875 91.167969 16.570312 90.964844 17.03125 90.5625 C 17.492188 90.160156 17.722656 89.59375 17.722656 88.863281 C 17.722656 88.539062 17.679688 88.214844 17.59375 87.898438 C 17.503906 87.578125 17.375 87.261719 17.199219 86.941406 L 18.238281 86.941406 C 18.382812 87.257812 18.492188 87.582031 18.566406 87.917969 C 18.640625 88.25 18.675781 88.609375 18.675781 88.988281 C 18.675781 90.015625 18.351562 90.835938 17.707031 91.441406 C 17.058594 92.046875 16.183594 92.351562 15.085938 92.351562 C 13.972656 92.351562 13.09375 92.042969 12.457031 91.433594 C 11.816406 90.820312 11.5 89.980469 11.5 88.914062 C 11.5 88.566406 11.535156 88.230469 11.605469 87.902344 C 11.675781 87.570312 11.78125 87.253906 11.925781 86.941406 Z M 11.925781 86.941406 "/>
<path style=" stroke:none;fill-rule:nonzero;fill:rgb(0%,0%,0%);fill-opacity:1;" d="M 19.132812 82.144531 C 19.945312 82.460938 20.476562 82.773438 20.726562 83.074219 C 20.972656 83.375 21.097656 83.777344 21.097656 84.28125 L 21.097656 85.179688 L 20.160156 85.179688 L 20.160156 84.519531 C 20.160156 84.210938 20.085938 83.972656 19.9375 83.800781 C 19.792969 83.628906 19.445312 83.4375 18.902344 83.230469 L 18.390625 83.03125 L 11.664062 85.792969 L 11.664062 84.605469 L 17.007812 82.46875 L 11.664062 80.332031 L 11.664062 79.140625 Z M 19.132812 82.144531 "/>
<path style=" stroke:none;fill-rule:nonzero;fill:rgb(0%,0%,0%);fill-opacity:1;" d="M 16.949219 78.210938 L 16.949219 76.925781 L 18.5 76.925781 L 18.5 78.210938 Z M 12.035156 78.210938 L 12.035156 76.925781 L 13.585938 76.925781 L 13.585938 78.210938 Z M 12.035156 78.210938 "/>
<path style=" stroke:none;fill-rule:nonzero;fill:rgb(0%,0%,0%);fill-opacity:1;" d="M 14.371094 64.628906 L 18.5 64.628906 L 18.5 65.753906 L 14.410156 65.753906 C 13.761719 65.753906 13.277344 65.878906 12.957031 66.132812 C 12.636719 66.386719 12.476562 66.761719 12.476562 67.265625 C 12.476562 67.875 12.667969 68.351562 13.054688 68.703125 C 13.441406 69.054688 13.96875 69.226562 14.636719 69.226562 L 18.5 69.226562 L 18.5 70.355469 L 11.664062 70.355469 L 11.664062 69.226562 L 12.726562 69.226562 C 12.3125 68.957031 12.007812 68.640625 11.804688 68.277344 C 11.601562 67.914062 11.5 67.492188 11.5 67.015625 C 11.5 66.230469 11.742188 65.636719 12.226562 65.234375 C 12.710938 64.832031 13.425781 64.628906 14.371094 64.628906 Z M 14.371094 64.628906 "/>
<path style=" stroke:none;fill-rule:nonzero;fill:rgb(0%,0%,0%);fill-opacity:1;" d="M 9.015625 59.695312 C 9.949219 60.238281 10.875 60.644531 11.792969 60.910156 C 12.707031 61.171875 13.632812 61.304688 14.574219 61.304688 C 15.511719 61.304688 16.445312 61.171875 17.367188 60.90625 C 18.289062 60.636719 19.214844 60.234375 20.148438 59.695312 L 20.148438 60.671875 C 19.191406 61.28125 18.25 61.738281 17.328125 62.039062 C 16.402344 62.34375 15.484375 62.496094 14.574219 62.496094 C 13.667969 62.496094 12.753906 62.34375 11.835938 62.042969 C 10.914062 61.742188 9.972656 61.285156 9.015625 60.671875 Z M 9.015625 59.695312 "/>
<path style=" stroke:none;fill-rule:nonzero;fill:rgb(0%,0%,0%);fill-opacity:1;" d="M 11.664062 51.832031 L 14.988281 54.304688 L 18.5 51.703125 L 18.5 53.027344 L 15.8125 55.019531 L 18.5 57.007812 L 18.5 58.332031 L 14.921875 55.675781 L 11.664062 58.105469 L 11.664062 56.78125 L 14.097656 54.96875 L 11.664062 53.15625 Z M 11.664062 51.832031 "/>
<path style=" stroke:none;fill-rule:nonzero;fill:rgb(0%,0%,0%);fill-opacity:1;" d="M 9.015625 50.292969 L 9.015625 49.316406 C 9.972656 48.707031 10.914062 48.25 11.835938 47.949219 C 12.753906 47.644531 13.667969 47.492188 14.574219 47.492188 C 15.484375 47.492188 16.402344 47.644531 17.328125 47.949219 C 18.25 48.25 19.191406 48.707031 20.148438 49.316406 L 20.148438 50.292969 C 19.214844 49.753906 18.289062 49.347656 17.367188 49.082031 C 16.445312 48.816406 15.511719 48.683594 14.574219 48.683594 C 13.632812 48.683594 12.707031 48.816406 11.792969 49.082031 C 10.875 49.347656 9.949219 49.753906 9.015625 50.292969 Z M 9.015625 50.292969 "/>
<g clip-path="url(#clip9)" clip-rule="nonzero">
<path style="fill:none;stroke-width:1.5;stroke-linecap:square;stroke-linejoin:round;stroke:rgb(12.156863%,46.666667%,70.588235%);stroke-opacity:1;stroke-miterlimit:4;" d="M -1 22.63125 L 54.35625 22.640625 L 68.95625 22.921875 L 77.496875 24.121875 L 83.55625 29.678125 L 88.25625 32.246875 L 92.096875 35.93125 L 95.34375 36.253125 L 98.15625 39.45 L 102.85625 39.66875 L 104.8625 43.0375 L 106.696875 46.73125 L 108.38125 47.371875 L 111.396875 50.575 L 112.75625 50.940625 L 114.034375 51.853125 L 115.2375 52.171875 L 116.375 55.940625 L 117.45625 56.5625 L 118.484375 58.221875 L 119.4625 58.221875 L 120.4 58.578125 L 121.296875 59.184375 L 122.15625 59.434375 L 122.98125 59.946875 L 123.778125 60.078125 L 125.28125 60.078125 L 126.6875 60.6125 L 127.35625 61.1625 L 128.003125 61.1625 L 128.634375 61.303125 L 129.24375 61.303125 L 129.8375 61.446875 L 130.415625 62.328125 L 130.975 62.478125 L 131.521875 62.7875 L 132.05625 64.25 L 133.084375 64.59375 L 133.58125 64.59375 L 134.0625 64.76875 L 134.5375 65.121875 L 136.33125 65.859375 L 137.175 65.859375 L 137.584375 66.046875 L 137.984375 66.046875 L 138.378125 66.434375 L 139.14375 67.440625 L 139.515625 67.859375 L 139.884375 68.075 L 140.596875 68.075 L 141.95625 68.965625 L 142.603125 68.965625 L 142.921875 69.19375 L 143.234375 69.90625 L 143.540625 70.90625 L 144.4375 71.7 L 144.728125 71.7 L 145.015625 72.25 L 145.575 72.25 L 145.853125 72.821875 L 146.121875 73.115625 L 146.390625 73.115625 L 147.684375 74.66875 L 148.903125 74.66875 L 149.1375 75 L 149.371875 75 L 149.6 75.3375 L 149.828125 75.3375 L 150.053125 75.68125 L 150.715625 75.68125 L 150.93125 76.03125 L 151.14375 76.03125 L 151.565625 76.759375 L 151.978125 76.759375 L 152.184375 77.134375 L 152.384375 77.134375 L 152.78125 77.915625 L 153.365625 77.915625 L 153.74375 78.7375 L 153.93125 78.7375 L 154.115625 79.1625 L 154.84375 79.1625 L 155.021875 79.6 L 155.8875 79.6 L 156.05625 80.053125 L 156.721875 80.053125 L 156.884375 80.515625 L 157.678125 80.515625 L 157.834375 80.99375 L 158.140625 80.99375 L 158.29375 81.484375 L 158.890625 81.484375 L 159.0375 81.99375 L 159.328125 81.99375 L 159.471875 82.51875 L 159.75625 82.51875 L 159.896875 83.059375 L 160.0375 83.059375 L 160.175 83.621875 L 160.859375 83.621875 L 160.990625 84.203125 L 161.51875 84.203125 L 161.646875 84.80625 L 162.409375 84.80625 L 162.534375 85.434375 L 162.903125 85.434375 L 163.025 86.0875 L 163.503125 86.0875 L 163.621875 86.76875 L 164.2 86.76875 L 164.315625 87.478125 L 165.425 87.478125 L 165.6375 88.221875 L 166.375 88.221875 L 166.578125 89.003125 L 167.675 89.003125 L 167.86875 89.825 L 168.715625 89.825 L 168.9 90.6875 L 169.175 90.6875 L 169.353125 91.603125 L 169.971875 91.603125 L 170.146875 92.571875 L 171.484375 92.571875 L 171.64375 93.60625 L 172.434375 93.60625 L 172.5875 94.709375 L 173.490625 94.709375 L 173.6375 95.89375 L 175.25625 95.89375 L 175.390625 97.175 L 176.378125 97.175 L 176.50625 98.565625 L 178.3375 98.565625 L 178.453125 100.090625 L 180.453125 100.090625 L 180.609375 101.775 L 182.421875 101.775 L 182.565625 103.659375 L 185.25625 103.659375 L 185.384375 105.796875 L 188.528125 105.796875 L 188.671875 108.2625 L 191.671875 108.2625 L 191.796875 111.178125 L 195.753125 111.178125 L 195.88125 114.746875 L 200.725 114.746875 L 200.84375 119.35 L 207.2125 119.35 L 207.33125 125.834375 L 216.28125 125.834375 L 216.396875 136.921875 L 231.9 136.921875 " transform="matrix(1.25,0,0,1.25,0,0)"/>
</g>
<path style="fill:none;stroke-width:0.8;stroke-linecap:square;stroke-linejoin:miter;stroke:rgb(0%,0%,0%);stroke-opacity:1;stroke-miterlimit:4;" d="M 45.478125 143.1 L 45.478125 7.2 " transform="matrix(1.25,0,0,1.25,0,0)"/>
<path style="fill:none;stroke-width:0.8;stroke-linecap:square;stroke-linejoin:miter;stroke:rgb(0%,0%,0%);stroke-opacity:1;stroke-miterlimit:4;" d="M 240.778125 143.1 L 240.778125 7.2 " transform="matrix(1.25,0,0,1.25,0,0)"/>
<path style="fill:none;stroke-width:0.8;stroke-linecap:square;stroke-linejoin:miter;stroke:rgb(0%,0%,0%);stroke-opacity:1;stroke-miterlimit:4;" d="M 45.478125 143.1 L 240.778125 143.1 " transform="matrix(1.25,0,0,1.25,0,0)"/>
<path style="fill:none;stroke-width:0.8;stroke-linecap:square;stroke-linejoin:miter;stroke:rgb(0%,0%,0%);stroke-opacity:1;stroke-miterlimit:4;" d="M 45.478125 7.2 L 240.778125 7.2 " transform="matrix(1.25,0,0,1.25,0,0)"/>
</g>
</svg>
