<?xml version="1.0" encoding="UTF-8"?>
<svg xmlns="http://www.w3.org/2000/svg" xmlns:xlink="http://www.w3.org/1999/xlink" width="509pt" height="260pt" viewBox="0 0 509 260" version="1.1">
<defs>
<clipPath id="clip1">
  <path d="M 147 9 L 150 9 L 150 212.851562 L 147 212.851562 Z M 147 9 "/>
</clipPath>
<clipPath id="clip2">
  <path d="M 231 9 L 234 9 L 234 212.851562 L 231 212.851562 Z M 231 9 "/>
</clipPath>
<clipPath id="clip3">
  <path d="M 315 9 L 317 9 L 317 212.851562 L 315 212.851562 Z M 315 9 "/>
</clipPath>
<clipPath id="clip4">
  <path d="M 399 9 L 401 9 L 401 212.851562 L 399 212.851562 Z M 399 9 "/>
</clipPath>
<clipPath id="clip5">
  <path d="M 482 9 L 483.703125 9 L 483.703125 212.851562 L 482 212.851562 Z M 482 9 "/>
</clipPath>
<clipPath id="clip6">
  <path d="M 65.203125 203 L 483.703125 203 L 483.703125 205 L 65.203125 205 Z M 65.203125 203 "/>
</clipPath>
<clipPath id="clip7">
  <path d="M 65.203125 174 L 483.703125 174 L 483.703125 177 L 65.203125 177 Z M 65.203125 174 "/>
</clipPath>
<clipPath id="clip8">
  <path d="M 65.203125 146 L 483.703125 146 L 483.703125 149 L 65.203125 149 Z M 65.203125 146 "/>
</clipPath>
<clipPath id="clip9">
  <path d="M 65.203125 118 L 483.703125 118 L 483.703125 120 L 65.203125 120 Z M 65.203125 118 "/>
</clipPath>
<clipPath id="clip10">
  <path d="M 65.203125 90 L 483.703125 90 L 483.703125 92 L 65.203125 92 Z M 65.203125 90 "/>
</clipPath>
<clipPath id="clip11">
  <path d="M 65.203125 61 L 483.703125 61 L 483.703125 64 L 65.203125 64 Z M 65.203125 61 "/>
</clipPath>
<clipPath id="clip12">
  <path d="M 65.203125 33 L 483.703125 33 L 483.703125 35 L 65.203125 35 Z M 65.203125 33 "/>
</clipPath>
<clipPath id="clip13">
  <path d="M 65.203125 16 L 483.703125 16 L 483.703125 205 L 65.203125 205 Z M 65.203125 16 "/>
</clipPath>
</defs>
<g id="surface1">
<path style=" stroke:none;fill-rule:nonzero;fill:rgb(100%,100%,100%);fill-opacity:1;" d="M 65.203125 212.851562 L 483.703125 212.851562 L 483.703125 9 L 65.203125 9 Z M 65.203125 212.851562 "/>
<g clip-path="url(#clip1)" clip-rule="nonzero">
<path style="fill:none;stroke-width:0.8;stroke-linecap:square;stroke-linejoin:round;stroke:rgb(69.019608%,69.019608%,69.019608%);stroke-opacity:1;stroke-miterlimit:4;" d="M 118.853125 170.28125 L 118.853125 7.2 " transform="matrix(1.25,0,0,1.25,0,0)"/>
</g>
<path style="fill:none;stroke-width:0.8;stroke-linecap:butt;stroke-linejoin:round;stroke:rgb(0%,0%,0%);stroke-opacity:1;stroke-miterlimit:4;" d="M 0.000296 0.00125 L 0.000296 3.50125 " transform="matrix(1.25,0,0,1.25,148.566036,212.85)"/>
<path style=" stroke:none;fill-rule:nonzero;fill:rgb(0%,0%,0%);fill-opacity:1;" d="M 139.035156 230.0625 L 143.335938 230.0625 L 143.335938 231.097656 L 137.550781 231.097656 L 137.550781 230.0625 C 138.019531 229.578125 138.65625 228.925781 139.464844 228.113281 C 140.273438 227.296875 140.78125 226.769531 140.988281 226.53125 C 141.382812 226.089844 141.65625 225.714844 141.8125 225.40625 C 141.972656 225.097656 142.050781 224.796875 142.050781 224.5 C 142.050781 224.015625 141.878906 223.621094 141.539062 223.316406 C 141.199219 223.011719 140.757812 222.859375 140.210938 222.859375 C 139.824219 222.859375 139.417969 222.925781 138.988281 223.058594 C 138.558594 223.191406 138.101562 223.398438 137.613281 223.671875 L 137.613281 222.425781 C 138.109375 222.226562 138.574219 222.074219 139.003906 221.972656 C 139.4375 221.871094 139.832031 221.820312 140.1875 221.820312 C 141.132812 221.820312 141.886719 222.058594 142.445312 222.53125 C 143.007812 223 143.289062 223.632812 143.289062 224.421875 C 143.289062 224.796875 143.21875 225.152344 143.078125 225.488281 C 142.9375 225.820312 142.683594 226.214844 142.3125 226.671875 C 142.210938 226.789062 141.886719 227.132812 141.339844 227.695312 C 140.796875 228.257812 140.027344 229.046875 139.035156 230.0625 Z M 139.035156 230.0625 "/>
<path style=" stroke:none;fill-rule:nonzero;fill:rgb(0%,0%,0%);fill-opacity:1;" d="M 148.5625 222.796875 C 147.929688 222.796875 147.449219 223.109375 147.128906 223.734375 C 146.8125 224.359375 146.652344 225.296875 146.652344 226.550781 C 146.652344 227.800781 146.8125 228.738281 147.128906 229.363281 C 147.449219 229.988281 147.929688 230.300781 148.5625 230.300781 C 149.203125 230.300781 149.679688 229.988281 150 229.363281 C 150.320312 228.738281 150.480469 227.800781 150.480469 226.550781 C 150.480469 225.296875 150.320312 224.359375 150 223.734375 C 149.679688 223.109375 149.203125 222.796875 148.5625 222.796875 Z M 148.5625 221.820312 C 149.585938 221.820312 150.363281 222.226562 150.902344 223.035156 C 151.441406 223.839844 151.710938 225.011719 151.710938 226.550781 C 151.710938 228.085938 151.441406 229.257812 150.902344 230.066406 C 150.363281 230.871094 149.585938 231.277344 148.5625 231.277344 C 147.542969 231.277344 146.761719 230.871094 146.222656 230.066406 C 145.683594 229.257812 145.414062 228.085938 145.414062 226.550781 C 145.414062 225.011719 145.683594 223.839844 146.222656 223.035156 C 146.761719 222.226562 147.542969 221.820312 148.5625 221.820312 Z M 148.5625 221.820312 "/>
<path style=" stroke:none;fill-rule:nonzero;fill:rgb(0%,0%,0%);fill-opacity:1;" d="M 156.515625 222.796875 C 155.878906 222.796875 155.402344 223.109375 155.082031 223.734375 C 154.765625 224.359375 154.605469 225.296875 154.605469 226.550781 C 154.605469 227.800781 154.765625 228.738281 155.082031 229.363281 C 155.402344 229.988281 155.878906 230.300781 156.515625 230.300781 C 157.152344 230.300781 157.632812 229.988281 157.953125 229.363281 C 158.273438 228.738281 158.433594 227.800781 158.433594 226.550781 C 158.433594 225.296875 158.273438 224.359375 157.953125 223.734375 C 157.632812 223.109375 157.152344 222.796875 156.515625 222.796875 Z M 156.515625 221.820312 C 157.535156 221.820312 158.316406 222.226562 158.855469 223.035156 C 159.394531 223.839844 159.664062 225.011719 159.664062 226.550781 C 159.664062 228.085938 159.394531 229.257812 158.855469 230.066406 C 158.316406 230.871094 157.535156 231.277344 156.515625 231.277344 C 155.492188 231.277344 154.714844 230.871094 154.175781 230.066406 C 153.636719 229.257812 153.367188 228.085938 153.367188 226.550781 C 153.367188 225.011719 153.636719 223.839844 154.175781 223.035156 C 154.714844 222.226562 155.492188 221.820312 156.515625 221.820312 Z M 156.515625 221.820312 "/>
<g clip-path="url(#clip2)" clip-rule="nonzero">
<path style="fill:none;stroke-width:0.8;stroke-linecap:square;stroke-linejoin:round;stroke:rgb(69.019608%,69.019608%,69.019608%);stroke-opacity:1;stroke-miterlimit:4;" d="M 185.88125 170.28125 L 185.88125 7.2 " transform="matrix(1.25,0,0,1.25,0,0)"/>
</g>
<path style="fill:none;stroke-width:0.8;stroke-linecap:butt;stroke-linejoin:round;stroke:rgb(0%,0%,0%);stroke-opacity:1;stroke-miterlimit:4;" d="M 0.001394 0.00125 L 0.001394 3.50125 " transform="matrix(1.25,0,0,1.25,232.34982,212.85)"/>
<path style=" stroke:none;fill-rule:nonzero;fill:rgb(0%,0%,0%);fill-opacity:1;" d="M 225.144531 223.058594 L 222.03125 227.925781 L 225.144531 227.925781 Z M 224.820312 221.984375 L 226.371094 221.984375 L 226.371094 227.925781 L 227.671875 227.925781 L 227.671875 228.949219 L 226.371094 228.949219 L 226.371094 231.097656 L 225.144531 231.097656 L 225.144531 228.949219 L 221.03125 228.949219 L 221.03125 227.761719 Z M 224.820312 221.984375 "/>
<path style=" stroke:none;fill-rule:nonzero;fill:rgb(0%,0%,0%);fill-opacity:1;" d="M 232.34375 222.796875 C 231.710938 222.796875 231.234375 223.109375 230.914062 223.734375 C 230.59375 224.359375 230.433594 225.296875 230.433594 226.550781 C 230.433594 227.800781 230.59375 228.738281 230.914062 229.363281 C 231.234375 229.988281 231.710938 230.300781 232.34375 230.300781 C 232.984375 230.300781 233.464844 229.988281 233.78125 229.363281 C 234.101562 228.738281 234.261719 227.800781 234.261719 226.550781 C 234.261719 225.296875 234.101562 224.359375 233.78125 223.734375 C 233.464844 223.109375 232.984375 222.796875 232.34375 222.796875 Z M 232.34375 221.820312 C 233.367188 221.820312 234.148438 222.226562 234.6875 223.035156 C 235.226562 223.839844 235.496094 225.011719 235.496094 226.550781 C 235.496094 228.085938 235.226562 229.257812 234.6875 230.066406 C 234.148438 230.871094 233.367188 231.277344 232.34375 231.277344 C 231.324219 231.277344 230.542969 230.871094 230.003906 230.066406 C 229.464844 229.257812 229.195312 228.085938 229.195312 226.550781 C 229.195312 225.011719 229.464844 223.839844 230.003906 223.035156 C 230.542969 222.226562 231.324219 221.820312 232.34375 221.820312 Z M 232.34375 221.820312 "/>
<path style=" stroke:none;fill-rule:nonzero;fill:rgb(0%,0%,0%);fill-opacity:1;" d="M 240.296875 222.796875 C 239.664062 222.796875 239.1875 223.109375 238.867188 223.734375 C 238.546875 224.359375 238.386719 225.296875 238.386719 226.550781 C 238.386719 227.800781 238.546875 228.738281 238.867188 229.363281 C 239.1875 229.988281 239.664062 230.300781 240.296875 230.300781 C 240.9375 230.300781 241.417969 229.988281 241.734375 229.363281 C 242.054688 228.738281 242.214844 227.800781 242.214844 226.550781 C 242.214844 225.296875 242.054688 224.359375 241.734375 223.734375 C 241.417969 223.109375 240.9375 222.796875 240.296875 222.796875 Z M 240.296875 221.820312 C 241.320312 221.820312 242.101562 222.226562 242.640625 223.035156 C 243.179688 223.839844 243.449219 225.011719 243.449219 226.550781 C 243.449219 228.085938 243.179688 229.257812 242.640625 230.066406 C 242.101562 230.871094 241.320312 231.277344 240.296875 231.277344 C 239.277344 231.277344 238.496094 230.871094 237.957031 230.066406 C 237.417969 229.257812 237.148438 228.085938 237.148438 226.550781 C 237.148438 225.011719 237.417969 223.839844 237.957031 223.035156 C 238.496094 222.226562 239.277344 221.820312 240.296875 221.820312 Z M 240.296875 221.820312 "/>
<g clip-path="url(#clip3)" clip-rule="nonzero">
<path style="fill:none;stroke-width:0.8;stroke-linecap:square;stroke-linejoin:round;stroke:rgb(69.019608%,69.019608%,69.019608%);stroke-opacity:1;stroke-miterlimit:4;" d="M 252.90625 170.28125 L 252.90625 7.2 " transform="matrix(1.25,0,0,1.25,0,0)"/>
</g>
<path style="fill:none;stroke-width:0.8;stroke-linecap:butt;stroke-linejoin:round;stroke:rgb(0%,0%,0%);stroke-opacity:1;stroke-miterlimit:4;" d="M -0.000633 0.00125 L -0.000633 3.50125 " transform="matrix(1.25,0,0,1.25,316.133604,212.85)"/>
<path style=" stroke:none;fill-rule:nonzero;fill:rgb(0%,0%,0%);fill-opacity:1;" d="M 308.332031 226.050781 C 307.777344 226.050781 307.339844 226.242188 307.015625 226.621094 C 306.691406 226.996094 306.53125 227.515625 306.53125 228.175781 C 306.53125 228.828125 306.691406 229.347656 307.015625 229.730469 C 307.339844 230.109375 307.777344 230.300781 308.332031 230.300781 C 308.882812 230.300781 309.324219 230.109375 309.644531 229.730469 C 309.96875 229.347656 310.128906 228.828125 310.128906 228.175781 C 310.128906 227.515625 309.96875 226.996094 309.644531 226.621094 C 309.324219 226.242188 308.882812 226.050781 308.332031 226.050781 Z M 310.777344 222.1875 L 310.777344 223.308594 C 310.46875 223.164062 310.15625 223.050781 309.839844 222.976562 C 309.527344 222.898438 309.214844 222.859375 308.902344 222.859375 C 308.089844 222.859375 307.46875 223.132812 307.039062 223.683594 C 306.609375 224.230469 306.363281 225.0625 306.304688 226.171875 C 306.542969 225.816406 306.84375 225.546875 307.207031 225.359375 C 307.570312 225.167969 307.96875 225.074219 308.402344 225.074219 C 309.320312 225.074219 310.042969 225.351562 310.574219 225.910156 C 311.105469 226.464844 311.371094 227.21875 311.371094 228.175781 C 311.371094 229.109375 311.09375 229.863281 310.539062 230.429688 C 309.988281 230.992188 309.25 231.277344 308.332031 231.277344 C 307.277344 231.277344 306.46875 230.871094 305.914062 230.066406 C 305.355469 229.257812 305.078125 228.085938 305.078125 226.550781 C 305.078125 225.109375 305.417969 223.960938 306.101562 223.105469 C 306.785156 222.25 307.703125 221.820312 308.855469 221.820312 C 309.164062 221.820312 309.476562 221.851562 309.792969 221.914062 C 310.105469 221.972656 310.4375 222.066406 310.777344 222.1875 Z M 310.777344 222.1875 "/>
<path style=" stroke:none;fill-rule:nonzero;fill:rgb(0%,0%,0%);fill-opacity:1;" d="M 316.128906 222.796875 C 315.496094 222.796875 315.019531 223.109375 314.699219 223.734375 C 314.378906 224.359375 314.21875 225.296875 314.21875 226.550781 C 314.21875 227.800781 314.378906 228.738281 314.699219 229.363281 C 315.019531 229.988281 315.496094 230.300781 316.128906 230.300781 C 316.769531 230.300781 317.246094 229.988281 317.566406 229.363281 C 317.886719 228.738281 318.046875 227.800781 318.046875 226.550781 C 318.046875 225.296875 317.886719 224.359375 317.566406 223.734375 C 317.246094 223.109375 316.769531 222.796875 316.128906 222.796875 Z M 316.128906 221.820312 C 317.152344 221.820312 317.933594 222.226562 318.472656 223.035156 C 319.011719 223.839844 319.28125 225.011719 319.28125 226.550781 C 319.28125 228.085938 319.011719 229.257812 318.472656 230.066406 C 317.933594 230.871094 317.152344 231.277344 316.128906 231.277344 C 315.109375 231.277344 314.328125 230.871094 313.789062 230.066406 C 313.25 229.257812 312.980469 228.085938 312.980469 226.550781 C 312.980469 225.011719 313.25 223.839844 313.789062 223.035156 C 314.328125 222.226562 315.109375 221.820312 316.128906 221.820312 Z M 316.128906 221.820312 "/>
<path style=" stroke:none;fill-rule:nonzero;fill:rgb(0%,0%,0%);fill-opacity:1;" d="M 324.082031 222.796875 C 323.449219 222.796875 322.972656 223.109375 322.652344 223.734375 C 322.332031 224.359375 322.171875 225.296875 322.171875 226.550781 C 322.171875 227.800781 322.332031 228.738281 322.652344 229.363281 C 322.972656 229.988281 323.449219 230.300781 324.082031 230.300781 C 324.722656 230.300781 325.199219 229.988281 325.519531 229.363281 C 325.839844 228.738281 326 227.800781 326 226.550781 C 326 225.296875 325.839844 224.359375 325.519531 223.734375 C 325.199219 223.109375 324.722656 222.796875 324.082031 222.796875 Z M 324.082031 221.820312 C 325.105469 221.820312 325.886719 222.226562 326.425781 223.035156 C 326.964844 223.839844 327.234375 225.011719 327.234375 226.550781 C 327.234375 228.085938 326.964844 229.257812 326.425781 230.066406 C 325.886719 230.871094 325.105469 231.277344 324.082031 231.277344 C 323.0625 231.277344 322.28125 230.871094 321.742188 230.066406 C 321.203125 229.257812 320.933594 228.085938 320.933594 226.550781 C 320.933594 225.011719 321.203125 223.839844 321.742188 223.035156 C 322.28125 222.226562 323.0625 221.820312 324.082031 221.820312 Z M 324.082031 221.820312 "/>
<g clip-path="url(#clip4)" clip-rule="nonzero">
<path style="fill:none;stroke-width:0.8;stroke-linecap:square;stroke-linejoin:round;stroke:rgb(69.019608%,69.019608%,69.019608%);stroke-opacity:1;stroke-miterlimit:4;" d="M 319.934375 170.28125 L 319.934375 7.2 " transform="matrix(1.25,0,0,1.25,0,0)"/>
</g>
<path style="fill:none;stroke-width:0.8;stroke-linecap:butt;stroke-linejoin:round;stroke:rgb(0%,0%,0%);stroke-opacity:1;stroke-miterlimit:4;" d="M 0.000465 0.00125 L 0.000465 3.50125 " transform="matrix(1.25,0,0,1.25,399.917388,212.85)"/>
<path style=" stroke:none;fill-rule:nonzero;fill:rgb(0%,0%,0%);fill-opacity:1;" d="M 391.960938 226.769531 C 391.375 226.769531 390.914062 226.925781 390.578125 227.242188 C 390.242188 227.554688 390.074219 227.984375 390.074219 228.535156 C 390.074219 229.082031 390.242188 229.515625 390.578125 229.828125 C 390.914062 230.140625 391.375 230.300781 391.960938 230.300781 C 392.546875 230.300781 393.007812 230.140625 393.34375 229.828125 C 393.683594 229.511719 393.851562 229.078125 393.851562 228.535156 C 393.851562 227.984375 393.683594 227.554688 393.347656 227.242188 C 393.015625 226.925781 392.550781 226.769531 391.960938 226.769531 Z M 390.726562 226.246094 C 390.199219 226.117188 389.789062 225.871094 389.492188 225.507812 C 389.199219 225.144531 389.050781 224.703125 389.050781 224.183594 C 389.050781 223.453125 389.308594 222.878906 389.828125 222.457031 C 390.347656 222.03125 391.058594 221.820312 391.960938 221.820312 C 392.867188 221.820312 393.582031 222.03125 394.097656 222.457031 C 394.613281 222.878906 394.871094 223.453125 394.871094 224.183594 C 394.871094 224.703125 394.726562 225.144531 394.429688 225.507812 C 394.136719 225.871094 393.726562 226.117188 393.199219 226.246094 C 393.792969 226.382812 394.257812 226.65625 394.585938 227.058594 C 394.917969 227.460938 395.085938 227.953125 395.085938 228.535156 C 395.085938 229.417969 394.816406 230.097656 394.277344 230.570312 C 393.738281 231.039062 392.964844 231.277344 391.960938 231.277344 C 390.957031 231.277344 390.183594 231.039062 389.644531 230.570312 C 389.105469 230.097656 388.835938 229.417969 388.835938 228.535156 C 388.835938 227.953125 389.003906 227.460938 389.335938 227.058594 C 389.671875 226.65625 390.132812 226.382812 390.726562 226.246094 Z M 390.277344 224.300781 C 390.277344 224.769531 390.425781 225.136719 390.71875 225.402344 C 391.015625 225.667969 391.429688 225.800781 391.960938 225.800781 C 392.492188 225.800781 392.90625 225.667969 393.203125 225.402344 C 393.503906 225.136719 393.652344 224.769531 393.652344 224.300781 C 393.652344 223.828125 393.503906 223.457031 393.203125 223.195312 C 392.90625 222.929688 392.492188 222.796875 391.960938 222.796875 C 391.429688 222.796875 391.015625 222.929688 390.71875 223.195312 C 390.425781 223.457031 390.277344 223.828125 390.277344 224.300781 Z M 390.277344 224.300781 "/>
<path style=" stroke:none;fill-rule:nonzero;fill:rgb(0%,0%,0%);fill-opacity:1;" d="M 399.914062 222.796875 C 399.277344 222.796875 398.800781 223.109375 398.480469 223.734375 C 398.164062 224.359375 398.003906 225.296875 398.003906 226.550781 C 398.003906 227.800781 398.164062 228.738281 398.480469 229.363281 C 398.800781 229.988281 399.277344 230.300781 399.914062 230.300781 C 400.550781 230.300781 401.03125 229.988281 401.351562 229.363281 C 401.671875 228.738281 401.832031 227.800781 401.832031 226.550781 C 401.832031 225.296875 401.671875 224.359375 401.351562 223.734375 C 401.03125 223.109375 400.550781 222.796875 399.914062 222.796875 Z M 399.914062 221.820312 C 400.933594 221.820312 401.714844 222.226562 402.253906 223.035156 C 402.792969 223.839844 403.0625 225.011719 403.0625 226.550781 C 403.0625 228.085938 402.792969 229.257812 402.253906 230.066406 C 401.714844 230.871094 400.933594 231.277344 399.914062 231.277344 C 398.890625 231.277344 398.113281 230.871094 397.574219 230.066406 C 397.035156 229.257812 396.765625 228.085938 396.765625 226.550781 C 396.765625 225.011719 397.035156 223.839844 397.574219 223.035156 C 398.113281 222.226562 398.890625 221.820312 399.914062 221.820312 Z M 399.914062 221.820312 "/>
<path style=" stroke:none;fill-rule:nonzero;fill:rgb(0%,0%,0%);fill-opacity:1;" d="M 407.867188 222.796875 C 407.230469 222.796875 406.753906 223.109375 406.433594 223.734375 C 406.117188 224.359375 405.957031 225.296875 405.957031 226.550781 C 405.957031 227.800781 406.117188 228.738281 406.433594 229.363281 C 406.753906 229.988281 407.230469 230.300781 407.867188 230.300781 C 408.503906 230.300781 408.984375 229.988281 409.304688 229.363281 C 409.625 228.738281 409.785156 227.800781 409.785156 226.550781 C 409.785156 225.296875 409.625 224.359375 409.304688 223.734375 C 408.984375 223.109375 408.503906 222.796875 407.867188 222.796875 Z M 407.867188 221.820312 C 408.886719 221.820312 409.667969 222.226562 410.207031 223.035156 C 410.746094 223.839844 411.015625 225.011719 411.015625 226.550781 C 411.015625 228.085938 410.746094 229.257812 410.207031 230.066406 C 409.667969 230.871094 408.886719 231.277344 407.867188 231.277344 C 406.84375 231.277344 406.066406 230.871094 405.527344 230.066406 C 404.988281 229.257812 404.71875 228.085938 404.71875 226.550781 C 404.71875 225.011719 404.988281 223.839844 405.527344 223.035156 C 406.066406 222.226562 406.84375 221.820312 407.867188 221.820312 Z M 407.867188 221.820312 "/>
<g clip-path="url(#clip5)" clip-rule="nonzero">
<path style="fill:none;stroke-width:0.8;stroke-linecap:square;stroke-linejoin:round;stroke:rgb(69.019608%,69.019608%,69.019608%);stroke-opacity:1;stroke-miterlimit:4;" d="M 386.9625 170.28125 L 386.9625 7.2 " transform="matrix(1.25,0,0,1.25,0,0)"/>
</g>
<path style="fill:none;stroke-width:0.8;stroke-linecap:butt;stroke-linejoin:round;stroke:rgb(0%,0%,0%);stroke-opacity:1;stroke-miterlimit:4;" d="M 0.001562 0.00125 L 0.001562 3.50125 " transform="matrix(1.25,0,0,1.25,483.701172,212.85)"/>
<path style=" stroke:none;fill-rule:nonzero;fill:rgb(0%,0%,0%);fill-opacity:1;" d="M 469.34375 230.0625 L 471.359375 230.0625 L 471.359375 223.109375 L 469.167969 223.546875 L 469.167969 222.425781 L 471.347656 221.984375 L 472.578125 221.984375 L 472.578125 230.0625 L 474.59375 230.0625 L 474.59375 231.097656 L 469.34375 231.097656 Z M 469.34375 230.0625 "/>
<path style=" stroke:none;fill-rule:nonzero;fill:rgb(0%,0%,0%);fill-opacity:1;" d="M 479.71875 222.796875 C 479.085938 222.796875 478.609375 223.109375 478.289062 223.734375 C 477.96875 224.359375 477.808594 225.296875 477.808594 226.550781 C 477.808594 227.800781 477.96875 228.738281 478.289062 229.363281 C 478.609375 229.988281 479.085938 230.300781 479.71875 230.300781 C 480.359375 230.300781 480.839844 229.988281 481.15625 229.363281 C 481.476562 228.738281 481.636719 227.800781 481.636719 226.550781 C 481.636719 225.296875 481.476562 224.359375 481.15625 223.734375 C 480.839844 223.109375 480.359375 222.796875 479.71875 222.796875 Z M 479.71875 221.820312 C 480.742188 221.820312 481.523438 222.226562 482.0625 223.035156 C 482.601562 223.839844 482.871094 225.011719 482.871094 226.550781 C 482.871094 228.085938 482.601562 229.257812 482.0625 230.066406 C 481.523438 230.871094 480.742188 231.277344 479.71875 231.277344 C 478.699219 231.277344 477.917969 230.871094 477.378906 230.066406 C 476.839844 229.257812 476.570312 228.085938 476.570312 226.550781 C 476.570312 225.011719 476.839844 223.839844 477.378906 223.035156 C 477.917969 222.226562 478.699219 221.820312 479.71875 221.820312 Z M 479.71875 221.820312 "/>
<path style=" stroke:none;fill-rule:nonzero;fill:rgb(0%,0%,0%);fill-opacity:1;" d="M 487.671875 222.796875 C 487.039062 222.796875 486.5625 223.109375 486.242188 223.734375 C 485.921875 224.359375 485.761719 225.296875 485.761719 226.550781 C 485.761719 227.800781 485.921875 228.738281 486.242188 229.363281 C 486.5625 229.988281 487.039062 230.300781 487.671875 230.300781 C 488.3125 230.300781 488.792969 229.988281 489.109375 229.363281 C 489.429688 228.738281 489.589844 227.800781 489.589844 226.550781 C 489.589844 225.296875 489.429688 224.359375 489.109375 223.734375 C 488.792969 223.109375 488.3125 222.796875 487.671875 222.796875 Z M 487.671875 221.820312 C 488.695312 221.820312 489.476562 222.226562 490.015625 223.035156 C 490.554688 223.839844 490.824219 225.011719 490.824219 226.550781 C 490.824219 228.085938 490.554688 229.257812 490.015625 230.066406 C 489.476562 230.871094 488.695312 231.277344 487.671875 231.277344 C 486.652344 231.277344 485.871094 230.871094 485.332031 230.066406 C 484.792969 229.257812 484.523438 228.085938 484.523438 226.550781 C 484.523438 225.011719 484.792969 223.839844 485.332031 223.035156 C 485.871094 222.226562 486.652344 221.820312 487.671875 221.820312 Z M 487.671875 221.820312 "/>
<path style=" stroke:none;fill-rule:nonzero;fill:rgb(0%,0%,0%);fill-opacity:1;" d="M 495.625 222.796875 C 494.992188 222.796875 494.515625 223.109375 494.195312 223.734375 C 493.875 224.359375 493.714844 225.296875 493.714844 226.550781 C 493.714844 227.800781 493.875 228.738281 494.195312 229.363281 C 494.515625 229.988281 494.992188 230.300781 495.625 230.300781 C 496.265625 230.300781 496.746094 229.988281 497.0625 229.363281 C 497.382812 228.738281 497.542969 227.800781 497.542969 226.550781 C 497.542969 225.296875 497.382812 224.359375 497.0625 223.734375 C 496.746094 223.109375 496.265625 222.796875 495.625 222.796875 Z M 495.625 221.820312 C 496.648438 221.820312 497.429688 222.226562 497.96875 223.035156 C 498.507812 223.839844 498.777344 225.011719 498.777344 226.550781 C 498.777344 228.085938 498.507812 229.257812 497.96875 230.066406 C 497.429688 230.871094 496.648438 231.277344 495.625 231.277344 C 494.605469 231.277344 493.824219 230.871094 493.285156 230.066406 C 492.746094 229.257812 492.476562 228.085938 492.476562 226.550781 C 492.476562 225.011719 492.746094 223.839844 493.285156 223.035156 C 493.824219 222.226562 494.605469 221.820312 495.625 221.820312 Z M 495.625 221.820312 "/>
<path style=" stroke:none;fill-rule:nonzero;fill:rgb(0%,0%,0%);fill-opacity:1;" d="M 262.621094 239.417969 L 262.621094 241.359375 L 264.933594 241.359375 L 264.933594 242.234375 L 262.621094 242.234375 L 262.621094 245.945312 C 262.621094 246.5 262.695312 246.859375 262.847656 247.019531 C 263 247.175781 263.3125 247.257812 263.78125 247.257812 L 264.933594 247.257812 L 264.933594 248.195312 L 263.78125 248.195312 C 262.914062 248.195312 262.316406 248.035156 261.984375 247.710938 C 261.65625 247.386719 261.492188 246.796875 261.492188 245.945312 L 261.492188 242.234375 L 260.667969 242.234375 L 260.667969 241.359375 L 261.492188 241.359375 L 261.492188 239.417969 Z M 262.621094 239.417969 "/>
<path style=" stroke:none;fill-rule:nonzero;fill:rgb(0%,0%,0%);fill-opacity:1;" d="M 266.410156 241.359375 L 267.53125 241.359375 L 267.53125 248.195312 L 266.410156 248.195312 Z M 266.410156 238.699219 L 267.53125 238.699219 L 267.53125 240.121094 L 266.410156 240.121094 Z M 266.410156 238.699219 "/>
<path style=" stroke:none;fill-rule:nonzero;fill:rgb(0%,0%,0%);fill-opacity:1;" d="M 275.207031 242.671875 C 275.488281 242.167969 275.824219 241.792969 276.214844 241.554688 C 276.605469 241.316406 277.0625 241.195312 277.59375 241.195312 C 278.304688 241.195312 278.855469 241.445312 279.242188 241.945312 C 279.628906 242.441406 279.820312 243.148438 279.820312 244.070312 L 279.820312 248.195312 L 278.691406 248.195312 L 278.691406 244.105469 C 278.691406 243.449219 278.574219 242.964844 278.34375 242.648438 C 278.109375 242.332031 277.757812 242.171875 277.28125 242.171875 C 276.699219 242.171875 276.238281 242.367188 275.902344 242.753906 C 275.5625 243.136719 275.394531 243.664062 275.394531 244.332031 L 275.394531 248.195312 L 274.265625 248.195312 L 274.265625 244.105469 C 274.265625 243.445312 274.148438 242.960938 273.917969 242.644531 C 273.6875 242.328125 273.328125 242.171875 272.84375 242.171875 C 272.269531 242.171875 271.8125 242.367188 271.476562 242.753906 C 271.136719 243.140625 270.96875 243.667969 270.96875 244.332031 L 270.96875 248.195312 L 269.839844 248.195312 L 269.839844 241.359375 L 270.96875 241.359375 L 270.96875 242.421875 C 271.226562 242.003906 271.53125 241.695312 271.890625 241.496094 C 272.25 241.296875 272.675781 241.195312 273.167969 241.195312 C 273.664062 241.195312 274.085938 241.320312 274.433594 241.574219 C 274.78125 241.824219 275.039062 242.191406 275.207031 242.671875 Z M 275.207031 242.671875 "/>
<path style=" stroke:none;fill-rule:nonzero;fill:rgb(0%,0%,0%);fill-opacity:1;" d="M 287.90625 244.496094 L 287.90625 245.046875 L 282.742188 245.046875 C 282.792969 245.820312 283.027344 246.40625 283.441406 246.8125 C 283.859375 247.21875 284.441406 247.421875 285.183594 247.421875 C 285.617188 247.421875 286.035156 247.367188 286.4375 247.261719 C 286.84375 247.15625 287.246094 246.996094 287.644531 246.785156 L 287.644531 247.847656 C 287.242188 248.019531 286.828125 248.148438 286.40625 248.238281 C 285.980469 248.328125 285.554688 248.375 285.117188 248.375 C 284.027344 248.375 283.164062 248.054688 282.527344 247.421875 C 281.890625 246.785156 281.570312 245.925781 281.570312 244.84375 C 281.570312 243.726562 281.875 242.839844 282.476562 242.183594 C 283.082031 241.523438 283.898438 241.195312 284.921875 241.195312 C 285.84375 241.195312 286.570312 241.492188 287.105469 242.085938 C 287.640625 242.675781 287.90625 243.480469 287.90625 244.496094 Z M 286.785156 244.167969 C 286.777344 243.554688 286.605469 243.0625 286.269531 242.699219 C 285.933594 242.332031 285.488281 242.148438 284.933594 242.148438 C 284.308594 242.148438 283.808594 242.324219 283.429688 242.679688 C 283.054688 243.03125 282.835938 243.53125 282.78125 244.175781 Z M 286.785156 244.167969 "/>
<g clip-path="url(#clip6)" clip-rule="nonzero">
<path style="fill:none;stroke-width:0.8;stroke-linecap:square;stroke-linejoin:round;stroke:rgb(69.019608%,69.019608%,69.019608%);stroke-opacity:1;stroke-miterlimit:4;" d="M 52.1625 163.109375 L 386.9625 163.109375 " transform="matrix(1.25,0,0,1.25,0,0)"/>
</g>
<path style="fill:none;stroke-width:0.8;stroke-linecap:butt;stroke-linejoin:round;stroke:rgb(0%,0%,0%);stroke-opacity:1;stroke-miterlimit:4;" d="M 0.001562 0.0002 L -3.498438 0.0002 " transform="matrix(1.25,0,0,1.25,65.201172,203.886469)"/>
<path style=" stroke:none;fill-rule:nonzero;fill:rgb(0%,0%,0%);fill-opacity:1;" d="M 27.421875 204.199219 L 35.246094 204.199219 L 35.246094 205.234375 L 27.421875 205.234375 Z M 27.421875 204.199219 "/>
<path style=" stroke:none;fill-rule:nonzero;fill:rgb(0%,0%,0%);fill-opacity:1;" d="M 38.121094 207.597656 L 40.136719 207.597656 L 40.136719 200.644531 L 37.945312 201.085938 L 37.945312 199.960938 L 40.125 199.523438 L 41.355469 199.523438 L 41.355469 207.597656 L 43.371094 207.597656 L 43.371094 208.636719 L 38.121094 208.636719 Z M 38.121094 207.597656 "/>
<path style=" stroke:none;fill-rule:nonzero;fill:rgb(0%,0%,0%);fill-opacity:1;" d="M 45.859375 207.085938 L 47.148438 207.085938 L 47.148438 208.636719 L 45.859375 208.636719 Z M 45.859375 207.085938 "/>
<path style=" stroke:none;fill-rule:nonzero;fill:rgb(0%,0%,0%);fill-opacity:1;" d="M 49.847656 199.523438 L 54.6875 199.523438 L 54.6875 200.5625 L 50.976562 200.5625 L 50.976562 202.792969 C 51.15625 202.734375 51.332031 202.6875 51.511719 202.65625 C 51.691406 202.628906 51.871094 202.613281 52.050781 202.613281 C 53.066406 202.613281 53.871094 202.890625 54.464844 203.449219 C 55.0625 204.003906 55.359375 204.761719 55.359375 205.710938 C 55.359375 206.691406 55.054688 207.453125 54.441406 208 C 53.832031 208.542969 52.972656 208.8125 51.859375 208.8125 C 51.476562 208.8125 51.089844 208.78125 50.691406 208.714844 C 50.296875 208.652344 49.886719 208.554688 49.460938 208.421875 L 49.460938 207.183594 C 49.828125 207.382812 50.207031 207.53125 50.597656 207.628906 C 50.988281 207.726562 51.402344 207.773438 51.835938 207.773438 C 52.539062 207.773438 53.097656 207.589844 53.507812 207.21875 C 53.917969 206.851562 54.125 206.347656 54.125 205.710938 C 54.125 205.078125 53.917969 204.574219 53.507812 204.207031 C 53.097656 203.835938 52.539062 203.648438 51.835938 203.648438 C 51.507812 203.648438 51.175781 203.6875 50.847656 203.757812 C 50.523438 203.832031 50.1875 203.945312 49.847656 204.101562 Z M 49.847656 199.523438 "/>
<g clip-path="url(#clip7)" clip-rule="nonzero">
<path style="fill:none;stroke-width:0.8;stroke-linecap:square;stroke-linejoin:round;stroke:rgb(69.019608%,69.019608%,69.019608%);stroke-opacity:1;stroke-miterlimit:4;" d="M 52.1625 140.4875 L 386.9625 140.4875 " transform="matrix(1.25,0,0,1.25,0,0)"/>
</g>
<path style="fill:none;stroke-width:0.8;stroke-linecap:butt;stroke-linejoin:round;stroke:rgb(0%,0%,0%);stroke-opacity:1;stroke-miterlimit:4;" d="M 0.001562 -0.000353 L -3.498438 -0.000353 " transform="matrix(1.25,0,0,1.25,65.201172,175.609816)"/>
<path style=" stroke:none;fill-rule:nonzero;fill:rgb(0%,0%,0%);fill-opacity:1;" d="M 27.421875 175.921875 L 35.246094 175.921875 L 35.246094 176.957031 L 27.421875 176.957031 Z M 27.421875 175.921875 "/>
<path style=" stroke:none;fill-rule:nonzero;fill:rgb(0%,0%,0%);fill-opacity:1;" d="M 38.121094 179.320312 L 40.136719 179.320312 L 40.136719 172.367188 L 37.945312 172.808594 L 37.945312 171.683594 L 40.125 171.246094 L 41.355469 171.246094 L 41.355469 179.320312 L 43.371094 179.320312 L 43.371094 180.359375 L 38.121094 180.359375 Z M 38.121094 179.320312 "/>
<path style=" stroke:none;fill-rule:nonzero;fill:rgb(0%,0%,0%);fill-opacity:1;" d="M 45.859375 178.808594 L 47.148438 178.808594 L 47.148438 180.359375 L 45.859375 180.359375 Z M 45.859375 178.808594 "/>
<path style=" stroke:none;fill-rule:nonzero;fill:rgb(0%,0%,0%);fill-opacity:1;" d="M 52.46875 172.058594 C 51.835938 172.058594 51.359375 172.371094 51.039062 172.996094 C 50.71875 173.621094 50.558594 174.558594 50.558594 175.8125 C 50.558594 177.0625 50.71875 177.996094 51.039062 178.621094 C 51.359375 179.246094 51.835938 179.558594 52.46875 179.558594 C 53.109375 179.558594 53.589844 179.246094 53.90625 178.621094 C 54.226562 177.996094 54.386719 177.0625 54.386719 175.8125 C 54.386719 174.558594 54.226562 173.621094 53.90625 172.996094 C 53.589844 172.371094 53.109375 172.058594 52.46875 172.058594 Z M 52.46875 171.082031 C 53.492188 171.082031 54.273438 171.484375 54.8125 172.292969 C 55.351562 173.101562 55.621094 174.273438 55.621094 175.8125 C 55.621094 177.347656 55.351562 178.515625 54.8125 179.324219 C 54.273438 180.132812 53.492188 180.535156 52.46875 180.535156 C 51.449219 180.535156 50.667969 180.132812 50.128906 179.324219 C 49.589844 178.515625 49.320312 177.347656 49.320312 175.8125 C 49.320312 174.273438 49.589844 173.101562 50.128906 172.292969 C 50.667969 171.484375 51.449219 171.082031 52.46875 171.082031 Z M 52.46875 171.082031 "/>
<g clip-path="url(#clip8)" clip-rule="nonzero">
<path style="fill:none;stroke-width:0.8;stroke-linecap:square;stroke-linejoin:round;stroke:rgb(69.019608%,69.019608%,69.019608%);stroke-opacity:1;stroke-miterlimit:4;" d="M 52.1625 117.865625 L 386.9625 117.865625 " transform="matrix(1.25,0,0,1.25,0,0)"/>
</g>
<path style="fill:none;stroke-width:0.8;stroke-linecap:butt;stroke-linejoin:round;stroke:rgb(0%,0%,0%);stroke-opacity:1;stroke-miterlimit:4;" d="M 0.001562 -0.000905 L -3.498438 -0.000905 " transform="matrix(1.25,0,0,1.25,65.201172,147.333162)"/>
<path style=" stroke:none;fill-rule:nonzero;fill:rgb(0%,0%,0%);fill-opacity:1;" d="M 27.421875 147.644531 L 35.246094 147.644531 L 35.246094 148.683594 L 27.421875 148.683594 Z M 27.421875 147.644531 "/>
<path style=" stroke:none;fill-rule:nonzero;fill:rgb(0%,0%,0%);fill-opacity:1;" d="M 40.542969 143.78125 C 39.910156 143.78125 39.433594 144.09375 39.113281 144.71875 C 38.792969 145.34375 38.632812 146.28125 38.632812 147.535156 C 38.632812 148.785156 38.792969 149.722656 39.113281 150.347656 C 39.433594 150.972656 39.910156 151.285156 40.542969 151.285156 C 41.183594 151.285156 41.664062 150.972656 41.980469 150.347656 C 42.300781 149.722656 42.460938 148.785156 42.460938 147.535156 C 42.460938 146.28125 42.300781 145.34375 41.980469 144.71875 C 41.664062 144.09375 41.183594 143.78125 40.542969 143.78125 Z M 40.542969 142.804688 C 41.566406 142.804688 42.347656 143.210938 42.886719 144.019531 C 43.425781 144.824219 43.695312 145.996094 43.695312 147.535156 C 43.695312 149.070312 43.425781 150.242188 42.886719 151.050781 C 42.347656 151.855469 41.566406 152.261719 40.542969 152.261719 C 39.523438 152.261719 38.742188 151.855469 38.203125 151.050781 C 37.664062 150.242188 37.394531 149.070312 37.394531 147.535156 C 37.394531 145.996094 37.664062 144.824219 38.203125 144.019531 C 38.742188 143.210938 39.523438 142.804688 40.542969 142.804688 Z M 40.542969 142.804688 "/>
<path style=" stroke:none;fill-rule:nonzero;fill:rgb(0%,0%,0%);fill-opacity:1;" d="M 45.859375 150.53125 L 47.148438 150.53125 L 47.148438 152.082031 L 45.859375 152.082031 Z M 45.859375 150.53125 "/>
<path style=" stroke:none;fill-rule:nonzero;fill:rgb(0%,0%,0%);fill-opacity:1;" d="M 49.847656 142.96875 L 54.6875 142.96875 L 54.6875 144.007812 L 50.976562 144.007812 L 50.976562 146.242188 C 51.15625 146.179688 51.332031 146.132812 51.511719 146.105469 C 51.691406 146.074219 51.871094 146.058594 52.050781 146.058594 C 53.066406 146.058594 53.871094 146.335938 54.464844 146.894531 C 55.0625 147.453125 55.359375 148.207031 55.359375 149.160156 C 55.359375 150.140625 55.054688 150.902344 54.441406 151.445312 C 53.832031 151.988281 52.972656 152.261719 51.859375 152.261719 C 51.476562 152.261719 51.089844 152.226562 50.691406 152.164062 C 50.296875 152.097656 49.886719 152 49.460938 151.871094 L 49.460938 150.628906 C 49.828125 150.828125 50.207031 150.976562 50.597656 151.074219 C 50.988281 151.171875 51.402344 151.222656 51.835938 151.222656 C 52.539062 151.222656 53.097656 151.035156 53.507812 150.667969 C 53.917969 150.296875 54.125 149.792969 54.125 149.160156 C 54.125 148.523438 53.917969 148.023438 53.507812 147.652344 C 53.097656 147.28125 52.539062 147.097656 51.835938 147.097656 C 51.507812 147.097656 51.175781 147.132812 50.847656 147.207031 C 50.523438 147.277344 50.1875 147.390625 49.847656 147.546875 Z M 49.847656 142.96875 "/>
<g clip-path="url(#clip9)" clip-rule="nonzero">
<path style="fill:none;stroke-width:0.8;stroke-linecap:square;stroke-linejoin:round;stroke:rgb(69.019608%,69.019608%,69.019608%);stroke-opacity:1;stroke-miterlimit:4;" d="M 52.1625 95.24375 L 386.9625 95.24375 " transform="matrix(1.25,0,0,1.25,0,0)"/>
</g>
<path style="fill:none;stroke-width:0.8;stroke-linecap:butt;stroke-linejoin:round;stroke:rgb(0%,0%,0%);stroke-opacity:1;stroke-miterlimit:4;" d="M 0.001562 -0.001458 L -3.498438 -0.001458 " transform="matrix(1.25,0,0,1.25,65.201172,119.05651)"/>
<path style=" stroke:none;fill-rule:nonzero;fill:rgb(0%,0%,0%);fill-opacity:1;" d="M 40.542969 115.503906 C 39.910156 115.503906 39.433594 115.816406 39.113281 116.441406 C 38.792969 117.066406 38.632812 118.003906 38.632812 119.257812 C 38.632812 120.507812 38.792969 121.445312 39.113281 122.070312 C 39.433594 122.695312 39.910156 123.007812 40.542969 123.007812 C 41.183594 123.007812 41.664062 122.695312 41.980469 122.070312 C 42.300781 121.445312 42.460938 120.507812 42.460938 119.257812 C 42.460938 118.003906 42.300781 117.066406 41.980469 116.441406 C 41.664062 115.816406 41.183594 115.503906 40.542969 115.503906 Z M 40.542969 114.527344 C 41.566406 114.527344 42.347656 114.933594 42.886719 115.742188 C 43.425781 116.546875 43.695312 117.722656 43.695312 119.257812 C 43.695312 120.792969 43.425781 121.964844 42.886719 122.773438 C 42.347656 123.578125 41.566406 123.984375 40.542969 123.984375 C 39.523438 123.984375 38.742188 123.578125 38.203125 122.773438 C 37.664062 121.964844 37.394531 120.792969 37.394531 119.257812 C 37.394531 117.722656 37.664062 116.546875 38.203125 115.742188 C 38.742188 114.933594 39.523438 114.527344 40.542969 114.527344 Z M 40.542969 114.527344 "/>
<path style=" stroke:none;fill-rule:nonzero;fill:rgb(0%,0%,0%);fill-opacity:1;" d="M 45.859375 122.253906 L 47.148438 122.253906 L 47.148438 123.804688 L 45.859375 123.804688 Z M 45.859375 122.253906 "/>
<path style=" stroke:none;fill-rule:nonzero;fill:rgb(0%,0%,0%);fill-opacity:1;" d="M 52.472656 115.503906 C 51.835938 115.503906 51.359375 115.816406 51.039062 116.441406 C 50.71875 117.066406 50.5625 118.003906 50.5625 119.257812 C 50.5625 120.507812 50.71875 121.445312 51.039062 122.070312 C 51.359375 122.695312 51.835938 123.007812 52.472656 123.007812 C 53.109375 123.007812 53.589844 122.695312 53.910156 122.070312 C 54.230469 121.445312 54.390625 120.507812 54.390625 119.257812 C 54.390625 118.003906 54.230469 117.066406 53.910156 116.441406 C 53.589844 115.816406 53.109375 115.503906 52.472656 115.503906 Z M 52.472656 114.527344 C 53.492188 114.527344 54.273438 114.933594 54.8125 115.742188 C 55.351562 116.546875 55.621094 117.722656 55.621094 119.257812 C 55.621094 120.792969 55.351562 121.964844 54.8125 122.773438 C 54.273438 123.578125 53.492188 123.984375 52.472656 123.984375 C 51.449219 123.984375 50.671875 123.578125 50.132812 122.773438 C 49.59375 121.964844 49.324219 120.792969 49.324219 119.257812 C 49.324219 117.722656 49.59375 116.546875 50.132812 115.742188 C 50.671875 114.933594 51.449219 114.527344 52.472656 114.527344 Z M 52.472656 114.527344 "/>
<g clip-path="url(#clip10)" clip-rule="nonzero">
<path style="fill:none;stroke-width:0.8;stroke-linecap:square;stroke-linejoin:round;stroke:rgb(69.019608%,69.019608%,69.019608%);stroke-opacity:1;stroke-miterlimit:4;" d="M 52.1625 72.625 L 386.9625 72.625 " transform="matrix(1.25,0,0,1.25,0,0)"/>
</g>
<path style="fill:none;stroke-width:0.8;stroke-linecap:butt;stroke-linejoin:round;stroke:rgb(0%,0%,0%);stroke-opacity:1;stroke-miterlimit:4;" d="M 0.001562 0.001114 L -3.498438 0.001114 " transform="matrix(1.25,0,0,1.25,65.201172,90.779857)"/>
<path style=" stroke:none;fill-rule:nonzero;fill:rgb(0%,0%,0%);fill-opacity:1;" d="M 40.542969 87.226562 C 39.910156 87.226562 39.433594 87.539062 39.113281 88.164062 C 38.792969 88.789062 38.632812 89.726562 38.632812 90.980469 C 38.632812 92.230469 38.792969 93.167969 39.113281 93.792969 C 39.433594 94.417969 39.910156 94.730469 40.542969 94.730469 C 41.183594 94.730469 41.664062 94.417969 41.980469 93.792969 C 42.300781 93.167969 42.460938 92.230469 42.460938 90.980469 C 42.460938 89.726562 42.300781 88.789062 41.980469 88.164062 C 41.664062 87.539062 41.183594 87.226562 40.542969 87.226562 Z M 40.542969 86.25 C 41.566406 86.25 42.347656 86.65625 42.886719 87.464844 C 43.425781 88.273438 43.695312 89.445312 43.695312 90.980469 C 43.695312 92.515625 43.425781 93.6875 42.886719 94.496094 C 42.347656 95.304688 41.566406 95.707031 40.542969 95.707031 C 39.523438 95.707031 38.742188 95.304688 38.203125 94.496094 C 37.664062 93.6875 37.394531 92.515625 37.394531 90.980469 C 37.394531 89.445312 37.664062 88.273438 38.203125 87.464844 C 38.742188 86.65625 39.523438 86.25 40.542969 86.25 Z M 40.542969 86.25 "/>
<path style=" stroke:none;fill-rule:nonzero;fill:rgb(0%,0%,0%);fill-opacity:1;" d="M 45.859375 93.976562 L 47.148438 93.976562 L 47.148438 95.527344 L 45.859375 95.527344 Z M 45.859375 93.976562 "/>
<path style=" stroke:none;fill-rule:nonzero;fill:rgb(0%,0%,0%);fill-opacity:1;" d="M 49.847656 86.414062 L 54.6875 86.414062 L 54.6875 87.453125 L 50.976562 87.453125 L 50.976562 89.6875 C 51.15625 89.625 51.332031 89.582031 51.511719 89.550781 C 51.691406 89.519531 51.871094 89.503906 52.050781 89.503906 C 53.066406 89.503906 53.875 89.785156 54.46875 90.339844 C 55.0625 90.898438 55.359375 91.652344 55.359375 92.605469 C 55.359375 93.585938 55.054688 94.347656 54.445312 94.890625 C 53.832031 95.433594 52.972656 95.707031 51.863281 95.707031 C 51.480469 95.707031 51.089844 95.675781 50.691406 95.609375 C 50.296875 95.542969 49.886719 95.445312 49.464844 95.316406 L 49.464844 94.074219 C 49.828125 94.273438 50.207031 94.421875 50.597656 94.519531 C 50.988281 94.617188 51.402344 94.667969 51.835938 94.667969 C 52.539062 94.667969 53.097656 94.484375 53.507812 94.113281 C 53.917969 93.742188 54.125 93.242188 54.125 92.605469 C 54.125 91.972656 53.917969 91.46875 53.507812 91.097656 C 53.097656 90.726562 52.539062 90.542969 51.835938 90.542969 C 51.507812 90.542969 51.179688 90.578125 50.851562 90.652344 C 50.523438 90.726562 50.1875 90.839844 49.847656 90.992188 Z M 49.847656 86.414062 "/>
<g clip-path="url(#clip11)" clip-rule="nonzero">
<path style="fill:none;stroke-width:0.8;stroke-linecap:square;stroke-linejoin:round;stroke:rgb(69.019608%,69.019608%,69.019608%);stroke-opacity:1;stroke-miterlimit:4;" d="M 52.1625 50.003125 L 386.9625 50.003125 " transform="matrix(1.25,0,0,1.25,0,0)"/>
</g>
<path style="fill:none;stroke-width:0.8;stroke-linecap:butt;stroke-linejoin:round;stroke:rgb(0%,0%,0%);stroke-opacity:1;stroke-miterlimit:4;" d="M 0.001562 0.000561 L -3.498438 0.000561 " transform="matrix(1.25,0,0,1.25,65.201172,62.503205)"/>
<path style=" stroke:none;fill-rule:nonzero;fill:rgb(0%,0%,0%);fill-opacity:1;" d="M 38.121094 66.214844 L 40.136719 66.214844 L 40.136719 59.261719 L 37.945312 59.703125 L 37.945312 58.578125 L 40.125 58.140625 L 41.355469 58.140625 L 41.355469 66.214844 L 43.371094 66.214844 L 43.371094 67.253906 L 38.121094 67.253906 Z M 38.121094 66.214844 "/>
<path style=" stroke:none;fill-rule:nonzero;fill:rgb(0%,0%,0%);fill-opacity:1;" d="M 45.859375 65.703125 L 47.148438 65.703125 L 47.148438 67.253906 L 45.859375 67.253906 Z M 45.859375 65.703125 "/>
<path style=" stroke:none;fill-rule:nonzero;fill:rgb(0%,0%,0%);fill-opacity:1;" d="M 52.472656 58.953125 C 51.835938 58.953125 51.359375 59.265625 51.039062 59.890625 C 50.71875 60.511719 50.5625 61.453125 50.5625 62.707031 C 50.5625 63.953125 50.71875 64.890625 51.039062 65.515625 C 51.359375 66.140625 51.835938 66.453125 52.472656 66.453125 C 53.109375 66.453125 53.589844 66.140625 53.910156 65.515625 C 54.230469 64.890625 54.390625 63.953125 54.390625 62.707031 C 54.390625 61.453125 54.230469 60.511719 53.910156 59.890625 C 53.589844 59.265625 53.109375 58.953125 52.472656 58.953125 Z M 52.472656 57.976562 C 53.492188 57.976562 54.273438 58.378906 54.8125 59.1875 C 55.351562 59.996094 55.621094 61.167969 55.621094 62.707031 C 55.621094 64.238281 55.351562 65.410156 54.8125 66.21875 C 54.273438 67.027344 53.492188 67.429688 52.472656 67.429688 C 51.449219 67.429688 50.671875 67.027344 50.132812 66.21875 C 49.59375 65.410156 49.324219 64.238281 49.324219 62.707031 C 49.324219 61.167969 49.59375 59.996094 50.132812 59.1875 C 50.671875 58.378906 51.449219 57.976562 52.472656 57.976562 Z M 52.472656 57.976562 "/>
<g clip-path="url(#clip12)" clip-rule="nonzero">
<path style="fill:none;stroke-width:0.8;stroke-linecap:square;stroke-linejoin:round;stroke:rgb(69.019608%,69.019608%,69.019608%);stroke-opacity:1;stroke-miterlimit:4;" d="M 52.1625 27.38125 L 386.9625 27.38125 " transform="matrix(1.25,0,0,1.25,0,0)"/>
</g>
<path style="fill:none;stroke-width:0.8;stroke-linecap:butt;stroke-linejoin:round;stroke:rgb(0%,0%,0%);stroke-opacity:1;stroke-miterlimit:4;" d="M 0.001562 0.000008 L -3.498438 0.000008 " transform="matrix(1.25,0,0,1.25,65.201172,34.226552)"/>
<path style=" stroke:none;fill-rule:nonzero;fill:rgb(0%,0%,0%);fill-opacity:1;" d="M 38.121094 37.9375 L 40.136719 37.9375 L 40.136719 30.984375 L 37.945312 31.425781 L 37.945312 30.300781 L 40.125 29.863281 L 41.355469 29.863281 L 41.355469 37.9375 L 43.371094 37.9375 L 43.371094 38.976562 L 38.121094 38.976562 Z M 38.121094 37.9375 "/>
<path style=" stroke:none;fill-rule:nonzero;fill:rgb(0%,0%,0%);fill-opacity:1;" d="M 45.859375 37.425781 L 47.148438 37.425781 L 47.148438 38.976562 L 45.859375 38.976562 Z M 45.859375 37.425781 "/>
<path style=" stroke:none;fill-rule:nonzero;fill:rgb(0%,0%,0%);fill-opacity:1;" d="M 49.847656 29.863281 L 54.6875 29.863281 L 54.6875 30.902344 L 50.976562 30.902344 L 50.976562 33.132812 C 51.15625 33.074219 51.332031 33.027344 51.511719 32.996094 C 51.691406 32.96875 51.871094 32.953125 52.050781 32.953125 C 53.066406 32.953125 53.875 33.230469 54.46875 33.789062 C 55.0625 34.34375 55.359375 35.101562 55.359375 36.050781 C 55.359375 37.03125 55.054688 37.792969 54.445312 38.339844 C 53.832031 38.882812 52.972656 39.152344 51.863281 39.152344 C 51.480469 39.152344 51.089844 39.121094 50.691406 39.054688 C 50.296875 38.992188 49.886719 38.894531 49.464844 38.761719 L 49.464844 37.523438 C 49.828125 37.722656 50.207031 37.871094 50.597656 37.96875 C 50.988281 38.066406 51.402344 38.113281 51.835938 38.113281 C 52.539062 38.113281 53.097656 37.929688 53.507812 37.558594 C 53.917969 37.191406 54.125 36.6875 54.125 36.050781 C 54.125 35.417969 53.917969 34.914062 53.507812 34.546875 C 53.097656 34.175781 52.539062 33.988281 51.835938 33.988281 C 51.507812 33.988281 51.179688 34.027344 50.851562 34.097656 C 50.523438 34.171875 50.1875 34.285156 49.847656 34.441406 Z M 49.847656 29.863281 "/>
<path style=" stroke:none;fill-rule:nonzero;fill:rgb(0%,0%,0%);fill-opacity:1;" d="M 11.664062 107.761719 L 14.988281 110.234375 L 18.5 107.636719 L 18.5 108.960938 L 15.8125 110.949219 L 18.5 112.9375 L 18.5 114.265625 L 14.921875 111.609375 L 11.664062 114.039062 L 11.664062 112.714844 L 14.097656 110.902344 L 11.664062 109.089844 Z M 11.664062 107.761719 "/>
<g clip-path="url(#clip13)" clip-rule="nonzero">
<path style="fill:none;stroke-width:1.5;stroke-linecap:square;stroke-linejoin:round;stroke:rgb(12.156863%,46.666667%,70.588235%);stroke-opacity:1;stroke-miterlimit:4;" d="M 52.1625 88.446875 L 52.496875 95.103125 L 52.83125 93.45 L 53.165625 83.146875 L 53.5 68.984375 L 53.8375 86.7125 L 54.171875 85.13125 L 54.50625 97.384375 L 54.840625 83.4875 L 55.178125 95.040625 L 55.5125 89.990625 L 55.846875 90.1875 L 56.18125 82.159375 L 56.51875 104.04375 L 56.853125 82.371875 L 57.1875 91.790625 L 57.859375 70.91875 L 58.528125 82.259375 L 58.8625 92.428125 L 59.2 83.40625 L 59.534375 90.63125 L 59.86875 84.871875 L 60.203125 86.834375 L 60.540625 73.434375 L 60.875 88.55625 L 61.209375 81.36875 L 61.54375 78.671875 L 61.88125 96.228125 L 62.215625 54.865625 L 62.884375 89.4125 L 63.221875 85.56875 L 63.55625 83.53125 L 63.890625 80.146875 L 64.225 74.675 L 64.5625 76.390625 L 64.896875 73.5875 L 65.23125 62.125 L 65.565625 85.671875 L 65.9 72.5125 L 66.2375 65.340625 L 66.571875 76.359375 L 66.90625 72.721875 L 67.240625 87.184375 L 67.578125 73.54375 L 67.9125 80.928125 L 68.246875 93.946875 L 68.58125 72.1 L 68.91875 74.9375 L 69.5875 60.596875 L 69.921875 69.23125 L 70.259375 70.009375 L 70.59375 75.68125 L 70.928125 59.521875 L 71.6 66.0375 L 71.934375 81.046875 L 72.26875 77.7 L 72.603125 68.153125 L 72.940625 71.55 L 73.275 60.690625 L 73.94375 74.06875 L 74.28125 54.553125 L 74.615625 73.325 L 74.95 74.809375 L 75.284375 83.1375 L 75.621875 72.759375 L 75.95625 71.9625 L 76.290625 60.425 L 76.625 65.44375 L 76.9625 67.3125 L 77.296875 67.20625 L 77.63125 66.640625 L 77.965625 62.44375 L 78.3 63.059375 L 78.6375 66.790625 L 79.640625 49.415625 L 79.978125 53.303125 L 80.3125 51.68125 L 80.646875 60.278125 L 80.98125 62.771875 L 81.31875 66.928125 L 81.9875 49.9375 L 82.321875 72.43125 L 82.99375 53.08125 L 83.328125 46.44375 L 83.6625 72.09375 L 84 54.834375 L 84.334375 64.8 L 84.66875 64.3125 L 85.340625 47.065625 L 85.675 50.584375 L 86.009375 58.65625 L 86.34375 52.49375 L 86.68125 49.884375 L 87.015625 66.71875 L 87.35 59.5 L 87.684375 55.4 L 88.021875 47.278125 L 88.35625 42.53125 L 88.690625 53.040625 L 89.025 30.0125 L 89.3625 52.384375 L 89.696875 55.64375 L 90.03125 57.21875 L 90.365625 39.91875 L 90.7 49.290625 L 91.0375 63.790625 L 91.371875 55.0625 L 91.70625 66.58125 L 92.040625 35.946875 L 92.378125 41.109375 L 92.7125 73.303125 L 93.046875 69.1375 L 93.38125 53.615625 L 93.71875 54.509375 L 94.053125 44.859375 L 94.3875 56.796875 L 94.721875 46.365625 L 95.059375 64.090625 L 95.39375 62.484375 L 95.728125 62.334375 L 96.0625 48.3375 L 96.4 62.228125 L 96.734375 65.290625 L 97.403125 37.59375 L 97.740625 47.309375 L 98.075 40.0625 L 98.409375 55.559375 L 98.74375 48.30625 L 99.08125 64.403125 L 99.415625 50.6375 L 99.75 53.084375 L 100.084375 41.228125 L 100.75625 49.190625 L 101.090625 40.171875 L 101.425 49.11875 L 101.7625 50.753125 L 102.096875 56.7375 L 102.43125 52.76875 L 102.765625 51.3625 L 103.1 37.196875 L 103.4375 39.0125 L 103.771875 37.434375 L 104.10625 32.05 L 104.440625 58.9375 L 104.778125 48.43125 L 105.1125 51.746875 L 105.446875 50.6125 L 105.78125 45.8625 L 106.11875 63.390625 L 106.453125 38.578125 L 106.7875 46.921875 L 107.121875 70.884375 L 107.459375 47.19375 L 107.79375 60.871875 L 108.128125 38.165625 L 108.4625 50.009375 L 108.8 44.628125 L 109.134375 30.31875 L 109.46875 41.05 L 109.803125 31.578125 L 110.140625 29.771875 L 110.475 14.6125 L 111.14375 61.171875 L 111.48125 33.953125 L 112.15 72.9 L 112.484375 53.98125 L 112.821875 42.265625 L 113.15625 38.190625 L 113.490625 50.29375 L 113.825 72.159375 L 114.1625 53.634375 L 114.496875 60.15 L 114.83125 71.959375 L 115.165625 56.578125 L 115.5 56.04375 L 115.8375 54.103125 L 116.171875 48.375 L 116.50625 51.471875 L 116.840625 58.603125 L 117.178125 56.95 L 117.5125 67.953125 L 117.846875 40.74375 L 118.853125 58.70625 L 119.521875 49.715625 L 119.859375 63.990625 L 120.19375 63.45625 L 120.528125 39.0375 L 120.8625 48.959375 L 121.2 52.746875 L 121.534375 65.00625 L 121.86875 53.1 L 122.540625 41.5 L 122.875 59.334375 L 123.209375 54.55 L 123.54375 63.965625 L 123.88125 69 L 124.215625 58.39375 L 124.55 66.70625 L 124.884375 52.80625 L 125.221875 64.671875 L 125.55625 68.24375 L 125.890625 54.490625 L 126.225 46.725 L 126.5625 61.046875 L 126.896875 68.659375 L 127.23125 67.215625 L 127.565625 52.74375 L 127.9 46.040625 L 128.2375 66.409375 L 128.571875 66.303125 L 128.90625 66.38125 L 129.240625 48.4375 L 129.578125 59.803125 L 129.9125 58.721875 L 130.246875 64.4625 L 130.58125 48.85 L 130.91875 66.903125 L 131.253125 58.703125 L 131.5875 67.33125 L 132.259375 58.19375 L 132.59375 58.378125 L 132.928125 54.040625 L 133.2625 68.98125 L 133.6 63.11875 L 133.934375 78.99375 L 134.26875 75.95625 L 134.603125 43.396875 L 134.940625 65.4375 L 135.275 71.99375 L 135.609375 50.7625 L 135.94375 69.23125 L 136.28125 62.58125 L 136.615625 60.68125 L 136.95 57.40625 L 137.284375 80.928125 L 137.621875 71.48125 L 137.95625 67.640625 L 138.290625 71.09375 L 138.625 68.734375 L 138.9625 72.703125 L 139.296875 90.196875 L 139.63125 73.021875 L 139.965625 65.46875 L 140.3 75.234375 L 140.6375 71.15625 L 140.971875 91.9875 L 141.30625 105.871875 L 141.640625 85.15 L 142.3125 74.390625 L 142.646875 73.165625 L 142.98125 74.925 L 143.31875 75.159375 L 143.653125 69.49375 L 143.9875 75.646875 L 144.321875 72.2 L 144.659375 56.778125 L 144.99375 84.815625 L 145.328125 63.571875 L 145.6625 64.16875 L 146 80.84375 L 146.334375 87.9375 L 146.66875 70.05 L 147.003125 83.525 L 147.340625 90.89375 L 147.675 90.3375 L 148.009375 84.73125 L 148.34375 97.79375 L 148.68125 78.48125 L 149.015625 79.0875 L 149.35 100.459375 L 149.684375 71.83125 L 150.021875 102.21875 L 150.35625 96.171875 L 150.690625 86.15625 L 151.025 82.153125 L 151.3625 107.48125 L 151.696875 98.253125 L 152.03125 92.309375 L 152.365625 93.71875 L 152.7 89.0625 L 153.0375 93.08125 L 153.371875 74.009375 L 153.70625 93.875 L 154.040625 89.49375 L 154.378125 71.378125 L 154.7125 86.6 L 155.046875 82.575 L 155.38125 83.571875 L 155.71875 88.259375 L 156.3875 82.125 L 156.721875 101.58125 L 157.059375 98.334375 L 157.39375 100.796875 L 157.728125 99.19375 L 158.0625 98.40625 L 158.4 105.678125 L 158.734375 90.596875 L 159.06875 91.81875 L 159.403125 98.7 L 159.740625 110.9125 L 160.075 111.975 L 160.409375 91.39375 L 160.74375 98.290625 L 161.08125 99.51875 L 161.415625 113.09375 L 161.75 110.425 L 162.084375 92.184375 L 162.421875 88.934375 L 162.75625 97.70625 L 163.090625 93.03125 L 163.425 99.640625 L 163.7625 99.390625 L 164.096875 89.696875 L 164.43125 108.40625 L 164.765625 98.26875 L 165.771875 137.44375 L 166.10625 95.271875 L 166.440625 103.184375 L 166.778125 123.928125 L 167.1125 110.940625 L 167.446875 117.921875 L 167.78125 104.646875 L 168.11875 105.265625 L 168.453125 110.665625 L 168.7875 92.50625 L 169.121875 101.65 L 169.459375 123.265625 L 170.128125 94.384375 L 170.4625 117.596875 L 170.8 104.44375 L 171.134375 115.51875 L 171.46875 102.040625 L 171.803125 118.48125 L 172.140625 110.740625 L 172.475 108.653125 L 172.809375 112.165625 L 173.14375 108.25 L 173.48125 121.81875 L 173.815625 124.4875 L 174.15 123.715625 L 174.484375 110.303125 L 174.821875 111.490625 L 175.15625 126.7875 L 175.490625 110.015625 L 175.825 125.834375 L 176.1625 126.121875 L 176.496875 118.84375 L 176.83125 115.20625 L 177.165625 127.4375 L 177.5 120.353125 L 177.8375 133.6875 L 178.171875 111.93125 L 178.50625 122.0375 L 178.840625 114.2 L 179.178125 118.3 L 179.5125 123.85625 L 179.846875 114.3375 L 180.18125 138.328125 L 180.51875 134.175 L 180.853125 106.54375 L 181.1875 127.028125 L 181.521875 126.734375 L 181.859375 144.171875 L 182.19375 128.896875 L 182.528125 122.103125 L 182.8625 126.43125 L 183.2 134.11875 L 183.534375 124.46875 L 183.86875 129.78125 L 184.203125 127.103125 L 184.540625 131.128125 L 184.875 126.040625 L 185.54375 129.578125 L 185.88125 106.20625 L 186.215625 120.55625 L 186.55 108.909375 L 186.884375 135.478125 L 187.221875 143.171875 L 187.55625 128.846875 L 187.890625 141.79375 L 188.225 137.459375 L 188.5625 146.5125 L 188.896875 118.759375 L 189.23125 135.66875 L 189.565625 125.328125 L 189.9 128.734375 L 190.2375 143.5 L 190.571875 140.0125 L 190.90625 125.821875 L 191.240625 145.028125 L 191.578125 114.41875 L 191.9125 111.703125 L 192.246875 141.921875 L 192.58125 143.215625 L 192.91875 145.240625 L 193.253125 139.5375 L 193.5875 116.640625 L 193.921875 140.825 L 194.259375 143.75625 L 194.59375 139.440625 L 194.928125 121.8 L 195.2625 147.93125 L 195.934375 130.346875 L 196.26875 132.359375 L 196.603125 145.996875 L 196.940625 141.8 L 197.275 146.6625 L 197.609375 143.503125 L 197.94375 121 L 198.28125 146.85 L 198.615625 130.15 L 198.95 131.703125 L 199.284375 125.36875 L 199.95625 144.040625 L 200.290625 132.659375 L 200.9625 152.9375 L 201.296875 138.50625 L 201.63125 118.8 L 201.965625 132.85625 L 202.3 152.1375 L 202.6375 125.709375 L 202.971875 152.021875 L 203.30625 134.403125 L 203.640625 138.7 L 203.978125 134.446875 L 204.3125 143.559375 L 204.646875 137.2375 L 204.98125 135.9125 L 205.31875 141.3875 L 205.653125 149.740625 L 205.9875 128.909375 L 206.321875 140.14375 L 206.659375 128.278125 L 206.99375 151.29375 L 207.328125 150.5125 L 207.6625 148.478125 L 208 153.70625 L 208.334375 139.403125 L 208.66875 135.946875 L 209.003125 162.86875 L 209.340625 143.340625 L 209.675 153.75625 L 210.009375 147.49375 L 211.015625 119.84375 L 211.35 139.896875 L 211.684375 128.0125 L 212.021875 151.240625 L 212.35625 148.01875 L 212.690625 138.646875 L 213.025 145.390625 L 213.3625 129.9375 L 213.696875 121.053125 L 214.365625 144.30625 L 214.7 139.5 L 215.0375 147.4125 L 215.371875 128.496875 L 215.70625 137.821875 L 216.040625 136.053125 L 216.378125 148.034375 L 216.7125 136.090625 L 217.046875 137.271875 L 217.38125 123.571875 L 217.71875 124.5625 L 218.053125 141.26875 L 218.721875 119.0375 L 219.39375 148.975 L 219.728125 145.615625 L 220.0625 135.98125 L 220.4 132.54375 L 220.734375 150.38125 L 221.06875 140.096875 L 221.403125 148.496875 L 221.740625 121.490625 L 222.075 140.959375 L 222.409375 145.353125 L 222.74375 142.215625 L 223.08125 147.859375 L 223.415625 137.790625 L 223.75 147.50625 L 224.084375 148.703125 L 224.421875 122.996875 L 224.75625 136.559375 L 225.090625 127.34375 L 225.425 142.11875 L 225.7625 123.05625 L 226.096875 116.575 L 226.43125 129.115625 L 226.765625 127.278125 L 227.1 138.909375 L 227.4375 119.778125 L 227.771875 135.74375 L 228.10625 138.975 L 228.440625 131.365625 L 228.778125 132.340625 L 229.1125 119.059375 L 229.446875 138.875 L 229.78125 141.08125 L 230.11875 141.803125 L 230.453125 125.809375 L 231.121875 143.05625 L 231.459375 136.2125 L 231.79375 121.225 L 232.128125 145.46875 L 232.4625 139.034375 L 232.8 139.534375 L 233.134375 142.175 L 233.46875 128.471875 L 233.803125 129.646875 L 234.140625 117.590625 L 234.475 129.625 L 234.809375 122.234375 L 235.14375 121.421875 L 235.48125 118.7625 L 235.815625 139.703125 L 236.15 136.91875 L 236.484375 135.671875 L 236.821875 133.628125 L 237.15625 132.3625 L 237.490625 133.840625 L 237.825 138.7375 L 238.1625 126.24375 L 238.496875 132.0625 L 238.83125 125.86875 L 239.165625 115.4 L 239.5 119.246875 L 239.8375 115.175 L 240.171875 124.6375 L 240.50625 130.25625 L 240.840625 118.740625 L 241.178125 125.396875 L 241.5125 112.04375 L 241.846875 119.321875 L 242.18125 145.596875 L 242.51875 122.959375 L 242.853125 115.909375 L 243.521875 124.675 L 243.859375 109.778125 L 244.19375 136.790625 L 244.528125 119.05 L 244.8625 116.609375 L 245.2 122.415625 L 245.86875 115.440625 L 246.203125 123.24375 L 246.540625 119.5875 L 246.875 98.840625 L 247.209375 115.909375 L 247.54375 115.84375 L 247.88125 95.146875 L 248.215625 115.803125 L 248.55 125.828125 L 248.884375 93.115625 L 249.221875 112.715625 L 249.55625 110.95625 L 249.890625 100.171875 L 250.225 115.13125 L 250.5625 98.40625 L 250.896875 126.875 L 251.23125 122.221875 L 251.565625 99.484375 L 251.9 99.921875 L 252.2375 103.721875 L 252.571875 112.896875 L 252.90625 105.446875 L 253.240625 116.40625 L 253.578125 106.0625 L 253.9125 118.065625 L 254.246875 115.903125 L 254.58125 118.06875 L 254.91875 99.990625 L 255.921875 114.00625 L 256.259375 115.26875 L 256.59375 113.084375 L 256.928125 122.934375 L 257.2625 98.8625 L 257.6 98.375 L 257.934375 88.790625 L 258.603125 112.871875 L 258.940625 97.615625 L 259.275 113.428125 L 259.609375 93.85625 L 259.94375 104.85 L 260.28125 86.346875 L 260.615625 91.428125 L 260.95 94.0125 L 261.284375 103.21875 L 261.621875 68.615625 L 261.95625 96.334375 L 262.290625 84.646875 L 262.625 95.8375 L 262.9625 98.446875 L 263.296875 93.140625 L 263.63125 97.921875 L 263.965625 85.040625 L 264.3 78.4 L 264.6375 100.328125 L 264.971875 93.78125 L 265.30625 93.096875 L 265.640625 78.115625 L 265.978125 100.6125 L 266.3125 81.946875 L 266.98125 93.890625 L 267.31875 102.3125 L 267.653125 79.60625 L 267.9875 92.809375 L 268.321875 77.046875 L 268.659375 83.071875 L 268.99375 85.109375 L 269.328125 68.8875 L 269.6625 84.425 L 270 78.240625 L 270.334375 69.515625 L 270.66875 76.41875 L 271.003125 65.790625 L 271.340625 89.453125 L 271.675 91.996875 L 272.34375 70.81875 L 272.68125 89.021875 L 273.015625 78.28125 L 273.35 75.646875 L 273.684375 82.2 L 274.021875 84.109375 L 274.35625 74.24375 L 274.690625 75.903125 L 275.025 87.340625 L 275.696875 61.871875 L 276.03125 83.44375 L 276.365625 79.415625 L 276.7 72.915625 L 277.0375 73.04375 L 277.371875 74.040625 L 277.70625 69.15 L 278.040625 74.634375 L 278.378125 64.040625 L 279.38125 91.796875 L 279.71875 71.14375 L 280.053125 59.040625 L 280.3875 63.159375 L 280.721875 83.659375 L 281.39375 66.33125 L 281.728125 83.071875 L 282.0625 61.609375 L 282.4 85.040625 L 282.734375 74.390625 L 283.403125 66.0125 L 283.740625 73.2625 L 284.075 76.1125 L 284.409375 85.353125 L 285.08125 57.33125 L 285.415625 80.66875 L 285.75 64.259375 L 286.084375 61.65 L 286.421875 56.7875 L 286.75625 47.4625 L 287.090625 47.221875 L 287.425 74.890625 L 287.7625 65.04375 L 288.096875 65.70625 L 288.43125 55.09375 L 288.765625 55.509375 L 289.1 71.40625 L 289.4375 51.3875 L 289.771875 68.83125 L 290.10625 56.159375 L 290.440625 70.221875 L 290.778125 67.6375 L 291.1125 61.61875 L 291.446875 84.934375 L 291.78125 77.34375 L 292.11875 55.3125 L 292.453125 83.09375 L 292.7875 55.121875 L 293.121875 46.5 L 293.459375 62.45625 L 293.79375 53.015625 L 294.128125 68.55 L 294.4625 61.94375 L 294.8 50.65625 L 295.134375 52.540625 L 295.46875 61.75 L 295.803125 63.334375 L 296.140625 71.5375 L 296.475 57.403125 L 296.809375 54.190625 L 297.14375 58.996875 L 297.48125 55.7 L 297.815625 54.884375 L 298.15 70.565625 L 298.484375 37.0375 L 298.821875 65.640625 L 299.15625 57.921875 L 299.490625 58.7 L 299.825 51.3875 L 300.1625 50.353125 L 300.496875 65.49375 L 300.83125 62.328125 L 301.165625 39.05625 L 301.5 66.003125 L 301.8375 60.228125 L 302.840625 57.86875 L 303.178125 42.565625 L 303.5125 67.6875 L 303.846875 48.934375 L 304.18125 68.140625 L 304.51875 49.44375 L 304.853125 53.228125 L 305.1875 54.05 L 305.521875 55.584375 L 305.859375 30.4375 L 306.19375 23.390625 L 306.528125 66.9625 L 306.8625 49.421875 L 307.2 57.303125 L 307.534375 25.034375 L 307.86875 53.434375 L 308.203125 34.940625 L 308.540625 73.171875 L 308.875 60.021875 L 309.209375 26.865625 L 309.54375 48.29375 L 309.88125 37.575 L 310.215625 43.609375 L 310.55 33.628125 L 310.884375 63.221875 L 311.221875 29.978125 L 311.55625 41.503125 L 311.890625 66.171875 L 312.225 50.128125 L 312.5625 51.00625 L 312.896875 53.609375 L 313.23125 35.73125 L 313.565625 45.85 L 313.9 42.734375 L 314.2375 57.26875 L 314.90625 44.2875 L 315.240625 47.325 L 315.578125 28.053125 L 315.9125 50.8375 L 316.246875 46.61875 L 316.58125 45.775 L 316.91875 49.60625 L 317.253125 31.659375 L 317.5875 36.371875 L 317.921875 66.0875 L 318.259375 43.071875 L 318.59375 52.109375 L 318.928125 47.95 L 319.2625 38.315625 L 319.6 40.471875 L 319.934375 31.690625 L 320.26875 61.409375 L 320.603125 66.484375 L 320.940625 48.98125 L 321.275 38.321875 L 321.609375 41.346875 L 321.94375 57.94375 L 322.28125 41.459375 L 322.615625 54.696875 L 322.95 34.69375 L 323.284375 31.603125 L 323.621875 46.23125 L 323.95625 48.58125 L 324.290625 54.753125 L 324.625 48.071875 L 324.9625 52.409375 L 325.296875 67.2875 L 325.63125 64.2375 L 325.965625 24.715625 L 326.3 63.990625 L 326.6375 48.415625 L 326.971875 51.053125 L 327.30625 66.403125 L 327.640625 65.890625 L 327.978125 69.28125 L 328.3125 63.903125 L 328.646875 47.78125 L 328.98125 54.89375 L 329.31875 35.0125 L 329.653125 55.815625 L 329.9875 55.365625 L 330.321875 52.871875 L 330.659375 60.153125 L 330.99375 51.55 L 331.328125 59.653125 L 331.6625 60.053125 L 332 45.146875 L 332.334375 48.953125 L 332.66875 49.328125 L 333.003125 65.215625 L 333.340625 49.0375 L 333.675 57.6625 L 334.009375 36.8125 L 334.34375 56.815625 L 334.68125 85.328125 L 335.015625 78.215625 L 335.684375 56.35625 L 336.021875 53.825 L 336.35625 52.890625 L 336.690625 59.203125 L 337.025 51.128125 L 337.359375 46.575 L 337.696875 48.059375 L 338.03125 74.3625 L 338.365625 51.978125 L 338.7 56.825 L 339.0375 69.909375 L 339.371875 62.771875 L 339.70625 61.8 L 340.040625 71.196875 L 340.378125 54.98125 L 340.7125 68.934375 L 341.046875 55.053125 L 341.38125 46.059375 L 341.71875 61.5625 L 342.053125 44.515625 L 342.3875 68.1375 L 342.721875 54.74375 L 343.39375 69.865625 L 343.728125 74.45 L 344.0625 83.89375 L 344.4 63.8875 L 344.734375 67.34375 L 345.06875 79.19375 L 345.403125 69.203125 L 345.740625 73.35625 L 346.075 84.121875 L 346.409375 58.28125 L 346.74375 70.396875 L 347.08125 67.44375 L 347.415625 66.9125 L 347.75 62.25625 L 348.421875 79.659375 L 348.75625 59.365625 L 349.090625 75.359375 L 349.425 76.109375 L 349.7625 75.41875 L 350.096875 85.375 L 350.43125 74.45625 L 350.765625 75.984375 L 351.1 73.89375 L 351.4375 72.64375 L 351.771875 83.278125 L 352.10625 79.9125 L 352.778125 70.08125 L 353.1125 69.71875 L 353.446875 74.83125 L 353.78125 90.3875 L 354.11875 73.071875 L 354.453125 104.246875 L 354.7875 72.046875 L 355.121875 93.303125 L 355.79375 83.05 L 356.128125 74.11875 L 356.8 87.309375 L 357.134375 85.859375 L 357.46875 103.984375 L 357.803125 95.496875 L 358.140625 76.1 L 358.475 86.078125 L 358.809375 86.603125 L 359.14375 88.978125 L 359.48125 96.940625 L 359.815625 85.4375 L 360.15 86.325 L 360.484375 64.075 L 361.15625 96.571875 L 361.490625 75.43125 L 361.825 80.315625 L 362.1625 90.496875 L 362.496875 92.725 L 362.83125 90.746875 L 363.165625 78.60625 L 363.5 85.75 L 363.8375 90.18125 L 364.171875 101.315625 L 364.50625 97.471875 L 364.840625 87.109375 L 365.178125 96.225 L 365.5125 94.596875 L 365.846875 107.640625 L 366.18125 93.1375 L 366.51875 98.078125 L 366.853125 93.878125 L 367.1875 70.325 L 367.521875 80.225 L 367.859375 102.134375 L 368.19375 97.14375 L 368.528125 89.328125 L 368.8625 102.278125 L 369.2 97.8875 L 369.534375 100.053125 L 369.86875 106.8 L 370.203125 83.2125 L 370.540625 91.065625 L 370.875 95.4125 L 371.209375 89.521875 L 371.54375 102.909375 L 371.88125 101.25 L 372.215625 88.5625 L 372.55 104.453125 L 372.884375 92.621875 L 373.221875 97.6625 L 373.55625 105.90625 L 373.890625 106.43125 L 374.225 94.20625 L 374.5625 96.165625 L 374.896875 105.040625 L 375.23125 98.18125 L 375.565625 101.04375 L 375.9 113.234375 L 376.2375 99.89375 L 376.571875 105.346875 L 376.90625 103.228125 L 377.240625 97.2125 L 377.578125 100.225 L 377.9125 117.3875 L 378.246875 114.06875 L 378.58125 105.828125 L 378.91875 108.79375 L 379.253125 107.065625 L 379.5875 109.915625 L 379.921875 110.446875 L 380.259375 107.3875 L 380.59375 125.584375 L 380.928125 106.815625 L 381.2625 120.74375 L 381.6 106.7125 L 381.934375 116.96875 L 382.603125 111.646875 L 382.940625 96.8625 L 383.275 103.80625 L 383.609375 101.059375 L 383.94375 121.4375 L 384.28125 128.940625 L 384.615625 121.9625 L 384.95 124.246875 L 385.284375 112.896875 L 385.621875 132.721875 L 386.290625 112.740625 L 386.625 108.80625 L 386.9625 148.821875 " transform="matrix(1.25,0,0,1.25,0,0)"/>
</g>
<path style="fill:none;stroke-width:0.8;stroke-linecap:square;stroke-linejoin:miter;stroke:rgb(0%,0%,0%);stroke-opacity:1;stroke-miterlimit:4;" d="M 52.1625 170.28125 L 52.1625 7.2 " transform="matrix(1.25,0,0,1.25,0,0)"/>
<path style="fill:none;stroke-width:0.8;stroke-linecap:square;stroke-linejoin:miter;stroke:rgb(0%,0%,0%);stroke-opacity:1;stroke-miterlimit:4;" d="M 386.9625 170.28125 L 386.9625 7.2 " transform="matrix(1.25,0,0,1.25,0,0)"/>
<path style="fill:none;stroke-width:0.8;stroke-linecap:square;stroke-linejoin:miter;stroke:rgb(0%,0%,0%);stroke-opacity:1;stroke-miterlimit:4;" d="M 52.1625 170.28125 L 386.9625 170.28125 " transform="matrix(1.25,0,0,1.25,0,0)"/>
<path style="fill:none;stroke-width:0.8;stroke-linecap:square;stroke-linejoin:miter;stroke:rgb(0%,0%,0%);stroke-opacity:1;stroke-miterlimit:4;" d="M 52.1625 7.2 L 386.9625 7.2 " transform="matrix(1.25,0,0,1.25,0,0)"/>
</g>
</svg>
