<?xml version="1.0" encoding="UTF-8"?>
<svg xmlns="http://www.w3.org/2000/svg" xmlns:xlink="http://www.w3.org/1999/xlink" width="420pt" height="188pt" viewBox="0 0 420 188" version="1.1">
<g id="surface1">
<path style=" stroke:none;fill-rule:nonzero;fill:rgb(0%,0%,0%);fill-opacity:1;" d="M 85.75 11.347656 C 85.496094 11.640625 85.183594 11.914062 84.792969 12.167969 C 84.402344 12.382812 84.03125 12.539062 83.660156 12.65625 L 83.660156 13.574219 C 84.421875 13.339844 85.046875 12.988281 85.554688 12.460938 L 85.554688 19.375 L 86.472656 19.375 L 86.472656 11.347656 Z M 85.75 11.347656 "/>
<path style=" stroke:none;fill-rule:nonzero;fill:rgb(0%,0%,0%);fill-opacity:1;" d="M 147.878906 11.191406 C 147.058594 11.191406 146.394531 11.445312 145.90625 11.992188 C 145.398438 12.519531 145.144531 13.242188 145.144531 14.140625 L 146.0625 14.140625 C 146.082031 13.4375 146.257812 12.890625 146.570312 12.539062 C 146.863281 12.148438 147.292969 11.972656 147.839844 11.972656 C 148.347656 11.972656 148.777344 12.109375 149.070312 12.382812 C 149.363281 12.65625 149.5 13.027344 149.5 13.515625 C 149.5 14.023438 149.285156 14.511719 148.875 14.960938 C 148.660156 15.175781 148.25 15.507812 147.625 15.957031 C 146.765625 16.542969 146.199219 17.03125 145.886719 17.382812 C 145.339844 17.988281 145.085938 18.652344 145.085938 19.375 L 150.4375 19.375 L 150.4375 18.554688 L 146.21875 18.554688 C 146.355469 18.007812 146.941406 17.402344 147.976562 16.699219 C 148.796875 16.152344 149.363281 15.703125 149.636719 15.410156 C 150.144531 14.84375 150.417969 14.21875 150.417969 13.515625 C 150.417969 12.832031 150.183594 12.246094 149.695312 11.835938 C 149.226562 11.40625 148.621094 11.191406 147.878906 11.191406 Z M 147.878906 11.191406 "/>
<path style=" stroke:none;fill-rule:nonzero;fill:rgb(0%,0%,0%);fill-opacity:1;" d="M 212.417969 11.191406 C 211.65625 11.191406 211.03125 11.40625 210.5625 11.835938 C 210.054688 12.285156 209.761719 12.890625 209.703125 13.652344 L 210.621094 13.652344 C 210.679688 13.125 210.855469 12.695312 211.167969 12.402344 C 211.460938 12.109375 211.890625 11.992188 212.417969 11.992188 C 212.945312 11.992188 213.355469 12.109375 213.648438 12.382812 C 213.921875 12.617188 214.078125 12.96875 214.078125 13.417969 C 214.078125 13.867188 213.921875 14.21875 213.648438 14.472656 C 213.355469 14.707031 212.945312 14.824219 212.417969 14.824219 L 211.792969 14.824219 L 211.792969 15.546875 L 212.457031 15.546875 C 213.003906 15.546875 213.433594 15.664062 213.746094 15.9375 C 214.078125 16.210938 214.234375 16.582031 214.234375 17.070312 C 214.234375 17.539062 214.058594 17.929688 213.746094 18.242188 C 213.394531 18.574219 212.925781 18.75 212.359375 18.75 C 211.851562 18.75 211.441406 18.59375 211.089844 18.320312 C 210.699219 18.007812 210.484375 17.519531 210.464844 16.894531 L 209.527344 16.894531 C 209.605469 17.792969 209.917969 18.476562 210.484375 18.945312 C 210.972656 19.335938 211.597656 19.53125 212.359375 19.53125 C 213.199219 19.53125 213.863281 19.296875 214.390625 18.828125 C 214.898438 18.359375 215.152344 17.773438 215.152344 17.03125 C 215.152344 16.5625 215.015625 16.171875 214.742188 15.859375 C 214.488281 15.546875 214.136719 15.3125 213.667969 15.175781 C 214.546875 14.882812 214.976562 14.257812 214.976562 13.359375 C 214.976562 12.695312 214.742188 12.167969 214.273438 11.777344 C 213.804688 11.367188 213.179688 11.191406 212.417969 11.191406 Z M 212.417969 11.191406 "/>
<path style=" stroke:none;fill-rule:nonzero;fill:rgb(0%,0%,0%);fill-opacity:1;" d="M 10.410156 11.660156 L 7.167969 11.660156 L 7.167969 20.214844 L 7.96875 20.214844 L 7.96875 19.199219 L 9.628906 19.199219 L 9.628906 19.941406 L 10.410156 19.941406 Z M 7.96875 18.4375 L 7.96875 15.722656 L 9.628906 15.722656 L 9.628906 18.4375 Z M 7.96875 14.980469 L 7.96875 12.402344 L 9.628906 12.402344 L 9.628906 14.980469 Z M 12.03125 15 L 11.367188 15.429688 C 12.050781 16.464844 12.578125 17.402344 12.96875 18.242188 L 13.632812 17.773438 C 13.261719 16.992188 12.734375 16.054688 12.03125 15 Z M 14.589844 21.015625 C 15.292969 21.015625 15.644531 20.644531 15.644531 19.941406 L 15.644531 13.652344 L 17.03125 13.652344 L 17.03125 12.871094 L 15.644531 12.871094 L 15.644531 10.898438 L 14.824219 10.898438 L 14.824219 12.871094 L 10.9375 12.871094 L 10.9375 13.652344 L 14.824219 13.652344 L 14.824219 19.746094 C 14.824219 20.097656 14.648438 20.273438 14.335938 20.273438 C 13.730469 20.273438 13.105469 20.253906 12.460938 20.234375 L 12.636719 21.015625 Z M 14.589844 21.015625 "/>
<path style=" stroke:none;fill-rule:nonzero;fill:rgb(0%,0%,0%);fill-opacity:1;" d="M 20.9375 13.867188 L 20.9375 19.101562 L 25.214844 19.101562 L 25.214844 13.867188 Z M 24.472656 18.378906 L 21.699219 18.378906 L 21.699219 16.835938 L 24.472656 16.835938 Z M 21.699219 16.113281 L 21.699219 14.570312 L 24.472656 14.570312 L 24.472656 16.113281 Z M 26.484375 21.035156 C 27.226562 21.035156 27.617188 20.625 27.617188 19.84375 L 27.617188 11.367188 L 22.460938 11.367188 L 22.460938 12.128906 L 26.835938 12.128906 L 26.835938 19.609375 C 26.835938 20.058594 26.640625 20.3125 26.308594 20.3125 L 25.332031 20.273438 L 25.527344 21.035156 Z M 18.613281 12.675781 L 18.613281 21.132812 L 19.394531 21.132812 L 19.394531 12.675781 Z M 20.253906 10.703125 L 19.511719 11.035156 C 20 11.640625 20.46875 12.34375 20.898438 13.125 L 21.621094 12.734375 C 21.230469 11.992188 20.761719 11.328125 20.253906 10.703125 Z M 20.253906 10.703125 "/>
<path style=" stroke:none;fill-rule:nonzero;fill:rgb(0%,0%,0%);fill-opacity:1;" d="M 34.023438 10.78125 L 34.023438 14.472656 L 31.914062 14.472656 L 31.914062 11.660156 L 31.09375 11.660156 L 31.09375 14.472656 L 29.375 14.472656 L 29.375 15.273438 L 34.101562 15.273438 L 34.101562 18.652344 L 34.902344 18.652344 L 34.902344 15.273438 L 39.375 15.273438 L 39.375 14.472656 L 34.84375 14.472656 L 34.84375 12.929688 L 38.261719 12.929688 L 38.261719 12.148438 L 34.84375 12.148438 L 34.84375 10.78125 Z M 37.695312 16.09375 C 36.464844 18.945312 33.886719 20.390625 30 20.390625 L 30.292969 21.171875 C 34.296875 21.152344 37.011719 19.589844 38.4375 16.484375 Z M 32.070312 15.761719 C 31.425781 16.757812 30.625 17.617188 29.667969 18.359375 L 30.175781 19.023438 C 31.152344 18.242188 31.972656 17.324219 32.65625 16.289062 Z M 32.070312 15.761719 "/>
<path style=" stroke:none;fill-rule:nonzero;fill:rgb(0%,0%,0%);fill-opacity:1;" d="M 14.023438 38.964844 L 14.023438 41.09375 L 12.65625 41.09375 L 12.65625 41.875 L 14.023438 41.875 C 13.671875 43.28125 13.105469 44.550781 12.285156 45.664062 L 12.636719 46.542969 C 13.203125 45.664062 13.671875 44.6875 14.023438 43.632812 L 14.023438 49.238281 L 14.824219 49.238281 L 14.824219 43.59375 C 15.15625 44.023438 15.546875 44.589844 16.015625 45.292969 L 16.484375 44.609375 C 15.917969 43.925781 15.371094 43.300781 14.824219 42.734375 L 14.824219 41.875 L 16.132812 41.875 L 16.132812 41.09375 L 14.824219 41.09375 L 14.824219 38.964844 Z M 17.34375 44.042969 C 17.03125 45.449219 16.523438 46.699219 15.820312 47.851562 L 16.523438 48.300781 C 17.1875 47.148438 17.734375 45.800781 18.085938 44.21875 Z M 21.40625 44.003906 L 20.683594 44.238281 C 21.113281 45.449219 21.523438 46.835938 21.894531 48.398438 L 22.636719 48.066406 C 22.285156 46.621094 21.894531 45.273438 21.40625 44.003906 Z M 18.886719 49.121094 C 19.550781 49.121094 19.882812 48.789062 19.882812 48.125 L 19.882812 43.125 L 22.636719 43.125 L 22.636719 42.34375 L 16.328125 42.34375 L 16.328125 43.125 L 19.082031 43.125 L 19.082031 47.929688 C 19.082031 48.242188 18.925781 48.417969 18.613281 48.417969 C 18.28125 48.417969 17.949219 48.398438 17.597656 48.378906 L 17.753906 49.121094 Z M 16.933594 39.609375 L 16.933594 40.371094 L 22.050781 40.371094 L 22.050781 39.609375 Z M 16.933594 39.609375 "/>
<path style=" stroke:none;fill-rule:nonzero;fill:rgb(0%,0%,0%);fill-opacity:1;" d="M 31.386719 45.371094 C 31.054688 46.445312 30.664062 47.34375 30.214844 48.105469 L 24.023438 48.105469 L 24.023438 48.867188 L 33.515625 48.867188 L 33.515625 48.105469 L 31.09375 48.105469 C 31.523438 47.363281 31.875 46.523438 32.167969 45.585938 Z M 25.996094 45.507812 L 25.273438 45.742188 C 25.625 46.40625 25.917969 47.089844 26.152344 47.8125 L 26.875 47.617188 C 26.621094 46.835938 26.328125 46.113281 25.996094 45.507812 Z M 28.613281 45.292969 L 27.851562 45.527344 C 28.144531 46.230469 28.398438 46.953125 28.574219 47.714844 L 29.296875 47.519531 C 29.101562 46.679688 28.867188 45.9375 28.613281 45.292969 Z M 25.839844 44.21875 L 25.839844 44.921875 L 31.679688 44.921875 L 31.679688 44.21875 Z M 25.390625 40.625 L 26.25 40.625 C 26.445312 41.054688 26.621094 41.523438 26.757812 41.992188 L 27.5 41.71875 C 27.382812 41.386719 27.226562 41.015625 27.050781 40.625 L 28.671875 40.625 L 28.671875 39.902344 L 25.703125 39.902344 C 25.820312 39.628906 25.917969 39.355469 25.996094 39.0625 L 25.214844 38.90625 C 24.902344 39.941406 24.394531 40.878906 23.691406 41.738281 L 24.394531 42.167969 C 24.765625 41.699219 25.097656 41.191406 25.390625 40.625 Z M 30.117188 40.625 L 31.09375 40.625 C 31.347656 41.09375 31.582031 41.582031 31.777344 42.089844 L 32.519531 41.816406 C 32.363281 41.445312 32.1875 41.054688 31.933594 40.625 L 33.730469 40.625 L 33.730469 39.902344 L 30.429688 39.902344 C 30.527344 39.628906 30.625 39.355469 30.703125 39.0625 L 29.921875 38.90625 C 29.6875 39.785156 29.316406 40.566406 28.789062 41.289062 L 29.472656 41.71875 C 29.707031 41.386719 29.921875 41.015625 30.117188 40.625 Z M 28.496094 41.738281 C 27.207031 42.695312 25.585938 43.496094 23.632812 44.140625 L 24.023438 44.84375 C 25.976562 44.160156 27.558594 43.339844 28.75 42.402344 C 30.058594 43.417969 31.621094 44.21875 33.457031 44.84375 L 33.867188 44.160156 C 32.03125 43.574219 30.410156 42.753906 29.003906 41.738281 Z M 28.496094 41.738281 "/>
<path style=" stroke:none;fill-rule:nonzero;fill:rgb(0%,0%,0%);fill-opacity:1;" d="M 14.453125 171.046875 L 14.453125 172.707031 L 13.339844 172.707031 C 13.613281 171.984375 13.886719 171.164062 14.121094 170.246094 L 16.289062 170.246094 L 16.289062 169.484375 L 14.316406 169.484375 C 14.414062 169.035156 14.511719 168.546875 14.628906 168.039062 L 13.886719 167.882812 C 13.769531 168.429688 13.671875 168.976562 13.554688 169.484375 L 12.441406 169.484375 L 12.441406 170.246094 L 13.378906 170.246094 C 13.125 171.242188 12.851562 172.101562 12.519531 172.765625 L 12.695312 173.449219 L 14.453125 173.449219 L 14.453125 175.128906 C 13.789062 175.246094 13.105469 175.363281 12.363281 175.441406 L 12.460938 176.242188 C 13.144531 176.125 13.808594 176.027344 14.453125 175.890625 L 14.453125 178.234375 L 15.195312 178.234375 L 15.195312 175.734375 L 16.269531 175.460938 L 16.269531 174.699219 C 15.9375 174.777344 15.585938 174.875 15.195312 174.972656 L 15.195312 173.449219 L 16.230469 173.449219 L 16.230469 172.707031 L 15.195312 172.707031 L 15.195312 171.046875 Z M 17.773438 170.460938 L 17.773438 171.125 L 20.996094 171.125 L 20.996094 170.460938 L 17.773438 170.460938 C 18.339844 169.914062 18.886719 169.308594 19.414062 168.664062 C 20.273438 169.757812 21.230469 170.695312 22.285156 171.457031 L 22.714844 170.832031 C 21.699219 170.109375 20.703125 169.152344 19.707031 167.941406 L 19.140625 167.941406 C 18.222656 169.054688 17.1875 170.050781 16.035156 170.890625 L 16.484375 171.574219 C 16.914062 171.222656 17.34375 170.851562 17.773438 170.460938 Z M 18.554688 178.15625 C 19.101562 178.15625 19.394531 177.863281 19.394531 177.277344 L 19.394531 172.023438 L 16.738281 172.023438 L 16.738281 178.234375 L 17.441406 178.234375 L 17.441406 176.125 L 18.710938 176.125 L 18.710938 177.140625 C 18.710938 177.375 18.574219 177.511719 18.339844 177.511719 L 17.832031 177.492188 L 18.007812 178.15625 Z M 17.441406 175.5 L 17.441406 174.425781 L 18.710938 174.425781 L 18.710938 175.5 Z M 17.441406 173.800781 L 17.441406 172.6875 L 18.710938 172.6875 L 18.710938 173.800781 Z M 20.058594 172.335938 L 20.058594 176.378906 L 20.703125 176.378906 L 20.703125 172.335938 Z M 21.289062 178.175781 C 21.835938 178.175781 22.109375 177.84375 22.109375 177.199219 L 22.109375 171.828125 L 21.40625 171.828125 L 21.40625 177.023438 C 21.40625 177.335938 21.289062 177.511719 21.035156 177.511719 C 20.761719 177.511719 20.46875 177.492188 20.175781 177.453125 L 20.332031 178.175781 Z M 21.289062 178.175781 "/>
<path style=" stroke:none;fill-rule:nonzero;fill:rgb(0%,0%,0%);fill-opacity:1;" d="M 28.261719 170.519531 C 27.539062 173.507812 25.976562 175.8125 23.554688 177.375 L 24.042969 178.078125 C 26.40625 176.535156 27.96875 174.328125 28.710938 171.457031 C 28.769531 171.59375 28.808594 171.75 28.886719 171.945312 C 30.039062 174.914062 31.523438 176.964844 33.359375 178.058594 L 33.867188 177.414062 C 32.070312 176.300781 30.664062 174.386719 29.609375 171.710938 C 28.925781 169.875 28.066406 168.605469 27.070312 167.902344 L 26.40625 168.332031 C 27.109375 168.859375 27.734375 169.582031 28.261719 170.519531 Z M 28.261719 170.519531 "/>
<path style=" stroke:none;fill-rule:nonzero;fill:rgb(0%,0%,0%);fill-opacity:1;" d="M 85.03125 170.5 C 84.367188 170.5 83.820312 170.8125 83.390625 171.4375 L 83.390625 170.65625 L 82.492188 170.65625 L 82.492188 176.476562 L 83.390625 176.476562 L 83.390625 172.941406 C 83.390625 172.472656 83.527344 172.082031 83.800781 171.769531 C 84.054688 171.417969 84.40625 171.261719 84.816406 171.261719 C 85.695312 171.261719 86.144531 171.769531 86.144531 172.804688 L 86.144531 176.476562 L 87.0625 176.476562 L 87.0625 172.824219 C 87.0625 172.355469 87.179688 171.984375 87.453125 171.691406 C 87.6875 171.398438 88.019531 171.261719 88.410156 171.261719 C 88.898438 171.261719 89.25 171.398438 89.484375 171.652344 C 89.699219 171.90625 89.816406 172.296875 89.816406 172.804688 L 89.816406 176.476562 L 90.714844 176.476562 L 90.714844 172.667969 C 90.714844 172.003906 90.519531 171.476562 90.167969 171.085938 C 89.777344 170.695312 89.289062 170.5 88.683594 170.5 C 88.273438 170.5 87.941406 170.597656 87.667969 170.773438 C 87.355469 170.949219 87.082031 171.222656 86.847656 171.613281 C 86.515625 170.871094 85.910156 170.5 85.03125 170.5 Z M 85.03125 170.5 "/>
<path style=" stroke:none;fill-rule:nonzero;fill:rgb(0%,0%,0%);fill-opacity:1;" d="M 149.945312 170.5 C 149.261719 170.5 148.695312 170.636719 148.265625 170.910156 C 147.796875 171.203125 147.503906 171.652344 147.367188 172.277344 L 148.265625 172.335938 C 148.363281 171.964844 148.539062 171.691406 148.851562 171.496094 C 149.125 171.320312 149.476562 171.242188 149.886719 171.242188 C 150.902344 171.242188 151.410156 171.730469 151.410156 172.707031 L 151.410156 173.019531 L 150.023438 173.039062 C 149.144531 173.039062 148.460938 173.214844 147.992188 173.527344 C 147.445312 173.859375 147.191406 174.367188 147.191406 175.03125 C 147.191406 175.5 147.367188 175.890625 147.738281 176.203125 C 148.089844 176.496094 148.539062 176.632812 149.125 176.632812 C 149.671875 176.632812 150.160156 176.515625 150.589844 176.28125 C 150.941406 176.066406 151.253906 175.8125 151.46875 175.5 L 151.46875 176.476562 L 152.308594 176.476562 L 152.308594 172.746094 C 152.308594 172.0625 152.132812 171.535156 151.800781 171.164062 C 151.390625 170.714844 150.785156 170.5 149.945312 170.5 Z M 151.410156 173.683594 L 151.410156 174.171875 C 151.410156 174.640625 151.195312 175.03125 150.785156 175.382812 C 150.355469 175.753906 149.867188 175.929688 149.320312 175.929688 C 148.96875 175.929688 148.675781 175.832031 148.441406 175.675781 C 148.226562 175.480469 148.109375 175.265625 148.109375 175.011719 C 148.109375 174.152344 148.773438 173.722656 150.082031 173.703125 Z M 151.410156 173.683594 "/>
<path style=" stroke:none;fill-rule:nonzero;fill:rgb(0%,0%,0%);fill-opacity:1;" d="M 213.632812 170.5 C 212.773438 170.5 212.089844 170.8125 211.582031 171.417969 C 211.132812 171.984375 210.898438 172.707031 210.898438 173.605469 C 210.898438 174.484375 211.132812 175.207031 211.582031 175.753906 C 212.070312 176.339844 212.753906 176.632812 213.632812 176.632812 C 214.335938 176.632812 214.921875 176.4375 215.351562 176.066406 C 215.800781 175.695312 216.09375 175.109375 216.230469 174.367188 L 215.332031 174.367188 C 215.195312 175.382812 214.609375 175.871094 213.632812 175.871094 C 213.046875 175.871094 212.597656 175.675781 212.285156 175.265625 C 211.972656 174.855469 211.816406 174.289062 211.816406 173.585938 C 211.816406 172.882812 211.972656 172.316406 212.304688 171.90625 C 212.617188 171.476562 213.066406 171.261719 213.632812 171.261719 C 214.101562 171.261719 214.472656 171.359375 214.765625 171.574219 C 215.039062 171.808594 215.214844 172.140625 215.292969 172.589844 L 216.191406 172.589844 C 216.09375 171.886719 215.820312 171.359375 215.371094 171.007812 C 214.921875 170.675781 214.355469 170.5 213.632812 170.5 Z M 213.632812 170.5 "/>
<path style=" stroke:none;fill-rule:nonzero;fill:rgb(0%,0%,0%);fill-opacity:1;" d="M 86.679688 41.523438 C 85.996094 41.523438 85.429688 41.660156 85 41.933594 C 84.53125 42.226562 84.238281 42.675781 84.101562 43.300781 L 85 43.359375 C 85.097656 42.988281 85.273438 42.714844 85.585938 42.519531 C 85.859375 42.34375 86.210938 42.265625 86.621094 42.265625 C 87.636719 42.265625 88.144531 42.753906 88.144531 43.730469 L 88.144531 44.042969 L 86.757812 44.0625 C 85.878906 44.0625 85.195312 44.238281 84.726562 44.550781 C 84.179688 44.882812 83.925781 45.390625 83.925781 46.054688 C 83.925781 46.523438 84.101562 46.914062 84.472656 47.226562 C 84.824219 47.519531 85.273438 47.65625 85.859375 47.65625 C 86.40625 47.65625 86.894531 47.539062 87.324219 47.304688 C 87.675781 47.089844 87.988281 46.835938 88.203125 46.523438 L 88.203125 47.5 L 89.042969 47.5 L 89.042969 43.769531 C 89.042969 43.085938 88.867188 42.558594 88.535156 42.1875 C 88.125 41.738281 87.519531 41.523438 86.679688 41.523438 Z M 88.144531 44.707031 L 88.144531 45.195312 C 88.144531 45.664062 87.929688 46.054688 87.519531 46.40625 C 87.089844 46.777344 86.601562 46.953125 86.054688 46.953125 C 85.703125 46.953125 85.410156 46.855469 85.175781 46.699219 C 84.960938 46.503906 84.84375 46.289062 84.84375 46.035156 C 84.84375 45.175781 85.507812 44.746094 86.816406 44.726562 Z M 88.144531 44.707031 "/>
<path style=" stroke:none;fill-rule:nonzero;fill:rgb(0%,0%,0%);fill-opacity:1;" d="M 149.992188 41.523438 C 149.132812 41.523438 148.449219 41.835938 147.941406 42.441406 C 147.492188 43.007812 147.257812 43.730469 147.257812 44.628906 C 147.257812 45.507812 147.492188 46.230469 147.941406 46.777344 C 148.429688 47.363281 149.113281 47.65625 149.992188 47.65625 C 150.695312 47.65625 151.28125 47.460938 151.710938 47.089844 C 152.160156 46.71875 152.453125 46.132812 152.589844 45.390625 L 151.691406 45.390625 C 151.554688 46.40625 150.96875 46.894531 149.992188 46.894531 C 149.40625 46.894531 148.957031 46.699219 148.644531 46.289062 C 148.332031 45.878906 148.175781 45.3125 148.175781 44.609375 C 148.175781 43.90625 148.332031 43.339844 148.664062 42.929688 C 148.976562 42.5 149.425781 42.285156 149.992188 42.285156 C 150.460938 42.285156 150.832031 42.382812 151.125 42.597656 C 151.398438 42.832031 151.574219 43.164062 151.652344 43.613281 L 152.550781 43.613281 C 152.453125 42.910156 152.179688 42.382812 151.730469 42.03125 C 151.28125 41.699219 150.714844 41.523438 149.992188 41.523438 Z M 149.992188 41.523438 "/>
<path style=" stroke:none;fill-rule:nonzero;fill:rgb(0%,0%,0%);fill-opacity:1;" d="M 211.082031 39.316406 L 211.082031 47.5 L 211.980469 47.5 L 211.980469 44.179688 C 211.980469 43.632812 212.117188 43.183594 212.429688 42.8125 C 212.722656 42.460938 213.09375 42.285156 213.542969 42.285156 C 214.03125 42.285156 214.402344 42.421875 214.65625 42.714844 C 214.910156 43.007812 215.046875 43.417969 215.046875 43.964844 L 215.046875 47.5 L 215.945312 47.5 L 215.945312 43.828125 C 215.945312 43.085938 215.769531 42.519531 215.398438 42.128906 C 215.046875 41.71875 214.519531 41.523438 213.835938 41.523438 C 213.445312 41.523438 213.09375 41.621094 212.78125 41.796875 C 212.449219 41.992188 212.175781 42.265625 211.980469 42.636719 L 211.980469 39.316406 Z M 211.082031 39.316406 "/>
<path style=" stroke:none;fill-rule:nonzero;fill:rgb(69.803922%,85.098039%,100%);fill-opacity:1;" d="M 70.351562 137.625 L 102.851562 137.625 L 102.851562 112.625 L 70.351562 112.625 Z M 70.351562 137.625 "/>
<path style="fill:none;stroke-width:1;stroke-linecap:round;stroke-linejoin:round;stroke:rgb(0%,0%,0%);stroke-opacity:1;stroke-miterlimit:10;" d="M 72.28125 111.1 L 98.28125 111.1 L 98.28125 131.1 L 72.28125 131.1 Z M 72.28125 111.1 " transform="matrix(1.25,0,0,1.25,-20,-26.25)"/>
<path style=" stroke:none;fill-rule:nonzero;fill:rgb(0%,0%,0%);fill-opacity:1;" d="M 88.882812 127 L 88.882812 126.726562 C 88.082031 126.609375 87.886719 126.492188 87.886719 125.90625 L 87.886719 120.515625 C 87.886719 119.910156 88.121094 119.734375 88.882812 119.675781 L 88.882812 119.402344 L 85.074219 119.402344 L 85.074219 119.675781 C 85.855469 119.734375 86.070312 119.871094 86.070312 120.515625 L 86.070312 122.800781 L 83.355469 122.800781 L 83.355469 120.515625 C 83.355469 119.871094 83.570312 119.734375 84.371094 119.675781 L 84.371094 119.402344 L 80.582031 119.402344 L 80.582031 119.675781 C 81.34375 119.734375 81.539062 119.890625 81.539062 120.515625 L 81.539062 125.90625 C 81.539062 126.492188 81.363281 126.609375 80.582031 126.726562 L 80.582031 127 L 84.371094 127 L 84.371094 126.726562 C 83.550781 126.628906 83.355469 126.492188 83.355469 125.90625 L 83.355469 123.328125 L 86.070312 123.328125 L 86.070312 125.90625 C 86.070312 126.472656 85.894531 126.628906 85.074219 126.726562 L 85.074219 127 Z M 88.882812 127 "/>
<path style=" stroke:none;fill-rule:nonzero;fill:rgb(0%,0%,0%);fill-opacity:1;" d="M 92.050781 130.75 L 92.050781 130.632812 C 91.484375 130.632812 91.347656 130.496094 91.347656 130.183594 L 91.347656 125.710938 L 91.269531 125.671875 L 89.941406 126.355469 L 89.941406 126.472656 L 90.136719 126.394531 C 90.273438 126.335938 90.390625 126.296875 90.46875 126.296875 C 90.625 126.296875 90.703125 126.414062 90.703125 126.667969 L 90.703125 130.046875 C 90.703125 130.457031 90.546875 130.613281 89.980469 130.632812 L 89.980469 130.75 Z M 92.050781 130.75 "/>
<path style=" stroke:none;fill-rule:nonzero;fill:rgb(69.803922%,85.098039%,100%);fill-opacity:1;" d="M 133.617188 137.625 L 166.117188 137.625 L 166.117188 112.625 L 133.617188 112.625 Z M 133.617188 137.625 "/>
<path style="fill:none;stroke-width:1;stroke-linecap:round;stroke-linejoin:round;stroke:rgb(0%,0%,0%);stroke-opacity:1;stroke-miterlimit:10;" d="M 122.89375 111.1 L 148.89375 111.1 L 148.89375 131.1 L 122.89375 131.1 Z M 122.89375 111.1 " transform="matrix(1.25,0,0,1.25,-20,-26.25)"/>
<path style=" stroke:none;fill-rule:nonzero;fill:rgb(0%,0%,0%);fill-opacity:1;" d="M 152.152344 127 L 152.152344 126.726562 C 151.351562 126.609375 151.15625 126.492188 151.15625 125.90625 L 151.15625 120.515625 C 151.15625 119.910156 151.390625 119.734375 152.152344 119.675781 L 152.152344 119.402344 L 148.34375 119.402344 L 148.34375 119.675781 C 149.125 119.734375 149.339844 119.871094 149.339844 120.515625 L 149.339844 122.800781 L 146.625 122.800781 L 146.625 120.515625 C 146.625 119.871094 146.839844 119.734375 147.640625 119.675781 L 147.640625 119.402344 L 143.851562 119.402344 L 143.851562 119.675781 C 144.613281 119.734375 144.808594 119.890625 144.808594 120.515625 L 144.808594 125.90625 C 144.808594 126.492188 144.632812 126.609375 143.851562 126.726562 L 143.851562 127 L 147.640625 127 L 147.640625 126.726562 C 146.820312 126.628906 146.625 126.492188 146.625 125.90625 L 146.625 123.328125 L 149.339844 123.328125 L 149.339844 125.90625 C 149.339844 126.472656 149.164062 126.628906 148.34375 126.726562 L 148.34375 127 Z M 152.152344 127 "/>
<path style=" stroke:none;fill-rule:nonzero;fill:rgb(0%,0%,0%);fill-opacity:1;" d="M 155.921875 129.714844 L 155.824219 129.675781 C 155.570312 130.105469 155.414062 130.183594 155.101562 130.183594 L 153.34375 130.183594 L 154.574219 128.855469 C 155.238281 128.152344 155.53125 127.585938 155.53125 127 C 155.53125 126.257812 155.003906 125.671875 154.144531 125.671875 C 153.226562 125.671875 152.757812 126.296875 152.601562 127.175781 L 152.757812 127.214844 C 153.050781 126.472656 153.304688 126.238281 153.851562 126.238281 C 154.496094 126.238281 154.886719 126.609375 154.886719 127.292969 C 154.886719 127.9375 154.632812 128.503906 153.910156 129.246094 L 152.582031 130.652344 L 152.582031 130.75 L 155.511719 130.75 Z M 155.921875 129.714844 "/>
<path style=" stroke:none;fill-rule:nonzero;fill:rgb(69.803922%,85.098039%,100%);fill-opacity:1;" d="M 197.257812 137.625 L 229.757812 137.625 L 229.757812 112.625 L 197.257812 112.625 Z M 197.257812 137.625 "/>
<path style="fill:none;stroke-width:1;stroke-linecap:round;stroke-linejoin:round;stroke:rgb(0%,0%,0%);stroke-opacity:1;stroke-miterlimit:10;" d="M 173.80625 111.1 L 199.80625 111.1 L 199.80625 131.1 L 173.80625 131.1 Z M 173.80625 111.1 " transform="matrix(1.25,0,0,1.25,-20,-26.25)"/>
<path style=" stroke:none;fill-rule:nonzero;fill:rgb(0%,0%,0%);fill-opacity:1;" d="M 215.792969 127 L 215.792969 126.726562 C 214.992188 126.609375 214.796875 126.492188 214.796875 125.90625 L 214.796875 120.515625 C 214.796875 119.910156 215.03125 119.734375 215.792969 119.675781 L 215.792969 119.402344 L 211.984375 119.402344 L 211.984375 119.675781 C 212.765625 119.734375 212.980469 119.871094 212.980469 120.515625 L 212.980469 122.800781 L 210.265625 122.800781 L 210.265625 120.515625 C 210.265625 119.871094 210.480469 119.734375 211.28125 119.675781 L 211.28125 119.402344 L 207.492188 119.402344 L 207.492188 119.675781 C 208.253906 119.734375 208.449219 119.890625 208.449219 120.515625 L 208.449219 125.90625 C 208.449219 126.492188 208.273438 126.609375 207.492188 126.726562 L 207.492188 127 L 211.28125 127 L 211.28125 126.726562 C 210.460938 126.628906 210.265625 126.492188 210.265625 125.90625 L 210.265625 123.328125 L 212.980469 123.328125 L 212.980469 125.90625 C 212.980469 126.472656 212.804688 126.628906 211.984375 126.726562 L 211.984375 127 Z M 215.792969 127 "/>
<path style=" stroke:none;fill-rule:nonzero;fill:rgb(0%,0%,0%);fill-opacity:1;" d="M 216.457031 126.921875 C 216.769531 126.375 217.121094 126.121094 217.589844 126.121094 C 218.078125 126.121094 218.390625 126.394531 218.390625 126.902344 C 218.390625 127.351562 218.15625 127.683594 217.785156 127.898438 C 217.628906 127.996094 217.433594 128.074219 217.160156 128.171875 L 217.160156 128.269531 C 217.589844 128.269531 217.746094 128.289062 217.921875 128.347656 C 218.429688 128.503906 218.703125 128.875 218.703125 129.441406 C 218.703125 130.066406 218.273438 130.59375 217.726562 130.59375 C 217.511719 130.59375 217.355469 130.554688 217.082031 130.359375 C 216.867188 130.203125 216.75 130.164062 216.613281 130.164062 C 216.457031 130.164062 216.320312 130.261719 216.320312 130.417969 C 216.320312 130.691406 216.613281 130.847656 217.160156 130.847656 C 217.824219 130.847656 218.527344 130.632812 218.898438 130.164062 C 219.113281 129.871094 219.25 129.5 219.25 129.109375 C 219.25 128.71875 219.113281 128.367188 218.917969 128.132812 C 218.761719 127.976562 218.625 127.878906 218.292969 127.742188 C 218.78125 127.449219 218.976562 127.058594 218.976562 126.707031 C 218.976562 126.101562 218.507812 125.671875 217.824219 125.671875 C 217.042969 125.671875 216.554688 126.179688 216.339844 126.902344 Z M 216.457031 126.921875 "/>
<path style=" stroke:none;fill-rule:nonzero;fill:rgb(40%,74.901961%,100%);fill-opacity:1;" d="M 70.351562 91.25 L 102.851562 91.25 L 102.851562 66.25 L 70.351562 66.25 Z M 70.351562 91.25 "/>
<path style="fill:none;stroke-width:1;stroke-linecap:round;stroke-linejoin:round;stroke:rgb(0%,0%,0%);stroke-opacity:1;stroke-miterlimit:10;" d="M 72.28125 74 L 98.28125 74 L 98.28125 94 L 72.28125 94 Z M 72.28125 74 " transform="matrix(1.25,0,0,1.25,-20,-26.25)"/>
<path style=" stroke:none;fill-rule:nonzero;fill:rgb(0%,0%,0%);fill-opacity:1;" d="M 88.707031 76.855469 C 88.707031 74.53125 87.046875 72.851562 84.78125 72.851562 C 82.4375 72.851562 80.738281 74.472656 80.738281 76.875 C 80.738281 79.199219 82.378906 80.839844 84.703125 80.839844 C 87.046875 80.839844 88.707031 79.199219 88.707031 76.855469 Z M 86.714844 76.933594 C 86.714844 79.257812 86.03125 80.46875 84.742188 80.46875 C 83.453125 80.46875 82.730469 79.277344 82.730469 76.914062 C 82.730469 74.550781 83.433594 73.222656 84.683594 73.222656 C 85.992188 73.222656 86.714844 74.53125 86.714844 76.933594 Z M 86.714844 76.933594 "/>
<path style=" stroke:none;fill-rule:nonzero;fill:rgb(0%,0%,0%);fill-opacity:1;" d="M 92.050781 84.375 L 92.050781 84.257812 C 91.484375 84.257812 91.347656 84.121094 91.347656 83.808594 L 91.347656 79.335938 L 91.269531 79.296875 L 89.941406 79.980469 L 89.941406 80.097656 L 90.136719 80.019531 C 90.273438 79.960938 90.390625 79.921875 90.46875 79.921875 C 90.625 79.921875 90.703125 80.039062 90.703125 80.292969 L 90.703125 83.671875 C 90.703125 84.082031 90.546875 84.238281 89.980469 84.257812 L 89.980469 84.375 Z M 92.050781 84.375 "/>
<path style=" stroke:none;fill-rule:nonzero;fill:rgb(40%,74.901961%,100%);fill-opacity:1;" d="M 133.617188 91.25 L 166.117188 91.25 L 166.117188 66.25 L 133.617188 66.25 Z M 133.617188 91.25 "/>
<path style="fill:none;stroke-width:1;stroke-linecap:round;stroke-linejoin:round;stroke:rgb(0%,0%,0%);stroke-opacity:1;stroke-miterlimit:10;" d="M 122.89375 74 L 148.89375 74 L 148.89375 94 L 122.89375 94 Z M 122.89375 74 " transform="matrix(1.25,0,0,1.25,-20,-26.25)"/>
<path style=" stroke:none;fill-rule:nonzero;fill:rgb(0%,0%,0%);fill-opacity:1;" d="M 151.976562 76.855469 C 151.976562 74.53125 150.316406 72.851562 148.050781 72.851562 C 145.707031 72.851562 144.007812 74.472656 144.007812 76.875 C 144.007812 79.199219 145.648438 80.839844 147.972656 80.839844 C 150.316406 80.839844 151.976562 79.199219 151.976562 76.855469 Z M 149.984375 76.933594 C 149.984375 79.257812 149.300781 80.46875 148.011719 80.46875 C 146.722656 80.46875 146 79.277344 146 76.914062 C 146 74.550781 146.703125 73.222656 147.953125 73.222656 C 149.261719 73.222656 149.984375 74.53125 149.984375 76.933594 Z M 149.984375 76.933594 "/>
<path style=" stroke:none;fill-rule:nonzero;fill:rgb(0%,0%,0%);fill-opacity:1;" d="M 155.921875 83.339844 L 155.824219 83.300781 C 155.570312 83.730469 155.414062 83.808594 155.101562 83.808594 L 153.34375 83.808594 L 154.574219 82.480469 C 155.238281 81.777344 155.53125 81.210938 155.53125 80.625 C 155.53125 79.882812 155.003906 79.296875 154.144531 79.296875 C 153.226562 79.296875 152.757812 79.921875 152.601562 80.800781 L 152.757812 80.839844 C 153.050781 80.097656 153.304688 79.863281 153.851562 79.863281 C 154.496094 79.863281 154.886719 80.234375 154.886719 80.917969 C 154.886719 81.5625 154.632812 82.128906 153.910156 82.871094 L 152.582031 84.277344 L 152.582031 84.375 L 155.511719 84.375 Z M 155.921875 83.339844 "/>
<path style=" stroke:none;fill-rule:nonzero;fill:rgb(40%,74.901961%,100%);fill-opacity:1;" d="M 197.257812 91.25 L 229.757812 91.25 L 229.757812 66.25 L 197.257812 66.25 Z M 197.257812 91.25 "/>
<path style="fill:none;stroke-width:1;stroke-linecap:round;stroke-linejoin:round;stroke:rgb(0%,0%,0%);stroke-opacity:1;stroke-miterlimit:10;" d="M 173.80625 74 L 199.80625 74 L 199.80625 94 L 173.80625 94 Z M 173.80625 74 " transform="matrix(1.25,0,0,1.25,-20,-26.25)"/>
<path style=" stroke:none;fill-rule:nonzero;fill:rgb(0%,0%,0%);fill-opacity:1;" d="M 215.617188 76.855469 C 215.617188 74.53125 213.957031 72.851562 211.691406 72.851562 C 209.347656 72.851562 207.648438 74.472656 207.648438 76.875 C 207.648438 79.199219 209.289062 80.839844 211.613281 80.839844 C 213.957031 80.839844 215.617188 79.199219 215.617188 76.855469 Z M 213.625 76.933594 C 213.625 79.257812 212.941406 80.46875 211.652344 80.46875 C 210.363281 80.46875 209.640625 79.277344 209.640625 76.914062 C 209.640625 74.550781 210.34375 73.222656 211.59375 73.222656 C 212.902344 73.222656 213.625 74.53125 213.625 76.933594 Z M 213.625 76.933594 "/>
<path style=" stroke:none;fill-rule:nonzero;fill:rgb(0%,0%,0%);fill-opacity:1;" d="M 216.457031 80.546875 C 216.769531 80 217.121094 79.746094 217.589844 79.746094 C 218.078125 79.746094 218.390625 80.019531 218.390625 80.527344 C 218.390625 80.976562 218.15625 81.308594 217.785156 81.523438 C 217.628906 81.621094 217.433594 81.699219 217.160156 81.796875 L 217.160156 81.894531 C 217.589844 81.894531 217.746094 81.914062 217.921875 81.972656 C 218.429688 82.128906 218.703125 82.5 218.703125 83.066406 C 218.703125 83.691406 218.273438 84.21875 217.726562 84.21875 C 217.511719 84.21875 217.355469 84.179688 217.082031 83.984375 C 216.867188 83.828125 216.75 83.789062 216.613281 83.789062 C 216.457031 83.789062 216.320312 83.886719 216.320312 84.042969 C 216.320312 84.316406 216.613281 84.472656 217.160156 84.472656 C 217.824219 84.472656 218.527344 84.257812 218.898438 83.789062 C 219.113281 83.496094 219.25 83.125 219.25 82.734375 C 219.25 82.34375 219.113281 81.992188 218.917969 81.757812 C 218.761719 81.601562 218.625 81.503906 218.292969 81.367188 C 218.78125 81.074219 218.976562 80.683594 218.976562 80.332031 C 218.976562 79.726562 218.507812 79.296875 217.824219 79.296875 C 217.042969 79.296875 216.554688 79.804688 216.339844 80.527344 Z M 216.457031 80.546875 "/>
<path style="fill:none;stroke-width:1;stroke-linecap:round;stroke-linejoin:round;stroke:rgb(0%,0%,0%);stroke-opacity:1;stroke-miterlimit:10;" d="M 98.28125 121.1 L 116.99375 121.1 " transform="matrix(1.25,0,0,1.25,-20,-26.25)"/>
<path style="fill:none;stroke-width:1;stroke-linecap:butt;stroke-linejoin:miter;stroke:rgb(0%,0%,0%);stroke-opacity:1;stroke-miterlimit:10;" d="M 120.99375 121.1 L 116.99375 121.1 M 116.99375 119.6 L 120.99375 121.1 L 116.99375 122.6 " transform="matrix(1.25,0,0,1.25,-20,-26.25)"/>
<path style="fill:none;stroke-width:1;stroke-linecap:round;stroke-linejoin:round;stroke:rgb(0%,0%,0%);stroke-opacity:1;stroke-miterlimit:10;" d="M 148.89375 121.1 L 167.90625 121.1 " transform="matrix(1.25,0,0,1.25,-20,-26.25)"/>
<path style="fill:none;stroke-width:1;stroke-linecap:butt;stroke-linejoin:miter;stroke:rgb(0%,0%,0%);stroke-opacity:1;stroke-miterlimit:10;" d="M 171.90625 121.1 L 167.90625 121.1 M 167.90625 119.6 L 171.90625 121.1 L 167.90625 122.6 " transform="matrix(1.25,0,0,1.25,-20,-26.25)"/>
<path style="fill:none;stroke-width:1;stroke-linecap:round;stroke-linejoin:round;stroke:rgb(0%,0%,0%);stroke-opacity:1;stroke-miterlimit:10;" d="M 85.28125 111.1 L 85.28125 99.9 " transform="matrix(1.25,0,0,1.25,-20,-26.25)"/>
<path style="fill:none;stroke-width:1;stroke-linecap:butt;stroke-linejoin:miter;stroke:rgb(0%,0%,0%);stroke-opacity:1;stroke-miterlimit:10;" d="M 85.28125 95.9 L 85.28125 99.9 M 83.78125 99.9 L 85.28125 95.9 L 86.78125 99.9 " transform="matrix(1.25,0,0,1.25,-20,-26.25)"/>
<path style="fill:none;stroke-width:1;stroke-linecap:round;stroke-linejoin:round;stroke:rgb(0%,0%,0%);stroke-opacity:1;stroke-miterlimit:10;" d="M 135.89375 111.1 L 135.89375 99.9 " transform="matrix(1.25,0,0,1.25,-20,-26.25)"/>
<path style="fill:none;stroke-width:1;stroke-linecap:butt;stroke-linejoin:miter;stroke:rgb(0%,0%,0%);stroke-opacity:1;stroke-miterlimit:10;" d="M 135.89375 95.9 L 135.89375 99.9 M 134.39375 99.9 L 135.89375 95.9 L 137.39375 99.9 " transform="matrix(1.25,0,0,1.25,-20,-26.25)"/>
<path style="fill:none;stroke-width:1;stroke-linecap:round;stroke-linejoin:round;stroke:rgb(0%,0%,0%);stroke-opacity:1;stroke-miterlimit:10;" d="M 186.80625 111.1 L 186.80625 99.9 " transform="matrix(1.25,0,0,1.25,-20,-26.25)"/>
<path style="fill:none;stroke-width:1;stroke-linecap:butt;stroke-linejoin:miter;stroke:rgb(0%,0%,0%);stroke-opacity:1;stroke-miterlimit:10;" d="M 186.80625 95.9 L 186.80625 99.9 M 185.30625 99.9 L 186.80625 95.9 L 188.30625 99.9 " transform="matrix(1.25,0,0,1.25,-20,-26.25)"/>
<path style="fill:none;stroke-width:1;stroke-linecap:round;stroke-linejoin:round;stroke:rgb(0%,0%,0%);stroke-opacity:1;stroke-miterlimit:10;" d="M 85.28125 147.18125 L 85.28125 137 " transform="matrix(1.25,0,0,1.25,-20,-26.25)"/>
<path style="fill:none;stroke-width:1;stroke-linecap:butt;stroke-linejoin:miter;stroke:rgb(0%,0%,0%);stroke-opacity:1;stroke-miterlimit:10;" d="M 85.28125 133 L 85.28125 137 M 83.78125 137 L 85.28125 133 L 86.78125 137 " transform="matrix(1.25,0,0,1.25,-20,-26.25)"/>
<path style="fill:none;stroke-width:1;stroke-linecap:round;stroke-linejoin:round;stroke:rgb(0%,0%,0%);stroke-opacity:1;stroke-miterlimit:10;" d="M 135.89375 147.18125 L 135.89375 137 " transform="matrix(1.25,0,0,1.25,-20,-26.25)"/>
<path style="fill:none;stroke-width:1;stroke-linecap:butt;stroke-linejoin:miter;stroke:rgb(0%,0%,0%);stroke-opacity:1;stroke-miterlimit:10;" d="M 135.89375 133 L 135.89375 137 M 134.39375 137 L 135.89375 133 L 137.39375 137 " transform="matrix(1.25,0,0,1.25,-20,-26.25)"/>
<path style="fill:none;stroke-width:1;stroke-linecap:round;stroke-linejoin:round;stroke:rgb(0%,0%,0%);stroke-opacity:1;stroke-miterlimit:10;" d="M 186.80625 147.18125 L 186.80625 137 " transform="matrix(1.25,0,0,1.25,-20,-26.25)"/>
<path style="fill:none;stroke-width:1;stroke-linecap:butt;stroke-linejoin:miter;stroke:rgb(0%,0%,0%);stroke-opacity:1;stroke-miterlimit:10;" d="M 186.80625 133 L 186.80625 137 M 185.30625 137 L 186.80625 133 L 188.30625 137 " transform="matrix(1.25,0,0,1.25,-20,-26.25)"/>
<path style=" stroke:none;fill-rule:nonzero;fill:rgb(0%,0%,0%);fill-opacity:1;" d="M 16.210938 126.941406 L 16.210938 123.113281 L 14.433594 123.113281 C 14.785156 122.722656 15.117188 122.234375 15.46875 121.6875 L 15.46875 121.082031 L 12.851562 121.082031 C 12.96875 120.867188 13.085938 120.613281 13.164062 120.359375 L 12.363281 120.261719 C 11.972656 121.296875 11.230469 122.15625 10.136719 122.878906 L 10.605469 123.503906 C 10.742188 123.40625 10.878906 123.308594 11.035156 123.191406 L 11.035156 123.835938 L 15.429688 123.835938 L 15.429688 124.695312 L 10.878906 124.695312 L 10.878906 125.398438 L 15.429688 125.398438 L 15.429688 126.238281 L 10.625 126.238281 L 10.625 126.941406 Z M 12.421875 121.785156 L 14.570312 121.785156 C 14.238281 122.292969 13.90625 122.742188 13.574219 123.113281 L 11.132812 123.113281 C 11.621094 122.722656 12.050781 122.292969 12.421875 121.785156 Z M 7.1875 120.769531 L 7.1875 130.632812 L 7.988281 130.632812 L 7.988281 121.53125 L 9.609375 121.53125 C 9.335938 122.488281 8.964844 123.542969 8.496094 124.714844 C 9.101562 125.671875 9.394531 126.550781 9.394531 127.3125 C 9.394531 127.546875 9.335938 127.722656 9.257812 127.820312 C 9.160156 127.917969 8.964844 127.976562 8.691406 127.996094 C 8.574219 127.996094 8.417969 127.976562 8.261719 127.957031 L 8.515625 128.777344 C 9.160156 128.777344 9.628906 128.640625 9.902344 128.367188 C 10.078125 128.152344 10.175781 127.800781 10.175781 127.3125 C 10.136719 126.511719 9.84375 125.59375 9.296875 124.597656 C 9.726562 123.484375 10.097656 122.429688 10.410156 121.414062 L 10.410156 120.769531 Z M 16.054688 127.410156 L 15.351562 127.644531 C 15.742188 128.328125 16.113281 129.109375 16.445312 129.988281 L 17.109375 129.675781 C 16.796875 128.875 16.445312 128.132812 16.054688 127.410156 Z M 10.722656 127.625 C 10.546875 128.425781 10.273438 129.167969 9.902344 129.832031 L 10.566406 130.261719 C 10.9375 129.558594 11.230469 128.738281 11.445312 127.78125 Z M 14.453125 130.535156 C 14.785156 130.535156 15.039062 130.457031 15.195312 130.320312 C 15.390625 130.144531 15.527344 129.675781 15.585938 128.914062 L 14.882812 128.679688 C 14.84375 129.226562 14.785156 129.558594 14.707031 129.675781 C 14.628906 129.753906 14.492188 129.8125 14.316406 129.8125 L 13.105469 129.8125 C 12.832031 129.8125 12.695312 129.636719 12.695312 129.324219 L 12.695312 127.488281 L 11.933594 127.488281 L 11.933594 129.5 C 11.933594 130.183594 12.246094 130.535156 12.871094 130.535156 Z M 13.710938 127.234375 L 13.144531 127.605469 C 13.554688 128.09375 13.886719 128.523438 14.121094 128.933594 L 14.726562 128.503906 C 14.492188 128.152344 14.140625 127.722656 13.710938 127.234375 Z M 13.710938 127.234375 "/>
<path style=" stroke:none;fill-rule:nonzero;fill:rgb(0%,0%,0%);fill-opacity:1;" d="M 18.222656 121.023438 L 18.222656 121.746094 L 20.859375 121.746094 L 20.859375 122.507812 L 21.679688 122.507812 L 21.679688 121.746094 L 24.570312 121.746094 L 24.570312 122.527344 L 25.273438 122.527344 L 25.273438 122.976562 L 20.195312 122.976562 L 20.195312 124.5 L 19.179688 124.5 L 19.179688 122.605469 L 18.476562 122.605469 L 18.476562 125.164062 L 20.195312 125.164062 L 20.195312 126.296875 L 18.007812 126.296875 L 18.007812 126.980469 L 18.652344 126.980469 C 18.613281 128.289062 18.359375 129.1875 17.910156 129.695312 L 18.476562 130.125 C 18.964844 129.539062 19.257812 128.484375 19.296875 126.980469 L 20.195312 126.980469 L 20.195312 127.097656 C 20.175781 128.386719 19.980469 129.382812 19.570312 130.105469 L 20.15625 130.632812 C 20.644531 129.734375 20.917969 128.5625 20.9375 127.097656 L 20.9375 123.679688 L 25.292969 123.679688 C 25.332031 125.144531 25.449219 126.335938 25.625 127.253906 C 25.683594 127.625 25.78125 127.976562 25.878906 128.308594 C 25.566406 128.835938 25.195312 129.265625 24.765625 129.636719 L 24.765625 129.167969 L 23.769531 129.167969 L 23.769531 128.113281 L 24.765625 128.113281 L 24.765625 125.964844 L 23.769531 125.964844 L 23.769531 124.988281 L 24.765625 124.988281 L 24.765625 124.34375 L 21.5625 124.34375 L 21.5625 129.832031 L 24.511719 129.832031 L 24.316406 129.949219 L 24.707031 130.554688 C 25.253906 130.222656 25.761719 129.753906 26.191406 129.167969 C 26.269531 129.402344 26.367188 129.597656 26.484375 129.773438 C 26.816406 130.300781 27.148438 130.59375 27.441406 130.59375 C 27.792969 130.59375 28.066406 129.890625 28.261719 128.503906 L 27.675781 128.171875 C 27.578125 129.1875 27.441406 129.695312 27.304688 129.695312 C 27.1875 129.695312 27.011719 129.480469 26.816406 129.050781 C 26.738281 128.894531 26.660156 128.699219 26.601562 128.484375 C 27.128906 127.46875 27.480469 126.179688 27.65625 124.578125 L 26.972656 124.421875 C 26.855469 125.535156 26.640625 126.511719 26.328125 127.332031 C 26.308594 127.234375 26.289062 127.097656 26.269531 126.960938 C 26.132812 126.199219 26.035156 125.105469 25.996094 123.679688 L 28.105469 123.679688 L 28.105469 122.976562 L 27.539062 122.976562 C 27.441406 122.625 27.304688 122.3125 27.207031 122.039062 L 26.503906 122.136719 C 26.640625 122.410156 26.777344 122.683594 26.875 122.976562 L 25.976562 122.976562 L 25.976562 122.351562 L 25.410156 122.351562 L 25.410156 121.746094 L 28.027344 121.746094 L 28.027344 121.023438 L 25.410156 121.023438 L 25.410156 120.320312 L 24.570312 120.320312 L 24.570312 121.023438 L 21.679688 121.023438 L 21.679688 120.300781 L 20.859375 120.300781 L 20.859375 121.023438 Z M 23.144531 124.988281 L 23.144531 125.964844 L 22.226562 125.964844 L 22.226562 124.988281 Z M 22.226562 126.570312 L 24.121094 126.570312 L 24.121094 127.488281 L 22.226562 127.488281 Z M 22.226562 128.113281 L 23.144531 128.113281 L 23.144531 129.167969 L 22.226562 129.167969 Z M 22.226562 128.113281 "/>
<path style=" stroke:none;fill-rule:nonzero;fill:rgb(0%,0%,0%);fill-opacity:1;" d="M 32.402344 124.617188 L 32.402344 125.339844 L 38.496094 125.339844 L 38.496094 124.617188 Z M 31.601562 126.453125 L 31.601562 127.195312 L 34.0625 127.195312 C 33.28125 128.464844 32.617188 129.246094 32.128906 129.539062 C 32.070312 129.558594 32.03125 129.597656 31.953125 129.617188 L 32.128906 130.300781 C 34.257812 130.164062 36.210938 129.96875 37.988281 129.734375 C 38.222656 130.007812 38.417969 130.300781 38.613281 130.59375 L 39.257812 130.144531 C 38.769531 129.421875 38.046875 128.5625 37.128906 127.585938 L 36.523438 127.957031 C 36.855469 128.347656 37.1875 128.71875 37.5 129.089844 C 36.054688 129.304688 34.589844 129.460938 33.105469 129.558594 C 33.632812 129.089844 34.238281 128.289062 34.921875 127.195312 L 39.238281 127.195312 L 39.238281 126.453125 Z M 37.871094 121.511719 L 37.871094 122.820312 L 31.25 122.820312 L 31.25 121.511719 Z M 31.25 123.542969 L 38.652344 123.542969 L 38.652344 120.75 L 30.46875 120.75 L 30.46875 124.480469 C 30.449219 126.746094 30.058594 128.582031 29.277344 130.007812 L 29.863281 130.554688 C 30.78125 128.855469 31.25 126.824219 31.25 124.480469 Z M 31.25 123.542969 "/>
<path style=" stroke:none;fill-rule:nonzero;fill:rgb(0%,0%,0%);fill-opacity:1;" d="M 8.828125 75.195312 L 8.828125 76.855469 L 7.714844 76.855469 C 7.988281 76.132812 8.261719 75.3125 8.496094 74.394531 L 10.664062 74.394531 L 10.664062 73.632812 L 8.691406 73.632812 C 8.789062 73.183594 8.886719 72.695312 9.003906 72.1875 L 8.261719 72.03125 C 8.144531 72.578125 8.046875 73.125 7.929688 73.632812 L 6.816406 73.632812 L 6.816406 74.394531 L 7.753906 74.394531 C 7.5 75.390625 7.226562 76.25 6.894531 76.914062 L 7.070312 77.597656 L 8.828125 77.597656 L 8.828125 79.277344 C 8.164062 79.394531 7.480469 79.511719 6.738281 79.589844 L 6.835938 80.390625 C 7.519531 80.273438 8.183594 80.175781 8.828125 80.039062 L 8.828125 82.382812 L 9.570312 82.382812 L 9.570312 79.882812 L 10.644531 79.609375 L 10.644531 78.847656 C 10.3125 78.925781 9.960938 79.023438 9.570312 79.121094 L 9.570312 77.597656 L 10.605469 77.597656 L 10.605469 76.855469 L 9.570312 76.855469 L 9.570312 75.195312 Z M 12.148438 74.609375 L 12.148438 75.273438 L 15.371094 75.273438 L 15.371094 74.609375 L 12.148438 74.609375 C 12.714844 74.0625 13.261719 73.457031 13.789062 72.8125 C 14.648438 73.90625 15.605469 74.84375 16.660156 75.605469 L 17.089844 74.980469 C 16.074219 74.257812 15.078125 73.300781 14.082031 72.089844 L 13.515625 72.089844 C 12.597656 73.203125 11.5625 74.199219 10.410156 75.039062 L 10.859375 75.722656 C 11.289062 75.371094 11.71875 75 12.148438 74.609375 Z M 12.929688 82.304688 C 13.476562 82.304688 13.769531 82.011719 13.769531 81.425781 L 13.769531 76.171875 L 11.113281 76.171875 L 11.113281 82.382812 L 11.816406 82.382812 L 11.816406 80.273438 L 13.085938 80.273438 L 13.085938 81.289062 C 13.085938 81.523438 12.949219 81.660156 12.714844 81.660156 L 12.207031 81.640625 L 12.382812 82.304688 Z M 11.816406 79.648438 L 11.816406 78.574219 L 13.085938 78.574219 L 13.085938 79.648438 Z M 11.816406 77.949219 L 11.816406 76.835938 L 13.085938 76.835938 L 13.085938 77.949219 Z M 14.433594 76.484375 L 14.433594 80.527344 L 15.078125 80.527344 L 15.078125 76.484375 Z M 15.664062 82.324219 C 16.210938 82.324219 16.484375 81.992188 16.484375 81.347656 L 16.484375 75.976562 L 15.78125 75.976562 L 15.78125 81.171875 C 15.78125 81.484375 15.664062 81.660156 15.410156 81.660156 C 15.136719 81.660156 14.84375 81.640625 14.550781 81.601562 L 14.707031 82.324219 Z M 15.664062 82.324219 "/>
<path style=" stroke:none;fill-rule:nonzero;fill:rgb(0%,0%,0%);fill-opacity:1;" d="M 26.171875 75.976562 L 23.535156 75.976562 L 23.535156 72.050781 L 22.714844 72.050781 L 22.714844 75.976562 L 20.078125 75.976562 L 20.078125 72.910156 L 19.257812 72.910156 L 19.257812 76.757812 L 22.714844 76.757812 L 22.714844 80.898438 L 19.53125 80.898438 L 19.53125 77.8125 L 18.710938 77.8125 L 18.710938 82.304688 L 19.53125 82.304688 L 19.53125 81.660156 L 26.71875 81.660156 L 26.71875 82.304688 L 27.539062 82.304688 L 27.539062 77.8125 L 26.71875 77.8125 L 26.71875 80.898438 L 23.535156 80.898438 L 23.535156 76.757812 L 26.992188 76.757812 L 26.992188 72.910156 L 26.171875 72.910156 Z M 26.171875 75.976562 "/>
<path style=" stroke:none;fill-rule:nonzero;fill:rgb(0%,0%,0%);fill-opacity:1;" d="M 32.402344 76.367188 L 32.402344 77.089844 L 38.496094 77.089844 L 38.496094 76.367188 Z M 31.601562 78.203125 L 31.601562 78.945312 L 34.0625 78.945312 C 33.28125 80.214844 32.617188 80.996094 32.128906 81.289062 C 32.070312 81.308594 32.03125 81.347656 31.953125 81.367188 L 32.128906 82.050781 C 34.257812 81.914062 36.210938 81.71875 37.988281 81.484375 C 38.222656 81.757812 38.417969 82.050781 38.613281 82.34375 L 39.257812 81.894531 C 38.769531 81.171875 38.046875 80.3125 37.128906 79.335938 L 36.523438 79.707031 C 36.855469 80.097656 37.1875 80.46875 37.5 80.839844 C 36.054688 81.054688 34.589844 81.210938 33.105469 81.308594 C 33.632812 80.839844 34.238281 80.039062 34.921875 78.945312 L 39.238281 78.945312 L 39.238281 78.203125 Z M 37.871094 73.261719 L 37.871094 74.570312 L 31.25 74.570312 L 31.25 73.261719 Z M 31.25 75.292969 L 38.652344 75.292969 L 38.652344 72.5 L 30.46875 72.5 L 30.46875 76.230469 C 30.449219 78.496094 30.058594 80.332031 29.277344 81.757812 L 29.863281 82.304688 C 30.78125 80.605469 31.25 78.574219 31.25 76.230469 Z M 31.25 75.292969 "/>
<path style=" stroke:none;fill-rule:nonzero;fill:rgb(0%,0%,0%);fill-opacity:1;" d="M 276.183594 11.347656 L 272.140625 16.679688 L 272.140625 17.558594 L 276.183594 17.558594 L 276.183594 19.375 L 277.0625 19.375 L 277.0625 17.558594 L 278.351562 17.558594 L 278.351562 16.796875 L 277.0625 16.796875 L 277.0625 11.347656 Z M 276.144531 12.539062 L 276.183594 12.539062 L 276.183594 16.796875 L 272.921875 16.796875 Z M 276.144531 12.539062 "/>
<path style=" stroke:none;fill-rule:nonzero;fill:rgb(0%,0%,0%);fill-opacity:1;" d="M 273.988281 168.292969 L 273.988281 176.476562 L 274.886719 176.476562 L 274.886719 173.15625 C 274.886719 172.609375 275.023438 172.160156 275.335938 171.789062 C 275.628906 171.4375 276 171.261719 276.449219 171.261719 C 276.9375 171.261719 277.308594 171.398438 277.5625 171.691406 C 277.816406 171.984375 277.953125 172.394531 277.953125 172.941406 L 277.953125 176.476562 L 278.851562 176.476562 L 278.851562 172.804688 C 278.851562 172.0625 278.675781 171.496094 278.304688 171.105469 C 277.953125 170.695312 277.425781 170.5 276.742188 170.5 C 276.351562 170.5 276 170.597656 275.6875 170.773438 C 275.355469 170.96875 275.082031 171.242188 274.886719 171.613281 L 274.886719 168.292969 Z M 273.988281 168.292969 "/>
<path style=" stroke:none;fill-rule:nonzero;fill:rgb(0%,0%,0%);fill-opacity:1;" d="M 276.417969 39.492188 C 276.222656 39.492188 276.066406 39.550781 275.929688 39.6875 C 275.792969 39.785156 275.734375 39.960938 275.734375 40.15625 C 275.734375 40.351562 275.792969 40.507812 275.929688 40.644531 C 276.066406 40.761719 276.222656 40.820312 276.417969 40.820312 C 276.613281 40.820312 276.769531 40.761719 276.886719 40.644531 C 277.023438 40.507812 277.101562 40.351562 277.101562 40.15625 C 277.101562 39.960938 277.023438 39.785156 276.886719 39.6875 C 276.769531 39.550781 276.613281 39.492188 276.417969 39.492188 Z M 275.96875 41.679688 L 275.96875 47.5 L 276.867188 47.5 L 276.867188 41.679688 Z M 275.96875 41.679688 "/>
<path style=" stroke:none;fill-rule:nonzero;fill:rgb(69.803922%,85.098039%,100%);fill-opacity:1;" d="M 260.160156 137.625 L 292.660156 137.625 L 292.660156 112.625 L 260.160156 112.625 Z M 260.160156 137.625 "/>
<path style="fill:none;stroke-width:1;stroke-linecap:round;stroke-linejoin:round;stroke:rgb(0%,0%,0%);stroke-opacity:1;stroke-miterlimit:10;" d="M 224.128125 111.1 L 250.128125 111.1 L 250.128125 131.1 L 224.128125 131.1 Z M 224.128125 111.1 " transform="matrix(1.25,0,0,1.25,-20,-26.25)"/>
<path style=" stroke:none;fill-rule:nonzero;fill:rgb(0%,0%,0%);fill-opacity:1;" d="M 278.695312 127 L 278.695312 126.726562 C 277.894531 126.609375 277.699219 126.492188 277.699219 125.90625 L 277.699219 120.515625 C 277.699219 119.910156 277.933594 119.734375 278.695312 119.675781 L 278.695312 119.402344 L 274.886719 119.402344 L 274.886719 119.675781 C 275.667969 119.734375 275.882812 119.871094 275.882812 120.515625 L 275.882812 122.800781 L 273.167969 122.800781 L 273.167969 120.515625 C 273.167969 119.871094 273.382812 119.734375 274.183594 119.675781 L 274.183594 119.402344 L 270.394531 119.402344 L 270.394531 119.675781 C 271.15625 119.734375 271.351562 119.890625 271.351562 120.515625 L 271.351562 125.90625 C 271.351562 126.492188 271.175781 126.609375 270.394531 126.726562 L 270.394531 127 L 274.183594 127 L 274.183594 126.726562 C 273.363281 126.628906 273.167969 126.492188 273.167969 125.90625 L 273.167969 123.328125 L 275.882812 123.328125 L 275.882812 125.90625 C 275.882812 126.472656 275.707031 126.628906 274.886719 126.726562 L 274.886719 127 Z M 278.695312 127 "/>
<path style=" stroke:none;fill-rule:nonzero;fill:rgb(0%,0%,0%);fill-opacity:1;" d="M 282.46875 129.5 L 282.46875 129.011719 L 281.6875 129.011719 L 281.6875 125.671875 L 281.355469 125.671875 L 279.011719 129.011719 L 279.011719 129.5 L 281.101562 129.5 L 281.101562 130.75 L 281.6875 130.75 L 281.6875 129.5 Z M 281.101562 129.011719 L 279.304688 129.011719 L 281.101562 126.453125 Z M 281.101562 129.011719 "/>
<path style=" stroke:none;fill-rule:nonzero;fill:rgb(40%,74.901961%,100%);fill-opacity:1;" d="M 260.160156 91.25 L 292.660156 91.25 L 292.660156 66.25 L 260.160156 66.25 Z M 260.160156 91.25 "/>
<path style="fill:none;stroke-width:1;stroke-linecap:round;stroke-linejoin:round;stroke:rgb(0%,0%,0%);stroke-opacity:1;stroke-miterlimit:10;" d="M 224.128125 74 L 250.128125 74 L 250.128125 94 L 224.128125 94 Z M 224.128125 74 " transform="matrix(1.25,0,0,1.25,-20,-26.25)"/>
<path style=" stroke:none;fill-rule:nonzero;fill:rgb(0%,0%,0%);fill-opacity:1;" d="M 278.519531 76.855469 C 278.519531 74.53125 276.859375 72.851562 274.59375 72.851562 C 272.25 72.851562 270.550781 74.472656 270.550781 76.875 C 270.550781 79.199219 272.191406 80.839844 274.515625 80.839844 C 276.859375 80.839844 278.519531 79.199219 278.519531 76.855469 Z M 276.527344 76.933594 C 276.527344 79.257812 275.84375 80.46875 274.554688 80.46875 C 273.265625 80.46875 272.542969 79.277344 272.542969 76.914062 C 272.542969 74.550781 273.246094 73.222656 274.496094 73.222656 C 275.804688 73.222656 276.527344 74.53125 276.527344 76.933594 Z M 276.527344 76.933594 "/>
<path style=" stroke:none;fill-rule:nonzero;fill:rgb(0%,0%,0%);fill-opacity:1;" d="M 282.46875 83.125 L 282.46875 82.636719 L 281.6875 82.636719 L 281.6875 79.296875 L 281.355469 79.296875 L 279.011719 82.636719 L 279.011719 83.125 L 281.101562 83.125 L 281.101562 84.375 L 281.6875 84.375 L 281.6875 83.125 Z M 281.101562 82.636719 L 279.304688 82.636719 L 281.101562 80.078125 Z M 281.101562 82.636719 "/>
<path style=" stroke:none;fill-rule:nonzero;fill:rgb(0%,0%,0%);fill-opacity:1;" d="M 336.097656 11.347656 L 335.6875 15.78125 L 336.566406 15.78125 C 336.722656 15.46875 336.957031 15.214844 337.269531 15.058594 C 337.582031 14.882812 337.914062 14.804688 338.304688 14.804688 C 338.890625 14.804688 339.339844 14.980469 339.671875 15.332031 C 340.003906 15.683594 340.199219 16.171875 340.199219 16.816406 C 340.199219 17.382812 340.003906 17.851562 339.632812 18.203125 C 339.261719 18.574219 338.8125 18.75 338.246094 18.75 C 337.757812 18.75 337.328125 18.613281 337.015625 18.378906 C 336.664062 18.105469 336.449219 17.714844 336.410156 17.207031 L 335.492188 17.207031 C 335.550781 17.949219 335.863281 18.535156 336.429688 18.964844 C 336.917969 19.335938 337.523438 19.53125 338.226562 19.53125 C 339.027344 19.53125 339.691406 19.277344 340.238281 18.808594 C 340.804688 18.28125 341.097656 17.617188 341.097656 16.816406 C 341.097656 15.9375 340.863281 15.273438 340.375 14.765625 C 339.90625 14.296875 339.28125 14.0625 338.519531 14.0625 C 338.148438 14.0625 337.816406 14.101562 337.503906 14.238281 C 337.152344 14.375 336.859375 14.589844 336.644531 14.84375 L 336.585938 14.84375 L 336.859375 12.167969 L 340.785156 12.167969 L 340.785156 11.347656 Z M 336.097656 11.347656 "/>
<path style=" stroke:none;fill-rule:nonzero;fill:rgb(0%,0%,0%);fill-opacity:1;" d="M 339.480469 168.46875 C 339.285156 168.46875 339.128906 168.527344 338.992188 168.664062 C 338.855469 168.761719 338.796875 168.9375 338.796875 169.132812 C 338.796875 169.328125 338.855469 169.484375 338.992188 169.621094 C 339.128906 169.738281 339.285156 169.796875 339.480469 169.796875 C 339.675781 169.796875 339.832031 169.738281 339.949219 169.621094 C 340.085938 169.484375 340.164062 169.328125 340.164062 169.132812 C 340.164062 168.9375 340.085938 168.761719 339.949219 168.664062 C 339.832031 168.527344 339.675781 168.46875 339.480469 168.46875 Z M 339.03125 170.65625 L 339.03125 176.476562 L 339.929688 176.476562 L 339.929688 170.65625 Z M 339.03125 170.65625 "/>
<path style=" stroke:none;fill-rule:nonzero;fill:rgb(0%,0%,0%);fill-opacity:1;" d="M 339.746094 41.523438 C 339.375 41.523438 339.023438 41.621094 338.710938 41.796875 C 338.378906 41.972656 338.125 42.207031 337.929688 42.539062 L 337.929688 41.679688 L 337.03125 41.679688 L 337.03125 47.5 L 337.929688 47.5 L 337.929688 43.984375 C 337.96875 43.457031 338.125 43.046875 338.4375 42.734375 C 338.730469 42.441406 339.082031 42.285156 339.492188 42.285156 C 340.507812 42.285156 341.015625 42.851562 341.015625 43.984375 L 341.015625 47.5 L 341.914062 47.5 L 341.914062 43.925781 C 341.914062 42.324219 341.191406 41.523438 339.746094 41.523438 Z M 339.746094 41.523438 "/>
<path style=" stroke:none;fill-rule:nonzero;fill:rgb(69.803922%,85.098039%,100%);fill-opacity:1;" d="M 323.222656 137.625 L 355.722656 137.625 L 355.722656 112.625 L 323.222656 112.625 Z M 323.222656 137.625 "/>
<path style="fill:none;stroke-width:1;stroke-linecap:round;stroke-linejoin:round;stroke:rgb(0%,0%,0%);stroke-opacity:1;stroke-miterlimit:10;" d="M 274.578125 111.1 L 300.578125 111.1 L 300.578125 131.1 L 274.578125 131.1 Z M 274.578125 111.1 " transform="matrix(1.25,0,0,1.25,-20,-26.25)"/>
<path style=" stroke:none;fill-rule:nonzero;fill:rgb(0%,0%,0%);fill-opacity:1;" d="M 341.757812 127 L 341.757812 126.726562 C 340.957031 126.609375 340.761719 126.492188 340.761719 125.90625 L 340.761719 120.515625 C 340.761719 119.910156 340.996094 119.734375 341.757812 119.675781 L 341.757812 119.402344 L 337.949219 119.402344 L 337.949219 119.675781 C 338.730469 119.734375 338.945312 119.871094 338.945312 120.515625 L 338.945312 122.800781 L 336.230469 122.800781 L 336.230469 120.515625 C 336.230469 119.871094 336.445312 119.734375 337.246094 119.675781 L 337.246094 119.402344 L 333.457031 119.402344 L 333.457031 119.675781 C 334.21875 119.734375 334.414062 119.890625 334.414062 120.515625 L 334.414062 125.90625 C 334.414062 126.492188 334.238281 126.609375 333.457031 126.726562 L 333.457031 127 L 337.246094 127 L 337.246094 126.726562 C 336.425781 126.628906 336.230469 126.492188 336.230469 125.90625 L 336.230469 123.328125 L 338.945312 123.328125 L 338.945312 125.90625 C 338.945312 126.472656 338.769531 126.628906 337.949219 126.726562 L 337.949219 127 Z M 341.757812 127 "/>
<path style=" stroke:none;fill-rule:nonzero;fill:rgb(0%,0%,0%);fill-opacity:1;" d="M 345.257812 125.632812 L 345.199219 125.59375 C 345.082031 125.75 345.003906 125.789062 344.828125 125.789062 L 343.285156 125.789062 L 342.464844 127.566406 C 342.464844 127.566406 342.464844 127.585938 342.464844 127.605469 C 342.464844 127.644531 342.484375 127.664062 342.542969 127.664062 C 343.265625 127.664062 343.792969 127.898438 344.144531 128.191406 C 344.476562 128.445312 344.652344 128.835938 344.652344 129.304688 C 344.652344 129.949219 344.164062 130.574219 343.636719 130.574219 C 343.480469 130.574219 343.304688 130.515625 343.109375 130.339844 C 342.855469 130.144531 342.71875 130.105469 342.542969 130.105469 C 342.328125 130.105469 342.210938 130.203125 342.210938 130.398438 C 342.210938 130.671875 342.601562 130.847656 343.167969 130.847656 C 343.675781 130.847656 344.085938 130.75 344.4375 130.496094 C 344.945312 130.105469 345.179688 129.65625 345.179688 128.933594 C 345.179688 128.523438 345.101562 128.25 344.90625 127.976562 C 344.476562 127.390625 344.105469 127.214844 343.03125 127.019531 L 343.34375 126.375 L 344.789062 126.375 C 344.90625 126.375 344.964844 126.335938 344.984375 126.277344 Z M 345.257812 125.632812 "/>
<path style=" stroke:none;fill-rule:nonzero;fill:rgb(40%,74.901961%,100%);fill-opacity:1;" d="M 323.222656 91.25 L 355.722656 91.25 L 355.722656 66.25 L 323.222656 66.25 Z M 323.222656 91.25 "/>
<path style="fill:none;stroke-width:1;stroke-linecap:round;stroke-linejoin:round;stroke:rgb(0%,0%,0%);stroke-opacity:1;stroke-miterlimit:10;" d="M 274.578125 74 L 300.578125 74 L 300.578125 94 L 274.578125 94 Z M 274.578125 74 " transform="matrix(1.25,0,0,1.25,-20,-26.25)"/>
<path style=" stroke:none;fill-rule:nonzero;fill:rgb(0%,0%,0%);fill-opacity:1;" d="M 341.582031 76.855469 C 341.582031 74.53125 339.921875 72.851562 337.65625 72.851562 C 335.3125 72.851562 333.613281 74.472656 333.613281 76.875 C 333.613281 79.199219 335.253906 80.839844 337.578125 80.839844 C 339.921875 80.839844 341.582031 79.199219 341.582031 76.855469 Z M 339.589844 76.933594 C 339.589844 79.257812 338.90625 80.46875 337.617188 80.46875 C 336.328125 80.46875 335.605469 79.277344 335.605469 76.914062 C 335.605469 74.550781 336.308594 73.222656 337.558594 73.222656 C 338.867188 73.222656 339.589844 74.53125 339.589844 76.933594 Z M 339.589844 76.933594 "/>
<path style=" stroke:none;fill-rule:nonzero;fill:rgb(0%,0%,0%);fill-opacity:1;" d="M 345.257812 79.257812 L 345.199219 79.21875 C 345.082031 79.375 345.003906 79.414062 344.828125 79.414062 L 343.285156 79.414062 L 342.464844 81.191406 C 342.464844 81.191406 342.464844 81.210938 342.464844 81.230469 C 342.464844 81.269531 342.484375 81.289062 342.542969 81.289062 C 343.265625 81.289062 343.792969 81.523438 344.144531 81.816406 C 344.476562 82.070312 344.652344 82.460938 344.652344 82.929688 C 344.652344 83.574219 344.164062 84.199219 343.636719 84.199219 C 343.480469 84.199219 343.304688 84.140625 343.109375 83.964844 C 342.855469 83.769531 342.71875 83.730469 342.542969 83.730469 C 342.328125 83.730469 342.210938 83.828125 342.210938 84.023438 C 342.210938 84.296875 342.601562 84.472656 343.167969 84.472656 C 343.675781 84.472656 344.085938 84.375 344.4375 84.121094 C 344.945312 83.730469 345.179688 83.28125 345.179688 82.558594 C 345.179688 82.148438 345.101562 81.875 344.90625 81.601562 C 344.476562 81.015625 344.105469 80.839844 343.03125 80.644531 L 343.34375 80 L 344.789062 80 C 344.90625 80 344.964844 79.960938 344.984375 79.902344 Z M 345.257812 79.257812 "/>
<path style="fill:none;stroke-width:1;stroke-linecap:round;stroke-linejoin:round;stroke:rgb(0%,0%,0%);stroke-opacity:1;stroke-miterlimit:10;" d="M 199.80625 121.1 L 218.23125 121.1 " transform="matrix(1.25,0,0,1.25,-20,-26.25)"/>
<path style="fill:none;stroke-width:1;stroke-linecap:butt;stroke-linejoin:miter;stroke:rgb(0%,0%,0%);stroke-opacity:1;stroke-miterlimit:10;" d="M 222.23125 121.1 L 218.23125 121.1 M 218.23125 119.6 L 222.23125 121.1 L 218.23125 122.6 " transform="matrix(1.25,0,0,1.25,-20,-26.25)"/>
<path style="fill:none;stroke-width:1;stroke-linecap:round;stroke-linejoin:round;stroke:rgb(0%,0%,0%);stroke-opacity:1;stroke-miterlimit:10;" d="M 250.128125 121.1 L 268.68125 121.1 " transform="matrix(1.25,0,0,1.25,-20,-26.25)"/>
<path style="fill:none;stroke-width:1;stroke-linecap:butt;stroke-linejoin:miter;stroke:rgb(0%,0%,0%);stroke-opacity:1;stroke-miterlimit:10;" d="M 272.68125 121.1 L 268.68125 121.1 M 268.68125 119.6 L 272.68125 121.1 L 268.68125 122.6 " transform="matrix(1.25,0,0,1.25,-20,-26.25)"/>
<path style="fill:none;stroke-width:1;stroke-linecap:round;stroke-linejoin:round;stroke:rgb(0%,0%,0%);stroke-opacity:1;stroke-miterlimit:10;" d="M 237.128125 147.18125 L 237.128125 137 " transform="matrix(1.25,0,0,1.25,-20,-26.25)"/>
<path style="fill:none;stroke-width:1;stroke-linecap:butt;stroke-linejoin:miter;stroke:rgb(0%,0%,0%);stroke-opacity:1;stroke-miterlimit:10;" d="M 237.128125 133 L 237.128125 137 M 235.628125 137 L 237.128125 133 L 238.628125 137 " transform="matrix(1.25,0,0,1.25,-20,-26.25)"/>
<path style="fill:none;stroke-width:1;stroke-linecap:round;stroke-linejoin:round;stroke:rgb(0%,0%,0%);stroke-opacity:1;stroke-miterlimit:10;" d="M 237.128125 111.1 L 237.128125 99.9 " transform="matrix(1.25,0,0,1.25,-20,-26.25)"/>
<path style="fill:none;stroke-width:1;stroke-linecap:butt;stroke-linejoin:miter;stroke:rgb(0%,0%,0%);stroke-opacity:1;stroke-miterlimit:10;" d="M 237.128125 95.9 L 237.128125 99.9 M 235.628125 99.9 L 237.128125 95.9 L 238.628125 99.9 " transform="matrix(1.25,0,0,1.25,-20,-26.25)"/>
<path style="fill:none;stroke-width:1;stroke-linecap:round;stroke-linejoin:round;stroke:rgb(0%,0%,0%);stroke-opacity:1;stroke-miterlimit:10;" d="M 287.578125 147.18125 L 287.578125 137 " transform="matrix(1.25,0,0,1.25,-20,-26.25)"/>
<path style="fill:none;stroke-width:1;stroke-linecap:butt;stroke-linejoin:miter;stroke:rgb(0%,0%,0%);stroke-opacity:1;stroke-miterlimit:10;" d="M 287.578125 133 L 287.578125 137 M 286.078125 137 L 287.578125 133 L 289.078125 137 " transform="matrix(1.25,0,0,1.25,-20,-26.25)"/>
<path style="fill:none;stroke-width:1;stroke-linecap:round;stroke-linejoin:round;stroke:rgb(0%,0%,0%);stroke-opacity:1;stroke-miterlimit:10;" d="M 287.578125 111.1 L 287.578125 99.9 " transform="matrix(1.25,0,0,1.25,-20,-26.25)"/>
<path style="fill:none;stroke-width:1;stroke-linecap:butt;stroke-linejoin:miter;stroke:rgb(0%,0%,0%);stroke-opacity:1;stroke-miterlimit:10;" d="M 287.578125 95.9 L 287.578125 99.9 M 286.078125 99.9 L 287.578125 95.9 L 289.078125 99.9 " transform="matrix(1.25,0,0,1.25,-20,-26.25)"/>
<path style=" stroke:none;fill-rule:nonzero;fill:rgb(69.803922%,85.098039%,100%);fill-opacity:1;" d="M 386.285156 137.625 L 418.785156 137.625 L 418.785156 112.625 L 386.285156 112.625 Z M 386.285156 137.625 "/>
<path style="fill:none;stroke-width:1;stroke-linecap:round;stroke-linejoin:round;stroke:rgb(0%,0%,0%);stroke-opacity:1;stroke-miterlimit:10;" d="M 325.028125 111.1 L 351.028125 111.1 L 351.028125 131.1 L 325.028125 131.1 Z M 325.028125 111.1 " transform="matrix(1.25,0,0,1.25,-20,-26.25)"/>
<path style=" stroke:none;fill-rule:nonzero;fill:rgb(0%,0%,0%);fill-opacity:1;" d="M 404.820312 127 L 404.820312 126.726562 C 404.019531 126.609375 403.824219 126.492188 403.824219 125.90625 L 403.824219 120.515625 C 403.824219 119.910156 404.058594 119.734375 404.820312 119.675781 L 404.820312 119.402344 L 401.011719 119.402344 L 401.011719 119.675781 C 401.792969 119.734375 402.007812 119.871094 402.007812 120.515625 L 402.007812 122.800781 L 399.292969 122.800781 L 399.292969 120.515625 C 399.292969 119.871094 399.507812 119.734375 400.308594 119.675781 L 400.308594 119.402344 L 396.519531 119.402344 L 396.519531 119.675781 C 397.28125 119.734375 397.476562 119.890625 397.476562 120.515625 L 397.476562 125.90625 C 397.476562 126.492188 397.300781 126.609375 396.519531 126.726562 L 396.519531 127 L 400.308594 127 L 400.308594 126.726562 C 399.488281 126.628906 399.292969 126.492188 399.292969 125.90625 L 399.292969 123.328125 L 402.007812 123.328125 L 402.007812 125.90625 C 402.007812 126.472656 401.832031 126.628906 401.011719 126.726562 L 401.011719 127 Z M 404.820312 127 "/>
<path style=" stroke:none;fill-rule:nonzero;fill:rgb(0%,0%,0%);fill-opacity:1;" d="M 408.375 125.613281 C 407.339844 125.730469 406.753906 125.90625 406.109375 126.589844 C 405.582031 127.136719 405.289062 127.839844 405.289062 128.660156 C 405.289062 129.1875 405.425781 129.714844 405.640625 130.105469 C 405.914062 130.574219 406.382812 130.847656 406.96875 130.847656 C 407.457031 130.847656 407.886719 130.652344 408.160156 130.300781 C 408.414062 130.007812 408.550781 129.578125 408.550781 129.109375 C 408.550781 128.132812 408.003906 127.546875 407.125 127.546875 C 406.792969 127.546875 406.539062 127.585938 406.167969 127.878906 C 406.382812 126.746094 407.222656 125.925781 408.394531 125.730469 Z M 407.867188 129.34375 C 407.867188 130.105469 407.59375 130.652344 407.046875 130.652344 C 406.34375 130.652344 405.992188 129.890625 405.992188 128.757812 C 405.992188 128.074219 406.421875 127.878906 406.851562 127.878906 C 407.554688 127.878906 407.867188 128.386719 407.867188 129.34375 Z M 407.867188 129.34375 "/>
<path style=" stroke:none;fill-rule:nonzero;fill:rgb(40%,74.901961%,100%);fill-opacity:1;" d="M 386.285156 91.25 L 418.785156 91.25 L 418.785156 66.25 L 386.285156 66.25 Z M 386.285156 91.25 "/>
<path style="fill:none;stroke-width:1;stroke-linecap:round;stroke-linejoin:round;stroke:rgb(0%,0%,0%);stroke-opacity:1;stroke-miterlimit:10;" d="M 325.028125 74 L 351.028125 74 L 351.028125 94 L 325.028125 94 Z M 325.028125 74 " transform="matrix(1.25,0,0,1.25,-20,-26.25)"/>
<path style=" stroke:none;fill-rule:nonzero;fill:rgb(0%,0%,0%);fill-opacity:1;" d="M 404.644531 76.855469 C 404.644531 74.53125 402.984375 72.851562 400.71875 72.851562 C 398.375 72.851562 396.675781 74.472656 396.675781 76.875 C 396.675781 79.199219 398.316406 80.839844 400.640625 80.839844 C 402.984375 80.839844 404.644531 79.199219 404.644531 76.855469 Z M 402.652344 76.933594 C 402.652344 79.257812 401.96875 80.46875 400.679688 80.46875 C 399.390625 80.46875 398.667969 79.277344 398.667969 76.914062 C 398.667969 74.550781 399.371094 73.222656 400.621094 73.222656 C 401.929688 73.222656 402.652344 74.53125 402.652344 76.933594 Z M 402.652344 76.933594 "/>
<path style=" stroke:none;fill-rule:nonzero;fill:rgb(0%,0%,0%);fill-opacity:1;" d="M 408.375 79.238281 C 407.339844 79.355469 406.753906 79.53125 406.109375 80.214844 C 405.582031 80.761719 405.289062 81.464844 405.289062 82.285156 C 405.289062 82.8125 405.425781 83.339844 405.640625 83.730469 C 405.914062 84.199219 406.382812 84.472656 406.96875 84.472656 C 407.457031 84.472656 407.886719 84.277344 408.160156 83.925781 C 408.414062 83.632812 408.550781 83.203125 408.550781 82.734375 C 408.550781 81.757812 408.003906 81.171875 407.125 81.171875 C 406.792969 81.171875 406.539062 81.210938 406.167969 81.503906 C 406.382812 80.371094 407.222656 79.550781 408.394531 79.355469 Z M 407.867188 82.96875 C 407.867188 83.730469 407.59375 84.277344 407.046875 84.277344 C 406.34375 84.277344 405.992188 83.515625 405.992188 82.382812 C 405.992188 81.699219 406.421875 81.503906 406.851562 81.503906 C 407.554688 81.503906 407.867188 82.011719 407.867188 82.96875 Z M 407.867188 82.96875 "/>
<path style="fill:none;stroke-width:1;stroke-linecap:round;stroke-linejoin:round;stroke:rgb(0%,0%,0%);stroke-opacity:1;stroke-miterlimit:10;" d="M 300.578125 121.1 L 319.128125 121.1 " transform="matrix(1.25,0,0,1.25,-20,-26.25)"/>
<path style="fill:none;stroke-width:1;stroke-linecap:butt;stroke-linejoin:miter;stroke:rgb(0%,0%,0%);stroke-opacity:1;stroke-miterlimit:10;" d="M 323.128125 121.1 L 319.128125 121.1 M 319.128125 119.6 L 323.128125 121.1 L 319.128125 122.6 " transform="matrix(1.25,0,0,1.25,-20,-26.25)"/>
<path style="fill:none;stroke-width:1;stroke-linecap:round;stroke-linejoin:round;stroke:rgb(0%,0%,0%);stroke-opacity:1;stroke-miterlimit:10;" d="M 338.028125 111.1 L 338.028125 99.9 " transform="matrix(1.25,0,0,1.25,-20,-26.25)"/>
<path style="fill:none;stroke-width:1;stroke-linecap:butt;stroke-linejoin:miter;stroke:rgb(0%,0%,0%);stroke-opacity:1;stroke-miterlimit:10;" d="M 338.028125 95.9 L 338.028125 99.9 M 336.528125 99.9 L 338.028125 95.9 L 339.528125 99.9 " transform="matrix(1.25,0,0,1.25,-20,-26.25)"/>
<path style=" stroke:none;fill-rule:nonzero;fill:rgb(0%,0%,0%);fill-opacity:1;" d="M 402.65625 11.292969 C 401.738281 11.292969 401.015625 11.703125 400.488281 12.542969 C 399.980469 13.34375 399.726562 14.398438 399.726562 15.667969 C 399.726562 16.898438 399.960938 17.855469 400.429688 18.539062 C 400.917969 19.261719 401.660156 19.632812 402.636719 19.632812 C 403.417969 19.632812 404.0625 19.359375 404.589844 18.851562 C 405.097656 18.324219 405.351562 17.660156 405.351562 16.878906 C 405.351562 16.097656 405.117188 15.453125 404.648438 14.964844 C 404.179688 14.476562 403.554688 14.222656 402.792969 14.222656 C 402.324219 14.222656 401.914062 14.339844 401.542969 14.574219 C 401.171875 14.789062 400.878906 15.121094 400.683594 15.53125 L 400.625 15.53125 C 400.625 15.394531 400.625 15.296875 400.625 15.238281 C 400.625 14.339844 400.800781 13.578125 401.152344 12.992188 C 401.503906 12.367188 402.011719 12.054688 402.636719 12.054688 C 403.574219 12.054688 404.121094 12.503906 404.296875 13.441406 L 405.214844 13.441406 C 404.980469 11.996094 404.140625 11.292969 402.65625 11.292969 Z M 402.617188 14.984375 C 403.164062 14.984375 403.613281 15.160156 403.945312 15.511719 C 404.277344 15.863281 404.433594 16.3125 404.433594 16.878906 C 404.433594 17.445312 404.277344 17.933594 403.925781 18.304688 C 403.59375 18.675781 403.144531 18.851562 402.617188 18.851562 C 402.050781 18.851562 401.621094 18.675781 401.269531 18.285156 C 400.9375 17.933594 400.78125 17.464844 400.78125 16.898438 C 400.78125 16.332031 400.957031 15.882812 401.289062 15.53125 C 401.640625 15.160156 402.089844 14.984375 402.617188 14.984375 Z M 402.617188 14.984375 "/>
<path style="fill:none;stroke-width:1;stroke-linecap:round;stroke-linejoin:round;stroke:rgb(0%,0%,0%);stroke-opacity:1;stroke-miterlimit:10;" d="M 338.028125 147.18125 L 338.028125 137 " transform="matrix(1.25,0,0,1.25,-20,-26.25)"/>
<path style="fill:none;stroke-width:1;stroke-linecap:butt;stroke-linejoin:miter;stroke:rgb(0%,0%,0%);stroke-opacity:1;stroke-miterlimit:10;" d="M 338.028125 133 L 338.028125 137 M 336.528125 137 L 338.028125 133 L 339.528125 137 " transform="matrix(1.25,0,0,1.25,-20,-26.25)"/>
<path style=" stroke:none;fill-rule:nonzero;fill:rgb(0%,0%,0%);fill-opacity:1;" d="M 402.808594 170.5 C 402.4375 170.5 402.085938 170.597656 401.773438 170.773438 C 401.441406 170.949219 401.1875 171.183594 400.992188 171.515625 L 400.992188 170.65625 L 400.09375 170.65625 L 400.09375 176.476562 L 400.992188 176.476562 L 400.992188 172.960938 C 401.03125 172.433594 401.1875 172.023438 401.5 171.710938 C 401.792969 171.417969 402.144531 171.261719 402.554688 171.261719 C 403.570312 171.261719 404.078125 171.828125 404.078125 172.960938 L 404.078125 176.476562 L 404.976562 176.476562 L 404.976562 172.902344 C 404.976562 171.300781 404.253906 170.5 402.808594 170.5 Z M 402.808594 170.5 "/>
<path style=" stroke:none;fill-rule:nonzero;fill:rgb(0%,0%,0%);fill-opacity:1;" d="M 402.5 42.148438 C 401.660156 42.148438 400.996094 42.460938 400.507812 43.066406 C 400.019531 43.632812 399.765625 44.355469 399.765625 45.214844 C 399.765625 46.152344 400.019531 46.894531 400.546875 47.460938 C 401.035156 48.007812 401.71875 48.28125 402.539062 48.28125 C 403.300781 48.28125 403.90625 48.066406 404.394531 47.636719 C 404.785156 47.265625 405.058594 46.816406 405.175781 46.25 L 404.277344 46.25 C 404.140625 46.660156 403.945312 46.972656 403.691406 47.167969 C 403.398438 47.402344 403.007812 47.519531 402.539062 47.519531 C 401.992188 47.519531 401.542969 47.34375 401.230469 46.992188 C 400.917969 46.621094 400.761719 46.113281 400.703125 45.46875 L 405.292969 45.46875 C 405.273438 44.453125 405.058594 43.652344 404.628906 43.105469 C 404.140625 42.460938 403.4375 42.148438 402.5 42.148438 Z M 402.539062 42.910156 C 403.632812 42.910156 404.257812 43.515625 404.355469 44.765625 L 400.722656 44.765625 C 400.78125 44.199219 400.957031 43.75 401.289062 43.417969 C 401.601562 43.066406 402.011719 42.910156 402.539062 42.910156 Z M 402.539062 42.910156 "/>
</g>
</svg>
