<?xml version="1.0" encoding="UTF-8"?>
<svg xmlns="http://www.w3.org/2000/svg" xmlns:xlink="http://www.w3.org/1999/xlink" width="231pt" height="130pt" viewBox="0 0 231 130" version="1.1">
<g id="surface1">
<path style=" stroke:none;fill-rule:nonzero;fill:rgb(69.803922%,85.098039%,100%);fill-opacity:1;" d="M 70.351562 77.625 L 102.851562 77.625 L 102.851562 52.625 L 70.351562 52.625 Z M 70.351562 77.625 "/>
<path style="fill:none;stroke-width:1;stroke-linecap:round;stroke-linejoin:round;stroke:rgb(0%,0%,0%);stroke-opacity:1;stroke-miterlimit:10;" d="M 72.28125 111.1 L 98.28125 111.1 L 98.28125 131.1 L 72.28125 131.1 Z M 72.28125 111.1 " transform="matrix(1.25,0,0,1.25,-20,-86.25)"/>
<path style=" stroke:none;fill-rule:nonzero;fill:rgb(0%,0%,0%);fill-opacity:1;" d="M 83.574219 65.671875 C 82.96875 66.433594 82.832031 66.570312 82.65625 66.570312 C 82.539062 66.570312 82.460938 66.492188 82.460938 66.375 C 82.460938 66.238281 82.65625 65.554688 82.832031 64.96875 C 83.183594 63.914062 83.378906 63.074219 83.378906 62.800781 C 83.378906 62.371094 83.164062 62.039062 82.65625 62.039062 C 81.953125 62.039062 81.074219 62.761719 80.058594 64.421875 L 81.425781 59.382812 L 81.347656 59.324219 C 80.683594 59.460938 80.253906 59.539062 79.570312 59.617188 L 79.570312 59.792969 L 79.882812 59.792969 C 80.078125 59.792969 80.351562 59.871094 80.351562 60.066406 C 80.351562 60.222656 80.292969 60.417969 80.195312 60.769531 L 78.554688 67 L 79.394531 67 C 79.84375 65.261719 80.019531 64.871094 80.46875 64.1875 C 81.054688 63.289062 81.777344 62.605469 82.1875 62.605469 C 82.441406 62.605469 82.5 62.722656 82.5 62.898438 C 82.5 62.9375 82.460938 63.09375 82.421875 63.269531 L 81.796875 65.59375 C 81.660156 66.140625 81.582031 66.492188 81.582031 66.628906 C 81.582031 66.921875 81.777344 67.097656 82.070312 67.097656 C 82.65625 67.097656 83.027344 66.804688 83.710938 65.828125 Z M 83.574219 65.671875 "/>
<path style=" stroke:none;fill-rule:nonzero;fill:rgb(0%,0%,0%);fill-opacity:1;" d="M 86.191406 67.546875 L 85.585938 67.546875 L 85.800781 66.765625 C 85.800781 66.746094 85.800781 66.707031 85.800781 66.707031 C 85.800781 66.667969 85.78125 66.648438 85.742188 66.648438 C 85.703125 66.648438 85.664062 66.667969 85.625 66.726562 C 85.351562 67.136719 84.863281 67.488281 84.628906 67.546875 C 84.453125 67.585938 84.394531 67.644531 84.394531 67.742188 C 84.394531 67.742188 84.394531 67.761719 84.394531 67.78125 L 84.960938 67.78125 L 84.375 70.007812 C 84.316406 70.242188 84.257812 70.476562 84.257812 70.554688 C 84.257812 70.75 84.394531 70.828125 84.589844 70.828125 C 84.980469 70.828125 85.214844 70.613281 85.664062 69.929688 L 85.566406 69.871094 C 85.195312 70.339844 85.078125 70.457031 84.960938 70.457031 C 84.902344 70.457031 84.84375 70.4375 84.84375 70.339844 C 84.84375 70.320312 84.863281 70.261719 84.863281 70.242188 L 85.507812 67.78125 L 86.152344 67.78125 Z M 86.191406 67.546875 "/>
<path style=" stroke:none;fill-rule:nonzero;fill:rgb(0%,0%,0%);fill-opacity:1;" d="M 90.480469 69.109375 L 90.480469 68.601562 L 86.691406 68.601562 L 86.691406 69.109375 Z M 90.480469 69.109375 "/>
<path style=" stroke:none;fill-rule:nonzero;fill:rgb(0%,0%,0%);fill-opacity:1;" d="M 94.058594 70.75 L 94.058594 70.632812 C 93.492188 70.632812 93.355469 70.496094 93.355469 70.183594 L 93.355469 65.710938 L 93.277344 65.671875 L 91.949219 66.355469 L 91.949219 66.472656 L 92.144531 66.394531 C 92.28125 66.335938 92.398438 66.296875 92.476562 66.296875 C 92.632812 66.296875 92.710938 66.414062 92.710938 66.667969 L 92.710938 70.046875 C 92.710938 70.457031 92.554688 70.613281 91.988281 70.632812 L 91.988281 70.75 Z M 94.058594 70.75 "/>
<path style=" stroke:none;fill-rule:nonzero;fill:rgb(69.803922%,85.098039%,100%);fill-opacity:1;" d="M 133.617188 77.625 L 166.117188 77.625 L 166.117188 52.625 L 133.617188 52.625 Z M 133.617188 77.625 "/>
<path style="fill:none;stroke-width:1;stroke-linecap:round;stroke-linejoin:round;stroke:rgb(0%,0%,0%);stroke-opacity:1;stroke-miterlimit:10;" d="M 122.89375 111.1 L 148.89375 111.1 L 148.89375 131.1 L 122.89375 131.1 Z M 122.89375 111.1 " transform="matrix(1.25,0,0,1.25,-20,-86.25)"/>
<path style=" stroke:none;fill-rule:nonzero;fill:rgb(0%,0%,0%);fill-opacity:1;" d="M 151.074219 65.046875 C 150.46875 65.808594 150.332031 65.945312 150.15625 65.945312 C 150.039062 65.945312 149.960938 65.867188 149.960938 65.75 C 149.960938 65.613281 150.15625 64.929688 150.332031 64.34375 C 150.683594 63.289062 150.878906 62.449219 150.878906 62.175781 C 150.878906 61.746094 150.664062 61.414062 150.15625 61.414062 C 149.453125 61.414062 148.574219 62.136719 147.558594 63.796875 L 148.925781 58.757812 L 148.847656 58.699219 C 148.183594 58.835938 147.753906 58.914062 147.070312 58.992188 L 147.070312 59.167969 L 147.382812 59.167969 C 147.578125 59.167969 147.851562 59.246094 147.851562 59.441406 C 147.851562 59.597656 147.792969 59.792969 147.695312 60.144531 L 146.054688 66.375 L 146.894531 66.375 C 147.34375 64.636719 147.519531 64.246094 147.96875 63.5625 C 148.554688 62.664062 149.277344 61.980469 149.6875 61.980469 C 149.941406 61.980469 150 62.097656 150 62.273438 C 150 62.3125 149.960938 62.46875 149.921875 62.644531 L 149.296875 64.96875 C 149.160156 65.515625 149.082031 65.867188 149.082031 66.003906 C 149.082031 66.296875 149.277344 66.472656 149.570312 66.472656 C 150.15625 66.472656 150.527344 66.179688 151.210938 65.203125 Z M 151.074219 65.046875 "/>
<path style=" stroke:none;fill-rule:nonzero;fill:rgb(0%,0%,0%);fill-opacity:1;" d="M 154.0625 67.625 L 153.359375 67.625 L 153.59375 66.726562 C 153.613281 66.707031 153.613281 66.667969 153.613281 66.667969 C 153.613281 66.628906 153.574219 66.589844 153.535156 66.589844 C 153.496094 66.589844 153.4375 66.628906 153.398438 66.667969 C 153.085938 67.15625 152.519531 67.585938 152.246094 67.644531 C 152.03125 67.683594 151.953125 67.761719 151.953125 67.859375 C 151.953125 67.859375 151.953125 67.878906 151.972656 67.917969 L 152.617188 67.917969 L 151.933594 70.496094 C 151.875 70.789062 151.796875 71.042969 151.796875 71.140625 C 151.796875 71.375 151.972656 71.472656 152.207031 71.472656 C 152.65625 71.472656 152.929688 71.21875 153.457031 70.417969 L 153.339844 70.359375 C 152.910156 70.90625 152.773438 71.042969 152.636719 71.042969 C 152.558594 71.042969 152.5 71.023438 152.5 70.90625 C 152.5 70.867188 152.5 70.808594 152.519531 70.789062 L 153.28125 67.917969 L 154.003906 67.917969 Z M 154.0625 67.625 "/>
<path style=" stroke:none;fill-rule:nonzero;fill:rgb(69.803922%,85.098039%,100%);fill-opacity:1;" d="M 197.257812 77.625 L 230.582031 77.625 L 230.582031 52.625 L 197.257812 52.625 Z M 197.257812 77.625 "/>
<path style="fill:none;stroke-width:1;stroke-linecap:round;stroke-linejoin:round;stroke:rgb(0%,0%,0%);stroke-opacity:1;stroke-miterlimit:10;" d="M 173.80625 111.1 L 200.465625 111.1 L 200.465625 131.1 L 173.80625 131.1 Z M 173.80625 111.1 " transform="matrix(1.25,0,0,1.25,-20,-86.25)"/>
<path style=" stroke:none;fill-rule:nonzero;fill:rgb(0%,0%,0%);fill-opacity:1;" d="M 210.894531 65.671875 C 210.289062 66.433594 210.152344 66.570312 209.976562 66.570312 C 209.859375 66.570312 209.78125 66.492188 209.78125 66.375 C 209.78125 66.238281 209.976562 65.554688 210.152344 64.96875 C 210.503906 63.914062 210.699219 63.074219 210.699219 62.800781 C 210.699219 62.371094 210.484375 62.039062 209.976562 62.039062 C 209.273438 62.039062 208.394531 62.761719 207.378906 64.421875 L 208.746094 59.382812 L 208.667969 59.324219 C 208.003906 59.460938 207.574219 59.539062 206.890625 59.617188 L 206.890625 59.792969 L 207.203125 59.792969 C 207.398438 59.792969 207.671875 59.871094 207.671875 60.066406 C 207.671875 60.222656 207.613281 60.417969 207.515625 60.769531 L 205.875 67 L 206.714844 67 C 207.164062 65.261719 207.339844 64.871094 207.789062 64.1875 C 208.375 63.289062 209.097656 62.605469 209.507812 62.605469 C 209.761719 62.605469 209.820312 62.722656 209.820312 62.898438 C 209.820312 62.9375 209.78125 63.09375 209.742188 63.269531 L 209.117188 65.59375 C 208.980469 66.140625 208.902344 66.492188 208.902344 66.628906 C 208.902344 66.921875 209.097656 67.097656 209.390625 67.097656 C 209.976562 67.097656 210.347656 66.804688 211.03125 65.828125 Z M 210.894531 65.671875 "/>
<path style=" stroke:none;fill-rule:nonzero;fill:rgb(0%,0%,0%);fill-opacity:1;" d="M 213.511719 67.546875 L 212.90625 67.546875 L 213.121094 66.765625 C 213.121094 66.746094 213.121094 66.707031 213.121094 66.707031 C 213.121094 66.667969 213.101562 66.648438 213.0625 66.648438 C 213.023438 66.648438 212.984375 66.667969 212.945312 66.726562 C 212.671875 67.136719 212.183594 67.488281 211.949219 67.546875 C 211.773438 67.585938 211.714844 67.644531 211.714844 67.742188 C 211.714844 67.742188 211.714844 67.761719 211.714844 67.78125 L 212.28125 67.78125 L 211.695312 70.007812 C 211.636719 70.242188 211.578125 70.476562 211.578125 70.554688 C 211.578125 70.75 211.714844 70.828125 211.910156 70.828125 C 212.300781 70.828125 212.535156 70.613281 212.984375 69.929688 L 212.886719 69.871094 C 212.515625 70.339844 212.398438 70.457031 212.28125 70.457031 C 212.222656 70.457031 212.164062 70.4375 212.164062 70.339844 C 212.164062 70.320312 212.183594 70.261719 212.183594 70.242188 L 212.828125 67.78125 L 213.472656 67.78125 Z M 213.511719 67.546875 "/>
<path style=" stroke:none;fill-rule:nonzero;fill:rgb(0%,0%,0%);fill-opacity:1;" d="M 217.800781 69.109375 L 217.800781 68.601562 L 216.140625 68.601562 L 216.140625 66.960938 L 215.652344 66.960938 L 215.652344 68.601562 L 214.011719 68.601562 L 214.011719 69.109375 L 215.652344 69.109375 L 215.652344 70.75 L 216.140625 70.75 L 216.140625 69.109375 Z M 217.800781 69.109375 "/>
<path style=" stroke:none;fill-rule:nonzero;fill:rgb(0%,0%,0%);fill-opacity:1;" d="M 221.378906 70.75 L 221.378906 70.632812 C 220.8125 70.632812 220.675781 70.496094 220.675781 70.183594 L 220.675781 65.710938 L 220.597656 65.671875 L 219.269531 66.355469 L 219.269531 66.472656 L 219.464844 66.394531 C 219.601562 66.335938 219.71875 66.296875 219.796875 66.296875 C 219.953125 66.296875 220.03125 66.414062 220.03125 66.667969 L 220.03125 70.046875 C 220.03125 70.457031 219.875 70.613281 219.308594 70.632812 L 219.308594 70.75 Z M 221.378906 70.75 "/>
<path style=" stroke:none;fill-rule:nonzero;fill:rgb(40%,74.901961%,100%);fill-opacity:1;" d="M 70.351562 31.25 L 102.851562 31.25 L 102.851562 6.25 L 70.351562 6.25 Z M 70.351562 31.25 "/>
<path style="fill:none;stroke-width:1;stroke-linecap:round;stroke-linejoin:round;stroke:rgb(0%,0%,0%);stroke-opacity:1;stroke-miterlimit:10;" d="M 72.28125 74 L 98.28125 74 L 98.28125 94 L 72.28125 94 Z M 72.28125 74 " transform="matrix(1.25,0,0,1.25,-20,-86.25)"/>
<path style=" stroke:none;fill-rule:nonzero;fill:rgb(0%,0%,0%);fill-opacity:1;" d="M 79.335938 16.640625 C 79.179688 15.859375 79.042969 15.664062 78.769531 15.664062 C 78.496094 15.664062 78.125 15.742188 77.441406 15.996094 L 77.324219 16.035156 L 77.363281 16.210938 L 77.558594 16.152344 C 77.773438 16.09375 77.910156 16.074219 77.988281 16.074219 C 78.28125 16.074219 78.359375 16.171875 78.515625 16.835938 L 78.828125 18.242188 L 77.910156 19.550781 C 77.675781 19.882812 77.460938 20.097656 77.324219 20.097656 C 77.265625 20.097656 77.148438 20.058594 77.03125 20 C 76.894531 19.921875 76.777344 19.863281 76.679688 19.863281 C 76.464844 19.863281 76.289062 20.058594 76.289062 20.273438 C 76.289062 20.566406 76.503906 20.742188 76.855469 20.742188 C 77.207031 20.742188 77.441406 20.644531 77.929688 19.980469 L 78.925781 18.652344 L 79.238281 19.980469 C 79.375 20.546875 79.550781 20.742188 79.902344 20.742188 C 80.332031 20.742188 80.625 20.488281 81.289062 19.472656 L 81.113281 19.355469 C 81.015625 19.472656 80.976562 19.550781 80.878906 19.6875 C 80.625 20.019531 80.488281 20.136719 80.351562 20.136719 C 80.195312 20.136719 80.097656 19.980469 80.019531 19.667969 L 79.648438 18.164062 C 79.589844 17.890625 79.550781 17.734375 79.550781 17.65625 C 80.058594 16.796875 80.46875 16.289062 80.664062 16.289062 C 80.9375 16.289062 81.035156 16.484375 81.25 16.484375 C 81.464844 16.484375 81.621094 16.308594 81.621094 16.074219 C 81.621094 15.839844 81.445312 15.664062 81.171875 15.664062 C 80.683594 15.664062 80.253906 16.074219 79.472656 17.265625 Z M 79.335938 16.640625 "/>
<path style=" stroke:none;fill-rule:nonzero;fill:rgb(0%,0%,0%);fill-opacity:1;" d="M 83.820312 21.171875 L 83.214844 21.171875 L 83.429688 20.390625 C 83.429688 20.371094 83.429688 20.332031 83.429688 20.332031 C 83.429688 20.292969 83.410156 20.273438 83.371094 20.273438 C 83.332031 20.273438 83.292969 20.292969 83.253906 20.351562 C 82.980469 20.761719 82.492188 21.113281 82.257812 21.171875 C 82.082031 21.210938 82.023438 21.269531 82.023438 21.367188 C 82.023438 21.367188 82.023438 21.386719 82.023438 21.40625 L 82.589844 21.40625 L 82.003906 23.632812 C 81.945312 23.867188 81.886719 24.101562 81.886719 24.179688 C 81.886719 24.375 82.023438 24.453125 82.21875 24.453125 C 82.609375 24.453125 82.84375 24.238281 83.292969 23.554688 L 83.195312 23.496094 C 82.824219 23.964844 82.707031 24.082031 82.589844 24.082031 C 82.53125 24.082031 82.472656 24.0625 82.472656 23.964844 C 82.472656 23.945312 82.492188 23.886719 82.492188 23.867188 L 83.136719 21.40625 L 83.78125 21.40625 Z M 83.820312 21.171875 "/>
<path style=" stroke:none;fill-rule:nonzero;fill:rgb(0%,0%,0%);fill-opacity:1;" d="M 88.113281 22.734375 L 88.113281 22.226562 L 84.324219 22.226562 L 84.324219 22.734375 Z M 88.113281 22.734375 "/>
<path style=" stroke:none;fill-rule:nonzero;fill:rgb(0%,0%,0%);fill-opacity:1;" d="M 91.691406 24.375 L 91.691406 24.257812 C 91.125 24.257812 90.988281 24.121094 90.988281 23.808594 L 90.988281 19.335938 L 90.910156 19.296875 L 89.582031 19.980469 L 89.582031 20.097656 L 89.777344 20.019531 C 89.914062 19.960938 90.03125 19.921875 90.109375 19.921875 C 90.265625 19.921875 90.34375 20.039062 90.34375 20.292969 L 90.34375 23.671875 C 90.34375 24.082031 90.1875 24.238281 89.621094 24.257812 L 89.621094 24.375 Z M 91.691406 24.375 "/>
<path style=" stroke:none;fill-rule:nonzero;fill:rgb(40%,74.901961%,100%);fill-opacity:1;" d="M 133.617188 31.25 L 166.117188 31.25 L 166.117188 6.25 L 133.617188 6.25 Z M 133.617188 31.25 "/>
<path style="fill:none;stroke-width:1;stroke-linecap:round;stroke-linejoin:round;stroke:rgb(0%,0%,0%);stroke-opacity:1;stroke-miterlimit:10;" d="M 122.89375 74 L 148.89375 74 L 148.89375 94 L 122.89375 94 Z M 122.89375 74 " transform="matrix(1.25,0,0,1.25,-20,-86.25)"/>
<path style=" stroke:none;fill-rule:nonzero;fill:rgb(0%,0%,0%);fill-opacity:1;" d="M 149.0625 16.640625 C 148.90625 15.859375 148.769531 15.664062 148.496094 15.664062 C 148.222656 15.664062 147.851562 15.742188 147.167969 15.996094 L 147.050781 16.035156 L 147.089844 16.210938 L 147.285156 16.152344 C 147.5 16.09375 147.636719 16.074219 147.714844 16.074219 C 148.007812 16.074219 148.085938 16.171875 148.242188 16.835938 L 148.554688 18.242188 L 147.636719 19.550781 C 147.402344 19.882812 147.1875 20.097656 147.050781 20.097656 C 146.992188 20.097656 146.875 20.058594 146.757812 20 C 146.621094 19.921875 146.503906 19.863281 146.40625 19.863281 C 146.191406 19.863281 146.015625 20.058594 146.015625 20.273438 C 146.015625 20.566406 146.230469 20.742188 146.582031 20.742188 C 146.933594 20.742188 147.167969 20.644531 147.65625 19.980469 L 148.652344 18.652344 L 148.964844 19.980469 C 149.101562 20.546875 149.277344 20.742188 149.628906 20.742188 C 150.058594 20.742188 150.351562 20.488281 151.015625 19.472656 L 150.839844 19.355469 C 150.742188 19.472656 150.703125 19.550781 150.605469 19.6875 C 150.351562 20.019531 150.214844 20.136719 150.078125 20.136719 C 149.921875 20.136719 149.824219 19.980469 149.746094 19.667969 L 149.375 18.164062 C 149.316406 17.890625 149.277344 17.734375 149.277344 17.65625 C 149.785156 16.796875 150.195312 16.289062 150.390625 16.289062 C 150.664062 16.289062 150.761719 16.484375 150.976562 16.484375 C 151.191406 16.484375 151.347656 16.308594 151.347656 16.074219 C 151.347656 15.839844 151.171875 15.664062 150.898438 15.664062 C 150.410156 15.664062 149.980469 16.074219 149.199219 17.265625 Z M 149.0625 16.640625 "/>
<path style=" stroke:none;fill-rule:nonzero;fill:rgb(0%,0%,0%);fill-opacity:1;" d="M 153.546875 21.171875 L 152.941406 21.171875 L 153.15625 20.390625 C 153.15625 20.371094 153.15625 20.332031 153.15625 20.332031 C 153.15625 20.292969 153.136719 20.273438 153.097656 20.273438 C 153.058594 20.273438 153.019531 20.292969 152.980469 20.351562 C 152.707031 20.761719 152.21875 21.113281 151.984375 21.171875 C 151.808594 21.210938 151.75 21.269531 151.75 21.367188 C 151.75 21.367188 151.75 21.386719 151.75 21.40625 L 152.316406 21.40625 L 151.730469 23.632812 C 151.671875 23.867188 151.613281 24.101562 151.613281 24.179688 C 151.613281 24.375 151.75 24.453125 151.945312 24.453125 C 152.335938 24.453125 152.570312 24.238281 153.019531 23.554688 L 152.921875 23.496094 C 152.550781 23.964844 152.433594 24.082031 152.316406 24.082031 C 152.257812 24.082031 152.199219 24.0625 152.199219 23.964844 C 152.199219 23.945312 152.21875 23.886719 152.21875 23.867188 L 152.863281 21.40625 L 153.507812 21.40625 Z M 153.546875 21.171875 "/>
<path style=" stroke:none;fill-rule:nonzero;fill:rgb(40%,74.901961%,100%);fill-opacity:1;" d="M 197.257812 31.25 L 229.757812 31.25 L 229.757812 6.25 L 197.257812 6.25 Z M 197.257812 31.25 "/>
<path style="fill:none;stroke-width:1;stroke-linecap:round;stroke-linejoin:round;stroke:rgb(0%,0%,0%);stroke-opacity:1;stroke-miterlimit:10;" d="M 173.80625 74 L 199.80625 74 L 199.80625 94 L 173.80625 94 Z M 173.80625 74 " transform="matrix(1.25,0,0,1.25,-20,-86.25)"/>
<path style=" stroke:none;fill-rule:nonzero;fill:rgb(0%,0%,0%);fill-opacity:1;" d="M 208.296875 16.640625 C 208.140625 15.859375 208.003906 15.664062 207.730469 15.664062 C 207.457031 15.664062 207.085938 15.742188 206.402344 15.996094 L 206.285156 16.035156 L 206.324219 16.210938 L 206.519531 16.152344 C 206.734375 16.09375 206.871094 16.074219 206.949219 16.074219 C 207.242188 16.074219 207.320312 16.171875 207.476562 16.835938 L 207.789062 18.242188 L 206.871094 19.550781 C 206.636719 19.882812 206.421875 20.097656 206.285156 20.097656 C 206.226562 20.097656 206.109375 20.058594 205.992188 20 C 205.855469 19.921875 205.738281 19.863281 205.640625 19.863281 C 205.425781 19.863281 205.25 20.058594 205.25 20.273438 C 205.25 20.566406 205.464844 20.742188 205.816406 20.742188 C 206.167969 20.742188 206.402344 20.644531 206.890625 19.980469 L 207.886719 18.652344 L 208.199219 19.980469 C 208.335938 20.546875 208.511719 20.742188 208.863281 20.742188 C 209.292969 20.742188 209.585938 20.488281 210.25 19.472656 L 210.074219 19.355469 C 209.976562 19.472656 209.9375 19.550781 209.839844 19.6875 C 209.585938 20.019531 209.449219 20.136719 209.3125 20.136719 C 209.15625 20.136719 209.058594 19.980469 208.980469 19.667969 L 208.609375 18.164062 C 208.550781 17.890625 208.511719 17.734375 208.511719 17.65625 C 209.019531 16.796875 209.429688 16.289062 209.625 16.289062 C 209.898438 16.289062 209.996094 16.484375 210.210938 16.484375 C 210.425781 16.484375 210.582031 16.308594 210.582031 16.074219 C 210.582031 15.839844 210.40625 15.664062 210.132812 15.664062 C 209.644531 15.664062 209.214844 16.074219 208.433594 17.265625 Z M 208.296875 16.640625 "/>
<path style=" stroke:none;fill-rule:nonzero;fill:rgb(0%,0%,0%);fill-opacity:1;" d="M 212.78125 21.171875 L 212.175781 21.171875 L 212.390625 20.390625 C 212.390625 20.371094 212.390625 20.332031 212.390625 20.332031 C 212.390625 20.292969 212.371094 20.273438 212.332031 20.273438 C 212.292969 20.273438 212.253906 20.292969 212.214844 20.351562 C 211.941406 20.761719 211.453125 21.113281 211.21875 21.171875 C 211.042969 21.210938 210.984375 21.269531 210.984375 21.367188 C 210.984375 21.367188 210.984375 21.386719 210.984375 21.40625 L 211.550781 21.40625 L 210.964844 23.632812 C 210.90625 23.867188 210.847656 24.101562 210.847656 24.179688 C 210.847656 24.375 210.984375 24.453125 211.179688 24.453125 C 211.570312 24.453125 211.804688 24.238281 212.253906 23.554688 L 212.15625 23.496094 C 211.785156 23.964844 211.667969 24.082031 211.550781 24.082031 C 211.492188 24.082031 211.433594 24.0625 211.433594 23.964844 C 211.433594 23.945312 211.453125 23.886719 211.453125 23.867188 L 212.097656 21.40625 L 212.742188 21.40625 Z M 212.78125 21.171875 "/>
<path style=" stroke:none;fill-rule:nonzero;fill:rgb(0%,0%,0%);fill-opacity:1;" d="M 217.074219 22.734375 L 217.074219 22.226562 L 215.414062 22.226562 L 215.414062 20.585938 L 214.925781 20.585938 L 214.925781 22.226562 L 213.285156 22.226562 L 213.285156 22.734375 L 214.925781 22.734375 L 214.925781 24.375 L 215.414062 24.375 L 215.414062 22.734375 Z M 217.074219 22.734375 "/>
<path style=" stroke:none;fill-rule:nonzero;fill:rgb(0%,0%,0%);fill-opacity:1;" d="M 220.652344 24.375 L 220.652344 24.257812 C 220.085938 24.257812 219.949219 24.121094 219.949219 23.808594 L 219.949219 19.335938 L 219.871094 19.296875 L 218.542969 19.980469 L 218.542969 20.097656 L 218.738281 20.019531 C 218.875 19.960938 218.992188 19.921875 219.070312 19.921875 C 219.226562 19.921875 219.304688 20.039062 219.304688 20.292969 L 219.304688 23.671875 C 219.304688 24.082031 219.148438 24.238281 218.582031 24.257812 L 218.582031 24.375 Z M 220.652344 24.375 "/>
<path style="fill:none;stroke-width:1;stroke-linecap:round;stroke-linejoin:round;stroke:rgb(0%,0%,0%);stroke-opacity:1;stroke-miterlimit:10;" d="M 98.28125 121.1 L 116.99375 121.1 " transform="matrix(1.25,0,0,1.25,-20,-86.25)"/>
<path style="fill:none;stroke-width:1;stroke-linecap:butt;stroke-linejoin:miter;stroke:rgb(0%,0%,0%);stroke-opacity:1;stroke-miterlimit:10;" d="M 120.99375 121.1 L 116.99375 121.1 M 116.99375 119.6 L 120.99375 121.1 L 116.99375 122.6 " transform="matrix(1.25,0,0,1.25,-20,-86.25)"/>
<path style="fill:none;stroke-width:1;stroke-linecap:round;stroke-linejoin:round;stroke:rgb(0%,0%,0%);stroke-opacity:1;stroke-miterlimit:10;" d="M 148.89375 121.1 L 167.90625 121.1 " transform="matrix(1.25,0,0,1.25,-20,-86.25)"/>
<path style="fill:none;stroke-width:1;stroke-linecap:butt;stroke-linejoin:miter;stroke:rgb(0%,0%,0%);stroke-opacity:1;stroke-miterlimit:10;" d="M 171.90625 121.1 L 167.90625 121.1 M 167.90625 119.6 L 171.90625 121.1 L 167.90625 122.6 " transform="matrix(1.25,0,0,1.25,-20,-86.25)"/>
<path style="fill:none;stroke-width:1;stroke-linecap:round;stroke-linejoin:round;stroke:rgb(0%,0%,0%);stroke-opacity:1;stroke-miterlimit:10;" d="M 85.28125 111.1 L 85.28125 99.9 " transform="matrix(1.25,0,0,1.25,-20,-86.25)"/>
<path style="fill:none;stroke-width:1;stroke-linecap:butt;stroke-linejoin:miter;stroke:rgb(0%,0%,0%);stroke-opacity:1;stroke-miterlimit:10;" d="M 85.28125 95.9 L 85.28125 99.9 M 83.78125 99.9 L 85.28125 95.9 L 86.78125 99.9 " transform="matrix(1.25,0,0,1.25,-20,-86.25)"/>
<path style="fill:none;stroke-width:1;stroke-linecap:round;stroke-linejoin:round;stroke:rgb(0%,0%,0%);stroke-opacity:1;stroke-miterlimit:10;" d="M 135.89375 111.1 L 135.89375 99.9 " transform="matrix(1.25,0,0,1.25,-20,-86.25)"/>
<path style="fill:none;stroke-width:1;stroke-linecap:butt;stroke-linejoin:miter;stroke:rgb(0%,0%,0%);stroke-opacity:1;stroke-miterlimit:10;" d="M 135.89375 95.9 L 135.89375 99.9 M 134.39375 99.9 L 135.89375 95.9 L 137.39375 99.9 " transform="matrix(1.25,0,0,1.25,-20,-86.25)"/>
<path style="fill:none;stroke-width:1;stroke-linecap:round;stroke-linejoin:round;stroke:rgb(0%,0%,0%);stroke-opacity:1;stroke-miterlimit:10;" d="M 187.046875 111.1 L 186.95 99.9 " transform="matrix(1.25,0,0,1.25,-20,-86.25)"/>
<path style="fill:none;stroke-width:1;stroke-linecap:butt;stroke-linejoin:miter;stroke:rgb(0%,0%,0%);stroke-opacity:1;stroke-miterlimit:10;" d="M 186.909375 95.9 L 186.95 99.9 M 185.45 99.9125 L 186.909375 95.9 L 188.45 99.8875 " transform="matrix(1.25,0,0,1.25,-20,-86.25)"/>
<path style=" stroke:none;fill-rule:nonzero;fill:rgb(0%,0%,0%);fill-opacity:1;" d="M 16.210938 66.941406 L 16.210938 63.113281 L 14.433594 63.113281 C 14.785156 62.722656 15.117188 62.234375 15.46875 61.6875 L 15.46875 61.082031 L 12.851562 61.082031 C 12.96875 60.867188 13.085938 60.613281 13.164062 60.359375 L 12.363281 60.261719 C 11.972656 61.296875 11.230469 62.15625 10.136719 62.878906 L 10.605469 63.503906 C 10.742188 63.40625 10.878906 63.308594 11.035156 63.191406 L 11.035156 63.835938 L 15.429688 63.835938 L 15.429688 64.695312 L 10.878906 64.695312 L 10.878906 65.398438 L 15.429688 65.398438 L 15.429688 66.238281 L 10.625 66.238281 L 10.625 66.941406 Z M 12.421875 61.785156 L 14.570312 61.785156 C 14.238281 62.292969 13.90625 62.742188 13.574219 63.113281 L 11.132812 63.113281 C 11.621094 62.722656 12.050781 62.292969 12.421875 61.785156 Z M 7.1875 60.769531 L 7.1875 70.632812 L 7.988281 70.632812 L 7.988281 61.53125 L 9.609375 61.53125 C 9.335938 62.488281 8.964844 63.542969 8.496094 64.714844 C 9.101562 65.671875 9.394531 66.550781 9.394531 67.3125 C 9.394531 67.546875 9.335938 67.722656 9.257812 67.820312 C 9.160156 67.917969 8.964844 67.976562 8.691406 67.996094 C 8.574219 67.996094 8.417969 67.976562 8.261719 67.957031 L 8.515625 68.777344 C 9.160156 68.777344 9.628906 68.640625 9.902344 68.367188 C 10.078125 68.152344 10.175781 67.800781 10.175781 67.3125 C 10.136719 66.511719 9.84375 65.59375 9.296875 64.597656 C 9.726562 63.484375 10.097656 62.429688 10.410156 61.414062 L 10.410156 60.769531 Z M 16.054688 67.410156 L 15.351562 67.644531 C 15.742188 68.328125 16.113281 69.109375 16.445312 69.988281 L 17.109375 69.675781 C 16.796875 68.875 16.445312 68.132812 16.054688 67.410156 Z M 10.722656 67.625 C 10.546875 68.425781 10.273438 69.167969 9.902344 69.832031 L 10.566406 70.261719 C 10.9375 69.558594 11.230469 68.738281 11.445312 67.78125 Z M 14.453125 70.535156 C 14.785156 70.535156 15.039062 70.457031 15.195312 70.320312 C 15.390625 70.144531 15.527344 69.675781 15.585938 68.914062 L 14.882812 68.679688 C 14.84375 69.226562 14.785156 69.558594 14.707031 69.675781 C 14.628906 69.753906 14.492188 69.8125 14.316406 69.8125 L 13.105469 69.8125 C 12.832031 69.8125 12.695312 69.636719 12.695312 69.324219 L 12.695312 67.488281 L 11.933594 67.488281 L 11.933594 69.5 C 11.933594 70.183594 12.246094 70.535156 12.871094 70.535156 Z M 13.710938 67.234375 L 13.144531 67.605469 C 13.554688 68.09375 13.886719 68.523438 14.121094 68.933594 L 14.726562 68.503906 C 14.492188 68.152344 14.140625 67.722656 13.710938 67.234375 Z M 13.710938 67.234375 "/>
<path style=" stroke:none;fill-rule:nonzero;fill:rgb(0%,0%,0%);fill-opacity:1;" d="M 20.527344 65.710938 C 19.765625 66.53125 18.90625 67.253906 17.96875 67.859375 L 18.222656 68.71875 C 19.082031 68.074219 19.84375 67.390625 20.527344 66.667969 L 20.527344 70.59375 L 21.328125 70.59375 L 21.328125 60.378906 L 20.527344 60.378906 Z M 18.886719 61.492188 L 18.125 61.746094 C 18.554688 62.585938 18.945312 63.582031 19.296875 64.714844 L 20 64.382812 C 19.6875 63.367188 19.316406 62.390625 18.886719 61.492188 Z M 26.484375 60.535156 L 25.839844 60.925781 C 26.425781 61.589844 26.914062 62.195312 27.246094 62.761719 L 27.871094 62.3125 C 27.539062 61.804688 27.089844 61.199219 26.484375 60.535156 Z M 25.234375 60.339844 L 24.433594 60.339844 C 24.433594 61.023438 24.414062 62.039062 24.375 63.328125 L 22.070312 63.328125 L 22.070312 64.109375 L 24.335938 64.109375 C 24.101562 66.335938 23.242188 68.308594 21.738281 69.988281 L 22.265625 70.59375 C 23.554688 69.226562 24.433594 67.527344 24.921875 65.476562 C 25.410156 67.527344 26.367188 69.226562 27.773438 70.574219 L 28.339844 69.96875 C 26.777344 68.582031 25.761719 66.628906 25.292969 64.109375 L 27.949219 64.109375 L 27.949219 63.328125 L 25.195312 63.328125 C 25.214844 62.15625 25.234375 61.179688 25.234375 60.339844 Z M 25.234375 60.339844 "/>
<path style=" stroke:none;fill-rule:nonzero;fill:rgb(0%,0%,0%);fill-opacity:1;" d="M 33.964844 60.203125 C 33.925781 60.652344 33.828125 61.082031 33.710938 61.492188 L 29.746094 61.492188 L 29.746094 62.273438 L 33.4375 62.273438 C 33.222656 62.703125 32.988281 63.09375 32.65625 63.445312 C 31.953125 64.1875 30.800781 64.773438 29.199219 65.164062 L 29.511719 65.90625 C 30.859375 65.554688 31.914062 65.105469 32.65625 64.558594 C 33.203125 64.96875 33.75 65.457031 34.277344 66.003906 L 34.84375 65.4375 C 34.238281 64.890625 33.691406 64.441406 33.203125 64.089844 C 33.242188 64.050781 33.28125 64.011719 33.320312 63.972656 C 33.730469 63.484375 34.0625 62.917969 34.316406 62.273438 L 34.492188 62.273438 C 35.058594 63.796875 36.5625 65.007812 39.0625 65.886719 L 39.492188 65.183594 C 37.246094 64.480469 35.859375 63.523438 35.3125 62.273438 L 38.90625 62.273438 L 38.90625 61.492188 L 34.570312 61.492188 C 34.648438 61.101562 34.726562 60.710938 34.785156 60.28125 Z M 30.351562 66.863281 C 30.136719 67.859375 29.804688 68.796875 29.316406 69.617188 L 30.019531 70.066406 C 30.507812 69.207031 30.878906 68.191406 31.152344 67.019531 Z M 34.628906 66.453125 L 33.90625 66.667969 C 34.277344 67.253906 34.609375 67.917969 34.921875 68.660156 L 35.664062 68.347656 C 35.371094 67.664062 35.019531 67.039062 34.628906 66.453125 Z M 37.988281 66.6875 L 37.207031 66.941406 C 37.734375 67.742188 38.222656 68.660156 38.652344 69.714844 L 39.394531 69.382812 C 39.003906 68.425781 38.535156 67.527344 37.988281 66.6875 Z M 35.917969 70.398438 C 36.347656 70.398438 36.660156 70.28125 36.855469 70.105469 C 37.089844 69.871094 37.246094 69.265625 37.324219 68.25 L 36.5625 67.996094 C 36.503906 68.777344 36.425781 69.246094 36.289062 69.402344 C 36.191406 69.539062 36.015625 69.597656 35.78125 69.597656 L 33.320312 69.597656 C 32.988281 69.597656 32.832031 69.441406 32.832031 69.089844 L 32.832031 66.824219 L 31.992188 66.824219 L 31.992188 69.265625 C 31.992188 70.007812 32.34375 70.398438 33.066406 70.398438 Z M 35.917969 70.398438 "/>
<path style=" stroke:none;fill-rule:nonzero;fill:rgb(0%,0%,0%);fill-opacity:1;" d="M 14.453125 17.070312 L 14.453125 18.730469 L 13.339844 18.730469 C 13.613281 18.007812 13.886719 17.1875 14.121094 16.269531 L 16.289062 16.269531 L 16.289062 15.507812 L 14.316406 15.507812 C 14.414062 15.058594 14.511719 14.570312 14.628906 14.0625 L 13.886719 13.90625 C 13.769531 14.453125 13.671875 15 13.554688 15.507812 L 12.441406 15.507812 L 12.441406 16.269531 L 13.378906 16.269531 C 13.125 17.265625 12.851562 18.125 12.519531 18.789062 L 12.695312 19.472656 L 14.453125 19.472656 L 14.453125 21.152344 C 13.789062 21.269531 13.105469 21.386719 12.363281 21.464844 L 12.460938 22.265625 C 13.144531 22.148438 13.808594 22.050781 14.453125 21.914062 L 14.453125 24.257812 L 15.195312 24.257812 L 15.195312 21.757812 L 16.269531 21.484375 L 16.269531 20.722656 C 15.9375 20.800781 15.585938 20.898438 15.195312 20.996094 L 15.195312 19.472656 L 16.230469 19.472656 L 16.230469 18.730469 L 15.195312 18.730469 L 15.195312 17.070312 Z M 17.773438 16.484375 L 17.773438 17.148438 L 20.996094 17.148438 L 20.996094 16.484375 L 17.773438 16.484375 C 18.339844 15.9375 18.886719 15.332031 19.414062 14.6875 C 20.273438 15.78125 21.230469 16.71875 22.285156 17.480469 L 22.714844 16.855469 C 21.699219 16.132812 20.703125 15.175781 19.707031 13.964844 L 19.140625 13.964844 C 18.222656 15.078125 17.1875 16.074219 16.035156 16.914062 L 16.484375 17.597656 C 16.914062 17.246094 17.34375 16.875 17.773438 16.484375 Z M 18.554688 24.179688 C 19.101562 24.179688 19.394531 23.886719 19.394531 23.300781 L 19.394531 18.046875 L 16.738281 18.046875 L 16.738281 24.257812 L 17.441406 24.257812 L 17.441406 22.148438 L 18.710938 22.148438 L 18.710938 23.164062 C 18.710938 23.398438 18.574219 23.535156 18.339844 23.535156 L 17.832031 23.515625 L 18.007812 24.179688 Z M 17.441406 21.523438 L 17.441406 20.449219 L 18.710938 20.449219 L 18.710938 21.523438 Z M 17.441406 19.824219 L 17.441406 18.710938 L 18.710938 18.710938 L 18.710938 19.824219 Z M 20.058594 18.359375 L 20.058594 22.402344 L 20.703125 22.402344 L 20.703125 18.359375 Z M 21.289062 24.199219 C 21.835938 24.199219 22.109375 23.867188 22.109375 23.222656 L 22.109375 17.851562 L 21.40625 17.851562 L 21.40625 23.046875 C 21.40625 23.359375 21.289062 23.535156 21.035156 23.535156 C 20.761719 23.535156 20.46875 23.515625 20.175781 23.476562 L 20.332031 24.199219 Z M 21.289062 24.199219 "/>
<path style=" stroke:none;fill-rule:nonzero;fill:rgb(0%,0%,0%);fill-opacity:1;" d="M 31.796875 17.851562 L 29.160156 17.851562 L 29.160156 13.925781 L 28.339844 13.925781 L 28.339844 17.851562 L 25.703125 17.851562 L 25.703125 14.785156 L 24.882812 14.785156 L 24.882812 18.632812 L 28.339844 18.632812 L 28.339844 22.773438 L 25.15625 22.773438 L 25.15625 19.6875 L 24.335938 19.6875 L 24.335938 24.179688 L 25.15625 24.179688 L 25.15625 23.535156 L 32.34375 23.535156 L 32.34375 24.179688 L 33.164062 24.179688 L 33.164062 19.6875 L 32.34375 19.6875 L 32.34375 22.773438 L 29.160156 22.773438 L 29.160156 18.632812 L 32.617188 18.632812 L 32.617188 14.785156 L 31.796875 14.785156 Z M 31.796875 17.851562 "/>
<path style=" stroke:none;fill-rule:nonzero;fill:rgb(0%,0%,0%);fill-opacity:1;" d="M 81.566406 13.980469 L 79.769531 10.328125 L 79.164062 10.328125 L 77.347656 13.980469 L 78.03125 13.980469 L 79.457031 11.089844 L 80.902344 13.980469 Z M 81.566406 13.980469 "/>
<path style=" stroke:none;fill-rule:nonzero;fill:rgb(0%,0%,0%);fill-opacity:1;" d="M 150.765625 13.980469 L 148.96875 10.328125 L 148.363281 10.328125 L 146.546875 13.980469 L 147.230469 13.980469 L 148.65625 11.089844 L 150.101562 13.980469 Z M 150.765625 13.980469 "/>
<path style=" stroke:none;fill-rule:nonzero;fill:rgb(0%,0%,0%);fill-opacity:1;" d="M 210.28125 13.980469 L 208.484375 10.328125 L 207.878906 10.328125 L 206.0625 13.980469 L 206.746094 13.980469 L 208.171875 11.089844 L 209.617188 13.980469 Z M 210.28125 13.980469 "/>
<path style=" stroke:none;fill-rule:nonzero;fill:rgb(40%,74.901961%,100%);fill-opacity:1;" d="M 71.175781 126.945312 L 103.675781 126.945312 L 103.675781 101.945312 L 71.175781 101.945312 Z M 71.175781 126.945312 "/>
<path style="fill:none;stroke-width:1;stroke-linecap:round;stroke-linejoin:round;stroke:rgb(0%,0%,0%);stroke-opacity:1;stroke-miterlimit:10;" d="M 72.940625 150.55625 L 98.940625 150.55625 L 98.940625 170.55625 L 72.940625 170.55625 Z M 72.940625 150.55625 " transform="matrix(1.25,0,0,1.25,-20,-86.25)"/>
<path style=" stroke:none;fill-rule:nonzero;fill:rgb(0%,0%,0%);fill-opacity:1;" d="M 80.160156 112.335938 C 80.003906 111.554688 79.867188 111.359375 79.59375 111.359375 C 79.320312 111.359375 78.949219 111.4375 78.265625 111.691406 L 78.148438 111.730469 L 78.1875 111.90625 L 78.382812 111.847656 C 78.597656 111.789062 78.734375 111.769531 78.8125 111.769531 C 79.105469 111.769531 79.183594 111.867188 79.339844 112.53125 L 79.652344 113.9375 L 78.734375 115.246094 C 78.5 115.578125 78.285156 115.792969 78.148438 115.792969 C 78.089844 115.792969 77.972656 115.753906 77.855469 115.695312 C 77.71875 115.617188 77.601562 115.558594 77.503906 115.558594 C 77.289062 115.558594 77.113281 115.753906 77.113281 115.96875 C 77.113281 116.261719 77.328125 116.4375 77.679688 116.4375 C 78.03125 116.4375 78.265625 116.339844 78.753906 115.675781 L 79.75 114.347656 L 80.0625 115.675781 C 80.199219 116.242188 80.375 116.4375 80.726562 116.4375 C 81.15625 116.4375 81.449219 116.183594 82.113281 115.167969 L 81.9375 115.050781 C 81.839844 115.167969 81.800781 115.246094 81.703125 115.382812 C 81.449219 115.714844 81.3125 115.832031 81.175781 115.832031 C 81.019531 115.832031 80.921875 115.675781 80.84375 115.363281 L 80.472656 113.859375 C 80.414062 113.585938 80.375 113.429688 80.375 113.351562 C 80.882812 112.492188 81.292969 111.984375 81.488281 111.984375 C 81.761719 111.984375 81.859375 112.179688 82.074219 112.179688 C 82.289062 112.179688 82.445312 112.003906 82.445312 111.769531 C 82.445312 111.535156 82.269531 111.359375 81.996094 111.359375 C 81.507812 111.359375 81.078125 111.769531 80.296875 112.960938 Z M 80.160156 112.335938 "/>
<path style=" stroke:none;fill-rule:nonzero;fill:rgb(0%,0%,0%);fill-opacity:1;" d="M 84.644531 116.867188 L 84.039062 116.867188 L 84.253906 116.085938 C 84.253906 116.066406 84.253906 116.027344 84.253906 116.027344 C 84.253906 115.988281 84.234375 115.96875 84.195312 115.96875 C 84.15625 115.96875 84.117188 115.988281 84.078125 116.046875 C 83.804688 116.457031 83.316406 116.808594 83.082031 116.867188 C 82.90625 116.90625 82.847656 116.964844 82.847656 117.0625 C 82.847656 117.0625 82.847656 117.082031 82.847656 117.101562 L 83.414062 117.101562 L 82.828125 119.328125 C 82.769531 119.5625 82.710938 119.796875 82.710938 119.875 C 82.710938 120.070312 82.847656 120.148438 83.042969 120.148438 C 83.433594 120.148438 83.667969 119.933594 84.117188 119.25 L 84.019531 119.191406 C 83.648438 119.660156 83.53125 119.777344 83.414062 119.777344 C 83.355469 119.777344 83.296875 119.757812 83.296875 119.660156 C 83.296875 119.640625 83.316406 119.582031 83.316406 119.5625 L 83.960938 117.101562 L 84.605469 117.101562 Z M 84.644531 116.867188 "/>
<path style=" stroke:none;fill-rule:nonzero;fill:rgb(0%,0%,0%);fill-opacity:1;" d="M 88.9375 118.429688 L 88.9375 117.921875 L 85.148438 117.921875 L 85.148438 118.429688 Z M 88.9375 118.429688 "/>
<path style=" stroke:none;fill-rule:nonzero;fill:rgb(0%,0%,0%);fill-opacity:1;" d="M 93.121094 119.035156 L 93.023438 118.996094 C 92.769531 119.425781 92.613281 119.503906 92.300781 119.503906 L 90.542969 119.503906 L 91.773438 118.175781 C 92.4375 117.472656 92.730469 116.90625 92.730469 116.320312 C 92.730469 115.578125 92.203125 114.992188 91.34375 114.992188 C 90.425781 114.992188 89.957031 115.617188 89.800781 116.496094 L 89.957031 116.535156 C 90.25 115.792969 90.503906 115.558594 91.050781 115.558594 C 91.695312 115.558594 92.085938 115.929688 92.085938 116.613281 C 92.085938 117.257812 91.832031 117.824219 91.109375 118.566406 L 89.78125 119.972656 L 89.78125 120.070312 L 92.710938 120.070312 Z M 93.121094 119.035156 "/>
<path style=" stroke:none;fill-rule:nonzero;fill:rgb(40%,74.901961%,100%);fill-opacity:1;" d="M 134.445312 126.945312 L 166.945312 126.945312 L 166.945312 101.945312 L 134.445312 101.945312 Z M 134.445312 126.945312 "/>
<path style="fill:none;stroke-width:1;stroke-linecap:round;stroke-linejoin:round;stroke:rgb(0%,0%,0%);stroke-opacity:1;stroke-miterlimit:10;" d="M 123.55625 150.55625 L 149.55625 150.55625 L 149.55625 170.55625 L 123.55625 170.55625 Z M 123.55625 150.55625 " transform="matrix(1.25,0,0,1.25,-20,-86.25)"/>
<path style=" stroke:none;fill-rule:nonzero;fill:rgb(0%,0%,0%);fill-opacity:1;" d="M 145.480469 112.335938 C 145.324219 111.554688 145.1875 111.359375 144.914062 111.359375 C 144.640625 111.359375 144.269531 111.4375 143.585938 111.691406 L 143.46875 111.730469 L 143.507812 111.90625 L 143.703125 111.847656 C 143.917969 111.789062 144.054688 111.769531 144.132812 111.769531 C 144.425781 111.769531 144.503906 111.867188 144.660156 112.53125 L 144.972656 113.9375 L 144.054688 115.246094 C 143.820312 115.578125 143.605469 115.792969 143.46875 115.792969 C 143.410156 115.792969 143.292969 115.753906 143.175781 115.695312 C 143.039062 115.617188 142.921875 115.558594 142.824219 115.558594 C 142.609375 115.558594 142.433594 115.753906 142.433594 115.96875 C 142.433594 116.261719 142.648438 116.4375 143 116.4375 C 143.351562 116.4375 143.585938 116.339844 144.074219 115.675781 L 145.070312 114.347656 L 145.382812 115.675781 C 145.519531 116.242188 145.695312 116.4375 146.046875 116.4375 C 146.476562 116.4375 146.769531 116.183594 147.433594 115.167969 L 147.257812 115.050781 C 147.160156 115.167969 147.121094 115.246094 147.023438 115.382812 C 146.769531 115.714844 146.632812 115.832031 146.496094 115.832031 C 146.339844 115.832031 146.242188 115.675781 146.164062 115.363281 L 145.792969 113.859375 C 145.734375 113.585938 145.695312 113.429688 145.695312 113.351562 C 146.203125 112.492188 146.613281 111.984375 146.808594 111.984375 C 147.082031 111.984375 147.179688 112.179688 147.394531 112.179688 C 147.609375 112.179688 147.765625 112.003906 147.765625 111.769531 C 147.765625 111.535156 147.589844 111.359375 147.316406 111.359375 C 146.828125 111.359375 146.398438 111.769531 145.617188 112.960938 Z M 145.480469 112.335938 "/>
<path style=" stroke:none;fill-rule:nonzero;fill:rgb(0%,0%,0%);fill-opacity:1;" d="M 149.96875 116.867188 L 149.363281 116.867188 L 149.578125 116.085938 C 149.578125 116.066406 149.578125 116.027344 149.578125 116.027344 C 149.578125 115.988281 149.558594 115.96875 149.519531 115.96875 C 149.480469 115.96875 149.441406 115.988281 149.402344 116.046875 C 149.128906 116.457031 148.640625 116.808594 148.40625 116.867188 C 148.230469 116.90625 148.171875 116.964844 148.171875 117.0625 C 148.171875 117.0625 148.171875 117.082031 148.171875 117.101562 L 148.738281 117.101562 L 148.152344 119.328125 C 148.09375 119.5625 148.035156 119.796875 148.035156 119.875 C 148.035156 120.070312 148.171875 120.148438 148.367188 120.148438 C 148.757812 120.148438 148.992188 119.933594 149.441406 119.25 L 149.34375 119.191406 C 148.972656 119.660156 148.855469 119.777344 148.738281 119.777344 C 148.679688 119.777344 148.621094 119.757812 148.621094 119.660156 C 148.621094 119.640625 148.640625 119.582031 148.640625 119.5625 L 149.285156 117.101562 L 149.929688 117.101562 Z M 149.96875 116.867188 "/>
<path style=" stroke:none;fill-rule:nonzero;fill:rgb(0%,0%,0%);fill-opacity:1;" d="M 154.257812 118.429688 L 154.257812 117.921875 L 150.46875 117.921875 L 150.46875 118.429688 Z M 154.257812 118.429688 "/>
<path style=" stroke:none;fill-rule:nonzero;fill:rgb(0%,0%,0%);fill-opacity:1;" d="M 157.835938 120.070312 L 157.835938 119.953125 C 157.269531 119.953125 157.132812 119.816406 157.132812 119.503906 L 157.132812 115.03125 L 157.054688 114.992188 L 155.726562 115.675781 L 155.726562 115.792969 L 155.921875 115.714844 C 156.058594 115.65625 156.175781 115.617188 156.253906 115.617188 C 156.410156 115.617188 156.488281 115.734375 156.488281 115.988281 L 156.488281 119.367188 C 156.488281 119.777344 156.332031 119.933594 155.765625 119.953125 L 155.765625 120.070312 Z M 157.835938 120.070312 "/>
<path style=" stroke:none;fill-rule:nonzero;fill:rgb(40%,74.901961%,100%);fill-opacity:1;" d="M 198.082031 126.945312 L 230.582031 126.945312 L 230.582031 101.945312 L 198.082031 101.945312 Z M 198.082031 126.945312 "/>
<path style="fill:none;stroke-width:1;stroke-linecap:round;stroke-linejoin:round;stroke:rgb(0%,0%,0%);stroke-opacity:1;stroke-miterlimit:10;" d="M 174.465625 150.55625 L 200.465625 150.55625 L 200.465625 170.55625 L 174.465625 170.55625 Z M 174.465625 150.55625 " transform="matrix(1.25,0,0,1.25,-20,-86.25)"/>
<path style=" stroke:none;fill-rule:nonzero;fill:rgb(0%,0%,0%);fill-opacity:1;" d="M 213.527344 112.335938 C 213.371094 111.554688 213.234375 111.359375 212.960938 111.359375 C 212.6875 111.359375 212.316406 111.4375 211.632812 111.691406 L 211.515625 111.730469 L 211.554688 111.90625 L 211.75 111.847656 C 211.964844 111.789062 212.101562 111.769531 212.179688 111.769531 C 212.472656 111.769531 212.550781 111.867188 212.707031 112.53125 L 213.019531 113.9375 L 212.101562 115.246094 C 211.867188 115.578125 211.652344 115.792969 211.515625 115.792969 C 211.457031 115.792969 211.339844 115.753906 211.222656 115.695312 C 211.085938 115.617188 210.96875 115.558594 210.871094 115.558594 C 210.65625 115.558594 210.480469 115.753906 210.480469 115.96875 C 210.480469 116.261719 210.695312 116.4375 211.046875 116.4375 C 211.398438 116.4375 211.632812 116.339844 212.121094 115.675781 L 213.117188 114.347656 L 213.429688 115.675781 C 213.566406 116.242188 213.742188 116.4375 214.09375 116.4375 C 214.523438 116.4375 214.816406 116.183594 215.480469 115.167969 L 215.304688 115.050781 C 215.207031 115.167969 215.167969 115.246094 215.070312 115.382812 C 214.816406 115.714844 214.679688 115.832031 214.542969 115.832031 C 214.386719 115.832031 214.289062 115.675781 214.210938 115.363281 L 213.839844 113.859375 C 213.78125 113.585938 213.742188 113.429688 213.742188 113.351562 C 214.25 112.492188 214.660156 111.984375 214.855469 111.984375 C 215.128906 111.984375 215.226562 112.179688 215.441406 112.179688 C 215.65625 112.179688 215.8125 112.003906 215.8125 111.769531 C 215.8125 111.535156 215.636719 111.359375 215.363281 111.359375 C 214.875 111.359375 214.445312 111.769531 213.664062 112.960938 Z M 213.527344 112.335938 "/>
<path style=" stroke:none;fill-rule:nonzero;fill:rgb(0%,0%,0%);fill-opacity:1;" d="M 218.015625 116.867188 L 217.410156 116.867188 L 217.625 116.085938 C 217.625 116.066406 217.625 116.027344 217.625 116.027344 C 217.625 115.988281 217.605469 115.96875 217.566406 115.96875 C 217.527344 115.96875 217.488281 115.988281 217.449219 116.046875 C 217.175781 116.457031 216.6875 116.808594 216.453125 116.867188 C 216.277344 116.90625 216.21875 116.964844 216.21875 117.0625 C 216.21875 117.0625 216.21875 117.082031 216.21875 117.101562 L 216.785156 117.101562 L 216.199219 119.328125 C 216.140625 119.5625 216.082031 119.796875 216.082031 119.875 C 216.082031 120.070312 216.21875 120.148438 216.414062 120.148438 C 216.804688 120.148438 217.039062 119.933594 217.488281 119.25 L 217.390625 119.191406 C 217.019531 119.660156 216.902344 119.777344 216.785156 119.777344 C 216.726562 119.777344 216.667969 119.757812 216.667969 119.660156 C 216.667969 119.640625 216.6875 119.582031 216.6875 119.5625 L 217.332031 117.101562 L 217.976562 117.101562 Z M 218.015625 116.867188 "/>
<path style="fill:none;stroke-width:1;stroke-linecap:round;stroke-linejoin:round;stroke:rgb(0%,0%,0%);stroke-opacity:1;stroke-miterlimit:10;" d="M 85.440625 150.55625 L 85.36875 137 " transform="matrix(1.25,0,0,1.25,-20,-86.25)"/>
<path style="fill:none;stroke-width:1;stroke-linecap:butt;stroke-linejoin:miter;stroke:rgb(0%,0%,0%);stroke-opacity:1;stroke-miterlimit:10;" d="M 85.34375 133 L 85.36875 137 M 83.86875 137.00625 L 85.34375 133 L 86.86875 136.99375 " transform="matrix(1.25,0,0,1.25,-20,-86.25)"/>
<path style="fill:none;stroke-width:1;stroke-linecap:round;stroke-linejoin:round;stroke:rgb(0%,0%,0%);stroke-opacity:1;stroke-miterlimit:10;" d="M 136.215625 150.55625 L 136.065625 137 " transform="matrix(1.25,0,0,1.25,-20,-86.25)"/>
<path style="fill:none;stroke-width:1;stroke-linecap:butt;stroke-linejoin:miter;stroke:rgb(0%,0%,0%);stroke-opacity:1;stroke-miterlimit:10;" d="M 136.025 133 L 136.065625 137 M 134.565625 137.015625 L 136.025 133 L 137.565625 136.984375 " transform="matrix(1.25,0,0,1.25,-20,-86.25)"/>
<path style="fill:none;stroke-width:1;stroke-linecap:round;stroke-linejoin:round;stroke:rgb(0%,0%,0%);stroke-opacity:1;stroke-miterlimit:10;" d="M 186.984375 150.55625 L 187.05625 137 " transform="matrix(1.25,0,0,1.25,-20,-86.25)"/>
<path style="fill:none;stroke-width:1;stroke-linecap:butt;stroke-linejoin:miter;stroke:rgb(0%,0%,0%);stroke-opacity:1;stroke-miterlimit:10;" d="M 187.075 133 L 187.05625 137 M 185.55625 136.99375 L 187.075 133 L 188.55625 137.00625 " transform="matrix(1.25,0,0,1.25,-20,-86.25)"/>
<path style=" stroke:none;fill-rule:nonzero;fill:rgb(0%,0%,0%);fill-opacity:1;" d="M 14.453125 112.765625 L 14.453125 114.425781 L 13.339844 114.425781 C 13.613281 113.703125 13.886719 112.882812 14.121094 111.964844 L 16.289062 111.964844 L 16.289062 111.203125 L 14.316406 111.203125 C 14.414062 110.753906 14.511719 110.265625 14.628906 109.757812 L 13.886719 109.601562 C 13.769531 110.148438 13.671875 110.695312 13.554688 111.203125 L 12.441406 111.203125 L 12.441406 111.964844 L 13.378906 111.964844 C 13.125 112.960938 12.851562 113.820312 12.519531 114.484375 L 12.695312 115.167969 L 14.453125 115.167969 L 14.453125 116.847656 C 13.789062 116.964844 13.105469 117.082031 12.363281 117.160156 L 12.460938 117.960938 C 13.144531 117.84375 13.808594 117.746094 14.453125 117.609375 L 14.453125 119.953125 L 15.195312 119.953125 L 15.195312 117.453125 L 16.269531 117.179688 L 16.269531 116.417969 C 15.9375 116.496094 15.585938 116.59375 15.195312 116.691406 L 15.195312 115.167969 L 16.230469 115.167969 L 16.230469 114.425781 L 15.195312 114.425781 L 15.195312 112.765625 Z M 17.773438 112.179688 L 17.773438 112.84375 L 20.996094 112.84375 L 20.996094 112.179688 L 17.773438 112.179688 C 18.339844 111.632812 18.886719 111.027344 19.414062 110.382812 C 20.273438 111.476562 21.230469 112.414062 22.285156 113.175781 L 22.714844 112.550781 C 21.699219 111.828125 20.703125 110.871094 19.707031 109.660156 L 19.140625 109.660156 C 18.222656 110.773438 17.1875 111.769531 16.035156 112.609375 L 16.484375 113.292969 C 16.914062 112.941406 17.34375 112.570312 17.773438 112.179688 Z M 18.554688 119.875 C 19.101562 119.875 19.394531 119.582031 19.394531 118.996094 L 19.394531 113.742188 L 16.738281 113.742188 L 16.738281 119.953125 L 17.441406 119.953125 L 17.441406 117.84375 L 18.710938 117.84375 L 18.710938 118.859375 C 18.710938 119.09375 18.574219 119.230469 18.339844 119.230469 L 17.832031 119.210938 L 18.007812 119.875 Z M 17.441406 117.21875 L 17.441406 116.144531 L 18.710938 116.144531 L 18.710938 117.21875 Z M 17.441406 115.519531 L 17.441406 114.40625 L 18.710938 114.40625 L 18.710938 115.519531 Z M 20.058594 114.054688 L 20.058594 118.097656 L 20.703125 118.097656 L 20.703125 114.054688 Z M 21.289062 119.894531 C 21.835938 119.894531 22.109375 119.5625 22.109375 118.917969 L 22.109375 113.546875 L 21.40625 113.546875 L 21.40625 118.742188 C 21.40625 119.054688 21.289062 119.230469 21.035156 119.230469 C 20.761719 119.230469 20.46875 119.210938 20.175781 119.171875 L 20.332031 119.894531 Z M 21.289062 119.894531 "/>
<path style=" stroke:none;fill-rule:nonzero;fill:rgb(0%,0%,0%);fill-opacity:1;" d="M 28.261719 112.238281 C 27.539062 115.226562 25.976562 117.53125 23.554688 119.09375 L 24.042969 119.796875 C 26.40625 118.253906 27.96875 116.046875 28.710938 113.175781 C 28.769531 113.3125 28.808594 113.46875 28.886719 113.664062 C 30.039062 116.632812 31.523438 118.683594 33.359375 119.777344 L 33.867188 119.132812 C 32.070312 118.019531 30.664062 116.105469 29.609375 113.429688 C 28.925781 111.59375 28.066406 110.324219 27.070312 109.621094 L 26.40625 110.050781 C 27.109375 110.578125 27.734375 111.300781 28.261719 112.238281 Z M 28.261719 112.238281 "/>
</g>
</svg>
