<?xml version="1.0" encoding="UTF-8"?>
<svg xmlns="http://www.w3.org/2000/svg" xmlns:xlink="http://www.w3.org/1999/xlink" width="309pt" height="103pt" viewBox="0 0 309 103" version="1.1">
<g id="surface1">
<path style=" stroke:none;fill-rule:nonzero;fill:rgb(0%,0%,0%);fill-opacity:1;" d="M 14.96875 16.953125 C 15.25 16.953125 15.457031 17.007812 15.574219 17.109375 C 15.699219 17.203125 15.769531 17.351562 15.769531 17.558594 C 15.769531 17.769531 15.710938 17.925781 15.59375 18.027344 C 15.476562 18.121094 15.289062 18.164062 15.046875 18.164062 L 11.589844 18.164062 L 11.589844 21.015625 C 11.589844 21.953125 11.707031 22.574219 11.941406 22.871094 C 12.183594 23.160156 12.609375 23.300781 13.210938 23.300781 C 13.71875 23.300781 14.328125 23.15625 15.046875 22.851562 C 15.773438 22.554688 16.226562 22.402344 16.414062 22.402344 C 16.570312 22.402344 16.695312 22.460938 16.804688 22.578125 C 16.921875 22.6875 16.980469 22.820312 16.980469 22.988281 C 16.980469 23.183594 16.90625 23.355469 16.765625 23.496094 C 16.617188 23.628906 16.382812 23.757812 16.0625 23.886719 C 15.5 24.109375 14.992188 24.273438 14.539062 24.375 C 14.09375 24.476562 13.679688 24.53125 13.289062 24.53125 C 12.625 24.53125 12.0625 24.421875 11.609375 24.21875 C 11.148438 24 10.8125 23.679688 10.59375 23.261719 C 10.476562 23.054688 10.386719 22.8125 10.339844 22.539062 C 10.300781 22.265625 10.28125 21.851562 10.28125 21.289062 L 10.28125 18.164062 L 8.835938 18.164062 C 8.585938 18.164062 8.410156 18.121094 8.308594 18.027344 C 8.199219 17.925781 8.152344 17.769531 8.152344 17.558594 C 8.152344 17.324219 8.21875 17.167969 8.367188 17.089844 C 8.507812 17 8.820312 16.953125 9.304688 16.953125 L 10.28125 16.953125 L 10.28125 14.746094 C 10.28125 14.511719 10.328125 14.335938 10.4375 14.21875 C 10.539062 14.101562 10.699219 14.042969 10.925781 14.042969 C 11.167969 14.042969 11.339844 14.117188 11.433594 14.257812 C 11.535156 14.390625 11.589844 14.707031 11.589844 15.214844 L 11.589844 16.953125 Z M 14.96875 16.953125 "/>
<path style=" stroke:none;fill-rule:nonzero;fill:rgb(0%,0%,0%);fill-opacity:1;" d="M 19.921875 23.164062 L 19.921875 14.414062 L 19.765625 14.414062 C 19.375 14.414062 19.109375 14.371094 18.964844 14.277344 C 18.820312 14.1875 18.75 14.03125 18.75 13.808594 C 18.75 13.601562 18.808594 13.445312 18.925781 13.339844 C 19.042969 13.238281 19.210938 13.183594 19.433594 13.183594 L 20.722656 13.183594 C 20.878906 13.183594 20.996094 13.21875 21.074219 13.28125 C 21.164062 13.351562 21.210938 13.433594 21.210938 13.535156 L 21.210938 17.402344 C 21.628906 17.027344 22.039062 16.75 22.441406 16.5625 C 22.859375 16.367188 23.28125 16.269531 23.710938 16.269531 C 24.570312 16.269531 25.246094 16.539062 25.742188 17.070312 C 26.238281 17.609375 26.484375 18.351562 26.484375 19.296875 L 26.484375 23.164062 L 26.894531 23.164062 C 27.179688 23.164062 27.382812 23.21875 27.5 23.320312 C 27.628906 23.414062 27.695312 23.554688 27.695312 23.75 C 27.695312 23.960938 27.636719 24.117188 27.519531 24.21875 C 27.402344 24.328125 27.234375 24.375 27.011719 24.375 L 24.726562 24.375 C 24.464844 24.375 24.285156 24.332031 24.179688 24.238281 C 24.089844 24.148438 24.042969 23.984375 24.042969 23.75 C 24.042969 23.53125 24.101562 23.378906 24.21875 23.300781 C 24.335938 23.210938 24.558594 23.164062 24.882812 23.164062 L 25.195312 23.164062 L 25.195312 19.609375 C 25.195312 18.945312 25.039062 18.4375 24.726562 18.085938 C 24.425781 17.734375 23.992188 17.558594 23.417969 17.558594 C 22.832031 17.558594 22.316406 17.765625 21.875 18.164062 C 21.433594 18.554688 21.210938 19.039062 21.210938 19.609375 L 21.210938 23.164062 L 21.523438 23.164062 C 21.863281 23.164062 22.089844 23.210938 22.207031 23.300781 C 22.324219 23.378906 22.382812 23.53125 22.382812 23.75 C 22.382812 23.984375 22.335938 24.148438 22.246094 24.238281 C 22.15625 24.332031 21.972656 24.375 21.699219 24.375 L 19.433594 24.375 C 19.210938 24.375 19.042969 24.328125 18.925781 24.21875 C 18.820312 24.117188 18.769531 23.960938 18.769531 23.75 C 18.769531 23.53125 18.835938 23.378906 18.964844 23.300781 C 19.09375 23.210938 19.355469 23.164062 19.746094 23.164062 Z M 19.921875 23.164062 "/>
<path style=" stroke:none;fill-rule:nonzero;fill:rgb(0%,0%,0%);fill-opacity:1;" d="M 30.757812 20.800781 C 30.796875 21.621094 31.070312 22.261719 31.578125 22.714844 C 32.09375 23.160156 32.792969 23.378906 33.667969 23.378906 C 34.339844 23.378906 35.074219 23.203125 35.855469 22.851562 C 36.636719 22.492188 37.109375 22.304688 37.28125 22.304688 C 37.445312 22.304688 37.59375 22.363281 37.710938 22.480469 C 37.828125 22.585938 37.886719 22.714844 37.886719 22.871094 C 37.886719 23.042969 37.816406 23.199219 37.691406 23.339844 C 37.574219 23.472656 37.382812 23.601562 37.125 23.730469 C 36.546875 24.003906 35.957031 24.21875 35.347656 24.375 C 34.746094 24.515625 34.144531 24.589844 33.550781 24.589844 C 32.261719 24.589844 31.226562 24.21875 30.445312 23.476562 C 29.664062 22.726562 29.273438 21.726562 29.273438 20.488281 C 29.273438 19.226562 29.683594 18.203125 30.503906 17.421875 C 31.332031 16.640625 32.40625 16.25 33.726562 16.25 C 34.9375 16.25 35.933594 16.617188 36.714844 17.34375 C 37.503906 18.078125 37.90625 18.960938 37.90625 20 C 37.90625 20.3125 37.835938 20.527344 37.710938 20.644531 C 37.578125 20.75 37.210938 20.800781 36.617188 20.800781 Z M 30.796875 19.6875 L 36.363281 19.6875 C 36.269531 19.015625 35.980469 18.46875 35.503906 18.046875 C 35.019531 17.632812 34.429688 17.421875 33.726562 17.421875 C 32.96875 17.421875 32.328125 17.625 31.8125 18.027344 C 31.304688 18.433594 30.960938 18.984375 30.796875 19.6875 Z M 30.796875 19.6875 "/>
<path style=" stroke:none;fill-rule:nonzero;fill:rgb(0%,0%,0%);fill-opacity:1;" d="M 56.976562 16.953125 C 57.257812 16.953125 57.464844 17.007812 57.582031 17.109375 C 57.707031 17.203125 57.777344 17.351562 57.777344 17.558594 C 57.777344 17.769531 57.71875 17.925781 57.601562 18.027344 C 57.484375 18.121094 57.296875 18.164062 57.054688 18.164062 L 53.597656 18.164062 L 53.597656 21.015625 C 53.597656 21.953125 53.714844 22.574219 53.949219 22.871094 C 54.191406 23.160156 54.617188 23.300781 55.21875 23.300781 C 55.726562 23.300781 56.335938 23.15625 57.054688 22.851562 C 57.78125 22.554688 58.234375 22.402344 58.421875 22.402344 C 58.578125 22.402344 58.703125 22.460938 58.8125 22.578125 C 58.929688 22.6875 58.988281 22.820312 58.988281 22.988281 C 58.988281 23.183594 58.914062 23.355469 58.773438 23.496094 C 58.625 23.628906 58.390625 23.757812 58.070312 23.886719 C 57.507812 24.109375 57 24.273438 56.546875 24.375 C 56.101562 24.476562 55.6875 24.53125 55.296875 24.53125 C 54.632812 24.53125 54.070312 24.421875 53.617188 24.21875 C 53.15625 24 52.820312 23.679688 52.601562 23.261719 C 52.484375 23.054688 52.394531 22.8125 52.347656 22.539062 C 52.308594 22.265625 52.289062 21.851562 52.289062 21.289062 L 52.289062 18.164062 L 50.84375 18.164062 C 50.59375 18.164062 50.417969 18.121094 50.316406 18.027344 C 50.207031 17.925781 50.160156 17.769531 50.160156 17.558594 C 50.160156 17.324219 50.226562 17.167969 50.375 17.089844 C 50.515625 17 50.828125 16.953125 51.3125 16.953125 L 52.289062 16.953125 L 52.289062 14.746094 C 52.289062 14.511719 52.335938 14.335938 52.445312 14.21875 C 52.546875 14.101562 52.707031 14.042969 52.933594 14.042969 C 53.175781 14.042969 53.347656 14.117188 53.441406 14.257812 C 53.542969 14.390625 53.597656 14.707031 53.597656 15.214844 L 53.597656 16.953125 Z M 56.976562 16.953125 "/>
<path style=" stroke:none;fill-rule:nonzero;fill:rgb(0%,0%,0%);fill-opacity:1;" d="M 64.351562 14.023438 C 64.351562 13.398438 64.402344 13.007812 64.507812 12.851562 C 64.625 12.695312 64.863281 12.617188 65.230469 12.617188 C 65.59375 12.617188 65.828125 12.691406 65.933594 12.832031 C 66.050781 12.964844 66.109375 13.277344 66.109375 13.769531 C 66.109375 14.265625 66.054688 14.570312 65.953125 14.6875 C 65.847656 14.804688 65.605469 14.863281 65.230469 14.863281 C 64.863281 14.863281 64.625 14.8125 64.507812 14.707031 C 64.402344 14.589844 64.351562 14.367188 64.351562 14.023438 Z M 65.933594 23.164062 L 68.6875 23.164062 C 68.90625 23.164062 69.070312 23.21875 69.175781 23.320312 C 69.277344 23.414062 69.332031 23.554688 69.332031 23.75 C 69.332031 23.984375 69.277344 24.148438 69.175781 24.238281 C 69.082031 24.332031 68.902344 24.375 68.628906 24.375 L 62.007812 24.375 C 61.773438 24.375 61.597656 24.328125 61.480469 24.21875 C 61.375 24.117188 61.324219 23.960938 61.324219 23.75 C 61.324219 23.554688 61.382812 23.414062 61.5 23.320312 C 61.617188 23.21875 61.792969 23.164062 62.027344 23.164062 L 64.644531 23.164062 L 64.644531 17.695312 L 62.984375 17.695312 C 62.75 17.695312 62.566406 17.648438 62.4375 17.539062 C 62.320312 17.4375 62.261719 17.28125 62.261719 17.070312 C 62.261719 16.875 62.3125 16.734375 62.417969 16.640625 C 62.535156 16.539062 62.710938 16.484375 62.945312 16.484375 L 65.445312 16.484375 C 65.601562 16.484375 65.71875 16.519531 65.796875 16.582031 C 65.886719 16.636719 65.933594 16.71875 65.933594 16.835938 Z M 65.933594 23.164062 "/>
<path style=" stroke:none;fill-rule:nonzero;fill:rgb(0%,0%,0%);fill-opacity:1;" d="M 78.816406 19.609375 C 78.816406 18.820312 78.746094 18.277344 78.601562 17.988281 C 78.457031 17.703125 78.210938 17.558594 77.859375 17.558594 C 77.429688 17.558594 77.089844 17.742188 76.84375 18.105469 C 76.597656 18.472656 76.472656 18.976562 76.472656 19.609375 L 76.472656 23.164062 L 76.628906 23.164062 C 76.980469 23.164062 77.214844 23.210938 77.332031 23.300781 C 77.449219 23.378906 77.507812 23.53125 77.507812 23.75 C 77.507812 23.960938 77.457031 24.117188 77.351562 24.21875 C 77.261719 24.328125 77.109375 24.375 76.902344 24.375 L 75.828125 24.375 C 75.582031 24.375 75.410156 24.316406 75.320312 24.199219 C 75.230469 24.082031 75.183594 23.84375 75.183594 23.476562 L 75.183594 18.945312 C 75.183594 18.515625 75.085938 18.179688 74.890625 17.929688 C 74.707031 17.6875 74.449219 17.558594 74.109375 17.558594 C 73.847656 17.558594 73.609375 17.636719 73.386719 17.792969 C 73.179688 17.9375 73.003906 18.160156 72.859375 18.457031 L 72.859375 23.164062 L 73.171875 23.164062 C 73.511719 23.164062 73.738281 23.210938 73.855469 23.300781 C 73.972656 23.378906 74.03125 23.53125 74.03125 23.75 C 74.03125 23.984375 73.984375 24.148438 73.894531 24.238281 C 73.804688 24.332031 73.621094 24.375 73.347656 24.375 L 71.0625 24.375 C 70.839844 24.375 70.679688 24.332031 70.574219 24.238281 C 70.46875 24.136719 70.417969 23.976562 70.417969 23.75 C 70.417969 23.53125 70.484375 23.378906 70.613281 23.300781 C 70.742188 23.210938 71.003906 23.164062 71.394531 23.164062 L 71.570312 23.164062 L 71.570312 17.695312 L 71.414062 17.695312 C 71.011719 17.695312 70.738281 17.652344 70.59375 17.558594 C 70.449219 17.46875 70.378906 17.304688 70.378906 17.070312 C 70.378906 16.875 70.4375 16.734375 70.554688 16.640625 C 70.671875 16.539062 70.839844 16.484375 71.0625 16.484375 L 72.371094 16.484375 C 72.566406 16.484375 72.691406 16.519531 72.742188 16.582031 C 72.808594 16.648438 72.847656 16.789062 72.859375 16.992188 C 73.09375 16.75 73.339844 16.5625 73.601562 16.445312 C 73.875 16.320312 74.175781 16.25 74.5 16.25 C 74.902344 16.25 75.234375 16.34375 75.496094 16.523438 C 75.757812 16.695312 75.953125 16.953125 76.082031 17.304688 C 76.316406 16.953125 76.589844 16.695312 76.902344 16.523438 C 77.214844 16.34375 77.574219 16.25 77.976562 16.25 C 78.71875 16.25 79.257812 16.492188 79.597656 16.972656 C 79.9375 17.457031 80.105469 18.234375 80.105469 19.296875 L 80.105469 23.164062 L 80.242188 23.164062 C 80.59375 23.164062 80.828125 23.210938 80.945312 23.300781 C 81.0625 23.378906 81.121094 23.53125 81.121094 23.75 C 81.121094 23.960938 81.070312 24.117188 80.964844 24.21875 C 80.859375 24.328125 80.710938 24.375 80.515625 24.375 L 79.480469 24.375 C 79.257812 24.375 79.089844 24.3125 78.972656 24.179688 C 78.867188 24.039062 78.816406 23.820312 78.816406 23.515625 Z M 78.816406 19.609375 "/>
<path style=" stroke:none;fill-rule:nonzero;fill:rgb(0%,0%,0%);fill-opacity:1;" d="M 83.265625 20.800781 C 83.304688 21.621094 83.578125 22.261719 84.085938 22.714844 C 84.601562 23.160156 85.300781 23.378906 86.175781 23.378906 C 86.847656 23.378906 87.582031 23.203125 88.363281 22.851562 C 89.144531 22.492188 89.617188 22.304688 89.789062 22.304688 C 89.953125 22.304688 90.101562 22.363281 90.21875 22.480469 C 90.335938 22.585938 90.394531 22.714844 90.394531 22.871094 C 90.394531 23.042969 90.324219 23.199219 90.199219 23.339844 C 90.082031 23.472656 89.890625 23.601562 89.632812 23.730469 C 89.054688 24.003906 88.464844 24.21875 87.855469 24.375 C 87.253906 24.515625 86.652344 24.589844 86.058594 24.589844 C 84.769531 24.589844 83.734375 24.21875 82.953125 23.476562 C 82.171875 22.726562 81.78125 21.726562 81.78125 20.488281 C 81.78125 19.226562 82.191406 18.203125 83.011719 17.421875 C 83.839844 16.640625 84.914062 16.25 86.234375 16.25 C 87.445312 16.25 88.441406 16.617188 89.222656 17.34375 C 90.011719 18.078125 90.414062 18.960938 90.414062 20 C 90.414062 20.3125 90.34375 20.527344 90.21875 20.644531 C 90.085938 20.75 89.71875 20.800781 89.125 20.800781 Z M 83.304688 19.6875 L 88.871094 19.6875 C 88.777344 19.015625 88.488281 18.46875 88.011719 18.046875 C 87.527344 17.632812 86.9375 17.421875 86.234375 17.421875 C 85.476562 17.421875 84.835938 17.625 84.320312 18.027344 C 83.8125 18.433594 83.46875 18.984375 83.304688 19.6875 Z M 83.304688 19.6875 "/>
<path style=" stroke:none;fill-rule:nonzero;fill:rgb(0%,0%,0%);fill-opacity:1;" d="M 110.324219 19.609375 C 110.324219 18.820312 110.25 18.277344 110.109375 17.988281 C 109.960938 17.703125 109.71875 17.558594 109.367188 17.558594 C 108.9375 17.558594 108.59375 17.742188 108.351562 18.105469 C 108.101562 18.472656 107.980469 18.976562 107.980469 19.609375 L 107.980469 23.164062 L 108.136719 23.164062 C 108.488281 23.164062 108.722656 23.210938 108.839844 23.300781 C 108.957031 23.378906 109.015625 23.53125 109.015625 23.75 C 109.015625 23.960938 108.960938 24.117188 108.859375 24.21875 C 108.765625 24.328125 108.613281 24.375 108.410156 24.375 L 107.335938 24.375 C 107.085938 24.375 106.914062 24.316406 106.828125 24.199219 C 106.734375 24.082031 106.691406 23.84375 106.691406 23.476562 L 106.691406 18.945312 C 106.691406 18.515625 106.59375 18.179688 106.398438 17.929688 C 106.210938 17.6875 105.953125 17.558594 105.617188 17.558594 C 105.351562 17.558594 105.113281 17.636719 104.894531 17.792969 C 104.683594 17.9375 104.507812 18.160156 104.367188 18.457031 L 104.367188 23.164062 L 104.679688 23.164062 C 105.015625 23.164062 105.246094 23.210938 105.363281 23.300781 C 105.480469 23.378906 105.539062 23.53125 105.539062 23.75 C 105.539062 23.984375 105.488281 24.148438 105.402344 24.238281 C 105.308594 24.332031 105.128906 24.375 104.855469 24.375 L 102.570312 24.375 C 102.34375 24.375 102.183594 24.332031 102.082031 24.238281 C 101.972656 24.136719 101.925781 23.976562 101.925781 23.75 C 101.925781 23.53125 101.988281 23.378906 102.121094 23.300781 C 102.246094 23.210938 102.511719 23.164062 102.902344 23.164062 L 103.078125 23.164062 L 103.078125 17.695312 L 102.921875 17.695312 C 102.515625 17.695312 102.242188 17.652344 102.101562 17.558594 C 101.953125 17.46875 101.886719 17.304688 101.886719 17.070312 C 101.886719 16.875 101.945312 16.734375 102.0625 16.640625 C 102.179688 16.539062 102.34375 16.484375 102.570312 16.484375 L 103.878906 16.484375 C 104.074219 16.484375 104.195312 16.519531 104.25 16.582031 C 104.3125 16.648438 104.351562 16.789062 104.367188 16.992188 C 104.601562 16.75 104.84375 16.5625 105.109375 16.445312 C 105.382812 16.320312 105.679688 16.25 106.007812 16.25 C 106.40625 16.25 106.738281 16.34375 107.003906 16.523438 C 107.261719 16.695312 107.457031 16.953125 107.589844 17.304688 C 107.824219 16.953125 108.097656 16.695312 108.410156 16.523438 C 108.722656 16.34375 109.078125 16.25 109.484375 16.25 C 110.226562 16.25 110.761719 16.492188 111.105469 16.972656 C 111.441406 17.457031 111.613281 18.234375 111.613281 19.296875 L 111.613281 23.164062 L 111.75 23.164062 C 112.101562 23.164062 112.335938 23.210938 112.453125 23.300781 C 112.570312 23.378906 112.628906 23.53125 112.628906 23.75 C 112.628906 23.960938 112.574219 24.117188 112.472656 24.21875 C 112.363281 24.328125 112.21875 24.375 112.023438 24.375 L 110.988281 24.375 C 110.761719 24.375 110.597656 24.3125 110.480469 24.179688 C 110.371094 24.039062 110.324219 23.820312 110.324219 23.515625 Z M 110.324219 19.609375 "/>
<path style=" stroke:none;fill-rule:nonzero;fill:rgb(0%,0%,0%);fill-opacity:1;" d="M 119.554688 20.605469 C 119.242188 20.503906 118.9375 20.425781 118.636719 20.371094 C 118.351562 20.320312 118.058594 20.292969 117.757812 20.292969 C 116.886719 20.292969 116.195312 20.445312 115.6875 20.742188 C 115.179688 21.046875 114.925781 21.441406 114.925781 21.933594 C 114.925781 22.324219 115.082031 22.652344 115.394531 22.910156 C 115.71875 23.160156 116.125 23.28125 116.605469 23.28125 C 117.335938 23.28125 118.003906 23.09375 118.617188 22.714844 C 119.242188 22.324219 119.554688 21.929688 119.554688 21.523438 Z M 119.613281 23.28125 C 119.144531 23.710938 118.636719 24.039062 118.089844 24.257812 C 117.542969 24.476562 116.976562 24.589844 116.390625 24.589844 C 115.542969 24.589844 114.859375 24.355469 114.339844 23.886719 C 113.820312 23.40625 113.558594 22.789062 113.558594 22.03125 C 113.558594 21.132812 113.902344 20.4375 114.59375 19.941406 C 115.285156 19.449219 116.261719 19.199219 117.523438 19.199219 C 117.847656 19.199219 118.179688 19.21875 118.519531 19.257812 C 118.859375 19.296875 119.203125 19.367188 119.554688 19.453125 L 119.554688 19.394531 C 119.554688 18.746094 119.398438 18.261719 119.085938 17.949219 C 118.773438 17.636719 118.285156 17.480469 117.621094 17.480469 C 117.179688 17.480469 116.683594 17.609375 116.136719 17.851562 C 115.589844 18.085938 115.226562 18.203125 115.042969 18.203125 C 114.886719 18.203125 114.75 18.140625 114.632812 18.007812 C 114.527344 17.867188 114.476562 17.691406 114.476562 17.480469 C 114.476562 17.144531 114.789062 16.855469 115.414062 16.621094 C 116.050781 16.386719 116.859375 16.269531 117.835938 16.269531 C 118.839844 16.269531 119.59375 16.53125 120.101562 17.050781 C 120.621094 17.558594 120.882812 18.3125 120.882812 19.296875 L 120.882812 23.164062 L 121.292969 23.164062 C 121.695312 23.164062 121.964844 23.210938 122.09375 23.300781 C 122.238281 23.378906 122.308594 23.53125 122.308594 23.75 C 122.308594 23.960938 122.25 24.117188 122.132812 24.21875 C 122.027344 24.328125 121.859375 24.375 121.625 24.375 L 120.277344 24.375 C 120.121094 24.375 119.992188 24.332031 119.886719 24.238281 C 119.78125 24.136719 119.71875 23.992188 119.691406 23.808594 Z M 119.613281 23.28125 "/>
<path style=" stroke:none;fill-rule:nonzero;fill:rgb(0%,0%,0%);fill-opacity:1;" d="M 130.722656 16.992188 L 130.722656 16.953125 C 130.722656 16.773438 130.769531 16.636719 130.878906 16.542969 C 130.996094 16.453125 131.160156 16.40625 131.386719 16.40625 C 131.621094 16.40625 131.78125 16.480469 131.875 16.621094 C 131.960938 16.753906 132.011719 17.03125 132.011719 17.460938 L 132.011719 19.042969 C 132.011719 19.265625 131.953125 19.429688 131.835938 19.53125 C 131.726562 19.640625 131.570312 19.6875 131.367188 19.6875 C 131.210938 19.6875 131.074219 19.644531 130.957031 19.550781 C 130.847656 19.460938 130.722656 19.277344 130.566406 19.003906 C 130.292969 18.535156 129.960938 18.183594 129.570312 17.949219 C 129.179688 17.714844 128.730469 17.597656 128.222656 17.597656 C 127.324219 17.597656 126.589844 17.867188 126.035156 18.398438 C 125.488281 18.921875 125.214844 19.589844 125.214844 20.410156 C 125.214844 21.269531 125.476562 21.96875 126.015625 22.5 C 126.546875 23.039062 127.230469 23.300781 128.066406 23.300781 C 128.457031 23.300781 128.816406 23.25 129.160156 23.144531 C 129.511719 23.042969 129.832031 22.886719 130.136719 22.675781 C 130.238281 22.613281 130.378906 22.507812 130.566406 22.363281 C 130.941406 22.066406 131.234375 21.914062 131.445312 21.914062 C 131.625 21.914062 131.765625 21.972656 131.875 22.089844 C 131.992188 22.195312 132.050781 22.335938 132.050781 22.5 C 132.050781 22.960938 131.621094 23.417969 130.761719 23.886719 C 129.910156 24.355469 129.007812 24.589844 128.046875 24.589844 C 126.804688 24.589844 125.78125 24.195312 124.960938 23.398438 C 124.140625 22.609375 123.730469 21.617188 123.730469 20.429688 C 123.730469 19.25 124.140625 18.257812 124.960938 17.460938 C 125.78125 16.671875 126.804688 16.269531 128.046875 16.269531 C 128.476562 16.269531 128.90625 16.328125 129.335938 16.445312 C 129.773438 16.5625 130.238281 16.75 130.722656 16.992188 Z M 130.722656 16.992188 "/>
<path style=" stroke:none;fill-rule:nonzero;fill:rgb(0%,0%,0%);fill-opacity:1;" d="M 135.441406 23.164062 L 135.441406 14.414062 L 135.285156 14.414062 C 134.894531 14.414062 134.625 14.371094 134.484375 14.277344 C 134.339844 14.1875 134.269531 14.03125 134.269531 13.808594 C 134.269531 13.601562 134.328125 13.445312 134.445312 13.339844 C 134.5625 13.238281 134.730469 13.183594 134.953125 13.183594 L 136.242188 13.183594 C 136.398438 13.183594 136.515625 13.21875 136.59375 13.28125 C 136.683594 13.351562 136.730469 13.433594 136.730469 13.535156 L 136.730469 17.402344 C 137.144531 17.027344 137.554688 16.75 137.960938 16.5625 C 138.375 16.367188 138.800781 16.269531 139.230469 16.269531 C 140.089844 16.269531 140.765625 16.539062 141.261719 17.070312 C 141.753906 17.609375 142.003906 18.351562 142.003906 19.296875 L 142.003906 23.164062 L 142.414062 23.164062 C 142.699219 23.164062 142.902344 23.21875 143.019531 23.320312 C 143.148438 23.414062 143.214844 23.554688 143.214844 23.75 C 143.214844 23.960938 143.15625 24.117188 143.039062 24.21875 C 142.921875 24.328125 142.75 24.375 142.53125 24.375 L 140.246094 24.375 C 139.984375 24.375 139.800781 24.332031 139.699219 24.238281 C 139.605469 24.148438 139.5625 23.984375 139.5625 23.75 C 139.5625 23.53125 139.621094 23.378906 139.738281 23.300781 C 139.855469 23.210938 140.074219 23.164062 140.402344 23.164062 L 140.714844 23.164062 L 140.714844 19.609375 C 140.714844 18.945312 140.558594 18.4375 140.246094 18.085938 C 139.945312 17.734375 139.507812 17.558594 138.9375 17.558594 C 138.351562 17.558594 137.835938 17.765625 137.394531 18.164062 C 136.949219 18.554688 136.730469 19.039062 136.730469 19.609375 L 136.730469 23.164062 L 137.042969 23.164062 C 137.378906 23.164062 137.609375 23.210938 137.726562 23.300781 C 137.84375 23.378906 137.902344 23.53125 137.902344 23.75 C 137.902344 23.984375 137.855469 24.148438 137.765625 24.238281 C 137.671875 24.332031 137.492188 24.375 137.21875 24.375 L 134.953125 24.375 C 134.730469 24.375 134.5625 24.328125 134.445312 24.21875 C 134.339844 24.117188 134.289062 23.960938 134.289062 23.75 C 134.289062 23.53125 134.351562 23.378906 134.484375 23.300781 C 134.613281 23.210938 134.875 23.164062 135.265625 23.164062 Z M 135.441406 23.164062 "/>
<path style=" stroke:none;fill-rule:nonzero;fill:rgb(0%,0%,0%);fill-opacity:1;" d="M 148.367188 14.023438 C 148.367188 13.398438 148.414062 13.007812 148.523438 12.851562 C 148.640625 12.695312 148.878906 12.617188 149.246094 12.617188 C 149.605469 12.617188 149.839844 12.691406 149.949219 12.832031 C 150.066406 12.964844 150.125 13.277344 150.125 13.769531 C 150.125 14.265625 150.070312 14.570312 149.96875 14.6875 C 149.859375 14.804688 149.621094 14.863281 149.246094 14.863281 C 148.878906 14.863281 148.640625 14.8125 148.523438 14.707031 C 148.414062 14.589844 148.367188 14.367188 148.367188 14.023438 Z M 149.949219 23.164062 L 152.703125 23.164062 C 152.921875 23.164062 153.082031 23.21875 153.191406 23.320312 C 153.292969 23.414062 153.347656 23.554688 153.347656 23.75 C 153.347656 23.984375 153.292969 24.148438 153.191406 24.238281 C 153.097656 24.332031 152.917969 24.375 152.644531 24.375 L 146.023438 24.375 C 145.789062 24.375 145.613281 24.328125 145.496094 24.21875 C 145.386719 24.117188 145.339844 23.960938 145.339844 23.75 C 145.339844 23.554688 145.398438 23.414062 145.515625 23.320312 C 145.632812 23.21875 145.808594 23.164062 146.042969 23.164062 L 148.660156 23.164062 L 148.660156 17.695312 L 147 17.695312 C 146.765625 17.695312 146.578125 17.648438 146.453125 17.539062 C 146.335938 17.4375 146.277344 17.28125 146.277344 17.070312 C 146.277344 16.875 146.324219 16.734375 146.433594 16.640625 C 146.550781 16.539062 146.726562 16.484375 146.960938 16.484375 L 149.460938 16.484375 C 149.617188 16.484375 149.734375 16.519531 149.8125 16.582031 C 149.898438 16.636719 149.949219 16.71875 149.949219 16.835938 Z M 149.949219 23.164062 "/>
<path style=" stroke:none;fill-rule:nonzero;fill:rgb(0%,0%,0%);fill-opacity:1;" d="M 156.484375 23.164062 L 156.484375 17.695312 L 156.328125 17.695312 C 155.9375 17.695312 155.667969 17.652344 155.527344 17.558594 C 155.382812 17.46875 155.3125 17.304688 155.3125 17.070312 C 155.3125 16.867188 155.371094 16.714844 155.488281 16.621094 C 155.605469 16.53125 155.792969 16.484375 156.054688 16.484375 L 157.285156 16.484375 C 157.441406 16.484375 157.558594 16.519531 157.636719 16.582031 C 157.726562 16.636719 157.773438 16.71875 157.773438 16.835938 L 157.773438 17.402344 C 158.1875 17.027344 158.597656 16.75 159.003906 16.5625 C 159.40625 16.367188 159.828125 16.269531 160.273438 16.269531 C 161.132812 16.269531 161.808594 16.539062 162.304688 17.070312 C 162.796875 17.609375 163.046875 18.351562 163.046875 19.296875 L 163.046875 23.164062 L 163.4375 23.164062 C 163.722656 23.164062 163.929688 23.21875 164.0625 23.320312 C 164.191406 23.414062 164.257812 23.554688 164.257812 23.75 C 164.257812 23.984375 164.183594 24.148438 164.042969 24.238281 C 163.910156 24.332031 163.675781 24.375 163.339844 24.375 L 161.445312 24.375 C 161.078125 24.375 160.84375 24.335938 160.742188 24.257812 C 160.636719 24.171875 160.585938 24 160.585938 23.75 C 160.585938 23.53125 160.644531 23.378906 160.761719 23.300781 C 160.890625 23.210938 161.117188 23.164062 161.445312 23.164062 L 161.738281 23.164062 L 161.738281 19.609375 C 161.738281 18.945312 161.585938 18.4375 161.289062 18.085938 C 160.988281 17.734375 160.550781 17.558594 159.980469 17.558594 C 159.394531 17.558594 158.878906 17.765625 158.4375 18.164062 C 157.992188 18.554688 157.773438 19.039062 157.773438 19.609375 L 157.773438 23.164062 L 158.066406 23.164062 C 158.417969 23.164062 158.652344 23.210938 158.769531 23.300781 C 158.886719 23.378906 158.945312 23.53125 158.945312 23.75 C 158.945312 24 158.890625 24.171875 158.789062 24.257812 C 158.683594 24.335938 158.4375 24.375 158.046875 24.375 L 156.015625 24.375 C 155.78125 24.375 155.605469 24.332031 155.488281 24.238281 C 155.371094 24.136719 155.3125 23.976562 155.3125 23.75 C 155.3125 23.53125 155.375 23.378906 155.507812 23.300781 C 155.648438 23.210938 155.917969 23.164062 156.308594 23.164062 Z M 156.484375 23.164062 "/>
<path style=" stroke:none;fill-rule:nonzero;fill:rgb(0%,0%,0%);fill-opacity:1;" d="M 167.28125 20.800781 C 167.320312 21.621094 167.59375 22.261719 168.101562 22.714844 C 168.617188 23.160156 169.316406 23.378906 170.191406 23.378906 C 170.863281 23.378906 171.597656 23.203125 172.378906 22.851562 C 173.160156 22.492188 173.632812 22.304688 173.804688 22.304688 C 173.96875 22.304688 174.117188 22.363281 174.234375 22.480469 C 174.351562 22.585938 174.410156 22.714844 174.410156 22.871094 C 174.410156 23.042969 174.339844 23.199219 174.214844 23.339844 C 174.097656 23.472656 173.90625 23.601562 173.648438 23.730469 C 173.070312 24.003906 172.480469 24.21875 171.871094 24.375 C 171.269531 24.515625 170.667969 24.589844 170.074219 24.589844 C 168.785156 24.589844 167.75 24.21875 166.96875 23.476562 C 166.1875 22.726562 165.796875 21.726562 165.796875 20.488281 C 165.796875 19.226562 166.207031 18.203125 167.027344 17.421875 C 167.855469 16.640625 168.929688 16.25 170.25 16.25 C 171.460938 16.25 172.457031 16.617188 173.238281 17.34375 C 174.027344 18.078125 174.429688 18.960938 174.429688 20 C 174.429688 20.3125 174.359375 20.527344 174.234375 20.644531 C 174.101562 20.75 173.734375 20.800781 173.140625 20.800781 Z M 167.320312 19.6875 L 172.886719 19.6875 C 172.792969 19.015625 172.503906 18.46875 172.027344 18.046875 C 171.542969 17.632812 170.953125 17.421875 170.25 17.421875 C 169.492188 17.421875 168.851562 17.625 168.335938 18.027344 C 167.828125 18.433594 167.484375 18.984375 167.320312 19.6875 Z M 167.320312 19.6875 "/>
<path style=" stroke:none;fill-rule:nonzero;fill:rgb(0%,0%,0%);fill-opacity:1;" d="M 191.621094 23.183594 C 192.429688 23.183594 193.078125 22.929688 193.574219 22.421875 C 194.082031 21.914062 194.335938 21.257812 194.335938 20.449219 C 194.335938 19.65625 194.082031 19.003906 193.574219 18.496094 C 193.066406 17.988281 192.414062 17.734375 191.621094 17.734375 C 190.828125 17.734375 190.175781 17.988281 189.667969 18.496094 C 189.171875 19.003906 188.925781 19.65625 188.925781 20.449219 C 188.925781 21.246094 189.171875 21.90625 189.667969 22.421875 C 190.175781 22.929688 190.828125 23.183594 191.621094 23.183594 Z M 188.964844 17.714844 C 189.277344 17.3125 189.675781 17.007812 190.15625 16.796875 C 190.636719 16.59375 191.179688 16.484375 191.777344 16.484375 C 192.921875 16.484375 193.875 16.871094 194.628906 17.636719 C 195.398438 18.40625 195.78125 19.367188 195.78125 20.507812 C 195.78125 21.632812 195.390625 22.578125 194.609375 23.359375 C 193.828125 24.140625 192.871094 24.53125 191.738281 24.53125 C 191.140625 24.53125 190.617188 24.421875 190.175781 24.21875 C 189.734375 24 189.367188 23.679688 189.082031 23.261719 L 189.082031 23.945312 C 189.082031 24.09375 189.054688 24.199219 189.003906 24.277344 C 188.953125 24.34375 188.859375 24.375 188.730469 24.375 L 187.167969 24.375 C 186.945312 24.375 186.785156 24.328125 186.679688 24.21875 C 186.574219 24.117188 186.523438 23.960938 186.523438 23.75 C 186.523438 23.53125 186.589844 23.378906 186.71875 23.300781 C 186.847656 23.210938 187.109375 23.164062 187.5 23.164062 L 187.675781 23.164062 L 187.675781 14.414062 L 187.5 14.414062 C 187.121094 14.414062 186.863281 14.371094 186.71875 14.277344 C 186.574219 14.1875 186.503906 14.03125 186.503906 13.808594 C 186.503906 13.601562 186.554688 13.445312 186.660156 13.339844 C 186.777344 13.238281 186.945312 13.183594 187.167969 13.183594 L 188.476562 13.183594 C 188.644531 13.183594 188.769531 13.21875 188.847656 13.28125 C 188.925781 13.335938 188.964844 13.417969 188.964844 13.535156 Z M 188.964844 17.714844 "/>
<path style=" stroke:none;fill-rule:nonzero;fill:rgb(0%,0%,0%);fill-opacity:1;" d="M 201.03125 26.5625 L 201.402344 26.5625 C 201.816406 26.5625 202.09375 26.605469 202.242188 26.699219 C 202.382812 26.789062 202.457031 26.953125 202.457031 27.1875 C 202.457031 27.382812 202.398438 27.53125 202.28125 27.636719 C 202.164062 27.738281 201.992188 27.792969 201.773438 27.792969 L 197.847656 27.792969 C 197.574219 27.792969 197.382812 27.742188 197.28125 27.65625 C 197.171875 27.5625 197.125 27.40625 197.125 27.1875 C 197.125 26.976562 197.171875 26.820312 197.28125 26.71875 C 197.398438 26.609375 197.5625 26.5625 197.789062 26.5625 L 199.644531 26.5625 L 201.03125 23.828125 L 197.886719 17.695312 C 197.503906 17.695312 197.246094 17.652344 197.105469 17.558594 C 196.972656 17.46875 196.910156 17.304688 196.910156 17.070312 C 196.910156 16.875 196.957031 16.734375 197.066406 16.640625 C 197.183594 16.539062 197.359375 16.484375 197.59375 16.484375 L 199.976562 16.484375 C 200.296875 16.484375 200.511719 16.53125 200.621094 16.621094 C 200.722656 16.699219 200.777344 16.851562 200.777344 17.070312 C 200.777344 17.304688 200.703125 17.46875 200.5625 17.558594 C 200.414062 17.652344 200.15625 17.695312 199.78125 17.695312 L 199.46875 17.695312 L 201.773438 22.402344 L 204.136719 17.695312 L 203.804688 17.695312 C 203.414062 17.695312 203.140625 17.652344 202.984375 17.558594 C 202.835938 17.46875 202.769531 17.304688 202.769531 17.070312 C 202.769531 16.851562 202.816406 16.699219 202.925781 16.621094 C 203.042969 16.53125 203.261719 16.484375 203.589844 16.484375 L 205.699219 16.484375 C 205.933594 16.484375 206.097656 16.539062 206.207031 16.640625 C 206.324219 16.734375 206.382812 16.875 206.382812 17.070312 C 206.382812 17.296875 206.3125 17.453125 206.1875 17.539062 C 206.054688 17.632812 205.835938 17.6875 205.523438 17.695312 Z M 201.03125 26.5625 "/>
<path style=" stroke:none;fill-rule:nonzero;fill:rgb(0%,0%,0%);fill-opacity:1;" d="M 219.457031 23.164062 L 219.457031 14.414062 L 219.300781 14.414062 C 218.910156 14.414062 218.640625 14.371094 218.5 14.277344 C 218.351562 14.1875 218.285156 14.03125 218.285156 13.808594 C 218.285156 13.601562 218.34375 13.445312 218.460938 13.339844 C 218.578125 13.238281 218.742188 13.183594 218.96875 13.183594 L 220.257812 13.183594 C 220.414062 13.183594 220.53125 13.21875 220.609375 13.28125 C 220.695312 13.351562 220.746094 13.433594 220.746094 13.535156 L 220.746094 17.402344 C 221.160156 17.027344 221.570312 16.75 221.976562 16.5625 C 222.390625 16.367188 222.816406 16.269531 223.246094 16.269531 C 224.105469 16.269531 224.777344 16.539062 225.277344 17.070312 C 225.769531 17.609375 226.019531 18.351562 226.019531 19.296875 L 226.019531 23.164062 L 226.429688 23.164062 C 226.710938 23.164062 226.917969 23.21875 227.035156 23.320312 C 227.160156 23.414062 227.230469 23.554688 227.230469 23.75 C 227.230469 23.960938 227.171875 24.117188 227.054688 24.21875 C 226.9375 24.328125 226.765625 24.375 226.546875 24.375 L 224.261719 24.375 C 223.996094 24.375 223.816406 24.332031 223.714844 24.238281 C 223.621094 24.148438 223.578125 23.984375 223.578125 23.75 C 223.578125 23.53125 223.636719 23.378906 223.753906 23.300781 C 223.871094 23.210938 224.089844 23.164062 224.417969 23.164062 L 224.730469 23.164062 L 224.730469 19.609375 C 224.730469 18.945312 224.574219 18.4375 224.261719 18.085938 C 223.957031 17.734375 223.523438 17.558594 222.953125 17.558594 C 222.367188 17.558594 221.847656 17.765625 221.410156 18.164062 C 220.964844 18.554688 220.746094 19.039062 220.746094 19.609375 L 220.746094 23.164062 L 221.058594 23.164062 C 221.394531 23.164062 221.625 23.210938 221.742188 23.300781 C 221.859375 23.378906 221.917969 23.53125 221.917969 23.75 C 221.917969 23.984375 221.867188 24.148438 221.78125 24.238281 C 221.6875 24.332031 221.507812 24.375 221.234375 24.375 L 218.96875 24.375 C 218.742188 24.375 218.578125 24.328125 218.460938 24.21875 C 218.351562 24.117188 218.304688 23.960938 218.304688 23.75 C 218.304688 23.53125 218.367188 23.378906 218.5 23.300781 C 218.625 23.210938 218.890625 23.164062 219.28125 23.164062 Z M 219.457031 23.164062 "/>
<path style=" stroke:none;fill-rule:nonzero;fill:rgb(0%,0%,0%);fill-opacity:1;" d="M 243.429688 17.734375 C 242.6875 17.734375 242.070312 17.96875 241.59375 18.4375 C 241.125 18.898438 240.890625 19.492188 240.890625 20.234375 C 240.890625 20.953125 241.125 21.542969 241.59375 22.011719 C 242.070312 22.480469 242.6875 22.714844 243.429688 22.714844 C 244.171875 22.714844 244.777344 22.480469 245.246094 22.011719 C 245.722656 21.542969 245.96875 20.953125 245.96875 20.234375 C 245.96875 19.507812 245.722656 18.90625 245.246094 18.4375 C 244.777344 17.96875 244.171875 17.734375 243.429688 17.734375 Z M 247.140625 23.925781 C 247.140625 24.71875 247.101562 25.277344 247.023438 25.605469 C 246.945312 25.941406 246.808594 26.242188 246.613281 26.503906 C 246.300781 26.917969 245.851562 27.234375 245.265625 27.460938 C 244.6875 27.679688 244.015625 27.792969 243.234375 27.792969 C 242.578125 27.792969 242.105469 27.726562 241.808594 27.597656 C 241.519531 27.464844 241.378906 27.265625 241.378906 26.992188 C 241.378906 26.820312 241.445312 26.664062 241.59375 26.523438 C 241.734375 26.390625 241.90625 26.328125 242.101562 26.328125 C 242.257812 26.328125 242.492188 26.347656 242.804688 26.386719 C 243.125 26.4375 243.375 26.464844 243.546875 26.464844 C 244.375 26.464844 244.972656 26.269531 245.324219 25.878906 C 245.683594 25.488281 245.871094 24.824219 245.871094 23.886719 L 245.871094 22.851562 C 245.519531 23.257812 245.128906 23.554688 244.699219 23.75 C 244.277344 23.9375 243.800781 24.023438 243.253906 24.023438 C 242.183594 24.023438 241.300781 23.671875 240.597656 22.96875 C 239.902344 22.257812 239.5625 21.359375 239.5625 20.273438 C 239.5625 19.179688 239.917969 18.277344 240.636719 17.558594 C 241.347656 16.832031 242.242188 16.464844 243.3125 16.464844 C 243.75 16.464844 244.179688 16.554688 244.601562 16.71875 C 245.015625 16.875 245.441406 17.117188 245.871094 17.441406 L 245.871094 16.835938 C 245.871094 16.710938 245.898438 16.617188 245.96875 16.5625 C 246.046875 16.515625 246.167969 16.484375 246.339844 16.484375 L 247.628906 16.484375 C 247.863281 16.484375 248.027344 16.539062 248.136719 16.640625 C 248.253906 16.734375 248.3125 16.875 248.3125 17.070312 C 248.3125 17.304688 248.238281 17.46875 248.097656 17.558594 C 247.949219 17.652344 247.6875 17.695312 247.296875 17.695312 L 247.140625 17.695312 Z M 247.140625 23.925781 "/>
<path style=" stroke:none;fill-rule:nonzero;fill:rgb(0%,0%,0%);fill-opacity:1;" d="M 264.628906 20.039062 L 263.535156 24.101562 C 263.464844 24.3125 263.378906 24.453125 263.261719 24.53125 C 263.152344 24.617188 262.988281 24.667969 262.753906 24.667969 C 262.542969 24.667969 262.382812 24.613281 262.265625 24.511719 C 262.15625 24.40625 262.058594 24.214844 261.972656 23.925781 L 260.019531 17.695312 L 259.941406 17.695312 C 259.691406 17.695312 259.515625 17.652344 259.414062 17.558594 C 259.308594 17.457031 259.257812 17.296875 259.257812 17.070312 C 259.257812 16.875 259.316406 16.734375 259.433594 16.640625 C 259.535156 16.539062 259.695312 16.484375 259.921875 16.484375 L 262.207031 16.484375 C 262.503906 16.484375 262.703125 16.53125 262.8125 16.621094 C 262.929688 16.699219 262.988281 16.851562 262.988281 17.070312 C 262.988281 17.21875 262.953125 17.339844 262.890625 17.441406 C 262.820312 17.535156 262.742188 17.59375 262.65625 17.617188 C 262.5625 17.648438 262.449219 17.664062 262.324219 17.675781 C 262.191406 17.691406 262.035156 17.695312 261.855469 17.695312 L 261.347656 17.695312 L 262.832031 22.8125 L 263.925781 19.101562 C 263.988281 18.882812 264.070312 18.730469 264.179688 18.652344 C 264.296875 18.5625 264.472656 18.515625 264.707031 18.515625 C 264.902344 18.515625 265.058594 18.574219 265.175781 18.691406 C 265.292969 18.796875 265.394531 18.984375 265.488281 19.257812 L 266.5625 22.8125 L 267.96875 17.695312 L 267.402344 17.695312 C 267.011719 17.695312 266.742188 17.652344 266.601562 17.558594 C 266.46875 17.46875 266.40625 17.304688 266.40625 17.070312 C 266.40625 16.851562 266.449219 16.699219 266.542969 16.621094 C 266.644531 16.53125 266.84375 16.484375 267.148438 16.484375 L 269.433594 16.484375 C 269.613281 16.484375 269.746094 16.539062 269.824219 16.640625 C 269.910156 16.734375 269.960938 16.875 269.960938 17.070312 C 269.960938 17.296875 269.90625 17.453125 269.804688 17.539062 C 269.710938 17.632812 269.519531 17.6875 269.238281 17.695312 L 267.304688 24.101562 C 267.234375 24.3125 267.148438 24.453125 267.03125 24.53125 C 266.921875 24.617188 266.761719 24.667969 266.542969 24.667969 C 266.332031 24.667969 266.160156 24.609375 266.035156 24.492188 C 265.917969 24.382812 265.820312 24.199219 265.742188 23.925781 Z M 264.628906 20.039062 "/>
<path style=" stroke:none;fill-rule:nonzero;fill:rgb(0%,0%,0%);fill-opacity:1;" d="M 272.296875 20.800781 C 272.335938 21.621094 272.609375 22.261719 273.117188 22.714844 C 273.636719 23.160156 274.332031 23.378906 275.207031 23.378906 C 275.882812 23.378906 276.613281 23.203125 277.394531 22.851562 C 278.175781 22.492188 278.648438 22.304688 278.820312 22.304688 C 278.988281 22.304688 279.132812 22.363281 279.25 22.480469 C 279.367188 22.585938 279.425781 22.714844 279.425781 22.871094 C 279.425781 23.042969 279.359375 23.199219 279.230469 23.339844 C 279.113281 23.472656 278.921875 23.601562 278.664062 23.730469 C 278.089844 24.003906 277.496094 24.21875 276.886719 24.375 C 276.285156 24.515625 275.6875 24.589844 275.089844 24.589844 C 273.800781 24.589844 272.765625 24.21875 271.984375 23.476562 C 271.203125 22.726562 270.8125 21.726562 270.8125 20.488281 C 270.8125 19.226562 271.222656 18.203125 272.042969 17.421875 C 272.875 16.640625 273.949219 16.25 275.265625 16.25 C 276.476562 16.25 277.472656 16.617188 278.253906 17.34375 C 279.046875 18.078125 279.445312 18.960938 279.445312 20 C 279.445312 20.3125 279.378906 20.527344 279.25 20.644531 C 279.117188 20.75 278.753906 20.800781 278.15625 20.800781 Z M 272.335938 19.6875 L 277.902344 19.6875 C 277.808594 19.015625 277.523438 18.46875 277.042969 18.046875 C 276.558594 17.632812 275.96875 17.421875 275.265625 17.421875 C 274.507812 17.421875 273.871094 17.625 273.351562 18.027344 C 272.84375 18.433594 272.503906 18.984375 272.335938 19.6875 Z M 272.335938 19.6875 "/>
<path style=" stroke:none;fill-rule:nonzero;fill:rgb(0%,0%,0%);fill-opacity:1;" d="M 285.101562 14.414062 L 283.65625 14.414062 C 283.109375 14.414062 282.765625 14.375 282.621094 14.296875 C 282.476562 14.210938 282.40625 14.042969 282.40625 13.808594 C 282.40625 13.601562 282.464844 13.445312 282.582031 13.339844 C 282.699219 13.238281 282.867188 13.183594 283.089844 13.183594 L 285.902344 13.183594 C 286.058594 13.183594 286.175781 13.21875 286.253906 13.28125 C 286.34375 13.351562 286.390625 13.433594 286.390625 13.535156 L 286.390625 23.164062 L 289.085938 23.164062 C 289.292969 23.164062 289.449219 23.21875 289.554688 23.320312 C 289.660156 23.414062 289.710938 23.554688 289.710938 23.75 C 289.710938 23.984375 289.660156 24.148438 289.554688 24.238281 C 289.464844 24.332031 289.28125 24.375 289.007812 24.375 L 282.699219 24.375 C 282.476562 24.375 282.308594 24.328125 282.191406 24.21875 C 282.074219 24.117188 282.015625 23.960938 282.015625 23.75 C 282.015625 23.554688 282.074219 23.414062 282.191406 23.320312 C 282.320312 23.21875 282.503906 23.164062 282.738281 23.164062 L 285.101562 23.164062 Z M 285.101562 14.414062 "/>
<path style=" stroke:none;fill-rule:nonzero;fill:rgb(0%,0%,0%);fill-opacity:1;" d="M 295.605469 14.414062 L 294.160156 14.414062 C 293.613281 14.414062 293.265625 14.375 293.125 14.296875 C 292.976562 14.210938 292.910156 14.042969 292.910156 13.808594 C 292.910156 13.601562 292.96875 13.445312 293.085938 13.339844 C 293.203125 13.238281 293.367188 13.183594 293.59375 13.183594 L 296.40625 13.183594 C 296.5625 13.183594 296.679688 13.21875 296.757812 13.28125 C 296.84375 13.351562 296.894531 13.433594 296.894531 13.535156 L 296.894531 23.164062 L 299.589844 23.164062 C 299.792969 23.164062 299.949219 23.21875 300.058594 23.320312 C 300.160156 23.414062 300.214844 23.554688 300.214844 23.75 C 300.214844 23.984375 300.160156 24.148438 300.058594 24.238281 C 299.964844 24.332031 299.785156 24.375 299.511719 24.375 L 293.203125 24.375 C 292.976562 24.375 292.8125 24.328125 292.695312 24.21875 C 292.578125 24.117188 292.519531 23.960938 292.519531 23.75 C 292.519531 23.554688 292.578125 23.414062 292.695312 23.320312 C 292.820312 23.21875 293.007812 23.164062 293.242188 23.164062 L 295.605469 23.164062 Z M 295.605469 14.414062 "/>
<path style="fill:none;stroke-width:1;stroke-linecap:round;stroke-linejoin:miter;stroke:rgb(0%,0%,0%);stroke-opacity:1;stroke-miterlimit:10;" d="M -101.21875 208.35 L 127.1 208.35 " transform="matrix(1.25,0,0,1.25,135,-163.75)"/>
<path style="fill-rule:nonzero;fill:rgb(0%,0%,0%);fill-opacity:1;stroke-width:1;stroke-linecap:butt;stroke-linejoin:miter;stroke:rgb(0%,0%,0%);stroke-opacity:1;stroke-miterlimit:10;" d="M 131.1 208.35 L 127.1 206.85 L 127.1 209.85 Z M 131.1 208.35 " transform="matrix(1.25,0,0,1.25,135,-163.75)"/>
<path style="fill:none;stroke-width:1;stroke-linecap:round;stroke-linejoin:miter;stroke:rgb(0%,0%,0%);stroke-opacity:1;stroke-miterlimit:10;" d="M -101.21875 171.575 L -81.9 171.575 " transform="matrix(1.25,0,0,1.25,135,-163.75)"/>
<path style="fill-rule:nonzero;fill:rgb(0%,0%,0%);fill-opacity:1;stroke-width:1;stroke-linecap:butt;stroke-linejoin:miter;stroke:rgb(0%,0%,0%);stroke-opacity:1;stroke-miterlimit:10;" d="M -77.9 171.575 L -81.9 170.075 L -81.9 173.075 Z M -77.9 171.575 " transform="matrix(1.25,0,0,1.25,135,-163.75)"/>
<path style="fill:none;stroke-width:1;stroke-linecap:round;stroke-linejoin:miter;stroke:rgb(0%,0%,0%);stroke-opacity:1;stroke-miterlimit:10;" d="M -76 171.5 L -41.11875 171.5625 " transform="matrix(1.25,0,0,1.25,135,-163.75)"/>
<path style="fill-rule:nonzero;fill:rgb(0%,0%,0%);fill-opacity:1;stroke-width:1;stroke-linecap:butt;stroke-linejoin:miter;stroke:rgb(0%,0%,0%);stroke-opacity:1;stroke-miterlimit:10;" d="M -37.11875 171.56875 L -41.11875 170.0625 L -41.121875 173.0625 Z M -37.11875 171.56875 " transform="matrix(1.25,0,0,1.25,135,-163.75)"/>
<path style="fill:none;stroke-width:1;stroke-linecap:round;stroke-linejoin:miter;stroke:rgb(0%,0%,0%);stroke-opacity:1;stroke-miterlimit:10;" d="M -34.6875 171.575 L -22.4 171.575 " transform="matrix(1.25,0,0,1.25,135,-163.75)"/>
<path style="fill-rule:nonzero;fill:rgb(0%,0%,0%);fill-opacity:1;stroke-width:1;stroke-linecap:butt;stroke-linejoin:miter;stroke:rgb(0%,0%,0%);stroke-opacity:1;stroke-miterlimit:10;" d="M -18.4 171.575 L -22.4 170.075 L -22.4 173.075 Z M -18.4 171.575 " transform="matrix(1.25,0,0,1.25,135,-163.75)"/>
<path style="fill:none;stroke-width:1;stroke-linecap:round;stroke-linejoin:miter;stroke:rgb(0%,0%,0%);stroke-opacity:1;stroke-miterlimit:10;" d="M -16.5 171.5 L 33.721875 171.5 " transform="matrix(1.25,0,0,1.25,135,-163.75)"/>
<path style="fill-rule:nonzero;fill:rgb(0%,0%,0%);fill-opacity:1;stroke-width:1;stroke-linecap:butt;stroke-linejoin:miter;stroke:rgb(0%,0%,0%);stroke-opacity:1;stroke-miterlimit:10;" d="M 37.721875 171.5 L 33.721875 170 L 33.721875 173 Z M 37.721875 171.5 " transform="matrix(1.25,0,0,1.25,135,-163.75)"/>
<path style="fill:none;stroke-width:1;stroke-linecap:round;stroke-linejoin:miter;stroke:rgb(0%,0%,0%);stroke-opacity:1;stroke-miterlimit:10;" d="M 39.625 171.5 L 51.909375 171.5 " transform="matrix(1.25,0,0,1.25,135,-163.75)"/>
<path style="fill-rule:nonzero;fill:rgb(0%,0%,0%);fill-opacity:1;stroke-width:1;stroke-linecap:butt;stroke-linejoin:miter;stroke:rgb(0%,0%,0%);stroke-opacity:1;stroke-miterlimit:10;" d="M 55.909375 171.5 L 51.909375 170 L 51.909375 173 Z M 55.909375 171.5 " transform="matrix(1.25,0,0,1.25,135,-163.75)"/>
<path style="fill:none;stroke-width:1;stroke-linecap:round;stroke-linejoin:miter;stroke:rgb(0%,0%,0%);stroke-opacity:1;stroke-miterlimit:10;" d="M 57.8125 171.575 L 84.909375 171.575 " transform="matrix(1.25,0,0,1.25,135,-163.75)"/>
<path style="fill-rule:nonzero;fill:rgb(0%,0%,0%);fill-opacity:1;stroke-width:1;stroke-linecap:butt;stroke-linejoin:miter;stroke:rgb(0%,0%,0%);stroke-opacity:1;stroke-miterlimit:10;" d="M 88.909375 171.575 L 84.909375 170.075 L 84.909375 173.075 Z M 88.909375 171.575 " transform="matrix(1.25,0,0,1.25,135,-163.75)"/>
<path style="fill:none;stroke-width:1;stroke-linecap:round;stroke-linejoin:miter;stroke:rgb(0%,0%,0%);stroke-opacity:1;stroke-miterlimit:10;" d="M 90.8125 171.575 L 117.909375 171.575 " transform="matrix(1.25,0,0,1.25,135,-163.75)"/>
<path style="fill-rule:nonzero;fill:rgb(0%,0%,0%);fill-opacity:1;stroke-width:1;stroke-linecap:butt;stroke-linejoin:miter;stroke:rgb(0%,0%,0%);stroke-opacity:1;stroke-miterlimit:10;" d="M 121.909375 171.575 L 117.909375 170.075 L 117.909375 173.075 Z M 121.909375 171.575 " transform="matrix(1.25,0,0,1.25,135,-163.75)"/>
<path style="fill:none;stroke-width:1;stroke-linecap:round;stroke-linejoin:miter;stroke:rgb(0%,0%,0%);stroke-opacity:1;stroke-miterlimit:10;" d="M -101.21875 189.925 L -74.11875 189.925 " transform="matrix(1.25,0,0,1.25,135,-163.75)"/>
<path style="fill-rule:nonzero;fill:rgb(0%,0%,0%);fill-opacity:1;stroke-width:1;stroke-linecap:butt;stroke-linejoin:miter;stroke:rgb(0%,0%,0%);stroke-opacity:1;stroke-miterlimit:10;" d="M -70.11875 189.925 L -74.11875 188.425 L -74.11875 191.425 Z M -70.11875 189.925 " transform="matrix(1.25,0,0,1.25,135,-163.75)"/>
<path style="fill:none;stroke-width:1;stroke-linecap:round;stroke-linejoin:miter;stroke:rgb(0%,0%,0%);stroke-opacity:1;stroke-miterlimit:10;" d="M -68.21875 189.925 L -41.11875 189.925 " transform="matrix(1.25,0,0,1.25,135,-163.75)"/>
<path style="fill-rule:nonzero;fill:rgb(0%,0%,0%);fill-opacity:1;stroke-width:1;stroke-linecap:butt;stroke-linejoin:miter;stroke:rgb(0%,0%,0%);stroke-opacity:1;stroke-miterlimit:10;" d="M -37.11875 189.925 L -41.11875 188.425 L -41.11875 191.425 Z M -37.11875 189.925 " transform="matrix(1.25,0,0,1.25,135,-163.75)"/>
<path style="fill:none;stroke-width:1;stroke-linecap:round;stroke-linejoin:miter;stroke:rgb(0%,0%,0%);stroke-opacity:1;stroke-miterlimit:10;" d="M -34.6875 189.925 L -7.590625 189.925 " transform="matrix(1.25,0,0,1.25,135,-163.75)"/>
<path style="fill-rule:nonzero;fill:rgb(0%,0%,0%);fill-opacity:1;stroke-width:1;stroke-linecap:butt;stroke-linejoin:miter;stroke:rgb(0%,0%,0%);stroke-opacity:1;stroke-miterlimit:10;" d="M -3.590625 189.925 L -7.590625 188.425 L -7.590625 191.425 Z M -3.590625 189.925 " transform="matrix(1.25,0,0,1.25,135,-163.75)"/>
<path style="fill:none;stroke-width:1;stroke-linecap:round;stroke-linejoin:miter;stroke:rgb(0%,0%,0%);stroke-opacity:1;stroke-miterlimit:10;" d="M -1.6875 189.925 L 25.409375 189.925 " transform="matrix(1.25,0,0,1.25,135,-163.75)"/>
<path style="fill-rule:nonzero;fill:rgb(0%,0%,0%);fill-opacity:1;stroke-width:1;stroke-linecap:butt;stroke-linejoin:miter;stroke:rgb(0%,0%,0%);stroke-opacity:1;stroke-miterlimit:10;" d="M 29.409375 189.925 L 25.409375 188.425 L 25.409375 191.425 Z M 29.409375 189.925 " transform="matrix(1.25,0,0,1.25,135,-163.75)"/>
<path style="fill:none;stroke-width:1;stroke-linecap:round;stroke-linejoin:miter;stroke:rgb(0%,0%,0%);stroke-opacity:1;stroke-miterlimit:10;" d="M 31.84375 189.925 L 58.940625 189.925 " transform="matrix(1.25,0,0,1.25,135,-163.75)"/>
<path style="fill-rule:nonzero;fill:rgb(0%,0%,0%);fill-opacity:1;stroke-width:1;stroke-linecap:butt;stroke-linejoin:miter;stroke:rgb(0%,0%,0%);stroke-opacity:1;stroke-miterlimit:10;" d="M 62.940625 189.925 L 58.940625 188.425 L 58.940625 191.425 Z M 62.940625 189.925 " transform="matrix(1.25,0,0,1.25,135,-163.75)"/>
<path style="fill:none;stroke-width:1;stroke-linecap:round;stroke-linejoin:miter;stroke:rgb(0%,0%,0%);stroke-opacity:1;stroke-miterlimit:10;" d="M 65.03125 189.925 L 92.13125 189.925 " transform="matrix(1.25,0,0,1.25,135,-163.75)"/>
<path style="fill-rule:nonzero;fill:rgb(0%,0%,0%);fill-opacity:1;stroke-width:1;stroke-linecap:butt;stroke-linejoin:miter;stroke:rgb(0%,0%,0%);stroke-opacity:1;stroke-miterlimit:10;" d="M 96.13125 189.925 L 92.13125 188.425 L 92.13125 191.425 Z M 96.13125 189.925 " transform="matrix(1.25,0,0,1.25,135,-163.75)"/>
<path style="fill:none;stroke-width:1;stroke-linecap:round;stroke-linejoin:miter;stroke:rgb(0%,0%,0%);stroke-opacity:1;stroke-miterlimit:10;" d="M 99.28125 189.925 L 126.38125 189.925 " transform="matrix(1.25,0,0,1.25,135,-163.75)"/>
<path style="fill-rule:nonzero;fill:rgb(0%,0%,0%);fill-opacity:1;stroke-width:1;stroke-linecap:butt;stroke-linejoin:miter;stroke:rgb(0%,0%,0%);stroke-opacity:1;stroke-miterlimit:10;" d="M 130.38125 189.925 L 126.38125 188.425 L 126.38125 191.425 Z M 130.38125 189.925 " transform="matrix(1.25,0,0,1.25,135,-163.75)"/>
<path style="fill:none;stroke-width:1;stroke-linecap:round;stroke-linejoin:miter;stroke:rgb(0%,0%,0%);stroke-opacity:1;stroke-miterlimit:10;" d="M 123.8125 171.575 L 126.38125 171.55 " transform="matrix(1.25,0,0,1.25,135,-163.75)"/>
<path style="fill-rule:nonzero;fill:rgb(0%,0%,0%);fill-opacity:1;stroke-width:1;stroke-linecap:butt;stroke-linejoin:miter;stroke:rgb(0%,0%,0%);stroke-opacity:1;stroke-miterlimit:10;" d="M 130.38125 171.515625 L 126.36875 170.05 L 126.39375 173.05 Z M 130.38125 171.515625 " transform="matrix(1.25,0,0,1.25,135,-163.75)"/>
</g>
</svg>
