<?xml version="1.0" encoding="UTF-8"?>
<svg xmlns="http://www.w3.org/2000/svg" xmlns:xlink="http://www.w3.org/1999/xlink" width="310pt" height="226pt" viewBox="0 0 310 226" version="1.1">
<defs>
<clipPath id="clip1">
  <path d="M 67 9 L 69 9 L 69 178.875 L 67 178.875 Z M 67 9 "/>
</clipPath>
<clipPath id="clip2">
  <path d="M 116 9 L 119 9 L 119 178.875 L 116 178.875 Z M 116 9 "/>
</clipPath>
<clipPath id="clip3">
  <path d="M 166 9 L 168 9 L 168 178.875 L 166 178.875 Z M 166 9 "/>
</clipPath>
<clipPath id="clip4">
  <path d="M 216 9 L 218 9 L 218 178.875 L 216 178.875 Z M 216 9 "/>
</clipPath>
<clipPath id="clip5">
  <path d="M 265 9 L 268 9 L 268 178.875 L 265 178.875 Z M 265 9 "/>
</clipPath>
<clipPath id="clip6">
  <path d="M 56.847656 170 L 300.972656 170 L 300.972656 172 L 56.847656 172 Z M 56.847656 170 "/>
</clipPath>
<clipPath id="clip7">
  <path d="M 56.847656 124 L 300.972656 124 L 300.972656 126 L 56.847656 126 Z M 56.847656 124 "/>
</clipPath>
<clipPath id="clip8">
  <path d="M 56.847656 78 L 300.972656 78 L 300.972656 80 L 56.847656 80 Z M 56.847656 78 "/>
</clipPath>
<clipPath id="clip9">
  <path d="M 56.847656 32 L 300.972656 32 L 300.972656 34 L 56.847656 34 Z M 56.847656 32 "/>
</clipPath>
<clipPath id="clip10">
  <path d="M 56.847656 26 L 251 26 L 251 173 L 56.847656 173 Z M 56.847656 26 "/>
</clipPath>
<clipPath id="clip11">
  <path d="M 56.847656 67 L 283 67 L 283 173 L 56.847656 173 Z M 56.847656 67 "/>
</clipPath>
<clipPath id="clip12">
  <path d="M 56.847656 102 L 291 102 L 291 173 L 56.847656 173 Z M 56.847656 102 "/>
</clipPath>
<filter id="alpha" filterUnits="objectBoundingBox" x="0%" y="0%" width="100%" height="100%">
  <feColorMatrix type="matrix" in="SourceGraphic" values="0 0 0 0 1 0 0 0 0 1 0 0 0 0 1 0 0 0 1 0"/>
</filter>
<mask id="mask0">
  <g filter="url(#alpha)">
<rect x="0" y="0" width="310" height="226" style="fill:rgb(0%,0%,0%);fill-opacity:0.8;stroke:none;"/>
  </g>
</mask>
<clipPath id="clip13">
  <rect x="0" y="0" width="310" height="226"/>
</clipPath>
<g id="surface5" clip-path="url(#clip13)">
<path style="fill-rule:nonzero;fill:rgb(100%,100%,100%);fill-opacity:1;stroke-width:1;stroke-linecap:butt;stroke-linejoin:miter;stroke:rgb(80%,80%,80%);stroke-opacity:1;stroke-miterlimit:4;" d="M 159.996875 59.234375 L 233.778125 59.234375 C 235.1125 59.234375 235.778125 58.56875 235.778125 57.234375 L 235.778125 14.2 C 235.778125 12.865625 235.1125 12.2 233.778125 12.2 L 159.996875 12.2 C 158.6625 12.2 157.996875 12.865625 157.996875 14.2 L 157.996875 57.234375 C 157.996875 58.56875 158.6625 59.234375 159.996875 59.234375 Z M 159.996875 59.234375 " transform="matrix(1.25,0,0,1.25,0,0)"/>
</g>
</defs>
<g id="surface1">
<path style=" stroke:none;fill-rule:nonzero;fill:rgb(100%,100%,100%);fill-opacity:1;" d="M 56.847656 178.875 L 300.972656 178.875 L 300.972656 9 L 56.847656 9 Z M 56.847656 178.875 "/>
<g clip-path="url(#clip1)" clip-rule="nonzero">
<path style="fill:none;stroke-width:0.8;stroke-linecap:square;stroke-linejoin:round;stroke:rgb(69.019608%,69.019608%,69.019608%);stroke-opacity:1;stroke-miterlimit:4;" d="M 54.35625 143.1 L 54.35625 7.2 " transform="matrix(1.25,0,0,1.25,0,0)"/>
</g>
<path style="fill:none;stroke-width:0.8;stroke-linecap:butt;stroke-linejoin:round;stroke:rgb(0%,0%,0%);stroke-opacity:1;stroke-miterlimit:4;" d="M 0.000852 0 L 0.000852 3.5 " transform="matrix(1.25,0,0,1.25,67.944248,178.875)"/>
<path style=" stroke:none;fill-rule:nonzero;fill:rgb(0%,0%,0%);fill-opacity:1;" d="M 58.496094 195.992188 L 60.507812 195.992188 L 60.507812 189.039062 L 58.316406 189.476562 L 58.316406 188.355469 L 60.496094 187.914062 L 61.730469 187.914062 L 61.730469 195.992188 L 63.742188 195.992188 L 63.742188 197.027344 L 58.496094 197.027344 Z M 58.496094 195.992188 "/>
<path style=" stroke:none;fill-rule:nonzero;fill:rgb(0%,0%,0%);fill-opacity:1;" d="M 68.871094 188.726562 C 68.234375 188.726562 67.757812 189.039062 67.4375 189.664062 C 67.117188 190.289062 66.960938 191.226562 66.960938 192.480469 C 66.960938 193.730469 67.117188 194.667969 67.4375 195.292969 C 67.757812 195.917969 68.234375 196.230469 68.871094 196.230469 C 69.507812 196.230469 69.988281 195.917969 70.308594 195.292969 C 70.628906 194.667969 70.789062 193.730469 70.789062 192.480469 C 70.789062 191.226562 70.628906 190.289062 70.308594 189.664062 C 69.988281 189.039062 69.507812 188.726562 68.871094 188.726562 Z M 68.871094 187.75 C 69.890625 187.75 70.671875 188.15625 71.210938 188.964844 C 71.75 189.769531 72.019531 190.941406 72.019531 192.480469 C 72.019531 194.015625 71.75 195.1875 71.210938 195.996094 C 70.671875 196.800781 69.890625 197.207031 68.871094 197.207031 C 67.847656 197.207031 67.070312 196.800781 66.53125 195.996094 C 65.992188 195.1875 65.722656 194.015625 65.722656 192.480469 C 65.722656 190.941406 65.992188 189.769531 66.53125 188.964844 C 67.070312 188.15625 67.847656 187.75 68.871094 187.75 Z M 68.871094 187.75 "/>
<path style=" stroke:none;fill-rule:nonzero;fill:rgb(0%,0%,0%);fill-opacity:1;" d="M 75.75 186.433594 C 75.304688 186.433594 74.972656 186.652344 74.75 187.089844 C 74.523438 187.523438 74.414062 188.183594 74.414062 189.058594 C 74.414062 189.933594 74.523438 190.589844 74.75 191.027344 C 74.972656 191.464844 75.304688 191.683594 75.75 191.683594 C 76.199219 191.683594 76.535156 191.464844 76.757812 191.027344 C 76.980469 190.589844 77.09375 189.933594 77.09375 189.058594 C 77.09375 188.183594 76.980469 187.523438 76.757812 187.089844 C 76.535156 186.652344 76.199219 186.433594 75.75 186.433594 Z M 75.75 185.75 C 76.464844 185.75 77.011719 186.03125 77.390625 186.597656 C 77.765625 187.164062 77.957031 187.984375 77.957031 189.058594 C 77.957031 190.132812 77.765625 190.953125 77.390625 191.519531 C 77.011719 192.085938 76.464844 192.367188 75.75 192.367188 C 75.035156 192.367188 74.488281 192.085938 74.113281 191.519531 C 73.734375 190.953125 73.546875 190.132812 73.546875 189.058594 C 73.546875 187.984375 73.734375 187.164062 74.113281 186.597656 C 74.488281 186.03125 75.035156 185.75 75.75 185.75 Z M 75.75 185.75 "/>
<g clip-path="url(#clip2)" clip-rule="nonzero">
<path style="fill:none;stroke-width:0.8;stroke-linecap:square;stroke-linejoin:round;stroke:rgb(69.019608%,69.019608%,69.019608%);stroke-opacity:1;stroke-miterlimit:4;" d="M 94.028125 143.1 L 94.028125 7.2 " transform="matrix(1.25,0,0,1.25,0,0)"/>
</g>
<path style="fill:none;stroke-width:0.8;stroke-linecap:butt;stroke-linejoin:round;stroke:rgb(0%,0%,0%);stroke-opacity:1;stroke-miterlimit:4;" d="M 0.001268 0 L 0.001268 3.5 " transform="matrix(1.25,0,0,1.25,117.533571,178.875)"/>
<path style=" stroke:none;fill-rule:nonzero;fill:rgb(0%,0%,0%);fill-opacity:1;" d="M 108.085938 196 L 110.097656 196 L 110.097656 189.046875 L 107.90625 189.488281 L 107.90625 188.363281 L 110.085938 187.925781 L 111.320312 187.925781 L 111.320312 196 L 113.332031 196 L 113.332031 197.039062 L 108.085938 197.039062 Z M 108.085938 196 "/>
<path style=" stroke:none;fill-rule:nonzero;fill:rgb(0%,0%,0%);fill-opacity:1;" d="M 118.460938 188.738281 C 117.824219 188.738281 117.347656 189.050781 117.027344 189.675781 C 116.707031 190.296875 116.550781 191.238281 116.550781 192.492188 C 116.550781 193.738281 116.707031 194.675781 117.027344 195.300781 C 117.347656 195.925781 117.824219 196.238281 118.460938 196.238281 C 119.097656 196.238281 119.578125 195.925781 119.898438 195.300781 C 120.21875 194.675781 120.378906 193.738281 120.378906 192.492188 C 120.378906 191.238281 120.21875 190.296875 119.898438 189.675781 C 119.578125 189.050781 119.097656 188.738281 118.460938 188.738281 Z M 118.460938 187.761719 C 119.480469 187.761719 120.261719 188.164062 120.800781 188.972656 C 121.339844 189.78125 121.609375 190.953125 121.609375 192.492188 C 121.609375 194.023438 121.339844 195.195312 120.800781 196.003906 C 120.261719 196.8125 119.480469 197.214844 118.460938 197.214844 C 117.4375 197.214844 116.660156 196.8125 116.121094 196.003906 C 115.582031 195.195312 115.3125 194.023438 115.3125 192.492188 C 115.3125 190.953125 115.582031 189.78125 116.121094 188.972656 C 116.660156 188.164062 117.4375 187.761719 118.460938 187.761719 Z M 118.460938 187.761719 "/>
<path style=" stroke:none;fill-rule:nonzero;fill:rgb(0%,0%,0%);fill-opacity:1;" d="M 123.644531 191.527344 L 125.054688 191.527344 L 125.054688 186.660156 L 123.519531 186.96875 L 123.519531 186.179688 L 125.046875 185.875 L 125.910156 185.875 L 125.910156 191.527344 L 127.316406 191.527344 L 127.316406 192.253906 L 123.644531 192.253906 Z M 123.644531 191.527344 "/>
<g clip-path="url(#clip3)" clip-rule="nonzero">
<path style="fill:none;stroke-width:0.8;stroke-linecap:square;stroke-linejoin:round;stroke:rgb(69.019608%,69.019608%,69.019608%);stroke-opacity:1;stroke-miterlimit:4;" d="M 133.696875 143.1 L 133.696875 7.2 " transform="matrix(1.25,0,0,1.25,0,0)"/>
</g>
<path style="fill:none;stroke-width:0.8;stroke-linecap:butt;stroke-linejoin:round;stroke:rgb(0%,0%,0%);stroke-opacity:1;stroke-miterlimit:4;" d="M -0.001441 0 L -0.001441 3.5 " transform="matrix(1.25,0,0,1.25,167.122895,178.875)"/>
<path style=" stroke:none;fill-rule:nonzero;fill:rgb(0%,0%,0%);fill-opacity:1;" d="M 157.671875 195.992188 L 159.6875 195.992188 L 159.6875 189.039062 L 157.496094 189.476562 L 157.496094 188.355469 L 159.675781 187.914062 L 160.90625 187.914062 L 160.90625 195.992188 L 162.921875 195.992188 L 162.921875 197.027344 L 157.671875 197.027344 Z M 157.671875 195.992188 "/>
<path style=" stroke:none;fill-rule:nonzero;fill:rgb(0%,0%,0%);fill-opacity:1;" d="M 168.046875 188.726562 C 167.414062 188.726562 166.9375 189.039062 166.617188 189.664062 C 166.296875 190.289062 166.136719 191.226562 166.136719 192.480469 C 166.136719 193.730469 166.296875 194.667969 166.617188 195.292969 C 166.9375 195.917969 167.414062 196.230469 168.046875 196.230469 C 168.6875 196.230469 169.167969 195.917969 169.484375 195.292969 C 169.804688 194.667969 169.964844 193.730469 169.964844 192.480469 C 169.964844 191.226562 169.804688 190.289062 169.484375 189.664062 C 169.167969 189.039062 168.6875 188.726562 168.046875 188.726562 Z M 168.046875 187.75 C 169.070312 187.75 169.851562 188.15625 170.390625 188.964844 C 170.929688 189.769531 171.199219 190.941406 171.199219 192.480469 C 171.199219 194.015625 170.929688 195.1875 170.390625 195.996094 C 169.851562 196.800781 169.070312 197.207031 168.046875 197.207031 C 167.027344 197.207031 166.246094 196.800781 165.707031 195.996094 C 165.167969 195.1875 164.898438 194.015625 164.898438 192.480469 C 164.898438 190.941406 165.167969 189.769531 165.707031 188.964844 C 166.246094 188.15625 167.027344 187.75 168.046875 187.75 Z M 168.046875 187.75 "/>
<path style=" stroke:none;fill-rule:nonzero;fill:rgb(0%,0%,0%);fill-opacity:1;" d="M 173.828125 191.515625 L 176.839844 191.515625 L 176.839844 192.242188 L 172.789062 192.242188 L 172.789062 191.515625 C 173.117188 191.175781 173.5625 190.722656 174.128906 190.152344 C 174.695312 189.582031 175.050781 189.210938 175.195312 189.046875 C 175.46875 188.734375 175.664062 188.472656 175.773438 188.257812 C 175.882812 188.042969 175.9375 187.832031 175.9375 187.625 C 175.9375 187.285156 175.820312 187.007812 175.582031 186.796875 C 175.34375 186.582031 175.035156 186.472656 174.652344 186.472656 C 174.382812 186.472656 174.09375 186.519531 173.792969 186.613281 C 173.496094 186.707031 173.171875 186.851562 172.832031 187.042969 L 172.832031 186.171875 C 173.179688 186.03125 173.503906 185.925781 173.804688 185.855469 C 174.109375 185.785156 174.382812 185.75 174.636719 185.75 C 175.296875 185.75 175.824219 185.914062 176.214844 186.246094 C 176.609375 186.574219 176.804688 187.015625 176.804688 187.566406 C 176.804688 187.832031 176.753906 188.078125 176.65625 188.3125 C 176.558594 188.546875 176.382812 188.824219 176.121094 189.144531 C 176.050781 189.226562 175.824219 189.464844 175.441406 189.859375 C 175.0625 190.253906 174.523438 190.808594 173.828125 191.515625 Z M 173.828125 191.515625 "/>
<g clip-path="url(#clip4)" clip-rule="nonzero">
<path style="fill:none;stroke-width:0.8;stroke-linecap:square;stroke-linejoin:round;stroke:rgb(69.019608%,69.019608%,69.019608%);stroke-opacity:1;stroke-miterlimit:4;" d="M 173.36875 143.1 L 173.36875 7.2 " transform="matrix(1.25,0,0,1.25,0,0)"/>
</g>
<path style="fill:none;stroke-width:0.8;stroke-linecap:butt;stroke-linejoin:round;stroke:rgb(0%,0%,0%);stroke-opacity:1;stroke-miterlimit:4;" d="M -0.001025 0 L -0.001025 3.5 " transform="matrix(1.25,0,0,1.25,216.712219,178.875)"/>
<path style=" stroke:none;fill-rule:nonzero;fill:rgb(0%,0%,0%);fill-opacity:1;" d="M 207.261719 195.992188 L 209.277344 195.992188 L 209.277344 189.039062 L 207.085938 189.476562 L 207.085938 188.355469 L 209.265625 187.914062 L 210.496094 187.914062 L 210.496094 195.992188 L 212.511719 195.992188 L 212.511719 197.027344 L 207.261719 197.027344 Z M 207.261719 195.992188 "/>
<path style=" stroke:none;fill-rule:nonzero;fill:rgb(0%,0%,0%);fill-opacity:1;" d="M 217.636719 188.726562 C 217.003906 188.726562 216.527344 189.039062 216.207031 189.664062 C 215.886719 190.289062 215.726562 191.226562 215.726562 192.480469 C 215.726562 193.730469 215.886719 194.667969 216.207031 195.292969 C 216.527344 195.917969 217.003906 196.230469 217.636719 196.230469 C 218.277344 196.230469 218.757812 195.917969 219.074219 195.292969 C 219.394531 194.667969 219.554688 193.730469 219.554688 192.480469 C 219.554688 191.226562 219.394531 190.289062 219.074219 189.664062 C 218.757812 189.039062 218.277344 188.726562 217.636719 188.726562 Z M 217.636719 187.75 C 218.660156 187.75 219.441406 188.15625 219.980469 188.964844 C 220.519531 189.769531 220.789062 190.941406 220.789062 192.480469 C 220.789062 194.015625 220.519531 195.1875 219.980469 195.996094 C 219.441406 196.800781 218.660156 197.207031 217.636719 197.207031 C 216.617188 197.207031 215.835938 196.800781 215.296875 195.996094 C 214.757812 195.1875 214.488281 194.015625 214.488281 192.480469 C 214.488281 190.941406 214.757812 189.769531 215.296875 188.964844 C 215.835938 188.15625 216.617188 187.75 217.636719 187.75 Z M 217.636719 187.75 "/>
<path style=" stroke:none;fill-rule:nonzero;fill:rgb(0%,0%,0%);fill-opacity:1;" d="M 225.289062 188.800781 C 225.699219 188.890625 226.023438 189.074219 226.253906 189.355469 C 226.488281 189.632812 226.601562 189.976562 226.601562 190.386719 C 226.601562 191.015625 226.386719 191.503906 225.953125 191.851562 C 225.519531 192.195312 224.90625 192.367188 224.109375 192.367188 C 223.839844 192.367188 223.566406 192.339844 223.28125 192.289062 C 223 192.234375 222.707031 192.15625 222.40625 192.050781 L 222.40625 191.21875 C 222.644531 191.355469 222.90625 191.460938 223.191406 191.53125 C 223.476562 191.605469 223.773438 191.640625 224.082031 191.640625 C 224.625 191.640625 225.035156 191.53125 225.320312 191.320312 C 225.601562 191.105469 225.746094 190.796875 225.746094 190.386719 C 225.746094 190.011719 225.613281 189.71875 225.351562 189.507812 C 225.085938 189.292969 224.71875 189.1875 224.25 189.1875 L 223.507812 189.1875 L 223.507812 188.476562 L 224.285156 188.476562 C 224.707031 188.476562 225.03125 188.394531 225.257812 188.222656 C 225.484375 188.054688 225.597656 187.808594 225.597656 187.492188 C 225.597656 187.164062 225.480469 186.914062 225.246094 186.738281 C 225.015625 186.5625 224.683594 186.472656 224.25 186.472656 C 224.011719 186.472656 223.757812 186.5 223.488281 186.550781 C 223.21875 186.601562 222.921875 186.683594 222.597656 186.789062 L 222.597656 186.023438 C 222.925781 185.929688 223.230469 185.863281 223.519531 185.816406 C 223.804688 185.769531 224.074219 185.75 224.328125 185.75 C 224.980469 185.75 225.5 185.898438 225.882812 186.195312 C 226.261719 186.492188 226.453125 186.894531 226.453125 187.402344 C 226.453125 187.753906 226.351562 188.054688 226.152344 188.296875 C 225.949219 188.539062 225.660156 188.707031 225.289062 188.800781 Z M 225.289062 188.800781 "/>
<g clip-path="url(#clip5)" clip-rule="nonzero">
<path style="fill:none;stroke-width:0.8;stroke-linecap:square;stroke-linejoin:round;stroke:rgb(69.019608%,69.019608%,69.019608%);stroke-opacity:1;stroke-miterlimit:4;" d="M 213.040625 143.1 L 213.040625 7.2 " transform="matrix(1.25,0,0,1.25,0,0)"/>
</g>
<path style="fill:none;stroke-width:0.8;stroke-linecap:butt;stroke-linejoin:round;stroke:rgb(0%,0%,0%);stroke-opacity:1;stroke-miterlimit:4;" d="M -0.000609 0 L -0.000609 3.5 " transform="matrix(1.25,0,0,1.25,266.301542,178.875)"/>
<path style=" stroke:none;fill-rule:nonzero;fill:rgb(0%,0%,0%);fill-opacity:1;" d="M 256.851562 196 L 258.867188 196 L 258.867188 189.046875 L 256.675781 189.488281 L 256.675781 188.363281 L 258.855469 187.925781 L 260.085938 187.925781 L 260.085938 196 L 262.101562 196 L 262.101562 197.039062 L 256.851562 197.039062 Z M 256.851562 196 "/>
<path style=" stroke:none;fill-rule:nonzero;fill:rgb(0%,0%,0%);fill-opacity:1;" d="M 267.226562 188.738281 C 266.59375 188.738281 266.117188 189.050781 265.796875 189.675781 C 265.476562 190.296875 265.316406 191.238281 265.316406 192.492188 C 265.316406 193.738281 265.476562 194.675781 265.796875 195.300781 C 266.117188 195.925781 266.59375 196.238281 267.226562 196.238281 C 267.867188 196.238281 268.34375 195.925781 268.664062 195.300781 C 268.984375 194.675781 269.144531 193.738281 269.144531 192.492188 C 269.144531 191.238281 268.984375 190.296875 268.664062 189.675781 C 268.34375 189.050781 267.867188 188.738281 267.226562 188.738281 Z M 267.226562 187.761719 C 268.25 187.761719 269.03125 188.164062 269.570312 188.972656 C 270.109375 189.78125 270.378906 190.953125 270.378906 192.492188 C 270.378906 194.023438 270.109375 195.195312 269.570312 196.003906 C 269.03125 196.8125 268.25 197.214844 267.226562 197.214844 C 266.207031 197.214844 265.425781 196.8125 264.886719 196.003906 C 264.347656 195.195312 264.078125 194.023438 264.078125 192.492188 C 264.078125 190.953125 264.347656 189.78125 264.886719 188.972656 C 265.425781 188.164062 266.207031 187.761719 267.226562 187.761719 Z M 267.226562 187.761719 "/>
<path style=" stroke:none;fill-rule:nonzero;fill:rgb(0%,0%,0%);fill-opacity:1;" d="M 274.632812 186.625 L 272.453125 190.03125 L 274.632812 190.03125 Z M 274.40625 185.875 L 275.492188 185.875 L 275.492188 190.03125 L 276.402344 190.03125 L 276.402344 190.75 L 275.492188 190.75 L 275.492188 192.253906 L 274.632812 192.253906 L 274.632812 190.75 L 271.753906 190.75 L 271.753906 189.914062 Z M 274.40625 185.875 "/>
<path style="fill:none;stroke-width:0.6;stroke-linecap:butt;stroke-linejoin:round;stroke:rgb(0%,0%,0%);stroke-opacity:1;stroke-miterlimit:4;" d="M -0.001209 0 L -0.001209 2 " transform="matrix(1.25,0,0,1.25,56.942917,178.875)"/>
<path style="fill:none;stroke-width:0.6;stroke-linecap:butt;stroke-linejoin:round;stroke:rgb(0%,0%,0%);stroke-opacity:1;stroke-miterlimit:4;" d="M -0.000836 0 L -0.000836 2 " transform="matrix(1.25,0,0,1.25,60.262764,178.875)"/>
<path style="fill:none;stroke-width:0.6;stroke-linecap:butt;stroke-linejoin:round;stroke:rgb(0%,0%,0%);stroke-opacity:1;stroke-miterlimit:4;" d="M -0.001461 0 L -0.001461 2 " transform="matrix(1.25,0,0,1.25,63.138545,178.875)"/>
<path style="fill:none;stroke-width:0.6;stroke-linecap:butt;stroke-linejoin:round;stroke:rgb(0%,0%,0%);stroke-opacity:1;stroke-miterlimit:4;" d="M 0.000494 0 L 0.000494 2 " transform="matrix(1.25,0,0,1.25,65.675164,178.875)"/>
<path style="fill:none;stroke-width:0.6;stroke-linecap:butt;stroke-linejoin:round;stroke:rgb(0%,0%,0%);stroke-opacity:1;stroke-miterlimit:4;" d="M -0.000822 0 L -0.000822 2 " transform="matrix(1.25,0,0,1.25,82.872121,178.875)"/>
<path style="fill:none;stroke-width:0.6;stroke-linecap:butt;stroke-linejoin:round;stroke:rgb(0%,0%,0%);stroke-opacity:1;stroke-miterlimit:4;" d="M 0.000881 0 L 0.000881 2 " transform="matrix(1.25,0,0,1.25,91.604368,178.875)"/>
<path style="fill:none;stroke-width:0.6;stroke-linecap:butt;stroke-linejoin:round;stroke:rgb(0%,0%,0%);stroke-opacity:1;stroke-miterlimit:4;" d="M 0.000629 0 L 0.000629 2 " transform="matrix(1.25,0,0,1.25,97.799995,178.875)"/>
<path style="fill:none;stroke-width:0.6;stroke-linecap:butt;stroke-linejoin:round;stroke:rgb(0%,0%,0%);stroke-opacity:1;stroke-miterlimit:4;" d="M -0.000183 0 L -0.000183 2 " transform="matrix(1.25,0,0,1.25,102.605698,178.875)"/>
<path style="fill:none;stroke-width:0.6;stroke-linecap:butt;stroke-linejoin:round;stroke:rgb(0%,0%,0%);stroke-opacity:1;stroke-miterlimit:4;" d="M -0.000793 0 L -0.000793 2 " transform="matrix(1.25,0,0,1.25,106.532241,178.875)"/>
<path style="fill:none;stroke-width:0.6;stroke-linecap:butt;stroke-linejoin:round;stroke:rgb(0%,0%,0%);stroke-opacity:1;stroke-miterlimit:4;" d="M -0.00042 0 L -0.00042 2 " transform="matrix(1.25,0,0,1.25,109.852087,178.875)"/>
<path style="fill:none;stroke-width:0.6;stroke-linecap:butt;stroke-linejoin:round;stroke:rgb(0%,0%,0%);stroke-opacity:1;stroke-miterlimit:4;" d="M -0.001045 0 L -0.001045 2 " transform="matrix(1.25,0,0,1.25,112.727869,178.875)"/>
<path style="fill:none;stroke-width:0.6;stroke-linecap:butt;stroke-linejoin:round;stroke:rgb(0%,0%,0%);stroke-opacity:1;stroke-miterlimit:4;" d="M 0.00091 0 L 0.00091 2 " transform="matrix(1.25,0,0,1.25,115.264488,178.875)"/>
<path style="fill:none;stroke-width:0.6;stroke-linecap:butt;stroke-linejoin:round;stroke:rgb(0%,0%,0%);stroke-opacity:1;stroke-miterlimit:4;" d="M -0.000406 0 L -0.000406 2 " transform="matrix(1.25,0,0,1.25,132.461445,178.875)"/>
<path style="fill:none;stroke-width:0.6;stroke-linecap:butt;stroke-linejoin:round;stroke:rgb(0%,0%,0%);stroke-opacity:1;stroke-miterlimit:4;" d="M 0.001297 0 L 0.001297 2 " transform="matrix(1.25,0,0,1.25,141.193691,178.875)"/>
<path style="fill:none;stroke-width:0.6;stroke-linecap:butt;stroke-linejoin:round;stroke:rgb(0%,0%,0%);stroke-opacity:1;stroke-miterlimit:4;" d="M 0.001045 0 L 0.001045 2 " transform="matrix(1.25,0,0,1.25,147.389319,178.875)"/>
<path style="fill:none;stroke-width:0.6;stroke-linecap:butt;stroke-linejoin:round;stroke:rgb(0%,0%,0%);stroke-opacity:1;stroke-miterlimit:4;" d="M 0.000233 0 L 0.000233 2 " transform="matrix(1.25,0,0,1.25,152.195021,178.875)"/>
<path style="fill:none;stroke-width:0.6;stroke-linecap:butt;stroke-linejoin:round;stroke:rgb(0%,0%,0%);stroke-opacity:1;stroke-miterlimit:4;" d="M -0.000377 0 L -0.000377 2 " transform="matrix(1.25,0,0,1.25,156.121565,178.875)"/>
<path style="fill:none;stroke-width:0.6;stroke-linecap:butt;stroke-linejoin:round;stroke:rgb(0%,0%,0%);stroke-opacity:1;stroke-miterlimit:4;" d="M -0.000004 0 L -0.000004 2 " transform="matrix(1.25,0,0,1.25,159.441411,178.875)"/>
<path style="fill:none;stroke-width:0.6;stroke-linecap:butt;stroke-linejoin:round;stroke:rgb(0%,0%,0%);stroke-opacity:1;stroke-miterlimit:4;" d="M -0.000629 0 L -0.000629 2 " transform="matrix(1.25,0,0,1.25,162.317193,178.875)"/>
<path style="fill:none;stroke-width:0.6;stroke-linecap:butt;stroke-linejoin:round;stroke:rgb(0%,0%,0%);stroke-opacity:1;stroke-miterlimit:4;" d="M 0.001326 0 L 0.001326 2 " transform="matrix(1.25,0,0,1.25,164.853811,178.875)"/>
<path style="fill:none;stroke-width:0.6;stroke-linecap:butt;stroke-linejoin:round;stroke:rgb(0%,0%,0%);stroke-opacity:1;stroke-miterlimit:4;" d="M 0.00001 0 L 0.00001 2 " transform="matrix(1.25,0,0,1.25,182.050769,178.875)"/>
<path style="fill:none;stroke-width:0.6;stroke-linecap:butt;stroke-linejoin:round;stroke:rgb(0%,0%,0%);stroke-opacity:1;stroke-miterlimit:4;" d="M -0.001412 0 L -0.001412 2 " transform="matrix(1.25,0,0,1.25,190.783015,178.875)"/>
<path style="fill:none;stroke-width:0.6;stroke-linecap:butt;stroke-linejoin:round;stroke:rgb(0%,0%,0%);stroke-opacity:1;stroke-miterlimit:4;" d="M 0.001461 0 L 0.001461 2 " transform="matrix(1.25,0,0,1.25,196.978642,178.875)"/>
<path style="fill:none;stroke-width:0.6;stroke-linecap:butt;stroke-linejoin:round;stroke:rgb(0%,0%,0%);stroke-opacity:1;stroke-miterlimit:4;" d="M 0.000649 0 L 0.000649 2 " transform="matrix(1.25,0,0,1.25,201.784345,178.875)"/>
<path style="fill:none;stroke-width:0.6;stroke-linecap:butt;stroke-linejoin:round;stroke:rgb(0%,0%,0%);stroke-opacity:1;stroke-miterlimit:4;" d="M 0.000039 0 L 0.000039 2 " transform="matrix(1.25,0,0,1.25,205.710889,178.875)"/>
<path style="fill:none;stroke-width:0.6;stroke-linecap:butt;stroke-linejoin:round;stroke:rgb(0%,0%,0%);stroke-opacity:1;stroke-miterlimit:4;" d="M 0.000412 0 L 0.000412 2 " transform="matrix(1.25,0,0,1.25,209.030735,178.875)"/>
<path style="fill:none;stroke-width:0.6;stroke-linecap:butt;stroke-linejoin:round;stroke:rgb(0%,0%,0%);stroke-opacity:1;stroke-miterlimit:4;" d="M -0.000213 0 L -0.000213 2 " transform="matrix(1.25,0,0,1.25,211.906516,178.875)"/>
<path style="fill:none;stroke-width:0.6;stroke-linecap:butt;stroke-linejoin:round;stroke:rgb(0%,0%,0%);stroke-opacity:1;stroke-miterlimit:4;" d="M -0.001383 0 L -0.001383 2 " transform="matrix(1.25,0,0,1.25,214.443135,178.875)"/>
<path style="fill:none;stroke-width:0.6;stroke-linecap:butt;stroke-linejoin:round;stroke:rgb(0%,0%,0%);stroke-opacity:1;stroke-miterlimit:4;" d="M 0.000426 0 L 0.000426 2 " transform="matrix(1.25,0,0,1.25,231.640092,178.875)"/>
<path style="fill:none;stroke-width:0.6;stroke-linecap:butt;stroke-linejoin:round;stroke:rgb(0%,0%,0%);stroke-opacity:1;stroke-miterlimit:4;" d="M -0.000996 0 L -0.000996 2 " transform="matrix(1.25,0,0,1.25,240.372339,178.875)"/>
<path style="fill:none;stroke-width:0.6;stroke-linecap:butt;stroke-linejoin:round;stroke:rgb(0%,0%,0%);stroke-opacity:1;stroke-miterlimit:4;" d="M -0.001248 0 L -0.001248 2 " transform="matrix(1.25,0,0,1.25,246.567966,178.875)"/>
<path style="fill:none;stroke-width:0.6;stroke-linecap:butt;stroke-linejoin:round;stroke:rgb(0%,0%,0%);stroke-opacity:1;stroke-miterlimit:4;" d="M 0.001065 0 L 0.001065 2 " transform="matrix(1.25,0,0,1.25,251.373669,178.875)"/>
<path style="fill:none;stroke-width:0.6;stroke-linecap:butt;stroke-linejoin:round;stroke:rgb(0%,0%,0%);stroke-opacity:1;stroke-miterlimit:4;" d="M 0.000455 0 L 0.000455 2 " transform="matrix(1.25,0,0,1.25,255.300213,178.875)"/>
<path style="fill:none;stroke-width:0.6;stroke-linecap:butt;stroke-linejoin:round;stroke:rgb(0%,0%,0%);stroke-opacity:1;stroke-miterlimit:4;" d="M 0.000828 0 L 0.000828 2 " transform="matrix(1.25,0,0,1.25,258.620059,178.875)"/>
<path style="fill:none;stroke-width:0.6;stroke-linecap:butt;stroke-linejoin:round;stroke:rgb(0%,0%,0%);stroke-opacity:1;stroke-miterlimit:4;" d="M 0.000203 0 L 0.000203 2 " transform="matrix(1.25,0,0,1.25,261.49584,178.875)"/>
<path style="fill:none;stroke-width:0.6;stroke-linecap:butt;stroke-linejoin:round;stroke:rgb(0%,0%,0%);stroke-opacity:1;stroke-miterlimit:4;" d="M -0.000968 0 L -0.000968 2 " transform="matrix(1.25,0,0,1.25,264.03246,178.875)"/>
<path style="fill:none;stroke-width:0.6;stroke-linecap:butt;stroke-linejoin:round;stroke:rgb(0%,0%,0%);stroke-opacity:1;stroke-miterlimit:4;" d="M 0.000842 0 L 0.000842 2 " transform="matrix(1.25,0,0,1.25,281.229416,178.875)"/>
<path style="fill:none;stroke-width:0.6;stroke-linecap:butt;stroke-linejoin:round;stroke:rgb(0%,0%,0%);stroke-opacity:1;stroke-miterlimit:4;" d="M -0.00058 0 L -0.00058 2 " transform="matrix(1.25,0,0,1.25,289.961662,178.875)"/>
<path style="fill:none;stroke-width:0.6;stroke-linecap:butt;stroke-linejoin:round;stroke:rgb(0%,0%,0%);stroke-opacity:1;stroke-miterlimit:4;" d="M -0.000832 0 L -0.000832 2 " transform="matrix(1.25,0,0,1.25,296.15729,178.875)"/>
<path style="fill:none;stroke-width:0.6;stroke-linecap:butt;stroke-linejoin:round;stroke:rgb(0%,0%,0%);stroke-opacity:1;stroke-miterlimit:4;" d="M 0.001481 0 L 0.001481 2 " transform="matrix(1.25,0,0,1.25,300.962993,178.875)"/>
<path style=" stroke:none;fill-rule:nonzero;fill:rgb(0%,0%,0%);fill-opacity:1;" d="M 155.933594 205.445312 L 155.933594 207.386719 L 158.246094 207.386719 L 158.246094 208.257812 L 155.933594 208.257812 L 155.933594 211.96875 C 155.933594 212.527344 156.011719 212.882812 156.164062 213.042969 C 156.316406 213.203125 156.625 213.28125 157.09375 213.28125 L 158.246094 213.28125 L 158.246094 214.222656 L 157.09375 214.222656 C 156.226562 214.222656 155.628906 214.058594 155.300781 213.738281 C 154.96875 213.414062 154.804688 212.824219 154.804688 211.96875 L 154.804688 208.257812 L 153.980469 208.257812 L 153.980469 207.386719 L 154.804688 207.386719 L 154.804688 205.445312 Z M 155.933594 205.445312 "/>
<path style=" stroke:none;fill-rule:nonzero;fill:rgb(0%,0%,0%);fill-opacity:1;" d="M 162.371094 208.171875 C 161.769531 208.171875 161.296875 208.40625 160.945312 208.878906 C 160.59375 209.347656 160.417969 209.992188 160.417969 210.808594 C 160.417969 211.625 160.59375 212.269531 160.941406 212.742188 C 161.289062 213.210938 161.765625 213.445312 162.371094 213.445312 C 162.972656 213.445312 163.445312 213.210938 163.792969 212.738281 C 164.144531 212.265625 164.320312 211.621094 164.320312 210.808594 C 164.320312 210 164.144531 209.355469 163.792969 208.882812 C 163.445312 208.410156 162.972656 208.171875 162.371094 208.171875 Z M 162.371094 207.222656 C 163.347656 207.222656 164.117188 207.539062 164.671875 208.175781 C 165.230469 208.808594 165.511719 209.6875 165.511719 210.808594 C 165.511719 211.925781 165.230469 212.804688 164.671875 213.445312 C 164.117188 214.082031 163.347656 214.398438 162.371094 214.398438 C 161.390625 214.398438 160.625 214.082031 160.066406 213.445312 C 159.511719 212.804688 159.234375 211.925781 159.234375 210.808594 C 159.234375 209.6875 159.511719 208.808594 160.066406 208.175781 C 160.625 207.539062 161.390625 207.222656 162.371094 207.222656 Z M 162.371094 207.222656 "/>
<path style=" stroke:none;fill-rule:nonzero;fill:rgb(0%,0%,0%);fill-opacity:1;" d="M 167.328125 204.722656 L 168.457031 204.722656 L 168.457031 210.332031 L 171.808594 207.386719 L 173.242188 207.386719 L 169.617188 210.582031 L 173.398438 214.222656 L 171.933594 214.222656 L 168.457031 210.882812 L 168.457031 214.222656 L 167.328125 214.222656 Z M 167.328125 204.722656 "/>
<path style=" stroke:none;fill-rule:nonzero;fill:rgb(0%,0%,0%);fill-opacity:1;" d="M 180.003906 210.523438 L 180.003906 211.070312 L 174.839844 211.070312 C 174.890625 211.84375 175.125 212.433594 175.539062 212.839844 C 175.957031 213.242188 176.539062 213.445312 177.28125 213.445312 C 177.714844 213.445312 178.132812 213.394531 178.535156 213.289062 C 178.941406 213.183594 179.34375 213.023438 179.742188 212.8125 L 179.742188 213.875 C 179.339844 214.042969 178.925781 214.175781 178.503906 214.265625 C 178.082031 214.355469 177.652344 214.398438 177.214844 214.398438 C 176.125 214.398438 175.261719 214.082031 174.625 213.449219 C 173.988281 212.8125 173.667969 211.953125 173.667969 210.871094 C 173.667969 209.75 173.972656 208.863281 174.574219 208.207031 C 175.179688 207.550781 175.996094 207.222656 177.019531 207.222656 C 177.941406 207.222656 178.667969 207.515625 179.203125 208.109375 C 179.738281 208.699219 180.003906 209.503906 180.003906 210.523438 Z M 178.882812 210.191406 C 178.875 209.578125 178.703125 209.089844 178.367188 208.722656 C 178.03125 208.355469 177.585938 208.171875 177.03125 208.171875 C 176.40625 208.171875 175.90625 208.347656 175.527344 208.703125 C 175.152344 209.058594 174.9375 209.554688 174.878906 210.199219 Z M 178.882812 210.191406 "/>
<path style=" stroke:none;fill-rule:nonzero;fill:rgb(0%,0%,0%);fill-opacity:1;" d="M 187.53125 210.09375 L 187.53125 214.222656 L 186.410156 214.222656 L 186.410156 210.132812 C 186.410156 209.484375 186.28125 209 186.03125 208.679688 C 185.777344 208.359375 185.398438 208.199219 184.894531 208.199219 C 184.289062 208.199219 183.808594 208.390625 183.460938 208.777344 C 183.109375 209.164062 182.933594 209.691406 182.933594 210.359375 L 182.933594 214.222656 L 181.804688 214.222656 L 181.804688 207.386719 L 182.933594 207.386719 L 182.933594 208.449219 C 183.203125 208.035156 183.519531 207.730469 183.882812 207.527344 C 184.246094 207.324219 184.667969 207.222656 185.144531 207.222656 C 185.929688 207.222656 186.523438 207.464844 186.925781 207.949219 C 187.328125 208.433594 187.53125 209.148438 187.53125 210.09375 Z M 187.53125 210.09375 "/>
<path style=" stroke:none;fill-rule:nonzero;fill:rgb(0%,0%,0%);fill-opacity:1;" d="M 190.058594 212.671875 L 191.34375 212.671875 L 191.34375 214.222656 L 190.058594 214.222656 Z M 190.058594 207.757812 L 191.34375 207.757812 L 191.34375 209.308594 L 190.058594 209.308594 Z M 190.058594 207.757812 "/>
<path style=" stroke:none;fill-rule:nonzero;fill:rgb(0%,0%,0%);fill-opacity:1;" d="M 203.640625 207.386719 L 201.167969 210.710938 L 203.765625 214.222656 L 202.441406 214.222656 L 200.453125 211.535156 L 198.464844 214.222656 L 197.136719 214.222656 L 199.792969 210.644531 L 197.363281 207.386719 L 198.6875 207.386719 L 200.5 209.820312 L 202.3125 207.386719 Z M 203.640625 207.386719 "/>
<g clip-path="url(#clip6)" clip-rule="nonzero">
<path style="fill:none;stroke-width:0.8;stroke-linecap:square;stroke-linejoin:round;stroke:rgb(69.019608%,69.019608%,69.019608%);stroke-opacity:1;stroke-miterlimit:4;" d="M 45.478125 136.921875 L 240.778125 136.921875 " transform="matrix(1.25,0,0,1.25,0,0)"/>
</g>
<path style="fill:none;stroke-width:0.8;stroke-linecap:butt;stroke-linejoin:round;stroke:rgb(0%,0%,0%);stroke-opacity:1;stroke-miterlimit:4;" d="M 0 -0.000852 L -3.5 -0.000852 " transform="matrix(1.25,0,0,1.25,56.847656,171.153409)"/>
<path style=" stroke:none;fill-rule:nonzero;fill:rgb(0%,0%,0%);fill-opacity:1;" d="M 27.648438 174.769531 L 29.664062 174.769531 L 29.664062 167.816406 L 27.46875 168.257812 L 27.46875 167.132812 L 29.648438 166.695312 L 30.882812 166.695312 L 30.882812 174.769531 L 32.898438 174.769531 L 32.898438 175.808594 L 27.648438 175.808594 Z M 27.648438 174.769531 "/>
<path style=" stroke:none;fill-rule:nonzero;fill:rgb(0%,0%,0%);fill-opacity:1;" d="M 38.023438 167.507812 C 37.390625 167.507812 36.910156 167.820312 36.589844 168.445312 C 36.273438 169.066406 36.113281 170.007812 36.113281 171.261719 C 36.113281 172.507812 36.273438 173.445312 36.589844 174.070312 C 36.910156 174.695312 37.390625 175.007812 38.023438 175.007812 C 38.664062 175.007812 39.140625 174.695312 39.460938 174.070312 C 39.78125 173.445312 39.941406 172.507812 39.941406 171.261719 C 39.941406 170.007812 39.78125 169.066406 39.460938 168.445312 C 39.140625 167.820312 38.664062 167.507812 38.023438 167.507812 Z M 38.023438 166.53125 C 39.046875 166.53125 39.824219 166.933594 40.363281 167.742188 C 40.902344 168.550781 41.171875 169.722656 41.171875 171.261719 C 41.171875 172.792969 40.902344 173.964844 40.363281 174.773438 C 39.824219 175.582031 39.046875 175.984375 38.023438 175.984375 C 37.003906 175.984375 36.222656 175.582031 35.683594 174.773438 C 35.144531 173.964844 34.875 172.792969 34.875 171.261719 C 34.875 169.722656 35.144531 168.550781 35.683594 167.742188 C 36.222656 166.933594 37.003906 166.53125 38.023438 166.53125 Z M 38.023438 166.53125 "/>
<path style=" stroke:none;fill-rule:nonzero;fill:rgb(0%,0%,0%);fill-opacity:1;" d="M 44.902344 165.210938 C 44.460938 165.210938 44.125 165.429688 43.902344 165.867188 C 43.679688 166.304688 43.566406 166.960938 43.566406 167.839844 C 43.566406 168.710938 43.679688 169.367188 43.902344 169.804688 C 44.125 170.242188 44.460938 170.460938 44.902344 170.460938 C 45.351562 170.460938 45.6875 170.242188 45.910156 169.804688 C 46.132812 169.367188 46.246094 168.710938 46.246094 167.839844 C 46.246094 166.960938 46.132812 166.304688 45.910156 165.867188 C 45.6875 165.429688 45.351562 165.210938 44.902344 165.210938 Z M 44.902344 164.527344 C 45.621094 164.527344 46.164062 164.808594 46.542969 165.375 C 46.921875 165.941406 47.109375 166.761719 47.109375 167.839844 C 47.109375 168.914062 46.921875 169.730469 46.542969 170.296875 C 46.164062 170.863281 45.621094 171.144531 44.902344 171.144531 C 44.1875 171.144531 43.644531 170.863281 43.265625 170.296875 C 42.890625 169.730469 42.699219 168.914062 42.699219 167.839844 C 42.699219 166.761719 42.890625 165.941406 43.265625 165.375 C 43.644531 164.808594 44.1875 164.527344 44.902344 164.527344 Z M 44.902344 164.527344 "/>
<g clip-path="url(#clip7)" clip-rule="nonzero">
<path style="fill:none;stroke-width:0.8;stroke-linecap:square;stroke-linejoin:round;stroke:rgb(69.019608%,69.019608%,69.019608%);stroke-opacity:1;stroke-miterlimit:4;" d="M 45.478125 100.090625 L 240.778125 100.090625 " transform="matrix(1.25,0,0,1.25,0,0)"/>
</g>
<path style="fill:none;stroke-width:0.8;stroke-linecap:butt;stroke-linejoin:round;stroke:rgb(0%,0%,0%);stroke-opacity:1;stroke-miterlimit:4;" d="M 0 -0.000145 L -3.5 -0.000145 " transform="matrix(1.25,0,0,1.25,56.847656,125.113463)"/>
<path style=" stroke:none;fill-rule:nonzero;fill:rgb(0%,0%,0%);fill-opacity:1;" d="M 27.648438 128.738281 L 29.664062 128.738281 L 29.664062 121.785156 L 27.46875 122.226562 L 27.46875 121.101562 L 29.648438 120.664062 L 30.882812 120.664062 L 30.882812 128.738281 L 32.898438 128.738281 L 32.898438 129.777344 L 27.648438 129.777344 Z M 27.648438 128.738281 "/>
<path style=" stroke:none;fill-rule:nonzero;fill:rgb(0%,0%,0%);fill-opacity:1;" d="M 38.023438 121.476562 C 37.390625 121.476562 36.910156 121.789062 36.589844 122.414062 C 36.273438 123.039062 36.113281 123.976562 36.113281 125.230469 C 36.113281 126.480469 36.273438 127.414062 36.589844 128.039062 C 36.910156 128.664062 37.390625 128.976562 38.023438 128.976562 C 38.664062 128.976562 39.140625 128.664062 39.460938 128.039062 C 39.78125 127.414062 39.941406 126.480469 39.941406 125.230469 C 39.941406 123.976562 39.78125 123.039062 39.460938 122.414062 C 39.140625 121.789062 38.664062 121.476562 38.023438 121.476562 Z M 38.023438 120.5 C 39.046875 120.5 39.824219 120.902344 40.363281 121.710938 C 40.902344 122.519531 41.171875 123.691406 41.171875 125.230469 C 41.171875 126.765625 40.902344 127.933594 40.363281 128.742188 C 39.824219 129.550781 39.046875 129.953125 38.023438 129.953125 C 37.003906 129.953125 36.222656 129.550781 35.683594 128.742188 C 35.144531 127.933594 34.875 126.765625 34.875 125.230469 C 34.875 123.691406 35.144531 122.519531 35.683594 121.710938 C 36.222656 120.902344 37.003906 120.5 38.023438 120.5 Z M 38.023438 120.5 "/>
<path style=" stroke:none;fill-rule:nonzero;fill:rgb(0%,0%,0%);fill-opacity:1;" d="M 43.207031 124.265625 L 44.617188 124.265625 L 44.617188 119.398438 L 43.085938 119.707031 L 43.085938 118.921875 L 44.609375 118.613281 L 45.472656 118.613281 L 45.472656 124.265625 L 46.882812 124.265625 L 46.882812 124.992188 L 43.207031 124.992188 Z M 43.207031 124.265625 "/>
<g clip-path="url(#clip8)" clip-rule="nonzero">
<path style="fill:none;stroke-width:0.8;stroke-linecap:square;stroke-linejoin:round;stroke:rgb(69.019608%,69.019608%,69.019608%);stroke-opacity:1;stroke-miterlimit:4;" d="M 45.478125 63.259375 L 240.778125 63.259375 " transform="matrix(1.25,0,0,1.25,0,0)"/>
</g>
<path style="fill:none;stroke-width:0.8;stroke-linecap:butt;stroke-linejoin:round;stroke:rgb(0%,0%,0%);stroke-opacity:1;stroke-miterlimit:4;" d="M 0 0.000562 L -3.5 0.000562 " transform="matrix(1.25,0,0,1.25,56.847656,79.073516)"/>
<path style=" stroke:none;fill-rule:nonzero;fill:rgb(0%,0%,0%);fill-opacity:1;" d="M 27.648438 82.691406 L 29.664062 82.691406 L 29.664062 75.738281 L 27.46875 76.175781 L 27.46875 75.054688 L 29.648438 74.613281 L 30.882812 74.613281 L 30.882812 82.691406 L 32.898438 82.691406 L 32.898438 83.726562 L 27.648438 83.726562 Z M 27.648438 82.691406 "/>
<path style=" stroke:none;fill-rule:nonzero;fill:rgb(0%,0%,0%);fill-opacity:1;" d="M 38.023438 75.425781 C 37.390625 75.425781 36.910156 75.738281 36.589844 76.363281 C 36.273438 76.988281 36.113281 77.925781 36.113281 79.179688 C 36.113281 80.429688 36.273438 81.367188 36.589844 81.992188 C 36.910156 82.617188 37.390625 82.929688 38.023438 82.929688 C 38.664062 82.929688 39.140625 82.617188 39.460938 81.992188 C 39.78125 81.367188 39.941406 80.429688 39.941406 79.179688 C 39.941406 77.925781 39.78125 76.988281 39.460938 76.363281 C 39.140625 75.738281 38.664062 75.425781 38.023438 75.425781 Z M 38.023438 74.449219 C 39.046875 74.449219 39.824219 74.855469 40.363281 75.664062 C 40.902344 76.46875 41.171875 77.640625 41.171875 79.179688 C 41.171875 80.714844 40.902344 81.886719 40.363281 82.695312 C 39.824219 83.5 39.046875 83.90625 38.023438 83.90625 C 37.003906 83.90625 36.222656 83.5 35.683594 82.695312 C 35.144531 81.886719 34.875 80.714844 34.875 79.179688 C 34.875 77.640625 35.144531 76.46875 35.683594 75.664062 C 36.222656 74.855469 37.003906 74.449219 38.023438 74.449219 Z M 38.023438 74.449219 "/>
<path style=" stroke:none;fill-rule:nonzero;fill:rgb(0%,0%,0%);fill-opacity:1;" d="M 43.800781 78.214844 L 46.8125 78.214844 L 46.8125 78.941406 L 42.765625 78.941406 L 42.765625 78.214844 C 43.089844 77.875 43.539062 77.421875 44.101562 76.851562 C 44.667969 76.28125 45.023438 75.910156 45.167969 75.746094 C 45.445312 75.433594 45.636719 75.171875 45.746094 74.957031 C 45.859375 74.742188 45.914062 74.53125 45.914062 74.324219 C 45.914062 73.984375 45.792969 73.707031 45.554688 73.496094 C 45.316406 73.28125 45.007812 73.171875 44.625 73.171875 C 44.355469 73.171875 44.070312 73.21875 43.769531 73.3125 C 43.46875 73.410156 43.148438 73.550781 42.804688 73.742188 L 42.804688 72.871094 C 43.152344 72.730469 43.476562 72.625 43.78125 72.554688 C 44.082031 72.484375 44.359375 72.449219 44.609375 72.449219 C 45.269531 72.449219 45.796875 72.613281 46.191406 72.945312 C 46.582031 73.273438 46.78125 73.714844 46.78125 74.265625 C 46.78125 74.53125 46.730469 74.777344 46.632812 75.015625 C 46.535156 75.246094 46.355469 75.523438 46.097656 75.84375 C 46.023438 75.925781 45.796875 76.164062 45.417969 76.558594 C 45.035156 76.953125 44.496094 77.507812 43.800781 78.214844 Z M 43.800781 78.214844 "/>
<g clip-path="url(#clip9)" clip-rule="nonzero">
<path style="fill:none;stroke-width:0.8;stroke-linecap:square;stroke-linejoin:round;stroke:rgb(69.019608%,69.019608%,69.019608%);stroke-opacity:1;stroke-miterlimit:4;" d="M 45.478125 26.428125 L 240.778125 26.428125 " transform="matrix(1.25,0,0,1.25,0,0)"/>
</g>
<path style="fill:none;stroke-width:0.8;stroke-linecap:butt;stroke-linejoin:round;stroke:rgb(0%,0%,0%);stroke-opacity:1;stroke-miterlimit:4;" d="M 0 0.001269 L -3.5 0.001269 " transform="matrix(1.25,0,0,1.25,56.847656,33.03357)"/>
<path style=" stroke:none;fill-rule:nonzero;fill:rgb(0%,0%,0%);fill-opacity:1;" d="M 27.648438 36.648438 L 29.664062 36.648438 L 29.664062 29.695312 L 27.46875 30.136719 L 27.46875 29.011719 L 29.648438 28.574219 L 30.882812 28.574219 L 30.882812 36.648438 L 32.898438 36.648438 L 32.898438 37.6875 L 27.648438 37.6875 Z M 27.648438 36.648438 "/>
<path style=" stroke:none;fill-rule:nonzero;fill:rgb(0%,0%,0%);fill-opacity:1;" d="M 38.023438 29.386719 C 37.390625 29.386719 36.910156 29.699219 36.589844 30.324219 C 36.273438 30.949219 36.113281 31.886719 36.113281 33.140625 C 36.113281 34.390625 36.273438 35.324219 36.589844 35.949219 C 36.910156 36.574219 37.390625 36.886719 38.023438 36.886719 C 38.664062 36.886719 39.140625 36.574219 39.460938 35.949219 C 39.78125 35.324219 39.941406 34.390625 39.941406 33.140625 C 39.941406 31.886719 39.78125 30.949219 39.460938 30.324219 C 39.140625 29.699219 38.664062 29.386719 38.023438 29.386719 Z M 38.023438 28.410156 C 39.046875 28.410156 39.824219 28.8125 40.363281 29.621094 C 40.902344 30.429688 41.171875 31.601562 41.171875 33.140625 C 41.171875 34.675781 40.902344 35.84375 40.363281 36.652344 C 39.824219 37.460938 39.046875 37.863281 38.023438 37.863281 C 37.003906 37.863281 36.222656 37.460938 35.683594 36.652344 C 35.144531 35.84375 34.875 34.675781 34.875 33.140625 C 34.875 31.601562 35.144531 30.429688 35.683594 29.621094 C 36.222656 28.8125 37.003906 28.410156 38.023438 28.410156 Z M 38.023438 28.410156 "/>
<path style=" stroke:none;fill-rule:nonzero;fill:rgb(0%,0%,0%);fill-opacity:1;" d="M 45.671875 29.460938 C 46.085938 29.550781 46.410156 29.734375 46.640625 30.015625 C 46.871094 30.292969 46.988281 30.636719 46.988281 31.046875 C 46.988281 31.675781 46.773438 32.164062 46.339844 32.507812 C 45.90625 32.855469 45.292969 33.027344 44.492188 33.027344 C 44.226562 33.027344 43.953125 33 43.667969 32.945312 C 43.382812 32.894531 43.09375 32.816406 42.789062 32.707031 L 42.789062 31.875 C 43.027344 32.015625 43.289062 32.121094 43.574219 32.191406 C 43.859375 32.261719 44.160156 32.296875 44.46875 32.296875 C 45.007812 32.296875 45.421875 32.191406 45.703125 31.980469 C 45.988281 31.765625 46.128906 31.457031 46.128906 31.046875 C 46.128906 30.671875 46 30.378906 45.734375 30.164062 C 45.472656 29.953125 45.105469 29.847656 44.636719 29.847656 L 43.890625 29.847656 L 43.890625 29.136719 L 44.671875 29.136719 C 45.09375 29.136719 45.417969 29.054688 45.644531 28.882812 C 45.867188 28.714844 45.980469 28.46875 45.980469 28.152344 C 45.980469 27.824219 45.863281 27.574219 45.632812 27.398438 C 45.402344 27.222656 45.070312 27.132812 44.636719 27.132812 C 44.398438 27.132812 44.144531 27.160156 43.875 27.210938 C 43.605469 27.261719 43.304688 27.34375 42.980469 27.449219 L 42.980469 26.679688 C 43.308594 26.589844 43.617188 26.523438 43.902344 26.476562 C 44.1875 26.429688 44.460938 26.40625 44.710938 26.40625 C 45.367188 26.40625 45.886719 26.554688 46.265625 26.855469 C 46.648438 27.152344 46.839844 27.554688 46.839844 28.058594 C 46.839844 28.414062 46.738281 28.710938 46.535156 28.957031 C 46.335938 29.199219 46.046875 29.367188 45.671875 29.460938 Z M 45.671875 29.460938 "/>
<path style="fill:none;stroke-width:0.6;stroke-linecap:butt;stroke-linejoin:round;stroke:rgb(0%,0%,0%);stroke-opacity:1;stroke-miterlimit:4;" d="M 0 0.000055 L -2 0.000055 " transform="matrix(1.25,0,0,1.25,56.847656,178.285088)"/>
<path style="fill:none;stroke-width:0.6;stroke-linecap:butt;stroke-linejoin:round;stroke:rgb(0%,0%,0%);stroke-opacity:1;stroke-miterlimit:4;" d="M 0 -0.001488 L -2 -0.001488 " transform="matrix(1.25,0,0,1.25,56.847656,175.615141)"/>
<path style="fill:none;stroke-width:0.6;stroke-linecap:butt;stroke-linejoin:round;stroke:rgb(0%,0%,0%);stroke-opacity:1;stroke-miterlimit:4;" d="M 0 0.00131 L -2 0.00131 " transform="matrix(1.25,0,0,1.25,56.847656,173.260081)"/>
<path style="fill:none;stroke-width:0.6;stroke-linecap:butt;stroke-linejoin:round;stroke:rgb(0%,0%,0%);stroke-opacity:1;stroke-miterlimit:4;" d="M 0 -0.000828 L -2 -0.000828 " transform="matrix(1.25,0,0,1.25,56.847656,157.294004)"/>
<path style="fill:none;stroke-width:0.6;stroke-linecap:butt;stroke-linejoin:round;stroke:rgb(0%,0%,0%);stroke-opacity:1;stroke-miterlimit:4;" d="M 0 0.000582 L -2 0.000582 " transform="matrix(1.25,0,0,1.25,56.847656,149.186772)"/>
<path style="fill:none;stroke-width:0.6;stroke-linecap:butt;stroke-linejoin:round;stroke:rgb(0%,0%,0%);stroke-opacity:1;stroke-miterlimit:4;" d="M 0 -0.000804 L -2 -0.000804 " transform="matrix(1.25,0,0,1.25,56.847656,143.434599)"/>
<path style="fill:none;stroke-width:0.6;stroke-linecap:butt;stroke-linejoin:round;stroke:rgb(0%,0%,0%);stroke-opacity:1;stroke-miterlimit:4;" d="M 0 -0.000169 L -2 -0.000169 " transform="matrix(1.25,0,0,1.25,56.847656,138.972868)"/>
<path style="fill:none;stroke-width:0.6;stroke-linecap:butt;stroke-linejoin:round;stroke:rgb(0%,0%,0%);stroke-opacity:1;stroke-miterlimit:4;" d="M 0 0.000606 L -2 0.000606 " transform="matrix(1.25,0,0,1.25,56.847656,135.327368)"/>
<path style="fill:none;stroke-width:0.6;stroke-linecap:butt;stroke-linejoin:round;stroke:rgb(0%,0%,0%);stroke-opacity:1;stroke-miterlimit:4;" d="M 0 0.000763 L -2 0.000763 " transform="matrix(1.25,0,0,1.25,56.847656,132.24514)"/>
<path style="fill:none;stroke-width:0.6;stroke-linecap:butt;stroke-linejoin:round;stroke:rgb(0%,0%,0%);stroke-opacity:1;stroke-miterlimit:4;" d="M 0 -0.000781 L -2 -0.000781 " transform="matrix(1.25,0,0,1.25,56.847656,129.575195)"/>
<path style="fill:none;stroke-width:0.6;stroke-linecap:butt;stroke-linejoin:round;stroke:rgb(0%,0%,0%);stroke-opacity:1;stroke-miterlimit:4;" d="M 0 -0.001108 L -2 -0.001108 " transform="matrix(1.25,0,0,1.25,56.847656,127.220135)"/>
<path style="fill:none;stroke-width:0.6;stroke-linecap:butt;stroke-linejoin:round;stroke:rgb(0%,0%,0%);stroke-opacity:1;stroke-miterlimit:4;" d="M 0 -0.000121 L -2 -0.000121 " transform="matrix(1.25,0,0,1.25,56.847656,111.254058)"/>
<path style="fill:none;stroke-width:0.6;stroke-linecap:butt;stroke-linejoin:round;stroke:rgb(0%,0%,0%);stroke-opacity:1;stroke-miterlimit:4;" d="M 0 0.001289 L -2 0.001289 " transform="matrix(1.25,0,0,1.25,56.847656,103.146826)"/>
<path style="fill:none;stroke-width:0.6;stroke-linecap:butt;stroke-linejoin:round;stroke:rgb(0%,0%,0%);stroke-opacity:1;stroke-miterlimit:4;" d="M 0 -0.000097 L -2 -0.000097 " transform="matrix(1.25,0,0,1.25,56.847656,97.394653)"/>
<path style="fill:none;stroke-width:0.6;stroke-linecap:butt;stroke-linejoin:round;stroke:rgb(0%,0%,0%);stroke-opacity:1;stroke-miterlimit:4;" d="M 0 0.000538 L -2 0.000538 " transform="matrix(1.25,0,0,1.25,56.847656,92.932921)"/>
<path style="fill:none;stroke-width:0.6;stroke-linecap:butt;stroke-linejoin:round;stroke:rgb(0%,0%,0%);stroke-opacity:1;stroke-miterlimit:4;" d="M 0 0.001313 L -2 0.001313 " transform="matrix(1.25,0,0,1.25,56.847656,89.287421)"/>
<path style="fill:none;stroke-width:0.6;stroke-linecap:butt;stroke-linejoin:round;stroke:rgb(0%,0%,0%);stroke-opacity:1;stroke-miterlimit:4;" d="M 0 0.00147 L -2 0.00147 " transform="matrix(1.25,0,0,1.25,56.847656,86.205194)"/>
<path style="fill:none;stroke-width:0.6;stroke-linecap:butt;stroke-linejoin:round;stroke:rgb(0%,0%,0%);stroke-opacity:1;stroke-miterlimit:4;" d="M 0 -0.000073 L -2 -0.000073 " transform="matrix(1.25,0,0,1.25,56.847656,83.535247)"/>
<path style="fill:none;stroke-width:0.6;stroke-linecap:butt;stroke-linejoin:round;stroke:rgb(0%,0%,0%);stroke-opacity:1;stroke-miterlimit:4;" d="M 0 -0.000401 L -2 -0.000401 " transform="matrix(1.25,0,0,1.25,56.847656,81.180189)"/>
<path style="fill:none;stroke-width:0.6;stroke-linecap:butt;stroke-linejoin:round;stroke:rgb(0%,0%,0%);stroke-opacity:1;stroke-miterlimit:4;" d="M 0 0.000586 L -2 0.000586 " transform="matrix(1.25,0,0,1.25,56.847656,65.214111)"/>
<path style="fill:none;stroke-width:0.6;stroke-linecap:butt;stroke-linejoin:round;stroke:rgb(0%,0%,0%);stroke-opacity:1;stroke-miterlimit:4;" d="M 0 -0.001128 L -2 -0.001128 " transform="matrix(1.25,0,0,1.25,56.847656,57.106879)"/>
<path style="fill:none;stroke-width:0.6;stroke-linecap:butt;stroke-linejoin:round;stroke:rgb(0%,0%,0%);stroke-opacity:1;stroke-miterlimit:4;" d="M 0 0.00061 L -2 0.00061 " transform="matrix(1.25,0,0,1.25,56.847656,51.354706)"/>
<path style="fill:none;stroke-width:0.6;stroke-linecap:butt;stroke-linejoin:round;stroke:rgb(0%,0%,0%);stroke-opacity:1;stroke-miterlimit:4;" d="M 0 0.001245 L -2 0.001245 " transform="matrix(1.25,0,0,1.25,56.847656,46.892975)"/>
<path style="fill:none;stroke-width:0.6;stroke-linecap:butt;stroke-linejoin:round;stroke:rgb(0%,0%,0%);stroke-opacity:1;stroke-miterlimit:4;" d="M 0 -0.001104 L -2 -0.001104 " transform="matrix(1.25,0,0,1.25,56.847656,43.247474)"/>
<path style="fill:none;stroke-width:0.6;stroke-linecap:butt;stroke-linejoin:round;stroke:rgb(0%,0%,0%);stroke-opacity:1;stroke-miterlimit:4;" d="M 0 -0.000948 L -2 -0.000948 " transform="matrix(1.25,0,0,1.25,56.847656,40.165248)"/>
<path style="fill:none;stroke-width:0.6;stroke-linecap:butt;stroke-linejoin:round;stroke:rgb(0%,0%,0%);stroke-opacity:1;stroke-miterlimit:4;" d="M 0 0.000634 L -2 0.000634 " transform="matrix(1.25,0,0,1.25,56.847656,37.495301)"/>
<path style="fill:none;stroke-width:0.6;stroke-linecap:butt;stroke-linejoin:round;stroke:rgb(0%,0%,0%);stroke-opacity:1;stroke-miterlimit:4;" d="M 0 0.000306 L -2 0.000306 " transform="matrix(1.25,0,0,1.25,56.847656,35.140242)"/>
<path style="fill:none;stroke-width:0.6;stroke-linecap:butt;stroke-linejoin:round;stroke:rgb(0%,0%,0%);stroke-opacity:1;stroke-miterlimit:4;" d="M 0 0.001293 L -2 0.001293 " transform="matrix(1.25,0,0,1.25,56.847656,19.174165)"/>
<path style="fill:none;stroke-width:0.6;stroke-linecap:butt;stroke-linejoin:round;stroke:rgb(0%,0%,0%);stroke-opacity:1;stroke-miterlimit:4;" d="M 0 -0.000421 L -2 -0.000421 " transform="matrix(1.25,0,0,1.25,56.847656,11.066933)"/>
<path style=" stroke:none;fill-rule:nonzero;fill:rgb(0%,0%,0%);fill-opacity:1;" d="M 9 136.820312 L 9.9375 136.820312 L 9.9375 137.894531 C 9.9375 138.296875 10.015625 138.578125 10.179688 138.734375 C 10.34375 138.890625 10.636719 138.96875 11.058594 138.96875 L 11.664062 138.96875 L 11.664062 137.117188 L 12.535156 137.117188 L 12.535156 138.96875 L 18.5 138.96875 L 18.5 140.097656 L 12.535156 140.097656 L 12.535156 141.171875 L 11.664062 141.171875 L 11.664062 140.097656 L 11.1875 140.097656 C 10.425781 140.097656 9.871094 139.921875 9.523438 139.566406 C 9.175781 139.210938 9 138.652344 9 137.882812 Z M 9 136.820312 "/>
<path style=" stroke:none;fill-rule:nonzero;fill:rgb(0%,0%,0%);fill-opacity:1;" d="M 12.710938 131.917969 C 12.636719 132.046875 12.585938 132.183594 12.550781 132.332031 C 12.515625 132.480469 12.5 132.644531 12.5 132.820312 C 12.5 133.457031 12.703125 133.945312 13.117188 134.285156 C 13.53125 134.625 14.125 134.792969 14.898438 134.792969 L 18.5 134.792969 L 18.5 135.921875 L 11.664062 135.921875 L 11.664062 134.792969 L 12.726562 134.792969 C 12.308594 134.558594 12 134.25 11.800781 133.871094 C 11.597656 133.492188 11.5 133.035156 11.5 132.492188 C 11.5 132.414062 11.503906 132.328125 11.515625 132.234375 C 11.523438 132.140625 11.539062 132.039062 11.558594 131.925781 Z M 12.710938 131.917969 "/>
<path style=" stroke:none;fill-rule:nonzero;fill:rgb(0%,0%,0%);fill-opacity:1;" d="M 14.800781 125.175781 L 15.347656 125.175781 L 15.347656 130.339844 C 16.121094 130.289062 16.710938 130.054688 17.117188 129.640625 C 17.519531 129.222656 17.722656 128.640625 17.722656 127.898438 C 17.722656 127.464844 17.671875 127.046875 17.566406 126.644531 C 17.460938 126.238281 17.300781 125.835938 17.089844 125.4375 L 18.152344 125.4375 C 18.320312 125.839844 18.453125 126.253906 18.542969 126.675781 C 18.632812 127.101562 18.675781 127.527344 18.675781 127.964844 C 18.675781 129.054688 18.359375 129.917969 17.726562 130.554688 C 17.089844 131.191406 16.230469 131.511719 15.148438 131.511719 C 14.027344 131.511719 13.140625 131.207031 12.484375 130.605469 C 11.828125 130 11.5 129.183594 11.5 128.160156 C 11.5 127.238281 11.792969 126.511719 12.386719 125.976562 C 12.976562 125.441406 13.78125 125.175781 14.800781 125.175781 Z M 14.46875 126.296875 C 13.855469 126.304688 13.367188 126.476562 13 126.8125 C 12.632812 127.148438 12.449219 127.59375 12.449219 128.148438 C 12.449219 128.773438 12.625 129.273438 12.980469 129.652344 C 13.335938 130.027344 13.832031 130.246094 14.476562 130.300781 Z M 14.46875 126.296875 "/>
<path style=" stroke:none;fill-rule:nonzero;fill:rgb(0%,0%,0%);fill-opacity:1;" d="M 15.085938 122.660156 C 15.910156 122.660156 16.558594 122.492188 17.03125 122.152344 C 17.5 121.8125 17.734375 121.34375 17.734375 120.75 C 17.734375 120.15625 17.5 119.6875 17.03125 119.347656 C 16.558594 119.003906 15.910156 118.835938 15.085938 118.835938 C 14.261719 118.835938 13.613281 119.003906 13.144531 119.347656 C 12.671875 119.6875 12.4375 120.15625 12.4375 120.75 C 12.4375 121.34375 12.671875 121.8125 13.144531 122.152344 C 13.613281 122.492188 14.261719 122.660156 15.085938 122.660156 Z M 17.472656 118.835938 C 17.878906 119.070312 18.179688 119.367188 18.378906 119.730469 C 18.578125 120.089844 18.675781 120.519531 18.675781 121.027344 C 18.675781 121.851562 18.347656 122.523438 17.6875 123.042969 C 17.027344 123.5625 16.160156 123.820312 15.085938 123.820312 C 14.011719 123.820312 13.144531 123.5625 12.488281 123.042969 C 11.828125 122.523438 11.5 121.851562 11.5 121.027344 C 11.5 120.519531 11.597656 120.089844 11.796875 119.730469 C 11.992188 119.367188 12.292969 119.070312 12.699219 118.835938 L 11.664062 118.835938 L 11.664062 117.710938 L 21.097656 117.710938 L 21.097656 118.835938 Z M 17.472656 118.835938 "/>
<path style=" stroke:none;fill-rule:nonzero;fill:rgb(0%,0%,0%);fill-opacity:1;" d="M 15.800781 115.511719 L 11.664062 115.511719 L 11.664062 114.390625 L 15.757812 114.390625 C 16.40625 114.390625 16.890625 114.265625 17.214844 114.011719 C 17.539062 113.761719 17.699219 113.382812 17.699219 112.875 C 17.699219 112.269531 17.507812 111.792969 17.121094 111.441406 C 16.734375 111.085938 16.207031 110.910156 15.539062 110.910156 L 11.664062 110.910156 L 11.664062 109.789062 L 18.5 109.789062 L 18.5 110.910156 L 17.449219 110.910156 C 17.863281 111.183594 18.171875 111.5 18.375 111.859375 C 18.574219 112.21875 18.675781 112.636719 18.675781 113.113281 C 18.675781 113.898438 18.433594 114.496094 17.945312 114.902344 C 17.457031 115.308594 16.742188 115.511719 15.800781 115.511719 Z M 11.5 112.6875 Z M 11.5 112.6875 "/>
<path style=" stroke:none;fill-rule:nonzero;fill:rgb(0%,0%,0%);fill-opacity:1;" d="M 14.800781 101.628906 L 15.347656 101.628906 L 15.347656 106.792969 C 16.121094 106.742188 16.710938 106.507812 17.117188 106.09375 C 17.519531 105.675781 17.722656 105.09375 17.722656 104.351562 C 17.722656 103.917969 17.671875 103.5 17.566406 103.097656 C 17.460938 102.691406 17.300781 102.289062 17.089844 101.890625 L 18.152344 101.890625 C 18.320312 102.292969 18.453125 102.707031 18.542969 103.128906 C 18.632812 103.554688 18.675781 103.980469 18.675781 104.417969 C 18.675781 105.507812 18.359375 106.371094 17.726562 107.007812 C 17.089844 107.644531 16.230469 107.964844 15.148438 107.964844 C 14.027344 107.964844 13.140625 107.660156 12.484375 107.058594 C 11.828125 106.453125 11.5 105.636719 11.5 104.613281 C 11.5 103.691406 11.792969 102.964844 12.386719 102.429688 C 12.976562 101.894531 13.78125 101.628906 14.800781 101.628906 Z M 14.46875 102.75 C 13.855469 102.757812 13.367188 102.929688 13 103.265625 C 12.632812 103.601562 12.449219 104.046875 12.449219 104.601562 C 12.449219 105.226562 12.625 105.726562 12.980469 106.105469 C 13.335938 106.480469 13.832031 106.699219 14.476562 106.753906 Z M 14.46875 102.75 "/>
<path style=" stroke:none;fill-rule:nonzero;fill:rgb(0%,0%,0%);fill-opacity:1;" d="M 14.371094 94.101562 L 18.5 94.101562 L 18.5 95.222656 L 14.410156 95.222656 C 13.761719 95.222656 13.277344 95.351562 12.957031 95.601562 C 12.636719 95.855469 12.476562 96.234375 12.476562 96.738281 C 12.476562 97.34375 12.667969 97.824219 13.054688 98.171875 C 13.441406 98.523438 13.96875 98.699219 14.636719 98.699219 L 18.5 98.699219 L 18.5 99.828125 L 11.664062 99.828125 L 11.664062 98.699219 L 12.726562 98.699219 C 12.3125 98.429688 12.007812 98.113281 11.804688 97.75 C 11.601562 97.386719 11.5 96.964844 11.5 96.488281 C 11.5 95.703125 11.742188 95.109375 12.226562 94.707031 C 12.710938 94.304688 13.425781 94.101562 14.371094 94.101562 Z M 14.371094 94.101562 "/>
<path style=" stroke:none;fill-rule:nonzero;fill:rgb(0%,0%,0%);fill-opacity:1;" d="M 11.925781 86.941406 L 12.976562 86.941406 C 12.800781 87.261719 12.667969 87.578125 12.582031 87.898438 C 12.492188 88.214844 12.449219 88.539062 12.449219 88.863281 C 12.449219 89.59375 12.679688 90.160156 13.144531 90.5625 C 13.605469 90.964844 14.25 91.167969 15.085938 91.167969 C 15.921875 91.167969 16.570312 90.964844 17.03125 90.5625 C 17.492188 90.160156 17.722656 89.59375 17.722656 88.863281 C 17.722656 88.539062 17.679688 88.214844 17.59375 87.898438 C 17.503906 87.578125 17.375 87.261719 17.199219 86.941406 L 18.238281 86.941406 C 18.382812 87.257812 18.492188 87.582031 18.566406 87.917969 C 18.640625 88.25 18.675781 88.609375 18.675781 88.988281 C 18.675781 90.015625 18.351562 90.835938 17.707031 91.441406 C 17.058594 92.046875 16.183594 92.351562 15.085938 92.351562 C 13.972656 92.351562 13.09375 92.042969 12.457031 91.433594 C 11.816406 90.820312 11.5 89.980469 11.5 88.914062 C 11.5 88.566406 11.535156 88.230469 11.605469 87.902344 C 11.675781 87.570312 11.78125 87.253906 11.925781 86.941406 Z M 11.925781 86.941406 "/>
<path style=" stroke:none;fill-rule:nonzero;fill:rgb(0%,0%,0%);fill-opacity:1;" d="M 19.132812 82.144531 C 19.945312 82.460938 20.476562 82.773438 20.726562 83.074219 C 20.972656 83.375 21.097656 83.777344 21.097656 84.28125 L 21.097656 85.179688 L 20.160156 85.179688 L 20.160156 84.519531 C 20.160156 84.210938 20.085938 83.972656 19.9375 83.800781 C 19.792969 83.628906 19.445312 83.4375 18.902344 83.230469 L 18.390625 83.03125 L 11.664062 85.792969 L 11.664062 84.605469 L 17.007812 82.46875 L 11.664062 80.332031 L 11.664062 79.140625 Z M 19.132812 82.144531 "/>
<path style=" stroke:none;fill-rule:nonzero;fill:rgb(0%,0%,0%);fill-opacity:1;" d="M 16.949219 78.210938 L 16.949219 76.925781 L 18.5 76.925781 L 18.5 78.210938 Z M 12.035156 78.210938 L 12.035156 76.925781 L 13.585938 76.925781 L 13.585938 78.210938 Z M 12.035156 78.210938 "/>
<path style=" stroke:none;fill-rule:nonzero;fill:rgb(0%,0%,0%);fill-opacity:1;" d="M 14.371094 64.628906 L 18.5 64.628906 L 18.5 65.753906 L 14.410156 65.753906 C 13.761719 65.753906 13.277344 65.878906 12.957031 66.132812 C 12.636719 66.386719 12.476562 66.761719 12.476562 67.265625 C 12.476562 67.875 12.667969 68.351562 13.054688 68.703125 C 13.441406 69.054688 13.96875 69.226562 14.636719 69.226562 L 18.5 69.226562 L 18.5 70.355469 L 11.664062 70.355469 L 11.664062 69.226562 L 12.726562 69.226562 C 12.3125 68.957031 12.007812 68.640625 11.804688 68.277344 C 11.601562 67.914062 11.5 67.492188 11.5 67.015625 C 11.5 66.230469 11.742188 65.636719 12.226562 65.234375 C 12.710938 64.832031 13.425781 64.628906 14.371094 64.628906 Z M 14.371094 64.628906 "/>
<path style=" stroke:none;fill-rule:nonzero;fill:rgb(0%,0%,0%);fill-opacity:1;" d="M 9.015625 59.695312 C 9.949219 60.238281 10.875 60.644531 11.792969 60.910156 C 12.707031 61.171875 13.632812 61.304688 14.574219 61.304688 C 15.511719 61.304688 16.445312 61.171875 17.367188 60.90625 C 18.289062 60.636719 19.214844 60.234375 20.148438 59.695312 L 20.148438 60.671875 C 19.191406 61.28125 18.25 61.738281 17.328125 62.039062 C 16.402344 62.34375 15.484375 62.496094 14.574219 62.496094 C 13.667969 62.496094 12.753906 62.34375 11.835938 62.042969 C 10.914062 61.742188 9.972656 61.285156 9.015625 60.671875 Z M 9.015625 59.695312 "/>
<path style=" stroke:none;fill-rule:nonzero;fill:rgb(0%,0%,0%);fill-opacity:1;" d="M 11.664062 51.832031 L 14.988281 54.304688 L 18.5 51.703125 L 18.5 53.027344 L 15.8125 55.019531 L 18.5 57.007812 L 18.5 58.332031 L 14.921875 55.675781 L 11.664062 58.105469 L 11.664062 56.78125 L 14.097656 54.96875 L 11.664062 53.15625 Z M 11.664062 51.832031 "/>
<path style=" stroke:none;fill-rule:nonzero;fill:rgb(0%,0%,0%);fill-opacity:1;" d="M 9.015625 50.292969 L 9.015625 49.316406 C 9.972656 48.707031 10.914062 48.25 11.835938 47.949219 C 12.753906 47.644531 13.667969 47.492188 14.574219 47.492188 C 15.484375 47.492188 16.402344 47.644531 17.328125 47.949219 C 18.25 48.25 19.191406 48.707031 20.148438 49.316406 L 20.148438 50.292969 C 19.214844 49.753906 18.289062 49.347656 17.367188 49.082031 C 16.445312 48.816406 15.511719 48.683594 14.574219 48.683594 C 13.632812 48.683594 12.707031 48.816406 11.792969 49.082031 C 10.875 49.347656 9.949219 49.753906 9.015625 50.292969 Z M 9.015625 50.292969 "/>
<g clip-path="url(#clip10)" clip-rule="nonzero">
<path style="fill:none;stroke-width:1.5;stroke-linecap:square;stroke-linejoin:round;stroke:rgb(12.156863%,46.666667%,70.588235%);stroke-opacity:1;stroke-miterlimit:4;" d="M -1 22.628125 L 54.35625 22.640625 L 66.296875 22.921875 L 73.284375 24.121875 L 78.240625 29.678125 L 82.084375 32.246875 L 85.225 35.93125 L 87.88125 36.253125 L 90.18125 39.45 L 94.028125 39.66875 L 95.66875 43.0375 L 97.16875 46.73125 L 98.546875 47.371875 L 101.0125 50.575 L 102.125 50.940625 L 103.16875 51.853125 L 104.153125 52.171875 L 105.084375 55.940625 L 105.96875 56.5625 L 106.809375 58.221875 L 107.6125 58.221875 L 108.378125 58.578125 L 109.109375 59.184375 L 109.8125 59.434375 L 110.490625 59.946875 L 111.140625 60.078125 L 112.371875 60.078125 L 113.51875 60.6125 L 114.065625 61.1625 L 114.596875 61.1625 L 115.1125 61.303125 L 115.609375 61.303125 L 116.096875 61.446875 L 116.56875 62.328125 L 117.028125 62.478125 L 117.475 62.7875 L 117.9125 64.25 L 118.753125 64.59375 L 119.15625 64.59375 L 119.553125 64.76875 L 119.940625 65.121875 L 121.409375 65.859375 L 122.096875 65.859375 L 122.43125 66.046875 L 122.759375 66.046875 L 123.08125 66.434375 L 123.709375 67.440625 L 124.0125 67.859375 L 124.3125 68.075 L 124.896875 68.075 L 126.009375 68.965625 L 126.540625 68.965625 L 126.8 69.19375 L 127.553125 71.165625 L 128.0375 71.7 L 128.275 71.7 L 128.509375 72.25 L 128.96875 72.25 L 129.41875 73.115625 L 129.6375 73.115625 L 130.896875 74.66875 L 131.690625 74.66875 L 131.884375 75 L 132.071875 75 L 132.2625 75.3375 L 132.446875 75.3375 L 132.63125 75.68125 L 133.175 75.68125 L 133.35 76.03125 L 133.525 76.03125 L 133.86875 76.759375 L 134.20625 76.759375 L 134.375 77.134375 L 134.5375 77.134375 L 134.8625 77.915625 L 135.340625 77.915625 L 135.65 78.7375 L 135.803125 78.7375 L 135.95625 79.1625 L 136.55 79.1625 L 136.696875 79.6 L 137.403125 79.6 L 137.54375 80.053125 L 138.084375 80.053125 L 138.21875 80.515625 L 138.86875 80.515625 L 138.996875 80.99375 L 139.246875 80.99375 L 139.371875 81.484375 L 139.859375 81.484375 L 139.98125 81.99375 L 140.21875 81.99375 L 140.3375 82.51875 L 140.56875 82.51875 L 140.684375 83.059375 L 140.8 83.059375 L 141.025 83.621875 L 141.46875 83.621875 L 141.6875 84.203125 L 142.009375 84.203125 L 142.221875 84.80625 L 142.7375 84.80625 L 142.940625 85.434375 L 143.140625 85.434375 L 143.340625 86.0875 L 143.634375 86.0875 L 143.825 86.76875 L 144.203125 86.76875 L 144.390625 87.478125 L 145.203125 87.478125 L 145.38125 88.221875 L 145.98125 88.221875 L 146.15 89.003125 L 147.046875 89.003125 L 147.203125 89.825 L 147.896875 89.825 L 148.05 90.6875 L 148.271875 90.6875 L 148.41875 91.603125 L 148.925 91.603125 L 149.065625 92.571875 L 150.159375 92.571875 L 150.29375 93.60625 L 150.9375 93.60625 L 151.065625 94.709375 L 151.803125 94.709375 L 151.921875 95.89375 L 153.246875 95.89375 L 153.4125 97.175 L 154.1625 97.175 L 154.321875 98.565625 L 155.76875 98.565625 L 155.909375 100.090625 L 157.496875 100.090625 L 157.625 101.775 L 159.10625 101.775 L 159.225 103.659375 L 161.428125 103.659375 L 161.565625 105.796875 L 164.103125 105.796875 L 164.221875 108.2625 L 166.675 108.2625 L 166.8 111.178125 L 170.0125 111.178125 L 170.1375 114.746875 L 174.078125 114.746875 L 174.19375 119.35 L 179.3875 119.35 L 179.509375 125.834375 L 186.80625 125.834375 L 186.921875 136.921875 L 199.58125 136.921875 " transform="matrix(1.25,0,0,1.25,0,0)"/>
</g>
<g clip-path="url(#clip11)" clip-rule="nonzero">
<path style="fill:none;stroke-width:1.5;stroke-linecap:butt;stroke-linejoin:round;stroke:rgb(74.901961%,0%,74.901961%);stroke-opacity:1;stroke-dasharray:5.55,2.4;stroke-miterlimit:4;" d="M -1 54.853125 L 54.35625 54.865625 L 73.284375 61.446875 L 78.240625 61.88125 L 82.084375 62.940625 L 85.225 63.41875 L 87.88125 65.859375 L 90.18125 67.234375 L 92.2125 68.29375 L 94.028125 69.428125 L 95.66875 69.665625 L 97.16875 70.90625 L 98.546875 71.165625 L 99.825 71.165625 L 101.0125 71.43125 L 102.125 74.028125 L 103.16875 74.028125 L 104.153125 74.66875 L 105.084375 74.66875 L 105.96875 75.3375 L 106.809375 75.3375 L 108.378125 76.03125 L 109.8125 76.03125 L 110.490625 76.390625 L 111.140625 76.390625 L 111.765625 77.521875 L 112.371875 77.915625 L 112.95625 77.915625 L 113.51875 78.321875 L 115.1125 78.321875 L 115.609375 79.1625 L 116.096875 79.6 L 117.028125 79.6 L 117.475 80.515625 L 118.3375 80.515625 L 118.753125 81.484375 L 119.15625 81.484375 L 119.940625 82.51875 L 121.053125 82.51875 L 121.75625 83.621875 L 122.43125 83.621875 L 122.759375 84.203125 L 123.709375 84.203125 L 124.0125 84.80625 L 124.60625 84.80625 L 124.896875 85.434375 L 125.4625 85.434375 L 125.7375 86.0875 L 126.540625 86.0875 L 126.8 86.76875 L 127.553125 86.76875 L 127.796875 87.478125 L 129.6375 87.478125 L 129.853125 88.221875 L 130.896875 88.221875 L 131.1 89.003125 L 131.496875 89.003125 L 131.690625 89.825 L 133.175 89.825 L 133.35 90.6875 L 134.5375 90.6875 L 134.703125 91.603125 L 135.184375 91.603125 L 135.340625 92.571875 L 137.54375 92.571875 L 137.68125 93.60625 L 139.98125 93.60625 L 140.1 94.709375 L 141.796875 94.709375 L 142.009375 95.89375 L 143.534375 95.89375 L 143.728125 97.175 L 145.29375 97.175 L 145.46875 98.565625 L 147.4375 98.565625 L 147.59375 100.090625 L 150.490625 100.090625 L 150.61875 101.775 L 152.853125 101.775 L 152.96875 103.659375 L 156.1 103.659375 L 156.240625 105.796875 L 159.459375 105.796875 L 159.575 108.2625 L 163.225 108.2625 L 163.35 111.178125 L 167.828125 111.178125 L 167.946875 114.746875 L 174.128125 114.746875 L 174.24375 119.35 L 182.20625 119.35 L 182.31875 125.834375 L 195.478125 125.834375 L 195.590625 136.921875 L 225.184375 136.921875 " transform="matrix(1.25,0,0,1.25,0,0)"/>
</g>
<g clip-path="url(#clip12)" clip-rule="nonzero">
<path style="fill:none;stroke-width:1.5;stroke-linecap:butt;stroke-linejoin:round;stroke:rgb(0%,50.196078%,0%);stroke-opacity:1;stroke-dasharray:9.6,2.4,1.5,2.4;stroke-miterlimit:4;" d="M -1 82.503125 L 54.35625 82.51875 L 66.296875 86.0875 L 73.284375 92.571875 L 78.240625 93.60625 L 82.084375 93.60625 L 85.225 94.709375 L 87.88125 94.709375 L 90.18125 95.89375 L 92.2125 95.89375 L 94.028125 97.175 L 98.546875 97.175 L 99.825 98.565625 L 105.96875 98.565625 L 106.809375 100.090625 L 109.8125 100.090625 L 110.490625 101.775 L 114.065625 101.775 L 114.596875 103.659375 L 121.053125 103.659375 L 121.409375 105.796875 L 126.275 105.796875 L 126.540625 108.2625 L 132.63125 108.2625 L 132.815625 111.178125 L 140.56875 111.178125 L 140.684375 114.746875 L 148.271875 114.746875 L 148.41875 119.35 L 160.653125 119.35 L 160.796875 125.834375 L 181.7875 125.834375 L 181.903125 136.921875 L 231.9 136.921875 " transform="matrix(1.25,0,0,1.25,0,0)"/>
</g>
<path style="fill:none;stroke-width:0.8;stroke-linecap:square;stroke-linejoin:miter;stroke:rgb(0%,0%,0%);stroke-opacity:1;stroke-miterlimit:4;" d="M 45.478125 143.1 L 45.478125 7.2 " transform="matrix(1.25,0,0,1.25,0,0)"/>
<path style="fill:none;stroke-width:0.8;stroke-linecap:square;stroke-linejoin:miter;stroke:rgb(0%,0%,0%);stroke-opacity:1;stroke-miterlimit:4;" d="M 240.778125 143.1 L 240.778125 7.2 " transform="matrix(1.25,0,0,1.25,0,0)"/>
<path style="fill:none;stroke-width:0.8;stroke-linecap:square;stroke-linejoin:miter;stroke:rgb(0%,0%,0%);stroke-opacity:1;stroke-miterlimit:4;" d="M 45.478125 143.1 L 240.778125 143.1 " transform="matrix(1.25,0,0,1.25,0,0)"/>
<path style="fill:none;stroke-width:0.8;stroke-linecap:square;stroke-linejoin:miter;stroke:rgb(0%,0%,0%);stroke-opacity:1;stroke-miterlimit:4;" d="M 45.478125 7.2 L 240.778125 7.2 " transform="matrix(1.25,0,0,1.25,0,0)"/>
<use xlink:href="#surface5" mask="url(#mask0)"/>
<path style="fill:none;stroke-width:1.5;stroke-linecap:square;stroke-linejoin:round;stroke:rgb(12.156863%,46.666667%,70.588235%);stroke-opacity:1;stroke-miterlimit:4;" d="M 161.996875 20.3 L 181.996875 20.3 " transform="matrix(1.25,0,0,1.25,0,0)"/>
<path style=" stroke:none;fill-rule:nonzero;fill:rgb(0%,0%,0%);fill-opacity:1;" d="M 238.558594 27.050781 L 238.558594 22.914062 L 239.679688 22.914062 L 239.679688 27.007812 C 239.679688 27.65625 239.808594 28.140625 240.058594 28.464844 C 240.3125 28.789062 240.691406 28.949219 241.195312 28.949219 C 241.800781 28.949219 242.28125 28.757812 242.632812 28.371094 C 242.984375 27.984375 243.160156 27.457031 243.160156 26.789062 L 243.160156 22.914062 L 244.28125 22.914062 L 244.28125 29.75 L 243.160156 29.75 L 243.160156 28.699219 C 242.886719 29.113281 242.570312 29.421875 242.210938 29.625 C 241.851562 29.824219 241.433594 29.925781 240.957031 29.925781 C 240.171875 29.925781 239.574219 29.683594 239.167969 29.195312 C 238.761719 28.707031 238.558594 27.992188 238.558594 27.050781 Z M 241.382812 22.75 Z M 241.382812 22.75 "/>
<path style=" stroke:none;fill-rule:nonzero;fill:rgb(0%,0%,0%);fill-opacity:1;" d="M 252.28125 25.621094 L 252.28125 29.75 L 251.15625 29.75 L 251.15625 25.660156 C 251.15625 25.011719 251.03125 24.527344 250.777344 24.207031 C 250.523438 23.886719 250.148438 23.726562 249.644531 23.726562 C 249.035156 23.726562 248.558594 23.917969 248.207031 24.304688 C 247.855469 24.691406 247.683594 25.21875 247.683594 25.886719 L 247.683594 29.75 L 246.554688 29.75 L 246.554688 22.914062 L 247.683594 22.914062 L 247.683594 23.976562 C 247.953125 23.5625 248.269531 23.257812 248.632812 23.054688 C 248.996094 22.851562 249.417969 22.75 249.894531 22.75 C 250.679688 22.75 251.273438 22.992188 251.675781 23.476562 C 252.078125 23.960938 252.28125 24.675781 252.28125 25.621094 Z M 252.28125 25.621094 "/>
<path style=" stroke:none;fill-rule:nonzero;fill:rgb(0%,0%,0%);fill-opacity:1;" d="M 254.519531 22.914062 L 255.640625 22.914062 L 255.640625 29.75 L 254.519531 29.75 Z M 254.519531 20.25 L 255.640625 20.25 L 255.640625 21.675781 L 254.519531 21.675781 Z M 254.519531 20.25 "/>
<path style=" stroke:none;fill-rule:nonzero;fill:rgb(0%,0%,0%);fill-opacity:1;" d="M 262.488281 26.25 C 262.488281 25.4375 262.320312 24.804688 261.984375 24.359375 C 261.652344 23.910156 261.179688 23.6875 260.574219 23.6875 C 259.972656 23.6875 259.503906 23.910156 259.167969 24.359375 C 258.832031 24.804688 258.664062 25.4375 258.664062 26.25 C 258.664062 27.058594 258.832031 27.6875 259.167969 28.136719 C 259.503906 28.585938 259.972656 28.808594 260.574219 28.808594 C 261.179688 28.808594 261.652344 28.585938 261.984375 28.136719 C 262.320312 27.6875 262.488281 27.058594 262.488281 26.25 Z M 263.613281 28.902344 C 263.613281 30.0625 263.355469 30.929688 262.835938 31.496094 C 262.320312 32.0625 261.53125 32.347656 260.464844 32.347656 C 260.070312 32.347656 259.695312 32.320312 259.347656 32.261719 C 258.996094 32.203125 258.65625 32.109375 258.328125 31.988281 L 258.328125 30.898438 C 258.65625 31.074219 258.980469 31.207031 259.304688 31.292969 C 259.625 31.378906 259.953125 31.421875 260.285156 31.421875 C 261.023438 31.421875 261.574219 31.226562 261.941406 30.84375 C 262.304688 30.460938 262.488281 29.878906 262.488281 29.101562 L 262.488281 28.546875 C 262.257812 28.949219 261.960938 29.25 261.597656 29.449219 C 261.238281 29.648438 260.804688 29.75 260.296875 29.75 C 259.460938 29.75 258.785156 29.429688 258.273438 28.792969 C 257.757812 28.152344 257.503906 27.304688 257.503906 26.25 C 257.503906 25.191406 257.757812 24.34375 258.273438 23.707031 C 258.785156 23.066406 259.460938 22.75 260.296875 22.75 C 260.804688 22.75 261.238281 22.847656 261.597656 23.046875 C 261.960938 23.246094 262.257812 23.546875 262.488281 23.949219 L 262.488281 22.914062 L 263.613281 22.914062 Z M 263.613281 28.902344 "/>
<path style=" stroke:none;fill-rule:nonzero;fill:rgb(0%,0%,0%);fill-opacity:1;" d="M 269.886719 23.960938 C 269.761719 23.886719 269.625 23.835938 269.476562 23.800781 C 269.328125 23.765625 269.164062 23.75 268.984375 23.75 C 268.347656 23.75 267.863281 23.953125 267.523438 24.367188 C 267.183594 24.78125 267.011719 25.375 267.011719 26.148438 L 267.011719 29.75 L 265.882812 29.75 L 265.882812 22.914062 L 267.011719 22.914062 L 267.011719 23.976562 C 267.25 23.558594 267.554688 23.25 267.933594 23.050781 C 268.3125 22.847656 268.773438 22.75 269.316406 22.75 C 269.390625 22.75 269.476562 22.753906 269.570312 22.765625 C 269.664062 22.773438 269.769531 22.789062 269.882812 22.808594 Z M 269.886719 23.960938 "/>
<path style=" stroke:none;fill-rule:nonzero;fill:rgb(0%,0%,0%);fill-opacity:1;" d="M 274.171875 26.3125 C 273.265625 26.3125 272.636719 26.417969 272.285156 26.625 C 271.9375 26.832031 271.761719 27.183594 271.761719 27.6875 C 271.761719 28.085938 271.890625 28.402344 272.15625 28.636719 C 272.417969 28.867188 272.773438 28.984375 273.226562 28.984375 C 273.847656 28.984375 274.347656 28.765625 274.726562 28.324219 C 275.101562 27.882812 275.289062 27.292969 275.289062 26.5625 L 275.289062 26.3125 Z M 276.414062 25.847656 L 276.414062 29.75 L 275.289062 29.75 L 275.289062 28.710938 C 275.035156 29.125 274.714844 29.429688 274.332031 29.628906 C 273.949219 29.828125 273.480469 29.925781 272.925781 29.925781 C 272.226562 29.925781 271.671875 29.730469 271.257812 29.335938 C 270.84375 28.941406 270.636719 28.417969 270.636719 27.757812 C 270.636719 26.988281 270.894531 26.410156 271.410156 26.019531 C 271.925781 25.628906 272.691406 25.433594 273.714844 25.433594 L 275.289062 25.433594 L 275.289062 25.324219 C 275.289062 24.804688 275.121094 24.40625 274.78125 24.125 C 274.441406 23.839844 273.964844 23.699219 273.347656 23.699219 C 272.957031 23.699219 272.578125 23.746094 272.207031 23.839844 C 271.835938 23.933594 271.480469 24.074219 271.140625 24.261719 L 271.140625 23.222656 C 271.550781 23.0625 271.949219 22.945312 272.335938 22.867188 C 272.722656 22.789062 273.097656 22.75 273.464844 22.75 C 274.453125 22.75 275.191406 23.003906 275.679688 23.519531 C 276.167969 24.03125 276.414062 24.804688 276.414062 25.847656 Z M 276.414062 25.847656 "/>
<path style=" stroke:none;fill-rule:nonzero;fill:rgb(0%,0%,0%);fill-opacity:1;" d="M 284.046875 24.226562 C 284.328125 23.71875 284.664062 23.347656 285.054688 23.109375 C 285.445312 22.867188 285.90625 22.75 286.433594 22.75 C 287.144531 22.75 287.695312 22.996094 288.082031 23.496094 C 288.46875 23.992188 288.664062 24.703125 288.664062 25.621094 L 288.664062 29.75 L 287.535156 29.75 L 287.535156 25.660156 C 287.535156 25.003906 287.417969 24.519531 287.183594 24.203125 C 286.953125 23.882812 286.597656 23.726562 286.125 23.726562 C 285.542969 23.726562 285.082031 23.917969 284.742188 24.304688 C 284.40625 24.691406 284.238281 25.21875 284.238281 25.886719 L 284.238281 29.75 L 283.109375 29.75 L 283.109375 25.660156 C 283.109375 25 282.992188 24.511719 282.761719 24.199219 C 282.527344 23.882812 282.171875 23.726562 281.6875 23.726562 C 281.113281 23.726562 280.65625 23.917969 280.316406 24.308594 C 279.980469 24.695312 279.8125 25.222656 279.8125 25.886719 L 279.8125 29.75 L 278.683594 29.75 L 278.683594 22.914062 L 279.8125 22.914062 L 279.8125 23.976562 C 280.066406 23.554688 280.375 23.246094 280.734375 23.046875 C 281.089844 22.847656 281.515625 22.75 282.007812 22.75 C 282.503906 22.75 282.929688 22.875 283.277344 23.128906 C 283.625 23.378906 283.878906 23.746094 284.046875 24.226562 Z M 284.046875 24.226562 "/>
<path style="fill:none;stroke-width:1.5;stroke-linecap:butt;stroke-linejoin:round;stroke:rgb(74.901961%,0%,74.901961%);stroke-opacity:1;stroke-dasharray:5.55,2.4;stroke-miterlimit:4;" d="M 161.996875 34.975 L 181.996875 34.975 " transform="matrix(1.25,0,0,1.25,0,0)"/>
<path style=" stroke:none;fill-rule:nonzero;fill:rgb(0%,0%,0%);fill-opacity:1;" d="M 243.582031 44.683594 C 243.582031 43.859375 243.414062 43.210938 243.070312 42.738281 C 242.734375 42.269531 242.265625 42.035156 241.671875 42.035156 C 241.078125 42.035156 240.609375 42.269531 240.269531 42.738281 C 239.929688 43.210938 239.757812 43.859375 239.757812 44.683594 C 239.757812 45.507812 239.929688 46.15625 240.269531 46.625 C 240.609375 47.097656 241.078125 47.332031 241.671875 47.332031 C 242.265625 47.332031 242.734375 47.097656 243.070312 46.625 C 243.414062 46.15625 243.582031 45.507812 243.582031 44.683594 Z M 239.757812 42.296875 C 239.996094 41.890625 240.296875 41.589844 240.65625 41.390625 C 241.015625 41.195312 241.445312 41.09375 241.945312 41.09375 C 242.777344 41.09375 243.449219 41.425781 243.96875 42.082031 C 244.488281 42.742188 244.75 43.609375 244.75 44.683594 C 244.75 45.757812 244.488281 46.625 243.96875 47.285156 C 243.449219 47.945312 242.777344 48.273438 241.945312 48.273438 C 241.445312 48.273438 241.015625 48.175781 240.65625 47.976562 C 240.296875 47.777344 239.996094 47.476562 239.757812 47.070312 L 239.757812 48.09375 L 238.632812 48.09375 L 238.632812 38.597656 L 239.757812 38.597656 Z M 239.757812 42.296875 "/>
<path style=" stroke:none;fill-rule:nonzero;fill:rgb(0%,0%,0%);fill-opacity:1;" d="M 246.609375 41.257812 L 247.730469 41.257812 L 247.730469 48.09375 L 246.609375 48.09375 Z M 246.609375 38.597656 L 247.730469 38.597656 L 247.730469 40.019531 L 246.609375 40.019531 Z M 246.609375 38.597656 "/>
<path style=" stroke:none;fill-rule:nonzero;fill:rgb(0%,0%,0%);fill-opacity:1;" d="M 254.578125 44.597656 C 254.578125 43.785156 254.410156 43.152344 254.074219 42.707031 C 253.742188 42.257812 253.269531 42.035156 252.664062 42.035156 C 252.0625 42.035156 251.59375 42.257812 251.257812 42.707031 C 250.921875 43.152344 250.753906 43.785156 250.753906 44.597656 C 250.753906 45.40625 250.921875 46.035156 251.257812 46.484375 C 251.59375 46.933594 252.0625 47.15625 252.664062 47.15625 C 253.269531 47.15625 253.742188 46.933594 254.074219 46.484375 C 254.410156 46.035156 254.578125 45.40625 254.578125 44.597656 Z M 255.703125 47.246094 C 255.703125 48.410156 255.445312 49.277344 254.925781 49.84375 C 254.410156 50.410156 253.621094 50.695312 252.554688 50.695312 C 252.160156 50.695312 251.785156 50.664062 251.4375 50.605469 C 251.085938 50.546875 250.746094 50.457031 250.417969 50.335938 L 250.417969 49.242188 C 250.746094 49.421875 251.070312 49.554688 251.394531 49.636719 C 251.714844 49.722656 252.042969 49.765625 252.375 49.765625 C 253.113281 49.765625 253.664062 49.574219 254.03125 49.191406 C 254.394531 48.808594 254.578125 48.226562 254.578125 47.449219 L 254.578125 46.890625 C 254.347656 47.296875 254.050781 47.597656 253.6875 47.796875 C 253.328125 47.996094 252.894531 48.09375 252.386719 48.09375 C 251.550781 48.09375 250.875 47.777344 250.363281 47.136719 C 249.847656 46.5 249.59375 45.652344 249.59375 44.597656 C 249.59375 43.539062 249.847656 42.691406 250.363281 42.054688 C 250.875 41.414062 251.550781 41.09375 252.386719 41.09375 C 252.894531 41.09375 253.328125 41.195312 253.6875 41.394531 C 254.050781 41.59375 254.347656 41.894531 254.578125 42.296875 L 254.578125 41.257812 L 255.703125 41.257812 Z M 255.703125 47.246094 "/>
<path style=" stroke:none;fill-rule:nonzero;fill:rgb(0%,0%,0%);fill-opacity:1;" d="M 261.976562 42.308594 C 261.851562 42.234375 261.714844 42.183594 261.566406 42.148438 C 261.417969 42.113281 261.253906 42.09375 261.074219 42.09375 C 260.4375 42.09375 259.953125 42.300781 259.613281 42.714844 C 259.273438 43.128906 259.101562 43.71875 259.101562 44.492188 L 259.101562 48.09375 L 257.972656 48.09375 L 257.972656 41.257812 L 259.101562 41.257812 L 259.101562 42.320312 C 259.339844 41.90625 259.644531 41.597656 260.023438 41.398438 C 260.402344 41.195312 260.863281 41.09375 261.40625 41.09375 C 261.480469 41.09375 261.566406 41.101562 261.660156 41.109375 C 261.753906 41.121094 261.859375 41.136719 261.972656 41.15625 Z M 261.976562 42.308594 "/>
<path style=" stroke:none;fill-rule:nonzero;fill:rgb(0%,0%,0%);fill-opacity:1;" d="M 266.261719 44.660156 C 265.355469 44.660156 264.726562 44.761719 264.375 44.96875 C 264.027344 45.175781 263.851562 45.53125 263.851562 46.03125 C 263.851562 46.429688 263.980469 46.746094 264.246094 46.980469 C 264.507812 47.214844 264.863281 47.332031 265.316406 47.332031 C 265.9375 47.332031 266.4375 47.109375 266.816406 46.667969 C 267.191406 46.226562 267.378906 45.640625 267.378906 44.910156 L 267.378906 44.660156 Z M 268.503906 44.195312 L 268.503906 48.09375 L 267.378906 48.09375 L 267.378906 47.058594 C 267.125 47.472656 266.804688 47.777344 266.421875 47.976562 C 266.039062 48.175781 265.570312 48.273438 265.015625 48.273438 C 264.316406 48.273438 263.761719 48.078125 263.347656 47.683594 C 262.933594 47.289062 262.726562 46.765625 262.726562 46.105469 C 262.726562 45.335938 262.984375 44.757812 263.5 44.367188 C 264.015625 43.976562 264.78125 43.78125 265.804688 43.78125 L 267.378906 43.78125 L 267.378906 43.667969 C 267.378906 43.152344 267.210938 42.753906 266.871094 42.46875 C 266.53125 42.1875 266.054688 42.046875 265.4375 42.046875 C 265.046875 42.046875 264.667969 42.09375 264.296875 42.1875 C 263.925781 42.28125 263.570312 42.421875 263.230469 42.609375 L 263.230469 41.570312 C 263.640625 41.410156 264.039062 41.292969 264.425781 41.214844 C 264.8125 41.136719 265.1875 41.09375 265.554688 41.09375 C 266.542969 41.09375 267.28125 41.351562 267.769531 41.863281 C 268.257812 42.375 268.503906 43.152344 268.503906 44.195312 Z M 268.503906 44.195312 "/>
<path style=" stroke:none;fill-rule:nonzero;fill:rgb(0%,0%,0%);fill-opacity:1;" d="M 276.136719 42.570312 C 276.417969 42.066406 276.753906 41.695312 277.144531 41.453125 C 277.535156 41.214844 277.996094 41.09375 278.523438 41.09375 C 279.234375 41.09375 279.785156 41.34375 280.171875 41.84375 C 280.558594 42.339844 280.753906 43.050781 280.753906 43.96875 L 280.753906 48.09375 L 279.625 48.09375 L 279.625 44.003906 C 279.625 43.351562 279.507812 42.863281 279.273438 42.546875 C 279.042969 42.230469 278.6875 42.070312 278.214844 42.070312 C 277.632812 42.070312 277.171875 42.265625 276.832031 42.652344 C 276.496094 43.039062 276.328125 43.5625 276.328125 44.230469 L 276.328125 48.09375 L 275.199219 48.09375 L 275.199219 44.003906 C 275.199219 43.347656 275.082031 42.859375 274.851562 42.542969 C 274.617188 42.230469 274.261719 42.070312 273.777344 42.070312 C 273.203125 42.070312 272.746094 42.265625 272.40625 42.652344 C 272.070312 43.042969 271.902344 43.566406 271.902344 44.230469 L 271.902344 48.09375 L 270.773438 48.09375 L 270.773438 41.257812 L 271.902344 41.257812 L 271.902344 42.320312 C 272.15625 41.902344 272.464844 41.59375 272.824219 41.394531 C 273.179688 41.195312 273.605469 41.09375 274.097656 41.09375 C 274.59375 41.09375 275.019531 41.222656 275.367188 41.472656 C 275.714844 41.726562 275.96875 42.089844 276.136719 42.570312 Z M 276.136719 42.570312 "/>
<path style="fill:none;stroke-width:1.5;stroke-linecap:butt;stroke-linejoin:round;stroke:rgb(0%,50.196078%,0%);stroke-opacity:1;stroke-dasharray:9.6,2.4,1.5,2.4;stroke-miterlimit:4;" d="M 161.996875 49.65625 L 181.996875 49.65625 " transform="matrix(1.25,0,0,1.25,0,0)"/>
<path style=" stroke:none;fill-rule:nonzero;fill:rgb(0%,0%,0%);fill-opacity:1;" d="M 239.785156 57.667969 L 239.785156 59.609375 L 242.097656 59.609375 L 242.097656 60.480469 L 239.785156 60.480469 L 239.785156 64.191406 C 239.785156 64.75 239.859375 65.105469 240.015625 65.265625 C 240.164062 65.425781 240.476562 65.503906 240.945312 65.503906 L 242.097656 65.503906 L 242.097656 66.445312 L 240.945312 66.445312 C 240.078125 66.445312 239.480469 66.28125 239.148438 65.960938 C 238.820312 65.636719 238.65625 65.046875 238.65625 64.191406 L 238.65625 60.480469 L 237.832031 60.480469 L 237.832031 59.609375 L 238.65625 59.609375 L 238.65625 57.667969 Z M 239.785156 57.667969 "/>
<path style=" stroke:none;fill-rule:nonzero;fill:rgb(0%,0%,0%);fill-opacity:1;" d="M 247.535156 60.65625 C 247.410156 60.582031 247.273438 60.53125 247.125 60.496094 C 246.976562 60.460938 246.8125 60.445312 246.632812 60.445312 C 246 60.445312 245.511719 60.648438 245.171875 61.0625 C 244.832031 61.476562 244.660156 62.070312 244.660156 62.84375 L 244.660156 66.445312 L 243.53125 66.445312 L 243.53125 59.609375 L 244.660156 59.609375 L 244.660156 60.671875 C 244.898438 60.253906 245.207031 59.945312 245.582031 59.746094 C 245.960938 59.542969 246.421875 59.445312 246.964844 59.445312 C 247.039062 59.445312 247.125 59.449219 247.21875 59.460938 C 247.3125 59.46875 247.417969 59.484375 247.53125 59.503906 Z M 247.535156 60.65625 "/>
<path style=" stroke:none;fill-rule:nonzero;fill:rgb(0%,0%,0%);fill-opacity:1;" d="M 248.714844 59.609375 L 249.835938 59.609375 L 249.835938 66.445312 L 248.714844 66.445312 Z M 248.714844 56.945312 L 249.835938 56.945312 L 249.835938 58.371094 L 248.714844 58.371094 Z M 248.714844 56.945312 "/>
<path style=" stroke:none;fill-rule:nonzero;fill:rgb(0%,0%,0%);fill-opacity:1;" d="M 256.683594 62.945312 C 256.683594 62.132812 256.515625 61.5 256.179688 61.054688 C 255.847656 60.605469 255.375 60.382812 254.769531 60.382812 C 254.167969 60.382812 253.699219 60.605469 253.363281 61.054688 C 253.027344 61.5 252.859375 62.132812 252.859375 62.945312 C 252.859375 63.753906 253.027344 64.382812 253.363281 64.832031 C 253.699219 65.28125 254.167969 65.503906 254.769531 65.503906 C 255.375 65.503906 255.847656 65.28125 256.179688 64.832031 C 256.515625 64.382812 256.683594 63.753906 256.683594 62.945312 Z M 257.808594 65.597656 C 257.808594 66.757812 257.550781 67.625 257.03125 68.191406 C 256.515625 68.757812 255.726562 69.042969 254.660156 69.042969 C 254.265625 69.042969 253.894531 69.015625 253.542969 68.957031 C 253.191406 68.898438 252.851562 68.804688 252.523438 68.683594 L 252.523438 67.59375 C 252.851562 67.769531 253.179688 67.902344 253.5 67.988281 C 253.820312 68.074219 254.148438 68.117188 254.480469 68.117188 C 255.21875 68.117188 255.769531 67.921875 256.136719 67.539062 C 256.503906 67.15625 256.683594 66.574219 256.683594 65.796875 L 256.683594 65.242188 C 256.453125 65.644531 256.15625 65.945312 255.792969 66.144531 C 255.433594 66.34375 255 66.445312 254.492188 66.445312 C 253.65625 66.445312 252.980469 66.125 252.46875 65.488281 C 251.957031 64.847656 251.699219 64 251.699219 62.945312 C 251.699219 61.886719 251.957031 61.039062 252.46875 60.402344 C 252.980469 59.761719 253.65625 59.445312 254.492188 59.445312 C 255 59.445312 255.433594 59.542969 255.792969 59.742188 C 256.15625 59.941406 256.453125 60.242188 256.683594 60.644531 L 256.683594 59.609375 L 257.808594 59.609375 Z M 257.808594 65.597656 "/>
<path style=" stroke:none;fill-rule:nonzero;fill:rgb(0%,0%,0%);fill-opacity:1;" d="M 264.082031 60.65625 C 263.957031 60.582031 263.820312 60.53125 263.671875 60.496094 C 263.523438 60.460938 263.359375 60.445312 263.179688 60.445312 C 262.542969 60.445312 262.058594 60.648438 261.71875 61.0625 C 261.378906 61.476562 261.207031 62.070312 261.207031 62.84375 L 261.207031 66.445312 L 260.078125 66.445312 L 260.078125 59.609375 L 261.207031 59.609375 L 261.207031 60.671875 C 261.445312 60.253906 261.75 59.945312 262.128906 59.746094 C 262.507812 59.542969 262.96875 59.445312 263.511719 59.445312 C 263.585938 59.445312 263.671875 59.449219 263.765625 59.460938 C 263.859375 59.46875 263.964844 59.484375 264.078125 59.503906 Z M 264.082031 60.65625 "/>
<path style=" stroke:none;fill-rule:nonzero;fill:rgb(0%,0%,0%);fill-opacity:1;" d="M 268.367188 63.007812 C 267.460938 63.007812 266.832031 63.113281 266.480469 63.320312 C 266.132812 63.527344 265.957031 63.878906 265.957031 64.382812 C 265.957031 64.78125 266.085938 65.097656 266.351562 65.332031 C 266.613281 65.5625 266.96875 65.679688 267.421875 65.679688 C 268.042969 65.679688 268.542969 65.460938 268.921875 65.019531 C 269.296875 64.578125 269.484375 63.988281 269.484375 63.257812 L 269.484375 63.007812 Z M 270.609375 62.542969 L 270.609375 66.445312 L 269.484375 66.445312 L 269.484375 65.40625 C 269.230469 65.820312 268.910156 66.125 268.527344 66.324219 C 268.144531 66.523438 267.675781 66.621094 267.121094 66.621094 C 266.421875 66.621094 265.867188 66.425781 265.453125 66.03125 C 265.039062 65.636719 264.832031 65.113281 264.832031 64.453125 C 264.832031 63.683594 265.089844 63.105469 265.605469 62.714844 C 266.121094 62.324219 266.886719 62.128906 267.910156 62.128906 L 269.484375 62.128906 L 269.484375 62.019531 C 269.484375 61.5 269.316406 61.101562 268.976562 60.820312 C 268.636719 60.535156 268.160156 60.394531 267.542969 60.394531 C 267.152344 60.394531 266.773438 60.441406 266.402344 60.535156 C 266.03125 60.628906 265.675781 60.769531 265.335938 60.957031 L 265.335938 59.917969 C 265.746094 59.757812 266.144531 59.640625 266.53125 59.5625 C 266.917969 59.484375 267.292969 59.445312 267.660156 59.445312 C 268.648438 59.445312 269.386719 59.699219 269.875 60.214844 C 270.363281 60.726562 270.609375 61.5 270.609375 62.542969 Z M 270.609375 62.542969 "/>
<path style=" stroke:none;fill-rule:nonzero;fill:rgb(0%,0%,0%);fill-opacity:1;" d="M 278.242188 60.921875 C 278.523438 60.414062 278.859375 60.042969 279.25 59.804688 C 279.640625 59.5625 280.101562 59.445312 280.628906 59.445312 C 281.34375 59.445312 281.890625 59.691406 282.277344 60.191406 C 282.664062 60.6875 282.859375 61.398438 282.859375 62.316406 L 282.859375 66.445312 L 281.730469 66.445312 L 281.730469 62.355469 C 281.730469 61.699219 281.613281 61.214844 281.378906 60.898438 C 281.148438 60.578125 280.792969 60.421875 280.320312 60.421875 C 279.738281 60.421875 279.277344 60.613281 278.9375 61 C 278.601562 61.386719 278.433594 61.914062 278.433594 62.582031 L 278.433594 66.445312 L 277.304688 66.445312 L 277.304688 62.355469 C 277.304688 61.695312 277.1875 61.207031 276.957031 60.894531 C 276.722656 60.578125 276.367188 60.421875 275.882812 60.421875 C 275.308594 60.421875 274.851562 60.613281 274.511719 61.003906 C 274.175781 61.390625 274.007812 61.917969 274.007812 62.582031 L 274.007812 66.445312 L 272.878906 66.445312 L 272.878906 59.609375 L 274.007812 59.609375 L 274.007812 60.671875 C 274.261719 60.25 274.570312 59.941406 274.929688 59.742188 C 275.285156 59.542969 275.710938 59.445312 276.203125 59.445312 C 276.703125 59.445312 277.125 59.570312 277.472656 59.824219 C 277.820312 60.074219 278.078125 60.441406 278.242188 60.921875 Z M 278.242188 60.921875 "/>
</g>
</svg>
