<?xml version="1.0" encoding="UTF-8"?>
<svg xmlns="http://www.w3.org/2000/svg" xmlns:xlink="http://www.w3.org/1999/xlink" width="351pt" height="186pt" viewBox="0 0 351 186" version="1.1">
<g id="surface1">
<path style="fill:none;stroke-width:1;stroke-linecap:round;stroke-linejoin:round;stroke:rgb(0%,0%,0%);stroke-opacity:1;stroke-miterlimit:10;" d="M 673.8 397.8 L 708.703125 397.8 L 708.703125 413.15 L 673.8 413.15 Z M 673.8 397.8 " transform="matrix(1.25,0,0,1.25,-841.25,-385)"/>
<path style=" stroke:none;fill-rule:nonzero;fill:rgb(0%,0%,0%);fill-opacity:1;" d="M 11.371094 118.230469 C 10.492188 119.1875 9.398438 119.988281 8.089844 120.613281 L 8.34375 121.082031 C 9.671875 120.417969 10.746094 119.636719 11.566406 118.71875 C 12.445312 119.675781 13.5 120.457031 14.75 121.042969 L 15.023438 120.574219 C 13.792969 120.007812 12.699219 119.226562 11.761719 118.230469 Z M 9.476562 120.613281 L 9.476562 121.121094 L 11.292969 121.121094 L 11.292969 122.429688 L 9.105469 122.429688 L 9.105469 122.957031 L 11.292969 122.957031 L 11.292969 124.34375 L 8.441406 124.34375 L 8.441406 124.871094 L 14.691406 124.871094 L 14.691406 124.34375 L 11.839844 124.34375 L 11.839844 122.957031 L 14.007812 122.957031 L 14.007812 122.429688 L 11.839844 122.429688 L 11.839844 121.121094 L 13.65625 121.121094 L 13.65625 120.613281 Z M 9.476562 120.613281 "/>
<path style=" stroke:none;fill-rule:nonzero;fill:rgb(0%,0%,0%);fill-opacity:1;" d="M 16.273438 118.328125 L 15.902344 118.679688 C 16.449219 119.109375 16.859375 119.519531 17.152344 119.890625 L 17.542969 119.5 C 17.210938 119.109375 16.78125 118.71875 16.273438 118.328125 Z M 20.628906 124.949219 L 22.347656 124.949219 L 22.484375 124.421875 C 22.289062 124.441406 21.996094 124.441406 21.644531 124.441406 C 21.273438 124.460938 20.902344 124.460938 20.550781 124.460938 C 19.984375 124.460938 19.496094 124.460938 19.105469 124.441406 C 18.675781 124.441406 18.324219 124.382812 18.109375 124.265625 C 17.894531 124.167969 17.699219 124.011719 17.523438 123.796875 C 17.464844 123.738281 17.40625 123.660156 17.347656 123.621094 L 17.347656 120.828125 L 15.765625 120.828125 L 15.765625 121.316406 L 16.839844 121.316406 L 16.839844 123.601562 C 16.546875 123.738281 16.195312 124.109375 15.785156 124.734375 L 16.195312 125.105469 C 16.605469 124.421875 16.898438 124.070312 17.074219 124.070312 C 17.171875 124.070312 17.269531 124.128906 17.367188 124.265625 C 17.601562 124.539062 17.855469 124.714844 18.148438 124.8125 C 18.460938 124.890625 18.832031 124.929688 19.320312 124.949219 C 19.789062 124.949219 20.238281 124.949219 20.628906 124.949219 Z M 17.875 118.992188 L 17.875 119.5 L 18.851562 119.5 C 18.617188 120.027344 18.324219 120.476562 18.03125 120.828125 L 18.148438 121.335938 L 19.886719 121.335938 L 19.886719 122.214844 L 17.796875 122.214844 L 17.796875 122.722656 L 19.886719 122.722656 L 19.886719 124.128906 L 20.394531 124.128906 L 20.394531 122.722656 L 22.367188 122.722656 L 22.367188 122.214844 L 20.394531 122.214844 L 20.394531 121.335938 L 22.035156 121.335938 L 22.035156 120.828125 L 20.394531 120.828125 L 20.394531 119.949219 L 19.886719 119.949219 L 19.886719 120.828125 L 18.675781 120.828125 C 18.949219 120.4375 19.203125 119.988281 19.417969 119.5 L 22.269531 119.5 L 22.269531 118.992188 L 19.632812 118.992188 C 19.730469 118.757812 19.808594 118.523438 19.886719 118.289062 L 19.378906 118.171875 C 19.28125 118.445312 19.183594 118.71875 19.066406 118.992188 Z M 17.875 118.992188 "/>
<path style=" stroke:none;fill-rule:nonzero;fill:rgb(0%,0%,0%);fill-opacity:1;" d="M 26.78125 119.480469 L 26.332031 119.695312 C 26.507812 119.96875 26.644531 120.261719 26.800781 120.59375 L 25.648438 120.59375 L 25.648438 121.101562 L 29.828125 121.101562 L 29.828125 120.59375 L 28.617188 120.59375 C 28.792969 120.300781 28.949219 119.949219 29.085938 119.578125 L 28.578125 119.402344 C 28.441406 119.8125 28.265625 120.222656 28.050781 120.59375 L 27.308594 120.59375 C 27.152344 120.183594 26.976562 119.8125 26.78125 119.480469 Z M 27.777344 118.171875 L 27.210938 118.269531 C 27.308594 118.445312 27.386719 118.660156 27.464844 118.875 L 25.824219 118.875 L 25.824219 119.382812 L 29.710938 119.382812 L 29.710938 118.875 L 28.011719 118.875 C 27.933594 118.621094 27.855469 118.386719 27.777344 118.171875 Z M 24.027344 125.027344 C 24.476562 125.027344 24.691406 124.8125 24.691406 124.382812 L 24.691406 122.15625 C 24.90625 122.058594 25.121094 121.960938 25.335938 121.84375 L 25.335938 121.296875 C 25.121094 121.394531 24.90625 121.511719 24.691406 121.609375 L 24.691406 120.164062 L 25.316406 120.164062 L 25.316406 119.65625 L 24.691406 119.65625 L 24.691406 118.230469 L 24.144531 118.230469 L 24.144531 119.65625 L 23.226562 119.65625 L 23.226562 120.164062 L 24.144531 120.164062 L 24.144531 121.84375 C 23.792969 121.980469 23.441406 122.097656 23.089844 122.175781 L 23.226562 122.722656 C 23.539062 122.625 23.851562 122.507812 24.144531 122.390625 L 24.144531 124.246094 C 24.144531 124.441406 24.046875 124.539062 23.851562 124.539062 C 23.65625 124.539062 23.460938 124.519531 23.265625 124.5 L 23.382812 125.027344 Z M 27.113281 121.316406 C 27.035156 121.53125 26.9375 121.746094 26.839844 121.960938 L 25.550781 121.960938 L 25.550781 122.488281 L 26.566406 122.488281 C 26.410156 122.78125 26.214844 123.074219 26.019531 123.367188 C 26.546875 123.582031 27.035156 123.796875 27.484375 123.992188 C 27.015625 124.265625 26.351562 124.480469 25.472656 124.636719 L 25.6875 125.125 C 26.761719 124.910156 27.5625 124.617188 28.050781 124.265625 C 28.65625 124.539062 29.164062 124.832031 29.613281 125.105469 L 29.90625 124.675781 C 29.4375 124.402344 28.949219 124.148438 28.441406 123.894531 C 28.792969 123.523438 29.027344 123.054688 29.125 122.488281 L 29.964844 122.488281 L 29.964844 121.960938 L 27.386719 121.960938 C 27.464844 121.785156 27.5625 121.589844 27.640625 121.375 Z M 28.617188 122.488281 C 28.5 122.976562 28.285156 123.367188 27.933594 123.679688 C 27.542969 123.503906 27.113281 123.328125 26.683594 123.152344 C 26.820312 122.957031 26.976562 122.722656 27.113281 122.488281 Z M 28.617188 122.488281 "/>
<path style=" stroke:none;fill-rule:nonzero;fill:rgb(0%,0%,0%);fill-opacity:1;" d="M 32.738281 121.082031 L 32.738281 121.570312 L 36.820312 121.570312 L 36.820312 121.082031 Z M 32.230469 122.3125 L 32.230469 122.800781 L 33.851562 122.800781 C 33.324219 123.660156 32.894531 124.167969 32.5625 124.363281 C 32.542969 124.382812 32.503906 124.402344 32.445312 124.421875 L 32.582031 124.871094 C 33.988281 124.792969 35.296875 124.65625 36.488281 124.5 C 36.625 124.695312 36.761719 124.890625 36.878906 125.085938 L 37.328125 124.773438 C 36.996094 124.285156 36.507812 123.71875 35.902344 123.074219 L 35.492188 123.308594 C 35.726562 123.5625 35.941406 123.816406 36.136719 124.070312 C 35.179688 124.207031 34.203125 124.304688 33.226562 124.382812 C 33.578125 124.070312 33.96875 123.542969 34.4375 122.800781 L 37.308594 122.800781 L 37.308594 122.3125 Z M 36.390625 119.011719 L 36.390625 119.890625 L 31.996094 119.890625 L 31.996094 119.011719 Z M 31.996094 120.378906 L 36.917969 120.378906 L 36.917969 118.523438 L 31.449219 118.523438 L 31.449219 121.003906 C 31.449219 122.507812 31.195312 123.738281 30.667969 124.695312 L 31.058594 125.046875 C 31.683594 123.914062 31.976562 122.566406 31.996094 121.003906 Z M 31.996094 120.378906 "/>
<path style=" stroke:none;fill-rule:nonzero;fill:rgb(40%,74.901961%,100%);fill-opacity:1;" d="M 1 94.875 L 143.5 94.875 L 143.5 73 L 1 73 Z M 1 94.875 "/>
<path style="fill:none;stroke-width:1;stroke-linecap:round;stroke-linejoin:round;stroke:rgb(0%,0%,0%);stroke-opacity:1;stroke-miterlimit:10;" d="M 673.8 366.4 L 787.8 366.4 L 787.8 383.9 L 673.8 383.9 Z M 673.8 366.4 " transform="matrix(1.25,0,0,1.25,-841.25,-385)"/>
<path style=" stroke:none;fill-rule:nonzero;fill:rgb(0%,0%,0%);fill-opacity:1;" d="M 56.839844 79.289062 L 56.273438 79.855469 C 57.09375 80.441406 57.757812 81.007812 58.226562 81.535156 L 58.8125 80.949219 C 58.285156 80.402344 57.621094 79.855469 56.839844 79.289062 Z M 56.566406 81.945312 L 56 82.492188 C 56.78125 83.097656 57.40625 83.664062 57.855469 84.191406 L 58.421875 83.605469 C 57.933594 83.039062 57.308594 82.492188 56.566406 81.945312 Z M 57.992188 85.050781 C 57.484375 86.398438 56.878906 87.707031 56.214844 88.996094 L 57.015625 89.347656 C 57.640625 88.097656 58.207031 86.769531 58.695312 85.34375 Z M 59.242188 81.027344 L 59.242188 81.828125 L 62.171875 81.828125 L 62.171875 84.523438 L 59.554688 84.523438 L 59.554688 85.304688 L 62.171875 85.304688 L 62.171875 88.253906 L 58.96875 88.253906 L 58.96875 89.054688 L 66.117188 89.054688 L 66.117188 88.253906 L 62.992188 88.253906 L 62.992188 85.304688 L 65.589844 85.304688 L 65.589844 84.523438 L 62.992188 84.523438 L 62.992188 81.828125 L 65.902344 81.828125 L 65.902344 81.027344 L 62.542969 81.027344 L 63.011719 80.851562 C 62.835938 80.304688 62.582031 79.71875 62.269531 79.074219 L 61.507812 79.269531 C 61.800781 79.835938 62.054688 80.421875 62.269531 81.027344 Z M 59.242188 81.027344 "/>
<path style=" stroke:none;fill-rule:nonzero;fill:rgb(0%,0%,0%);fill-opacity:1;" d="M 69.710938 80.5 L 70.0625 81.398438 L 67.367188 81.398438 L 67.367188 82.101562 L 77.132812 82.101562 L 77.132812 81.398438 L 74.339844 81.398438 L 74.769531 80.5 L 76.605469 80.5 L 76.605469 79.816406 L 72.640625 79.816406 C 72.523438 79.523438 72.40625 79.25 72.289062 79.015625 L 71.429688 79.152344 C 71.546875 79.347656 71.644531 79.5625 71.761719 79.816406 L 67.894531 79.816406 L 67.894531 80.5 Z M 70.902344 81.398438 L 70.550781 80.5 L 73.929688 80.5 L 73.480469 81.398438 Z M 68.65625 82.765625 L 68.65625 86.105469 L 75.84375 86.105469 L 75.84375 82.765625 Z M 75.0625 85.460938 L 69.4375 85.460938 L 69.4375 84.71875 L 75.0625 84.71875 Z M 69.4375 84.132812 L 69.4375 83.410156 L 75.0625 83.410156 L 75.0625 84.132812 Z M 68.207031 86.632812 C 67.992188 87.375 67.640625 88.058594 67.191406 88.664062 L 67.894531 89.113281 C 68.363281 88.449219 68.714844 87.6875 68.988281 86.789062 Z M 73.792969 89.25 C 74.222656 89.25 74.515625 89.171875 74.730469 89.035156 C 74.945312 88.859375 75.101562 88.390625 75.179688 87.609375 L 74.417969 87.375 C 74.378906 87.921875 74.28125 88.273438 74.144531 88.390625 C 74.066406 88.488281 73.890625 88.527344 73.636719 88.527344 L 71.273438 88.527344 C 70.921875 88.527344 70.746094 88.351562 70.746094 88.039062 L 70.746094 86.730469 L 69.90625 86.730469 L 69.90625 88.214844 C 69.90625 88.917969 70.277344 89.25 71.039062 89.25 Z M 72.367188 86.300781 L 71.683594 86.730469 C 72.152344 87.21875 72.523438 87.648438 72.796875 88.058594 L 73.460938 87.589844 C 73.226562 87.21875 72.855469 86.789062 72.367188 86.300781 Z M 75.902344 86.515625 L 75.257812 86.925781 C 75.863281 87.667969 76.332031 88.351562 76.703125 88.957031 L 77.367188 88.488281 C 77.035156 87.921875 76.527344 87.277344 75.902344 86.515625 Z M 75.902344 86.515625 "/>
<path style=" stroke:none;fill-rule:nonzero;fill:rgb(0%,0%,0%);fill-opacity:1;" d="M 82.5625 79.152344 L 82.5625 80.285156 C 82.5625 80.65625 82.542969 81.046875 82.523438 81.417969 L 79.183594 81.417969 L 79.183594 82.21875 L 82.445312 82.21875 C 82.328125 83.527344 82.074219 84.660156 81.703125 85.597656 C 81.117188 86.886719 80.082031 87.960938 78.597656 88.742188 L 79.046875 89.425781 C 80.550781 88.664062 81.625 87.589844 82.308594 86.222656 C 82.796875 85.148438 83.109375 83.820312 83.285156 82.21875 L 86.839844 82.21875 C 86.78125 84.875 86.644531 86.613281 86.429688 87.433594 C 86.234375 88.214844 85.824219 88.605469 85.179688 88.605469 C 84.769531 88.605469 84.339844 88.585938 83.890625 88.566406 L 84.105469 89.367188 L 85.589844 89.367188 C 86.175781 89.308594 86.585938 89.074219 86.859375 88.625 C 87.132812 88.15625 87.328125 87.316406 87.445312 86.144531 C 87.542969 84.933594 87.621094 83.371094 87.660156 81.417969 L 83.363281 81.417969 C 83.382812 81.046875 83.382812 80.675781 83.402344 80.285156 L 83.402344 79.152344 Z M 82.5625 79.152344 "/>
<path style=" stroke:none;fill-rule:nonzero;fill:rgb(0%,0%,0%);fill-opacity:1;" d="M 13.851562 174.519531 L 13.851562 178.660156 L 20.570312 178.660156 L 20.570312 174.519531 Z M 19.789062 177.957031 L 14.632812 177.957031 L 14.632812 176.960938 L 19.789062 176.960938 Z M 14.632812 176.277344 L 14.632812 175.242188 L 19.789062 175.242188 L 19.789062 176.277344 Z M 12.582031 171.316406 L 12.582031 172.058594 L 16.058594 172.058594 C 15.179688 172.859375 13.851562 173.523438 12.054688 174.03125 L 12.484375 174.753906 C 14.4375 174.050781 15.882812 173.152344 16.761719 172.058594 L 16.820312 172.058594 L 16.820312 174.167969 L 17.601562 174.167969 L 17.601562 172.058594 L 17.679688 172.058594 C 18.5 173.171875 19.945312 174.050781 21.957031 174.734375 L 22.308594 174.011719 C 20.53125 173.542969 19.222656 172.878906 18.382812 172.058594 L 21.839844 172.058594 L 21.839844 171.316406 L 17.601562 171.316406 L 17.601562 170.28125 L 16.820312 170.28125 L 16.820312 171.316406 Z M 12.367188 179.539062 L 12.367188 180.300781 L 22.035156 180.300781 L 22.035156 179.539062 Z M 12.367188 179.539062 "/>
<path style=" stroke:none;fill-rule:nonzero;fill:rgb(0%,0%,0%);fill-opacity:1;" d="M 27.582031 173.601562 L 27.582031 178.738281 L 31.019531 178.738281 L 31.019531 173.601562 Z M 30.257812 178.054688 L 28.363281 178.054688 L 28.363281 176.492188 L 30.257812 176.492188 Z M 28.363281 175.808594 L 28.363281 174.285156 L 30.257812 174.285156 L 30.257812 175.808594 Z M 28.324219 170.28125 C 27.992188 171.609375 27.367188 172.722656 26.410156 173.640625 L 26.917969 174.285156 C 27.523438 173.699219 28.03125 173.035156 28.421875 172.273438 L 32.40625 172.273438 C 32.386719 175.925781 32.328125 178.113281 32.25 178.816406 C 32.171875 179.480469 31.859375 179.8125 31.351562 179.8125 C 31.019531 179.8125 30.628906 179.792969 30.179688 179.773438 L 30.375 180.496094 C 30.882812 180.515625 31.234375 180.535156 31.449219 180.535156 C 32.386719 180.535156 32.933594 180.066406 33.050781 179.128906 C 33.148438 178.152344 33.207031 175.613281 33.207031 171.511719 L 28.773438 171.511719 C 28.910156 171.160156 29.027344 170.789062 29.125 170.378906 Z M 24.632812 170.417969 L 24.085938 170.964844 C 24.886719 171.570312 25.511719 172.15625 25.980469 172.722656 L 26.546875 172.15625 C 26.019531 171.570312 25.375 171.003906 24.632812 170.417969 Z M 23.285156 173.757812 L 23.285156 174.519531 L 24.945312 174.519531 L 24.945312 179.011719 C 24.945312 179.1875 24.847656 179.363281 24.691406 179.5 L 25.003906 180.222656 C 25.746094 179.714844 26.449219 179.148438 27.09375 178.484375 L 26.878906 177.625 C 26.46875 178.054688 26.078125 178.425781 25.726562 178.738281 L 25.726562 173.757812 Z M 23.285156 173.757812 "/>
<path style=" stroke:none;fill-rule:nonzero;fill:rgb(0%,0%,0%);fill-opacity:1;" d="M 67.71875 174.34375 L 67.71875 174.578125 L 68.636719 174.578125 L 68.636719 175.964844 L 67.367188 175.964844 L 67.367188 176.707031 L 68.636719 176.707031 L 68.636719 179.265625 C 68.636719 179.441406 68.519531 179.539062 68.324219 179.617188 L 68.65625 180.300781 C 69.398438 180.007812 70.0625 179.65625 70.628906 179.226562 L 70.492188 178.523438 C 70.121094 178.855469 69.730469 179.089844 69.359375 179.304688 L 69.359375 176.707031 L 70.511719 176.707031 L 70.511719 175.964844 L 69.359375 175.964844 L 69.359375 174.578125 L 70.355469 174.578125 L 70.355469 173.855469 L 67.933594 173.855469 C 68.128906 173.386719 68.304688 172.898438 68.460938 172.351562 L 70.375 172.351562 L 70.375 171.570312 L 68.675781 171.570312 C 68.753906 171.199219 68.832031 170.808594 68.929688 170.378906 L 68.167969 170.222656 C 67.914062 171.648438 67.542969 172.9375 67.015625 174.109375 L 67.640625 174.519531 C 67.660156 174.460938 67.699219 174.402344 67.71875 174.34375 Z M 76.742188 175.027344 L 76.742188 173.464844 L 77.269531 173.464844 L 77.269531 172.820312 L 76.742188 172.820312 L 76.742188 171.199219 L 75.179688 171.199219 L 75.179688 170.378906 L 74.457031 170.378906 L 74.457031 171.199219 L 73.34375 171.199219 L 73.34375 171.863281 L 74.457031 171.863281 L 74.457031 172.820312 L 72.953125 172.820312 L 72.953125 173.464844 L 74.457031 173.464844 L 74.457031 174.382812 L 73.34375 174.382812 L 73.34375 175.027344 L 74.457031 175.027344 L 74.457031 175.90625 L 73.226562 175.90625 L 73.226562 176.550781 L 74.457031 176.550781 L 74.457031 177.429688 L 72.953125 177.429688 L 72.953125 178.113281 L 74.457031 178.113281 L 74.457031 179.207031 L 75.179688 179.207031 L 75.179688 178.113281 L 77.152344 178.113281 L 77.152344 177.429688 L 75.179688 177.429688 L 75.179688 176.550781 L 76.878906 176.550781 L 76.878906 175.90625 L 75.179688 175.90625 L 75.179688 175.027344 Z M 75.179688 171.863281 L 76.058594 171.863281 L 76.058594 172.820312 L 75.179688 172.820312 Z M 75.179688 173.464844 L 76.058594 173.464844 L 76.058594 174.382812 L 75.179688 174.382812 Z M 75.667969 179.695312 C 74.574219 179.65625 73.773438 179.519531 73.265625 179.265625 C 72.894531 179.109375 72.5625 178.855469 72.269531 178.484375 C 72.621094 177.488281 72.816406 176.296875 72.835938 174.890625 L 72.835938 174.441406 L 71.683594 174.441406 C 72.054688 173.777344 72.425781 172.976562 72.796875 172.039062 L 72.796875 171.375 L 70.765625 171.375 L 70.765625 172.058594 L 72.074219 172.058594 C 71.703125 172.957031 71.292969 173.777344 70.84375 174.558594 L 70.84375 175.105469 L 72.191406 175.105469 C 72.132812 176.101562 71.996094 176.980469 71.78125 177.742188 C 71.507812 177.234375 71.292969 176.648438 71.15625 175.984375 L 70.53125 176.199219 C 70.765625 177.15625 71.078125 177.9375 71.46875 178.5625 C 71.234375 179.128906 70.902344 179.617188 70.511719 180.007812 L 71.078125 180.554688 C 71.410156 180.183594 71.722656 179.734375 71.976562 179.226562 C 72.171875 179.460938 72.40625 179.65625 72.679688 179.832031 C 73.265625 180.203125 74.398438 180.417969 76.058594 180.4375 L 77.289062 180.4375 L 77.445312 179.65625 C 76.996094 179.675781 76.410156 179.695312 75.667969 179.695312 Z M 75.667969 179.695312 "/>
<path style=" stroke:none;fill-rule:nonzero;fill:rgb(0%,0%,0%);fill-opacity:1;" d="M 122.992188 170.261719 C 122.972656 170.632812 122.933594 171.003906 122.894531 171.375 L 119.945312 171.375 L 119.945312 172.117188 L 122.816406 172.117188 C 122.777344 172.429688 122.71875 172.761719 122.679688 173.09375 L 120.609375 173.09375 L 120.609375 179.539062 L 119.457031 179.539062 L 119.457031 180.28125 L 126.820312 180.28125 L 126.820312 179.539062 L 125.765625 179.539062 L 125.765625 173.09375 L 123.480469 173.09375 C 123.519531 172.78125 123.578125 172.449219 123.617188 172.117188 L 126.507812 172.117188 L 126.507812 171.375 L 123.714844 171.375 C 123.734375 171.042969 123.773438 170.710938 123.792969 170.378906 Z M 121.390625 179.539062 L 121.390625 178.5625 L 124.984375 178.5625 L 124.984375 179.539062 Z M 121.390625 177.898438 L 121.390625 176.960938 L 124.984375 176.960938 L 124.984375 177.898438 Z M 121.390625 176.296875 L 121.390625 175.378906 L 124.984375 175.378906 L 124.984375 176.296875 Z M 121.390625 174.734375 L 121.390625 173.816406 L 124.984375 173.816406 L 124.984375 174.734375 Z M 118.070312 174.089844 L 118.070312 180.632812 L 118.851562 180.632812 L 118.851562 172.703125 C 119.183594 172.039062 119.476562 171.335938 119.691406 170.613281 L 118.96875 170.28125 C 118.460938 172 117.660156 173.542969 116.546875 174.890625 L 116.820312 175.75 C 117.269531 175.222656 117.699219 174.675781 118.070312 174.089844 Z M 118.070312 174.089844 "/>
<path style="fill:none;stroke-width:1;stroke-linecap:round;stroke-linejoin:round;stroke:rgb(0%,0%,0%);stroke-opacity:1;stroke-miterlimit:10;" d="M 713.346875 397.8 L 748.253125 397.8 L 748.253125 413.15 L 713.346875 413.15 Z M 713.346875 397.8 " transform="matrix(1.25,0,0,1.25,-841.25,-385)"/>
<path style=" stroke:none;fill-rule:nonzero;fill:rgb(0%,0%,0%);fill-opacity:1;" d="M 60.804688 118.230469 C 59.925781 119.1875 58.832031 119.988281 57.523438 120.613281 L 57.777344 121.082031 C 59.105469 120.417969 60.179688 119.636719 61 118.71875 C 61.878906 119.675781 62.933594 120.457031 64.183594 121.042969 L 64.457031 120.574219 C 63.226562 120.007812 62.132812 119.226562 61.195312 118.230469 Z M 58.910156 120.613281 L 58.910156 121.121094 L 60.726562 121.121094 L 60.726562 122.429688 L 58.539062 122.429688 L 58.539062 122.957031 L 60.726562 122.957031 L 60.726562 124.34375 L 57.875 124.34375 L 57.875 124.871094 L 64.125 124.871094 L 64.125 124.34375 L 61.273438 124.34375 L 61.273438 122.957031 L 63.441406 122.957031 L 63.441406 122.429688 L 61.273438 122.429688 L 61.273438 121.121094 L 63.089844 121.121094 L 63.089844 120.613281 Z M 58.910156 120.613281 "/>
<path style=" stroke:none;fill-rule:nonzero;fill:rgb(0%,0%,0%);fill-opacity:1;" d="M 65.707031 118.328125 L 65.335938 118.679688 C 65.882812 119.109375 66.292969 119.519531 66.585938 119.890625 L 66.976562 119.5 C 66.644531 119.109375 66.214844 118.71875 65.707031 118.328125 Z M 70.0625 124.949219 L 71.78125 124.949219 L 71.917969 124.421875 C 71.722656 124.441406 71.429688 124.441406 71.078125 124.441406 C 70.707031 124.460938 70.335938 124.460938 69.984375 124.460938 C 69.417969 124.460938 68.929688 124.460938 68.539062 124.441406 C 68.109375 124.441406 67.757812 124.382812 67.542969 124.265625 C 67.328125 124.167969 67.132812 124.011719 66.957031 123.796875 C 66.898438 123.738281 66.839844 123.660156 66.78125 123.621094 L 66.78125 120.828125 L 65.199219 120.828125 L 65.199219 121.316406 L 66.273438 121.316406 L 66.273438 123.601562 C 65.980469 123.738281 65.628906 124.109375 65.21875 124.734375 L 65.628906 125.105469 C 66.039062 124.421875 66.332031 124.070312 66.507812 124.070312 C 66.605469 124.070312 66.703125 124.128906 66.800781 124.265625 C 67.035156 124.539062 67.289062 124.714844 67.582031 124.8125 C 67.894531 124.890625 68.265625 124.929688 68.753906 124.949219 C 69.222656 124.949219 69.671875 124.949219 70.0625 124.949219 Z M 67.308594 118.992188 L 67.308594 119.5 L 68.285156 119.5 C 68.050781 120.027344 67.757812 120.476562 67.464844 120.828125 L 67.582031 121.335938 L 69.320312 121.335938 L 69.320312 122.214844 L 67.230469 122.214844 L 67.230469 122.722656 L 69.320312 122.722656 L 69.320312 124.128906 L 69.828125 124.128906 L 69.828125 122.722656 L 71.800781 122.722656 L 71.800781 122.214844 L 69.828125 122.214844 L 69.828125 121.335938 L 71.46875 121.335938 L 71.46875 120.828125 L 69.828125 120.828125 L 69.828125 119.949219 L 69.320312 119.949219 L 69.320312 120.828125 L 68.109375 120.828125 C 68.382812 120.4375 68.636719 119.988281 68.851562 119.5 L 71.703125 119.5 L 71.703125 118.992188 L 69.066406 118.992188 C 69.164062 118.757812 69.242188 118.523438 69.320312 118.289062 L 68.8125 118.171875 C 68.714844 118.445312 68.617188 118.71875 68.5 118.992188 Z M 67.308594 118.992188 "/>
<path style=" stroke:none;fill-rule:nonzero;fill:rgb(0%,0%,0%);fill-opacity:1;" d="M 76.214844 119.480469 L 75.765625 119.695312 C 75.941406 119.96875 76.078125 120.261719 76.234375 120.59375 L 75.082031 120.59375 L 75.082031 121.101562 L 79.261719 121.101562 L 79.261719 120.59375 L 78.050781 120.59375 C 78.226562 120.300781 78.382812 119.949219 78.519531 119.578125 L 78.011719 119.402344 C 77.875 119.8125 77.699219 120.222656 77.484375 120.59375 L 76.742188 120.59375 C 76.585938 120.183594 76.410156 119.8125 76.214844 119.480469 Z M 77.210938 118.171875 L 76.644531 118.269531 C 76.742188 118.445312 76.820312 118.660156 76.898438 118.875 L 75.257812 118.875 L 75.257812 119.382812 L 79.144531 119.382812 L 79.144531 118.875 L 77.445312 118.875 C 77.367188 118.621094 77.289062 118.386719 77.210938 118.171875 Z M 73.460938 125.027344 C 73.910156 125.027344 74.125 124.8125 74.125 124.382812 L 74.125 122.15625 C 74.339844 122.058594 74.554688 121.960938 74.769531 121.84375 L 74.769531 121.296875 C 74.554688 121.394531 74.339844 121.511719 74.125 121.609375 L 74.125 120.164062 L 74.75 120.164062 L 74.75 119.65625 L 74.125 119.65625 L 74.125 118.230469 L 73.578125 118.230469 L 73.578125 119.65625 L 72.660156 119.65625 L 72.660156 120.164062 L 73.578125 120.164062 L 73.578125 121.84375 C 73.226562 121.980469 72.875 122.097656 72.523438 122.175781 L 72.660156 122.722656 C 72.972656 122.625 73.285156 122.507812 73.578125 122.390625 L 73.578125 124.246094 C 73.578125 124.441406 73.480469 124.539062 73.285156 124.539062 C 73.089844 124.539062 72.894531 124.519531 72.699219 124.5 L 72.816406 125.027344 Z M 76.546875 121.316406 C 76.46875 121.53125 76.371094 121.746094 76.273438 121.960938 L 74.984375 121.960938 L 74.984375 122.488281 L 76 122.488281 C 75.84375 122.78125 75.648438 123.074219 75.453125 123.367188 C 75.980469 123.582031 76.46875 123.796875 76.917969 123.992188 C 76.449219 124.265625 75.785156 124.480469 74.90625 124.636719 L 75.121094 125.125 C 76.195312 124.910156 76.996094 124.617188 77.484375 124.265625 C 78.089844 124.539062 78.597656 124.832031 79.046875 125.105469 L 79.339844 124.675781 C 78.871094 124.402344 78.382812 124.148438 77.875 123.894531 C 78.226562 123.523438 78.460938 123.054688 78.558594 122.488281 L 79.398438 122.488281 L 79.398438 121.960938 L 76.820312 121.960938 C 76.898438 121.785156 76.996094 121.589844 77.074219 121.375 Z M 78.050781 122.488281 C 77.933594 122.976562 77.71875 123.367188 77.367188 123.679688 C 76.976562 123.503906 76.546875 123.328125 76.117188 123.152344 C 76.253906 122.957031 76.410156 122.722656 76.546875 122.488281 Z M 78.050781 122.488281 "/>
<path style=" stroke:none;fill-rule:nonzero;fill:rgb(0%,0%,0%);fill-opacity:1;" d="M 82.171875 121.082031 L 82.171875 121.570312 L 86.253906 121.570312 L 86.253906 121.082031 Z M 81.664062 122.3125 L 81.664062 122.800781 L 83.285156 122.800781 C 82.757812 123.660156 82.328125 124.167969 81.996094 124.363281 C 81.976562 124.382812 81.9375 124.402344 81.878906 124.421875 L 82.015625 124.871094 C 83.421875 124.792969 84.730469 124.65625 85.921875 124.5 C 86.058594 124.695312 86.195312 124.890625 86.3125 125.085938 L 86.761719 124.773438 C 86.429688 124.285156 85.941406 123.71875 85.335938 123.074219 L 84.925781 123.308594 C 85.160156 123.5625 85.375 123.816406 85.570312 124.070312 C 84.613281 124.207031 83.636719 124.304688 82.660156 124.382812 C 83.011719 124.070312 83.402344 123.542969 83.871094 122.800781 L 86.742188 122.800781 L 86.742188 122.3125 Z M 85.824219 119.011719 L 85.824219 119.890625 L 81.429688 119.890625 L 81.429688 119.011719 Z M 81.429688 120.378906 L 86.351562 120.378906 L 86.351562 118.523438 L 80.882812 118.523438 L 80.882812 121.003906 C 80.882812 122.507812 80.628906 123.738281 80.101562 124.695312 L 80.492188 125.046875 C 81.117188 123.914062 81.410156 122.566406 81.429688 121.003906 Z M 81.429688 120.378906 "/>
<path style="fill:none;stroke-width:1;stroke-linecap:round;stroke-linejoin:round;stroke:rgb(0%,0%,0%);stroke-opacity:1;stroke-miterlimit:10;" d="M 752.89375 397.8 L 787.8 397.8 L 787.8 413.15 L 752.89375 413.15 Z M 752.89375 397.8 " transform="matrix(1.25,0,0,1.25,-841.25,-385)"/>
<path style=" stroke:none;fill-rule:nonzero;fill:rgb(0%,0%,0%);fill-opacity:1;" d="M 110.238281 118.230469 C 109.359375 119.1875 108.265625 119.988281 106.957031 120.613281 L 107.210938 121.082031 C 108.539062 120.417969 109.613281 119.636719 110.433594 118.71875 C 111.3125 119.675781 112.367188 120.457031 113.617188 121.042969 L 113.890625 120.574219 C 112.660156 120.007812 111.566406 119.226562 110.628906 118.230469 Z M 108.34375 120.613281 L 108.34375 121.121094 L 110.160156 121.121094 L 110.160156 122.429688 L 107.972656 122.429688 L 107.972656 122.957031 L 110.160156 122.957031 L 110.160156 124.34375 L 107.308594 124.34375 L 107.308594 124.871094 L 113.558594 124.871094 L 113.558594 124.34375 L 110.707031 124.34375 L 110.707031 122.957031 L 112.875 122.957031 L 112.875 122.429688 L 110.707031 122.429688 L 110.707031 121.121094 L 112.523438 121.121094 L 112.523438 120.613281 Z M 108.34375 120.613281 "/>
<path style=" stroke:none;fill-rule:nonzero;fill:rgb(0%,0%,0%);fill-opacity:1;" d="M 115.140625 118.328125 L 114.769531 118.679688 C 115.316406 119.109375 115.726562 119.519531 116.019531 119.890625 L 116.410156 119.5 C 116.078125 119.109375 115.648438 118.71875 115.140625 118.328125 Z M 119.496094 124.949219 L 121.214844 124.949219 L 121.351562 124.421875 C 121.15625 124.441406 120.863281 124.441406 120.511719 124.441406 C 120.140625 124.460938 119.769531 124.460938 119.417969 124.460938 C 118.851562 124.460938 118.363281 124.460938 117.972656 124.441406 C 117.542969 124.441406 117.191406 124.382812 116.976562 124.265625 C 116.761719 124.167969 116.566406 124.011719 116.390625 123.796875 C 116.332031 123.738281 116.273438 123.660156 116.214844 123.621094 L 116.214844 120.828125 L 114.632812 120.828125 L 114.632812 121.316406 L 115.707031 121.316406 L 115.707031 123.601562 C 115.414062 123.738281 115.0625 124.109375 114.652344 124.734375 L 115.0625 125.105469 C 115.472656 124.421875 115.765625 124.070312 115.941406 124.070312 C 116.039062 124.070312 116.136719 124.128906 116.234375 124.265625 C 116.46875 124.539062 116.722656 124.714844 117.015625 124.8125 C 117.328125 124.890625 117.699219 124.929688 118.1875 124.949219 C 118.65625 124.949219 119.105469 124.949219 119.496094 124.949219 Z M 116.742188 118.992188 L 116.742188 119.5 L 117.71875 119.5 C 117.484375 120.027344 117.191406 120.476562 116.898438 120.828125 L 117.015625 121.335938 L 118.753906 121.335938 L 118.753906 122.214844 L 116.664062 122.214844 L 116.664062 122.722656 L 118.753906 122.722656 L 118.753906 124.128906 L 119.261719 124.128906 L 119.261719 122.722656 L 121.234375 122.722656 L 121.234375 122.214844 L 119.261719 122.214844 L 119.261719 121.335938 L 120.902344 121.335938 L 120.902344 120.828125 L 119.261719 120.828125 L 119.261719 119.949219 L 118.753906 119.949219 L 118.753906 120.828125 L 117.542969 120.828125 C 117.816406 120.4375 118.070312 119.988281 118.285156 119.5 L 121.136719 119.5 L 121.136719 118.992188 L 118.5 118.992188 C 118.597656 118.757812 118.675781 118.523438 118.753906 118.289062 L 118.246094 118.171875 C 118.148438 118.445312 118.050781 118.71875 117.933594 118.992188 Z M 116.742188 118.992188 "/>
<path style=" stroke:none;fill-rule:nonzero;fill:rgb(0%,0%,0%);fill-opacity:1;" d="M 125.648438 119.480469 L 125.199219 119.695312 C 125.375 119.96875 125.511719 120.261719 125.667969 120.59375 L 124.515625 120.59375 L 124.515625 121.101562 L 128.695312 121.101562 L 128.695312 120.59375 L 127.484375 120.59375 C 127.660156 120.300781 127.816406 119.949219 127.953125 119.578125 L 127.445312 119.402344 C 127.308594 119.8125 127.132812 120.222656 126.917969 120.59375 L 126.175781 120.59375 C 126.019531 120.183594 125.84375 119.8125 125.648438 119.480469 Z M 126.644531 118.171875 L 126.078125 118.269531 C 126.175781 118.445312 126.253906 118.660156 126.332031 118.875 L 124.691406 118.875 L 124.691406 119.382812 L 128.578125 119.382812 L 128.578125 118.875 L 126.878906 118.875 C 126.800781 118.621094 126.722656 118.386719 126.644531 118.171875 Z M 122.894531 125.027344 C 123.34375 125.027344 123.558594 124.8125 123.558594 124.382812 L 123.558594 122.15625 C 123.773438 122.058594 123.988281 121.960938 124.203125 121.84375 L 124.203125 121.296875 C 123.988281 121.394531 123.773438 121.511719 123.558594 121.609375 L 123.558594 120.164062 L 124.183594 120.164062 L 124.183594 119.65625 L 123.558594 119.65625 L 123.558594 118.230469 L 123.011719 118.230469 L 123.011719 119.65625 L 122.09375 119.65625 L 122.09375 120.164062 L 123.011719 120.164062 L 123.011719 121.84375 C 122.660156 121.980469 122.308594 122.097656 121.957031 122.175781 L 122.09375 122.722656 C 122.40625 122.625 122.71875 122.507812 123.011719 122.390625 L 123.011719 124.246094 C 123.011719 124.441406 122.914062 124.539062 122.71875 124.539062 C 122.523438 124.539062 122.328125 124.519531 122.132812 124.5 L 122.25 125.027344 Z M 125.980469 121.316406 C 125.902344 121.53125 125.804688 121.746094 125.707031 121.960938 L 124.417969 121.960938 L 124.417969 122.488281 L 125.433594 122.488281 C 125.277344 122.78125 125.082031 123.074219 124.886719 123.367188 C 125.414062 123.582031 125.902344 123.796875 126.351562 123.992188 C 125.882812 124.265625 125.21875 124.480469 124.339844 124.636719 L 124.554688 125.125 C 125.628906 124.910156 126.429688 124.617188 126.917969 124.265625 C 127.523438 124.539062 128.03125 124.832031 128.480469 125.105469 L 128.773438 124.675781 C 128.304688 124.402344 127.816406 124.148438 127.308594 123.894531 C 127.660156 123.523438 127.894531 123.054688 127.992188 122.488281 L 128.832031 122.488281 L 128.832031 121.960938 L 126.253906 121.960938 C 126.332031 121.785156 126.429688 121.589844 126.507812 121.375 Z M 127.484375 122.488281 C 127.367188 122.976562 127.152344 123.367188 126.800781 123.679688 C 126.410156 123.503906 125.980469 123.328125 125.550781 123.152344 C 125.6875 122.957031 125.84375 122.722656 125.980469 122.488281 Z M 127.484375 122.488281 "/>
<path style=" stroke:none;fill-rule:nonzero;fill:rgb(0%,0%,0%);fill-opacity:1;" d="M 131.605469 121.082031 L 131.605469 121.570312 L 135.6875 121.570312 L 135.6875 121.082031 Z M 131.097656 122.3125 L 131.097656 122.800781 L 132.71875 122.800781 C 132.191406 123.660156 131.761719 124.167969 131.429688 124.363281 C 131.410156 124.382812 131.371094 124.402344 131.3125 124.421875 L 131.449219 124.871094 C 132.855469 124.792969 134.164062 124.65625 135.355469 124.5 C 135.492188 124.695312 135.628906 124.890625 135.746094 125.085938 L 136.195312 124.773438 C 135.863281 124.285156 135.375 123.71875 134.769531 123.074219 L 134.359375 123.308594 C 134.59375 123.5625 134.808594 123.816406 135.003906 124.070312 C 134.046875 124.207031 133.070312 124.304688 132.09375 124.382812 C 132.445312 124.070312 132.835938 123.542969 133.304688 122.800781 L 136.175781 122.800781 L 136.175781 122.3125 Z M 135.257812 119.011719 L 135.257812 119.890625 L 130.863281 119.890625 L 130.863281 119.011719 Z M 130.863281 120.378906 L 135.785156 120.378906 L 135.785156 118.523438 L 130.316406 118.523438 L 130.316406 121.003906 C 130.316406 122.507812 130.0625 123.738281 129.535156 124.695312 L 129.925781 125.046875 C 130.550781 123.914062 130.84375 122.566406 130.863281 121.003906 Z M 130.863281 120.378906 "/>
<path style="fill:none;stroke-width:1;stroke-linecap:round;stroke-linejoin:round;stroke:rgb(0%,0%,0%);stroke-opacity:1;stroke-miterlimit:10;" d="M 691.253125 439.6 L 691.253125 419.046875 " transform="matrix(1.25,0,0,1.25,-841.25,-385)"/>
<path style="fill:none;stroke-width:1;stroke-linecap:butt;stroke-linejoin:miter;stroke:rgb(0%,0%,0%);stroke-opacity:1;stroke-miterlimit:10;" d="M 691.253125 415.046875 L 691.253125 419.046875 M 689.753125 419.046875 L 691.253125 415.046875 L 692.753125 419.046875 " transform="matrix(1.25,0,0,1.25,-841.25,-385)"/>
<path style="fill:none;stroke-width:1;stroke-linecap:round;stroke-linejoin:round;stroke:rgb(0%,0%,0%);stroke-opacity:1;stroke-miterlimit:10;" d="M 691.253125 397.8 L 691.253125 389.8 " transform="matrix(1.25,0,0,1.25,-841.25,-385)"/>
<path style="fill:none;stroke-width:1;stroke-linecap:butt;stroke-linejoin:miter;stroke:rgb(0%,0%,0%);stroke-opacity:1;stroke-miterlimit:10;" d="M 691.253125 385.8 L 691.253125 389.8 M 689.753125 389.8 L 691.253125 385.8 L 692.753125 389.8 " transform="matrix(1.25,0,0,1.25,-841.25,-385)"/>
<path style="fill:none;stroke-width:1;stroke-linecap:round;stroke-linejoin:round;stroke:rgb(0%,0%,0%);stroke-opacity:1;stroke-miterlimit:10;" d="M 730.8 397.8 L 730.8 389.8 " transform="matrix(1.25,0,0,1.25,-841.25,-385)"/>
<path style="fill:none;stroke-width:1;stroke-linecap:butt;stroke-linejoin:miter;stroke:rgb(0%,0%,0%);stroke-opacity:1;stroke-miterlimit:10;" d="M 730.8 385.8 L 730.8 389.8 M 729.3 389.8 L 730.8 385.8 L 732.3 389.8 " transform="matrix(1.25,0,0,1.25,-841.25,-385)"/>
<path style="fill:none;stroke-width:1;stroke-linecap:round;stroke-linejoin:round;stroke:rgb(0%,0%,0%);stroke-opacity:1;stroke-miterlimit:10;" d="M 770.346875 397.8 L 770.346875 389.8 " transform="matrix(1.25,0,0,1.25,-841.25,-385)"/>
<path style="fill:none;stroke-width:1;stroke-linecap:butt;stroke-linejoin:miter;stroke:rgb(0%,0%,0%);stroke-opacity:1;stroke-miterlimit:10;" d="M 770.346875 385.8 L 770.346875 389.8 M 768.846875 389.8 L 770.346875 385.8 L 771.846875 389.8 " transform="matrix(1.25,0,0,1.25,-841.25,-385)"/>
<path style=" stroke:none;fill-rule:nonzero;fill:rgb(0%,0%,0%);fill-opacity:1;" d="M 170.007812 103.75 L 170.007812 102.246094 L 171.511719 102.246094 L 171.511719 103.75 Z M 175.007812 103.75 L 175.007812 102.246094 L 176.511719 102.246094 L 176.511719 103.75 Z M 180.007812 103.75 L 180.007812 102.246094 L 181.511719 102.246094 L 181.511719 103.75 Z M 180.007812 103.75 "/>
<path style="fill:none;stroke-width:1;stroke-linecap:round;stroke-linejoin:round;stroke:rgb(0%,0%,0%);stroke-opacity:1;stroke-miterlimit:10;" d="M 839.4 397.8 L 874.30625 397.8 L 874.30625 413.15 L 839.4 413.15 Z M 839.4 397.8 " transform="matrix(1.25,0,0,1.25,-841.25,-385)"/>
<path style=" stroke:none;fill-rule:nonzero;fill:rgb(0%,0%,0%);fill-opacity:1;" d="M 218.371094 118.230469 C 217.492188 119.1875 216.398438 119.988281 215.089844 120.613281 L 215.34375 121.082031 C 216.671875 120.417969 217.746094 119.636719 218.566406 118.71875 C 219.445312 119.675781 220.5 120.457031 221.75 121.042969 L 222.023438 120.574219 C 220.792969 120.007812 219.699219 119.226562 218.761719 118.230469 Z M 216.476562 120.613281 L 216.476562 121.121094 L 218.292969 121.121094 L 218.292969 122.429688 L 216.105469 122.429688 L 216.105469 122.957031 L 218.292969 122.957031 L 218.292969 124.34375 L 215.441406 124.34375 L 215.441406 124.871094 L 221.691406 124.871094 L 221.691406 124.34375 L 218.839844 124.34375 L 218.839844 122.957031 L 221.007812 122.957031 L 221.007812 122.429688 L 218.839844 122.429688 L 218.839844 121.121094 L 220.65625 121.121094 L 220.65625 120.613281 Z M 216.476562 120.613281 "/>
<path style=" stroke:none;fill-rule:nonzero;fill:rgb(0%,0%,0%);fill-opacity:1;" d="M 223.273438 118.328125 L 222.902344 118.679688 C 223.449219 119.109375 223.859375 119.519531 224.152344 119.890625 L 224.542969 119.5 C 224.210938 119.109375 223.78125 118.71875 223.273438 118.328125 Z M 227.628906 124.949219 L 229.347656 124.949219 L 229.484375 124.421875 C 229.289062 124.441406 228.996094 124.441406 228.644531 124.441406 C 228.273438 124.460938 227.902344 124.460938 227.550781 124.460938 C 226.984375 124.460938 226.496094 124.460938 226.105469 124.441406 C 225.675781 124.441406 225.324219 124.382812 225.109375 124.265625 C 224.894531 124.167969 224.699219 124.011719 224.523438 123.796875 C 224.464844 123.738281 224.40625 123.660156 224.347656 123.621094 L 224.347656 120.828125 L 222.765625 120.828125 L 222.765625 121.316406 L 223.839844 121.316406 L 223.839844 123.601562 C 223.546875 123.738281 223.195312 124.109375 222.785156 124.734375 L 223.195312 125.105469 C 223.605469 124.421875 223.898438 124.070312 224.074219 124.070312 C 224.171875 124.070312 224.269531 124.128906 224.367188 124.265625 C 224.601562 124.539062 224.855469 124.714844 225.148438 124.8125 C 225.460938 124.890625 225.832031 124.929688 226.320312 124.949219 C 226.789062 124.949219 227.238281 124.949219 227.628906 124.949219 Z M 224.875 118.992188 L 224.875 119.5 L 225.851562 119.5 C 225.617188 120.027344 225.324219 120.476562 225.03125 120.828125 L 225.148438 121.335938 L 226.886719 121.335938 L 226.886719 122.214844 L 224.796875 122.214844 L 224.796875 122.722656 L 226.886719 122.722656 L 226.886719 124.128906 L 227.394531 124.128906 L 227.394531 122.722656 L 229.367188 122.722656 L 229.367188 122.214844 L 227.394531 122.214844 L 227.394531 121.335938 L 229.035156 121.335938 L 229.035156 120.828125 L 227.394531 120.828125 L 227.394531 119.949219 L 226.886719 119.949219 L 226.886719 120.828125 L 225.675781 120.828125 C 225.949219 120.4375 226.203125 119.988281 226.417969 119.5 L 229.269531 119.5 L 229.269531 118.992188 L 226.632812 118.992188 C 226.730469 118.757812 226.808594 118.523438 226.886719 118.289062 L 226.378906 118.171875 C 226.28125 118.445312 226.183594 118.71875 226.066406 118.992188 Z M 224.875 118.992188 "/>
<path style=" stroke:none;fill-rule:nonzero;fill:rgb(0%,0%,0%);fill-opacity:1;" d="M 233.78125 119.480469 L 233.332031 119.695312 C 233.507812 119.96875 233.644531 120.261719 233.800781 120.59375 L 232.648438 120.59375 L 232.648438 121.101562 L 236.828125 121.101562 L 236.828125 120.59375 L 235.617188 120.59375 C 235.792969 120.300781 235.949219 119.949219 236.085938 119.578125 L 235.578125 119.402344 C 235.441406 119.8125 235.265625 120.222656 235.050781 120.59375 L 234.308594 120.59375 C 234.152344 120.183594 233.976562 119.8125 233.78125 119.480469 Z M 234.777344 118.171875 L 234.210938 118.269531 C 234.308594 118.445312 234.386719 118.660156 234.464844 118.875 L 232.824219 118.875 L 232.824219 119.382812 L 236.710938 119.382812 L 236.710938 118.875 L 235.011719 118.875 C 234.933594 118.621094 234.855469 118.386719 234.777344 118.171875 Z M 231.027344 125.027344 C 231.476562 125.027344 231.691406 124.8125 231.691406 124.382812 L 231.691406 122.15625 C 231.90625 122.058594 232.121094 121.960938 232.335938 121.84375 L 232.335938 121.296875 C 232.121094 121.394531 231.90625 121.511719 231.691406 121.609375 L 231.691406 120.164062 L 232.316406 120.164062 L 232.316406 119.65625 L 231.691406 119.65625 L 231.691406 118.230469 L 231.144531 118.230469 L 231.144531 119.65625 L 230.226562 119.65625 L 230.226562 120.164062 L 231.144531 120.164062 L 231.144531 121.84375 C 230.792969 121.980469 230.441406 122.097656 230.089844 122.175781 L 230.226562 122.722656 C 230.539062 122.625 230.851562 122.507812 231.144531 122.390625 L 231.144531 124.246094 C 231.144531 124.441406 231.046875 124.539062 230.851562 124.539062 C 230.65625 124.539062 230.460938 124.519531 230.265625 124.5 L 230.382812 125.027344 Z M 234.113281 121.316406 C 234.035156 121.53125 233.9375 121.746094 233.839844 121.960938 L 232.550781 121.960938 L 232.550781 122.488281 L 233.566406 122.488281 C 233.410156 122.78125 233.214844 123.074219 233.019531 123.367188 C 233.546875 123.582031 234.035156 123.796875 234.484375 123.992188 C 234.015625 124.265625 233.351562 124.480469 232.472656 124.636719 L 232.6875 125.125 C 233.761719 124.910156 234.5625 124.617188 235.050781 124.265625 C 235.65625 124.539062 236.164062 124.832031 236.613281 125.105469 L 236.90625 124.675781 C 236.4375 124.402344 235.949219 124.148438 235.441406 123.894531 C 235.792969 123.523438 236.027344 123.054688 236.125 122.488281 L 236.964844 122.488281 L 236.964844 121.960938 L 234.386719 121.960938 C 234.464844 121.785156 234.5625 121.589844 234.640625 121.375 Z M 235.617188 122.488281 C 235.5 122.976562 235.285156 123.367188 234.933594 123.679688 C 234.542969 123.503906 234.113281 123.328125 233.683594 123.152344 C 233.820312 122.957031 233.976562 122.722656 234.113281 122.488281 Z M 235.617188 122.488281 "/>
<path style=" stroke:none;fill-rule:nonzero;fill:rgb(0%,0%,0%);fill-opacity:1;" d="M 239.738281 121.082031 L 239.738281 121.570312 L 243.820312 121.570312 L 243.820312 121.082031 Z M 239.230469 122.3125 L 239.230469 122.800781 L 240.851562 122.800781 C 240.324219 123.660156 239.894531 124.167969 239.5625 124.363281 C 239.542969 124.382812 239.503906 124.402344 239.445312 124.421875 L 239.582031 124.871094 C 240.988281 124.792969 242.296875 124.65625 243.488281 124.5 C 243.625 124.695312 243.761719 124.890625 243.878906 125.085938 L 244.328125 124.773438 C 243.996094 124.285156 243.507812 123.71875 242.902344 123.074219 L 242.492188 123.308594 C 242.726562 123.5625 242.941406 123.816406 243.136719 124.070312 C 242.179688 124.207031 241.203125 124.304688 240.226562 124.382812 C 240.578125 124.070312 240.96875 123.542969 241.4375 122.800781 L 244.308594 122.800781 L 244.308594 122.3125 Z M 243.390625 119.011719 L 243.390625 119.890625 L 238.996094 119.890625 L 238.996094 119.011719 Z M 238.996094 120.378906 L 243.917969 120.378906 L 243.917969 118.523438 L 238.449219 118.523438 L 238.449219 121.003906 C 238.449219 122.507812 238.195312 123.738281 237.667969 124.695312 L 238.058594 125.046875 C 238.683594 123.914062 238.976562 122.566406 238.996094 121.003906 Z M 238.996094 120.378906 "/>
<path style=" stroke:none;fill-rule:nonzero;fill:rgb(40%,74.901961%,100%);fill-opacity:1;" d="M 208 94.875 L 350.5 94.875 L 350.5 73 L 208 73 Z M 208 94.875 "/>
<path style="fill:none;stroke-width:1;stroke-linecap:round;stroke-linejoin:round;stroke:rgb(0%,0%,0%);stroke-opacity:1;stroke-miterlimit:10;" d="M 839.4 366.4 L 953.4 366.4 L 953.4 383.9 L 839.4 383.9 Z M 839.4 366.4 " transform="matrix(1.25,0,0,1.25,-841.25,-385)"/>
<path style=" stroke:none;fill-rule:nonzero;fill:rgb(0%,0%,0%);fill-opacity:1;" d="M 263.839844 79.289062 L 263.273438 79.855469 C 264.09375 80.441406 264.757812 81.007812 265.226562 81.535156 L 265.8125 80.949219 C 265.285156 80.402344 264.621094 79.855469 263.839844 79.289062 Z M 263.566406 81.945312 L 263 82.492188 C 263.78125 83.097656 264.40625 83.664062 264.855469 84.191406 L 265.421875 83.605469 C 264.933594 83.039062 264.308594 82.492188 263.566406 81.945312 Z M 264.992188 85.050781 C 264.484375 86.398438 263.878906 87.707031 263.214844 88.996094 L 264.015625 89.347656 C 264.640625 88.097656 265.207031 86.769531 265.695312 85.34375 Z M 266.242188 81.027344 L 266.242188 81.828125 L 269.171875 81.828125 L 269.171875 84.523438 L 266.554688 84.523438 L 266.554688 85.304688 L 269.171875 85.304688 L 269.171875 88.253906 L 265.96875 88.253906 L 265.96875 89.054688 L 273.117188 89.054688 L 273.117188 88.253906 L 269.992188 88.253906 L 269.992188 85.304688 L 272.589844 85.304688 L 272.589844 84.523438 L 269.992188 84.523438 L 269.992188 81.828125 L 272.902344 81.828125 L 272.902344 81.027344 L 269.542969 81.027344 L 270.011719 80.851562 C 269.835938 80.304688 269.582031 79.71875 269.269531 79.074219 L 268.507812 79.269531 C 268.800781 79.835938 269.054688 80.421875 269.269531 81.027344 Z M 266.242188 81.027344 "/>
<path style=" stroke:none;fill-rule:nonzero;fill:rgb(0%,0%,0%);fill-opacity:1;" d="M 276.710938 80.5 L 277.0625 81.398438 L 274.367188 81.398438 L 274.367188 82.101562 L 284.132812 82.101562 L 284.132812 81.398438 L 281.339844 81.398438 L 281.769531 80.5 L 283.605469 80.5 L 283.605469 79.816406 L 279.640625 79.816406 C 279.523438 79.523438 279.40625 79.25 279.289062 79.015625 L 278.429688 79.152344 C 278.546875 79.347656 278.644531 79.5625 278.761719 79.816406 L 274.894531 79.816406 L 274.894531 80.5 Z M 277.902344 81.398438 L 277.550781 80.5 L 280.929688 80.5 L 280.480469 81.398438 Z M 275.65625 82.765625 L 275.65625 86.105469 L 282.84375 86.105469 L 282.84375 82.765625 Z M 282.0625 85.460938 L 276.4375 85.460938 L 276.4375 84.71875 L 282.0625 84.71875 Z M 276.4375 84.132812 L 276.4375 83.410156 L 282.0625 83.410156 L 282.0625 84.132812 Z M 275.207031 86.632812 C 274.992188 87.375 274.640625 88.058594 274.191406 88.664062 L 274.894531 89.113281 C 275.363281 88.449219 275.714844 87.6875 275.988281 86.789062 Z M 280.792969 89.25 C 281.222656 89.25 281.515625 89.171875 281.730469 89.035156 C 281.945312 88.859375 282.101562 88.390625 282.179688 87.609375 L 281.417969 87.375 C 281.378906 87.921875 281.28125 88.273438 281.144531 88.390625 C 281.066406 88.488281 280.890625 88.527344 280.636719 88.527344 L 278.273438 88.527344 C 277.921875 88.527344 277.746094 88.351562 277.746094 88.039062 L 277.746094 86.730469 L 276.90625 86.730469 L 276.90625 88.214844 C 276.90625 88.917969 277.277344 89.25 278.039062 89.25 Z M 279.367188 86.300781 L 278.683594 86.730469 C 279.152344 87.21875 279.523438 87.648438 279.796875 88.058594 L 280.460938 87.589844 C 280.226562 87.21875 279.855469 86.789062 279.367188 86.300781 Z M 282.902344 86.515625 L 282.257812 86.925781 C 282.863281 87.667969 283.332031 88.351562 283.703125 88.957031 L 284.367188 88.488281 C 284.035156 87.921875 283.527344 87.277344 282.902344 86.515625 Z M 282.902344 86.515625 "/>
<path style=" stroke:none;fill-rule:nonzero;fill:rgb(0%,0%,0%);fill-opacity:1;" d="M 289.5625 79.152344 L 289.5625 80.285156 C 289.5625 80.65625 289.542969 81.046875 289.523438 81.417969 L 286.183594 81.417969 L 286.183594 82.21875 L 289.445312 82.21875 C 289.328125 83.527344 289.074219 84.660156 288.703125 85.597656 C 288.117188 86.886719 287.082031 87.960938 285.597656 88.742188 L 286.046875 89.425781 C 287.550781 88.664062 288.625 87.589844 289.308594 86.222656 C 289.796875 85.148438 290.109375 83.820312 290.285156 82.21875 L 293.839844 82.21875 C 293.78125 84.875 293.644531 86.613281 293.429688 87.433594 C 293.234375 88.214844 292.824219 88.605469 292.179688 88.605469 C 291.769531 88.605469 291.339844 88.585938 290.890625 88.566406 L 291.105469 89.367188 L 292.589844 89.367188 C 293.175781 89.308594 293.585938 89.074219 293.859375 88.625 C 294.132812 88.15625 294.328125 87.316406 294.445312 86.144531 C 294.542969 84.933594 294.621094 83.371094 294.660156 81.417969 L 290.363281 81.417969 C 290.382812 81.046875 290.382812 80.675781 290.402344 80.285156 L 290.402344 79.152344 Z M 289.5625 79.152344 "/>
<path style="fill:none;stroke-width:1;stroke-linecap:round;stroke-linejoin:round;stroke:rgb(0%,0%,0%);stroke-opacity:1;stroke-miterlimit:10;" d="M 878.95 397.8 L 913.85 397.8 L 913.85 413.15 L 878.95 413.15 Z M 878.95 397.8 " transform="matrix(1.25,0,0,1.25,-841.25,-385)"/>
<path style=" stroke:none;fill-rule:nonzero;fill:rgb(0%,0%,0%);fill-opacity:1;" d="M 267.804688 118.230469 C 266.925781 119.1875 265.832031 119.988281 264.523438 120.613281 L 264.777344 121.082031 C 266.105469 120.417969 267.179688 119.636719 268 118.71875 C 268.878906 119.675781 269.933594 120.457031 271.183594 121.042969 L 271.457031 120.574219 C 270.226562 120.007812 269.132812 119.226562 268.195312 118.230469 Z M 265.910156 120.613281 L 265.910156 121.121094 L 267.726562 121.121094 L 267.726562 122.429688 L 265.539062 122.429688 L 265.539062 122.957031 L 267.726562 122.957031 L 267.726562 124.34375 L 264.875 124.34375 L 264.875 124.871094 L 271.125 124.871094 L 271.125 124.34375 L 268.273438 124.34375 L 268.273438 122.957031 L 270.441406 122.957031 L 270.441406 122.429688 L 268.273438 122.429688 L 268.273438 121.121094 L 270.089844 121.121094 L 270.089844 120.613281 Z M 265.910156 120.613281 "/>
<path style=" stroke:none;fill-rule:nonzero;fill:rgb(0%,0%,0%);fill-opacity:1;" d="M 272.707031 118.328125 L 272.335938 118.679688 C 272.882812 119.109375 273.292969 119.519531 273.585938 119.890625 L 273.976562 119.5 C 273.644531 119.109375 273.214844 118.71875 272.707031 118.328125 Z M 277.0625 124.949219 L 278.78125 124.949219 L 278.917969 124.421875 C 278.722656 124.441406 278.429688 124.441406 278.078125 124.441406 C 277.707031 124.460938 277.335938 124.460938 276.984375 124.460938 C 276.417969 124.460938 275.929688 124.460938 275.539062 124.441406 C 275.109375 124.441406 274.757812 124.382812 274.542969 124.265625 C 274.328125 124.167969 274.132812 124.011719 273.957031 123.796875 C 273.898438 123.738281 273.839844 123.660156 273.78125 123.621094 L 273.78125 120.828125 L 272.199219 120.828125 L 272.199219 121.316406 L 273.273438 121.316406 L 273.273438 123.601562 C 272.980469 123.738281 272.628906 124.109375 272.21875 124.734375 L 272.628906 125.105469 C 273.039062 124.421875 273.332031 124.070312 273.507812 124.070312 C 273.605469 124.070312 273.703125 124.128906 273.800781 124.265625 C 274.035156 124.539062 274.289062 124.714844 274.582031 124.8125 C 274.894531 124.890625 275.265625 124.929688 275.753906 124.949219 C 276.222656 124.949219 276.671875 124.949219 277.0625 124.949219 Z M 274.308594 118.992188 L 274.308594 119.5 L 275.285156 119.5 C 275.050781 120.027344 274.757812 120.476562 274.464844 120.828125 L 274.582031 121.335938 L 276.320312 121.335938 L 276.320312 122.214844 L 274.230469 122.214844 L 274.230469 122.722656 L 276.320312 122.722656 L 276.320312 124.128906 L 276.828125 124.128906 L 276.828125 122.722656 L 278.800781 122.722656 L 278.800781 122.214844 L 276.828125 122.214844 L 276.828125 121.335938 L 278.46875 121.335938 L 278.46875 120.828125 L 276.828125 120.828125 L 276.828125 119.949219 L 276.320312 119.949219 L 276.320312 120.828125 L 275.109375 120.828125 C 275.382812 120.4375 275.636719 119.988281 275.851562 119.5 L 278.703125 119.5 L 278.703125 118.992188 L 276.066406 118.992188 C 276.164062 118.757812 276.242188 118.523438 276.320312 118.289062 L 275.8125 118.171875 C 275.714844 118.445312 275.617188 118.71875 275.5 118.992188 Z M 274.308594 118.992188 "/>
<path style=" stroke:none;fill-rule:nonzero;fill:rgb(0%,0%,0%);fill-opacity:1;" d="M 283.214844 119.480469 L 282.765625 119.695312 C 282.941406 119.96875 283.078125 120.261719 283.234375 120.59375 L 282.082031 120.59375 L 282.082031 121.101562 L 286.261719 121.101562 L 286.261719 120.59375 L 285.050781 120.59375 C 285.226562 120.300781 285.382812 119.949219 285.519531 119.578125 L 285.011719 119.402344 C 284.875 119.8125 284.699219 120.222656 284.484375 120.59375 L 283.742188 120.59375 C 283.585938 120.183594 283.410156 119.8125 283.214844 119.480469 Z M 284.210938 118.171875 L 283.644531 118.269531 C 283.742188 118.445312 283.820312 118.660156 283.898438 118.875 L 282.257812 118.875 L 282.257812 119.382812 L 286.144531 119.382812 L 286.144531 118.875 L 284.445312 118.875 C 284.367188 118.621094 284.289062 118.386719 284.210938 118.171875 Z M 280.460938 125.027344 C 280.910156 125.027344 281.125 124.8125 281.125 124.382812 L 281.125 122.15625 C 281.339844 122.058594 281.554688 121.960938 281.769531 121.84375 L 281.769531 121.296875 C 281.554688 121.394531 281.339844 121.511719 281.125 121.609375 L 281.125 120.164062 L 281.75 120.164062 L 281.75 119.65625 L 281.125 119.65625 L 281.125 118.230469 L 280.578125 118.230469 L 280.578125 119.65625 L 279.660156 119.65625 L 279.660156 120.164062 L 280.578125 120.164062 L 280.578125 121.84375 C 280.226562 121.980469 279.875 122.097656 279.523438 122.175781 L 279.660156 122.722656 C 279.972656 122.625 280.285156 122.507812 280.578125 122.390625 L 280.578125 124.246094 C 280.578125 124.441406 280.480469 124.539062 280.285156 124.539062 C 280.089844 124.539062 279.894531 124.519531 279.699219 124.5 L 279.816406 125.027344 Z M 283.546875 121.316406 C 283.46875 121.53125 283.371094 121.746094 283.273438 121.960938 L 281.984375 121.960938 L 281.984375 122.488281 L 283 122.488281 C 282.84375 122.78125 282.648438 123.074219 282.453125 123.367188 C 282.980469 123.582031 283.46875 123.796875 283.917969 123.992188 C 283.449219 124.265625 282.785156 124.480469 281.90625 124.636719 L 282.121094 125.125 C 283.195312 124.910156 283.996094 124.617188 284.484375 124.265625 C 285.089844 124.539062 285.597656 124.832031 286.046875 125.105469 L 286.339844 124.675781 C 285.871094 124.402344 285.382812 124.148438 284.875 123.894531 C 285.226562 123.523438 285.460938 123.054688 285.558594 122.488281 L 286.398438 122.488281 L 286.398438 121.960938 L 283.820312 121.960938 C 283.898438 121.785156 283.996094 121.589844 284.074219 121.375 Z M 285.050781 122.488281 C 284.933594 122.976562 284.71875 123.367188 284.367188 123.679688 C 283.976562 123.503906 283.546875 123.328125 283.117188 123.152344 C 283.253906 122.957031 283.410156 122.722656 283.546875 122.488281 Z M 285.050781 122.488281 "/>
<path style=" stroke:none;fill-rule:nonzero;fill:rgb(0%,0%,0%);fill-opacity:1;" d="M 289.171875 121.082031 L 289.171875 121.570312 L 293.253906 121.570312 L 293.253906 121.082031 Z M 288.664062 122.3125 L 288.664062 122.800781 L 290.285156 122.800781 C 289.757812 123.660156 289.328125 124.167969 288.996094 124.363281 C 288.976562 124.382812 288.9375 124.402344 288.878906 124.421875 L 289.015625 124.871094 C 290.421875 124.792969 291.730469 124.65625 292.921875 124.5 C 293.058594 124.695312 293.195312 124.890625 293.3125 125.085938 L 293.761719 124.773438 C 293.429688 124.285156 292.941406 123.71875 292.335938 123.074219 L 291.925781 123.308594 C 292.160156 123.5625 292.375 123.816406 292.570312 124.070312 C 291.613281 124.207031 290.636719 124.304688 289.660156 124.382812 C 290.011719 124.070312 290.402344 123.542969 290.871094 122.800781 L 293.742188 122.800781 L 293.742188 122.3125 Z M 292.824219 119.011719 L 292.824219 119.890625 L 288.429688 119.890625 L 288.429688 119.011719 Z M 288.429688 120.378906 L 293.351562 120.378906 L 293.351562 118.523438 L 287.882812 118.523438 L 287.882812 121.003906 C 287.882812 122.507812 287.628906 123.738281 287.101562 124.695312 L 287.492188 125.046875 C 288.117188 123.914062 288.410156 122.566406 288.429688 121.003906 Z M 288.429688 120.378906 "/>
<path style="fill:none;stroke-width:1;stroke-linecap:round;stroke-linejoin:round;stroke:rgb(0%,0%,0%);stroke-opacity:1;stroke-miterlimit:10;" d="M 918.496875 397.8 L 953.4 397.8 L 953.4 413.15 L 918.496875 413.15 Z M 918.496875 397.8 " transform="matrix(1.25,0,0,1.25,-841.25,-385)"/>
<path style=" stroke:none;fill-rule:nonzero;fill:rgb(0%,0%,0%);fill-opacity:1;" d="M 317.238281 118.230469 C 316.359375 119.1875 315.265625 119.988281 313.957031 120.613281 L 314.210938 121.082031 C 315.539062 120.417969 316.613281 119.636719 317.433594 118.71875 C 318.3125 119.675781 319.367188 120.457031 320.617188 121.042969 L 320.890625 120.574219 C 319.660156 120.007812 318.566406 119.226562 317.628906 118.230469 Z M 315.34375 120.613281 L 315.34375 121.121094 L 317.160156 121.121094 L 317.160156 122.429688 L 314.972656 122.429688 L 314.972656 122.957031 L 317.160156 122.957031 L 317.160156 124.34375 L 314.308594 124.34375 L 314.308594 124.871094 L 320.558594 124.871094 L 320.558594 124.34375 L 317.707031 124.34375 L 317.707031 122.957031 L 319.875 122.957031 L 319.875 122.429688 L 317.707031 122.429688 L 317.707031 121.121094 L 319.523438 121.121094 L 319.523438 120.613281 Z M 315.34375 120.613281 "/>
<path style=" stroke:none;fill-rule:nonzero;fill:rgb(0%,0%,0%);fill-opacity:1;" d="M 322.140625 118.328125 L 321.769531 118.679688 C 322.316406 119.109375 322.726562 119.519531 323.019531 119.890625 L 323.410156 119.5 C 323.078125 119.109375 322.648438 118.71875 322.140625 118.328125 Z M 326.496094 124.949219 L 328.214844 124.949219 L 328.351562 124.421875 C 328.15625 124.441406 327.863281 124.441406 327.511719 124.441406 C 327.140625 124.460938 326.769531 124.460938 326.417969 124.460938 C 325.851562 124.460938 325.363281 124.460938 324.972656 124.441406 C 324.542969 124.441406 324.191406 124.382812 323.976562 124.265625 C 323.761719 124.167969 323.566406 124.011719 323.390625 123.796875 C 323.332031 123.738281 323.273438 123.660156 323.214844 123.621094 L 323.214844 120.828125 L 321.632812 120.828125 L 321.632812 121.316406 L 322.707031 121.316406 L 322.707031 123.601562 C 322.414062 123.738281 322.0625 124.109375 321.652344 124.734375 L 322.0625 125.105469 C 322.472656 124.421875 322.765625 124.070312 322.941406 124.070312 C 323.039062 124.070312 323.136719 124.128906 323.234375 124.265625 C 323.46875 124.539062 323.722656 124.714844 324.015625 124.8125 C 324.328125 124.890625 324.699219 124.929688 325.1875 124.949219 C 325.65625 124.949219 326.105469 124.949219 326.496094 124.949219 Z M 323.742188 118.992188 L 323.742188 119.5 L 324.71875 119.5 C 324.484375 120.027344 324.191406 120.476562 323.898438 120.828125 L 324.015625 121.335938 L 325.753906 121.335938 L 325.753906 122.214844 L 323.664062 122.214844 L 323.664062 122.722656 L 325.753906 122.722656 L 325.753906 124.128906 L 326.261719 124.128906 L 326.261719 122.722656 L 328.234375 122.722656 L 328.234375 122.214844 L 326.261719 122.214844 L 326.261719 121.335938 L 327.902344 121.335938 L 327.902344 120.828125 L 326.261719 120.828125 L 326.261719 119.949219 L 325.753906 119.949219 L 325.753906 120.828125 L 324.542969 120.828125 C 324.816406 120.4375 325.070312 119.988281 325.285156 119.5 L 328.136719 119.5 L 328.136719 118.992188 L 325.5 118.992188 C 325.597656 118.757812 325.675781 118.523438 325.753906 118.289062 L 325.246094 118.171875 C 325.148438 118.445312 325.050781 118.71875 324.933594 118.992188 Z M 323.742188 118.992188 "/>
<path style=" stroke:none;fill-rule:nonzero;fill:rgb(0%,0%,0%);fill-opacity:1;" d="M 332.648438 119.480469 L 332.199219 119.695312 C 332.375 119.96875 332.511719 120.261719 332.667969 120.59375 L 331.515625 120.59375 L 331.515625 121.101562 L 335.695312 121.101562 L 335.695312 120.59375 L 334.484375 120.59375 C 334.660156 120.300781 334.816406 119.949219 334.953125 119.578125 L 334.445312 119.402344 C 334.308594 119.8125 334.132812 120.222656 333.917969 120.59375 L 333.175781 120.59375 C 333.019531 120.183594 332.84375 119.8125 332.648438 119.480469 Z M 333.644531 118.171875 L 333.078125 118.269531 C 333.175781 118.445312 333.253906 118.660156 333.332031 118.875 L 331.691406 118.875 L 331.691406 119.382812 L 335.578125 119.382812 L 335.578125 118.875 L 333.878906 118.875 C 333.800781 118.621094 333.722656 118.386719 333.644531 118.171875 Z M 329.894531 125.027344 C 330.34375 125.027344 330.558594 124.8125 330.558594 124.382812 L 330.558594 122.15625 C 330.773438 122.058594 330.988281 121.960938 331.203125 121.84375 L 331.203125 121.296875 C 330.988281 121.394531 330.773438 121.511719 330.558594 121.609375 L 330.558594 120.164062 L 331.183594 120.164062 L 331.183594 119.65625 L 330.558594 119.65625 L 330.558594 118.230469 L 330.011719 118.230469 L 330.011719 119.65625 L 329.09375 119.65625 L 329.09375 120.164062 L 330.011719 120.164062 L 330.011719 121.84375 C 329.660156 121.980469 329.308594 122.097656 328.957031 122.175781 L 329.09375 122.722656 C 329.40625 122.625 329.71875 122.507812 330.011719 122.390625 L 330.011719 124.246094 C 330.011719 124.441406 329.914062 124.539062 329.71875 124.539062 C 329.523438 124.539062 329.328125 124.519531 329.132812 124.5 L 329.25 125.027344 Z M 332.980469 121.316406 C 332.902344 121.53125 332.804688 121.746094 332.707031 121.960938 L 331.417969 121.960938 L 331.417969 122.488281 L 332.433594 122.488281 C 332.277344 122.78125 332.082031 123.074219 331.886719 123.367188 C 332.414062 123.582031 332.902344 123.796875 333.351562 123.992188 C 332.882812 124.265625 332.21875 124.480469 331.339844 124.636719 L 331.554688 125.125 C 332.628906 124.910156 333.429688 124.617188 333.917969 124.265625 C 334.523438 124.539062 335.03125 124.832031 335.480469 125.105469 L 335.773438 124.675781 C 335.304688 124.402344 334.816406 124.148438 334.308594 123.894531 C 334.660156 123.523438 334.894531 123.054688 334.992188 122.488281 L 335.832031 122.488281 L 335.832031 121.960938 L 333.253906 121.960938 C 333.332031 121.785156 333.429688 121.589844 333.507812 121.375 Z M 334.484375 122.488281 C 334.367188 122.976562 334.152344 123.367188 333.800781 123.679688 C 333.410156 123.503906 332.980469 123.328125 332.550781 123.152344 C 332.6875 122.957031 332.84375 122.722656 332.980469 122.488281 Z M 334.484375 122.488281 "/>
<path style=" stroke:none;fill-rule:nonzero;fill:rgb(0%,0%,0%);fill-opacity:1;" d="M 338.605469 121.082031 L 338.605469 121.570312 L 342.6875 121.570312 L 342.6875 121.082031 Z M 338.097656 122.3125 L 338.097656 122.800781 L 339.71875 122.800781 C 339.191406 123.660156 338.761719 124.167969 338.429688 124.363281 C 338.410156 124.382812 338.371094 124.402344 338.3125 124.421875 L 338.449219 124.871094 C 339.855469 124.792969 341.164062 124.65625 342.355469 124.5 C 342.492188 124.695312 342.628906 124.890625 342.746094 125.085938 L 343.195312 124.773438 C 342.863281 124.285156 342.375 123.71875 341.769531 123.074219 L 341.359375 123.308594 C 341.59375 123.5625 341.808594 123.816406 342.003906 124.070312 C 341.046875 124.207031 340.070312 124.304688 339.09375 124.382812 C 339.445312 124.070312 339.835938 123.542969 340.304688 122.800781 L 343.175781 122.800781 L 343.175781 122.3125 Z M 342.257812 119.011719 L 342.257812 119.890625 L 337.863281 119.890625 L 337.863281 119.011719 Z M 337.863281 120.378906 L 342.785156 120.378906 L 342.785156 118.523438 L 337.316406 118.523438 L 337.316406 121.003906 C 337.316406 122.507812 337.0625 123.738281 336.535156 124.695312 L 336.925781 125.046875 C 337.550781 123.914062 337.84375 122.566406 337.863281 121.003906 Z M 337.863281 120.378906 "/>
<path style="fill:none;stroke-width:1;stroke-linecap:round;stroke-linejoin:round;stroke:rgb(0%,0%,0%);stroke-opacity:1;stroke-miterlimit:10;" d="M 856.85 397.8 L 856.85 389.8 " transform="matrix(1.25,0,0,1.25,-841.25,-385)"/>
<path style="fill:none;stroke-width:1;stroke-linecap:butt;stroke-linejoin:miter;stroke:rgb(0%,0%,0%);stroke-opacity:1;stroke-miterlimit:10;" d="M 856.85 385.8 L 856.85 389.8 M 855.35 389.8 L 856.85 385.8 L 858.35 389.8 " transform="matrix(1.25,0,0,1.25,-841.25,-385)"/>
<path style="fill:none;stroke-width:1;stroke-linecap:round;stroke-linejoin:round;stroke:rgb(0%,0%,0%);stroke-opacity:1;stroke-miterlimit:10;" d="M 896.4 397.8 L 896.4 389.8 " transform="matrix(1.25,0,0,1.25,-841.25,-385)"/>
<path style="fill:none;stroke-width:1;stroke-linecap:butt;stroke-linejoin:miter;stroke:rgb(0%,0%,0%);stroke-opacity:1;stroke-miterlimit:10;" d="M 896.4 385.8 L 896.4 389.8 M 894.9 389.8 L 896.4 385.8 L 897.9 389.8 " transform="matrix(1.25,0,0,1.25,-841.25,-385)"/>
<path style="fill:none;stroke-width:1;stroke-linecap:round;stroke-linejoin:round;stroke:rgb(0%,0%,0%);stroke-opacity:1;stroke-miterlimit:10;" d="M 935.95 397.8 L 935.95 389.8 " transform="matrix(1.25,0,0,1.25,-841.25,-385)"/>
<path style="fill:none;stroke-width:1;stroke-linecap:butt;stroke-linejoin:miter;stroke:rgb(0%,0%,0%);stroke-opacity:1;stroke-miterlimit:10;" d="M 935.95 385.8 L 935.95 389.8 M 934.45 389.8 L 935.95 385.8 L 937.45 389.8 " transform="matrix(1.25,0,0,1.25,-841.25,-385)"/>
<path style=" stroke:none;fill-rule:nonzero;fill:rgb(69.803922%,85.098039%,100%);fill-opacity:1;" d="M 134 58.875 L 217.5 58.875 L 217.5 37 L 134 37 Z M 134 58.875 "/>
<path style="fill:none;stroke-width:1;stroke-linecap:round;stroke-linejoin:round;stroke:rgb(0%,0%,0%);stroke-opacity:1;stroke-miterlimit:10;" d="M 780.2 337.6 L 847 337.6 L 847 355.1 L 780.2 355.1 Z M 780.2 337.6 " transform="matrix(1.25,0,0,1.25,-841.25,-385)"/>
<path style=" stroke:none;fill-rule:nonzero;fill:rgb(0%,0%,0%);fill-opacity:1;" d="M 165.945312 43.308594 L 165.398438 43.835938 C 166.179688 44.480469 166.824219 45.066406 167.273438 45.613281 L 167.859375 45.046875 C 167.332031 44.460938 166.6875 43.894531 165.945312 43.308594 Z M 172.46875 53.230469 L 175.046875 53.230469 L 175.242188 52.429688 C 174.949219 52.449219 174.519531 52.449219 173.992188 52.46875 C 173.425781 52.488281 172.898438 52.488281 172.371094 52.488281 C 171.492188 52.488281 170.769531 52.488281 170.183594 52.46875 C 169.519531 52.449219 169.03125 52.351562 168.679688 52.195312 C 168.367188 52.058594 168.09375 51.824219 167.820312 51.492188 C 167.722656 51.394531 167.644531 51.296875 167.546875 51.238281 L 167.546875 47.019531 L 165.183594 47.019531 L 165.183594 47.761719 L 166.804688 47.761719 L 166.804688 51.179688 C 166.335938 51.394531 165.808594 51.960938 165.203125 52.917969 L 165.808594 53.464844 C 166.433594 52.429688 166.882812 51.902344 167.136719 51.902344 C 167.273438 51.902344 167.429688 52 167.566406 52.195312 C 167.917969 52.585938 168.308594 52.878906 168.757812 53.015625 C 169.207031 53.132812 169.773438 53.210938 170.496094 53.210938 C 171.199219 53.230469 171.863281 53.230469 172.46875 53.230469 Z M 168.328125 44.285156 L 168.328125 45.027344 L 169.8125 45.027344 C 169.441406 45.828125 169.03125 46.511719 168.582031 47.039062 L 168.757812 47.78125 L 171.355469 47.78125 L 171.355469 49.128906 L 168.230469 49.128906 L 168.230469 49.890625 L 171.355469 49.890625 L 171.355469 51.980469 L 172.136719 51.980469 L 172.136719 49.890625 L 175.066406 49.890625 L 175.066406 49.128906 L 172.136719 49.128906 L 172.136719 47.78125 L 174.578125 47.78125 L 174.578125 47.039062 L 172.136719 47.039062 L 172.136719 45.710938 L 171.355469 45.710938 L 171.355469 47.039062 L 169.539062 47.039062 C 169.949219 46.453125 170.320312 45.789062 170.671875 45.027344 L 174.929688 45.027344 L 174.929688 44.285156 L 170.984375 44.285156 C 171.121094 43.933594 171.238281 43.601562 171.355469 43.230469 L 170.59375 43.035156 C 170.457031 43.464844 170.300781 43.894531 170.144531 44.285156 Z M 168.328125 44.285156 "/>
<path style=" stroke:none;fill-rule:nonzero;fill:rgb(0%,0%,0%);fill-opacity:1;" d="M 180.378906 51.179688 C 179.246094 51.609375 177.917969 51.941406 176.375 52.195312 L 176.472656 52.976562 C 177.9375 52.703125 179.246094 52.371094 180.378906 51.960938 Z M 178.308594 43.09375 C 177.859375 44.421875 177.3125 45.613281 176.6875 46.648438 C 176.589844 46.785156 176.472656 46.882812 176.355469 46.941406 L 176.550781 47.683594 C 177.195312 47.605469 177.839844 47.507812 178.484375 47.410156 C 177.859375 48.464844 177.332031 49.207031 176.902344 49.636719 C 176.804688 49.734375 176.667969 49.8125 176.53125 49.890625 L 176.746094 50.613281 C 177.859375 50.476562 179.03125 50.183594 180.242188 49.773438 L 180.242188 49.050781 C 179.421875 49.324219 178.582031 49.558594 177.722656 49.734375 C 178.40625 48.914062 179.265625 47.566406 180.28125 45.671875 L 179.578125 45.398438 C 179.34375 45.828125 179.128906 46.257812 178.914062 46.648438 C 178.367188 46.746094 177.839844 46.824219 177.3125 46.882812 C 177.898438 46.003906 178.484375 44.851562 179.050781 43.386719 Z M 180.242188 44.519531 L 180.242188 45.300781 L 182.9375 45.300781 L 182.9375 46.960938 L 180.613281 46.960938 L 180.613281 47.761719 L 186.101562 47.761719 L 186.101562 46.960938 L 183.757812 46.960938 L 183.757812 45.300781 L 186.433594 45.300781 L 186.433594 44.519531 L 183.757812 44.519531 L 183.757812 43.152344 L 182.9375 43.152344 L 182.9375 44.519531 Z M 185.789062 48.875 L 180.984375 48.875 L 180.984375 53.40625 L 181.785156 53.40625 L 181.785156 52.859375 L 184.988281 52.859375 L 184.988281 53.40625 L 185.789062 53.40625 Z M 181.785156 52.097656 L 181.785156 49.636719 L 184.988281 49.636719 L 184.988281 52.097656 Z M 181.785156 52.097656 "/>
<path style="fill:none;stroke-width:1;stroke-linecap:round;stroke-linejoin:round;stroke:rgb(0%,0%,0%);stroke-opacity:1;stroke-miterlimit:10;" d="M 730.8 366.4 L 730.8 349.54375 C 730.8 347.33125 732.590625 345.54375 734.8 345.54375 C 734.8125 345.54375 734.828125 345.54375 734.840625 345.54375 L 774.3 345.94375 " transform="matrix(1.25,0,0,1.25,-841.25,-385)"/>
<path style="fill:none;stroke-width:1;stroke-linecap:butt;stroke-linejoin:miter;stroke:rgb(0%,0%,0%);stroke-opacity:1;stroke-miterlimit:10;" d="M 778.3 345.9875 L 774.3 345.94375 M 774.315625 344.44375 L 778.3 345.9875 L 774.284375 347.44375 " transform="matrix(1.25,0,0,1.25,-841.25,-385)"/>
<path style="fill:none;stroke-width:1;stroke-linecap:round;stroke-linejoin:round;stroke:rgb(0%,0%,0%);stroke-opacity:1;stroke-miterlimit:10;" d="M 896.4 366.4 L 896.4 350.015625 C 896.4 347.809375 894.609375 346.015625 892.4 346.015625 C 892.39375 346.015625 892.390625 346.015625 892.38125 346.015625 L 852.9 346.184375 " transform="matrix(1.25,0,0,1.25,-841.25,-385)"/>
<path style="fill:none;stroke-width:1;stroke-linecap:butt;stroke-linejoin:miter;stroke:rgb(0%,0%,0%);stroke-opacity:1;stroke-miterlimit:10;" d="M 848.9 346.2 L 852.9 346.184375 M 852.90625 347.684375 L 848.9 346.2 L 852.89375 344.684375 " transform="matrix(1.25,0,0,1.25,-841.25,-385)"/>
<path style="fill:none;stroke-width:1;stroke-linecap:round;stroke-linejoin:round;stroke:rgb(0%,0%,0%);stroke-opacity:1;stroke-miterlimit:10;" d="M 780.2 308.8 L 847 308.8 L 847 326.3 L 780.2 326.3 Z M 780.2 308.8 " transform="matrix(1.25,0,0,1.25,-841.25,-385)"/>
<path style=" stroke:none;fill-rule:nonzero;fill:rgb(0%,0%,0%);fill-opacity:1;" d="M 158.582031 7.152344 C 157.273438 8.578125 155.632812 9.769531 153.660156 10.726562 L 154.050781 11.429688 C 156.042969 10.433594 157.644531 9.242188 158.875 7.894531 C 160.203125 9.320312 161.785156 10.472656 163.660156 11.371094 L 164.070312 10.648438 C 162.214844 9.789062 160.59375 8.636719 159.167969 7.152344 Z M 155.730469 10.707031 L 155.730469 11.488281 L 158.464844 11.488281 L 158.464844 13.441406 L 155.203125 13.441406 L 155.203125 14.222656 L 158.464844 14.222656 L 158.464844 16.292969 L 154.1875 16.292969 L 154.1875 17.09375 L 163.5625 17.09375 L 163.5625 16.292969 L 159.285156 16.292969 L 159.285156 14.222656 L 162.546875 14.222656 L 162.546875 13.441406 L 159.285156 13.441406 L 159.285156 11.488281 L 162.019531 11.488281 L 162.019531 10.707031 Z M 155.730469 10.707031 "/>
<path style=" stroke:none;fill-rule:nonzero;fill:rgb(0%,0%,0%);fill-opacity:1;" d="M 165.945312 7.308594 L 165.398438 7.835938 C 166.179688 8.480469 166.824219 9.066406 167.273438 9.613281 L 167.859375 9.046875 C 167.332031 8.460938 166.6875 7.894531 165.945312 7.308594 Z M 172.46875 17.230469 L 175.046875 17.230469 L 175.242188 16.429688 C 174.949219 16.449219 174.519531 16.449219 173.992188 16.46875 C 173.425781 16.488281 172.898438 16.488281 172.371094 16.488281 C 171.492188 16.488281 170.769531 16.488281 170.183594 16.46875 C 169.519531 16.449219 169.03125 16.351562 168.679688 16.195312 C 168.367188 16.058594 168.09375 15.824219 167.820312 15.492188 C 167.722656 15.394531 167.644531 15.296875 167.546875 15.238281 L 167.546875 11.019531 L 165.183594 11.019531 L 165.183594 11.761719 L 166.804688 11.761719 L 166.804688 15.179688 C 166.335938 15.394531 165.808594 15.960938 165.203125 16.917969 L 165.808594 17.464844 C 166.433594 16.429688 166.882812 15.902344 167.136719 15.902344 C 167.273438 15.902344 167.429688 16 167.566406 16.195312 C 167.917969 16.585938 168.308594 16.878906 168.757812 17.015625 C 169.207031 17.132812 169.773438 17.210938 170.496094 17.210938 C 171.199219 17.230469 171.863281 17.230469 172.46875 17.230469 Z M 168.328125 8.285156 L 168.328125 9.027344 L 169.8125 9.027344 C 169.441406 9.828125 169.03125 10.511719 168.582031 11.039062 L 168.757812 11.78125 L 171.355469 11.78125 L 171.355469 13.128906 L 168.230469 13.128906 L 168.230469 13.890625 L 171.355469 13.890625 L 171.355469 15.980469 L 172.136719 15.980469 L 172.136719 13.890625 L 175.066406 13.890625 L 175.066406 13.128906 L 172.136719 13.128906 L 172.136719 11.78125 L 174.578125 11.78125 L 174.578125 11.039062 L 172.136719 11.039062 L 172.136719 9.710938 L 171.355469 9.710938 L 171.355469 11.039062 L 169.539062 11.039062 C 169.949219 10.453125 170.320312 9.789062 170.671875 9.027344 L 174.929688 9.027344 L 174.929688 8.285156 L 170.984375 8.285156 C 171.121094 7.933594 171.238281 7.601562 171.355469 7.230469 L 170.59375 7.035156 C 170.457031 7.464844 170.300781 7.894531 170.144531 8.285156 Z M 168.328125 8.285156 "/>
<path style=" stroke:none;fill-rule:nonzero;fill:rgb(0%,0%,0%);fill-opacity:1;" d="M 181.707031 9.027344 L 181.042969 9.339844 C 181.277344 9.75 181.492188 10.199219 181.726562 10.6875 L 180.007812 10.6875 L 180.007812 11.46875 L 186.277344 11.46875 L 186.277344 10.6875 L 184.460938 10.6875 C 184.714844 10.238281 184.949219 9.730469 185.164062 9.164062 L 184.402344 8.890625 C 184.167969 9.535156 183.914062 10.121094 183.601562 10.6875 L 182.507812 10.6875 C 182.253906 10.082031 182 9.535156 181.707031 9.027344 Z M 183.191406 7.054688 L 182.351562 7.191406 C 182.46875 7.464844 182.605469 7.777344 182.742188 8.128906 L 180.261719 8.128906 L 180.261719 8.871094 L 186.082031 8.871094 L 186.082031 8.128906 L 183.5625 8.128906 C 183.425781 7.738281 183.308594 7.367188 183.191406 7.054688 Z M 177.566406 17.328125 C 178.230469 17.328125 178.582031 17.015625 178.582031 16.351562 L 178.582031 13.03125 C 178.894531 12.875 179.207031 12.71875 179.519531 12.5625 L 179.519531 11.742188 C 179.207031 11.898438 178.894531 12.054688 178.582031 12.210938 L 178.582031 10.0625 L 179.5 10.0625 L 179.5 9.28125 L 178.582031 9.28125 L 178.582031 7.152344 L 177.742188 7.152344 L 177.742188 9.28125 L 176.375 9.28125 L 176.375 10.0625 L 177.742188 10.0625 L 177.742188 12.5625 C 177.214844 12.777344 176.6875 12.933594 176.160156 13.070312 L 176.375 13.890625 C 176.824219 13.734375 177.292969 13.558594 177.742188 13.382812 L 177.742188 16.15625 C 177.742188 16.449219 177.585938 16.585938 177.292969 16.585938 C 177.019531 16.585938 176.726562 16.566406 176.433594 16.546875 L 176.589844 17.328125 Z M 182.195312 11.78125 C 182.078125 12.09375 181.941406 12.40625 181.785156 12.738281 L 179.851562 12.738281 L 179.851562 13.539062 L 181.355469 13.539062 C 181.121094 13.96875 180.867188 14.398438 180.554688 14.867188 C 181.335938 15.179688 182.078125 15.472656 182.761719 15.804688 C 182.058594 16.195312 181.042969 16.507812 179.734375 16.742188 L 180.066406 17.484375 C 181.6875 17.171875 182.859375 16.722656 183.601562 16.195312 C 184.5 16.625 185.28125 17.035156 185.945312 17.445312 L 186.394531 16.800781 C 185.691406 16.390625 184.949219 16 184.167969 15.648438 C 184.695312 15.082031 185.046875 14.359375 185.222656 13.539062 L 186.453125 13.539062 L 186.453125 12.738281 L 182.605469 12.738281 C 182.742188 12.464844 182.859375 12.171875 182.976562 11.859375 Z M 184.460938 13.539062 C 184.285156 14.261719 183.933594 14.847656 183.425781 15.316406 C 182.820312 15.042969 182.195312 14.789062 181.550781 14.535156 C 181.765625 14.222656 181.980469 13.890625 182.175781 13.539062 Z M 184.460938 13.539062 "/>
<path style=" stroke:none;fill-rule:nonzero;fill:rgb(0%,0%,0%);fill-opacity:1;" d="M 190.652344 11.429688 L 190.652344 12.152344 L 196.746094 12.152344 L 196.746094 11.429688 Z M 189.851562 13.265625 L 189.851562 14.007812 L 192.3125 14.007812 C 191.53125 15.277344 190.867188 16.058594 190.378906 16.351562 C 190.320312 16.371094 190.28125 16.410156 190.203125 16.429688 L 190.378906 17.113281 C 192.507812 16.976562 194.460938 16.78125 196.238281 16.546875 C 196.472656 16.820312 196.667969 17.113281 196.863281 17.40625 L 197.507812 16.957031 C 197.019531 16.234375 196.296875 15.375 195.378906 14.398438 L 194.773438 14.769531 C 195.105469 15.160156 195.4375 15.53125 195.75 15.902344 C 194.304688 16.117188 192.839844 16.273438 191.355469 16.371094 C 191.882812 15.902344 192.488281 15.101562 193.171875 14.007812 L 197.488281 14.007812 L 197.488281 13.265625 Z M 196.121094 8.324219 L 196.121094 9.632812 L 189.5 9.632812 L 189.5 8.324219 Z M 189.5 10.355469 L 196.902344 10.355469 L 196.902344 7.5625 L 188.71875 7.5625 L 188.71875 11.292969 C 188.699219 13.558594 188.308594 15.394531 187.527344 16.820312 L 188.113281 17.367188 C 189.03125 15.667969 189.5 13.636719 189.5 11.292969 Z M 189.5 10.355469 "/>
<path style="fill:none;stroke-width:1;stroke-linecap:round;stroke-linejoin:round;stroke:rgb(0%,0%,0%);stroke-opacity:1;stroke-miterlimit:10;" d="M 813.6 337.6 L 813.6 332.2 " transform="matrix(1.25,0,0,1.25,-841.25,-385)"/>
<path style="fill:none;stroke-width:1;stroke-linecap:butt;stroke-linejoin:miter;stroke:rgb(0%,0%,0%);stroke-opacity:1;stroke-miterlimit:10;" d="M 813.6 328.2 L 813.6 332.2 M 812.1 332.2 L 813.6 328.2 L 815.1 332.2 " transform="matrix(1.25,0,0,1.25,-841.25,-385)"/>
<path style="fill:none;stroke-width:1;stroke-linecap:round;stroke-linejoin:round;stroke:rgb(0%,0%,0%);stroke-opacity:1;stroke-miterlimit:10;" d="M 691.253125 426.01875 L 725.3 426.01875 M 736.3 426.01875 L 764.846875 426.01875 M 775.846875 426.01875 L 853.171875 426.01875 C 855.38125 426.01875 857.171875 424.23125 857.171875 422.01875 C 857.171875 421.99375 857.171875 421.96875 857.171875 421.940625 L 857.1125 419.046875 " transform="matrix(1.25,0,0,1.25,-841.25,-385)"/>
<path style="fill:none;stroke-width:1;stroke-linecap:butt;stroke-linejoin:miter;stroke:rgb(0%,0%,0%);stroke-opacity:1;stroke-miterlimit:10;" d="M 857.0375 415.046875 L 857.1125 419.046875 M 855.6125 419.075 L 857.0375 415.046875 L 858.6125 419.015625 " transform="matrix(1.25,0,0,1.25,-841.25,-385)"/>
<path style="fill:none;stroke-width:1;stroke-linecap:round;stroke-linejoin:round;stroke:rgb(0%,0%,0%);stroke-opacity:1;stroke-miterlimit:10;" d="M 730.8 431.190625 L 764.846875 431.190625 M 775.846875 431.190625 L 892.275 431.190625 C 894.471875 431.190625 896.2625 429.4125 896.275 427.215625 L 896.31875 419.046875 " transform="matrix(1.25,0,0,1.25,-841.25,-385)"/>
<path style="fill:none;stroke-width:1;stroke-linecap:butt;stroke-linejoin:miter;stroke:rgb(0%,0%,0%);stroke-opacity:1;stroke-miterlimit:10;" d="M 896.34375 415.046875 L 896.31875 419.046875 M 894.81875 419.0375 L 896.34375 415.046875 L 897.81875 419.05625 " transform="matrix(1.25,0,0,1.25,-841.25,-385)"/>
<path style="fill:none;stroke-width:1;stroke-linecap:round;stroke-linejoin:round;stroke:rgb(0%,0%,0%);stroke-opacity:1;stroke-miterlimit:10;" d="M 770.346875 436.25 L 932.2125 436.25 C 934.41875 436.25 936.2125 434.4625 936.2125 432.25 C 936.2125 432.2375 936.2125 432.221875 936.2125 432.2125 L 936.08125 419.046875 " transform="matrix(1.25,0,0,1.25,-841.25,-385)"/>
<path style="fill:none;stroke-width:1;stroke-linecap:butt;stroke-linejoin:miter;stroke:rgb(0%,0%,0%);stroke-opacity:1;stroke-miterlimit:10;" d="M 936.04375 415.046875 L 936.08125 419.046875 M 934.58125 419.0625 L 936.04375 415.046875 L 937.58125 419.03125 " transform="matrix(1.25,0,0,1.25,-841.25,-385)"/>
<path style="fill:none;stroke-width:1;stroke-linecap:round;stroke-linejoin:round;stroke:rgb(0%,0%,0%);stroke-opacity:1;stroke-miterlimit:10;" d="M 770.346875 439.6 L 770.346875 419.046875 " transform="matrix(1.25,0,0,1.25,-841.25,-385)"/>
<path style="fill:none;stroke-width:1;stroke-linecap:butt;stroke-linejoin:miter;stroke:rgb(0%,0%,0%);stroke-opacity:1;stroke-miterlimit:10;" d="M 770.346875 415.046875 L 770.346875 419.046875 M 768.846875 419.046875 L 770.346875 415.046875 L 771.846875 419.046875 " transform="matrix(1.25,0,0,1.25,-841.25,-385)"/>
<path style="fill:none;stroke-width:1;stroke-linecap:round;stroke-linejoin:round;stroke:rgb(0%,0%,0%);stroke-opacity:1;stroke-miterlimit:10;" d="M 730.8 439.6 L 730.8 419.046875 " transform="matrix(1.25,0,0,1.25,-841.25,-385)"/>
<path style="fill:none;stroke-width:1;stroke-linecap:butt;stroke-linejoin:miter;stroke:rgb(0%,0%,0%);stroke-opacity:1;stroke-miterlimit:10;" d="M 730.8 415.046875 L 730.8 419.046875 M 729.3 419.046875 L 730.8 415.046875 L 732.3 419.046875 " transform="matrix(1.25,0,0,1.25,-841.25,-385)"/>
</g>
</svg>
