<?xml version="1.0" encoding="UTF-8"?>
<svg xmlns="http://www.w3.org/2000/svg" xmlns:xlink="http://www.w3.org/1999/xlink" width="476pt" height="226pt" viewBox="0 0 476 226" version="1.1">
<defs>
<clipPath id="clip1">
  <path d="M 66 9 L 68 9 L 68 178.875 L 66 178.875 Z M 66 9 "/>
</clipPath>
<clipPath id="clip2">
  <path d="M 130 9 L 133 9 L 133 178.875 L 130 178.875 Z M 130 9 "/>
</clipPath>
<clipPath id="clip3">
  <path d="M 195 9 L 197 9 L 197 178.875 L 195 178.875 Z M 195 9 "/>
</clipPath>
<clipPath id="clip4">
  <path d="M 259 9 L 262 9 L 262 178.875 L 259 178.875 Z M 259 9 "/>
</clipPath>
<clipPath id="clip5">
  <path d="M 324 9 L 326 9 L 326 178.875 L 324 178.875 Z M 324 9 "/>
</clipPath>
<clipPath id="clip6">
  <path d="M 388 9 L 391 9 L 391 178.875 L 388 178.875 Z M 388 9 "/>
</clipPath>
<clipPath id="clip7">
  <path d="M 453 9 L 455 9 L 455 178.875 L 453 178.875 Z M 453 9 "/>
</clipPath>
<clipPath id="clip8">
  <path d="M 48.105469 170 L 466.605469 170 L 466.605469 172 L 48.105469 172 Z M 48.105469 170 "/>
</clipPath>
<clipPath id="clip9">
  <path d="M 48.105469 131 L 466.605469 131 L 466.605469 134 L 48.105469 134 Z M 48.105469 131 "/>
</clipPath>
<clipPath id="clip10">
  <path d="M 48.105469 93 L 466.605469 93 L 466.605469 95 L 48.105469 95 Z M 48.105469 93 "/>
</clipPath>
<clipPath id="clip11">
  <path d="M 48.105469 54 L 466.605469 54 L 466.605469 57 L 48.105469 57 Z M 48.105469 54 "/>
</clipPath>
<clipPath id="clip12">
  <path d="M 48.105469 16 L 466.605469 16 L 466.605469 18 L 48.105469 18 Z M 48.105469 16 "/>
</clipPath>
<filter id="alpha" filterUnits="objectBoundingBox" x="0%" y="0%" width="100%" height="100%">
  <feColorMatrix type="matrix" in="SourceGraphic" values="0 0 0 0 1 0 0 0 0 1 0 0 0 0 1 0 0 0 1 0"/>
</filter>
<mask id="mask0">
  <g filter="url(#alpha)">
<rect x="0" y="0" width="476" height="226" style="fill:rgb(0%,0%,0%);fill-opacity:0.8;stroke:none;"/>
  </g>
</mask>
<clipPath id="clip13">
  <rect x="0" y="0" width="476" height="226"/>
</clipPath>
<g id="surface5" clip-path="url(#clip13)">
<path style="fill-rule:nonzero;fill:rgb(100%,100%,100%);fill-opacity:1;stroke-width:1;stroke-linecap:butt;stroke-linejoin:miter;stroke:rgb(80%,80%,80%);stroke-opacity:1;stroke-miterlimit:4;" d="M 45.484375 138.1 L 102.903125 138.1 C 104.2375 138.1 104.903125 137.434375 104.903125 136.1 L 104.903125 78.3875 C 104.903125 77.053125 104.2375 76.3875 102.903125 76.3875 L 45.484375 76.3875 C 44.15 76.3875 43.484375 77.053125 43.484375 78.3875 L 43.484375 136.1 C 43.484375 137.434375 44.15 138.1 45.484375 138.1 Z M 45.484375 138.1 " transform="matrix(1.25,0,0,1.25,0,0.000000000000014211)"/>
</g>
</defs>
<g id="surface1">
<path style=" stroke:none;fill-rule:nonzero;fill:rgb(100%,100%,100%);fill-opacity:1;" d="M 48.105469 178.875 L 466.605469 178.875 L 466.605469 9 L 48.105469 9 Z M 48.105469 178.875 "/>
<g clip-path="url(#clip1)" clip-rule="nonzero">
<path style="fill:none;stroke-width:0.8;stroke-linecap:square;stroke-linejoin:round;stroke:rgb(69.019608%,69.019608%,69.019608%);stroke-opacity:1;stroke-miterlimit:4;" d="M 53.7 143.1 L 53.7 7.2 " transform="matrix(1.25,0,0,1.25,0,0.000000000000014211)"/>
</g>
<path style="fill:none;stroke-width:0.8;stroke-linecap:butt;stroke-linejoin:round;stroke:rgb(0%,0%,0%);stroke-opacity:1;stroke-miterlimit:4;" d="M -0.000994 0 L -0.000994 3.5 " transform="matrix(1.25,0,0,1.25,67.126243,178.875)"/>
<path style=" stroke:none;fill-rule:nonzero;fill:rgb(0%,0%,0%);fill-opacity:1;" d="M 67.121094 188.824219 C 66.488281 188.824219 66.011719 189.136719 65.691406 189.761719 C 65.371094 190.382812 65.210938 191.324219 65.210938 192.578125 C 65.210938 193.824219 65.371094 194.761719 65.691406 195.386719 C 66.011719 196.011719 66.488281 196.324219 67.121094 196.324219 C 67.761719 196.324219 68.242188 196.011719 68.558594 195.386719 C 68.878906 194.761719 69.039062 193.824219 69.039062 192.578125 C 69.039062 191.324219 68.878906 190.382812 68.558594 189.761719 C 68.242188 189.136719 67.761719 188.824219 67.121094 188.824219 Z M 67.121094 187.847656 C 68.144531 187.847656 68.925781 188.25 69.464844 189.058594 C 70.003906 189.867188 70.273438 191.039062 70.273438 192.578125 C 70.273438 194.109375 70.003906 195.28125 69.464844 196.089844 C 68.925781 196.898438 68.144531 197.300781 67.121094 197.300781 C 66.101562 197.300781 65.320312 196.898438 64.78125 196.089844 C 64.242188 195.28125 63.972656 194.109375 63.972656 192.578125 C 63.972656 191.039062 64.242188 189.867188 64.78125 189.058594 C 65.320312 188.25 66.101562 187.847656 67.121094 187.847656 Z M 67.121094 187.847656 "/>
<g clip-path="url(#clip2)" clip-rule="nonzero">
<path style="fill:none;stroke-width:0.8;stroke-linecap:square;stroke-linejoin:round;stroke:rgb(69.019608%,69.019608%,69.019608%);stroke-opacity:1;stroke-miterlimit:4;" d="M 105.2875 143.1 L 105.2875 7.2 " transform="matrix(1.25,0,0,1.25,0,0.000000000000014211)"/>
</g>
<path style="fill:none;stroke-width:0.8;stroke-linecap:butt;stroke-linejoin:round;stroke:rgb(0%,0%,0%);stroke-opacity:1;stroke-miterlimit:4;" d="M -0.000551 0 L -0.000551 3.5 " transform="matrix(1.25,0,0,1.25,131.610064,178.875)"/>
<path style=" stroke:none;fill-rule:nonzero;fill:rgb(0%,0%,0%);fill-opacity:1;" d="M 125.207031 196.085938 L 127.222656 196.085938 L 127.222656 189.132812 L 125.03125 189.574219 L 125.03125 188.449219 L 127.210938 188.011719 L 128.441406 188.011719 L 128.441406 196.085938 L 130.457031 196.085938 L 130.457031 197.125 L 125.207031 197.125 Z M 125.207031 196.085938 "/>
<path style=" stroke:none;fill-rule:nonzero;fill:rgb(0%,0%,0%);fill-opacity:1;" d="M 135.582031 188.824219 C 134.949219 188.824219 134.472656 189.136719 134.152344 189.761719 C 133.832031 190.382812 133.671875 191.324219 133.671875 192.578125 C 133.671875 193.824219 133.832031 194.761719 134.152344 195.386719 C 134.472656 196.011719 134.949219 196.324219 135.582031 196.324219 C 136.222656 196.324219 136.699219 196.011719 137.019531 195.386719 C 137.339844 194.761719 137.5 193.824219 137.5 192.578125 C 137.5 191.324219 137.339844 190.382812 137.019531 189.761719 C 136.699219 189.136719 136.222656 188.824219 135.582031 188.824219 Z M 135.582031 187.847656 C 136.605469 187.847656 137.386719 188.25 137.925781 189.058594 C 138.464844 189.867188 138.734375 191.039062 138.734375 192.578125 C 138.734375 194.109375 138.464844 195.28125 137.925781 196.089844 C 137.386719 196.898438 136.605469 197.300781 135.582031 197.300781 C 134.5625 197.300781 133.78125 196.898438 133.242188 196.089844 C 132.703125 195.28125 132.433594 194.109375 132.433594 192.578125 C 132.433594 191.039062 132.703125 189.867188 133.242188 189.058594 C 133.78125 188.25 134.5625 187.847656 135.582031 187.847656 Z M 135.582031 187.847656 "/>
<g clip-path="url(#clip3)" clip-rule="nonzero">
<path style="fill:none;stroke-width:0.8;stroke-linecap:square;stroke-linejoin:round;stroke:rgb(69.019608%,69.019608%,69.019608%);stroke-opacity:1;stroke-miterlimit:4;" d="M 156.875 143.1 L 156.875 7.2 " transform="matrix(1.25,0,0,1.25,0,0.000000000000014211)"/>
</g>
<path style="fill:none;stroke-width:0.8;stroke-linecap:butt;stroke-linejoin:round;stroke:rgb(0%,0%,0%);stroke-opacity:1;stroke-miterlimit:4;" d="M -0.000108 0 L -0.000108 3.5 " transform="matrix(1.25,0,0,1.25,196.093885,178.875)"/>
<path style=" stroke:none;fill-rule:nonzero;fill:rgb(0%,0%,0%);fill-opacity:1;" d="M 190.539062 196.085938 L 194.84375 196.085938 L 194.84375 197.125 L 189.058594 197.125 L 189.058594 196.085938 C 189.523438 195.601562 190.160156 194.953125 190.96875 194.136719 C 191.777344 193.320312 192.285156 192.792969 192.492188 192.558594 C 192.886719 192.113281 193.164062 191.738281 193.320312 191.433594 C 193.476562 191.125 193.554688 190.824219 193.554688 190.527344 C 193.554688 190.042969 193.386719 189.648438 193.046875 189.34375 C 192.707031 189.035156 192.261719 188.882812 191.71875 188.882812 C 191.332031 188.882812 190.921875 188.949219 190.492188 189.085938 C 190.0625 189.21875 189.605469 189.421875 189.117188 189.695312 L 189.117188 188.449219 C 189.613281 188.25 190.078125 188.101562 190.507812 188 C 190.941406 187.898438 191.335938 187.847656 191.695312 187.847656 C 192.636719 187.847656 193.390625 188.082031 193.953125 188.554688 C 194.511719 189.027344 194.792969 189.65625 194.792969 190.445312 C 194.792969 190.820312 194.722656 191.175781 194.582031 191.511719 C 194.441406 191.847656 194.1875 192.242188 193.816406 192.699219 C 193.714844 192.816406 193.390625 193.15625 192.847656 193.722656 C 192.300781 194.285156 191.53125 195.074219 190.539062 196.085938 Z M 190.539062 196.085938 "/>
<path style=" stroke:none;fill-rule:nonzero;fill:rgb(0%,0%,0%);fill-opacity:1;" d="M 200.066406 188.824219 C 199.433594 188.824219 198.953125 189.136719 198.632812 189.761719 C 198.316406 190.382812 198.15625 191.324219 198.15625 192.578125 C 198.15625 193.824219 198.316406 194.761719 198.632812 195.386719 C 198.953125 196.011719 199.433594 196.324219 200.066406 196.324219 C 200.707031 196.324219 201.183594 196.011719 201.503906 195.386719 C 201.824219 194.761719 201.984375 193.824219 201.984375 192.578125 C 201.984375 191.324219 201.824219 190.382812 201.503906 189.761719 C 201.183594 189.136719 200.707031 188.824219 200.066406 188.824219 Z M 200.066406 187.847656 C 201.089844 187.847656 201.867188 188.25 202.40625 189.058594 C 202.945312 189.867188 203.214844 191.039062 203.214844 192.578125 C 203.214844 194.109375 202.945312 195.28125 202.40625 196.089844 C 201.867188 196.898438 201.089844 197.300781 200.066406 197.300781 C 199.046875 197.300781 198.265625 196.898438 197.726562 196.089844 C 197.1875 195.28125 196.917969 194.109375 196.917969 192.578125 C 196.917969 191.039062 197.1875 189.867188 197.726562 189.058594 C 198.265625 188.25 199.046875 187.847656 200.066406 187.847656 Z M 200.066406 187.847656 "/>
<g clip-path="url(#clip4)" clip-rule="nonzero">
<path style="fill:none;stroke-width:0.8;stroke-linecap:square;stroke-linejoin:round;stroke:rgb(69.019608%,69.019608%,69.019608%);stroke-opacity:1;stroke-miterlimit:4;" d="M 208.4625 143.1 L 208.4625 7.2 " transform="matrix(1.25,0,0,1.25,0,0.000000000000014211)"/>
</g>
<path style="fill:none;stroke-width:0.8;stroke-linecap:butt;stroke-linejoin:round;stroke:rgb(0%,0%,0%);stroke-opacity:1;stroke-miterlimit:4;" d="M 0.000335 0 L 0.000335 3.5 " transform="matrix(1.25,0,0,1.25,260.577706,178.875)"/>
<path style=" stroke:none;fill-rule:nonzero;fill:rgb(0%,0%,0%);fill-opacity:1;" d="M 257.695312 192.210938 C 258.285156 192.335938 258.746094 192.597656 259.078125 193 C 259.410156 193.398438 259.574219 193.890625 259.574219 194.476562 C 259.574219 195.375 259.265625 196.070312 258.648438 196.5625 C 258.03125 197.054688 257.152344 197.300781 256.011719 197.300781 C 255.628906 197.300781 255.238281 197.261719 254.832031 197.1875 C 254.425781 197.113281 254.007812 197 253.578125 196.847656 L 253.578125 195.660156 C 253.917969 195.859375 254.292969 196.007812 254.699219 196.109375 C 255.105469 196.210938 255.53125 196.261719 255.976562 196.261719 C 256.75 196.261719 257.335938 196.109375 257.742188 195.804688 C 258.148438 195.5 258.347656 195.058594 258.347656 194.476562 C 258.347656 193.9375 258.160156 193.515625 257.785156 193.214844 C 257.410156 192.910156 256.886719 192.761719 256.214844 192.761719 L 255.152344 192.761719 L 255.152344 191.746094 L 256.261719 191.746094 C 256.867188 191.746094 257.332031 191.625 257.652344 191.382812 C 257.976562 191.140625 258.136719 190.792969 258.136719 190.335938 C 258.136719 189.867188 257.96875 189.511719 257.636719 189.261719 C 257.308594 189.007812 256.832031 188.882812 256.214844 188.882812 C 255.875 188.882812 255.511719 188.921875 255.125 188.996094 C 254.738281 189.066406 254.316406 189.179688 253.851562 189.335938 L 253.851562 188.238281 C 254.320312 188.105469 254.757812 188.007812 255.167969 187.945312 C 255.578125 187.878906 255.960938 187.847656 256.324219 187.847656 C 257.261719 187.847656 258 188.058594 258.542969 188.484375 C 259.089844 188.910156 259.363281 189.484375 259.363281 190.207031 C 259.363281 190.710938 259.21875 191.140625 258.929688 191.488281 C 258.640625 191.835938 258.230469 192.074219 257.695312 192.210938 Z M 257.695312 192.210938 "/>
<path style=" stroke:none;fill-rule:nonzero;fill:rgb(0%,0%,0%);fill-opacity:1;" d="M 264.550781 188.824219 C 263.914062 188.824219 263.4375 189.136719 263.117188 189.761719 C 262.800781 190.382812 262.640625 191.324219 262.640625 192.578125 C 262.640625 193.824219 262.800781 194.761719 263.117188 195.386719 C 263.4375 196.011719 263.914062 196.324219 264.550781 196.324219 C 265.1875 196.324219 265.667969 196.011719 265.988281 195.386719 C 266.308594 194.761719 266.46875 193.824219 266.46875 192.578125 C 266.46875 191.324219 266.308594 190.382812 265.988281 189.761719 C 265.667969 189.136719 265.1875 188.824219 264.550781 188.824219 Z M 264.550781 187.847656 C 265.570312 187.847656 266.351562 188.25 266.890625 189.058594 C 267.429688 189.867188 267.699219 191.039062 267.699219 192.578125 C 267.699219 194.109375 267.429688 195.28125 266.890625 196.089844 C 266.351562 196.898438 265.570312 197.300781 264.550781 197.300781 C 263.527344 197.300781 262.75 196.898438 262.210938 196.089844 C 261.671875 195.28125 261.402344 194.109375 261.402344 192.578125 C 261.402344 191.039062 261.671875 189.867188 262.210938 189.058594 C 262.75 188.25 263.527344 187.847656 264.550781 187.847656 Z M 264.550781 187.847656 "/>
<g clip-path="url(#clip5)" clip-rule="nonzero">
<path style="fill:none;stroke-width:0.8;stroke-linecap:square;stroke-linejoin:round;stroke:rgb(69.019608%,69.019608%,69.019608%);stroke-opacity:1;stroke-miterlimit:4;" d="M 260.05 143.1 L 260.05 7.2 " transform="matrix(1.25,0,0,1.25,0,0.000000000000014211)"/>
</g>
<path style="fill:none;stroke-width:0.8;stroke-linecap:butt;stroke-linejoin:round;stroke:rgb(0%,0%,0%);stroke-opacity:1;stroke-miterlimit:4;" d="M 0.000778 0 L 0.000778 3.5 " transform="matrix(1.25,0,0,1.25,325.061528,178.875)"/>
<path style=" stroke:none;fill-rule:nonzero;fill:rgb(0%,0%,0%);fill-opacity:1;" d="M 321.832031 189.085938 L 318.71875 193.949219 L 321.832031 193.949219 Z M 321.507812 188.011719 L 323.058594 188.011719 L 323.058594 193.949219 L 324.359375 193.949219 L 324.359375 194.976562 L 323.058594 194.976562 L 323.058594 197.125 L 321.832031 197.125 L 321.832031 194.976562 L 317.71875 194.976562 L 317.71875 193.785156 Z M 321.507812 188.011719 "/>
<path style=" stroke:none;fill-rule:nonzero;fill:rgb(0%,0%,0%);fill-opacity:1;" d="M 329.035156 188.824219 C 328.398438 188.824219 327.921875 189.136719 327.601562 189.761719 C 327.285156 190.382812 327.125 191.324219 327.125 192.578125 C 327.125 193.824219 327.285156 194.761719 327.601562 195.386719 C 327.921875 196.011719 328.398438 196.324219 329.035156 196.324219 C 329.671875 196.324219 330.152344 196.011719 330.472656 195.386719 C 330.792969 194.761719 330.953125 193.824219 330.953125 192.578125 C 330.953125 191.324219 330.792969 190.382812 330.472656 189.761719 C 330.152344 189.136719 329.671875 188.824219 329.035156 188.824219 Z M 329.035156 187.847656 C 330.054688 187.847656 330.835938 188.25 331.375 189.058594 C 331.914062 189.867188 332.183594 191.039062 332.183594 192.578125 C 332.183594 194.109375 331.914062 195.28125 331.375 196.089844 C 330.835938 196.898438 330.054688 197.300781 329.035156 197.300781 C 328.011719 197.300781 327.234375 196.898438 326.695312 196.089844 C 326.15625 195.28125 325.886719 194.109375 325.886719 192.578125 C 325.886719 191.039062 326.15625 189.867188 326.695312 189.058594 C 327.234375 188.25 328.011719 187.847656 329.035156 187.847656 Z M 329.035156 187.847656 "/>
<g clip-path="url(#clip6)" clip-rule="nonzero">
<path style="fill:none;stroke-width:0.8;stroke-linecap:square;stroke-linejoin:round;stroke:rgb(69.019608%,69.019608%,69.019608%);stroke-opacity:1;stroke-miterlimit:4;" d="M 311.6375 143.1 L 311.6375 7.2 " transform="matrix(1.25,0,0,1.25,0,0.000000000000014211)"/>
</g>
<path style="fill:none;stroke-width:0.8;stroke-linecap:butt;stroke-linejoin:round;stroke:rgb(0%,0%,0%);stroke-opacity:1;stroke-miterlimit:4;" d="M 0.001221 0 L 0.001221 3.5 " transform="matrix(1.25,0,0,1.25,389.545349,178.875)"/>
<path style=" stroke:none;fill-rule:nonzero;fill:rgb(0%,0%,0%);fill-opacity:1;" d="M 382.941406 188.011719 L 387.78125 188.011719 L 387.78125 189.050781 L 384.070312 189.050781 L 384.070312 191.28125 C 384.25 191.21875 384.425781 191.175781 384.605469 191.144531 C 384.785156 191.113281 384.964844 191.101562 385.144531 191.101562 C 386.160156 191.101562 386.96875 191.378906 387.5625 191.9375 C 388.15625 192.492188 388.453125 193.246094 388.453125 194.199219 C 388.453125 195.179688 388.148438 195.941406 387.539062 196.488281 C 386.925781 197.03125 386.066406 197.300781 384.957031 197.300781 C 384.574219 197.300781 384.183594 197.269531 383.785156 197.203125 C 383.390625 197.136719 382.980469 197.039062 382.558594 196.910156 L 382.558594 195.671875 C 382.921875 195.871094 383.300781 196.019531 383.691406 196.117188 C 384.082031 196.214844 384.496094 196.261719 384.929688 196.261719 C 385.632812 196.261719 386.191406 196.078125 386.601562 195.707031 C 387.011719 195.335938 387.21875 194.835938 387.21875 194.199219 C 387.21875 193.566406 387.011719 193.0625 386.601562 192.695312 C 386.191406 192.324219 385.632812 192.136719 384.929688 192.136719 C 384.601562 192.136719 384.273438 192.171875 383.945312 192.246094 C 383.617188 192.320312 383.28125 192.433594 382.941406 192.589844 Z M 382.941406 188.011719 "/>
<path style=" stroke:none;fill-rule:nonzero;fill:rgb(0%,0%,0%);fill-opacity:1;" d="M 393.519531 188.824219 C 392.882812 188.824219 392.40625 189.136719 392.085938 189.761719 C 391.765625 190.382812 391.609375 191.324219 391.609375 192.578125 C 391.609375 193.824219 391.765625 194.761719 392.085938 195.386719 C 392.40625 196.011719 392.882812 196.324219 393.519531 196.324219 C 394.15625 196.324219 394.636719 196.011719 394.957031 195.386719 C 395.277344 194.761719 395.4375 193.824219 395.4375 192.578125 C 395.4375 191.324219 395.277344 190.382812 394.957031 189.761719 C 394.636719 189.136719 394.15625 188.824219 393.519531 188.824219 Z M 393.519531 187.847656 C 394.539062 187.847656 395.320312 188.25 395.859375 189.058594 C 396.398438 189.867188 396.667969 191.039062 396.667969 192.578125 C 396.667969 194.109375 396.398438 195.28125 395.859375 196.089844 C 395.320312 196.898438 394.539062 197.300781 393.519531 197.300781 C 392.496094 197.300781 391.71875 196.898438 391.179688 196.089844 C 390.640625 195.28125 390.371094 194.109375 390.371094 192.578125 C 390.371094 191.039062 390.640625 189.867188 391.179688 189.058594 C 391.71875 188.25 392.496094 187.847656 393.519531 187.847656 Z M 393.519531 187.847656 "/>
<g clip-path="url(#clip7)" clip-rule="nonzero">
<path style="fill:none;stroke-width:0.8;stroke-linecap:square;stroke-linejoin:round;stroke:rgb(69.019608%,69.019608%,69.019608%);stroke-opacity:1;stroke-miterlimit:4;" d="M 363.221875 143.1 L 363.221875 7.2 " transform="matrix(1.25,0,0,1.25,0,0.000000000000014211)"/>
</g>
<path style="fill:none;stroke-width:0.8;stroke-linecap:butt;stroke-linejoin:round;stroke:rgb(0%,0%,0%);stroke-opacity:1;stroke-miterlimit:4;" d="M -0.001461 0 L -0.001461 3.5 " transform="matrix(1.25,0,0,1.25,454.02917,178.875)"/>
<path style=" stroke:none;fill-rule:nonzero;fill:rgb(0%,0%,0%);fill-opacity:1;" d="M 450.203125 192.078125 C 449.648438 192.078125 449.210938 192.265625 448.886719 192.644531 C 448.5625 193.023438 448.402344 193.539062 448.402344 194.199219 C 448.402344 194.855469 448.5625 195.371094 448.886719 195.753906 C 449.210938 196.132812 449.648438 196.324219 450.203125 196.324219 C 450.757812 196.324219 451.195312 196.132812 451.515625 195.753906 C 451.839844 195.371094 452 194.855469 452 194.199219 C 452 193.539062 451.839844 193.023438 451.515625 192.644531 C 451.195312 192.265625 450.757812 192.078125 450.203125 192.078125 Z M 452.648438 188.210938 L 452.648438 189.335938 C 452.339844 189.1875 452.027344 189.078125 451.710938 189 C 451.398438 188.921875 451.085938 188.882812 450.773438 188.882812 C 449.960938 188.882812 449.339844 189.15625 448.910156 189.707031 C 448.480469 190.257812 448.238281 191.085938 448.175781 192.199219 C 448.414062 191.84375 448.714844 191.570312 449.078125 191.382812 C 449.441406 191.195312 449.839844 191.101562 450.273438 191.101562 C 451.191406 191.101562 451.914062 191.378906 452.445312 191.933594 C 452.976562 192.488281 453.242188 193.242188 453.242188 194.199219 C 453.242188 195.136719 452.964844 195.886719 452.410156 196.453125 C 451.859375 197.019531 451.121094 197.300781 450.203125 197.300781 C 449.148438 197.300781 448.34375 196.898438 447.785156 196.089844 C 447.226562 195.28125 446.949219 194.109375 446.949219 192.578125 C 446.949219 191.136719 447.289062 189.988281 447.972656 189.132812 C 448.65625 188.273438 449.574219 187.847656 450.726562 187.847656 C 451.035156 187.847656 451.347656 187.875 451.664062 187.9375 C 451.980469 188 452.308594 188.089844 452.648438 188.210938 Z M 452.648438 188.210938 "/>
<path style=" stroke:none;fill-rule:nonzero;fill:rgb(0%,0%,0%);fill-opacity:1;" d="M 458 188.824219 C 457.367188 188.824219 456.890625 189.136719 456.570312 189.761719 C 456.25 190.382812 456.089844 191.324219 456.089844 192.578125 C 456.089844 193.824219 456.25 194.761719 456.570312 195.386719 C 456.890625 196.011719 457.367188 196.324219 458 196.324219 C 458.640625 196.324219 459.121094 196.011719 459.4375 195.386719 C 459.757812 194.761719 459.917969 193.824219 459.917969 192.578125 C 459.917969 191.324219 459.757812 190.382812 459.4375 189.761719 C 459.121094 189.136719 458.640625 188.824219 458 188.824219 Z M 458 187.847656 C 459.023438 187.847656 459.804688 188.25 460.34375 189.058594 C 460.882812 189.867188 461.152344 191.039062 461.152344 192.578125 C 461.152344 194.109375 460.882812 195.28125 460.34375 196.089844 C 459.804688 196.898438 459.023438 197.300781 458 197.300781 C 456.980469 197.300781 456.199219 196.898438 455.660156 196.089844 C 455.121094 195.28125 454.851562 194.109375 454.851562 192.578125 C 454.851562 191.039062 455.121094 189.867188 455.660156 189.058594 C 456.199219 188.25 456.980469 187.847656 458 187.847656 Z M 458 187.847656 "/>
<path style=" stroke:none;fill-rule:nonzero;fill:rgb(0%,0%,0%);fill-opacity:1;" d="M 218.285156 209.949219 C 218.550781 210.039062 218.808594 210.230469 219.058594 210.523438 C 219.308594 210.816406 219.558594 211.21875 219.8125 211.730469 L 221.0625 214.222656 L 219.738281 214.222656 L 218.574219 211.882812 C 218.269531 211.273438 217.980469 210.867188 217.695312 210.667969 C 217.414062 210.46875 217.027344 210.371094 216.539062 210.371094 L 215.195312 210.371094 L 215.195312 214.222656 L 213.964844 214.222656 L 213.964844 205.109375 L 216.746094 205.109375 C 217.789062 205.109375 218.566406 205.324219 219.078125 205.761719 C 219.59375 206.195312 219.847656 206.855469 219.847656 207.734375 C 219.847656 208.308594 219.714844 208.785156 219.449219 209.164062 C 219.179688 209.539062 218.792969 209.800781 218.285156 209.949219 Z M 215.195312 206.121094 L 215.195312 209.355469 L 216.746094 209.355469 C 217.339844 209.355469 217.789062 209.21875 218.09375 208.945312 C 218.394531 208.667969 218.546875 208.265625 218.546875 207.734375 C 218.546875 207.199219 218.394531 206.796875 218.09375 206.527344 C 217.789062 206.257812 217.339844 206.121094 216.746094 206.121094 Z M 215.195312 206.121094 "/>
<path style=" stroke:none;fill-rule:nonzero;fill:rgb(0%,0%,0%);fill-opacity:1;" d="M 224.6875 208.171875 C 224.085938 208.171875 223.609375 208.40625 223.257812 208.878906 C 222.910156 209.347656 222.734375 209.992188 222.734375 210.808594 C 222.734375 211.625 222.90625 212.269531 223.253906 212.742188 C 223.605469 213.210938 224.082031 213.445312 224.6875 213.445312 C 225.285156 213.445312 225.757812 213.210938 226.109375 212.738281 C 226.457031 212.265625 226.632812 211.621094 226.632812 210.808594 C 226.632812 210 226.457031 209.355469 226.109375 208.882812 C 225.757812 208.410156 225.285156 208.171875 224.6875 208.171875 Z M 224.6875 207.222656 C 225.664062 207.222656 226.429688 207.539062 226.988281 208.175781 C 227.546875 208.808594 227.824219 209.6875 227.824219 210.808594 C 227.824219 211.925781 227.546875 212.804688 226.988281 213.445312 C 226.429688 214.082031 225.664062 214.398438 224.6875 214.398438 C 223.707031 214.398438 222.9375 214.082031 222.382812 213.445312 C 221.828125 212.804688 221.550781 211.925781 221.550781 210.808594 C 221.550781 209.6875 221.828125 208.808594 222.382812 208.175781 C 222.9375 207.539062 223.707031 207.222656 224.6875 207.222656 Z M 224.6875 207.222656 "/>
<path style=" stroke:none;fill-rule:nonzero;fill:rgb(0%,0%,0%);fill-opacity:1;" d="M 229.035156 207.386719 L 230.15625 207.386719 L 231.5625 212.71875 L 232.957031 207.386719 L 234.28125 207.386719 L 235.6875 212.71875 L 237.085938 207.386719 L 238.207031 207.386719 L 236.417969 214.222656 L 235.09375 214.222656 L 233.625 208.617188 L 232.148438 214.222656 L 230.820312 214.222656 Z M 229.035156 207.386719 "/>
<path style=" stroke:none;fill-rule:nonzero;fill:rgb(0%,0%,0%);fill-opacity:1;" d="M 246.578125 204.738281 C 246.035156 205.671875 245.628906 206.597656 245.363281 207.515625 C 245.101562 208.429688 244.96875 209.355469 244.96875 210.296875 C 244.96875 211.234375 245.101562 212.167969 245.367188 213.089844 C 245.636719 214.011719 246.039062 214.9375 246.578125 215.871094 L 245.601562 215.871094 C 244.992188 214.914062 244.539062 213.972656 244.234375 213.050781 C 243.929688 212.125 243.777344 211.207031 243.777344 210.296875 C 243.777344 209.390625 243.929688 208.476562 244.230469 207.558594 C 244.53125 206.636719 244.988281 205.695312 245.601562 204.738281 Z M 246.578125 204.738281 "/>
<path style=" stroke:none;fill-rule:nonzero;fill:rgb(0%,0%,0%);fill-opacity:1;" d="M 249.84375 213.195312 L 249.84375 216.820312 L 248.714844 216.820312 L 248.714844 207.386719 L 249.84375 207.386719 L 249.84375 208.421875 C 250.082031 208.015625 250.378906 207.714844 250.738281 207.519531 C 251.101562 207.320312 251.53125 207.222656 252.03125 207.222656 C 252.859375 207.222656 253.535156 207.550781 254.054688 208.210938 C 254.574219 208.867188 254.832031 209.734375 254.832031 210.808594 C 254.832031 211.882812 254.574219 212.75 254.054688 213.410156 C 253.535156 214.070312 252.859375 214.398438 252.03125 214.398438 C 251.53125 214.398438 251.101562 214.300781 250.738281 214.101562 C 250.378906 213.902344 250.082031 213.601562 249.84375 213.195312 Z M 253.667969 210.808594 C 253.667969 209.984375 253.496094 209.335938 253.15625 208.867188 C 252.816406 208.394531 252.351562 208.160156 251.757812 208.160156 C 251.160156 208.160156 250.695312 208.394531 250.355469 208.867188 C 250.015625 209.335938 249.84375 209.984375 249.84375 210.808594 C 249.84375 211.632812 250.015625 212.28125 250.355469 212.753906 C 250.695312 213.222656 251.160156 213.457031 251.757812 213.457031 C 252.351562 213.457031 252.816406 213.222656 253.15625 212.753906 C 253.496094 212.28125 253.667969 211.632812 253.667969 210.808594 Z M 253.667969 210.808594 "/>
<path style=" stroke:none;fill-rule:nonzero;fill:rgb(0%,0%,0%);fill-opacity:1;" d="M 259.34375 208.171875 C 258.742188 208.171875 258.265625 208.40625 257.914062 208.878906 C 257.5625 209.347656 257.390625 209.992188 257.390625 210.808594 C 257.390625 211.625 257.5625 212.269531 257.910156 212.742188 C 258.257812 213.210938 258.738281 213.445312 259.34375 213.445312 C 259.941406 213.445312 260.414062 213.210938 260.765625 212.738281 C 261.113281 212.265625 261.289062 211.621094 261.289062 210.808594 C 261.289062 210 261.113281 209.355469 260.765625 208.882812 C 260.414062 208.410156 259.941406 208.171875 259.34375 208.171875 Z M 259.34375 207.222656 C 260.320312 207.222656 261.085938 207.539062 261.644531 208.175781 C 262.203125 208.808594 262.480469 209.6875 262.480469 210.808594 C 262.480469 211.925781 262.203125 212.804688 261.644531 213.445312 C 261.085938 214.082031 260.320312 214.398438 259.34375 214.398438 C 258.363281 214.398438 257.59375 214.082031 257.039062 213.445312 C 256.484375 212.804688 256.207031 211.925781 256.207031 210.808594 C 256.207031 209.6875 256.484375 208.808594 257.039062 208.175781 C 257.59375 207.539062 258.363281 207.222656 259.34375 207.222656 Z M 259.34375 207.222656 "/>
<path style=" stroke:none;fill-rule:nonzero;fill:rgb(0%,0%,0%);fill-opacity:1;" d="M 268.699219 207.585938 L 268.699219 208.648438 C 268.382812 208.484375 268.054688 208.363281 267.710938 208.285156 C 267.371094 208.203125 267.015625 208.160156 266.648438 208.160156 C 266.089844 208.160156 265.671875 208.246094 265.394531 208.417969 C 265.117188 208.585938 264.976562 208.84375 264.976562 209.1875 C 264.976562 209.445312 265.074219 209.652344 265.273438 209.800781 C 265.472656 209.949219 265.875 210.089844 266.476562 210.222656 L 266.863281 210.308594 C 267.660156 210.480469 268.226562 210.71875 268.5625 211.03125 C 268.898438 211.34375 269.066406 211.777344 269.066406 212.335938 C 269.066406 212.96875 268.816406 213.472656 268.3125 213.84375 C 267.808594 214.214844 267.117188 214.398438 266.238281 214.398438 C 265.875 214.398438 265.492188 214.363281 265.09375 214.292969 C 264.699219 214.21875 264.28125 214.113281 263.839844 213.972656 L 263.839844 212.8125 C 264.257812 213.027344 264.664062 213.1875 265.066406 213.296875 C 265.46875 213.402344 265.871094 213.457031 266.265625 213.457031 C 266.792969 213.457031 267.199219 213.367188 267.484375 213.1875 C 267.769531 213.003906 267.910156 212.75 267.910156 212.421875 C 267.910156 212.117188 267.808594 211.882812 267.601562 211.71875 C 267.398438 211.554688 266.949219 211.398438 266.25 211.25 L 265.859375 211.15625 C 265.164062 211.011719 264.664062 210.785156 264.351562 210.484375 C 264.042969 210.179688 263.890625 209.761719 263.890625 209.234375 C 263.890625 208.589844 264.117188 208.09375 264.574219 207.746094 C 265.03125 207.394531 265.675781 207.222656 266.515625 207.222656 C 266.929688 207.222656 267.320312 207.25 267.683594 207.3125 C 268.050781 207.371094 268.390625 207.464844 268.699219 207.585938 Z M 268.699219 207.585938 "/>
<path style=" stroke:none;fill-rule:nonzero;fill:rgb(0%,0%,0%);fill-opacity:1;" d="M 270.855469 207.386719 L 271.976562 207.386719 L 271.976562 214.222656 L 270.855469 214.222656 Z M 270.855469 204.722656 L 271.976562 204.722656 L 271.976562 206.148438 L 270.855469 206.148438 Z M 270.855469 204.722656 "/>
<path style=" stroke:none;fill-rule:nonzero;fill:rgb(0%,0%,0%);fill-opacity:1;" d="M 275.4375 205.445312 L 275.4375 207.386719 L 277.75 207.386719 L 277.75 208.257812 L 275.4375 208.257812 L 275.4375 211.96875 C 275.4375 212.527344 275.515625 212.882812 275.667969 213.042969 C 275.820312 213.203125 276.128906 213.28125 276.597656 213.28125 L 277.75 213.28125 L 277.75 214.222656 L 276.597656 214.222656 C 275.730469 214.222656 275.132812 214.058594 274.804688 213.738281 C 274.472656 213.414062 274.308594 212.824219 274.308594 211.96875 L 274.308594 208.257812 L 273.484375 208.257812 L 273.484375 207.386719 L 274.308594 207.386719 L 274.308594 205.445312 Z M 275.4375 205.445312 "/>
<path style=" stroke:none;fill-rule:nonzero;fill:rgb(0%,0%,0%);fill-opacity:1;" d="M 279.226562 207.386719 L 280.351562 207.386719 L 280.351562 214.222656 L 279.226562 214.222656 Z M 279.226562 204.722656 L 280.351562 204.722656 L 280.351562 206.148438 L 279.226562 206.148438 Z M 279.226562 204.722656 "/>
<path style=" stroke:none;fill-rule:nonzero;fill:rgb(0%,0%,0%);fill-opacity:1;" d="M 285.347656 208.171875 C 284.746094 208.171875 284.273438 208.40625 283.921875 208.878906 C 283.570312 209.347656 283.394531 209.992188 283.394531 210.808594 C 283.394531 211.625 283.570312 212.269531 283.917969 212.742188 C 284.265625 213.210938 284.742188 213.445312 285.347656 213.445312 C 285.949219 213.445312 286.421875 213.210938 286.769531 212.738281 C 287.121094 212.265625 287.296875 211.621094 287.296875 210.808594 C 287.296875 210 287.121094 209.355469 286.769531 208.882812 C 286.421875 208.410156 285.949219 208.171875 285.347656 208.171875 Z M 285.347656 207.222656 C 286.324219 207.222656 287.09375 207.539062 287.648438 208.175781 C 288.207031 208.808594 288.488281 209.6875 288.488281 210.808594 C 288.488281 211.925781 288.207031 212.804688 287.648438 213.445312 C 287.09375 214.082031 286.324219 214.398438 285.347656 214.398438 C 284.367188 214.398438 283.601562 214.082031 283.042969 213.445312 C 282.488281 212.804688 282.210938 211.925781 282.210938 210.808594 C 282.210938 209.6875 282.488281 208.808594 283.042969 208.175781 C 283.601562 207.539062 284.367188 207.222656 285.347656 207.222656 Z M 285.347656 207.222656 "/>
<path style=" stroke:none;fill-rule:nonzero;fill:rgb(0%,0%,0%);fill-opacity:1;" d="M 296.03125 210.09375 L 296.03125 214.222656 L 294.910156 214.222656 L 294.910156 210.132812 C 294.910156 209.484375 294.78125 209 294.53125 208.679688 C 294.277344 208.359375 293.898438 208.199219 293.394531 208.199219 C 292.789062 208.199219 292.308594 208.390625 291.960938 208.777344 C 291.609375 209.164062 291.433594 209.691406 291.433594 210.359375 L 291.433594 214.222656 L 290.304688 214.222656 L 290.304688 207.386719 L 291.433594 207.386719 L 291.433594 208.449219 C 291.703125 208.035156 292.019531 207.730469 292.382812 207.527344 C 292.75 207.324219 293.167969 207.222656 293.644531 207.222656 C 294.429688 207.222656 295.023438 207.464844 295.425781 207.949219 C 295.832031 208.433594 296.03125 209.148438 296.03125 210.09375 Z M 296.03125 210.09375 "/>
<path style=" stroke:none;fill-rule:nonzero;fill:rgb(0%,0%,0%);fill-opacity:1;" d="M 298.09375 204.738281 L 299.070312 204.738281 C 299.679688 205.695312 300.136719 206.636719 300.441406 207.558594 C 300.742188 208.476562 300.894531 209.390625 300.894531 210.296875 C 300.894531 211.207031 300.742188 212.125 300.441406 213.050781 C 300.136719 213.972656 299.679688 214.914062 299.070312 215.871094 L 298.09375 215.871094 C 298.636719 214.9375 299.039062 214.011719 299.304688 213.089844 C 299.574219 212.167969 299.707031 211.234375 299.707031 210.296875 C 299.707031 209.355469 299.574219 208.429688 299.304688 207.515625 C 299.039062 206.597656 298.636719 205.671875 298.09375 204.738281 Z M 298.09375 204.738281 "/>
<g clip-path="url(#clip8)" clip-rule="nonzero">
<path style="fill:none;stroke-width:0.8;stroke-linecap:square;stroke-linejoin:round;stroke:rgb(69.019608%,69.019608%,69.019608%);stroke-opacity:1;stroke-miterlimit:4;" d="M 38.484375 136.921875 L 373.284375 136.921875 " transform="matrix(1.25,0,0,1.25,0,0.000000000000014211)"/>
</g>
<path style="fill:none;stroke-width:0.8;stroke-linecap:butt;stroke-linejoin:round;stroke:rgb(0%,0%,0%);stroke-opacity:1;stroke-miterlimit:4;" d="M 0.001562 -0.000852 L -3.498438 -0.000852 " transform="matrix(1.25,0,0,1.25,48.103516,171.153409)"/>
<path style=" stroke:none;fill-rule:nonzero;fill:rgb(0%,0%,0%);fill-opacity:1;" d="M 10.324219 171.464844 L 18.148438 171.464844 L 18.148438 172.503906 L 10.324219 172.503906 Z M 10.324219 171.464844 "/>
<path style=" stroke:none;fill-rule:nonzero;fill:rgb(0%,0%,0%);fill-opacity:1;" d="M 21.023438 174.867188 L 23.039062 174.867188 L 23.039062 167.914062 L 20.847656 168.351562 L 20.847656 167.230469 L 23.027344 166.789062 L 24.257812 166.789062 L 24.257812 174.867188 L 26.273438 174.867188 L 26.273438 175.902344 L 21.023438 175.902344 Z M 21.023438 174.867188 "/>
<path style=" stroke:none;fill-rule:nonzero;fill:rgb(0%,0%,0%);fill-opacity:1;" d="M 28.761719 174.351562 L 30.050781 174.351562 L 30.050781 175.902344 L 28.761719 175.902344 Z M 28.761719 174.351562 "/>
<path style=" stroke:none;fill-rule:nonzero;fill:rgb(0%,0%,0%);fill-opacity:1;" d="M 35.371094 167.601562 C 34.738281 167.601562 34.261719 167.914062 33.941406 168.539062 C 33.621094 169.164062 33.460938 170.101562 33.460938 171.355469 C 33.460938 172.605469 33.621094 173.542969 33.941406 174.167969 C 34.261719 174.792969 34.738281 175.105469 35.371094 175.105469 C 36.011719 175.105469 36.492188 174.792969 36.808594 174.167969 C 37.128906 173.542969 37.289062 172.605469 37.289062 171.355469 C 37.289062 170.101562 37.128906 169.164062 36.808594 168.539062 C 36.492188 167.914062 36.011719 167.601562 35.371094 167.601562 Z M 35.371094 166.625 C 36.394531 166.625 37.175781 167.03125 37.714844 167.839844 C 38.253906 168.644531 38.523438 169.816406 38.523438 171.355469 C 38.523438 172.890625 38.253906 174.0625 37.714844 174.871094 C 37.175781 175.675781 36.394531 176.082031 35.371094 176.082031 C 34.351562 176.082031 33.570312 175.675781 33.03125 174.871094 C 32.492188 174.0625 32.222656 172.890625 32.222656 171.355469 C 32.222656 169.816406 32.492188 168.644531 33.03125 167.839844 C 33.570312 167.03125 34.351562 166.625 35.371094 166.625 Z M 35.371094 166.625 "/>
<g clip-path="url(#clip9)" clip-rule="nonzero">
<path style="fill:none;stroke-width:0.8;stroke-linecap:square;stroke-linejoin:round;stroke:rgb(69.019608%,69.019608%,69.019608%);stroke-opacity:1;stroke-miterlimit:4;" d="M 38.484375 106.0375 L 373.284375 106.0375 " transform="matrix(1.25,0,0,1.25,0,0.000000000000014211)"/>
</g>
<path style="fill:none;stroke-width:0.8;stroke-linecap:butt;stroke-linejoin:round;stroke:rgb(0%,0%,0%);stroke-opacity:1;stroke-miterlimit:4;" d="M 0.001562 0.001136 L -3.498438 0.001136 " transform="matrix(1.25,0,0,1.25,48.103516,132.545455)"/>
<path style=" stroke:none;fill-rule:nonzero;fill:rgb(0%,0%,0%);fill-opacity:1;" d="M 10.324219 132.855469 L 18.148438 132.855469 L 18.148438 133.894531 L 10.324219 133.894531 Z M 10.324219 132.855469 "/>
<path style=" stroke:none;fill-rule:nonzero;fill:rgb(0%,0%,0%);fill-opacity:1;" d="M 23.445312 128.992188 C 22.8125 128.992188 22.335938 129.304688 22.015625 129.929688 C 21.695312 130.554688 21.535156 131.492188 21.535156 132.746094 C 21.535156 133.996094 21.695312 134.933594 22.015625 135.558594 C 22.335938 136.183594 22.8125 136.496094 23.445312 136.496094 C 24.085938 136.496094 24.566406 136.183594 24.882812 135.558594 C 25.203125 134.933594 25.363281 133.996094 25.363281 132.746094 C 25.363281 131.492188 25.203125 130.554688 24.882812 129.929688 C 24.566406 129.304688 24.085938 128.992188 23.445312 128.992188 Z M 23.445312 128.015625 C 24.46875 128.015625 25.25 128.421875 25.789062 129.230469 C 26.328125 130.039062 26.597656 131.210938 26.597656 132.746094 C 26.597656 134.28125 26.328125 135.453125 25.789062 136.261719 C 25.25 137.070312 24.46875 137.472656 23.445312 137.472656 C 22.425781 137.472656 21.644531 137.070312 21.105469 136.261719 C 20.566406 135.453125 20.296875 134.28125 20.296875 132.746094 C 20.296875 131.210938 20.566406 130.039062 21.105469 129.230469 C 21.644531 128.421875 22.425781 128.015625 23.445312 128.015625 Z M 23.445312 128.015625 "/>
<path style=" stroke:none;fill-rule:nonzero;fill:rgb(0%,0%,0%);fill-opacity:1;" d="M 28.761719 135.742188 L 30.050781 135.742188 L 30.050781 137.292969 L 28.761719 137.292969 Z M 28.761719 135.742188 "/>
<path style=" stroke:none;fill-rule:nonzero;fill:rgb(0%,0%,0%);fill-opacity:1;" d="M 32.75 128.179688 L 37.589844 128.179688 L 37.589844 129.21875 L 33.878906 129.21875 L 33.878906 131.453125 C 34.058594 131.390625 34.234375 131.347656 34.414062 131.316406 C 34.59375 131.285156 34.773438 131.269531 34.953125 131.269531 C 35.96875 131.269531 36.773438 131.550781 37.367188 132.105469 C 37.964844 132.664062 38.261719 133.417969 38.261719 134.371094 C 38.261719 135.351562 37.957031 136.113281 37.34375 136.65625 C 36.734375 137.199219 35.875 137.472656 34.761719 137.472656 C 34.378906 137.472656 33.992188 137.441406 33.59375 137.375 C 33.199219 137.308594 32.789062 137.210938 32.363281 137.082031 L 32.363281 135.839844 C 32.730469 136.039062 33.109375 136.1875 33.5 136.285156 C 33.890625 136.382812 34.304688 136.433594 34.738281 136.433594 C 35.441406 136.433594 36 136.25 36.410156 135.878906 C 36.820312 135.507812 37.027344 135.007812 37.027344 134.371094 C 37.027344 133.738281 36.820312 133.234375 36.410156 132.863281 C 36 132.492188 35.441406 132.308594 34.738281 132.308594 C 34.410156 132.308594 34.078125 132.34375 33.75 132.417969 C 33.425781 132.492188 33.089844 132.605469 32.75 132.757812 Z M 32.75 128.179688 "/>
<g clip-path="url(#clip10)" clip-rule="nonzero">
<path style="fill:none;stroke-width:0.8;stroke-linecap:square;stroke-linejoin:round;stroke:rgb(69.019608%,69.019608%,69.019608%);stroke-opacity:1;stroke-miterlimit:4;" d="M 38.484375 75.15 L 373.284375 75.15 " transform="matrix(1.25,0,0,1.25,0,0.000000000000014211)"/>
</g>
<path style="fill:none;stroke-width:0.8;stroke-linecap:butt;stroke-linejoin:round;stroke:rgb(0%,0%,0%);stroke-opacity:1;stroke-miterlimit:4;" d="M 0.001562 0 L -3.498438 0 " transform="matrix(1.25,0,0,1.25,48.103516,93.9375)"/>
<path style=" stroke:none;fill-rule:nonzero;fill:rgb(0%,0%,0%);fill-opacity:1;" d="M 23.449219 90.386719 C 22.8125 90.386719 22.335938 90.699219 22.015625 91.324219 C 21.695312 91.945312 21.539062 92.886719 21.539062 94.140625 C 21.539062 95.386719 21.695312 96.324219 22.015625 96.949219 C 22.335938 97.574219 22.8125 97.886719 23.449219 97.886719 C 24.085938 97.886719 24.566406 97.574219 24.886719 96.949219 C 25.207031 96.324219 25.367188 95.386719 25.367188 94.140625 C 25.367188 92.886719 25.207031 91.945312 24.886719 91.324219 C 24.566406 90.699219 24.085938 90.386719 23.449219 90.386719 Z M 23.449219 89.410156 C 24.46875 89.410156 25.25 89.8125 25.789062 90.621094 C 26.328125 91.429688 26.597656 92.601562 26.597656 94.140625 C 26.597656 95.671875 26.328125 96.84375 25.789062 97.652344 C 25.25 98.460938 24.46875 98.863281 23.449219 98.863281 C 22.425781 98.863281 21.648438 98.460938 21.109375 97.652344 C 20.570312 96.84375 20.300781 95.671875 20.300781 94.140625 C 20.300781 92.601562 20.570312 91.429688 21.109375 90.621094 C 21.648438 89.8125 22.425781 89.410156 23.449219 89.410156 Z M 23.449219 89.410156 "/>
<path style=" stroke:none;fill-rule:nonzero;fill:rgb(0%,0%,0%);fill-opacity:1;" d="M 28.761719 97.136719 L 30.050781 97.136719 L 30.050781 98.6875 L 28.761719 98.6875 Z M 28.761719 97.136719 "/>
<path style=" stroke:none;fill-rule:nonzero;fill:rgb(0%,0%,0%);fill-opacity:1;" d="M 35.375 90.386719 C 34.738281 90.386719 34.261719 90.699219 33.941406 91.324219 C 33.621094 91.945312 33.464844 92.886719 33.464844 94.140625 C 33.464844 95.386719 33.621094 96.324219 33.941406 96.949219 C 34.261719 97.574219 34.738281 97.886719 35.375 97.886719 C 36.011719 97.886719 36.492188 97.574219 36.8125 96.949219 C 37.132812 96.324219 37.292969 95.386719 37.292969 94.140625 C 37.292969 92.886719 37.132812 91.945312 36.8125 91.324219 C 36.492188 90.699219 36.011719 90.386719 35.375 90.386719 Z M 35.375 89.410156 C 36.394531 89.410156 37.175781 89.8125 37.714844 90.621094 C 38.253906 91.429688 38.523438 92.601562 38.523438 94.140625 C 38.523438 95.671875 38.253906 96.84375 37.714844 97.652344 C 37.175781 98.460938 36.394531 98.863281 35.375 98.863281 C 34.351562 98.863281 33.574219 98.460938 33.035156 97.652344 C 32.496094 96.84375 32.226562 95.671875 32.226562 94.140625 C 32.226562 92.601562 32.496094 91.429688 33.035156 90.621094 C 33.574219 89.8125 34.351562 89.410156 35.375 89.410156 Z M 35.375 89.410156 "/>
<g clip-path="url(#clip11)" clip-rule="nonzero">
<path style="fill:none;stroke-width:0.8;stroke-linecap:square;stroke-linejoin:round;stroke:rgb(69.019608%,69.019608%,69.019608%);stroke-opacity:1;stroke-miterlimit:4;" d="M 38.484375 44.2625 L 373.284375 44.2625 " transform="matrix(1.25,0,0,1.25,0,0.000000000000014211)"/>
</g>
<path style="fill:none;stroke-width:0.8;stroke-linecap:butt;stroke-linejoin:round;stroke:rgb(0%,0%,0%);stroke-opacity:1;stroke-miterlimit:4;" d="M 0.001562 -0.001136 L -3.498438 -0.001136 " transform="matrix(1.25,0,0,1.25,48.103516,55.329545)"/>
<path style=" stroke:none;fill-rule:nonzero;fill:rgb(0%,0%,0%);fill-opacity:1;" d="M 23.449219 51.777344 C 22.8125 51.777344 22.335938 52.089844 22.015625 52.714844 C 21.695312 53.339844 21.539062 54.277344 21.539062 55.53125 C 21.539062 56.78125 21.695312 57.71875 22.015625 58.34375 C 22.335938 58.96875 22.8125 59.28125 23.449219 59.28125 C 24.085938 59.28125 24.566406 58.96875 24.886719 58.34375 C 25.207031 57.71875 25.367188 56.78125 25.367188 55.53125 C 25.367188 54.277344 25.207031 53.339844 24.886719 52.714844 C 24.566406 52.089844 24.085938 51.777344 23.449219 51.777344 Z M 23.449219 50.800781 C 24.46875 50.800781 25.25 51.207031 25.789062 52.015625 C 26.328125 52.820312 26.597656 53.992188 26.597656 55.53125 C 26.597656 57.066406 26.328125 58.238281 25.789062 59.046875 C 25.25 59.851562 24.46875 60.257812 23.449219 60.257812 C 22.425781 60.257812 21.648438 59.851562 21.109375 59.046875 C 20.570312 58.238281 20.300781 57.066406 20.300781 55.53125 C 20.300781 53.992188 20.570312 52.820312 21.109375 52.015625 C 21.648438 51.207031 22.425781 50.800781 23.449219 50.800781 Z M 23.449219 50.800781 "/>
<path style=" stroke:none;fill-rule:nonzero;fill:rgb(0%,0%,0%);fill-opacity:1;" d="M 28.761719 58.527344 L 30.050781 58.527344 L 30.050781 60.078125 L 28.761719 60.078125 Z M 28.761719 58.527344 "/>
<path style=" stroke:none;fill-rule:nonzero;fill:rgb(0%,0%,0%);fill-opacity:1;" d="M 32.75 50.964844 L 37.589844 50.964844 L 37.589844 52.003906 L 33.878906 52.003906 L 33.878906 54.238281 C 34.058594 54.175781 34.234375 54.128906 34.414062 54.101562 C 34.59375 54.070312 34.773438 54.054688 34.953125 54.054688 C 35.96875 54.054688 36.777344 54.332031 37.371094 54.890625 C 37.964844 55.449219 38.261719 56.203125 38.261719 57.15625 C 38.261719 58.136719 37.957031 58.898438 37.347656 59.441406 C 36.734375 59.984375 35.875 60.257812 34.765625 60.257812 C 34.382812 60.257812 33.992188 60.222656 33.59375 60.160156 C 33.199219 60.09375 32.789062 59.996094 32.367188 59.867188 L 32.367188 58.625 C 32.730469 58.824219 33.109375 58.972656 33.5 59.070312 C 33.890625 59.167969 34.304688 59.21875 34.738281 59.21875 C 35.441406 59.21875 36 59.03125 36.410156 58.664062 C 36.820312 58.292969 37.027344 57.789062 37.027344 57.15625 C 37.027344 56.519531 36.820312 56.019531 36.410156 55.648438 C 36 55.277344 35.441406 55.09375 34.738281 55.09375 C 34.410156 55.09375 34.082031 55.128906 33.753906 55.203125 C 33.425781 55.273438 33.089844 55.386719 32.75 55.542969 Z M 32.75 50.964844 "/>
<g clip-path="url(#clip12)" clip-rule="nonzero">
<path style="fill:none;stroke-width:0.8;stroke-linecap:square;stroke-linejoin:round;stroke:rgb(69.019608%,69.019608%,69.019608%);stroke-opacity:1;stroke-miterlimit:4;" d="M 38.484375 13.378125 L 373.284375 13.378125 " transform="matrix(1.25,0,0,1.25,0,0.000000000000014211)"/>
</g>
<path style="fill:none;stroke-width:0.8;stroke-linecap:butt;stroke-linejoin:round;stroke:rgb(0%,0%,0%);stroke-opacity:1;stroke-miterlimit:4;" d="M 0.001562 0.000852 L -3.498438 0.000852 " transform="matrix(1.25,0,0,1.25,48.103516,16.721591)"/>
<path style=" stroke:none;fill-rule:nonzero;fill:rgb(0%,0%,0%);fill-opacity:1;" d="M 21.027344 20.433594 L 23.039062 20.433594 L 23.039062 13.480469 L 20.847656 13.917969 L 20.847656 12.796875 L 23.027344 12.355469 L 24.261719 12.355469 L 24.261719 20.433594 L 26.273438 20.433594 L 26.273438 21.46875 L 21.027344 21.46875 Z M 21.027344 20.433594 "/>
<path style=" stroke:none;fill-rule:nonzero;fill:rgb(0%,0%,0%);fill-opacity:1;" d="M 28.761719 19.917969 L 30.050781 19.917969 L 30.050781 21.46875 L 28.761719 21.46875 Z M 28.761719 19.917969 "/>
<path style=" stroke:none;fill-rule:nonzero;fill:rgb(0%,0%,0%);fill-opacity:1;" d="M 35.375 13.167969 C 34.738281 13.167969 34.261719 13.480469 33.941406 14.105469 C 33.621094 14.730469 33.464844 15.667969 33.464844 16.921875 C 33.464844 18.171875 33.621094 19.109375 33.941406 19.734375 C 34.261719 20.359375 34.738281 20.671875 35.375 20.671875 C 36.011719 20.671875 36.492188 20.359375 36.8125 19.734375 C 37.132812 19.109375 37.292969 18.171875 37.292969 16.921875 C 37.292969 15.667969 37.132812 14.730469 36.8125 14.105469 C 36.492188 13.480469 36.011719 13.167969 35.375 13.167969 Z M 35.375 12.191406 C 36.394531 12.191406 37.175781 12.597656 37.714844 13.40625 C 38.253906 14.214844 38.523438 15.386719 38.523438 16.921875 C 38.523438 18.457031 38.253906 19.628906 37.714844 20.4375 C 37.175781 21.246094 36.394531 21.648438 35.375 21.648438 C 34.351562 21.648438 33.574219 21.246094 33.035156 20.4375 C 32.496094 19.628906 32.226562 18.457031 32.226562 16.921875 C 32.226562 15.386719 32.496094 14.214844 33.035156 13.40625 C 33.574219 12.597656 34.351562 12.191406 35.375 12.191406 Z M 35.375 12.191406 "/>
<path style="fill:none;stroke-width:1.5;stroke-linecap:square;stroke-linejoin:round;stroke:rgb(12.156863%,46.666667%,70.588235%);stroke-opacity:1;stroke-miterlimit:4;" d="M 53.7 75.15 L 58.859375 64.221875 L 64.01875 53.640625 L 69.178125 43.7375 L 74.334375 34.821875 L 79.49375 27.18125 L 84.653125 21.053125 L 89.8125 16.63125 L 94.971875 14.053125 L 100.128125 13.403125 L 105.2875 14.703125 L 110.446875 17.90625 L 115.60625 22.915625 L 120.765625 29.571875 L 125.921875 37.66875 L 131.08125 46.94375 L 136.240625 57.109375 L 141.4 67.846875 L 146.55625 78.8125 L 151.715625 89.6625 L 156.875 100.053125 L 162.034375 109.6625 L 167.19375 118.18125 L 172.35 125.340625 L 177.509375 130.91875 L 182.66875 134.7375 L 187.828125 136.678125 L 192.9875 136.678125 L 198.14375 134.7375 L 203.303125 130.915625 L 208.4625 125.3375 L 213.621875 118.175 L 218.778125 109.65625 L 223.9375 100.046875 L 229.096875 89.65625 L 234.25625 78.80625 L 239.415625 67.840625 L 244.571875 57.103125 L 249.73125 46.9375 L 254.890625 37.6625 L 260.05 29.56875 L 265.209375 22.9125 L 270.365625 17.903125 L 275.525 14.7 L 280.684375 13.403125 L 285.84375 14.05625 L 291 16.634375 L 296.159375 21.05625 L 301.31875 27.184375 L 306.478125 34.828125 L 311.6375 43.740625 L 316.79375 53.646875 L 321.953125 64.228125 L 332.271875 86.084375 L 337.43125 96.665625 L 342.5875 106.56875 L 347.746875 115.48125 L 352.90625 123.121875 L 358.065625 129.25 " transform="matrix(1.25,0,0,1.25,0,0.000000000000014211)"/>
<path style="fill:none;stroke-width:1.5;stroke-linecap:butt;stroke-linejoin:round;stroke:rgb(74.901961%,0%,74.901961%);stroke-opacity:1;stroke-dasharray:5.55,2.4;stroke-miterlimit:4;" d="M 53.7 13.378125 L 58.859375 14.35 L 64.01875 17.24375 L 69.178125 21.9625 L 74.334375 28.35625 L 79.49375 36.228125 L 84.653125 45.328125 L 89.8125 55.365625 L 94.971875 66.03125 L 100.128125 76.98125 L 105.2875 87.875 L 110.446875 98.365625 L 115.60625 108.128125 L 120.765625 116.846875 L 125.921875 124.25 L 131.08125 130.10625 L 136.240625 134.23125 L 141.4 136.490625 L 146.55625 136.815625 L 151.715625 135.19375 L 156.875 131.68125 L 162.034375 126.384375 L 167.19375 119.471875 L 172.35 111.159375 L 177.509375 101.7125 L 182.66875 91.428125 L 187.828125 80.63125 L 192.9875 69.6625 L 198.14375 58.865625 L 203.303125 48.58125 L 208.4625 39.134375 L 213.621875 30.825 L 218.778125 23.9125 L 223.9375 18.61875 L 229.096875 15.103125 L 234.25625 13.484375 L 239.415625 13.8125 L 244.571875 16.071875 L 249.73125 20.196875 L 254.890625 26.053125 L 260.05 33.459375 L 265.209375 42.178125 L 270.365625 51.9375 L 275.525 62.43125 L 280.684375 73.325 L 285.84375 84.275 L 291 94.940625 L 296.159375 104.978125 L 301.31875 114.078125 L 306.478125 121.946875 L 311.6375 128.340625 L 316.79375 133.059375 L 321.953125 135.95 L 327.1125 136.921875 L 332.271875 135.946875 L 337.43125 133.053125 L 342.5875 128.334375 L 347.746875 121.9375 L 352.90625 114.065625 L 358.065625 104.965625 " transform="matrix(1.25,0,0,1.25,0,0.000000000000014211)"/>
<path style="fill:none;stroke-width:1.5;stroke-linecap:butt;stroke-linejoin:round;stroke:rgb(0%,50.196078%,0%);stroke-opacity:1;stroke-dasharray:9.6,2.4,1.5,2.4;stroke-miterlimit:4;" d="M 53.7 75.15 L 58.859375 68.984375 L 64.01875 62.878125 L 69.178125 56.89375 L 74.334375 51.09375 L 79.49375 45.534375 L 84.653125 40.271875 L 89.8125 35.35625 L 94.971875 30.8375 L 100.128125 26.7625 L 105.2875 23.16875 L 110.446875 20.096875 L 115.60625 17.575 L 120.765625 15.628125 L 125.921875 14.275 L 131.08125 13.53125 L 136.240625 13.403125 L 141.4 13.890625 L 146.55625 14.99375 L 151.715625 16.69375 L 156.875 18.98125 L 162.034375 21.828125 L 167.19375 25.20625 L 172.35 29.084375 L 177.509375 33.425 L 182.66875 38.18125 L 187.828125 43.30625 L 192.9875 48.75 L 198.14375 54.45625 L 203.303125 60.371875 L 208.4625 66.43125 L 213.621875 72.58125 L 218.778125 78.75625 L 223.9375 84.89375 L 229.096875 90.934375 L 234.25625 96.81875 L 239.415625 102.484375 L 244.571875 107.878125 L 249.73125 112.946875 L 254.890625 117.634375 L 260.05 121.9 L 265.209375 125.696875 L 270.365625 128.990625 L 275.525 131.74375 L 280.684375 133.934375 L 285.84375 135.534375 L 291 136.534375 L 296.159375 136.91875 L 301.31875 136.684375 L 306.478125 135.8375 L 311.6375 134.384375 L 316.79375 132.340625 L 321.953125 129.721875 L 327.1125 126.5625 L 332.271875 122.884375 L 337.43125 118.734375 L 342.5875 114.14375 L 347.746875 109.16875 L 352.90625 103.85 L 358.065625 98.246875 " transform="matrix(1.25,0,0,1.25,0,0.000000000000014211)"/>
<path style="fill:none;stroke-width:1.5;stroke-linecap:butt;stroke-linejoin:round;stroke:rgb(100%,0%,0%);stroke-opacity:1;stroke-dasharray:1.5,2.475;stroke-miterlimit:4;" d="M 53.7 13.378125 L 58.859375 13.684375 L 64.01875 14.609375 L 69.178125 16.1375 L 74.334375 18.253125 L 79.49375 20.940625 L 84.653125 24.165625 L 89.8125 27.903125 L 94.971875 32.1125 L 100.128125 36.75 L 105.2875 41.775 L 110.446875 47.13125 L 115.60625 52.765625 L 120.765625 58.625 L 125.921875 64.65 L 131.08125 70.78125 L 136.240625 76.953125 L 141.4 83.109375 L 146.55625 89.184375 L 151.715625 95.121875 L 156.875 100.85625 L 162.034375 106.334375 L 167.19375 111.503125 L 172.35 116.30625 L 177.509375 120.7 L 182.66875 124.6375 L 187.828125 128.08125 L 192.9875 130.996875 L 198.14375 133.353125 L 203.303125 135.128125 L 208.4625 136.303125 L 213.621875 136.86875 L 218.778125 136.81875 L 223.9375 136.15 L 229.096875 134.871875 L 234.25625 132.996875 L 239.415625 130.54375 L 244.571875 127.540625 L 249.73125 124.009375 L 254.890625 119.99375 L 260.05 115.528125 L 265.209375 110.659375 L 270.365625 105.434375 L 275.525 99.909375 L 280.684375 94.134375 L 285.84375 88.171875 L 291 82.078125 L 296.159375 75.915625 L 301.31875 69.74375 L 306.478125 63.628125 L 311.6375 57.628125 L 316.79375 51.8 L 321.953125 46.209375 L 327.1125 40.90625 L 332.271875 35.94375 L 337.43125 31.375 L 342.5875 27.240625 L 347.746875 23.5875 L 352.90625 20.45 L 358.065625 17.85625 " transform="matrix(1.25,0,0,1.25,0,0.000000000000014211)"/>
<path style="fill:none;stroke-width:0.8;stroke-linecap:square;stroke-linejoin:miter;stroke:rgb(0%,0%,0%);stroke-opacity:1;stroke-miterlimit:4;" d="M 38.484375 143.1 L 38.484375 7.2 " transform="matrix(1.25,0,0,1.25,0,0.000000000000014211)"/>
<path style="fill:none;stroke-width:0.8;stroke-linecap:square;stroke-linejoin:miter;stroke:rgb(0%,0%,0%);stroke-opacity:1;stroke-miterlimit:4;" d="M 373.284375 143.1 L 373.284375 7.2 " transform="matrix(1.25,0,0,1.25,0,0.000000000000014211)"/>
<path style="fill:none;stroke-width:0.8;stroke-linecap:square;stroke-linejoin:miter;stroke:rgb(0%,0%,0%);stroke-opacity:1;stroke-miterlimit:4;" d="M 38.484375 143.1 L 373.28125 143.1 " transform="matrix(1.25,0,0,1.25,0,0.000000000000014211)"/>
<path style="fill:none;stroke-width:0.8;stroke-linecap:square;stroke-linejoin:miter;stroke:rgb(0%,0%,0%);stroke-opacity:1;stroke-miterlimit:4;" d="M 38.484375 7.2 L 373.28125 7.2 " transform="matrix(1.25,0,0,1.25,0,0.000000000000014211)"/>
<use xlink:href="#surface5" mask="url(#mask0)"/>
<path style="fill:none;stroke-width:1.5;stroke-linecap:square;stroke-linejoin:round;stroke:rgb(12.156863%,46.666667%,70.588235%);stroke-opacity:1;stroke-miterlimit:4;" d="M 47.484375 84.484375 L 67.48125 84.484375 " transform="matrix(1.25,0,0,1.25,0,0.000000000000014211)"/>
<path style=" stroke:none;fill-rule:nonzero;fill:rgb(0%,0%,0%);fill-opacity:1;" d="M 102.402344 101.570312 L 102.402344 102.871094 C 101.988281 102.484375 101.546875 102.195312 101.074219 102.003906 C 100.605469 101.8125 100.105469 101.71875 99.578125 101.71875 C 98.535156 101.71875 97.738281 102.035156 97.183594 102.671875 C 96.632812 103.308594 96.355469 104.230469 96.355469 105.433594 C 96.355469 106.636719 96.632812 107.554688 97.183594 108.191406 C 97.738281 108.828125 98.535156 109.144531 99.578125 109.144531 C 100.105469 109.144531 100.605469 109.050781 101.074219 108.859375 C 101.546875 108.667969 101.988281 108.378906 102.402344 107.992188 L 102.402344 109.28125 C 101.972656 109.574219 101.515625 109.792969 101.03125 109.941406 C 100.550781 110.085938 100.042969 110.160156 99.503906 110.160156 C 98.125 110.160156 97.039062 109.738281 96.242188 108.894531 C 95.449219 108.050781 95.054688 106.894531 95.054688 105.433594 C 95.054688 103.96875 95.449219 102.816406 96.242188 101.972656 C 97.039062 101.128906 98.125 100.703125 99.503906 100.703125 C 100.050781 100.703125 100.5625 100.777344 101.042969 100.921875 C 101.527344 101.066406 101.980469 101.28125 102.402344 101.570312 Z M 102.402344 101.570312 "/>
<path style=" stroke:none;fill-rule:nonzero;fill:rgb(0%,0%,0%);fill-opacity:1;" d="M 106.90625 103.933594 C 106.304688 103.933594 105.832031 104.167969 105.480469 104.636719 C 105.128906 105.109375 104.953125 105.753906 104.953125 106.570312 C 104.953125 107.386719 105.128906 108.03125 105.476562 108.5 C 105.824219 108.972656 106.300781 109.207031 106.90625 109.207031 C 107.507812 109.207031 107.980469 108.972656 108.328125 108.5 C 108.679688 108.027344 108.855469 107.382812 108.855469 106.570312 C 108.855469 105.761719 108.679688 105.117188 108.328125 104.644531 C 107.980469 104.171875 107.507812 103.933594 106.90625 103.933594 Z M 106.90625 102.980469 C 107.882812 102.980469 108.652344 103.300781 109.207031 103.933594 C 109.765625 104.570312 110.046875 105.449219 110.046875 106.570312 C 110.046875 107.6875 109.765625 108.566406 109.207031 109.203125 C 108.652344 109.839844 107.882812 110.160156 106.90625 110.160156 C 105.925781 110.160156 105.160156 109.839844 104.601562 109.203125 C 104.046875 108.566406 103.769531 107.6875 103.769531 106.570312 C 103.769531 105.449219 104.046875 104.570312 104.601562 103.933594 C 105.160156 103.300781 105.925781 102.980469 106.90625 102.980469 Z M 106.90625 102.980469 "/>
<path style=" stroke:none;fill-rule:nonzero;fill:rgb(0%,0%,0%);fill-opacity:1;" d="M 111.90625 100.484375 L 113.03125 100.484375 L 113.03125 109.980469 L 111.90625 109.980469 Z M 111.90625 100.484375 "/>
<path style=" stroke:none;fill-rule:nonzero;fill:rgb(0%,0%,0%);fill-opacity:1;" d="M 122.300781 104.933594 C 121.75 104.933594 121.308594 105.125 120.984375 105.503906 C 120.664062 105.882812 120.5 106.398438 120.5 107.058594 C 120.5 107.714844 120.664062 108.230469 120.984375 108.613281 C 121.308594 108.992188 121.75 109.183594 122.300781 109.183594 C 122.855469 109.183594 123.292969 108.992188 123.617188 108.613281 C 123.941406 108.230469 124.101562 107.714844 124.101562 107.058594 C 124.101562 106.398438 123.941406 105.882812 123.617188 105.503906 C 123.292969 105.125 122.855469 104.933594 122.300781 104.933594 Z M 124.75 101.070312 L 124.75 102.191406 C 124.441406 102.046875 124.128906 101.9375 123.8125 101.859375 C 123.496094 101.78125 123.183594 101.742188 122.875 101.742188 C 122.0625 101.742188 121.4375 102.015625 121.007812 102.566406 C 120.582031 103.117188 120.335938 103.945312 120.273438 105.054688 C 120.515625 104.703125 120.816406 104.429688 121.175781 104.242188 C 121.539062 104.054688 121.941406 103.957031 122.375 103.957031 C 123.289062 103.957031 124.011719 104.238281 124.542969 104.792969 C 125.074219 105.347656 125.339844 106.101562 125.339844 107.058594 C 125.339844 107.996094 125.066406 108.746094 124.511719 109.3125 C 123.957031 109.878906 123.222656 110.160156 122.300781 110.160156 C 121.246094 110.160156 120.441406 109.757812 119.882812 108.949219 C 119.328125 108.140625 119.046875 106.96875 119.046875 105.433594 C 119.046875 103.996094 119.390625 102.847656 120.074219 101.988281 C 120.757812 101.132812 121.675781 100.703125 122.824219 100.703125 C 123.136719 100.703125 123.449219 100.734375 123.761719 100.796875 C 124.078125 100.859375 124.40625 100.949219 124.75 101.070312 Z M 124.75 101.070312 "/>
<path style="fill:none;stroke-width:1.5;stroke-linecap:butt;stroke-linejoin:round;stroke:rgb(74.901961%,0%,74.901961%);stroke-opacity:1;stroke-dasharray:5.55,2.4;stroke-miterlimit:4;" d="M 47.484375 99.1625 L 67.48125 99.1625 " transform="matrix(1.25,0,0,1.25,0,0.000000000000014211)"/>
<path style=" stroke:none;fill-rule:nonzero;fill:rgb(0%,0%,0%);fill-opacity:1;" d="M 102.402344 119.917969 L 102.402344 121.21875 C 101.988281 120.832031 101.546875 120.542969 101.074219 120.351562 C 100.605469 120.160156 100.105469 120.066406 99.578125 120.066406 C 98.535156 120.066406 97.738281 120.382812 97.183594 121.019531 C 96.632812 121.65625 96.355469 122.578125 96.355469 123.78125 C 96.355469 124.984375 96.632812 125.902344 97.183594 126.539062 C 97.738281 127.175781 98.535156 127.492188 99.578125 127.492188 C 100.105469 127.492188 100.605469 127.398438 101.074219 127.207031 C 101.546875 127.015625 101.988281 126.726562 102.402344 126.339844 L 102.402344 127.628906 C 101.972656 127.921875 101.515625 128.140625 101.03125 128.289062 C 100.550781 128.433594 100.042969 128.507812 99.503906 128.507812 C 98.125 128.507812 97.039062 128.085938 96.242188 127.242188 C 95.449219 126.398438 95.054688 125.242188 95.054688 123.78125 C 95.054688 122.316406 95.449219 121.164062 96.242188 120.320312 C 97.039062 119.476562 98.125 119.050781 99.503906 119.050781 C 100.050781 119.050781 100.5625 119.125 101.042969 119.269531 C 101.527344 119.414062 101.980469 119.628906 102.402344 119.917969 Z M 102.402344 119.917969 "/>
<path style=" stroke:none;fill-rule:nonzero;fill:rgb(0%,0%,0%);fill-opacity:1;" d="M 106.90625 122.28125 C 106.304688 122.28125 105.832031 122.515625 105.480469 122.984375 C 105.128906 123.457031 104.953125 124.101562 104.953125 124.917969 C 104.953125 125.734375 105.128906 126.378906 105.476562 126.847656 C 105.824219 127.320312 106.300781 127.554688 106.90625 127.554688 C 107.507812 127.554688 107.980469 127.320312 108.328125 126.847656 C 108.679688 126.375 108.855469 125.730469 108.855469 124.917969 C 108.855469 124.109375 108.679688 123.464844 108.328125 122.992188 C 107.980469 122.519531 107.507812 122.28125 106.90625 122.28125 Z M 106.90625 121.328125 C 107.882812 121.328125 108.652344 121.648438 109.207031 122.28125 C 109.765625 122.917969 110.046875 123.796875 110.046875 124.917969 C 110.046875 126.035156 109.765625 126.914062 109.207031 127.550781 C 108.652344 128.1875 107.882812 128.507812 106.90625 128.507812 C 105.925781 128.507812 105.160156 128.1875 104.601562 127.550781 C 104.046875 126.914062 103.769531 126.035156 103.769531 124.917969 C 103.769531 123.796875 104.046875 122.917969 104.601562 122.28125 C 105.160156 121.648438 105.925781 121.328125 106.90625 121.328125 Z M 106.90625 121.328125 "/>
<path style=" stroke:none;fill-rule:nonzero;fill:rgb(0%,0%,0%);fill-opacity:1;" d="M 111.90625 118.832031 L 113.03125 118.832031 L 113.03125 128.328125 L 111.90625 128.328125 Z M 111.90625 118.832031 "/>
<path style=" stroke:none;fill-rule:nonzero;fill:rgb(0%,0%,0%);fill-opacity:1;" d="M 119.199219 119.214844 L 125.058594 119.214844 L 125.058594 119.742188 L 121.75 128.328125 L 120.464844 128.328125 L 123.578125 120.253906 L 119.199219 120.253906 Z M 119.199219 119.214844 "/>
<path style="fill:none;stroke-width:1.5;stroke-linecap:butt;stroke-linejoin:round;stroke:rgb(0%,50.196078%,0%);stroke-opacity:1;stroke-dasharray:9.6,2.4,1.5,2.4;stroke-miterlimit:4;" d="M 47.484375 113.840625 L 67.48125 113.840625 " transform="matrix(1.25,0,0,1.25,0,0.000000000000014211)"/>
<path style=" stroke:none;fill-rule:nonzero;fill:rgb(0%,0%,0%);fill-opacity:1;" d="M 102.402344 138.265625 L 102.402344 139.566406 C 101.988281 139.179688 101.546875 138.890625 101.074219 138.699219 C 100.605469 138.507812 100.105469 138.414062 99.578125 138.414062 C 98.535156 138.414062 97.738281 138.730469 97.183594 139.367188 C 96.632812 140.003906 96.355469 140.925781 96.355469 142.128906 C 96.355469 143.332031 96.632812 144.25 97.183594 144.886719 C 97.738281 145.523438 98.535156 145.839844 99.578125 145.839844 C 100.105469 145.839844 100.605469 145.746094 101.074219 145.554688 C 101.546875 145.363281 101.988281 145.074219 102.402344 144.6875 L 102.402344 145.976562 C 101.972656 146.269531 101.515625 146.488281 101.03125 146.636719 C 100.550781 146.78125 100.042969 146.855469 99.503906 146.855469 C 98.125 146.855469 97.039062 146.433594 96.242188 145.589844 C 95.449219 144.746094 95.054688 143.589844 95.054688 142.128906 C 95.054688 140.664062 95.449219 139.511719 96.242188 138.667969 C 97.039062 137.824219 98.125 137.398438 99.503906 137.398438 C 100.050781 137.398438 100.5625 137.472656 101.042969 137.617188 C 101.527344 137.761719 101.980469 137.976562 102.402344 138.265625 Z M 102.402344 138.265625 "/>
<path style=" stroke:none;fill-rule:nonzero;fill:rgb(0%,0%,0%);fill-opacity:1;" d="M 106.90625 140.628906 C 106.304688 140.628906 105.832031 140.863281 105.480469 141.332031 C 105.128906 141.804688 104.953125 142.449219 104.953125 143.265625 C 104.953125 144.082031 105.128906 144.726562 105.476562 145.195312 C 105.824219 145.667969 106.300781 145.902344 106.90625 145.902344 C 107.507812 145.902344 107.980469 145.667969 108.328125 145.195312 C 108.679688 144.722656 108.855469 144.078125 108.855469 143.265625 C 108.855469 142.457031 108.679688 141.8125 108.328125 141.339844 C 107.980469 140.867188 107.507812 140.628906 106.90625 140.628906 Z M 106.90625 139.675781 C 107.882812 139.675781 108.652344 139.996094 109.207031 140.628906 C 109.765625 141.265625 110.046875 142.144531 110.046875 143.265625 C 110.046875 144.382812 109.765625 145.261719 109.207031 145.898438 C 108.652344 146.535156 107.882812 146.855469 106.90625 146.855469 C 105.925781 146.855469 105.160156 146.535156 104.601562 145.898438 C 104.046875 145.261719 103.769531 144.382812 103.769531 143.265625 C 103.769531 142.144531 104.046875 141.265625 104.601562 140.628906 C 105.160156 139.996094 105.925781 139.675781 106.90625 139.675781 Z M 106.90625 139.675781 "/>
<path style=" stroke:none;fill-rule:nonzero;fill:rgb(0%,0%,0%);fill-opacity:1;" d="M 111.90625 137.179688 L 113.03125 137.179688 L 113.03125 146.675781 L 111.90625 146.675781 Z M 111.90625 137.179688 "/>
<path style=" stroke:none;fill-rule:nonzero;fill:rgb(0%,0%,0%);fill-opacity:1;" d="M 122.148438 142.347656 C 121.5625 142.347656 121.101562 142.507812 120.765625 142.820312 C 120.429688 143.132812 120.261719 143.566406 120.261719 144.113281 C 120.261719 144.664062 120.429688 145.09375 120.765625 145.40625 C 121.101562 145.722656 121.5625 145.878906 122.148438 145.878906 C 122.734375 145.878906 123.195312 145.722656 123.53125 145.40625 C 123.871094 145.089844 124.039062 144.660156 124.039062 144.113281 C 124.039062 143.566406 123.871094 143.132812 123.535156 142.820312 C 123.203125 142.507812 122.738281 142.347656 122.148438 142.347656 Z M 120.914062 141.824219 C 120.386719 141.695312 119.976562 141.449219 119.679688 141.085938 C 119.386719 140.722656 119.238281 140.28125 119.238281 139.761719 C 119.238281 139.035156 119.496094 138.457031 120.015625 138.035156 C 120.535156 137.613281 121.246094 137.398438 122.148438 137.398438 C 123.054688 137.398438 123.769531 137.613281 124.285156 138.035156 C 124.800781 138.457031 125.058594 139.035156 125.058594 139.761719 C 125.058594 140.28125 124.914062 140.722656 124.617188 141.085938 C 124.324219 141.449219 123.914062 141.695312 123.386719 141.824219 C 123.980469 141.964844 124.445312 142.234375 124.773438 142.636719 C 125.105469 143.039062 125.273438 143.53125 125.273438 144.113281 C 125.273438 144.996094 125.003906 145.675781 124.464844 146.148438 C 123.925781 146.621094 123.152344 146.855469 122.148438 146.855469 C 121.144531 146.855469 120.371094 146.621094 119.832031 146.148438 C 119.292969 145.675781 119.023438 144.996094 119.023438 144.113281 C 119.023438 143.53125 119.191406 143.039062 119.523438 142.636719 C 119.859375 142.234375 120.320312 141.964844 120.914062 141.824219 Z M 120.464844 139.878906 C 120.464844 140.351562 120.613281 140.71875 120.90625 140.980469 C 121.203125 141.246094 121.617188 141.378906 122.148438 141.378906 C 122.679688 141.378906 123.09375 141.246094 123.390625 140.980469 C 123.691406 140.71875 123.839844 140.351562 123.839844 139.878906 C 123.839844 139.40625 123.691406 139.039062 123.390625 138.773438 C 123.09375 138.507812 122.679688 138.375 122.148438 138.375 C 121.617188 138.375 121.203125 138.507812 120.90625 138.773438 C 120.613281 139.039062 120.464844 139.40625 120.464844 139.878906 Z M 120.464844 139.878906 "/>
<path style="fill:none;stroke-width:1.5;stroke-linecap:butt;stroke-linejoin:round;stroke:rgb(100%,0%,0%);stroke-opacity:1;stroke-dasharray:1.5,2.475;stroke-miterlimit:4;" d="M 47.484375 128.51875 L 67.48125 128.51875 " transform="matrix(1.25,0,0,1.25,0,0.000000000000014211)"/>
<path style=" stroke:none;fill-rule:nonzero;fill:rgb(0%,0%,0%);fill-opacity:1;" d="M 102.402344 156.613281 L 102.402344 157.914062 C 101.988281 157.527344 101.546875 157.238281 101.074219 157.046875 C 100.605469 156.855469 100.105469 156.761719 99.578125 156.761719 C 98.535156 156.761719 97.738281 157.078125 97.183594 157.714844 C 96.632812 158.351562 96.355469 159.273438 96.355469 160.476562 C 96.355469 161.679688 96.632812 162.597656 97.183594 163.234375 C 97.738281 163.871094 98.535156 164.1875 99.578125 164.1875 C 100.105469 164.1875 100.605469 164.09375 101.074219 163.902344 C 101.546875 163.710938 101.988281 163.421875 102.402344 163.035156 L 102.402344 164.324219 C 101.972656 164.617188 101.515625 164.835938 101.03125 164.984375 C 100.550781 165.128906 100.042969 165.203125 99.503906 165.203125 C 98.125 165.203125 97.039062 164.78125 96.242188 163.9375 C 95.449219 163.09375 95.054688 161.9375 95.054688 160.476562 C 95.054688 159.011719 95.449219 157.859375 96.242188 157.015625 C 97.039062 156.171875 98.125 155.746094 99.503906 155.746094 C 100.050781 155.746094 100.5625 155.820312 101.042969 155.964844 C 101.527344 156.109375 101.980469 156.324219 102.402344 156.613281 Z M 102.402344 156.613281 "/>
<path style=" stroke:none;fill-rule:nonzero;fill:rgb(0%,0%,0%);fill-opacity:1;" d="M 106.90625 158.976562 C 106.304688 158.976562 105.832031 159.210938 105.480469 159.679688 C 105.128906 160.152344 104.953125 160.796875 104.953125 161.613281 C 104.953125 162.429688 105.128906 163.074219 105.476562 163.542969 C 105.824219 164.015625 106.300781 164.25 106.90625 164.25 C 107.507812 164.25 107.980469 164.015625 108.328125 163.542969 C 108.679688 163.070312 108.855469 162.425781 108.855469 161.613281 C 108.855469 160.804688 108.679688 160.160156 108.328125 159.6875 C 107.980469 159.214844 107.507812 158.976562 106.90625 158.976562 Z M 106.90625 158.023438 C 107.882812 158.023438 108.652344 158.34375 109.207031 158.976562 C 109.765625 159.613281 110.046875 160.492188 110.046875 161.613281 C 110.046875 162.730469 109.765625 163.609375 109.207031 164.246094 C 108.652344 164.882812 107.882812 165.203125 106.90625 165.203125 C 105.925781 165.203125 105.160156 164.882812 104.601562 164.246094 C 104.046875 163.609375 103.769531 162.730469 103.769531 161.613281 C 103.769531 160.492188 104.046875 159.613281 104.601562 158.976562 C 105.160156 158.34375 105.925781 158.023438 106.90625 158.023438 Z M 106.90625 158.023438 "/>
<path style=" stroke:none;fill-rule:nonzero;fill:rgb(0%,0%,0%);fill-opacity:1;" d="M 111.90625 155.527344 L 113.03125 155.527344 L 113.03125 165.023438 L 111.90625 165.023438 Z M 111.90625 155.527344 "/>
<path style=" stroke:none;fill-rule:nonzero;fill:rgb(0%,0%,0%);fill-opacity:1;" d="M 119.546875 164.835938 L 119.546875 163.710938 C 119.859375 163.859375 120.171875 163.972656 120.488281 164.046875 C 120.804688 164.125 121.117188 164.164062 121.421875 164.164062 C 122.238281 164.164062 122.859375 163.890625 123.285156 163.34375 C 123.714844 162.796875 123.960938 161.964844 124.023438 160.847656 C 123.789062 161.199219 123.488281 161.46875 123.125 161.65625 C 122.761719 161.84375 122.363281 161.9375 121.921875 161.9375 C 121.011719 161.9375 120.289062 161.660156 119.757812 161.109375 C 119.226562 160.558594 118.960938 159.804688 118.960938 158.847656 C 118.960938 157.914062 119.238281 157.164062 119.792969 156.597656 C 120.347656 156.03125 121.082031 155.746094 122 155.746094 C 123.054688 155.746094 123.859375 156.152344 124.414062 156.960938 C 124.972656 157.769531 125.25 158.941406 125.25 160.476562 C 125.25 161.914062 124.910156 163.0625 124.226562 163.917969 C 123.546875 164.773438 122.628906 165.203125 121.476562 165.203125 C 121.167969 165.203125 120.855469 165.171875 120.535156 165.109375 C 120.21875 165.050781 119.890625 164.957031 119.546875 164.835938 Z M 122 160.972656 C 122.554688 160.972656 122.992188 160.785156 123.316406 160.40625 C 123.640625 160.027344 123.800781 159.507812 123.800781 158.847656 C 123.800781 158.191406 123.640625 157.675781 123.316406 157.292969 C 122.992188 156.914062 122.554688 156.722656 122 156.722656 C 121.449219 156.722656 121.011719 156.914062 120.6875 157.292969 C 120.363281 157.675781 120.203125 158.191406 120.203125 158.847656 C 120.203125 159.507812 120.363281 160.027344 120.6875 160.40625 C 121.011719 160.785156 121.449219 160.972656 122 160.972656 Z M 122 160.972656 "/>
</g>
</svg>
