<?xml version="1.0" encoding="UTF-8"?>
<svg xmlns="http://www.w3.org/2000/svg" xmlns:xlink="http://www.w3.org/1999/xlink" width="310pt" height="231pt" viewBox="0 0 310 231" version="1.1">
<defs>
<clipPath id="clip1">
  <path d="M 53.273438 13.75 L 54 13.75 L 54 183.625 L 53.273438 183.625 Z M 53.273438 13.75 "/>
</clipPath>
<clipPath id="clip2">
  <path d="M 101 13.75 L 103 13.75 L 103 183.625 L 101 183.625 Z M 101 13.75 "/>
</clipPath>
<clipPath id="clip3">
  <path d="M 150 13.75 L 152 13.75 L 152 183.625 L 150 183.625 Z M 150 13.75 "/>
</clipPath>
<clipPath id="clip4">
  <path d="M 199 13.75 L 201 13.75 L 201 183.625 L 199 183.625 Z M 199 13.75 "/>
</clipPath>
<clipPath id="clip5">
  <path d="M 247 13.75 L 250 13.75 L 250 183.625 L 247 183.625 Z M 247 13.75 "/>
</clipPath>
<clipPath id="clip6">
  <path d="M 296 13.75 L 297.398438 13.75 L 297.398438 183.625 L 296 183.625 Z M 296 13.75 "/>
</clipPath>
<clipPath id="clip7">
  <path d="M 53.273438 182 L 297.398438 182 L 297.398438 183.625 L 53.273438 183.625 Z M 53.273438 182 "/>
</clipPath>
<clipPath id="clip8">
  <path d="M 53.273438 154 L 297.398438 154 L 297.398438 157 L 53.273438 157 Z M 53.273438 154 "/>
</clipPath>
<clipPath id="clip9">
  <path d="M 53.273438 126 L 297.398438 126 L 297.398438 128 L 53.273438 128 Z M 53.273438 126 "/>
</clipPath>
<clipPath id="clip10">
  <path d="M 53.273438 97 L 297.398438 97 L 297.398438 100 L 53.273438 100 Z M 53.273438 97 "/>
</clipPath>
<clipPath id="clip11">
  <path d="M 53.273438 69 L 297.398438 69 L 297.398438 72 L 53.273438 72 Z M 53.273438 69 "/>
</clipPath>
<clipPath id="clip12">
  <path d="M 53.273438 41 L 297.398438 41 L 297.398438 43 L 53.273438 43 Z M 53.273438 41 "/>
</clipPath>
<clipPath id="clip13">
  <path d="M 53.273438 13.75 L 297.398438 13.75 L 297.398438 15 L 53.273438 15 Z M 53.273438 13.75 "/>
</clipPath>
<clipPath id="clip14">
  <path d="M 53.273438 53 L 294 53 L 294 157 L 53.273438 157 Z M 53.273438 53 "/>
</clipPath>
<clipPath id="clip15">
  <path d="M 53.273438 76 L 294 76 L 294 109 L 53.273438 109 Z M 53.273438 76 "/>
</clipPath>
<clipPath id="clip16">
  <path d="M 53.273438 153 L 60 153 L 60 162 L 53.273438 162 Z M 53.273438 153 "/>
</clipPath>
<clipPath id="clip17">
  <path d="M 53.273438 153 L 61 153 L 61 162 L 53.273438 162 Z M 53.273438 153 "/>
</clipPath>
<clipPath id="clip18">
  <path d="M 291 110 L 297.398438 110 L 297.398438 118 L 291 118 Z M 291 110 "/>
</clipPath>
<clipPath id="clip19">
  <path d="M 290 109 L 297.398438 109 L 297.398438 119 L 290 119 Z M 290 109 "/>
</clipPath>
<clipPath id="clip20">
  <path d="M 292 91 L 297.398438 91 L 297.398438 100 L 292 100 Z M 292 91 "/>
</clipPath>
<clipPath id="clip21">
  <path d="M 292 91 L 297.398438 91 L 297.398438 101 L 292 101 Z M 292 91 "/>
</clipPath>
<filter id="alpha" filterUnits="objectBoundingBox" x="0%" y="0%" width="100%" height="100%">
  <feColorMatrix type="matrix" in="SourceGraphic" values="0 0 0 0 1 0 0 0 0 1 0 0 0 0 1 0 0 0 1 0"/>
</filter>
<mask id="mask0">
  <g filter="url(#alpha)">
<rect x="0" y="0" width="310" height="231" style="fill:rgb(0%,0%,0%);fill-opacity:0.8;stroke:none;"/>
  </g>
</mask>
<clipPath id="clip22">
  <rect x="0" y="0" width="310" height="231"/>
</clipPath>
<g id="surface5" clip-path="url(#clip22)">
<path style="fill-rule:nonzero;fill:rgb(100%,100%,100%);fill-opacity:1;stroke-width:1;stroke-linecap:butt;stroke-linejoin:miter;stroke:rgb(80%,80%,80%);stroke-opacity:1;stroke-miterlimit:4;" d="M 173.58125 48.35625 L 230.921875 48.35625 C 232.253125 48.35625 232.921875 47.6875 232.921875 46.35625 L 232.921875 18 C 232.921875 16.665625 232.253125 16 230.921875 16 L 173.58125 16 C 172.246875 16 171.58125 16.665625 171.58125 18 L 171.58125 46.35625 C 171.58125 47.6875 172.246875 48.35625 173.58125 48.35625 Z M 173.58125 48.35625 " transform="matrix(1.25,0,0,1.25,0,0)"/>
</g>
</defs>
<g id="surface1">
<path style=" stroke:none;fill-rule:nonzero;fill:rgb(100%,100%,100%);fill-opacity:1;" d="M 53.273438 183.625 L 297.402344 183.625 L 297.402344 13.75 L 53.273438 13.75 Z M 53.273438 183.625 "/>
<g clip-path="url(#clip1)" clip-rule="nonzero">
<path style="fill:none;stroke-width:0.8;stroke-linecap:square;stroke-linejoin:round;stroke:rgb(69.019608%,69.019608%,69.019608%);stroke-opacity:1;stroke-miterlimit:4;" d="M 42.61875 146.9 L 42.61875 11 " transform="matrix(1.25,0,0,1.25,0,0)"/>
</g>
<path style="fill:none;stroke-width:0.8;stroke-linecap:butt;stroke-linejoin:round;stroke:rgb(0%,0%,0%);stroke-opacity:1;stroke-miterlimit:4;" d="M -0.001562 0.000781 L -0.001562 3.500781 " transform="matrix(1.25,0,0,1.25,53.27539,183.624024)"/>
<path style=" stroke:none;fill-rule:nonzero;fill:rgb(0%,0%,0%);fill-opacity:1;" d="M 53.269531 193.570312 C 52.636719 193.570312 52.160156 193.882812 51.839844 194.507812 C 51.519531 195.132812 51.359375 196.070312 51.359375 197.324219 C 51.359375 198.574219 51.519531 199.511719 51.839844 200.136719 C 52.160156 200.761719 52.636719 201.074219 53.269531 201.074219 C 53.910156 201.074219 54.390625 200.761719 54.707031 200.136719 C 55.027344 199.511719 55.1875 198.574219 55.1875 197.324219 C 55.1875 196.070312 55.027344 195.132812 54.707031 194.507812 C 54.390625 193.882812 53.910156 193.570312 53.269531 193.570312 Z M 53.269531 192.59375 C 54.292969 192.59375 55.074219 193 55.613281 193.808594 C 56.152344 194.613281 56.421875 195.789062 56.421875 197.324219 C 56.421875 198.859375 56.152344 200.03125 55.613281 200.839844 C 55.074219 201.644531 54.292969 202.050781 53.269531 202.050781 C 52.25 202.050781 51.46875 201.644531 50.929688 200.839844 C 50.390625 200.03125 50.121094 198.859375 50.121094 197.324219 C 50.121094 195.789062 50.390625 194.613281 50.929688 193.808594 C 51.46875 193 52.25 192.59375 53.269531 192.59375 Z M 53.269531 192.59375 "/>
<g clip-path="url(#clip2)" clip-rule="nonzero">
<path style="fill:none;stroke-width:0.8;stroke-linecap:square;stroke-linejoin:round;stroke:rgb(69.019608%,69.019608%,69.019608%);stroke-opacity:1;stroke-miterlimit:4;" d="M 81.68125 146.9 L 81.68125 11 " transform="matrix(1.25,0,0,1.25,0,0)"/>
</g>
<path style="fill:none;stroke-width:0.8;stroke-linecap:butt;stroke-linejoin:round;stroke:rgb(0%,0%,0%);stroke-opacity:1;stroke-miterlimit:4;" d="M 0.000938 0.000781 L 0.000938 3.500781 " transform="matrix(1.25,0,0,1.25,102.10039,183.624024)"/>
<path style=" stroke:none;fill-rule:nonzero;fill:rgb(0%,0%,0%);fill-opacity:1;" d="M 99.675781 200.835938 L 101.6875 200.835938 L 101.6875 193.882812 L 99.496094 194.320312 L 99.496094 193.199219 L 101.675781 192.757812 L 102.910156 192.757812 L 102.910156 200.835938 L 104.921875 200.835938 L 104.921875 201.871094 L 99.675781 201.871094 Z M 99.675781 200.835938 "/>
<g clip-path="url(#clip3)" clip-rule="nonzero">
<path style="fill:none;stroke-width:0.8;stroke-linecap:square;stroke-linejoin:round;stroke:rgb(69.019608%,69.019608%,69.019608%);stroke-opacity:1;stroke-miterlimit:4;" d="M 120.740625 146.9 L 120.740625 11 " transform="matrix(1.25,0,0,1.25,0,0)"/>
</g>
<path style="fill:none;stroke-width:0.8;stroke-linecap:butt;stroke-linejoin:round;stroke:rgb(0%,0%,0%);stroke-opacity:1;stroke-miterlimit:4;" d="M 0.000312 0.000781 L 0.000312 3.500781 " transform="matrix(1.25,0,0,1.25,150.925391,183.624024)"/>
<path style=" stroke:none;fill-rule:nonzero;fill:rgb(0%,0%,0%);fill-opacity:1;" d="M 149.347656 200.835938 L 153.648438 200.835938 L 153.648438 201.871094 L 147.863281 201.871094 L 147.863281 200.835938 C 148.332031 200.351562 148.96875 199.699219 149.777344 198.886719 C 150.585938 198.070312 151.09375 197.542969 151.300781 197.304688 C 151.695312 196.863281 151.96875 196.488281 152.125 196.179688 C 152.285156 195.875 152.363281 195.570312 152.363281 195.273438 C 152.363281 194.789062 152.191406 194.394531 151.851562 194.089844 C 151.511719 193.785156 151.070312 193.632812 150.523438 193.632812 C 150.136719 193.632812 149.730469 193.699219 149.300781 193.832031 C 148.871094 193.96875 148.414062 194.171875 147.925781 194.445312 L 147.925781 193.199219 C 148.421875 193 148.886719 192.847656 149.316406 192.746094 C 149.75 192.644531 150.144531 192.59375 150.5 192.59375 C 151.445312 192.59375 152.199219 192.832031 152.757812 193.304688 C 153.320312 193.773438 153.601562 194.40625 153.601562 195.195312 C 153.601562 195.570312 153.53125 195.925781 153.390625 196.261719 C 153.25 196.59375 152.996094 196.992188 152.625 197.445312 C 152.523438 197.566406 152.199219 197.90625 151.652344 198.46875 C 151.109375 199.035156 150.339844 199.820312 149.347656 200.835938 Z M 149.347656 200.835938 "/>
<g clip-path="url(#clip4)" clip-rule="nonzero">
<path style="fill:none;stroke-width:0.8;stroke-linecap:square;stroke-linejoin:round;stroke:rgb(69.019608%,69.019608%,69.019608%);stroke-opacity:1;stroke-miterlimit:4;" d="M 159.8 146.9 L 159.8 11 " transform="matrix(1.25,0,0,1.25,0,0)"/>
</g>
<path style="fill:none;stroke-width:0.8;stroke-linecap:butt;stroke-linejoin:round;stroke:rgb(0%,0%,0%);stroke-opacity:1;stroke-miterlimit:4;" d="M -0.000313 0.000781 L -0.000313 3.500781 " transform="matrix(1.25,0,0,1.25,199.750391,183.624024)"/>
<path style=" stroke:none;fill-rule:nonzero;fill:rgb(0%,0%,0%);fill-opacity:1;" d="M 200.847656 196.957031 C 201.4375 197.085938 201.894531 197.347656 202.226562 197.746094 C 202.558594 198.144531 202.726562 198.636719 202.726562 199.222656 C 202.726562 200.121094 202.414062 200.816406 201.796875 201.3125 C 201.179688 201.804688 200.300781 202.050781 199.160156 202.050781 C 198.777344 202.050781 198.386719 202.011719 197.980469 201.9375 C 197.574219 201.859375 197.15625 201.746094 196.726562 201.597656 L 196.726562 200.40625 C 197.066406 200.605469 197.441406 200.757812 197.847656 200.859375 C 198.253906 200.960938 198.679688 201.011719 199.125 201.011719 C 199.898438 201.011719 200.484375 200.859375 200.890625 200.554688 C 201.296875 200.25 201.5 199.804688 201.5 199.222656 C 201.5 198.6875 201.308594 198.265625 200.933594 197.964844 C 200.558594 197.660156 200.035156 197.507812 199.363281 197.507812 L 198.300781 197.507812 L 198.300781 196.496094 L 199.414062 196.496094 C 200.019531 196.496094 200.480469 196.375 200.804688 196.132812 C 201.125 195.890625 201.285156 195.539062 201.285156 195.085938 C 201.285156 194.617188 201.121094 194.257812 200.789062 194.007812 C 200.457031 193.757812 199.980469 193.632812 199.363281 193.632812 C 199.023438 193.632812 198.664062 193.667969 198.277344 193.742188 C 197.890625 193.816406 197.464844 193.929688 197 194.082031 L 197 192.984375 C 197.46875 192.855469 197.90625 192.757812 198.316406 192.691406 C 198.726562 192.628906 199.109375 192.59375 199.472656 192.59375 C 200.410156 192.59375 201.148438 192.808594 201.695312 193.234375 C 202.238281 193.65625 202.511719 194.230469 202.511719 194.957031 C 202.511719 195.460938 202.367188 195.886719 202.078125 196.234375 C 201.789062 196.582031 201.378906 196.824219 200.847656 196.957031 Z M 200.847656 196.957031 "/>
<g clip-path="url(#clip5)" clip-rule="nonzero">
<path style="fill:none;stroke-width:0.8;stroke-linecap:square;stroke-linejoin:round;stroke:rgb(69.019608%,69.019608%,69.019608%);stroke-opacity:1;stroke-miterlimit:4;" d="M 198.859375 146.9 L 198.859375 11 " transform="matrix(1.25,0,0,1.25,0,0)"/>
</g>
<path style="fill:none;stroke-width:0.8;stroke-linecap:butt;stroke-linejoin:round;stroke:rgb(0%,0%,0%);stroke-opacity:1;stroke-miterlimit:4;" d="M -0.000938 0.000781 L -0.000938 3.500781 " transform="matrix(1.25,0,0,1.25,248.575391,183.624024)"/>
<path style=" stroke:none;fill-rule:nonzero;fill:rgb(0%,0%,0%);fill-opacity:1;" d="M 249.324219 193.832031 L 246.210938 198.699219 L 249.324219 198.699219 Z M 249 192.757812 L 250.550781 192.757812 L 250.550781 198.699219 L 251.851562 198.699219 L 251.851562 199.722656 L 250.550781 199.722656 L 250.550781 201.871094 L 249.324219 201.871094 L 249.324219 199.722656 L 245.210938 199.722656 L 245.210938 198.535156 Z M 249 192.757812 "/>
<g clip-path="url(#clip6)" clip-rule="nonzero">
<path style="fill:none;stroke-width:0.8;stroke-linecap:square;stroke-linejoin:round;stroke:rgb(69.019608%,69.019608%,69.019608%);stroke-opacity:1;stroke-miterlimit:4;" d="M 237.921875 146.9 L 237.921875 11 " transform="matrix(1.25,0,0,1.25,0,0)"/>
</g>
<path style="fill:none;stroke-width:0.8;stroke-linecap:butt;stroke-linejoin:round;stroke:rgb(0%,0%,0%);stroke-opacity:1;stroke-miterlimit:4;" d="M 0.001562 0.000781 L 0.001562 3.500781 " transform="matrix(1.25,0,0,1.25,297.400391,183.624024)"/>
<path style=" stroke:none;fill-rule:nonzero;fill:rgb(0%,0%,0%);fill-opacity:1;" d="M 294.773438 192.757812 L 299.613281 192.757812 L 299.613281 193.796875 L 295.902344 193.796875 L 295.902344 196.03125 C 296.082031 195.96875 296.257812 195.921875 296.4375 195.894531 C 296.617188 195.863281 296.796875 195.847656 296.976562 195.847656 C 297.992188 195.847656 298.800781 196.128906 299.394531 196.683594 C 299.988281 197.242188 300.285156 197.996094 300.285156 198.949219 C 300.285156 199.929688 299.980469 200.691406 299.371094 201.234375 C 298.757812 201.777344 297.898438 202.050781 296.789062 202.050781 C 296.40625 202.050781 296.015625 202.015625 295.617188 201.953125 C 295.222656 201.886719 294.8125 201.789062 294.390625 201.660156 L 294.390625 200.417969 C 294.753906 200.617188 295.132812 200.765625 295.523438 200.863281 C 295.914062 200.960938 296.328125 201.011719 296.761719 201.011719 C 297.464844 201.011719 298.023438 200.824219 298.433594 200.457031 C 298.84375 200.085938 299.050781 199.582031 299.050781 198.949219 C 299.050781 198.3125 298.84375 197.8125 298.433594 197.441406 C 298.023438 197.070312 297.464844 196.886719 296.761719 196.886719 C 296.433594 196.886719 296.105469 196.921875 295.777344 196.996094 C 295.449219 197.066406 295.113281 197.183594 294.773438 197.335938 Z M 294.773438 192.757812 "/>
<path style=" stroke:none;fill-rule:nonzero;fill:rgb(0%,0%,0%);fill-opacity:1;" d="M 178.5 212.132812 L 176.027344 215.460938 L 178.625 218.96875 L 177.300781 218.96875 L 175.3125 216.285156 L 173.324219 218.96875 L 171.996094 218.96875 L 174.652344 215.394531 L 172.222656 212.132812 L 173.546875 212.132812 L 175.359375 214.570312 L 177.171875 212.132812 Z M 178.5 212.132812 "/>
<g clip-path="url(#clip7)" clip-rule="nonzero">
<path style="fill:none;stroke-width:0.8;stroke-linecap:square;stroke-linejoin:round;stroke:rgb(69.019608%,69.019608%,69.019608%);stroke-opacity:1;stroke-miterlimit:4;" d="M 42.61875 146.9 L 237.921875 146.9 " transform="matrix(1.25,0,0,1.25,0,0)"/>
</g>
<path style="fill:none;stroke-width:0.8;stroke-linecap:butt;stroke-linejoin:round;stroke:rgb(0%,0%,0%);stroke-opacity:1;stroke-miterlimit:4;" d="M -0.001562 0.000781 L -3.501562 0.000781 " transform="matrix(1.25,0,0,1.25,53.27539,183.624024)"/>
<path style=" stroke:none;fill-rule:nonzero;fill:rgb(0%,0%,0%);fill-opacity:1;" d="M 27.421875 183.933594 L 35.246094 183.933594 L 35.246094 184.972656 L 27.421875 184.972656 Z M 27.421875 183.933594 "/>
<path style=" stroke:none;fill-rule:nonzero;fill:rgb(0%,0%,0%);fill-opacity:1;" d="M 38.121094 187.335938 L 40.136719 187.335938 L 40.136719 180.382812 L 37.945312 180.820312 L 37.945312 179.699219 L 40.125 179.257812 L 41.355469 179.257812 L 41.355469 187.335938 L 43.371094 187.335938 L 43.371094 188.371094 L 38.121094 188.371094 Z M 38.121094 187.335938 "/>
<g clip-path="url(#clip8)" clip-rule="nonzero">
<path style="fill:none;stroke-width:0.8;stroke-linecap:square;stroke-linejoin:round;stroke:rgb(69.019608%,69.019608%,69.019608%);stroke-opacity:1;stroke-miterlimit:4;" d="M 42.61875 124.25 L 237.921875 124.25 " transform="matrix(1.25,0,0,1.25,0,0)"/>
</g>
<path style="fill:none;stroke-width:0.8;stroke-linecap:butt;stroke-linejoin:round;stroke:rgb(0%,0%,0%);stroke-opacity:1;stroke-miterlimit:4;" d="M -0.001562 0.000781 L -3.501562 0.000781 " transform="matrix(1.25,0,0,1.25,53.27539,155.311524)"/>
<path style=" stroke:none;fill-rule:nonzero;fill:rgb(0%,0%,0%);fill-opacity:1;" d="M 40.542969 151.757812 C 39.910156 151.757812 39.433594 152.070312 39.113281 152.695312 C 38.792969 153.320312 38.632812 154.257812 38.632812 155.511719 C 38.632812 156.761719 38.792969 157.699219 39.113281 158.324219 C 39.433594 158.949219 39.910156 159.261719 40.542969 159.261719 C 41.183594 159.261719 41.664062 158.949219 41.980469 158.324219 C 42.300781 157.699219 42.460938 156.761719 42.460938 155.511719 C 42.460938 154.257812 42.300781 153.320312 41.980469 152.695312 C 41.664062 152.070312 41.183594 151.757812 40.542969 151.757812 Z M 40.542969 150.78125 C 41.566406 150.78125 42.347656 151.1875 42.886719 151.996094 C 43.425781 152.804688 43.695312 153.976562 43.695312 155.511719 C 43.695312 157.046875 43.425781 158.21875 42.886719 159.027344 C 42.347656 159.835938 41.566406 160.238281 40.542969 160.238281 C 39.523438 160.238281 38.742188 159.835938 38.203125 159.027344 C 37.664062 158.21875 37.394531 157.046875 37.394531 155.511719 C 37.394531 153.976562 37.664062 152.804688 38.203125 151.996094 C 38.742188 151.1875 39.523438 150.78125 40.542969 150.78125 Z M 40.542969 150.78125 "/>
<g clip-path="url(#clip9)" clip-rule="nonzero">
<path style="fill:none;stroke-width:0.8;stroke-linecap:square;stroke-linejoin:round;stroke:rgb(69.019608%,69.019608%,69.019608%);stroke-opacity:1;stroke-miterlimit:4;" d="M 42.61875 101.6 L 237.921875 101.6 " transform="matrix(1.25,0,0,1.25,0,0)"/>
</g>
<path style="fill:none;stroke-width:0.8;stroke-linecap:butt;stroke-linejoin:round;stroke:rgb(0%,0%,0%);stroke-opacity:1;stroke-miterlimit:4;" d="M -0.001562 0.000781 L -3.501562 0.000781 " transform="matrix(1.25,0,0,1.25,53.27539,126.999024)"/>
<path style=" stroke:none;fill-rule:nonzero;fill:rgb(0%,0%,0%);fill-opacity:1;" d="M 38.121094 130.710938 L 40.136719 130.710938 L 40.136719 123.757812 L 37.945312 124.195312 L 37.945312 123.074219 L 40.125 122.632812 L 41.355469 122.632812 L 41.355469 130.710938 L 43.371094 130.710938 L 43.371094 131.746094 L 38.121094 131.746094 Z M 38.121094 130.710938 "/>
<g clip-path="url(#clip10)" clip-rule="nonzero">
<path style="fill:none;stroke-width:0.8;stroke-linecap:square;stroke-linejoin:round;stroke:rgb(69.019608%,69.019608%,69.019608%);stroke-opacity:1;stroke-miterlimit:4;" d="M 42.61875 78.95 L 237.921875 78.95 " transform="matrix(1.25,0,0,1.25,0,0)"/>
</g>
<path style="fill:none;stroke-width:0.8;stroke-linecap:butt;stroke-linejoin:round;stroke:rgb(0%,0%,0%);stroke-opacity:1;stroke-miterlimit:4;" d="M -0.001562 0.000781 L -3.501562 0.000781 " transform="matrix(1.25,0,0,1.25,53.27539,98.686524)"/>
<path style=" stroke:none;fill-rule:nonzero;fill:rgb(0%,0%,0%);fill-opacity:1;" d="M 38.96875 102.398438 L 43.273438 102.398438 L 43.273438 103.433594 L 37.488281 103.433594 L 37.488281 102.398438 C 37.957031 101.914062 38.59375 101.265625 39.398438 100.449219 C 40.207031 99.632812 40.714844 99.105469 40.921875 98.867188 C 41.316406 98.425781 41.59375 98.050781 41.75 97.742188 C 41.90625 97.4375 41.984375 97.132812 41.984375 96.835938 C 41.984375 96.351562 41.816406 95.957031 41.476562 95.652344 C 41.136719 95.347656 40.695312 95.195312 40.148438 95.195312 C 39.761719 95.195312 39.351562 95.261719 38.921875 95.394531 C 38.496094 95.53125 38.035156 95.734375 37.546875 96.007812 L 37.546875 94.761719 C 38.042969 94.5625 38.507812 94.410156 38.9375 94.308594 C 39.371094 94.207031 39.765625 94.15625 40.125 94.15625 C 41.070312 94.15625 41.820312 94.394531 42.382812 94.867188 C 42.945312 95.339844 43.222656 95.96875 43.222656 96.757812 C 43.222656 97.132812 43.152344 97.488281 43.011719 97.824219 C 42.875 98.160156 42.617188 98.554688 42.246094 99.007812 C 42.144531 99.128906 41.824219 99.46875 41.277344 100.03125 C 40.734375 100.597656 39.964844 101.386719 38.96875 102.398438 Z M 38.96875 102.398438 "/>
<g clip-path="url(#clip11)" clip-rule="nonzero">
<path style="fill:none;stroke-width:0.8;stroke-linecap:square;stroke-linejoin:round;stroke:rgb(69.019608%,69.019608%,69.019608%);stroke-opacity:1;stroke-miterlimit:4;" d="M 42.61875 56.3 L 237.921875 56.3 " transform="matrix(1.25,0,0,1.25,0,0)"/>
</g>
<path style="fill:none;stroke-width:0.8;stroke-linecap:butt;stroke-linejoin:round;stroke:rgb(0%,0%,0%);stroke-opacity:1;stroke-miterlimit:4;" d="M -0.001562 0.000781 L -3.501562 0.000781 " transform="matrix(1.25,0,0,1.25,53.27539,70.374024)"/>
<path style=" stroke:none;fill-rule:nonzero;fill:rgb(0%,0%,0%);fill-opacity:1;" d="M 41.644531 70.207031 C 42.234375 70.335938 42.695312 70.597656 43.023438 70.996094 C 43.355469 71.394531 43.523438 71.886719 43.523438 72.472656 C 43.523438 73.371094 43.214844 74.070312 42.59375 74.5625 C 41.976562 75.054688 41.097656 75.300781 39.957031 75.300781 C 39.578125 75.300781 39.183594 75.261719 38.777344 75.1875 C 38.375 75.113281 37.957031 75 37.523438 74.847656 L 37.523438 73.65625 C 37.867188 73.855469 38.238281 74.007812 38.644531 74.109375 C 39.054688 74.210938 39.480469 74.261719 39.921875 74.261719 C 40.695312 74.261719 41.285156 74.109375 41.6875 73.804688 C 42.09375 73.5 42.296875 73.054688 42.296875 72.472656 C 42.296875 71.9375 42.109375 71.515625 41.730469 71.214844 C 41.355469 70.910156 40.832031 70.757812 40.160156 70.757812 L 39.097656 70.757812 L 39.097656 69.746094 L 40.210938 69.746094 C 40.816406 69.746094 41.28125 69.625 41.601562 69.382812 C 41.921875 69.140625 42.082031 68.792969 42.082031 68.335938 C 42.082031 67.867188 41.917969 67.507812 41.585938 67.257812 C 41.253906 67.007812 40.78125 66.882812 40.160156 66.882812 C 39.824219 66.882812 39.460938 66.917969 39.074219 66.992188 C 38.6875 67.066406 38.261719 67.179688 37.796875 67.332031 L 37.796875 66.234375 C 38.265625 66.105469 38.707031 66.007812 39.113281 65.941406 C 39.523438 65.878906 39.910156 65.84375 40.269531 65.84375 C 41.207031 65.84375 41.949219 66.058594 42.492188 66.484375 C 43.039062 66.910156 43.308594 67.484375 43.308594 68.207031 C 43.308594 68.710938 43.164062 69.136719 42.875 69.484375 C 42.585938 69.832031 42.175781 70.074219 41.644531 70.207031 Z M 41.644531 70.207031 "/>
<g clip-path="url(#clip12)" clip-rule="nonzero">
<path style="fill:none;stroke-width:0.8;stroke-linecap:square;stroke-linejoin:round;stroke:rgb(69.019608%,69.019608%,69.019608%);stroke-opacity:1;stroke-miterlimit:4;" d="M 42.61875 33.65 L 237.921875 33.65 " transform="matrix(1.25,0,0,1.25,0,0)"/>
</g>
<path style="fill:none;stroke-width:0.8;stroke-linecap:butt;stroke-linejoin:round;stroke:rgb(0%,0%,0%);stroke-opacity:1;stroke-miterlimit:4;" d="M -0.001562 0.000781 L -3.501562 0.000781 " transform="matrix(1.25,0,0,1.25,53.27539,42.061524)"/>
<path style=" stroke:none;fill-rule:nonzero;fill:rgb(0%,0%,0%);fill-opacity:1;" d="M 41.296875 38.769531 L 38.183594 43.636719 L 41.296875 43.636719 Z M 40.972656 37.695312 L 42.523438 37.695312 L 42.523438 43.636719 L 43.824219 43.636719 L 43.824219 44.660156 L 42.523438 44.660156 L 42.523438 46.808594 L 41.296875 46.808594 L 41.296875 44.660156 L 37.183594 44.660156 L 37.183594 43.472656 Z M 40.972656 37.695312 "/>
<g clip-path="url(#clip13)" clip-rule="nonzero">
<path style="fill:none;stroke-width:0.8;stroke-linecap:square;stroke-linejoin:round;stroke:rgb(69.019608%,69.019608%,69.019608%);stroke-opacity:1;stroke-miterlimit:4;" d="M 42.61875 11 L 237.921875 11 " transform="matrix(1.25,0,0,1.25,0,0)"/>
</g>
<path style="fill:none;stroke-width:0.8;stroke-linecap:butt;stroke-linejoin:round;stroke:rgb(0%,0%,0%);stroke-opacity:1;stroke-miterlimit:4;" d="M -0.001562 0.000781 L -3.501562 0.000781 " transform="matrix(1.25,0,0,1.25,53.27539,13.749024)"/>
<path style=" stroke:none;fill-rule:nonzero;fill:rgb(0%,0%,0%);fill-opacity:1;" d="M 37.921875 9.382812 L 42.761719 9.382812 L 42.761719 10.421875 L 39.050781 10.421875 L 39.050781 12.65625 C 39.230469 12.59375 39.40625 12.550781 39.585938 12.519531 C 39.765625 12.488281 39.945312 12.472656 40.125 12.472656 C 41.140625 12.472656 41.945312 12.753906 42.539062 13.308594 C 43.136719 13.867188 43.433594 14.621094 43.433594 15.574219 C 43.433594 16.554688 43.128906 17.316406 42.515625 17.859375 C 41.90625 18.402344 41.046875 18.675781 39.933594 18.675781 C 39.550781 18.675781 39.164062 18.644531 38.765625 18.578125 C 38.371094 18.511719 37.960938 18.414062 37.535156 18.285156 L 37.535156 17.042969 C 37.902344 17.242188 38.28125 17.390625 38.671875 17.488281 C 39.0625 17.585938 39.476562 17.636719 39.910156 17.636719 C 40.613281 17.636719 41.171875 17.453125 41.582031 17.082031 C 41.992188 16.710938 42.199219 16.210938 42.199219 15.574219 C 42.199219 14.941406 41.992188 14.4375 41.582031 14.066406 C 41.171875 13.695312 40.613281 13.511719 39.910156 13.511719 C 39.582031 13.511719 39.25 13.546875 38.921875 13.621094 C 38.597656 13.695312 38.261719 13.808594 37.921875 13.960938 Z M 37.921875 9.382812 "/>
<path style=" stroke:none;fill-rule:nonzero;fill:rgb(0%,0%,0%);fill-opacity:1;" d="M 19.132812 98.363281 C 19.945312 98.679688 20.476562 98.988281 20.722656 99.292969 C 20.972656 99.59375 21.097656 99.996094 21.097656 100.5 L 21.097656 101.398438 L 20.15625 101.398438 L 20.15625 100.738281 C 20.15625 100.429688 20.085938 100.1875 19.9375 100.019531 C 19.792969 99.847656 19.445312 99.65625 18.898438 99.449219 L 18.386719 99.25 L 11.660156 102.011719 L 11.660156 100.824219 L 17.007812 98.6875 L 11.660156 96.550781 L 11.660156 95.359375 Z M 19.132812 98.363281 "/>
<g clip-path="url(#clip14)" clip-rule="nonzero">
<path style="fill:none;stroke-width:1.5;stroke-linecap:square;stroke-linejoin:round;stroke:rgb(12.156863%,46.666667%,70.588235%);stroke-opacity:1;stroke-miterlimit:4;" d="M 42.61875 124.25 L 46.525 116.1375 L 50.43125 109 L 54.3375 102.215625 L 58.24375 95.725 L 62.15 89.521875 L 66.05625 83.61875 L 69.9625 78.0375 L 73.86875 72.80625 L 77.775 67.946875 L 81.68125 63.48125 L 85.5875 59.434375 L 89.49375 55.821875 L 93.396875 52.659375 L 97.303125 49.9625 L 101.209375 47.734375 L 105.115625 45.98125 L 109.021875 44.7 L 112.928125 43.884375 L 116.834375 43.53125 L 120.740625 43.621875 L 124.646875 44.140625 L 128.553125 45.0625 L 132.459375 46.36875 L 136.365625 48.021875 L 140.26875 49.99375 L 144.175 52.25 L 148.08125 54.753125 L 151.9875 57.45625 L 155.89375 60.325 L 159.8 63.309375 L 163.70625 66.36875 L 167.6125 69.45625 L 171.51875 72.528125 L 175.425 75.534375 L 179.33125 78.434375 L 183.2375 81.184375 L 187.14375 83.740625 L 191.046875 86.065625 L 194.953125 88.11875 L 198.859375 89.871875 L 202.765625 91.284375 L 206.671875 92.3375 L 210.578125 93 L 214.484375 93.25625 L 218.390625 93.084375 L 222.296875 92.478125 L 226.203125 91.428125 L 230.109375 89.93125 L 234.015625 87.9875 " transform="matrix(1.25,0,0,1.25,0,0)"/>
</g>
<g clip-path="url(#clip15)" clip-rule="nonzero">
<path style="fill:none;stroke-width:1.5;stroke-linecap:butt;stroke-linejoin:round;stroke:rgb(74.901961%,0%,74.901961%);stroke-opacity:1;stroke-dasharray:5.55,2.4;stroke-miterlimit:4;" d="M 42.61875 82.996875 L 46.525 81.715625 L 50.43125 80.39375 L 54.3375 79.034375 L 58.24375 77.640625 L 62.15 76.221875 L 66.05625 74.7875 L 69.9625 73.346875 L 73.86875 71.915625 L 77.775 70.509375 L 81.68125 69.15 L 85.5875 67.85 L 89.49375 66.6375 L 93.396875 65.525 L 97.303125 64.540625 L 101.209375 63.69375 L 105.115625 63.00625 L 109.021875 62.484375 L 112.928125 62.1375 L 116.834375 61.965625 L 120.740625 61.96875 L 124.646875 62.140625 L 128.553125 62.471875 L 132.459375 62.94375 L 136.365625 63.55 L 140.26875 64.26875 L 144.175 65.0875 L 148.08125 65.984375 L 151.9875 66.946875 L 155.89375 67.959375 L 159.8 69.009375 L 163.70625 70.08125 L 167.6125 71.165625 L 171.51875 72.25625 L 175.425 73.3375 L 179.33125 74.40625 L 183.2375 75.45625 L 187.14375 76.484375 L 191.046875 77.484375 L 194.953125 78.453125 L 198.859375 79.384375 L 202.765625 80.284375 L 206.671875 81.140625 L 210.578125 81.9625 L 214.484375 82.740625 L 218.390625 83.478125 L 222.296875 84.175 L 226.203125 84.83125 L 230.109375 85.44375 L 234.015625 86.015625 " transform="matrix(1.25,0,0,1.25,0,0)"/>
</g>
<g clip-path="url(#clip16)" clip-rule="nonzero">
<path style=" stroke:none;fill-rule:nonzero;fill:rgb(100%,49.803922%,5.490196%);fill-opacity:0.501961;" d="M 55.886719 161.230469 C 56.878906 161.230469 57.832031 160.835938 58.535156 160.132812 C 59.238281 159.429688 59.636719 158.476562 59.636719 157.480469 C 59.636719 156.488281 59.238281 155.535156 58.535156 154.832031 C 57.832031 154.128906 56.878906 153.730469 55.886719 153.730469 C 54.890625 153.730469 53.9375 154.128906 53.234375 154.832031 C 52.53125 155.535156 52.136719 156.488281 52.136719 157.480469 C 52.136719 158.476562 52.53125 159.429688 53.234375 160.132812 C 53.9375 160.835938 54.890625 161.230469 55.886719 161.230469 Z M 55.886719 161.230469 "/>
</g>
<g clip-path="url(#clip17)" clip-rule="nonzero">
<path style="fill:none;stroke-width:1;stroke-linecap:butt;stroke-linejoin:round;stroke:rgb(100%,49.803922%,5.490196%);stroke-opacity:0.501961;stroke-miterlimit:4;" d="M 0.001439 2.998774 C 0.795189 2.998774 1.557689 2.683149 2.120189 2.120649 C 2.682689 1.558149 3.001439 0.795649 3.001439 -0.001226 C 3.001439 -0.794976 2.682689 -1.557476 2.120189 -2.119976 C 1.557689 -2.682476 0.795189 -3.001226 0.001439 -3.001226 C -0.795436 -3.001226 -1.557936 -2.682476 -2.120436 -2.119976 C -2.682936 -1.557476 -2.998561 -0.794976 -2.998561 -0.001226 C -2.998561 0.795649 -2.682936 1.558149 -2.120436 2.120649 C -1.557936 2.683149 -0.795436 2.998774 0.001439 2.998774 Z M 0.001439 2.998774 " transform="matrix(1.25,0,0,1.25,55.88492,157.482001)"/>
</g>
<path style="fill-rule:nonzero;fill:rgb(100%,49.803922%,5.490196%);fill-opacity:0.501961;stroke-width:1;stroke-linecap:butt;stroke-linejoin:round;stroke:rgb(100%,49.803922%,5.490196%);stroke-opacity:0.501961;stroke-miterlimit:4;" d="M 0.001216 3.000936 C 0.794966 3.000936 1.557466 2.685311 2.119966 2.122811 C 2.682466 1.557186 3.001216 0.794686 3.001216 0.000936 C 3.001216 -0.795939 2.682466 -1.558439 2.119966 -2.120939 C 1.557466 -2.683439 0.794966 -2.999064 0.001216 -2.999064 C -0.795659 -2.999064 -1.558159 -2.683439 -2.120659 -2.120939 C -2.683159 -1.558439 -2.998784 -0.795939 -2.998784 0.000936 C -2.998784 0.794686 -2.683159 1.557186 -2.120659 2.122811 C -1.558159 2.685311 -0.795659 3.000936 0.001216 3.000936 Z M 0.001216 3.000936 " transform="matrix(1.25,0,0,1.25,61.666449,128.963674)"/>
<path style="fill-rule:nonzero;fill:rgb(100%,49.803922%,5.490196%);fill-opacity:0.501961;stroke-width:1;stroke-linecap:butt;stroke-linejoin:round;stroke:rgb(100%,49.803922%,5.490196%);stroke-opacity:0.501961;stroke-miterlimit:4;" d="M 0.000812 2.999492 C 0.794562 2.999492 1.560187 2.683867 2.122687 2.121367 C 2.685187 1.558867 3.000812 0.796367 3.000812 -0.000508 C 3.000812 -0.794258 2.685187 -1.559883 2.122687 -2.122383 C 1.560187 -2.684883 0.794562 -3.000508 0.000812 -3.000508 C -0.796063 -3.000508 -1.558563 -2.684883 -2.121063 -2.122383 C -2.683563 -1.559883 -2.999188 -0.794258 -2.999188 -0.000508 C -2.999188 0.796367 -2.683563 1.558867 -2.121063 2.121367 C -1.558563 2.683867 -0.796063 2.999492 0.000812 2.999492 Z M 0.000812 2.999492 " transform="matrix(1.25,0,0,1.25,75.04586,132.414697)"/>
<path style="fill-rule:nonzero;fill:rgb(100%,49.803922%,5.490196%);fill-opacity:0.501961;stroke-width:1;stroke-linecap:butt;stroke-linejoin:round;stroke:rgb(100%,49.803922%,5.490196%);stroke-opacity:0.501961;stroke-miterlimit:4;" d="M -0.000252 3.000412 C 0.796623 3.000412 1.559123 2.684787 2.121623 2.122287 C 2.684123 1.559787 2.999748 0.794162 2.999748 0.000412 C 2.999748 -0.796463 2.684123 -1.558963 2.121623 -2.121463 C 1.559123 -2.683963 0.796623 -2.999588 -0.000252 -2.999588 C -0.797127 -2.999588 -1.559627 -2.683963 -2.122127 -2.121463 C -2.684627 -1.558963 -3.000252 -0.796463 -3.000252 0.000412 C -3.000252 0.794162 -2.684627 1.559787 -2.122127 2.122287 C -1.559627 2.684787 -0.797127 3.000412 -0.000252 3.000412 Z M -0.000252 3.000412 " transform="matrix(1.25,0,0,1.25,78.625315,111.79636)"/>
<path style="fill-rule:nonzero;fill:rgb(100%,49.803922%,5.490196%);fill-opacity:0.501961;stroke-width:1;stroke-linecap:butt;stroke-linejoin:round;stroke:rgb(100%,49.803922%,5.490196%);stroke-opacity:0.501961;stroke-miterlimit:4;" d="M 0.000149 2.999012 C 0.797024 2.999012 1.559524 2.683387 2.122024 2.120887 C 2.684524 1.558387 3.000149 0.795887 3.000149 -0.000988 C 3.000149 -0.794738 2.684524 -1.557238 2.122024 -2.122863 C 1.559524 -2.685363 0.797024 -3.000988 0.000149 -3.000988 C -0.796726 -3.000988 -1.559226 -2.685363 -2.121726 -2.122863 C -2.684226 -1.557238 -2.999851 -0.794738 -2.999851 -0.000988 C -2.999851 0.795887 -2.684226 1.558387 -2.121726 2.120887 C -1.559226 2.683387 -0.796726 2.999012 0.000149 2.999012 Z M 0.000149 2.999012 " transform="matrix(1.25,0,0,1.25,79.499814,99.489516)"/>
<path style="fill-rule:nonzero;fill:rgb(100%,49.803922%,5.490196%);fill-opacity:0.501961;stroke-width:1;stroke-linecap:butt;stroke-linejoin:round;stroke:rgb(100%,49.803922%,5.490196%);stroke-opacity:0.501961;stroke-miterlimit:4;" d="M 0.000173 3.000569 C 0.797048 3.000569 1.559548 2.684944 2.122048 2.122444 C 2.684548 1.559944 3.000173 0.794319 3.000173 0.000569 C 3.000173 -0.796306 2.684548 -1.558806 2.122048 -2.121306 C 1.559548 -2.683806 0.797048 -2.999431 0.000173 -2.999431 C -0.796702 -2.999431 -1.559202 -2.683806 -2.121702 -2.121306 C -2.684202 -1.558806 -2.999827 -0.796306 -2.999827 0.000569 C -2.999827 0.794319 -2.684202 1.559944 -2.121702 2.122444 C -1.559202 2.684944 -0.796702 3.000569 0.000173 3.000569 Z M 0.000173 3.000569 " transform="matrix(1.25,0,0,1.25,88.976346,99.444601)"/>
<path style="fill-rule:nonzero;fill:rgb(100%,49.803922%,5.490196%);fill-opacity:0.501961;stroke-width:1;stroke-linecap:butt;stroke-linejoin:round;stroke:rgb(100%,49.803922%,5.490196%);stroke-opacity:0.501961;stroke-miterlimit:4;" d="M -0.000822 2.999494 C 0.796053 2.999494 1.558553 2.683869 2.121053 2.121369 C 2.683553 1.558869 2.999178 0.796369 2.999178 -0.000506 C 2.999178 -0.794256 2.683553 -1.559881 2.121053 -2.122381 C 1.558553 -2.684881 0.796053 -3.000506 -0.000822 -3.000506 C -0.794572 -3.000506 -1.560197 -2.684881 -2.122697 -2.122381 C -2.685197 -1.559881 -3.000822 -0.794256 -3.000822 -0.000506 C -3.000822 0.796369 -2.685197 1.558869 -2.122697 2.121369 C -1.560197 2.683869 -0.794572 2.999494 -0.000822 2.999494 Z M -0.000822 2.999494 " transform="matrix(1.25,0,0,1.25,89.10259,96.317039)"/>
<path style="fill-rule:nonzero;fill:rgb(100%,49.803922%,5.490196%);fill-opacity:0.501961;stroke-width:1;stroke-linecap:butt;stroke-linejoin:round;stroke:rgb(100%,49.803922%,5.490196%);stroke-opacity:0.501961;stroke-miterlimit:4;" d="M -0.000322 2.99894 C 0.796553 2.99894 1.559053 2.683315 2.121553 2.120815 C 2.684053 1.558315 2.999678 0.795815 2.999678 -0.00106 C 2.999678 -0.79481 2.684053 -1.55731 2.121553 -2.11981 C 1.559053 -2.685435 0.796553 -3.00106 -0.000322 -3.00106 C -0.794072 -3.00106 -1.559697 -2.685435 -2.122197 -2.11981 C -2.684697 -1.55731 -3.000322 -0.79481 -3.000322 -0.00106 C -3.000322 0.795815 -2.684697 1.558315 -2.122197 2.120815 C -1.559697 2.683315 -0.794072 2.99894 -0.000322 2.99894 Z M -0.000322 2.99894 " transform="matrix(1.25,0,0,1.25,96.77384,83.591169)"/>
<path style="fill-rule:nonzero;fill:rgb(100%,49.803922%,5.490196%);fill-opacity:0.501961;stroke-width:1;stroke-linecap:butt;stroke-linejoin:round;stroke:rgb(100%,49.803922%,5.490196%);stroke-opacity:0.501961;stroke-miterlimit:4;" d="M 0.000264 3.001074 C 0.797139 3.001074 1.559639 2.685449 2.122139 2.119824 C 2.684639 1.557324 3.000264 0.794824 3.000264 0.001074 C 3.000264 -0.795801 2.684639 -1.558301 2.122139 -2.120801 C 1.559639 -2.683301 0.797139 -2.998926 0.000264 -2.998926 C -0.796611 -2.998926 -1.559111 -2.683301 -2.121611 -2.120801 C -2.684111 -1.558301 -2.999736 -0.795801 -2.999736 0.001074 C -2.999736 0.794824 -2.684111 1.557324 -2.121611 2.119824 C -1.559111 2.685449 -0.796611 3.001074 0.000264 3.001074 Z M 0.000264 3.001074 " transform="matrix(1.25,0,0,1.25,112.027014,113.420532)"/>
<path style="fill-rule:nonzero;fill:rgb(100%,49.803922%,5.490196%);fill-opacity:0.501961;stroke-width:1;stroke-linecap:butt;stroke-linejoin:round;stroke:rgb(100%,49.803922%,5.490196%);stroke-opacity:0.501961;stroke-miterlimit:4;" d="M -0.000158 3.001338 C 0.796717 3.001338 1.559217 2.682588 2.121717 2.120088 C 2.684217 1.557588 2.999842 0.795088 2.999842 0.001338 C 2.999842 -0.795537 2.684217 -1.558037 2.121717 -2.120537 C 1.559217 -2.683037 0.796717 -2.998662 -0.000158 -2.998662 C -0.797033 -2.998662 -1.559533 -2.683037 -2.122033 -2.120537 C -2.684533 -1.558037 -3.000158 -0.795537 -3.000158 0.001338 C -3.000158 0.795088 -2.684533 1.557588 -2.122033 2.120088 C -1.559533 2.682588 -0.797033 3.001338 -0.000158 3.001338 Z M -0.000158 3.001338 " transform="matrix(1.25,0,0,1.25,117.054885,70.396765)"/>
<path style="fill-rule:nonzero;fill:rgb(100%,49.803922%,5.490196%);fill-opacity:0.501961;stroke-width:1;stroke-linecap:butt;stroke-linejoin:round;stroke:rgb(100%,49.803922%,5.490196%);stroke-opacity:0.501961;stroke-miterlimit:4;" d="M 0.001208 2.998551 C 0.794958 2.998551 1.557458 2.682926 2.119958 2.120426 C 2.682458 1.557926 3.001208 0.795426 3.001208 -0.001449 C 3.001208 -0.795199 2.682458 -1.557699 2.119958 -2.120199 C 1.557458 -2.682699 0.794958 -3.001449 0.001208 -3.001449 C -0.795667 -3.001449 -1.558167 -2.682699 -2.120667 -2.120199 C -2.683167 -1.557699 -2.998792 -0.795199 -2.998792 -0.001449 C -2.998792 0.795426 -2.683167 1.557926 -2.120667 2.120426 C -1.558167 2.682926 -0.795667 2.998551 0.001208 2.998551 Z M 0.001208 2.998551 " transform="matrix(1.25,0,0,1.25,117.150834,52.60728)"/>
<path style="fill-rule:nonzero;fill:rgb(100%,49.803922%,5.490196%);fill-opacity:0.501961;stroke-width:1;stroke-linecap:butt;stroke-linejoin:round;stroke:rgb(100%,49.803922%,5.490196%);stroke-opacity:0.501961;stroke-miterlimit:4;" d="M -0.000199 3.000392 C 0.796676 3.000392 1.559176 2.684767 2.121676 2.122267 C 2.684176 1.559767 2.999801 0.794142 2.999801 0.000392 C 2.999801 -0.796483 2.684176 -1.558983 2.121676 -2.121483 C 1.559176 -2.683983 0.796676 -2.999608 -0.000199 -2.999608 C -0.797074 -2.999608 -1.559574 -2.683983 -2.122074 -2.121483 C -2.684574 -1.558983 -3.000199 -0.796483 -3.000199 0.000392 C -3.000199 0.794142 -2.684574 1.559767 -2.122074 2.122267 C -1.559574 2.684767 -0.797074 3.000392 -0.000199 3.000392 Z M -0.000199 3.000392 " transform="matrix(1.25,0,0,1.25,133.386967,58.06201)"/>
<path style="fill-rule:nonzero;fill:rgb(100%,49.803922%,5.490196%);fill-opacity:0.501961;stroke-width:1;stroke-linecap:butt;stroke-linejoin:round;stroke:rgb(100%,49.803922%,5.490196%);stroke-opacity:0.501961;stroke-miterlimit:4;" d="M -0.001199 2.99873 C 0.795676 2.99873 1.558176 2.683105 2.120676 2.120605 C 2.683176 1.558105 2.998801 0.795605 2.998801 -0.00127 C 2.998801 -0.79502 2.683176 -1.55752 2.120676 -2.12002 C 1.558176 -2.68252 0.795676 -3.00127 -0.001199 -3.00127 C -0.794949 -3.00127 -1.557449 -2.68252 -2.119949 -2.12002 C -2.682449 -1.55752 -3.001199 -0.79502 -3.001199 -0.00127 C -3.001199 0.795605 -2.682449 1.558105 -2.119949 2.120605 C -1.557449 2.683105 -0.794949 2.99873 -0.001199 2.99873 Z M -0.001199 2.99873 " transform="matrix(1.25,0,0,1.25,137.399936,49.525025)"/>
<path style="fill-rule:nonzero;fill:rgb(100%,49.803922%,5.490196%);fill-opacity:0.501961;stroke-width:1;stroke-linecap:butt;stroke-linejoin:round;stroke:rgb(100%,49.803922%,5.490196%);stroke-opacity:0.501961;stroke-miterlimit:4;" d="M 0.000625 3.000071 C 0.794375 3.000071 1.56 2.684446 2.1225 2.121946 C 2.685 1.559446 3.000625 0.796946 3.000625 0.000071 C 3.000625 -0.796804 2.685 -1.559304 2.1225 -2.121804 C 1.56 -2.684304 0.794375 -2.999929 0.000625 -2.999929 C -0.79625 -2.999929 -1.55875 -2.684304 -2.12125 -2.121804 C -2.68375 -1.559304 -2.999375 -0.796804 -2.999375 0.000071 C -2.999375 0.796946 -2.68375 1.559446 -2.12125 2.121946 C -1.55875 2.684446 -0.79625 3.000071 0.000625 3.000071 Z M 0.000625 3.000071 " transform="matrix(1.25,0,0,1.25,144.870312,71.19913)"/>
<path style="fill-rule:nonzero;fill:rgb(100%,49.803922%,5.490196%);fill-opacity:0.501961;stroke-width:1;stroke-linecap:butt;stroke-linejoin:round;stroke:rgb(100%,49.803922%,5.490196%);stroke-opacity:0.501961;stroke-miterlimit:4;" d="M 0.001111 3.00089 C 0.794861 3.00089 1.557361 2.685265 2.119861 2.122765 C 2.682361 1.560265 3.001111 0.79464 3.001111 0.00089 C 3.001111 -0.795985 2.682361 -1.558485 2.119861 -2.120985 C 1.557361 -2.683485 0.794861 -2.99911 0.001111 -2.99911 C -0.795764 -2.99911 -1.558264 -2.683485 -2.120764 -2.120985 C -2.683264 -1.558485 -2.998889 -0.795985 -2.998889 0.00089 C -2.998889 0.79464 -2.683264 1.560265 -2.120764 2.122765 C -1.558264 2.685265 -0.795764 3.00089 0.001111 3.00089 Z M 0.001111 3.00089 " transform="matrix(1.25,0,0,1.25,153.553299,47.764513)"/>
<path style="fill-rule:nonzero;fill:rgb(100%,49.803922%,5.490196%);fill-opacity:0.501961;stroke-width:1;stroke-linecap:butt;stroke-linejoin:round;stroke:rgb(100%,49.803922%,5.490196%);stroke-opacity:0.501961;stroke-miterlimit:4;" d="M 0.001157 2.99892 C 0.794907 2.99892 1.557407 2.683295 2.119907 2.120795 C 2.682407 1.558295 3.001157 0.795795 3.001157 -0.00108 C 3.001157 -0.79483 2.682407 -1.55733 2.119907 -2.11983 C 1.557407 -2.685455 0.794907 -3.00108 0.001157 -3.00108 C -0.795718 -3.00108 -1.558218 -2.685455 -2.120718 -2.11983 C -2.683218 -1.55733 -2.998843 -0.79483 -2.998843 -0.00108 C -2.998843 0.795795 -2.683218 1.558295 -2.120718 2.120795 C -1.558218 2.683295 -0.795718 2.99892 0.001157 2.99892 Z M 0.001157 2.99892 " transform="matrix(1.25,0,0,1.25,160.256366,62.774788)"/>
<path style="fill-rule:nonzero;fill:rgb(100%,49.803922%,5.490196%);fill-opacity:0.501961;stroke-width:1;stroke-linecap:butt;stroke-linejoin:round;stroke:rgb(100%,49.803922%,5.490196%);stroke-opacity:0.501961;stroke-miterlimit:4;" d="M 0.00102 2.999704 C 0.79477 2.999704 1.55727 2.684079 2.11977 2.121579 C 2.685395 1.559079 3.00102 0.796579 3.00102 -0.000296 C 3.00102 -0.797171 2.685395 -1.559671 2.11977 -2.122171 C 1.55727 -2.684671 0.79477 -3.000296 0.00102 -3.000296 C -0.795855 -3.000296 -1.558355 -2.684671 -2.120855 -2.122171 C -2.683355 -1.559671 -2.99898 -0.797171 -2.99898 -0.000296 C -2.99898 0.796579 -2.683355 1.559079 -2.120855 2.121579 C -1.558355 2.684079 -0.795855 2.999704 0.00102 2.999704 Z M 0.00102 2.999704 " transform="matrix(1.25,0,0,1.25,165.7956,61.769901)"/>
<path style="fill-rule:nonzero;fill:rgb(100%,49.803922%,5.490196%);fill-opacity:0.501961;stroke-width:1;stroke-linecap:butt;stroke-linejoin:round;stroke:rgb(100%,49.803922%,5.490196%);stroke-opacity:0.501961;stroke-miterlimit:4;" d="M 0.000665 3.001108 C 0.794415 3.001108 1.56004 2.682358 2.12254 2.119858 C 2.68504 1.557358 3.000665 0.794858 3.000665 0.001108 C 3.000665 -0.795767 2.68504 -1.558267 2.12254 -2.120767 C 1.56004 -2.683267 0.794415 -2.998892 0.000665 -2.998892 C -0.79621 -2.998892 -1.55871 -2.683267 -2.12121 -2.120767 C -2.68371 -1.558267 -2.999335 -0.795767 -2.999335 0.001108 C -2.999335 0.794858 -2.68371 1.557358 -2.12121 2.119858 C -1.55871 2.682358 -0.79621 3.001108 0.000665 3.001108 Z M 0.000665 3.001108 " transform="matrix(1.25,0,0,1.25,174.839012,56.100178)"/>
<path style="fill-rule:nonzero;fill:rgb(100%,49.803922%,5.490196%);fill-opacity:0.501961;stroke-width:1;stroke-linecap:butt;stroke-linejoin:round;stroke:rgb(100%,49.803922%,5.490196%);stroke-opacity:0.501961;stroke-miterlimit:4;" d="M -0.000656 3.000439 C 0.796219 3.000439 1.558719 2.684814 2.121219 2.122314 C 2.683719 1.559814 2.999344 0.794189 2.999344 0.000439 C 2.999344 -0.796436 2.683719 -1.558936 2.121219 -2.121436 C 1.558719 -2.683936 0.796219 -2.999561 -0.000656 -2.999561 C -0.794406 -2.999561 -1.560031 -2.683936 -2.122531 -2.121436 C -2.685031 -1.558936 -3.000656 -0.796436 -3.000656 0.000439 C -3.000656 0.794189 -2.685031 1.559814 -2.122531 2.122314 C -1.560031 2.684814 -0.794406 3.000439 -0.000656 3.000439 Z M -0.000656 3.000439 " transform="matrix(1.25,0,0,1.25,175.828945,63.968201)"/>
<path style="fill-rule:nonzero;fill:rgb(100%,49.803922%,5.490196%);fill-opacity:0.501961;stroke-width:1;stroke-linecap:butt;stroke-linejoin:round;stroke:rgb(100%,49.803922%,5.490196%);stroke-opacity:0.501961;stroke-miterlimit:4;" d="M 0.001024 3.000575 C 0.794774 3.000575 1.557274 2.68495 2.119774 2.12245 C 2.685399 1.55995 3.001024 0.794325 3.001024 0.000575 C 3.001024 -0.7963 2.685399 -1.5588 2.119774 -2.1213 C 1.557274 -2.6838 0.794774 -2.999425 0.001024 -2.999425 C -0.795851 -2.999425 -1.558351 -2.6838 -2.120851 -2.1213 C -2.683351 -1.5588 -2.998976 -0.7963 -2.998976 0.000575 C -2.998976 0.794325 -2.683351 1.55995 -2.120851 2.12245 C -1.558351 2.68495 -0.795851 3.000575 0.001024 3.000575 Z M 0.001024 3.000575 " transform="matrix(1.25,0,0,1.25,176.920595,69.311781)"/>
<path style="fill-rule:nonzero;fill:rgb(100%,49.803922%,5.490196%);fill-opacity:0.501961;stroke-width:1;stroke-linecap:butt;stroke-linejoin:round;stroke:rgb(100%,49.803922%,5.490196%);stroke-opacity:0.501961;stroke-miterlimit:4;" d="M -0.000348 3.000435 C 0.796527 3.000435 1.559027 2.68481 2.121527 2.12231 C 2.684027 1.55981 2.999652 0.794185 2.999652 0.000435 C 2.999652 -0.79644 2.684027 -1.55894 2.121527 -2.12144 C 1.559027 -2.68394 0.796527 -2.999565 -0.000348 -2.999565 C -0.794098 -2.999565 -1.559723 -2.68394 -2.122223 -2.12144 C -2.684723 -1.55894 -3.000348 -0.79644 -3.000348 0.000435 C -3.000348 0.794185 -2.684723 1.55981 -2.122223 2.12231 C -1.559723 2.68481 -0.794098 3.000435 -0.000348 3.000435 Z M -0.000348 3.000435 " transform="matrix(1.25,0,0,1.25,180.793404,52.43305)"/>
<path style="fill-rule:nonzero;fill:rgb(100%,49.803922%,5.490196%);fill-opacity:0.501961;stroke-width:1;stroke-linecap:butt;stroke-linejoin:round;stroke:rgb(100%,49.803922%,5.490196%);stroke-opacity:0.501961;stroke-miterlimit:4;" d="M 0.001139 3.0005 C 0.794889 3.0005 1.557389 2.684875 2.119889 2.122375 C 2.682389 1.559875 3.001139 0.79425 3.001139 0.0005 C 3.001139 -0.796375 2.682389 -1.558875 2.119889 -2.121375 C 1.557389 -2.683875 0.794889 -2.9995 0.001139 -2.9995 C -0.795736 -2.9995 -1.558236 -2.683875 -2.120736 -2.121375 C -2.683236 -1.558875 -2.998861 -0.796375 -2.998861 0.0005 C -2.998861 0.79425 -2.683236 1.559875 -2.120736 2.122375 C -1.558236 2.684875 -0.795736 3.0005 0.001139 3.0005 Z M 0.001139 3.0005 " transform="matrix(1.25,0,0,1.25,181.037639,47.792344)"/>
<path style="fill-rule:nonzero;fill:rgb(100%,49.803922%,5.490196%);fill-opacity:0.501961;stroke-width:1;stroke-linecap:butt;stroke-linejoin:round;stroke:rgb(100%,49.803922%,5.490196%);stroke-opacity:0.501961;stroke-miterlimit:4;" d="M -0.000382 2.999643 C 0.796493 2.999643 1.558993 2.684018 2.121493 2.121518 C 2.683993 1.559018 2.999618 0.796518 2.999618 -0.000357 C 2.999618 -0.794107 2.683993 -1.559732 2.121493 -2.122232 C 1.558993 -2.684732 0.796493 -3.000357 -0.000382 -3.000357 C -0.794132 -3.000357 -1.559757 -2.684732 -2.122257 -2.122232 C -2.684757 -1.559732 -3.000382 -0.794107 -3.000382 -0.000357 C -3.000382 0.796518 -2.684757 1.559018 -2.122257 2.121518 C -1.559757 2.684018 -0.794132 2.999643 -0.000382 2.999643 Z M -0.000382 2.999643 " transform="matrix(1.25,0,0,1.25,187.582509,82.004352)"/>
<path style="fill-rule:nonzero;fill:rgb(100%,49.803922%,5.490196%);fill-opacity:0.501961;stroke-width:1;stroke-linecap:butt;stroke-linejoin:round;stroke:rgb(100%,49.803922%,5.490196%);stroke-opacity:0.501961;stroke-miterlimit:4;" d="M -0.001214 2.998761 C 0.795661 2.998761 1.558161 2.683136 2.120661 2.120636 C 2.683161 1.558136 2.998786 0.795636 2.998786 -0.001239 C 2.998786 -0.794989 2.683161 -1.557489 2.120661 -2.119989 C 1.558161 -2.682489 0.795661 -3.001239 -0.001214 -3.001239 C -0.794964 -3.001239 -1.557464 -2.682489 -2.119964 -2.119989 C -2.682464 -1.557489 -3.001214 -0.794989 -3.001214 -0.001239 C -3.001214 0.795636 -2.682464 1.558136 -2.119964 2.120636 C -1.557464 2.683136 -0.794964 2.998761 -0.001214 2.998761 Z M -0.001214 2.998761 " transform="matrix(1.25,0,0,1.25,190.474174,64.524986)"/>
<path style="fill-rule:nonzero;fill:rgb(100%,49.803922%,5.490196%);fill-opacity:0.501961;stroke-width:1;stroke-linecap:butt;stroke-linejoin:round;stroke:rgb(100%,49.803922%,5.490196%);stroke-opacity:0.501961;stroke-miterlimit:4;" d="M -0.001048 2.99969 C 0.795827 2.99969 1.558327 2.684065 2.120827 2.121565 C 2.683327 1.559065 2.998952 0.796565 2.998952 -0.00031 C 2.998952 -0.79406 2.683327 -1.559685 2.120827 -2.122185 C 1.558327 -2.684685 0.795827 -3.00031 -0.001048 -3.00031 C -0.794798 -3.00031 -1.557298 -2.684685 -2.119798 -2.122185 C -2.685423 -1.559685 -3.001048 -0.79406 -3.001048 -0.00031 C -3.001048 0.796565 -2.685423 1.559065 -2.119798 2.121565 C -1.557298 2.684065 -0.794798 2.99969 -0.001048 2.99969 Z M -0.001048 2.99969 " transform="matrix(1.25,0,0,1.25,199.571622,49.711325)"/>
<path style="fill-rule:nonzero;fill:rgb(100%,49.803922%,5.490196%);fill-opacity:0.501961;stroke-width:1;stroke-linecap:butt;stroke-linejoin:round;stroke:rgb(100%,49.803922%,5.490196%);stroke-opacity:0.501961;stroke-miterlimit:4;" d="M 0.00118 2.999534 C 0.79493 2.999534 1.55743 2.683909 2.11993 2.121409 C 2.68243 1.558909 3.00118 0.796409 3.00118 -0.000466 C 3.00118 -0.794216 2.68243 -1.559841 2.11993 -2.122341 C 1.55743 -2.684841 0.79493 -3.000466 0.00118 -3.000466 C -0.795695 -3.000466 -1.558195 -2.684841 -2.120695 -2.122341 C -2.683195 -1.559841 -2.99882 -0.794216 -2.99882 -0.000466 C -2.99882 0.796409 -2.683195 1.558909 -2.120695 2.121409 C -1.558195 2.683909 -0.795695 2.999534 0.00118 2.999534 Z M 0.00118 2.999534 " transform="matrix(1.25,0,0,1.25,201.662588,95.731051)"/>
<path style="fill-rule:nonzero;fill:rgb(100%,49.803922%,5.490196%);fill-opacity:0.501961;stroke-width:1;stroke-linecap:butt;stroke-linejoin:round;stroke:rgb(100%,49.803922%,5.490196%);stroke-opacity:0.501961;stroke-miterlimit:4;" d="M -0.00044 2.999298 C 0.796435 2.999298 1.558935 2.683673 2.121435 2.121173 C 2.683935 1.558673 2.99956 0.796173 2.99956 -0.000702 C 2.99956 -0.794452 2.683935 -1.560077 2.121435 -2.122577 C 1.558935 -2.685077 0.796435 -3.000702 -0.00044 -3.000702 C -0.79419 -3.000702 -1.559815 -2.685077 -2.122315 -2.122577 C -2.684815 -1.560077 -3.00044 -0.794452 -3.00044 -0.000702 C -3.00044 0.796173 -2.684815 1.558673 -2.122315 2.121173 C -1.559815 2.683673 -0.79419 2.999298 -0.00044 2.999298 Z M -0.00044 2.999298 " transform="matrix(1.25,0,0,1.25,208.555238,98.610253)"/>
<path style="fill-rule:nonzero;fill:rgb(100%,49.803922%,5.490196%);fill-opacity:0.501961;stroke-width:1;stroke-linecap:butt;stroke-linejoin:round;stroke:rgb(100%,49.803922%,5.490196%);stroke-opacity:0.501961;stroke-miterlimit:4;" d="M -0.001488 2.998691 C 0.795387 2.998691 1.557887 2.683066 2.120387 2.120566 C 2.682887 1.558066 2.998512 0.795566 2.998512 -0.001309 C 2.998512 -0.795059 2.682887 -1.557559 2.120387 -2.120059 C 1.557887 -2.682559 0.795387 -3.001309 -0.001488 -3.001309 C -0.795238 -3.001309 -1.557738 -2.682559 -2.120238 -2.120059 C -2.682738 -1.557559 -3.001488 -0.795059 -3.001488 -0.001309 C -3.001488 0.795566 -2.682738 1.558066 -2.120238 2.120566 C -1.557738 2.683066 -0.795238 2.998691 -0.001488 2.998691 Z M -0.001488 2.998691 " transform="matrix(1.25,0,0,1.25,208.822172,97.142261)"/>
<path style="fill-rule:nonzero;fill:rgb(100%,49.803922%,5.490196%);fill-opacity:0.501961;stroke-width:1;stroke-linecap:butt;stroke-linejoin:round;stroke:rgb(100%,49.803922%,5.490196%);stroke-opacity:0.501961;stroke-miterlimit:4;" d="M 0.000341 3.00082 C 0.794091 3.00082 1.559716 2.685195 2.122216 2.122695 C 2.684716 1.560195 3.000341 0.79457 3.000341 0.00082 C 3.000341 -0.796055 2.684716 -1.558555 2.122216 -2.121055 C 1.559716 -2.683555 0.794091 -2.99918 0.000341 -2.99918 C -0.796534 -2.99918 -1.559034 -2.683555 -2.121534 -2.121055 C -2.684034 -1.558555 -2.999659 -0.796055 -2.999659 0.00082 C -2.999659 0.79457 -2.684034 1.560195 -2.121534 2.122695 C -1.559034 2.685195 -0.796534 3.00082 0.000341 3.00082 Z M 0.000341 3.00082 " transform="matrix(1.25,0,0,1.25,218.523011,90.987256)"/>
<path style="fill-rule:nonzero;fill:rgb(100%,49.803922%,5.490196%);fill-opacity:0.501961;stroke-width:1;stroke-linecap:butt;stroke-linejoin:round;stroke:rgb(100%,49.803922%,5.490196%);stroke-opacity:0.501961;stroke-miterlimit:4;" d="M -0.001379 3.001006 C 0.795496 3.001006 1.557996 2.685381 2.120496 2.122881 C 2.682996 1.557256 2.998621 0.794756 2.998621 0.001006 C 2.998621 -0.795869 2.682996 -1.558369 2.120496 -2.120869 C 1.557996 -2.683369 0.795496 -2.998994 -0.001379 -2.998994 C -0.795129 -2.998994 -1.557629 -2.683369 -2.120129 -2.120869 C -2.682629 -1.558369 -3.001379 -0.795869 -3.001379 0.001006 C -3.001379 0.794756 -2.682629 1.557256 -2.120129 2.122881 C -1.557629 2.685381 -0.795129 3.001006 -0.001379 3.001006 Z M -0.001379 3.001006 " transform="matrix(1.25,0,0,1.25,218.657974,82.815149)"/>
<path style="fill-rule:nonzero;fill:rgb(100%,49.803922%,5.490196%);fill-opacity:0.501961;stroke-width:1;stroke-linecap:butt;stroke-linejoin:round;stroke:rgb(100%,49.803922%,5.490196%);stroke-opacity:0.501961;stroke-miterlimit:4;" d="M -0.001037 2.998649 C 0.795838 2.998649 1.558338 2.683024 2.120838 2.120524 C 2.683338 1.558024 2.998963 0.795524 2.998963 -0.001351 C 2.998963 -0.795101 2.683338 -1.557601 2.120838 -2.120101 C 1.558338 -2.682601 0.795838 -3.001351 -0.001037 -3.001351 C -0.794787 -3.001351 -1.557287 -2.682601 -2.119787 -2.120101 C -2.685412 -1.557601 -3.001037 -0.795101 -3.001037 -0.001351 C -3.001037 0.795524 -2.685412 1.558024 -2.119787 2.120524 C -1.557287 2.683024 -0.794787 2.998649 -0.001037 2.998649 Z M -0.001037 2.998649 " transform="matrix(1.25,0,0,1.25,219.055984,106.279032)"/>
<path style="fill-rule:nonzero;fill:rgb(100%,49.803922%,5.490196%);fill-opacity:0.501961;stroke-width:1;stroke-linecap:butt;stroke-linejoin:round;stroke:rgb(100%,49.803922%,5.490196%);stroke-opacity:0.501961;stroke-miterlimit:4;" d="M -0.000419 2.998916 C 0.796456 2.998916 1.558956 2.683291 2.121456 2.120791 C 2.683956 1.558291 2.999581 0.795791 2.999581 -0.001084 C 2.999581 -0.794834 2.683956 -1.557334 2.121456 -2.119834 C 1.558956 -2.685459 0.796456 -3.001084 -0.000419 -3.001084 C -0.794169 -3.001084 -1.559794 -2.685459 -2.122294 -2.119834 C -2.684794 -1.557334 -3.000419 -0.794834 -3.000419 -0.001084 C -3.000419 0.795791 -2.684794 1.558291 -2.122294 2.120791 C -1.559794 2.683291 -0.794169 2.998916 -0.000419 2.998916 Z M -0.000419 2.998916 " transform="matrix(1.25,0,0,1.25,221.391149,114.583386)"/>
<path style="fill-rule:nonzero;fill:rgb(100%,49.803922%,5.490196%);fill-opacity:0.501961;stroke-width:1;stroke-linecap:butt;stroke-linejoin:round;stroke:rgb(100%,49.803922%,5.490196%);stroke-opacity:0.501961;stroke-miterlimit:4;" d="M -0.000159 3.000166 C 0.796716 3.000166 1.559216 2.684541 2.121716 2.122041 C 2.684216 1.559541 2.999841 0.797041 2.999841 0.000166 C 2.999841 -0.796709 2.684216 -1.559209 2.121716 -2.121709 C 1.559216 -2.684209 0.796716 -2.999834 -0.000159 -2.999834 C -0.797034 -2.999834 -1.559534 -2.684209 -2.122034 -2.121709 C -2.684534 -1.559209 -3.000159 -0.796709 -3.000159 0.000166 C -3.000159 0.797041 -2.684534 1.559541 -2.122034 2.122041 C -1.559534 2.684541 -0.797034 3.000166 -0.000159 3.000166 Z M -0.000159 3.000166 " transform="matrix(1.25,0,0,1.25,223.172074,113.163855)"/>
<path style="fill-rule:nonzero;fill:rgb(100%,49.803922%,5.490196%);fill-opacity:0.501961;stroke-width:1;stroke-linecap:butt;stroke-linejoin:round;stroke:rgb(100%,49.803922%,5.490196%);stroke-opacity:0.501961;stroke-miterlimit:4;" d="M -0.000398 2.998478 C 0.796477 2.998478 1.558977 2.682853 2.121477 2.120353 C 2.683977 1.557853 2.999602 0.795353 2.999602 -0.001522 C 2.999602 -0.795272 2.683977 -1.557772 2.121477 -2.120272 C 1.558977 -2.682772 0.796477 -3.001522 -0.000398 -3.001522 C -0.794148 -3.001522 -1.559773 -2.682772 -2.122273 -2.120272 C -2.684773 -1.557772 -3.000398 -0.795272 -3.000398 -0.001522 C -3.000398 0.795353 -2.684773 1.557853 -2.122273 2.120353 C -1.559773 2.682853 -0.794148 2.998478 -0.000398 2.998478 Z M -0.000398 2.998478 " transform="matrix(1.25,0,0,1.25,229.484872,93.919871)"/>
<path style="fill-rule:nonzero;fill:rgb(100%,49.803922%,5.490196%);fill-opacity:0.501961;stroke-width:1;stroke-linecap:butt;stroke-linejoin:round;stroke:rgb(100%,49.803922%,5.490196%);stroke-opacity:0.501961;stroke-miterlimit:4;" d="M -0.0015 3.001023 C 0.795375 3.001023 1.557875 2.685398 2.120375 2.119773 C 2.682875 1.557273 2.9985 0.794773 2.9985 0.001023 C 2.9985 -0.795852 2.682875 -1.558352 2.120375 -2.120852 C 1.557875 -2.683352 0.795375 -2.998977 -0.0015 -2.998977 C -0.79525 -2.998977 -1.55775 -2.683352 -2.12025 -2.120852 C -2.68275 -1.558352 -3.0015 -0.795852 -3.0015 0.001023 C -3.0015 0.794773 -2.68275 1.557273 -2.12025 2.119773 C -1.55775 2.685398 -0.79525 3.001023 -0.0015 3.001023 Z M -0.0015 3.001023 " transform="matrix(1.25,0,0,1.25,230.263594,100.334659)"/>
<path style="fill-rule:nonzero;fill:rgb(100%,49.803922%,5.490196%);fill-opacity:0.501961;stroke-width:1;stroke-linecap:butt;stroke-linejoin:round;stroke:rgb(100%,49.803922%,5.490196%);stroke-opacity:0.501961;stroke-miterlimit:4;" d="M 0.001097 3.000146 C 0.794847 3.000146 1.557347 2.684521 2.119847 2.122021 C 2.682347 1.559521 3.001097 0.797021 3.001097 0.000146 C 3.001097 -0.796729 2.682347 -1.559229 2.119847 -2.121729 C 1.557347 -2.684229 0.794847 -2.999854 0.001097 -2.999854 C -0.795778 -2.999854 -1.558278 -2.684229 -2.120778 -2.121729 C -2.683278 -1.559229 -2.998903 -0.796729 -2.998903 0.000146 C -2.998903 0.797021 -2.683278 1.559521 -2.120778 2.122021 C -1.558278 2.684521 -0.795778 3.000146 0.001097 3.000146 Z M 0.001097 3.000146 " transform="matrix(1.25,0,0,1.25,231.79941,102.38263)"/>
<path style="fill-rule:nonzero;fill:rgb(100%,49.803922%,5.490196%);fill-opacity:0.501961;stroke-width:1;stroke-linecap:butt;stroke-linejoin:round;stroke:rgb(100%,49.803922%,5.490196%);stroke-opacity:0.501961;stroke-miterlimit:4;" d="M 0.000615 2.99896 C 0.794365 2.99896 1.55999 2.683335 2.12249 2.120835 C 2.68499 1.558335 3.000615 0.795835 3.000615 -0.00104 C 3.000615 -0.79479 2.68499 -1.55729 2.12249 -2.11979 C 1.55999 -2.685415 0.794365 -3.00104 0.000615 -3.00104 C -0.79626 -3.00104 -1.55876 -2.685415 -2.12126 -2.11979 C -2.68376 -1.55729 -2.999385 -0.79479 -2.999385 -0.00104 C -2.999385 0.795835 -2.68376 1.558335 -2.12126 2.120835 C -1.55876 2.683335 -0.79626 2.99896 0.000615 2.99896 Z M 0.000615 2.99896 " transform="matrix(1.25,0,0,1.25,232.319544,111.3763)"/>
<path style="fill-rule:nonzero;fill:rgb(100%,49.803922%,5.490196%);fill-opacity:0.501961;stroke-width:1;stroke-linecap:butt;stroke-linejoin:round;stroke:rgb(100%,49.803922%,5.490196%);stroke-opacity:0.501961;stroke-miterlimit:4;" d="M 0.000568 2.998983 C 0.794318 2.998983 1.559943 2.683358 2.122443 2.120858 C 2.684943 1.558358 3.000568 0.795858 3.000568 -0.001017 C 3.000568 -0.794767 2.684943 -1.557267 2.122443 -2.119767 C 1.559943 -2.685392 0.794318 -3.001017 0.000568 -3.001017 C -0.796307 -3.001017 -1.558807 -2.685392 -2.121307 -2.119767 C -2.683807 -1.557267 -2.999432 -0.794767 -2.999432 -0.001017 C -2.999432 0.795858 -2.683807 1.558358 -2.121307 2.120858 C -1.558807 2.683358 -0.796307 2.998983 0.000568 2.998983 Z M 0.000568 2.998983 " transform="matrix(1.25,0,0,1.25,237.12429,108.915334)"/>
<path style="fill-rule:nonzero;fill:rgb(100%,49.803922%,5.490196%);fill-opacity:0.501961;stroke-width:1;stroke-linecap:butt;stroke-linejoin:round;stroke:rgb(100%,49.803922%,5.490196%);stroke-opacity:0.501961;stroke-miterlimit:4;" d="M -0.000211 3.000517 C 0.796664 3.000517 1.559164 2.684892 2.121664 2.122392 C 2.684164 1.559892 2.999789 0.794267 2.999789 0.000517 C 2.999789 -0.796358 2.684164 -1.558858 2.121664 -2.121358 C 1.559164 -2.683858 0.796664 -2.999483 -0.000211 -2.999483 C -0.797086 -2.999483 -1.559586 -2.683858 -2.122086 -2.121358 C -2.684586 -1.558858 -3.000211 -0.796358 -3.000211 0.000517 C -3.000211 0.794267 -2.684586 1.559892 -2.122086 2.122392 C -1.559586 2.684892 -0.797086 3.000517 -0.000211 3.000517 Z M -0.000211 3.000517 " transform="matrix(1.25,0,0,1.25,238.957295,110.925135)"/>
<path style="fill-rule:nonzero;fill:rgb(100%,49.803922%,5.490196%);fill-opacity:0.501961;stroke-width:1;stroke-linecap:butt;stroke-linejoin:round;stroke:rgb(100%,49.803922%,5.490196%);stroke-opacity:0.501961;stroke-miterlimit:4;" d="M -0.000416 2.99991 C 0.796459 2.99991 1.558959 2.684285 2.121459 2.121785 C 2.683959 1.559285 2.999584 0.796785 2.999584 -0.00009 C 2.999584 -0.796965 2.683959 -1.559465 2.121459 -2.121965 C 1.558959 -2.684465 0.796459 -3.00009 -0.000416 -3.00009 C -0.794166 -3.00009 -1.559791 -2.684465 -2.122291 -2.121965 C -2.684791 -1.559465 -3.000416 -0.796965 -3.000416 -0.00009 C -3.000416 0.796785 -2.684791 1.559285 -2.122291 2.121785 C -1.559791 2.684285 -0.794166 2.99991 -0.000416 2.99991 Z M -0.000416 2.99991 " transform="matrix(1.25,0,0,1.25,241.539582,114.320425)"/>
<path style="fill-rule:nonzero;fill:rgb(100%,49.803922%,5.490196%);fill-opacity:0.501961;stroke-width:1;stroke-linecap:butt;stroke-linejoin:round;stroke:rgb(100%,49.803922%,5.490196%);stroke-opacity:0.501961;stroke-miterlimit:4;" d="M -0.000943 3.001078 C 0.795932 3.001078 1.558432 2.685453 2.120932 2.119828 C 2.683432 1.557328 2.999057 0.794828 2.999057 0.001078 C 2.999057 -0.795797 2.683432 -1.558297 2.120932 -2.120797 C 1.558432 -2.683297 0.795932 -2.998922 -0.000943 -2.998922 C -0.794693 -2.998922 -1.557193 -2.683297 -2.122818 -2.120797 C -2.685318 -1.558297 -3.000943 -0.795797 -3.000943 0.001078 C -3.000943 0.794828 -2.685318 1.557328 -2.122818 2.119828 C -1.557193 2.685453 -0.794693 3.001078 -0.000943 3.001078 Z M -0.000943 3.001078 " transform="matrix(1.25,0,0,1.25,245.188679,108.67834)"/>
<path style="fill-rule:nonzero;fill:rgb(100%,49.803922%,5.490196%);fill-opacity:0.501961;stroke-width:1;stroke-linecap:butt;stroke-linejoin:round;stroke:rgb(100%,49.803922%,5.490196%);stroke-opacity:0.501961;stroke-miterlimit:4;" d="M -0.000893 2.999805 C 0.795982 2.999805 1.558482 2.68418 2.120982 2.12168 C 2.683482 1.55918 2.999107 0.79668 2.999107 -0.000195 C 2.999107 -0.79707 2.683482 -1.55957 2.120982 -2.12207 C 1.558482 -2.68457 0.795982 -3.000195 -0.000893 -3.000195 C -0.794643 -3.000195 -1.560268 -2.68457 -2.122768 -2.12207 C -2.685268 -1.55957 -3.000893 -0.79707 -3.000893 -0.000195 C -3.000893 0.79668 -2.685268 1.55918 -2.122768 2.12168 C -1.560268 2.68418 -0.794643 2.999805 -0.000893 2.999805 Z M -0.000893 2.999805 " transform="matrix(1.25,0,0,1.25,248.712054,115.445556)"/>
<path style="fill-rule:nonzero;fill:rgb(100%,49.803922%,5.490196%);fill-opacity:0.501961;stroke-width:1;stroke-linecap:butt;stroke-linejoin:round;stroke:rgb(100%,49.803922%,5.490196%);stroke-opacity:0.501961;stroke-miterlimit:4;" d="M -0.000297 2.999203 C 0.796578 2.999203 1.559078 2.683578 2.121578 2.121078 C 2.684078 1.558578 2.999703 0.796078 2.999703 -0.000797 C 2.999703 -0.794547 2.684078 -1.560172 2.121578 -2.122672 C 1.559078 -2.685172 0.796578 -3.000797 -0.000297 -3.000797 C -0.794047 -3.000797 -1.559672 -2.685172 -2.122172 -2.122672 C -2.684672 -1.560172 -3.000297 -0.794547 -3.000297 -0.000797 C -3.000297 0.796078 -2.684672 1.558578 -2.122172 2.121078 C -1.559672 2.683578 -0.794047 2.999203 -0.000297 2.999203 Z M -0.000297 2.999203 " transform="matrix(1.25,0,0,1.25,260.910528,89.473653)"/>
<path style="fill-rule:nonzero;fill:rgb(100%,49.803922%,5.490196%);fill-opacity:0.501961;stroke-width:1;stroke-linecap:butt;stroke-linejoin:round;stroke:rgb(100%,49.803922%,5.490196%);stroke-opacity:0.501961;stroke-miterlimit:4;" d="M 0.000752 3.00011 C 0.794502 3.00011 1.560127 2.684485 2.122627 2.121985 C 2.685127 1.559485 3.000752 0.796985 3.000752 0.00011 C 3.000752 -0.796765 2.685127 -1.559265 2.122627 -2.121765 C 1.560127 -2.684265 0.794502 -2.99989 0.000752 -2.99989 C -0.796123 -2.99989 -1.558623 -2.684265 -2.121123 -2.121765 C -2.683623 -1.559265 -2.999248 -0.796765 -2.999248 0.00011 C -2.999248 0.796985 -2.683623 1.559485 -2.121123 2.121985 C -1.558623 2.684485 -0.796123 3.00011 0.000752 3.00011 Z M 0.000752 3.00011 " transform="matrix(1.25,0,0,1.25,274.038122,121.378769)"/>
<path style="fill-rule:nonzero;fill:rgb(100%,49.803922%,5.490196%);fill-opacity:0.501961;stroke-width:1;stroke-linecap:butt;stroke-linejoin:round;stroke:rgb(100%,49.803922%,5.490196%);stroke-opacity:0.501961;stroke-miterlimit:4;" d="M -0.000214 2.998594 C 0.796661 2.998594 1.559161 2.682969 2.121661 2.120469 C 2.684161 1.557969 2.999786 0.795469 2.999786 -0.001406 C 2.999786 -0.795156 2.684161 -1.557656 2.121661 -2.120156 C 1.559161 -2.682656 0.796661 -3.001406 -0.000214 -3.001406 C -0.797089 -3.001406 -1.559589 -2.682656 -2.122089 -2.120156 C -2.684589 -1.557656 -3.000214 -0.795156 -3.000214 -0.001406 C -3.000214 0.795469 -2.684589 1.557969 -2.122089 2.120469 C -1.559589 2.682969 -0.797089 2.998594 -0.000214 2.998594 Z M -0.000214 2.998594 " transform="matrix(1.25,0,0,1.25,282.60183,142.423632)"/>
<path style="fill-rule:nonzero;fill:rgb(100%,49.803922%,5.490196%);fill-opacity:0.501961;stroke-width:1;stroke-linecap:butt;stroke-linejoin:round;stroke:rgb(100%,49.803922%,5.490196%);stroke-opacity:0.501961;stroke-miterlimit:4;" d="M 0.000893 3.000565 C 0.794643 3.000565 1.560268 2.68494 2.122768 2.12244 C 2.685268 1.55994 3.000893 0.794315 3.000893 0.000565 C 3.000893 -0.79631 2.685268 -1.55881 2.122768 -2.12131 C 1.560268 -2.68381 0.794643 -2.999435 0.000893 -2.999435 C -0.795982 -2.999435 -1.558482 -2.68381 -2.120982 -2.12131 C -2.683482 -1.55881 -2.999107 -0.79631 -2.999107 0.000565 C -2.999107 0.794315 -2.683482 1.55994 -2.120982 2.12244 C -1.558482 2.68494 -0.795982 3.000565 0.000893 3.000565 Z M 0.000893 3.000565 " transform="matrix(1.25,0,0,1.25,284.463728,95.889919)"/>
<path style="fill-rule:nonzero;fill:rgb(100%,49.803922%,5.490196%);fill-opacity:0.501961;stroke-width:1;stroke-linecap:butt;stroke-linejoin:round;stroke:rgb(100%,49.803922%,5.490196%);stroke-opacity:0.501961;stroke-miterlimit:4;" d="M 0.001257 2.9994 C 0.795007 2.9994 1.557507 2.683775 2.120007 2.121275 C 2.682507 1.558775 3.001257 0.796275 3.001257 -0.0006 C 3.001257 -0.79435 2.682507 -1.559975 2.120007 -2.122475 C 1.557507 -2.684975 0.795007 -3.0006 0.001257 -3.0006 C -0.795618 -3.0006 -1.558118 -2.684975 -2.120618 -2.122475 C -2.683118 -1.559975 -2.998743 -0.79435 -2.998743 -0.0006 C -2.998743 0.796275 -2.683118 1.558775 -2.120618 2.121275 C -1.558118 2.683775 -0.795618 2.9994 0.001257 2.9994 Z M 0.001257 2.9994 " transform="matrix(1.25,0,0,1.25,289.904679,125.586688)"/>
<path style="fill-rule:nonzero;fill:rgb(100%,49.803922%,5.490196%);fill-opacity:0.501961;stroke-width:1;stroke-linecap:butt;stroke-linejoin:round;stroke:rgb(100%,49.803922%,5.490196%);stroke-opacity:0.501961;stroke-miterlimit:4;" d="M -0.000065 2.99976 C 0.79681 2.99976 1.55931 2.684135 2.12181 2.121635 C 2.68431 1.559135 2.999935 0.796635 2.999935 -0.00024 C 2.999935 -0.797115 2.68431 -1.559615 2.12181 -2.122115 C 1.55931 -2.684615 0.79681 -3.00024 -0.000065 -3.00024 C -0.79694 -3.00024 -1.55944 -2.684615 -2.12194 -2.122115 C -2.68444 -1.559615 -3.000065 -0.797115 -3.000065 -0.00024 C -3.000065 0.796635 -2.68444 1.559135 -2.12194 2.121635 C -1.55944 2.684135 -0.79694 2.99976 -0.000065 2.99976 Z M -0.000065 2.99976 " transform="matrix(1.25,0,0,1.25,290.140706,124.328425)"/>
<g clip-path="url(#clip18)" clip-rule="nonzero">
<path style=" stroke:none;fill-rule:nonzero;fill:rgb(100%,49.803922%,5.490196%);fill-opacity:0.501961;" d="M 295.320312 117.660156 C 296.3125 117.660156 297.265625 117.265625 297.96875 116.5625 C 298.671875 115.859375 299.070312 114.90625 299.070312 113.910156 C 299.070312 112.917969 298.671875 111.964844 297.96875 111.261719 C 297.265625 110.558594 296.3125 110.160156 295.320312 110.160156 C 294.324219 110.160156 293.371094 110.558594 292.667969 111.261719 C 291.964844 111.964844 291.570312 112.917969 291.570312 113.910156 C 291.570312 114.90625 291.964844 115.859375 292.667969 116.5625 C 293.371094 117.265625 294.324219 117.660156 295.320312 117.660156 Z M 295.320312 117.660156 "/>
</g>
<g clip-path="url(#clip19)" clip-rule="nonzero">
<path style="fill:none;stroke-width:1;stroke-linecap:butt;stroke-linejoin:round;stroke:rgb(100%,49.803922%,5.490196%);stroke-opacity:0.501961;stroke-miterlimit:4;" d="M 0.001166 2.998893 C 0.794916 2.998893 1.557416 2.683268 2.119916 2.120768 C 2.682416 1.558268 3.001166 0.795768 3.001166 -0.001107 C 3.001166 -0.794857 2.682416 -1.557357 2.119916 -2.119857 C 1.557416 -2.682357 0.794916 -3.001107 0.001166 -3.001107 C -0.795709 -3.001107 -1.558209 -2.682357 -2.120709 -2.119857 C -2.683209 -1.557357 -2.998834 -0.794857 -2.998834 -0.001107 C -2.998834 0.795768 -2.683209 1.558268 -2.120709 2.120768 C -1.558209 2.683268 -0.795709 2.998893 0.001166 2.998893 Z M 0.001166 2.998893 " transform="matrix(1.25,0,0,1.25,295.318855,113.91154)"/>
</g>
<g clip-path="url(#clip20)" clip-rule="nonzero">
<path style=" stroke:none;fill-rule:nonzero;fill:rgb(100%,49.803922%,5.490196%);fill-opacity:0.501961;" d="M 296.738281 99.425781 C 297.734375 99.425781 298.6875 99.03125 299.390625 98.328125 C 300.09375 97.625 300.488281 96.671875 300.488281 95.675781 C 300.488281 94.679688 300.09375 93.726562 299.390625 93.023438 C 298.6875 92.320312 297.734375 91.925781 296.738281 91.925781 C 295.742188 91.925781 294.789062 92.320312 294.085938 93.023438 C 293.382812 93.726562 292.988281 94.679688 292.988281 95.675781 C 292.988281 96.671875 293.382812 97.625 294.085938 98.328125 C 294.789062 99.03125 295.742188 99.425781 296.738281 99.425781 Z M 296.738281 99.425781 "/>
</g>
<g clip-path="url(#clip21)" clip-rule="nonzero">
<path style="fill:none;stroke-width:1;stroke-linecap:butt;stroke-linejoin:round;stroke:rgb(100%,49.803922%,5.490196%);stroke-opacity:0.501961;stroke-miterlimit:4;" d="M -0.000153 2.999865 C 0.796722 2.999865 1.559222 2.68424 2.121722 2.12174 C 2.684222 1.55924 2.999847 0.79674 2.999847 -0.000135 C 2.999847 -0.79701 2.684222 -1.55951 2.121722 -2.12201 C 1.559222 -2.68451 0.796722 -3.000135 -0.000153 -3.000135 C -0.797028 -3.000135 -1.559528 -2.68451 -2.122028 -2.12201 C -2.684528 -1.55951 -3.000153 -0.79701 -3.000153 -0.000135 C -3.000153 0.79674 -2.684528 1.55924 -2.122028 2.12174 C -1.559528 2.68424 -0.797028 2.999865 -0.000153 2.999865 Z M -0.000153 2.999865 " transform="matrix(1.25,0,0,1.25,296.738473,95.67595)"/>
</g>
<path style="fill:none;stroke-width:0.8;stroke-linecap:square;stroke-linejoin:miter;stroke:rgb(0%,0%,0%);stroke-opacity:1;stroke-miterlimit:4;" d="M 42.61875 146.9 L 42.61875 11 " transform="matrix(1.25,0,0,1.25,0,0)"/>
<path style="fill:none;stroke-width:0.8;stroke-linecap:square;stroke-linejoin:miter;stroke:rgb(0%,0%,0%);stroke-opacity:1;stroke-miterlimit:4;" d="M 237.921875 146.9 L 237.921875 11 " transform="matrix(1.25,0,0,1.25,0,0)"/>
<path style="fill:none;stroke-width:0.8;stroke-linecap:square;stroke-linejoin:miter;stroke:rgb(0%,0%,0%);stroke-opacity:1;stroke-miterlimit:4;" d="M 42.61875 146.9 L 237.921875 146.9 " transform="matrix(1.25,0,0,1.25,0,0)"/>
<path style="fill:none;stroke-width:0.8;stroke-linecap:square;stroke-linejoin:miter;stroke:rgb(0%,0%,0%);stroke-opacity:1;stroke-miterlimit:4;" d="M 42.61875 11 L 237.921875 11 " transform="matrix(1.25,0,0,1.25,0,0)"/>
<use xlink:href="#surface5" mask="url(#mask0)"/>
<path style="fill:none;stroke-width:1.5;stroke-linecap:square;stroke-linejoin:round;stroke:rgb(12.156863%,46.666667%,70.588235%);stroke-opacity:1;stroke-miterlimit:4;" d="M 175.58125 24.096875 L 195.58125 24.096875 " transform="matrix(1.25,0,0,1.25,0,0)"/>
<path style=" stroke:none;fill-rule:nonzero;fill:rgb(0%,0%,0%);fill-opacity:1;" d="M 254.4375 25.382812 L 262.148438 25.382812 L 262.148438 26.421875 L 258.914062 26.421875 L 258.914062 34.496094 L 257.675781 34.496094 L 257.675781 26.421875 L 254.4375 26.421875 Z M 254.4375 25.382812 "/>
<path style=" stroke:none;fill-rule:nonzero;fill:rgb(0%,0%,0%);fill-opacity:1;" d="M 265.40625 28.710938 C 265.28125 28.636719 265.144531 28.582031 264.996094 28.550781 C 264.847656 28.515625 264.683594 28.496094 264.503906 28.496094 C 263.871094 28.496094 263.382812 28.703125 263.042969 29.117188 C 262.703125 29.527344 262.53125 30.121094 262.53125 30.894531 L 262.53125 34.496094 L 261.402344 34.496094 L 261.402344 27.660156 L 262.53125 27.660156 L 262.53125 28.722656 C 262.769531 28.308594 263.078125 28 263.453125 27.800781 C 263.832031 27.597656 264.292969 27.496094 264.835938 27.496094 C 264.910156 27.496094 264.996094 27.503906 265.089844 27.511719 C 265.183594 27.523438 265.289062 27.535156 265.402344 27.558594 Z M 265.40625 28.710938 "/>
<path style=" stroke:none;fill-rule:nonzero;fill:rgb(0%,0%,0%);fill-opacity:1;" d="M 266.46875 31.800781 L 266.46875 27.660156 L 267.59375 27.660156 L 267.59375 31.757812 C 267.59375 32.402344 267.71875 32.890625 267.96875 33.214844 C 268.222656 33.535156 268.601562 33.699219 269.105469 33.699219 C 269.710938 33.699219 270.191406 33.503906 270.542969 33.117188 C 270.894531 32.730469 271.070312 32.203125 271.070312 31.535156 L 271.070312 27.660156 L 272.195312 27.660156 L 272.195312 34.496094 L 271.070312 34.496094 L 271.070312 33.445312 C 270.800781 33.863281 270.484375 34.171875 270.121094 34.371094 C 269.761719 34.574219 269.34375 34.675781 268.867188 34.675781 C 268.082031 34.675781 267.488281 34.429688 267.078125 33.941406 C 266.671875 33.453125 266.46875 32.738281 266.46875 31.800781 Z M 269.296875 27.496094 Z M 269.296875 27.496094 "/>
<path style=" stroke:none;fill-rule:nonzero;fill:rgb(0%,0%,0%);fill-opacity:1;" d="M 275.617188 25.71875 L 275.617188 27.660156 L 277.929688 27.660156 L 277.929688 28.535156 L 275.617188 28.535156 L 275.617188 32.246094 C 275.617188 32.800781 275.695312 33.160156 275.847656 33.320312 C 276 33.476562 276.308594 33.558594 276.777344 33.558594 L 277.929688 33.558594 L 277.929688 34.496094 L 276.777344 34.496094 C 275.910156 34.496094 275.3125 34.335938 274.984375 34.011719 C 274.65625 33.6875 274.488281 33.097656 274.488281 32.246094 L 274.488281 28.535156 L 273.664062 28.535156 L 273.664062 27.660156 L 274.488281 27.660156 L 274.488281 25.71875 Z M 275.617188 25.71875 "/>
<path style=" stroke:none;fill-rule:nonzero;fill:rgb(0%,0%,0%);fill-opacity:1;" d="M 285.09375 30.371094 L 285.09375 34.496094 L 283.96875 34.496094 L 283.96875 30.40625 C 283.96875 29.761719 283.84375 29.277344 283.589844 28.957031 C 283.335938 28.632812 282.960938 28.472656 282.457031 28.472656 C 281.847656 28.472656 281.371094 28.667969 281.019531 29.054688 C 280.667969 29.4375 280.496094 29.964844 280.496094 30.632812 L 280.496094 34.496094 L 279.367188 34.496094 L 279.367188 25 L 280.496094 25 L 280.496094 28.722656 C 280.765625 28.3125 281.082031 28.003906 281.445312 27.800781 C 281.808594 27.597656 282.230469 27.496094 282.707031 27.496094 C 283.492188 27.496094 284.085938 27.738281 284.488281 28.226562 C 284.890625 28.710938 285.09375 29.425781 285.09375 30.371094 Z M 285.09375 30.371094 "/>
<path style="fill:none;stroke-width:1.5;stroke-linecap:butt;stroke-linejoin:round;stroke:rgb(74.901961%,0%,74.901961%);stroke-opacity:1;stroke-dasharray:5.55,2.4;stroke-miterlimit:4;" d="M 175.58125 38.775 L 195.58125 38.775 " transform="matrix(1.25,0,0,1.25,0,0)"/>
<path style=" stroke:none;fill-rule:nonzero;fill:rgb(0%,0%,0%);fill-opacity:1;" d="M 256.9375 44.746094 L 256.9375 48.167969 L 258.484375 48.167969 C 259.0625 48.167969 259.503906 48.019531 259.816406 47.722656 C 260.128906 47.425781 260.289062 47.003906 260.289062 46.453125 C 260.289062 45.910156 260.128906 45.488281 259.816406 45.191406 C 259.503906 44.894531 259.0625 44.746094 258.484375 44.746094 Z M 255.703125 43.730469 L 258.484375 43.730469 C 259.507812 43.730469 260.28125 43.960938 260.804688 44.425781 C 261.328125 44.886719 261.585938 45.5625 261.585938 46.453125 C 261.585938 47.355469 261.328125 48.035156 260.804688 48.492188 C 260.28125 48.953125 259.507812 49.183594 258.484375 49.183594 L 256.9375 49.183594 L 256.9375 52.84375 L 255.703125 52.84375 Z M 255.703125 43.730469 "/>
<path style=" stroke:none;fill-rule:nonzero;fill:rgb(0%,0%,0%);fill-opacity:1;" d="M 266.933594 47.058594 C 266.808594 46.984375 266.671875 46.929688 266.523438 46.898438 C 266.375 46.863281 266.210938 46.84375 266.03125 46.84375 C 265.398438 46.84375 264.910156 47.050781 264.570312 47.464844 C 264.230469 47.875 264.058594 48.46875 264.058594 49.242188 L 264.058594 52.84375 L 262.929688 52.84375 L 262.929688 46.007812 L 264.058594 46.007812 L 264.058594 47.070312 C 264.296875 46.65625 264.605469 46.347656 264.980469 46.148438 C 265.359375 45.945312 265.820312 45.84375 266.363281 45.84375 C 266.4375 45.84375 266.523438 45.851562 266.617188 45.859375 C 266.710938 45.871094 266.816406 45.882812 266.929688 45.90625 Z M 266.933594 47.058594 "/>
<path style=" stroke:none;fill-rule:nonzero;fill:rgb(0%,0%,0%);fill-opacity:1;" d="M 273.679688 49.144531 L 273.679688 49.695312 L 268.515625 49.695312 C 268.5625 50.46875 268.796875 51.058594 269.214844 51.460938 C 269.628906 51.867188 270.210938 52.070312 270.957031 52.070312 C 271.386719 52.070312 271.804688 52.015625 272.210938 51.910156 C 272.613281 51.804688 273.015625 51.648438 273.417969 51.433594 L 273.417969 52.496094 C 273.011719 52.667969 272.601562 52.796875 272.175781 52.886719 C 271.753906 52.976562 271.324219 53.023438 270.890625 53.023438 C 269.796875 53.023438 268.933594 52.707031 268.296875 52.070312 C 267.660156 51.4375 267.34375 50.578125 267.34375 49.492188 C 267.34375 48.375 267.644531 47.488281 268.25 46.832031 C 268.851562 46.171875 269.667969 45.84375 270.695312 45.84375 C 271.613281 45.84375 272.339844 46.140625 272.875 46.734375 C 273.410156 47.324219 273.679688 48.128906 273.679688 49.144531 Z M 272.554688 48.816406 C 272.546875 48.203125 272.375 47.710938 272.039062 47.347656 C 271.703125 46.980469 271.257812 46.796875 270.707031 46.796875 C 270.078125 46.796875 269.578125 46.972656 269.203125 47.328125 C 268.824219 47.679688 268.609375 48.179688 268.550781 48.824219 Z M 272.554688 48.816406 "/>
<path style=" stroke:none;fill-rule:nonzero;fill:rgb(0%,0%,0%);fill-opacity:1;" d="M 280.019531 47.046875 L 280.019531 43.347656 L 281.144531 43.347656 L 281.144531 52.84375 L 280.019531 52.84375 L 280.019531 51.820312 C 279.785156 52.226562 279.484375 52.527344 279.125 52.726562 C 278.765625 52.921875 278.332031 53.023438 277.828125 53.023438 C 277.003906 53.023438 276.332031 52.691406 275.8125 52.035156 C 275.292969 51.375 275.035156 50.507812 275.035156 49.433594 C 275.035156 48.359375 275.292969 47.492188 275.8125 46.832031 C 276.332031 46.175781 277.003906 45.84375 277.828125 45.84375 C 278.332031 45.84375 278.765625 45.945312 279.125 46.140625 C 279.484375 46.339844 279.785156 46.640625 280.019531 47.046875 Z M 276.195312 49.433594 C 276.195312 50.257812 276.363281 50.90625 276.703125 51.375 C 277.042969 51.847656 277.511719 52.082031 278.105469 52.082031 C 278.699219 52.082031 279.164062 51.847656 279.507812 51.375 C 279.847656 50.90625 280.019531 50.257812 280.019531 49.433594 C 280.019531 48.605469 279.847656 47.960938 279.507812 47.488281 C 279.164062 47.019531 278.699219 46.785156 278.105469 46.785156 C 277.511719 46.785156 277.042969 47.019531 276.703125 47.488281 C 276.363281 47.960938 276.195312 48.605469 276.195312 49.433594 Z M 276.195312 49.433594 "/>
</g>
</svg>
